<svg xmlns="http://www.w3.org/2000/svg" viewBox="0 0 345.42 135.82"><defs><style>.cls-1,.cls-3{fill:none;}.cls-2{isolation:isolate;}.cls-3{stroke:#79ad84;stroke-linecap:round;stroke-linejoin:round;stroke-width:2.5px;}.cls-4{fill:#79ad84;}.cls-5{fill:#9e9c9d;}</style></defs><title>activity-high</title><g id="Layer_2" data-name="Layer 2"><g id="Layer_1-2" data-name="Layer 1"><rect class="cls-1" width="345.42" height="135.82"/><g class="cls-2"><path d="M123.77,25.91c0,.08.06.16.1.25l.1.27a2.76,2.76,0,0,1,.08.27,1,1,0,0,1,0,.23,1,1,0,0,1-.09.44,1,1,0,0,1-.25.33,1.23,1.23,0,0,1-.37.21,1.39,1.39,0,0,1-.9,0,1,1,0,0,1-.34-.24,1.8,1.8,0,0,1-.28-.42c-.08-.18-.17-.39-.27-.65l-.32-.87h-3.87l-.28.87c-.09.26-.17.48-.25.66a1.61,1.61,0,0,1-.28.42,1,1,0,0,1-.35.24,1.37,1.37,0,0,1-.47.07,1.31,1.31,0,0,1-.44-.07,1.23,1.23,0,0,1-.37-.21,1.2,1.2,0,0,1-.25-.33,1,1,0,0,1-.09-.44,1,1,0,0,1,0-.23,2.76,2.76,0,0,1,.08-.27l.1-.27c0-.09.07-.17.11-.25l1.84-5c.17-.47.33-.88.49-1.24a4.45,4.45,0,0,1,.52-.9,2,2,0,0,1,.65-.56,2.06,2.06,0,0,1,.9-.19,2.1,2.1,0,0,1,.84.15,1.69,1.69,0,0,1,.63.49,3.8,3.8,0,0,1,.53.89c.17.37.36.82.56,1.36Zm-4.46-6-1.51,4.39h3l-1.5-4.39Z"/><path d="M124.58,23.1a6.48,6.48,0,0,1,.36-2.23,4.77,4.77,0,0,1,1-1.65,4.19,4.19,0,0,1,1.56-1,5.29,5.29,0,0,1,2-.36,9.17,9.17,0,0,1,1.49.11,4.15,4.15,0,0,1,1.05.29,1.61,1.61,0,0,1,.62.43.86.86,0,0,1,.21.55.78.78,0,0,1-.08.35.73.73,0,0,1-.22.24,1,1,0,0,1-.3.14,1.24,1.24,0,0,1-.33,0h-.19a.57.57,0,0,1-.18,0l-.5-.13c-.15,0-.31-.08-.46-.12l-.46-.07a2.42,2.42,0,0,0-.47,0,3,3,0,0,0-1,.16,1.7,1.7,0,0,0-.79.54,2.84,2.84,0,0,0-.53,1.06,6.86,6.86,0,0,0,0,3.12,3.33,3.33,0,0,0,.47,1.08,2.09,2.09,0,0,0,.78.67,2.34,2.34,0,0,0,1.09.24,2.53,2.53,0,0,0,.53-.06,4.58,4.58,0,0,0,.56-.14c.19-.05.38-.12.58-.19l.59-.22a.69.69,0,0,1,.22,0,.64.64,0,0,1,.31.07.7.7,0,0,1,.24.17.76.76,0,0,1,.16.26.81.81,0,0,1,.06.31.76.76,0,0,1-.18.49,1.66,1.66,0,0,1-.46.4,3.37,3.37,0,0,1-.66.31,6.23,6.23,0,0,1-.77.22,7.22,7.22,0,0,1-.79.13,6.4,6.4,0,0,1-.73,0,5.06,5.06,0,0,1-1.88-.34,4.35,4.35,0,0,1-1.52-1,4.55,4.55,0,0,1-1-1.61A5.89,5.89,0,0,1,124.58,23.1Z"/><path d="M135.1,19.86a1.22,1.22,0,0,1-.38-.07,1.1,1.1,0,0,1-.31-.2.86.86,0,0,1-.21-.29.81.81,0,0,1-.08-.34.9.9,0,0,1,.08-.36,1,1,0,0,1,.21-.29,1.08,1.08,0,0,1,.31-.19,1,1,0,0,1,.38-.07h6.24a1,1,0,0,1,.38.07,1.08,1.08,0,0,1,.31.19,1,1,0,0,1,.21.29.9.9,0,0,1,.08.36.81.81,0,0,1-.08.34.86.86,0,0,1-.21.29,1.1,1.1,0,0,1-.31.2,1.22,1.22,0,0,1-.38.07h-1.83v6.79a1.3,1.3,0,0,1-.1.52,1.51,1.51,0,0,1-.27.42,1.22,1.22,0,0,1-.9.39,1.35,1.35,0,0,1-.5-.1,1.41,1.41,0,0,1-.4-.29,1.36,1.36,0,0,1-.37-.94V19.86Z"/><path d="M146.08,26.65a1.5,1.5,0,0,1-.09.52,1.34,1.34,0,0,1-.28.42,1.28,1.28,0,0,1-.4.29,1.28,1.28,0,0,1-1,0,1.18,1.18,0,0,1-.4-.29,1.17,1.17,0,0,1-.27-.42,1.3,1.3,0,0,1-.1-.52V19.38a1.27,1.27,0,0,1,.1-.52,1.12,1.12,0,0,1,.27-.43,1.22,1.22,0,0,1,.89-.38,1.18,1.18,0,0,1,.5.1,1.26,1.26,0,0,1,.4.28,1.28,1.28,0,0,1,.28.43,1.46,1.46,0,0,1,.09.52Z"/><path d="M152.06,26.13h0l2.07-7a1.77,1.77,0,0,1,.23-.5,1.5,1.5,0,0,1,.32-.34,1.36,1.36,0,0,1,.37-.21,1.33,1.33,0,0,1,.38-.07,1,1,0,0,1,.38.08.83.83,0,0,1,.32.2,1,1,0,0,1,.23.35,1.32,1.32,0,0,1,.08.47,2.27,2.27,0,0,1-.11.65l-1.78,5.49c-.15.46-.29.86-.43,1.19a3.31,3.31,0,0,1-.48.84,1.76,1.76,0,0,1-.66.5,2.42,2.42,0,0,1-.95.16,2.79,2.79,0,0,1-.88-.12,1.44,1.44,0,0,1-.62-.4,2.92,2.92,0,0,1-.49-.77,11.4,11.4,0,0,1-.46-1.2l-1.91-5.78a1.22,1.22,0,0,1-.06-.26,2,2,0,0,1,0-.23,1.21,1.21,0,0,1,.09-.48,1.41,1.41,0,0,1,.25-.37,1.16,1.16,0,0,1,.36-.23,1,1,0,0,1,.42-.09,1,1,0,0,1,.37.07,1.13,1.13,0,0,1,.35.2,1.32,1.32,0,0,1,.31.35,1.77,1.77,0,0,1,.22.52Z"/><path d="M160.71,26.65a1.3,1.3,0,0,1-.1.52,1.17,1.17,0,0,1-.27.42,1.41,1.41,0,0,1-.4.29,1.39,1.39,0,0,1-.5.1,1.3,1.3,0,0,1-.49-.1,1.18,1.18,0,0,1-.4-.29,1.17,1.17,0,0,1-.27-.42,1.3,1.3,0,0,1-.1-.52V19.38a1.27,1.27,0,0,1,.1-.52,1.12,1.12,0,0,1,.27-.43,1.15,1.15,0,0,1,.4-.28,1.13,1.13,0,0,1,.49-.1,1.21,1.21,0,0,1,.5.1,1.38,1.38,0,0,1,.4.28,1.12,1.12,0,0,1,.27.43,1.27,1.27,0,0,1,.1.52Z"/><path d="M162.7,19.86a1.16,1.16,0,0,1-.37-.07,1,1,0,0,1-.31-.2,1.06,1.06,0,0,1-.22-.29.8.8,0,0,1-.07-.34.89.89,0,0,1,.07-.36,1.23,1.23,0,0,1,.22-.29,1,1,0,0,1,.31-.19.94.94,0,0,1,.37-.07h6.24a1,1,0,0,1,.38.07,1.08,1.08,0,0,1,.31.19,1,1,0,0,1,.21.29.76.76,0,0,1,.08.36.68.68,0,0,1-.08.34.86.86,0,0,1-.21.29,1.1,1.1,0,0,1-.31.2,1.17,1.17,0,0,1-.38.07h-1.83v6.79a1.3,1.3,0,0,1-.1.52,1.17,1.17,0,0,1-.27.42,1.41,1.41,0,0,1-.4.29,1.3,1.3,0,0,1-1,0,1.41,1.41,0,0,1-.4-.29,1.51,1.51,0,0,1-.27-.42,1.5,1.5,0,0,1-.09-.52V19.86Z"/><path d="M176.1,26.65a1.31,1.31,0,0,1-.11.52,1.34,1.34,0,0,1-.28.42,1.28,1.28,0,0,1-.4.29,1.28,1.28,0,0,1-1,0,1.28,1.28,0,0,1-.4-.29,1.51,1.51,0,0,1-.27-.42,1.3,1.3,0,0,1-.1-.52V24.18L171,20a1.52,1.52,0,0,1-.18-.42,1.32,1.32,0,0,1-.06-.39,1,1,0,0,1,.1-.46,1.13,1.13,0,0,1,.24-.36,1,1,0,0,1,.36-.23,1,1,0,0,1,.42-.08,1.15,1.15,0,0,1,.65.2,1.56,1.56,0,0,1,.56.68l1.8,3.57h0l1.88-3.6a1.56,1.56,0,0,1,.54-.65,1.2,1.2,0,0,1,.64-.2,1,1,0,0,1,.36.07,1.08,1.08,0,0,1,.31.19,1.21,1.21,0,0,1,.2.3A1,1,0,0,1,179,19a1.31,1.31,0,0,1-.06.38,1.27,1.27,0,0,1-.18.4l-2.62,4.36Z"/><path d="M191,26.16a.89.89,0,0,1,.36.07,1.15,1.15,0,0,1,.29.2,1,1,0,0,1,.19.29.91.91,0,0,1,0,.7,1,1,0,0,1-.19.29,1.15,1.15,0,0,1-.29.2A.89.89,0,0,1,191,28h-4.68a1,1,0,0,1-.61-.16,1.24,1.24,0,0,1-.4-.42,1.93,1.93,0,0,1-.2-.6,3.93,3.93,0,0,1-.06-.69V19.38a1.27,1.27,0,0,1,.1-.52,1.12,1.12,0,0,1,.27-.43,1.26,1.26,0,0,1,.4-.28,1.16,1.16,0,0,1,.49-.1,1.18,1.18,0,0,1,.5.1,1.26,1.26,0,0,1,.4.28,1.28,1.28,0,0,1,.28.43,1.46,1.46,0,0,1,.1.52v6.78Z"/><path d="M194.48,28a1.17,1.17,0,0,1-.59-.14,1.15,1.15,0,0,1-.38-.38,1.65,1.65,0,0,1-.2-.51,2.86,2.86,0,0,1-.06-.58V19.86a5.39,5.39,0,0,1,0-.72,1.45,1.45,0,0,1,.22-.57,1,1,0,0,1,.47-.38,2.21,2.21,0,0,1,.85-.14h4.39a.91.91,0,0,1,.37.08.89.89,0,0,1,.31.19,1,1,0,0,1,.2.28.85.85,0,0,1,.08.35.77.77,0,0,1-.08.34,1,1,0,0,1-.2.28.89.89,0,0,1-.31.19.9.9,0,0,1-.37.07H195.7v2.22h3.21a1.21,1.21,0,0,1,.38.06,1,1,0,0,1,.3.2.8.8,0,0,1,.2.28.81.81,0,0,1,.08.34.82.82,0,0,1-.08.35.8.8,0,0,1-.2.28,1.17,1.17,0,0,1-.3.19,1.22,1.22,0,0,1-.38.07H195.7v2.39h3.69a.84.84,0,0,1,.35.07.9.9,0,0,1,.47.47.81.81,0,0,1,.07.35.88.88,0,0,1-.26.62,1.07,1.07,0,0,1-.28.19.84.84,0,0,1-.35.07Z"/><path d="M205.78,26.13h0l2.07-7a1.77,1.77,0,0,1,.23-.5,1.46,1.46,0,0,1,.31-.34,1.53,1.53,0,0,1,.37-.21,1.34,1.34,0,0,1,.39-.07,1,1,0,0,1,.38.08.83.83,0,0,1,.32.2,1,1,0,0,1,.22.35,1.13,1.13,0,0,1,.09.47,2.27,2.27,0,0,1-.11.65l-1.78,5.49c-.15.46-.3.86-.44,1.19a3,3,0,0,1-.48.84,1.65,1.65,0,0,1-.65.5,2.45,2.45,0,0,1-.95.16,2.79,2.79,0,0,1-.88-.12,1.39,1.39,0,0,1-.62-.4,2.69,2.69,0,0,1-.49-.77,11.4,11.4,0,0,1-.46-1.2l-1.91-5.78a1.22,1.22,0,0,1-.06-.26,2,2,0,0,1,0-.23,1.15,1.15,0,0,1,.34-.85,1.05,1.05,0,0,1,.36-.23,1,1,0,0,1,.41-.09,1,1,0,0,1,.38.07,1.13,1.13,0,0,1,.35.2,1.8,1.8,0,0,1,.31.35,2.09,2.09,0,0,1,.22.52Z"/><path d="M213.09,28a1.13,1.13,0,0,1-.58-.14,1.06,1.06,0,0,1-.38-.38,1.45,1.45,0,0,1-.21-.51,2.86,2.86,0,0,1-.06-.58V19.86a5.31,5.31,0,0,1,0-.72,1.3,1.3,0,0,1,.21-.57,1.09,1.09,0,0,1,.48-.38,2.18,2.18,0,0,1,.85-.14h4.38a1,1,0,0,1,.68.27.83.83,0,0,1,.21.28.84.84,0,0,1,.07.35.77.77,0,0,1-.07.34.83.83,0,0,1-.21.28,1,1,0,0,1-.68.26h-3.52v2.22h3.22a1.15,1.15,0,0,1,.37.06.79.79,0,0,1,.3.2.83.83,0,0,1,.21.28.8.8,0,0,1,.07.34.81.81,0,0,1-.07.35.83.83,0,0,1-.21.28.91.91,0,0,1-.3.19,1.16,1.16,0,0,1-.37.07h-3.22v2.39H218a.8.8,0,0,1,.34.07.77.77,0,0,1,.28.19.9.9,0,0,1,.2.28,1,1,0,0,1,.06.35.93.93,0,0,1-.06.34.8.8,0,0,1-.2.28.92.92,0,0,1-.28.19A.8.8,0,0,1,218,28Z"/><path d="M226.5,26.16a.84.84,0,0,1,.35.07,1,1,0,0,1,.29.2.81.81,0,0,1,.19.29.91.91,0,0,1,0,.7.81.81,0,0,1-.19.29,1,1,0,0,1-.29.2.84.84,0,0,1-.35.07h-4.69a1.07,1.07,0,0,1-.61-.16,1.24,1.24,0,0,1-.4-.42,2.23,2.23,0,0,1-.2-.6,3.93,3.93,0,0,1-.06-.69V19.38a1.27,1.27,0,0,1,.1-.52,1.43,1.43,0,0,1,.27-.43,1.26,1.26,0,0,1,.4-.28,1.18,1.18,0,0,1,.5-.1,1.16,1.16,0,0,1,.49.1,1.23,1.23,0,0,1,.68.71,1.46,1.46,0,0,1,.1.52v6.78Z"/></g><line class="cls-3" x1="24.62" y1="108.2" x2="313.02" y2="108.2"/><g class="cls-2"><path d="M145.57,130.8l-2.06-6.73h-.06c.08,1.37.11,2.28.11,2.74v4h-1.62v-8.57h2.47l2,6.55h0l2.15-6.55h2.47v8.57h-1.69v-4.06c0-.19,0-.41,0-.66s0-.92.07-2h-.05l-2.21,6.71Z"/><path d="M159.07,127.51a3.49,3.49,0,0,1-.85,2.5,3,3,0,0,1-2.34.9,3.26,3.26,0,0,1-1.67-.41,2.73,2.73,0,0,1-1.11-1.19,4,4,0,0,1-.38-1.8,3.56,3.56,0,0,1,.83-2.5,3.11,3.11,0,0,1,2.36-.89,3.32,3.32,0,0,1,1.66.41,2.81,2.81,0,0,1,1.11,1.18A3.92,3.92,0,0,1,159.07,127.51Zm-4.53,0a2.76,2.76,0,0,0,.32,1.47,1.14,1.14,0,0,0,1,.5,1.13,1.13,0,0,0,1-.5,2.77,2.77,0,0,0,.31-1.47,2.7,2.7,0,0,0-.32-1.46,1.33,1.33,0,0,0-2.06,0A2.61,2.61,0,0,0,154.54,127.51Z"/><path d="M162.62,130.91a2.14,2.14,0,0,1-1.81-.89,5,5,0,0,1,0-5,2.17,2.17,0,0,1,1.85-.9,2.13,2.13,0,0,1,1.88,1h.06a7.22,7.22,0,0,1-.13-1.3v-2.1h1.79v9.12H164.9l-.35-.85h-.07A2.06,2.06,0,0,1,162.62,130.91Zm.63-1.42a1.19,1.19,0,0,0,1-.4,2.36,2.36,0,0,0,.35-1.35v-.2a2.66,2.66,0,0,0-.33-1.51,1.2,1.2,0,0,0-1.05-.46,1,1,0,0,0-.93.51,2.73,2.73,0,0,0-.33,1.48,2.61,2.61,0,0,0,.33,1.45A1.09,1.09,0,0,0,163.25,129.49Z"/><path d="M171.1,130.91a3.38,3.38,0,0,1-2.47-.87,3.32,3.32,0,0,1-.89-2.47,3.64,3.64,0,0,1,.82-2.55,2.94,2.94,0,0,1,2.28-.9,2.89,2.89,0,0,1,2.16.79,3,3,0,0,1,.78,2.19V128h-4.23a1.71,1.71,0,0,0,.45,1.18,1.58,1.58,0,0,0,1.19.43,5,5,0,0,0,1.11-.12,5.47,5.47,0,0,0,1.11-.39v1.38a4.31,4.31,0,0,1-1,.35A6,6,0,0,1,171.1,130.91Zm-.25-5.52a1.14,1.14,0,0,0-.89.36,1.69,1.69,0,0,0-.37,1h2.51a1.47,1.47,0,0,0-.35-1A1.16,1.16,0,0,0,170.85,125.39Z"/><path d="M178.88,124.12a3.32,3.32,0,0,1,.61,0l-.14,1.68a2,2,0,0,0-.52-.06,1.93,1.93,0,0,0-1.34.44,1.57,1.57,0,0,0-.47,1.23v3.34h-1.79v-6.56h1.35l.27,1.11h.08a2.45,2.45,0,0,1,.83-.89A2,2,0,0,1,178.88,124.12Z"/><path d="M184.84,130.8l-.35-.9h0a2.64,2.64,0,0,1-.93.79,3,3,0,0,1-1.25.22,2,2,0,0,1-1.48-.54,2,2,0,0,1-.55-1.53,1.74,1.74,0,0,1,.73-1.54,4.28,4.28,0,0,1,2.2-.55l1.14,0v-.29a.9.9,0,0,0-1-1,4.57,4.57,0,0,0-1.84.48l-.6-1.21a5.4,5.4,0,0,1,2.51-.59,3.14,3.14,0,0,1,2,.57,2.14,2.14,0,0,1,.71,1.75v4.37Zm-.53-3-.69,0a2.26,2.26,0,0,0-1.16.28.91.91,0,0,0-.38.79c0,.5.29.76.87.76a1.37,1.37,0,0,0,1-.36,1.26,1.26,0,0,0,.37-.95Z"/><path d="M190.69,129.49a3.79,3.79,0,0,0,1.12-.21v1.33a4,4,0,0,1-1.64.3,2,2,0,0,1-1.56-.54,2.34,2.34,0,0,1-.49-1.63v-3.15h-.86v-.76l1-.6.51-1.38h1.15v1.39h1.83v1.35h-1.83v3.15a.71.71,0,0,0,.21.57A.85.85,0,0,0,190.69,129.49Z"/><path d="M196.1,130.91a3.37,3.37,0,0,1-2.47-.87,3.28,3.28,0,0,1-.89-2.47,3.64,3.64,0,0,1,.82-2.55,3.34,3.34,0,0,1,4.44-.11,3,3,0,0,1,.77,2.19V128h-4.22a1.71,1.71,0,0,0,.45,1.18,1.56,1.56,0,0,0,1.18.43,5,5,0,0,0,1.12-.12,5.4,5.4,0,0,0,1.1-.39v1.38a4.08,4.08,0,0,1-1,.35A6.12,6.12,0,0,1,196.1,130.91Zm-.25-5.52a1.12,1.12,0,0,0-.89.36,1.63,1.63,0,0,0-.37,1h2.51a1.52,1.52,0,0,0-.35-1A1.16,1.16,0,0,0,195.85,125.39Z"/></g><g class="cls-2"><path d="M303.75,129.24h-1.81v-3.7h-3.39v3.7h-1.82v-8.57h1.82V124h3.39v-3.36h1.81Z"/><path d="M305.7,121c0-.59.32-.88,1-.88s1,.29,1,.88a.84.84,0,0,1-.24.64,1,1,0,0,1-.73.24C306,121.88,305.7,121.58,305.7,121Zm1.86,8.24h-1.79v-6.55h1.79Z"/><path d="M315.14,122.69v.91l-1,.26a1.76,1.76,0,0,1,.28,1,2,2,0,0,1-.73,1.64,3.2,3.2,0,0,1-2,.59l-.33,0-.26,0a.61.61,0,0,0-.28.47q0,.39,1,.39h1.11a2.55,2.55,0,0,1,1.65.46,1.67,1.67,0,0,1,.56,1.36,2,2,0,0,1-1,1.78,5,5,0,0,1-2.75.63,3.87,3.87,0,0,1-2.09-.47,1.51,1.51,0,0,1-.73-1.34,1.41,1.41,0,0,1,.37-1,2.07,2.07,0,0,1,1.09-.57,1.13,1.13,0,0,1-.48-.39.92.92,0,0,1,0-1.18,2.35,2.35,0,0,1,.62-.49,1.76,1.76,0,0,1-.81-.72,2.18,2.18,0,0,1-.3-1.16,2.07,2.07,0,0,1,.69-1.66,3,3,0,0,1,2-.58,4.12,4.12,0,0,1,.66.05l.48.07Zm-5.06,7.48a.66.66,0,0,0,.35.58,2,2,0,0,0,1,.21,3.41,3.41,0,0,0,1.5-.27.79.79,0,0,0,.55-.72.53.53,0,0,0-.32-.51,2.76,2.76,0,0,0-1-.14h-.93a1.44,1.44,0,0,0-.82.23A.73.73,0,0,0,310.08,130.17Zm.65-5.34a1.36,1.36,0,0,0,.24.85.88.88,0,0,0,.74.31.85.85,0,0,0,.74-.31,1.36,1.36,0,0,0,.24-.85c0-.78-.33-1.18-1-1.18S310.73,124.05,310.73,124.83Z"/><path d="M322.26,129.24h-1.79v-3.83q0-1.41-1.05-1.41a1.19,1.19,0,0,0-1.08.51,3,3,0,0,0-.34,1.65v3.08h-1.79v-9.12H318V122c0,.15,0,.49,0,1l0,.53H318a2.07,2.07,0,0,1,1.9-1,2.28,2.28,0,0,1,1.75.62,2.46,2.46,0,0,1,.6,1.78Z"/></g><g class="cls-2"><path d="M16.31,130.42v-8.57h1.81v7.07H21.6v1.5Z"/><path d="M28.9,127.13a3.48,3.48,0,0,1-.85,2.5,3,3,0,0,1-2.35.91,3.25,3.25,0,0,1-1.66-.42,2.75,2.75,0,0,1-1.11-1.18,4,4,0,0,1-.38-1.81,3.52,3.52,0,0,1,.83-2.49,3.07,3.07,0,0,1,2.36-.89,3.22,3.22,0,0,1,1.66.41,2.73,2.73,0,0,1,1.11,1.17A3.94,3.94,0,0,1,28.9,127.13Zm-4.53,0a2.67,2.67,0,0,0,.32,1.47,1.33,1.33,0,0,0,2.07,0,2.91,2.91,0,0,0,.31-1.48,2.73,2.73,0,0,0-.32-1.46,1.14,1.14,0,0,0-1-.48,1.17,1.17,0,0,0-1,.48A2.71,2.71,0,0,0,24.37,127.13Z"/><path d="M35.76,130.42l-.51-2.29-.67-2.9h0l-1.19,5.19H31.42l-1.87-6.55h1.79l.75,2.9c.12.52.25,1.24.37,2.15h0a10.69,10.69,0,0,1,.2-1.41l.09-.5.81-3.14h2l.77,3.14c0,.09,0,.21.07.38s.07.35.1.54.06.37.08.55,0,.33,0,.44h0c0-.28.1-.67.19-1.16s.15-.82.19-1l.79-2.9h1.75l-1.89,6.55Z"/></g><circle class="cls-4" cx="311.73" cy="107.28" r="7.54"/><path class="cls-5" d="M17,55.89l-1.19,3.63-1.53-2.89-.11,3.8C10.61,60.65,10.9,65,10.9,65a3.81,3.81,0,0,0-1.82.51c-.79.51,0,3.06,0,3.06l4.48.46s2.38-.29,2.15,4.19,3.63,8,3.63,8l.23,8.11s-.34.79-2.15,1.7.17,1.47,1.64,1.3a18.07,18.07,0,0,1,2-.1.9.9,0,0,0,.9-.73,29.78,29.78,0,0,0,.25-8.16c5.44-.34,11,6.9,11,6.9l-1.87.27c-.79.11-.87.76-.51,1.63h0s8.58.2,9.24-.19-.76-1.81-.76-1.81l.29-2.66s4.86,3.62,6.48,0-3.43-6.1-3.43-6.1c3.24,3,1.43,4.67.09,5S40.09,84,40.09,81.53,25.42,70.1,25.42,70.1c-4-.29-8.48-12.58-8.48-12.58Z"/><path class="cls-5" d="M152.6,62.48h0l-.49-3.07,1.8,2.41.26-2.37s5.84,9.52,7.9,9.7,18.32-1.45,20.29.52h0s4-2,1-4.47h0s-4.25-.83-3.64,2.72a1.54,1.54,0,0,1-1.27-2.33,4.76,4.76,0,0,1,6.05-2.8c3.15.87,4,4.34,3.24,6a15.3,15.3,0,0,1-2.67,3.42h0s1.4,2.15-.88,6.09c-.53.92-.95,1.61-1.29,2.12a4.43,4.43,0,0,0-.51,3.86h0a5.4,5.4,0,0,1,.22,1.7,24.33,24.33,0,0,1-1,4.29s0,1.36-1,1.36h-2.72s-.57-.83,1.1-1.09.67-8.33.67-8.33l-.32,2s-.66,4.47-1.62,4.61-3.47.61-3.16-.09,2.24-1.32,2.24-1.32l.61-8.18h0s-.44,0-1,0a18.66,18.66,0,0,0-8.33,1.25,4.08,4.08,0,0,1-2.74.23c-.48-.48-.29,7.17-.29,7.18h0s0,1.66-.88,1.92a9.18,9.18,0,0,1-2.67.05s-.79-.83.39-1.35,1.71-1.67,1.54-4c0,0-.18-2-1-.79L161.93,88h0l-.7,2.41s.22,1.54-3.55,1.27c0,0-1.09-.35,0-1.36a1.84,1.84,0,0,0,2.15-1.62c.22-1.88,0-7.66,0-7.67h0a68.46,68.46,0,0,1-3-6.49c-.3-1.27-2.63-3.9-2.63-3.9h0S150.4,72,149.13,71a1.79,1.79,0,0,1,.75-3.11l1.73-2.82"/><path class="cls-4" d="M287,66.64,286.79,64l-2.2,2.84s-3.39,1.78-3.11,4.2c0,0-3.71,2.89-1.69,3.71a8.63,8.63,0,0,0,4.8,0l3.34.23L289,76.29s-3.43.73-5.26.18S278.09,80,278.09,80a.89.89,0,0,0,1.38.55s1,2.42,2.65,1.14,2.52-4.21,11,.28c0,0,2.89,1.51,2.84-1.92A13.81,13.81,0,0,0,310.5,78s2.08-1.38,2,3.13,8.67,4.91,9.3,2.77,1,4.45,1,4.45.76,2.2,1.8,2.2-.35-2.89-.35-2.89l-.17-3.82s1.38-.4,1.56,4.28c0,0,1.1,1.73,2,1.73s-.46-2.89-.46-2.89L327,81.24s-1-1.27-3.18-.06c0,0,2.48-2.77-1-5.78,0,0-.86-3.12,3.24-.05s12-5,12.26-7.81c0,0-4.69,5.09-11.1,4.22s-8.67-1.33-9.89-2.25-13.12-.12-13.12-.12-5.08-2.37-8.15-2a22.24,22.24,0,0,1-5.72-.12l.23-3L287.9,67Z"/></g></g></svg>