<?xml version="1.0" encoding="utf-8"?>
<!-- Generator: Adobe Illustrator 22.0.1, SVG Export Plug-In . SVG Version: 6.00 Build 0)  -->
<svg version="1.1" id="Layer_1" xmlns="http://www.w3.org/2000/svg" xmlns:xlink="http://www.w3.org/1999/xlink" x="0px" y="0px"
	 viewBox="0 0 256.6 114.3" style="enable-background:new 0 0 256.6 114.3;" xml:space="preserve">
<style type="text/css">
	.st0{fill:none;stroke:#79AD84;stroke-width:2.17;stroke-linecap:round;stroke-linejoin:round;}
	.st1{fill:#79AD84;}
	.st2{fill:#9E9C9D;}
</style>
<title>activity-mod</title>
<g id="Layer_2_1_">
	<g id="Layer_1-2">
		<g>
			<path d="M76.5,8.1c0,0.1,0.1,0.2,0.1,0.2s0.1,0.2,0.1,0.3c0,0.1,0.1,0.2,0.1,0.3c0,0.1,0,0.2,0,0.2c0,0.2,0,0.3-0.1,0.4
				c-0.1,0.1-0.1,0.2-0.2,0.3c-0.1,0.1-0.2,0.2-0.4,0.2c-0.1,0-0.3,0.1-0.4,0.1c-0.2,0-0.3,0-0.5-0.1C75,10,74.9,9.9,74.8,9.8
				c-0.1-0.1-0.2-0.3-0.3-0.4c-0.1-0.2-0.2-0.4-0.3-0.6L74,7.9h-3.9l-0.3,0.9c-0.1,0.2-0.1,0.4-0.2,0.7c-0.1,0.2-0.2,0.3-0.3,0.4
				c-0.1,0.1-0.2,0.2-0.3,0.2c-0.3,0.1-0.6,0.1-0.9,0c-0.1,0-0.3-0.1-0.4-0.2c-0.1-0.1-0.2-0.2-0.2-0.3c-0.1-0.1-0.1-0.3-0.1-0.4
				c0-0.1,0-0.2,0-0.2c0-0.1,0-0.2,0.1-0.3c0-0.1,0.1-0.2,0.1-0.3s0.1-0.2,0.1-0.2l1.8-5c0.2-0.5,0.3-0.9,0.5-1.2
				c0.1-0.3,0.3-0.6,0.5-0.9c0.2-0.2,0.4-0.4,0.7-0.6c0.3-0.1,0.6-0.2,0.9-0.2c0.3,0,0.6,0,0.8,0.1c0.2,0.1,0.5,0.3,0.6,0.5
				c0.2,0.3,0.4,0.6,0.5,0.9c0.2,0.4,0.3,0.8,0.6,1.4L76.5,8.1z M72,2.1l-1.5,4.4h3L72,2.1L72,2.1z"/>
			<path d="M77.3,5.3c0-0.8,0.1-1.5,0.4-2.2c0.2-0.6,0.6-1.2,1-1.7c0.4-0.4,1-0.8,1.6-1c0.6-0.2,1.3-0.4,2-0.4c0.5,0,1,0,1.5,0.1
				c0.3,0.1,0.7,0.2,1,0.3c0.2,0.1,0.5,0.2,0.6,0.4c0.1,0.2,0.2,0.3,0.2,0.6c0,0.1,0,0.2-0.1,0.4c-0.1,0.1-0.1,0.2-0.2,0.2
				c-0.1,0.1-0.2,0.1-0.3,0.1c-0.1,0-0.2,0-0.3,0h-0.2c-0.1,0-0.1,0-0.2,0L83.8,2l-0.5-0.1l-0.5-0.1c-0.2,0-0.3,0-0.5,0
				c-0.3,0-0.7,0-1,0.2c-0.3,0.1-0.6,0.3-0.8,0.5c-0.2,0.3-0.4,0.7-0.5,1.1c-0.1,0.6-0.2,1.1-0.2,1.7c0,0.5,0,1,0.2,1.4
				c0.1,0.4,0.3,0.7,0.5,1.1C80.7,8,81,8.3,81.3,8.4c0.3,0.2,0.7,0.2,1.1,0.2c0.2,0,0.4,0,0.5-0.1c0.2,0,0.4-0.1,0.6-0.1
				c0.2,0,0.4-0.1,0.6-0.2l0.6-0.2c0.1,0,0.1,0,0.2,0c0.1,0,0.2,0,0.3,0.1c0.1,0,0.2,0.1,0.2,0.2c0.1,0.1,0.1,0.2,0.2,0.3
				c0,0.1,0,0.2,0.1,0.3c0,0.2-0.1,0.3-0.2,0.5c-0.1,0.2-0.3,0.3-0.5,0.4c-0.2,0.1-0.4,0.2-0.7,0.3c-0.2,0.1-0.5,0.2-0.8,0.2
				c-0.3,0.1-0.5,0.1-0.8,0.1c-0.2,0-0.5,0-0.7,0.1c-0.6,0-1.3-0.1-1.9-0.3c-0.6-0.2-1.1-0.6-1.5-1c-0.4-0.5-0.8-1-1-1.6
				C77.4,6.8,77.3,6,77.3,5.3z"/>
			<path d="M87.8,2c-0.1,0-0.2,0-0.4,0c-0.1,0-0.2-0.1-0.3-0.2C87,1.7,87,1.6,86.9,1.5c0-0.1-0.1-0.2-0.1-0.4c0-0.1,0-0.3,0.1-0.4
				C87,0.7,87,0.6,87.1,0.5c0.1-0.1,0.2-0.1,0.3-0.2c0.1,0,0.2-0.1,0.4-0.1H94c0.1,0,0.3,0,0.4,0.1c0.1,0,0.2,0.1,0.3,0.2
				c0.1,0.1,0.2,0.2,0.2,0.3C95,0.9,95,1,95,1.1c0,0.1,0,0.2-0.1,0.4c0,0.1-0.1,0.2-0.2,0.3c-0.1,0.1-0.2,0.1-0.3,0.2
				C94.3,2,94.1,2,94,2h-1.8v6.8c0,0.2,0,0.4-0.1,0.5c-0.1,0.2-0.2,0.3-0.3,0.4c-0.1,0.1-0.3,0.2-0.4,0.3c-0.2,0.1-0.3,0.1-0.5,0.1
				c-0.2,0-0.3,0-0.5-0.1c-0.2-0.1-0.3-0.2-0.4-0.3c-0.1-0.1-0.2-0.3-0.3-0.4c-0.1-0.2-0.1-0.3-0.1-0.5V2H87.8z"/>
			<path d="M98.8,8.8c0,0.2,0,0.4-0.1,0.5c-0.1,0.2-0.2,0.3-0.3,0.4c-0.2,0.3-0.6,0.4-0.9,0.4c-0.2,0-0.3,0-0.5-0.1
				c-0.1-0.1-0.3-0.2-0.4-0.3c-0.2-0.3-0.4-0.6-0.4-0.9V1.6c0-0.2,0-0.4,0.1-0.5c0.1-0.2,0.2-0.3,0.3-0.4c0.1-0.1,0.2-0.2,0.4-0.3
				c0.2-0.1,0.3-0.1,0.5-0.1c0.2,0,0.3,0,0.5,0.1c0.2,0.1,0.3,0.2,0.4,0.3c0.1,0.1,0.2,0.3,0.3,0.4c0.1,0.2,0.1,0.3,0.1,0.5
				L98.8,8.8z"/>
			<path d="M104.8,8.3L104.8,8.3l2.1-7c0-0.2,0.1-0.3,0.2-0.5c0.1-0.1,0.2-0.2,0.3-0.3c0.1-0.1,0.2-0.2,0.4-0.2
				c0.1,0,0.3-0.1,0.4-0.1c0.1,0,0.3,0,0.4,0.1c0.1,0.1,0.2,0.1,0.3,0.2c0.1,0.1,0.2,0.2,0.2,0.3c0.1,0.2,0.1,0.3,0.1,0.5
				c0,0.2,0,0.4-0.1,0.6l-1.8,5.5c-0.2,0.5-0.3,0.9-0.4,1.2c-0.1,0.3-0.3,0.6-0.5,0.8c-0.2,0.2-0.4,0.4-0.7,0.5
				c-0.3,0.1-0.6,0.2-0.9,0.2c-0.3,0-0.6,0-0.9-0.1c-0.2-0.1-0.5-0.2-0.6-0.4c-0.2-0.2-0.4-0.5-0.5-0.8c-0.1-0.3-0.3-0.7-0.4-1.2
				l-1.9-5.8c0-0.1-0.1-0.2-0.1-0.3c0-0.1,0-0.2,0-0.2c0-0.2,0-0.3,0.1-0.5c0.1-0.1,0.1-0.3,0.2-0.4c0.1-0.1,0.2-0.2,0.4-0.2
				c0.1-0.1,0.3-0.1,0.4-0.1c0.1,0,0.3,0,0.4,0.1c0.1,0,0.3,0.1,0.4,0.2c0.1,0.1,0.2,0.2,0.3,0.4c0.1,0.2,0.2,0.3,0.2,0.5L104.8,8.3
				z"/>
			<path d="M113.4,8.8c0,0.2,0,0.4-0.1,0.5c-0.1,0.2-0.2,0.3-0.3,0.4c-0.1,0.1-0.2,0.2-0.4,0.3c-0.3,0.1-0.7,0.1-1,0
				c-0.2-0.1-0.3-0.2-0.4-0.3c-0.1-0.1-0.2-0.3-0.3-0.4c-0.1-0.2-0.1-0.3-0.1-0.5V1.6c0-0.2,0-0.4,0.1-0.6c0.1-0.2,0.2-0.3,0.3-0.4
				c0.1-0.1,0.2-0.2,0.4-0.3c0.2-0.1,0.3-0.1,0.5-0.1c0.2,0,0.3,0,0.5,0.1c0.2,0.1,0.3,0.2,0.4,0.3c0.1,0.1,0.2,0.3,0.3,0.4
				c0.1,0.2,0.1,0.3,0.1,0.5L113.4,8.8z"/>
			<path d="M115.4,2c-0.1,0-0.3,0-0.4,0c-0.1,0-0.2-0.1-0.3-0.2c-0.1-0.1-0.2-0.2-0.2-0.3c-0.1-0.1-0.1-0.2-0.1-0.4
				c0-0.1,0-0.2,0.1-0.4c0-0.1,0.1-0.2,0.2-0.3c0.1-0.1,0.2-0.2,0.3-0.2c0.1,0,0.2-0.1,0.4-0.1h6.2c0.1,0,0.3,0,0.4,0.1
				c0.1,0,0.2,0.1,0.3,0.2c0.1,0.1,0.2,0.2,0.2,0.3c0.1,0.1,0.1,0.2,0.1,0.4c0,0.1,0,0.2-0.1,0.4c-0.1,0.1-0.1,0.2-0.2,0.3
				c-0.1,0.1-0.2,0.2-0.3,0.2c-0.1,0.1-0.2,0.1-0.4,0.1h-1.8v6.8c0,0.2,0,0.4-0.1,0.5c-0.1,0.2-0.2,0.3-0.3,0.4
				c-0.1,0.1-0.2,0.2-0.4,0.3c-0.3,0.1-0.7,0.1-1,0c-0.2-0.1-0.3-0.2-0.4-0.3c-0.1-0.1-0.2-0.3-0.3-0.4c-0.1-0.2-0.1-0.3-0.1-0.5V2
				H115.4z"/>
			<path d="M128.8,8.8c0,0.2,0,0.4-0.1,0.5c-0.1,0.2-0.2,0.3-0.3,0.4c-0.1,0.1-0.3,0.2-0.4,0.3c-0.3,0.1-0.7,0.1-1,0
				c-0.1-0.1-0.3-0.2-0.4-0.3c-0.1-0.1-0.2-0.3-0.3-0.4c-0.1-0.2-0.1-0.3-0.1-0.5V6.4l-2.5-4.2c-0.1-0.1-0.1-0.3-0.2-0.4
				c0-0.1,0-0.3,0-0.4c0-0.2,0-0.3,0-0.5c0.1-0.1,0.1-0.3,0.2-0.4c0.1-0.1,0.2-0.2,0.3-0.2c0.1-0.1,0.3-0.1,0.4-0.1
				c0.2,0,0.5,0.1,0.7,0.2c0.2,0.2,0.4,0.4,0.6,0.7l1.8,3.6l0,0l1.9-3.6c0.1-0.3,0.3-0.5,0.6-0.6c0.2-0.1,0.4-0.2,0.6-0.2
				c0.1,0,0.3,0,0.4,0.1c0.1,0,0.2,0.1,0.3,0.2c0.1,0.1,0.2,0.2,0.2,0.3c0,0.1,0.1,0.3,0.1,0.4c0,0.1,0,0.2,0,0.4
				c0,0.1-0.1,0.3-0.2,0.4l-2.6,4.4L128.8,8.8z"/>
			<path d="M143.7,8.3c0.2,0,0.5,0.1,0.6,0.3c0.1,0.1,0.1,0.2,0.2,0.3c0.1,0.2,0.1,0.5,0,0.7c0,0.1-0.1,0.2-0.2,0.3
				c-0.1,0.1-0.2,0.2-0.3,0.2c-0.1,0-0.2,0.1-0.4,0.1H139c-0.4,0-0.8-0.2-1-0.6c-0.1-0.2-0.2-0.4-0.2-0.6c0-0.2-0.1-0.5-0.1-0.7V1.6
				c0-0.2,0-0.4,0.1-0.5c0.1-0.2,0.2-0.3,0.3-0.4c0.1-0.1,0.3-0.2,0.4-0.3c0.2-0.1,0.3-0.1,0.5-0.1c0.2,0,0.3,0,0.5,0.1
				c0.2,0.1,0.3,0.2,0.4,0.3c0.1,0.1,0.2,0.3,0.3,0.4c0.1,0.2,0.1,0.3,0.1,0.5v6.8H143.7z"/>
			<path d="M147.2,10.2c-0.4,0-0.8-0.2-1-0.5c-0.1-0.2-0.2-0.3-0.2-0.5c0-0.2-0.1-0.4-0.1-0.6V2c0-0.2,0-0.5,0.1-0.7
				c0-0.2,0.1-0.4,0.2-0.6c0.1-0.2,0.3-0.3,0.5-0.4c0.3-0.1,0.6-0.2,0.9-0.1h4.4c0.1,0,0.3,0,0.4,0.1c0.1,0.1,0.2,0.1,0.3,0.2
				c0.1,0.1,0.2,0.2,0.2,0.3c0,0.1,0.1,0.2,0.1,0.4c0,0.1,0,0.2-0.1,0.3c0,0.1-0.1,0.2-0.2,0.3c-0.2,0.2-0.4,0.3-0.7,0.3h-3.5v2.2
				h3.2c0.1,0,0.3,0,0.4,0.1c0.1,0,0.2,0.1,0.3,0.2c0.1,0.1,0.2,0.2,0.2,0.3c0,0.1,0.1,0.2,0.1,0.3c0,0.1,0,0.2-0.1,0.3
				c0,0.1-0.1,0.2-0.2,0.3c-0.1,0.1-0.2,0.1-0.3,0.2c-0.1,0-0.2,0.1-0.4,0.1h-3.2v2.4h3.7c0.1,0,0.2,0,0.3,0.1
				c0.1,0,0.2,0.1,0.3,0.2c0.1,0.1,0.2,0.2,0.2,0.3c0,0.1,0.1,0.2,0.1,0.4c0,0.1,0,0.2-0.1,0.3c0,0.1-0.1,0.2-0.2,0.3
				c-0.1,0.1-0.2,0.1-0.3,0.2c-0.1,0-0.2,0.1-0.3,0.1L147.2,10.2z"/>
			<path d="M158.5,8.3L158.5,8.3l2.1-7c0-0.2,0.1-0.3,0.2-0.5c0.1-0.1,0.2-0.2,0.3-0.3c0.1-0.1,0.3-0.1,0.4-0.2
				c0.1,0,0.3-0.1,0.4-0.1c0.1,0,0.3,0,0.4,0.1c0.1,0,0.2,0.1,0.3,0.2c0.1,0.1,0.2,0.2,0.2,0.3c0.1,0.2,0.1,0.3,0.1,0.5
				c0,0.2,0,0.4-0.1,0.6L161,7.5c-0.1,0.5-0.3,0.9-0.4,1.2c-0.1,0.3-0.3,0.6-0.5,0.8c-0.2,0.2-0.4,0.4-0.7,0.5
				c-0.3,0.1-0.7,0.2-1,0.2c-0.3,0-0.6,0-0.9-0.1c-0.2-0.1-0.4-0.2-0.6-0.4c-0.2-0.2-0.4-0.5-0.5-0.8c-0.2-0.4-0.3-0.8-0.5-1.2
				l-1.9-5.8c0-0.1-0.1-0.2-0.1-0.3c0-0.1,0-0.2,0-0.2c0-0.2,0-0.3,0.1-0.5c0.1-0.1,0.1-0.3,0.2-0.4c0.1-0.1,0.2-0.2,0.4-0.2
				c0.1-0.1,0.3-0.1,0.4-0.1c0.1,0,0.3,0,0.4,0.1c0.1,0,0.3,0.1,0.4,0.2c0.1,0.1,0.2,0.2,0.3,0.3c0.1,0.2,0.2,0.3,0.2,0.5L158.5,8.3
				z"/>
			<path d="M165.8,10.2c-0.2,0-0.4,0-0.6-0.1c-0.2-0.1-0.3-0.2-0.4-0.4c-0.1-0.2-0.2-0.3-0.2-0.5c0-0.2-0.1-0.4-0.1-0.6V2
				c0-0.2,0-0.5,0.1-0.7c0-0.2,0.1-0.4,0.2-0.6c0.1-0.2,0.3-0.3,0.5-0.4c0.3-0.1,0.6-0.2,0.9-0.1h4.4c0.1,0,0.3,0,0.4,0.1
				c0.1,0,0.2,0.1,0.3,0.2c0.1,0.1,0.2,0.2,0.2,0.3c0.1,0.1,0.1,0.2,0.1,0.4c0,0.1,0,0.2-0.1,0.3c0,0.1-0.1,0.2-0.2,0.3
				c-0.1,0.1-0.2,0.1-0.3,0.2c-0.1,0-0.2,0.1-0.4,0.1H167v2.2h3.2c0.1,0,0.3,0,0.4,0.1c0.1,0,0.2,0.1,0.3,0.2
				c0.1,0.1,0.1,0.2,0.2,0.3c0.1,0.1,0.1,0.2,0.1,0.3c0,0.1,0,0.2-0.1,0.3c0,0.1-0.1,0.2-0.2,0.3c-0.1,0.1-0.2,0.1-0.3,0.2
				c-0.1,0-0.2,0.1-0.4,0.1H167v2.4h3.7c0.1,0,0.2,0,0.3,0.1c0.1,0,0.2,0.1,0.3,0.2c0.1,0.1,0.1,0.2,0.2,0.3c0,0.1,0.1,0.2,0.1,0.4
				c0,0.1,0,0.2-0.1,0.3c0,0.1-0.1,0.2-0.2,0.3c-0.1,0.1-0.2,0.1-0.3,0.2c-0.1,0-0.2,0.1-0.3,0.1L165.8,10.2z"/>
			<path d="M179.2,8.3c0.2,0,0.5,0.1,0.6,0.3c0.1,0.1,0.2,0.2,0.2,0.3c0.1,0.2,0.1,0.5,0,0.7c-0.1,0.2-0.3,0.4-0.5,0.5
				c-0.1,0-0.2,0.1-0.4,0.1h-4.7c-0.2,0-0.4-0.1-0.6-0.2c-0.2-0.1-0.3-0.3-0.4-0.4c-0.1-0.2-0.2-0.4-0.2-0.6c0-0.2,0-0.5-0.1-0.7
				V1.6c0-0.2,0-0.4,0.1-0.5c0.1-0.2,0.2-0.3,0.3-0.4c0.1-0.1,0.3-0.2,0.4-0.3c0.3-0.1,0.7-0.1,1,0c0.1,0.1,0.3,0.2,0.4,0.3
				c0.1,0.1,0.2,0.3,0.3,0.4c0.1,0.2,0.1,0.3,0.1,0.5v6.8H179.2z"/>
		</g>
		<line class="st0" x1="19.8" y1="90.4" x2="237.9" y2="90.4"/>
		<g>
			<path d="M98.3,113l-2.1-6.7l0,0c0.1,1.4,0.1,2.3,0.1,2.7v4h-1.7v-8.6h2.5l2,6.6l0,0l2.2-6.6h2.5v8.5h-1.7v-4c0-0.2,0-0.4,0-0.7
				s0-0.9,0.1-2l0,0l-2.2,6.7H98.3z"/>
			<path d="M111.8,109.7c0.1,0.9-0.2,1.8-0.8,2.5c-0.6,0.6-1.5,0.9-2.3,0.9c-0.6,0-1.2-0.1-1.7-0.4c-0.5-0.3-0.9-0.7-1.1-1.2
				c-0.3-0.6-0.4-1.2-0.4-1.8c-0.1-0.9,0.2-1.8,0.8-2.5c0.6-0.6,1.5-0.9,2.3-0.9c0.6,0,1.2,0.1,1.7,0.4c0.5,0.3,0.9,0.7,1.1,1.2
				C111.7,108.5,111.8,109.1,111.8,109.7z M107.2,109.7c0,0.5,0.1,1,0.3,1.5c0.2,0.3,0.6,0.5,1,0.5c0.4,0,0.8-0.2,1-0.5
				c0.2-0.5,0.3-1,0.3-1.5c0-0.5-0.1-1-0.3-1.5c-0.2-0.3-0.6-0.5-1-0.5c-0.4,0-0.8,0.2-1,0.5C107.3,108.7,107.2,109.2,107.2,109.7z"
				/>
			<path d="M115.3,113.1c-0.7,0-1.4-0.3-1.8-0.9c-0.9-1.5-0.9-3.5,0-5c0.4-0.6,1.1-0.9,1.8-0.9c0.8,0,1.5,0.4,1.9,1h0.1
				c-0.1-0.4-0.1-0.9-0.1-1.3v-2.1h1.8v9.1h-1.4l-0.3-0.8h-0.1C116.8,112.8,116.1,113.1,115.3,113.1z M115.9,111.7
				c0.4,0,0.7-0.1,1-0.4c0.2-0.4,0.4-0.9,0.3-1.3v-0.2c0-0.5-0.1-1-0.3-1.5c-0.3-0.3-0.7-0.5-1.1-0.5c-0.4,0-0.7,0.2-0.9,0.5
				c-0.2,0.4-0.4,1-0.3,1.5c0,0.5,0.1,1,0.3,1.5C115.2,111.5,115.6,111.7,115.9,111.7L115.9,111.7z"/>
			<path d="M123.8,113.1c-0.9,0.1-1.8-0.3-2.5-0.9c-0.6-0.7-1-1.6-0.9-2.5c-0.1-0.9,0.2-1.8,0.8-2.6c0.6-0.6,1.4-0.9,2.3-0.9
				c0.8,0,1.6,0.2,2.2,0.8c0.5,0.6,0.8,1.4,0.8,2.2v0.9h-4.2c0,0.4,0.1,0.9,0.4,1.2c0.3,0.3,0.7,0.5,1.2,0.4c0.4,0,0.8,0,1.1-0.1
				c0.4-0.1,0.7-0.2,1.1-0.4v1.4c-0.3,0.2-0.7,0.3-1,0.3C124.7,113.1,124.2,113.1,123.8,113.1z M123.6,107.6c-0.3,0-0.7,0.1-0.9,0.4
				c-0.2,0.3-0.4,0.6-0.4,1h2.5c0-0.4-0.1-0.7-0.3-1C124.2,107.7,123.9,107.6,123.6,107.6z"/>
			<path d="M131.6,106.3c0.2,0,0.4,0,0.6,0l-0.1,1.7c-0.2,0-0.4-0.1-0.5-0.1c-0.5,0-1,0.1-1.3,0.4c-0.3,0.3-0.5,0.8-0.5,1.2v3.4
				h-1.8v-6.6h1.4l0.3,1.1h0.1c0.2-0.4,0.5-0.7,0.8-0.9C130.8,106.4,131.2,106.3,131.6,106.3z"/>
			<path d="M137.5,113l-0.3-0.9l0,0c-0.2,0.3-0.6,0.6-0.9,0.8c-0.4,0.2-0.8,0.2-1.2,0.2c-0.5,0-1.1-0.2-1.5-0.5
				c-0.4-0.4-0.6-1-0.5-1.6c0-0.6,0.2-1.2,0.7-1.5c0.7-0.4,1.4-0.6,2.2-0.6h1.1v-0.3c0.1-0.5-0.3-0.9-0.8-1c-0.1,0-0.1,0-0.2,0
				c-0.6,0-1.3,0.2-1.9,0.5l-0.6-1.2c0.8-0.4,1.6-0.6,2.5-0.6c0.7,0,1.4,0.2,2,0.6c0.5,0.4,0.7,1.1,0.7,1.8v4.4H137.5z M137,110
				h-0.7c-0.4,0-0.8,0.1-1.2,0.3c-0.3,0.2-0.4,0.5-0.4,0.8c0,0.5,0.3,0.8,0.9,0.8c0.4,0,0.7-0.1,1-0.4c0.3-0.3,0.4-0.6,0.4-1
				L137,110z"/>
			<path d="M143.4,111.7c0.4,0,0.8-0.1,1.1-0.2v1.3c-0.5,0.2-1.1,0.3-1.6,0.3c-0.6,0.1-1.1-0.1-1.6-0.5c-0.4-0.5-0.5-1-0.5-1.6v-3.2
				H140V107l1-0.6l0.5-1.4h1.1v1.4h1.8v1.3h-1.8v3.2c0,0.2,0.1,0.4,0.2,0.6C143,111.6,143.2,111.7,143.4,111.7z"/>
			<path d="M148.8,113.1c-0.9,0.1-1.8-0.3-2.5-0.9c-0.6-0.7-0.9-1.6-0.9-2.5c-0.1-0.9,0.2-1.8,0.8-2.6c0.6-0.6,1.4-0.9,2.3-0.9
				c0.8-0.1,1.6,0.2,2.2,0.8c0.5,0.6,0.8,1.4,0.8,2.2v0.9h-4.2c0,0.4,0.2,0.9,0.4,1.2c0.3,0.3,0.8,0.5,1.2,0.4c0.4,0,0.8,0,1.1-0.1
				c0.4-0.1,0.7-0.2,1.1-0.4v1.4c-0.3,0.2-0.7,0.3-1,0.3C149.7,113.1,149.2,113.1,148.8,113.1z M148.6,107.6c-0.3,0-0.7,0.1-0.9,0.4
				c-0.2,0.3-0.4,0.6-0.4,1h2.5c0-0.4-0.1-0.7-0.4-1C149.2,107.7,148.9,107.6,148.6,107.6z"/>
		</g>
		<g>
			<path d="M230,111.4h-1.8v-3.7h-3.4v3.7H223v-8.6h1.8v3.4h3.4v-3.4h1.8V111.4z"/>
			<path d="M232,103.2c0-0.6,0.3-0.9,1-0.9s1,0.3,1,0.9c0,0.2-0.1,0.5-0.2,0.6c-0.2,0.2-0.5,0.3-0.7,0.2
				C232.3,104.1,232,103.8,232,103.2z M233.9,111.4H232v-6.6h1.8L233.9,111.4z"/>
			<path d="M241.4,104.9v0.9l-1,0.3c0.2,0.3,0.3,0.6,0.3,1c0,0.6-0.2,1.2-0.7,1.6c-0.6,0.4-1.3,0.6-2,0.6h-0.3h-0.3
				c-0.2,0.1-0.3,0.3-0.3,0.5c0,0.3,0.3,0.4,1,0.4h1.1c0.6,0,1.2,0.1,1.6,0.5c0.4,0.3,0.6,0.8,0.6,1.4c0,0.7-0.4,1.4-1,1.8
				c-0.8,0.5-1.8,0.7-2.8,0.6c-0.7,0-1.5-0.1-2.1-0.5c-0.5-0.3-0.7-0.8-0.7-1.3c0-0.4,0.1-0.7,0.4-1c0.3-0.3,0.7-0.5,1.1-0.6
				c-0.2-0.1-0.4-0.2-0.5-0.4c-0.3-0.3-0.3-0.8,0-1.2c0.2-0.2,0.4-0.4,0.6-0.5c-0.3-0.1-0.6-0.4-0.8-0.7c-0.2-0.4-0.3-0.8-0.3-1.2
				c0-0.6,0.2-1.2,0.7-1.7c0.6-0.4,1.3-0.6,2-0.6c0.2,0,0.4,0,0.7,0l0.5,0.1L241.4,104.9z M236.3,112.4c0,0.2,0.1,0.5,0.4,0.6
				c0.3,0.2,0.7,0.2,1,0.2c0.5,0,1-0.1,1.5-0.3c0.3-0.1,0.5-0.4,0.6-0.7c0-0.2-0.1-0.4-0.3-0.5c-0.3-0.1-0.7-0.2-1-0.1h-0.9
				c-0.3,0-0.6,0.1-0.8,0.2C236.5,111.9,236.3,112.1,236.3,112.4z M237,107c0,0.3,0.1,0.6,0.2,0.8c0.2,0.2,0.5,0.3,0.7,0.3
				c0.3,0,0.6-0.1,0.7-0.3c0.2-0.2,0.3-0.5,0.2-0.8c0-0.8-0.3-1.2-1-1.2S237,106.2,237,107z"/>
			<path d="M248.5,111.4h-1.8v-3.8c0-0.9-0.4-1.4-1.1-1.4c-0.4,0-0.8,0.2-1.1,0.5c-0.3,0.5-0.4,1.1-0.3,1.7v3.1h-1.8v-9.1h1.8v1.9
				c0,0.1,0,0.5,0,1v0.5h0.1c0.4-0.7,1.1-1,1.9-1c0.6,0,1.3,0.2,1.8,0.6c0.4,0.5,0.6,1.1,0.6,1.8L248.5,111.4z"/>
		</g>
		<g>
			<path d="M8.7,112.6V104h1.8v7.1H14v1.5L8.7,112.6z"/>
			<path d="M21.3,109.3c0.1,0.9-0.2,1.8-0.8,2.5c-0.6,0.6-1.5,1-2.4,0.9c-0.6,0-1.2-0.1-1.7-0.4c-0.5-0.3-0.9-0.7-1.1-1.2
				c-0.3-0.6-0.4-1.2-0.4-1.8c-0.1-0.9,0.2-1.8,0.8-2.5c0.6-0.6,1.5-1,2.3-0.9c0.6,0,1.2,0.1,1.7,0.4c0.5,0.3,0.9,0.7,1.1,1.2
				C21.2,108.1,21.3,108.7,21.3,109.3z M16.8,109.3c0,0.5,0.1,1,0.3,1.5c0.2,0.3,0.6,0.5,1,0.5c0.4,0,0.8-0.2,1-0.5
				c0.2-0.5,0.3-1,0.3-1.5c0-0.5-0.1-1-0.3-1.5c-0.2-0.3-0.6-0.5-1-0.5c-0.4,0-0.8,0.2-1,0.5C16.9,108.3,16.8,108.8,16.8,109.3z"/>
			<path d="M28.2,112.6l-0.5-2.3l-0.7-2.9l0,0l-1.2,5.2h-2l-1.8-6.5h1.8l0.8,2.9c0.2,0.7,0.3,1.4,0.4,2.2l0,0c0-0.5,0.1-0.9,0.2-1.4
				l0.1-0.5l0.8-3.1h2l0.8,3.1c0,0.1,0,0.2,0.1,0.4s0.1,0.3,0.1,0.5l0.1,0.6c0,0.2,0,0.3,0,0.4l0,0c0-0.3,0.1-0.7,0.2-1.2
				s0.2-0.8,0.2-1l0.8-2.9H32l-1.9,6.6L28.2,112.6z"/>
		</g>
		<circle class="st1" cx="22" cy="89.5" r="7.5"/>
		<path class="st2" d="M105.3,44.7L105.3,44.7l-0.5-3.1l1.8,2.4l0.3-2.4c0,0,5.8,9.5,7.9,9.7s18.3-1.4,20.3,0.5l0,0c0,0,4-2,1.1-4.5
			l0,0c0,0-4.2-0.8-3.6,2.7c-0.9,0-1.5-0.7-1.5-1.6c0-0.3,0.1-0.5,0.2-0.7c0.9-2.4,3.6-3.6,6-2.8c3.2,0.9,4,4.3,3.2,6
			c-0.7,1.3-1.6,2.4-2.7,3.4l0,0c0,0,1.4,2.2-0.9,6.1c-0.5,0.9-0.9,1.6-1.3,2.1c-0.7,1.1-0.9,2.6-0.5,3.9l0,0
			c0.2,0.6,0.2,1.1,0.2,1.7c-0.2,1.5-0.6,2.9-1.1,4.3c0,0,0.1,1.4-1,1.4h-2.7c0,0-0.6-0.8,1.1-1.1s0.7-8.3,0.7-8.3l-0.3,2
			c0,0-0.6,4.5-1.6,4.6s-3.5,0.6-3.2-0.1s2.2-1.3,2.2-1.3l0.6-8.2l0,0c0,0-0.4,0-1,0c-2.8-0.2-5.7,0.2-8.3,1.3
			c-0.9,0.4-1.8,0.5-2.7,0.2c-0.5-0.5-0.3,7.2-0.3,7.2l0,0c0,0,0,1.7-0.9,1.9c-0.9,0.1-1.8,0.1-2.7,0c0,0-0.8-0.8,0.4-1.4
			s1.7-1.7,1.5-4c0,0-0.2-2-1-0.8l-0.5,4.4l0,0l-0.7,2.4c0,0,0.2,1.5-3.6,1.3c0,0-1.1-0.3,0-1.4c1,0.2,1.9-0.5,2.1-1.5
			c0,0,0-0.1,0-0.1c0.2-1.9,0-7.7,0-7.7l0,0c-1.1-2.1-2.1-4.3-3-6.5c-0.3-1.3-2.6-3.9-2.6-3.9l0,0c0,0-3.9,1.4-5.1,0.3
			s-0.4-3.1,0.7-3.1l1.7-2.8"/>
		<path class="st2" d="M205.3,48.8l-0.2-2.6l-2.2,2.8c0,0-3.4,1.8-3.1,4.2c0,0-3.7,2.9-1.7,3.7c1.6,0.5,3.2,0.5,4.8,0l3.3,0.2
			l1.1,1.3c0,0-3.4,0.7-5.3,0.2s-5.6,3.6-5.6,3.6c0.1,0.5,0.6,0.8,1.1,0.7c0.1,0,0.2-0.1,0.3-0.1c0,0,1,2.4,2.6,1.1s2.5-4.2,11,0.3
			c0,0,2.9,1.5,2.8-1.9c4.8,2.1,10.5,1.3,14.5-2.1c0,0,2.1-1.4,2,3.1s8.7,4.9,9.3,2.8s1,4.4,1,4.4s0.8,2.2,1.8,2.2s-0.4-2.9-0.4-2.9
			l-0.1-3.8c0,0,1.4-0.4,1.6,4.3c0,0,1.1,1.7,2,1.7s-0.5-2.9-0.5-2.9l-0.2-5.7c0,0-1-1.3-3.2-0.1c0,0,2.5-2.8-1-5.8
			c0,0-0.9-3.1,3.2,0s12-5,12.2-7.8c0,0-4.7,5.1-11.1,4.2s-8.7-1.3-9.9-2.2s-13.1-0.1-13.1-0.1s-5.1-2.4-8.1-2
			c-1.9,0.2-3.8,0.2-5.7-0.1l0.2-3l-2.7,2.8L205.3,48.8z"/>
		<path class="st1" d="M8.5,38.1l-1.2,3.6l-1.6-2.9l-0.1,3.8c-3.6,0.2-3.3,4.5-3.3,4.5c-0.7,0-1.3,0.2-1.9,0.5c-0.8,0.5,0,3.1,0,3.1
			L5,51.2c0,0,2.5-0.3,2.2,4.2s3.7,8,3.7,8l0.2,8.1c0,0-0.4,0.8-2.2,1.7s0.2,1.5,1.7,1.3c0.7-0.1,1.4-0.1,2.1-0.1
			c0.4,0,0.8-0.3,0.9-0.7c0.5-2.7,0.6-5.4,0.3-8.2c5.6-0.3,11.4,6.9,11.4,6.9l-1.9,0.3c-0.8,0.1-0.9,0.8-0.5,1.6l0,0
			c0,0,8.9,0.2,9.6-0.2s-0.8-1.8-0.8-1.8l0.3-2.7c0,0,5,3.6,6.7,0s-3.5-6.1-3.5-6.1c3.3,3,1.5,4.7,0.1,4.9s-2.8-2.3-2.8-4.8
			S17.3,52.3,17.3,52.3C13.1,52,8.5,39.7,8.5,39.7L8.5,38.1z"/>
	</g>
</g>
</svg>
