<svg xmlns="http://www.w3.org/2000/svg" viewBox="0 0 256.63 114.3"><defs><style>.cls-1{isolation:isolate;}.cls-2{fill:none;stroke:#79ad84;stroke-linecap:round;stroke-linejoin:round;stroke-width:2.17px;}.cls-3{fill:#79ad84;}.cls-4{fill:#9e9c9d;}</style></defs><title>activity-mod</title><g id="Layer_2" data-name="Layer 2"><g id="Layer_1-2" data-name="Layer 1"><g class="cls-1"><path d="M76.47,8.09c0,.08.07.16.1.25s.07.18.1.27a1.38,1.38,0,0,1,.08.27,1,1,0,0,1,0,.23,1,1,0,0,1-.09.44.9.9,0,0,1-.25.33,1.07,1.07,0,0,1-.36.21,1.62,1.62,0,0,1-.44.07,1.22,1.22,0,0,1-.46-.08.88.88,0,0,1-.34-.24,1.71,1.71,0,0,1-.28-.42,5.35,5.35,0,0,1-.27-.65L74,7.9H70.09l-.28.87a4.39,4.39,0,0,1-.25.66,1.53,1.53,0,0,1-.28.42.92.92,0,0,1-.35.24,1.51,1.51,0,0,1-.91,0,1.07,1.07,0,0,1-.36-.21.9.9,0,0,1-.25-.33,1,1,0,0,1-.09-.44,1,1,0,0,1,0-.23,1.38,1.38,0,0,1,.08-.27c0-.09.06-.18.1-.27s.07-.17.1-.25l1.84-5c.17-.47.34-.88.49-1.24a5,5,0,0,1,.52-.9,1.94,1.94,0,0,1,.66-.56A1.86,1.86,0,0,1,72,.23a2.1,2.1,0,0,1,.84.15,1.55,1.55,0,0,1,.63.49,3.8,3.8,0,0,1,.54.89c.16.37.35.82.56,1.36ZM72,2.1l-1.5,4.39h3L72.05,2.1Z"/><path d="M77.28,5.28a6.25,6.25,0,0,1,.37-2.23,4.74,4.74,0,0,1,1-1.66,4.47,4.47,0,0,1,1.56-1,5.38,5.38,0,0,1,2-.36,9.26,9.26,0,0,1,1.49.11,4,4,0,0,1,1,.29,1.74,1.74,0,0,1,.63.43.89.89,0,0,1,.2.55.78.78,0,0,1-.08.35.84.84,0,0,1-.22.24.87.87,0,0,1-.29.14,1.24,1.24,0,0,1-.33,0h-.19a.58.58,0,0,1-.19,0L83.79,2l-.47-.12-.46-.08a3.59,3.59,0,0,0-.47,0,2.86,2.86,0,0,0-1,.16,1.81,1.81,0,0,0-.79.54,2.84,2.84,0,0,0-.53,1.06,6.18,6.18,0,0,0-.19,1.7,6.19,6.19,0,0,0,.15,1.42,3.4,3.4,0,0,0,.47,1.07,2.12,2.12,0,0,0,.78.68,2.37,2.37,0,0,0,1.09.24,2.46,2.46,0,0,0,.53-.06,4.17,4.17,0,0,0,.56-.14c.19,0,.39-.12.58-.19l.6-.22a.62.62,0,0,1,.21,0,.68.68,0,0,1,.32.07.81.81,0,0,1,.24.17.76.76,0,0,1,.16.26,1,1,0,0,1,.05.31.81.81,0,0,1-.17.49,1.9,1.9,0,0,1-.47.4,4.06,4.06,0,0,1-.66.31,6.08,6.08,0,0,1-.76.22,7.64,7.64,0,0,1-.79.13,6.72,6.72,0,0,1-.73.05,5.08,5.08,0,0,1-1.89-.34,4.44,4.44,0,0,1-1.52-1,4.85,4.85,0,0,1-1-1.61A6.11,6.11,0,0,1,77.28,5.28Z"/><path d="M87.8,2A1,1,0,0,1,87.43,2a.89.89,0,0,1-.31-.19,1.06,1.06,0,0,1-.22-.29.81.81,0,0,1-.07-.35A.84.84,0,0,1,86.9.78a1.06,1.06,0,0,1,.22-.29A1.08,1.08,0,0,1,87.43.3.94.94,0,0,1,87.8.23H94a1,1,0,0,1,.38.07,1.08,1.08,0,0,1,.31.19.86.86,0,0,1,.21.29.72.72,0,0,1,.08.35.69.69,0,0,1-.08.35.86.86,0,0,1-.21.29.89.89,0,0,1-.31.19A1,1,0,0,1,94,2H92.21V8.83a1.3,1.3,0,0,1-.1.52,1.17,1.17,0,0,1-.27.42,1.41,1.41,0,0,1-.4.29,1.39,1.39,0,0,1-.5.1,1.3,1.3,0,0,1-.49-.1,1.18,1.18,0,0,1-.4-.29,1.17,1.17,0,0,1-.27-.42,1.3,1.3,0,0,1-.1-.52V2Z"/><path d="M98.79,8.83a1.3,1.3,0,0,1-.1.52,1.51,1.51,0,0,1-.27.42,1.22,1.22,0,0,1-.9.39,1.35,1.35,0,0,1-.5-.1,1.41,1.41,0,0,1-.4-.29,1.36,1.36,0,0,1-.37-.94V1.56a1.46,1.46,0,0,1,.1-.52,1.43,1.43,0,0,1,.27-.43A1.38,1.38,0,0,1,97,.33a1.18,1.18,0,0,1,.5-.1,1.16,1.16,0,0,1,.49.1,1.3,1.3,0,0,1,.41.28,1.43,1.43,0,0,1,.27.43,1.27,1.27,0,0,1,.1.52Z"/><path d="M104.76,8.31h0l2.07-7a1.76,1.76,0,0,1,.22-.5,1.75,1.75,0,0,1,.32-.34,1.53,1.53,0,0,1,.37-.21,1.07,1.07,0,0,1,.39-.07,1.22,1.22,0,0,1,.38.07,1.11,1.11,0,0,1,.32.21,1,1,0,0,1,.22.34,1.21,1.21,0,0,1,.08.48,2,2,0,0,1-.11.65l-1.77,5.49c-.15.46-.3.86-.44,1.19a3.31,3.31,0,0,1-.48.84,1.61,1.61,0,0,1-.66.5,2.58,2.58,0,0,1-.95.16,2.77,2.77,0,0,1-.87-.12,1.51,1.51,0,0,1-.63-.4,2.92,2.92,0,0,1-.49-.77q-.21-.48-.45-1.2l-1.91-5.78a1.25,1.25,0,0,1-.07-.26,1.93,1.93,0,0,1,0-.24,1.19,1.19,0,0,1,.09-.47,1,1,0,0,1,.25-.37A1.21,1.21,0,0,1,101,.31a1.2,1.2,0,0,1,.42-.08,1,1,0,0,1,.37.07,1.07,1.07,0,0,1,.36.2,1.49,1.49,0,0,1,.3.35,2.09,2.09,0,0,1,.23.52Z"/><path d="M113.42,8.83a1.5,1.5,0,0,1-.1.52,1.34,1.34,0,0,1-.28.42,1.28,1.28,0,0,1-.4.29,1.28,1.28,0,0,1-1,0,1.28,1.28,0,0,1-.4-.29,1.51,1.51,0,0,1-.27-.42,1.3,1.3,0,0,1-.1-.52V1.56A1.27,1.27,0,0,1,111,1a1.43,1.43,0,0,1,.27-.43,1.26,1.26,0,0,1,.4-.28,1.18,1.18,0,0,1,.5-.1,1.16,1.16,0,0,1,.49.1,1.26,1.26,0,0,1,.4.28,1.28,1.28,0,0,1,.28.43,1.46,1.46,0,0,1,.1.52Z"/><path d="M115.41,2A1,1,0,0,1,115,2a.89.89,0,0,1-.31-.19.86.86,0,0,1-.21-.29.82.82,0,0,1-.08-.35.85.85,0,0,1,.08-.35.86.86,0,0,1,.21-.29A1.08,1.08,0,0,1,115,.3a1,1,0,0,1,.38-.07h6.24A.9.9,0,0,1,122,.3a1,1,0,0,1,.31.19,1.06,1.06,0,0,1,.22.29.85.85,0,0,1,.08.35.82.82,0,0,1-.08.35,1.06,1.06,0,0,1-.22.29A.81.81,0,0,1,122,2a.91.91,0,0,1-.37.08h-1.83V8.83a1.5,1.5,0,0,1-.1.52,1.34,1.34,0,0,1-.28.42,1.28,1.28,0,0,1-.4.29,1.28,1.28,0,0,1-1,0,1.28,1.28,0,0,1-.4-.29,1.32,1.32,0,0,1-.27-.42,1.3,1.3,0,0,1-.1-.52V2Z"/><path d="M128.81,8.83a1.78,1.78,0,0,1-.11.52,1.34,1.34,0,0,1-.28.42,1.41,1.41,0,0,1-.4.29,1.3,1.3,0,0,1-1,0,1.41,1.41,0,0,1-.4-.29,1.51,1.51,0,0,1-.27-.42,1.5,1.5,0,0,1-.09-.52V6.36l-2.51-4.19a1.56,1.56,0,0,1-.19-.42,1.74,1.74,0,0,1,0-.39A1.14,1.14,0,0,1,123.6.9a1,1,0,0,1,.25-.36,1,1,0,0,1,.35-.23,1,1,0,0,1,.42-.08,1.21,1.21,0,0,1,.66.2,1.54,1.54,0,0,1,.55.68l1.8,3.57h0l1.87-3.6a1.57,1.57,0,0,1,.55-.65,1.2,1.2,0,0,1,.63-.2.94.94,0,0,1,.37.07,1,1,0,0,1,.3.19.81.81,0,0,1,.21.3,1,1,0,0,1,.07.39,1.57,1.57,0,0,1,0,.37,1.51,1.51,0,0,1-.19.41l-2.61,4.36Z"/><path d="M143.71,8.34a.88.88,0,0,1,.64.27.81.81,0,0,1,.19.29.81.81,0,0,1,0,.7.81.81,0,0,1-.19.29,1,1,0,0,1-.29.2,1,1,0,0,1-.35.07H139a1.06,1.06,0,0,1-1-.59,1.8,1.8,0,0,1-.21-.59,4,4,0,0,1-.06-.69V1.56a1.46,1.46,0,0,1,.1-.52,1.43,1.43,0,0,1,.27-.43,1.38,1.38,0,0,1,.4-.28,1.21,1.21,0,0,1,.5-.1,1.13,1.13,0,0,1,.49.1,1.3,1.3,0,0,1,.41.28,1.43,1.43,0,0,1,.27.43,1.27,1.27,0,0,1,.1.52V8.34Z"/><path d="M147.18,10.16a1.1,1.1,0,0,1-1-.52,1.45,1.45,0,0,1-.21-.51,2.93,2.93,0,0,1-.06-.58V2a5.31,5.31,0,0,1,.05-.72,1.21,1.21,0,0,1,.21-.57,1.09,1.09,0,0,1,.48-.38,2.18,2.18,0,0,1,.85-.14h4.38a1.17,1.17,0,0,1,.38.07,1.21,1.21,0,0,1,.3.2.83.83,0,0,1,.21.28.81.81,0,0,1,.07.35.77.77,0,0,1-.07.34.83.83,0,0,1-.21.28,1,1,0,0,1-.68.26H148.4V4.22h3.22a1.16,1.16,0,0,1,.37.07.91.91,0,0,1,.3.19,1,1,0,0,1,.21.29.8.8,0,0,1,.07.34.81.81,0,0,1-.07.35.83.83,0,0,1-.21.28.91.91,0,0,1-.3.19,1.16,1.16,0,0,1-.37.07H148.4V8.39h3.7a.8.8,0,0,1,.34.07.77.77,0,0,1,.28.19.8.8,0,0,1,.2.28,1,1,0,0,1,.06.35,1,1,0,0,1-.06.34.8.8,0,0,1-.2.28.92.92,0,0,1-.28.19.8.8,0,0,1-.34.07Z"/><path d="M158.48,8.31h0l2.08-7a1.76,1.76,0,0,1,.22-.5,1.5,1.5,0,0,1,.32-.34A1.53,1.53,0,0,1,161.5.3a1.06,1.06,0,0,1,.38-.07,1.17,1.17,0,0,1,.38.07,1,1,0,0,1,.32.21,1,1,0,0,1,.23.34,1.42,1.42,0,0,1,.08.48,2.27,2.27,0,0,1-.11.65L161,7.47c-.15.46-.29.86-.43,1.19a3.31,3.31,0,0,1-.48.84,1.68,1.68,0,0,1-.66.5,2.62,2.62,0,0,1-1,.16,2.79,2.79,0,0,1-.88-.12,1.54,1.54,0,0,1-.62-.4,2.92,2.92,0,0,1-.49-.77,11.4,11.4,0,0,1-.46-1.2l-1.9-5.78a.84.84,0,0,1-.07-.26,1.94,1.94,0,0,1,0-.24,1,1,0,0,1,.1-.47,1,1,0,0,1,.25-.37,1.21,1.21,0,0,1,.35-.24,1.16,1.16,0,0,1,.42-.08,1,1,0,0,1,.37.07,1.17,1.17,0,0,1,.36.2,1.49,1.49,0,0,1,.3.35,2.09,2.09,0,0,1,.23.52Z"/><path d="M165.79,10.16a1.06,1.06,0,0,1-.58-.15,1.12,1.12,0,0,1-.38-.37,1.43,1.43,0,0,1-.2-.51,2.36,2.36,0,0,1-.07-.58V2a5.31,5.31,0,0,1,.05-.72,1.21,1.21,0,0,1,.21-.57,1.09,1.09,0,0,1,.48-.38,2.18,2.18,0,0,1,.85-.14h4.39a1.16,1.16,0,0,1,.37.07,1.1,1.1,0,0,1,.31.2,1,1,0,0,1,.2.28.82.82,0,0,1,.08.35.77.77,0,0,1-.08.34,1,1,0,0,1-.2.28.89.89,0,0,1-.31.19.94.94,0,0,1-.37.07H167V4.22h3.21a1.11,1.11,0,0,1,.37.07,1.08,1.08,0,0,1,.31.19,1.15,1.15,0,0,1,.2.29.81.81,0,0,1,.08.34.82.82,0,0,1-.08.35,1,1,0,0,1-.2.28,1.08,1.08,0,0,1-.31.19,1.11,1.11,0,0,1-.37.07H167V8.39h3.69a.77.77,0,0,1,.34.07.81.81,0,0,1,.29.19.92.92,0,0,1,.19.28.81.81,0,0,1,.07.35.8.8,0,0,1-.07.34.92.92,0,0,1-.19.28,1,1,0,0,1-.29.19.77.77,0,0,1-.34.07Z"/><path d="M179.2,8.34a.88.88,0,0,1,.64.27,1,1,0,0,1,.2.29.91.91,0,0,1,0,.7,1,1,0,0,1-.49.49,1,1,0,0,1-.35.07h-4.68a1.19,1.19,0,0,1-.62-.16,1.24,1.24,0,0,1-.39-.43A1.8,1.8,0,0,1,173.3,9a5.34,5.34,0,0,1-.05-.69V1.56a1.46,1.46,0,0,1,.09-.52,1.43,1.43,0,0,1,.27-.43,1.38,1.38,0,0,1,.4-.28,1.3,1.3,0,0,1,1,0,1.38,1.38,0,0,1,.4.28,1.12,1.12,0,0,1,.27.43,1.27,1.27,0,0,1,.1.52V8.34Z"/></g><line class="cls-2" x1="19.77" y1="90.38" x2="237.88" y2="90.38"/><g class="cls-1"><path d="M98.27,113l-2.06-6.72h0c.07,1.37.11,2.28.11,2.74v4H94.65v-8.56h2.47l2,6.55h0l2.15-6.55h2.47V113h-1.69v-4c0-.19,0-.41,0-.66s0-.92.08-2h0L99.94,113Z"/><path d="M111.77,109.69a3.53,3.53,0,0,1-.84,2.5,3.07,3.07,0,0,1-2.35.9,3.22,3.22,0,0,1-1.66-.41,2.78,2.78,0,0,1-1.11-1.19,3.92,3.92,0,0,1-.39-1.8,3.52,3.52,0,0,1,.84-2.5,3.08,3.08,0,0,1,2.35-.89,3.36,3.36,0,0,1,1.67.41,2.75,2.75,0,0,1,1.11,1.18A4,4,0,0,1,111.77,109.69Zm-4.53,0a2.76,2.76,0,0,0,.32,1.47,1.16,1.16,0,0,0,1,.5,1.13,1.13,0,0,0,1-.5,2.77,2.77,0,0,0,.31-1.47,2.71,2.71,0,0,0-.31-1.46,1.14,1.14,0,0,0-1-.49,1.12,1.12,0,0,0-1,.49A2.7,2.7,0,0,0,107.24,109.69Z"/><path d="M115.32,113.09a2.14,2.14,0,0,1-1.81-.89,5,5,0,0,1,0-5,2.19,2.19,0,0,1,1.85-.9,2.16,2.16,0,0,1,1.89,1h.06a7.31,7.31,0,0,1-.14-1.3v-2.1H119V113H117.6l-.34-.85h-.08A2,2,0,0,1,115.32,113.09Zm.63-1.42a1.22,1.22,0,0,0,1-.4,2.36,2.36,0,0,0,.34-1.35v-.2a2.67,2.67,0,0,0-.32-1.51,1.23,1.23,0,0,0-1.06-.46,1,1,0,0,0-.93.51,2.71,2.71,0,0,0-.33,1.47,2.54,2.54,0,0,0,.34,1.46A1.09,1.09,0,0,0,116,111.67Z"/><path d="M123.81,113.09a3.37,3.37,0,0,1-2.47-.87,3.29,3.29,0,0,1-.9-2.47,3.64,3.64,0,0,1,.83-2.55,2.93,2.93,0,0,1,2.27-.9,2.89,2.89,0,0,1,2.17.79,3,3,0,0,1,.77,2.19v.86h-4.22a1.67,1.67,0,0,0,.45,1.19,1.56,1.56,0,0,0,1.18.43,5.06,5.06,0,0,0,1.12-.12,5.4,5.4,0,0,0,1.1-.39v1.38a4.23,4.23,0,0,1-1,.35A6.85,6.85,0,0,1,123.81,113.09Zm-.25-5.52a1.12,1.12,0,0,0-.89.36,1.63,1.63,0,0,0-.37,1h2.5a1.47,1.47,0,0,0-.34-1A1.16,1.16,0,0,0,123.56,107.57Z"/><path d="M131.59,106.3a3.28,3.28,0,0,1,.6,0l-.13,1.68a2,2,0,0,0-.53-.06,1.9,1.9,0,0,0-1.33.44,1.58,1.58,0,0,0-.48,1.23V113h-1.79v-6.55h1.36l.26,1.11h.09a2.42,2.42,0,0,1,.82-.89A2,2,0,0,1,131.59,106.3Z"/><path d="M137.54,113l-.34-.89h0a2.55,2.55,0,0,1-.93.79,2.93,2.93,0,0,1-1.24.22,2,2,0,0,1-1.49-.54A2.07,2.07,0,0,1,133,111a1.72,1.72,0,0,1,.73-1.54,4.26,4.26,0,0,1,2.2-.55l1.14,0v-.29a.9.9,0,0,0-1-1,4.61,4.61,0,0,0-1.85.48l-.59-1.21a5.37,5.37,0,0,1,2.51-.59,3.16,3.16,0,0,1,2,.57,2.14,2.14,0,0,1,.7,1.75V113Zm-.52-3-.7,0a2.29,2.29,0,0,0-1.16.28.91.91,0,0,0-.38.79c0,.5.29.76.87.76a1.35,1.35,0,0,0,1-.36,1.27,1.27,0,0,0,.38-1Z"/><path d="M143.39,111.67a3.85,3.85,0,0,0,1.13-.21v1.33a4.05,4.05,0,0,1-1.65.3,2,2,0,0,1-1.56-.54,2.39,2.39,0,0,1-.49-1.63v-3.15H140V107l1-.6.52-1.38h1.14v1.39h1.83v1.35h-1.83v3.15a.71.71,0,0,0,.21.57A.88.88,0,0,0,143.39,111.67Z"/><path d="M148.8,113.09a3.4,3.4,0,0,1-2.47-.87,3.32,3.32,0,0,1-.89-2.47,3.68,3.68,0,0,1,.82-2.55,2.94,2.94,0,0,1,2.28-.9,2.85,2.85,0,0,1,2.16.79,3,3,0,0,1,.78,2.19v.86h-4.23a1.72,1.72,0,0,0,.45,1.19,1.58,1.58,0,0,0,1.19.43,5.13,5.13,0,0,0,1.12-.12,5.62,5.62,0,0,0,1.1-.39v1.38a4.31,4.31,0,0,1-1,.35A6.7,6.7,0,0,1,148.8,113.09Zm-.25-5.52a1.14,1.14,0,0,0-.89.36,1.69,1.69,0,0,0-.37,1h2.51a1.47,1.47,0,0,0-.35-1A1.16,1.16,0,0,0,148.55,107.57Z"/></g><g class="cls-1"><path d="M230,111.42h-1.81v-3.7H224.8v3.7H223v-8.57h1.82v3.36h3.39v-3.36H230Z"/><path d="M232,103.18c0-.59.32-.88,1-.88s1,.29,1,.88a.84.84,0,0,1-.24.64,1,1,0,0,1-.73.23C232.27,104.05,232,103.76,232,103.18Zm1.86,8.24H232v-6.55h1.79Z"/><path d="M241.39,104.87v.91l-1,.26a1.76,1.76,0,0,1,.28,1,2,2,0,0,1-.73,1.64,3.21,3.21,0,0,1-2,.59l-.32,0-.26,0a.59.59,0,0,0-.28.47q0,.39,1,.39h1.11a2.51,2.51,0,0,1,1.64.46,1.65,1.65,0,0,1,.57,1.36,2,2,0,0,1-1,1.78,5,5,0,0,1-2.75.63,3.87,3.87,0,0,1-2.09-.47,1.51,1.51,0,0,1-.73-1.34,1.41,1.41,0,0,1,.37-1,2.07,2.07,0,0,1,1.09-.57,1.21,1.21,0,0,1-.49-.39.95.95,0,0,1,0-1.19,2.57,2.57,0,0,1,.62-.48,1.76,1.76,0,0,1-.81-.72,2.18,2.18,0,0,1-.31-1.16,2.07,2.07,0,0,1,.7-1.66,3,3,0,0,1,2-.58,4.12,4.12,0,0,1,.66,0l.48.07Zm-5.06,7.48a.66.66,0,0,0,.35.58,2,2,0,0,0,1,.21,3.41,3.41,0,0,0,1.5-.27.79.79,0,0,0,.55-.72.53.53,0,0,0-.32-.51,2.76,2.76,0,0,0-1-.14h-.93a1.44,1.44,0,0,0-.82.23A.73.73,0,0,0,236.33,112.35ZM237,107a1.36,1.36,0,0,0,.24.85.9.9,0,0,0,.74.31.87.87,0,0,0,.74-.31,1.36,1.36,0,0,0,.24-.85c0-.79-.33-1.18-1-1.18S237,106.22,237,107Z"/><path d="M248.51,111.42h-1.79v-3.83q0-1.41-1.05-1.41a1.22,1.22,0,0,0-1.09.51,3.14,3.14,0,0,0-.33,1.65v3.08h-1.79V102.3h1.79v1.86c0,.14,0,.48,0,1l0,.53h.09a2.07,2.07,0,0,1,1.9-1,2.29,2.29,0,0,1,1.75.62,2.46,2.46,0,0,1,.6,1.78Z"/></g><g class="cls-1"><path d="M8.73,112.6V104h1.82v7.07H14v1.5Z"/><path d="M21.32,109.31a3.52,3.52,0,0,1-.84,2.5,3,3,0,0,1-2.35.91,3.26,3.26,0,0,1-1.67-.42,2.68,2.68,0,0,1-1.1-1.18,4,4,0,0,1-.39-1.81,3.47,3.47,0,0,1,.84-2.49,3.05,3.05,0,0,1,2.35-.9,3.36,3.36,0,0,1,1.67.41,2.73,2.73,0,0,1,1.1,1.18A3.92,3.92,0,0,1,21.32,109.31Zm-4.53,0a2.76,2.76,0,0,0,.32,1.47,1.14,1.14,0,0,0,1,.5,1.12,1.12,0,0,0,1-.49,2.81,2.81,0,0,0,.31-1.48,2.73,2.73,0,0,0-.31-1.46,1.15,1.15,0,0,0-1-.48,1.14,1.14,0,0,0-1,.48A2.7,2.7,0,0,0,16.79,109.31Z"/><path d="M28.18,112.6l-.5-2.29-.68-2.9h0l-1.2,5.19H23.84L22,106.05h1.78l.75,2.9a20.06,20.06,0,0,1,.37,2.15h0a10.69,10.69,0,0,1,.2-1.41l.1-.5.81-3.14h2l.76,3.14c0,.08,0,.21.08.38s.06.35.09.54l.09.55c0,.18,0,.33,0,.44h0c0-.28.09-.67.18-1.16s.16-.82.2-1l.78-2.9H32l-1.88,6.55Z"/></g><circle class="cls-3" cx="122.78" cy="89.46" r="7.54"/><path class="cls-3" d="M105.3,44.66h0l-.48-3.07,1.8,2.41.26-2.37s5.83,9.52,7.89,9.69,18.32-1.44,20.3.53h0s4-2,1.05-4.47h0s-4.25-.83-3.64,2.72a1.54,1.54,0,0,1-1.27-2.33,4.76,4.76,0,0,1,6-2.8c3.16.87,4,4.34,3.25,6a15.22,15.22,0,0,1-2.68,3.42h0s1.4,2.15-.88,6.09c-.52.92-.95,1.61-1.29,2.12a4.46,4.46,0,0,0-.5,3.86h0a5.4,5.4,0,0,1,.22,1.7,24.14,24.14,0,0,1-1.06,4.29s.05,1.36-1,1.36H130.6s-.57-.83,1.09-1.09.68-8.33.68-8.33l-.33,2s-.65,4.47-1.62,4.61-3.46.61-3.15-.09,2.23-1.32,2.23-1.32l.61-8.18h0s-.43,0-1-.05a18.85,18.85,0,0,0-8.34,1.26,4.08,4.08,0,0,1-2.74.23c-.48-.48-.29,7.17-.29,7.18h0s0,1.66-.88,1.92a9.18,9.18,0,0,1-2.67,0s-.79-.83.4-1.36,1.71-1.66,1.53-4c0,0-.18-2-1-.79l-.48,4.38h0l-.7,2.41s.22,1.54-3.55,1.27c0,0-1.1-.35,0-1.36a1.83,1.83,0,0,0,2.14-1.62c.22-1.88,0-7.66,0-7.67h0a63.73,63.73,0,0,1-3-6.49c-.31-1.27-2.63-3.9-2.63-3.9h0s-3.86,1.36-5.13.35-.44-3.07.74-3.11l1.74-2.82"/><path class="cls-4" d="M205.3,48.82l-.19-2.61-2.19,2.84s-3.39,1.78-3.11,4.2c0,0-3.71,2.89-1.69,3.71a8.63,8.63,0,0,0,4.8,0l3.34.23,1.05,1.28s-3.43.73-5.26.18-5.63,3.57-5.63,3.57a.89.89,0,0,0,1.38.55s1,2.42,2.65,1.14,2.51-4.21,11,.28c0,0,2.88,1.51,2.84-1.92a13.81,13.81,0,0,0,14.52-2.09s2.08-1.38,2,3.13,8.67,4.91,9.3,2.77,1,4.45,1,4.45.76,2.2,1.8,2.2-.35-2.89-.35-2.89L242.42,66s1.38-.4,1.56,4.28c0,0,1.09,1.73,2,1.73s-.46-2.89-.46-2.89l-.17-5.72s-1-1.27-3.18-.06c0,0,2.48-2.77-1-5.78,0,0-.86-3.12,3.24,0s12-5,12.25-7.81c0,0-4.68,5.09-11.09,4.22s-8.67-1.33-9.89-2.25-13.12-.12-13.12-.12-5.08-2.37-8.15-2a22.24,22.24,0,0,1-5.72-.12l.23-3-2.66,2.77Z"/><path class="cls-4" d="M8.52,38.07,7.29,41.7,5.7,38.81l-.12,3.8c-3.63.22-3.34,4.53-3.34,4.53a4.07,4.07,0,0,0-1.88.51c-.82.51,0,3.06,0,3.06L5,51.17s2.46-.29,2.23,4.19,3.75,8,3.75,8l.24,8.1s-.36.8-2.23,1.71.17,1.47,1.7,1.3a17,17,0,0,1,2.1-.1.94.94,0,0,0,.94-.73A29.11,29.11,0,0,0,14,65.48c5.63-.34,11.36,6.9,11.36,6.9l-1.94.27c-.82.11-.9.76-.52,1.63h0s8.87.19,9.56-.19-.79-1.81-.79-1.81L32,69.62s5,3.62,6.71,0-3.55-6.1-3.55-6.1c3.35,3,1.48,4.67.1,4.95s-2.76-2.28-2.76-4.76S17.27,52.28,17.27,52.28C13.13,52,8.5,39.7,8.5,39.7Z"/></g></g></svg>