<svg xmlns="http://www.w3.org/2000/svg" viewBox="0 0 749.89 436.86"><defs><style>.cls-1{fill:#7d995f;stroke:#7d995f;stroke-width:1.07px;}.cls-1,.cls-10,.cls-4{stroke-miterlimit:10;}.cls-2{opacity:0.14;}.cls-3{fill:#f9ebcf;}.cls-4{fill:none;stroke-width:23.41px;}.cls-10,.cls-4{stroke:#dd5050;}.cls-5{fill:#3d7f69;}.cls-6{fill:#593a21;}.cls-7{fill:#6b5641;}.cls-11,.cls-8{fill:#db5b58;}.cls-9{fill:#f9f7e2;}.cls-10{fill:#f9cd6b;stroke-width:6.17px;}.cls-11{font-size:30.85px;font-family:Nunito-Bold, Nunito;font-weight:700;}.cls-12{letter-spacing:-0.01em;}</style></defs><title>backImg</title><g id="Layer_2" data-name="Layer 2"><g id="background"><path class="cls-1" d="M749.35,436.32H.53V281.48s256.94-24.25,384.24-24.25,364.58,24.25,364.58,24.25Z"/><path class="cls-2" d="M133.46,346.7.53,306.13V281.48s124.29-13.09,152.29-12.09S133.46,346.7,133.46,346.7Z"/><polygon class="cls-3" points="329.08 93.44 263.88 17.91 198.67 93.44 133.46 168.96 133.46 346.7 394.29 346.7 394.29 168.96 329.08 93.44"/><polyline class="cls-4" points="107.95 198.5 198.67 93.44 263.88 17.91 329.08 93.44 419.8 198.5"/><rect class="cls-5" x="133.46" y="245.51" width="260.83" height="101.2"/><path class="cls-2" d="M341.61,365.6l-35.29-18.82h32.62l6.88-21.52c7-4,39.95-5.25,48.47-4.87v12.25Z"/><path class="cls-6" d="M263.88,168.18h0a70.58,70.58,0,0,1,70.58,70.58V346.7a0,0,0,0,1,0,0H193.3a0,0,0,0,1,0,0V238.76a70.58,70.58,0,0,1,70.58-70.58Z"/><ellipse class="cls-7" cx="402.09" cy="330.57" rx="51.84" ry="4.43"/><path class="cls-8" d="M453.92,330.57c0,2.45-23.2,4.43-51.83,4.43s-51.84-2-51.84-4.43l-8.64,35c0,2.45,27.38,8.27,60.48,8.27s59.39-5.82,59.39-8.27Z"/><path class="cls-9" d="M430.08,354.45h0a1.37,1.37,0,0,1,0-2.13,6.75,6.75,0,0,0-5-12,6.83,6.83,0,0,0-5.19,3.75,9.11,9.11,0,0,0-.46,1.17,4.39,4.39,0,0,1-4.18,3.27H389.32a4.42,4.42,0,0,1-4.19-3.27,7.85,7.85,0,0,0-.46-1.17,6.83,6.83,0,0,0-5.19-3.75,6.75,6.75,0,0,0-5,12,1.37,1.37,0,0,1,0,2.13h0a6.74,6.74,0,0,0,5,12,6.81,6.81,0,0,0,5.2-3.75,7.09,7.09,0,0,0,.46-1.17,4.41,4.41,0,0,1,4.19-3.26h25.89a4.39,4.39,0,0,1,4.18,3.26,6.36,6.36,0,0,0,.47,1.17,6.72,6.72,0,0,0,12.77-3A6.71,6.71,0,0,0,430.08,354.45Z"/><rect class="cls-10" x="209.62" y="114.76" width="108.51" height="45.75" rx="6.53" ry="6.53"/><text class="cls-11" transform="translate(228.56 148.25)"><tspan class="cls-12">DO</tspan><tspan x="46.87" y="0">G</tspan></text></g></g></svg>