<svg xmlns="http://www.w3.org/2000/svg" viewBox="0 0 420.09 249"><defs><style>.cls-1{isolation:isolate;font-size:12px;font-family:ArialMT, Arial;}.cls-2{fill:#fff;}.cls-3{fill:#3bae8b;}.cls-10,.cls-4,.cls-8{fill:none;}.cls-4{stroke:#3bae8b;stroke-width:7px;}.cls-10,.cls-4{stroke-linecap:round;stroke-linejoin:round;}.cls-5{fill:#603813;}.cls-6{fill:#724617;}.cls-7{fill:#775235;}.cls-9{fill:#d0dac5;opacity:0.45;}.cls-10{stroke:#d33737;stroke-width:2.22px;}.cls-11{opacity:0.76;}.cls-12{fill:#98b76c;}.cls-13{fill:#7d995f;}.cls-14{fill:#cce393;}.cls-15{fill:#8ba563;}.cls-16{fill:#333;}</style></defs><title>beagle-food</title><g id="Layer_2" data-name="Layer 2"><g id="Icon"><text class="cls-1" transform="translate(196.22 17.47)"> </text><text class="cls-1" transform="translate(196.22 17.47)"> </text><text class="cls-1" transform="translate(196.22 17.47)"> </text><text class="cls-1" transform="translate(196.22 17.47)"> </text><text class="cls-1" transform="translate(196.22 17.47)"> </text><text class="cls-1" transform="translate(196.22 17.47)"> </text><rect class="cls-2" width="199.61" height="249" rx="23.07" ry="23.07"/><rect class="cls-2" x="220.47" width="199.61" height="249" rx="23.07" ry="23.07"/><path class="cls-3" d="M79.93,202.66H48.16a6.75,6.75,0,0,1-6.74-6.37L38.32,141H89L86.67,196.2A6.74,6.74,0,0,1,79.93,202.66Z"/><path class="cls-4" d="M38.32,148.16c-3.58-.25-10.5,4.08-12.27,12.16-1.05,4.74-3.31,15.84-3.31,15.84"/><polygon class="cls-3" points="99.52 140.99 87.52 140.99 87.01 153.16 99.52 140.99"/><rect class="cls-5" x="64.45" y="176.5" width="7.31" height="7.31" rx="2.85" ry="2.85"/><rect class="cls-5" x="70.34" y="177.03" width="7.98" height="6.84" rx="2.88" ry="2.88" transform="translate(-41.71 23.54) rotate(-14.1)"/><rect class="cls-5" x="56.31" y="178.21" width="7.31" height="7.31" rx="2.29" ry="2.29" transform="translate(127.08 2.51) rotate(38.77)"/><rect class="cls-5" x="45.26" y="173.95" width="7.31" height="7.31" rx="2.85" ry="2.85" transform="translate(-34.78 13.5) rotate(-11.62)"/><rect class="cls-6" x="57.49" y="162.16" width="7.31" height="7.31" rx="2.85" ry="2.85"/><rect class="cls-6" x="75.99" y="161.52" width="7.31" height="7.31" rx="2.85" ry="2.85" transform="translate(-64.13 51.35) rotate(-25.89)"/><rect class="cls-5" x="57.96" y="170.47" width="7.31" height="7.31" rx="2.85" ry="2.85" transform="translate(-52.67 29.02) rotate(-18.74)"/><rect class="cls-6" x="63.75" y="166.82" width="7.31" height="7.31" rx="2.85" ry="2.85"/><rect class="cls-5" x="59.4" y="184.17" width="7.31" height="7.31" rx="2.85" ry="2.85"/><rect class="cls-6" x="44.51" y="180.95" width="7.31" height="7.31" rx="2.85" ry="2.85" transform="translate(-36.21 13.49) rotate(-11.62)"/><rect class="cls-6" x="44.51" y="166.42" width="7.31" height="7.31" rx="2.85" ry="2.85"/><rect class="cls-5" x="68.12" y="168.92" width="7.31" height="7.31" rx="2.57" ry="2.57" transform="translate(50.16 -13.08) rotate(15.94)"/><rect class="cls-6" x="50.87" y="173.73" width="7.31" height="7.31" rx="2.85" ry="2.85"/><rect class="cls-7" x="75.2" y="186.47" width="7.31" height="7.31" rx="2.85" ry="2.85" transform="translate(-36.69 19.79) rotate(-11.62)"/><rect class="cls-6" x="75.99" y="181.1" width="7.31" height="7.31" rx="2.85" ry="2.85" transform="translate(27.74 -9.62) rotate(8.37)"/><rect class="cls-6" x="68.11" y="191.55" width="7.31" height="7.31" rx="2.85" ry="2.85"/><rect class="cls-6" x="75.99" y="170.07" width="7.31" height="7.31" rx="2.85" ry="2.85" transform="translate(-39.91 24.63) rotate(-14.1)"/><rect class="cls-5" x="61.54" y="191.26" width="9.22" height="7.9" rx="3.33" ry="3.33" transform="translate(-45.55 21.99) rotate(-14.1)"/><rect class="cls-6" x="51.16" y="184.17" width="7.31" height="7.31" rx="2.85" ry="2.85" transform="translate(-86.57 52.57) rotate(-30)"/><rect class="cls-6" x="67.41" y="184.17" width="7.31" height="7.31" rx="2.85" ry="2.85"/><rect class="cls-6" x="45.06" y="189.21" width="7.31" height="7.31" rx="2.85" ry="2.85" transform="translate(-59.37 25.87) rotate(-18.74)"/><rect class="cls-6" x="57.49" y="190.54" width="7.31" height="7.31" rx="2.85" ry="2.85"/><rect class="cls-6" x="74.32" y="192.04" width="7.31" height="7.31" rx="2.85" ry="2.85" transform="translate(-77.62 53.68) rotate(-25.89)"/><rect class="cls-5" x="50.87" y="192.67" width="7.31" height="7.31" rx="2.85" ry="2.85"/><rect class="cls-6" x="48.16" y="145.68" width="7.31" height="7.31" rx="2.85" ry="2.85"/><rect class="cls-5" x="43.24" y="149.51" width="7.31" height="7.31" rx="2.85" ry="2.85" transform="matrix(0.96, 0.27, -0.27, 0.96, 43.88, -6.99)"/><rect class="cls-6" x="42.58" y="139.55" width="7.31" height="7.31" rx="2.61" ry="2.61" transform="translate(50.4 -7.22) rotate(19.48)"/><rect class="cls-6" x="57.96" y="140.16" width="7.31" height="7.31" rx="2.85" ry="2.85" transform="translate(-42.93 27.42) rotate(-18.74)"/><rect class="cls-6" x="69.28" y="142.02" width="7.31" height="7.31" rx="2.85" ry="2.85" transform="translate(-63.07 55.98) rotate(-30)"/><rect class="cls-6" x="77.75" y="137.74" width="7.31" height="7.31" rx="2.85" ry="2.85" transform="translate(41.97 -16.92) rotate(15.94)"/><rect class="cls-6" x="55.62" y="145.68" width="7.31" height="7.31" rx="2.85" ry="2.85" transform="translate(-28.87 15) rotate(-11.62)"/><rect class="cls-6" x="70.37" y="158.5" width="7.31" height="7.31" rx="2.85" ry="2.85" transform="translate(91 -15.29) rotate(30)"/><rect class="cls-6" x="63.84" y="158.93" width="7.31" height="7.31" rx="2.85" ry="2.85" transform="translate(-48.65 30.3) rotate(-18.74)"/><rect class="cls-5" x="50.18" y="164.23" width="7.31" height="7.31" rx="2.85" ry="2.85"/><rect class="cls-6" x="50.18" y="158.5" width="7.31" height="7.31" rx="2.85" ry="2.85" transform="translate(-31.57 14.17) rotate(-11.62)"/><rect class="cls-6" x="63.84" y="146.82" width="7.31" height="7.31" rx="2.85" ry="2.85"/><rect class="cls-6" x="75.99" y="146.62" width="7.31" height="7.31" rx="2.85" ry="2.85" transform="translate(-64.47 59.95) rotate(-30)"/><rect class="cls-6" x="52.32" y="152.58" width="7.31" height="7.31" rx="2.85" ry="2.85" transform="translate(92.49 -5.66) rotate(32.42)"/><rect class="cls-5" x="59.97" y="152.58" width="7.31" height="7.31" rx="2.85" ry="2.85"/><rect class="cls-5" x="76.39" y="154.02" width="7.31" height="7.31" rx="2.85" ry="2.85"/><rect class="cls-5" x="43.24" y="157.67" width="7.31" height="7.31" rx="2.85" ry="2.85" transform="matrix(0.59, 0.81, -0.81, 0.59, 149.11, 28)"/><rect class="cls-6" x="68.3" y="151.64" width="7.31" height="7.31" rx="2.85" ry="2.85" transform="matrix(0.87, 0.5, -0.5, 0.87, 87.29, -15.17)"/><path class="cls-8" d="M79,200H49a4.38,4.38,0,0,1-4.25-4.29L42,143.86h43.3l-2,51.77A4.39,4.39,0,0,1,79,200Z"/><path class="cls-9" d="M79,200H49a4.39,4.39,0,0,1-4.25-4.29L42,143.85h43.3l-2,51.78A4.39,4.39,0,0,1,79,200Z"/><line class="cls-10" x1="70.8" y1="150.48" x2="84.32" y2="150.48"/><line class="cls-10" x1="70.8" y1="168.85" x2="84.32" y2="168.85"/><line class="cls-10" x1="76.39" y1="159.48" x2="84.32" y2="159.48"/><line class="cls-10" x1="76.39" y1="179.35" x2="84.32" y2="179.35"/><line class="cls-10" x1="70.8" y1="188.73" x2="84.32" y2="188.73"/><rect class="cls-6" x="62.9" y="128.99" width="7.31" height="7.31" rx="2.85" ry="2.85" transform="translate(-25.36 16.13) rotate(-11.62)"/><rect class="cls-6" x="55.85" y="132.64" width="7.31" height="7.31" rx="2.85" ry="2.85"/><rect class="cls-5" x="64.82" y="136.37" width="7.31" height="7.31" rx="2.85" ry="2.85" transform="matrix(0.87, 0.5, -0.5, 0.87, 79.19, -15.48)"/><rect class="cls-5" x="73.91" y="134.09" width="7.31" height="7.31" rx="2.85" ry="2.85" transform="translate(-20.71 13.93) rotate(-9.06)"/><rect class="cls-5" x="46.52" y="133.2" width="7.31" height="7.31" rx="2.85" ry="2.85" transform="translate(-79.8 70.88) rotate(-42.95)"/><rect class="cls-6" x="49.21" y="138.59" width="7.31" height="7.31" rx="2.61" ry="2.61" transform="translate(50.46 -9.49) rotate(19.48)"/><path class="cls-3" d="M153.94,202.66H122.16a6.74,6.74,0,0,1-6.73-6.37l-3.1-55.3H163l-2.32,55.21A6.75,6.75,0,0,1,153.94,202.66Z"/><path class="cls-4" d="M112.33,148.16c-3.58-.25-10.5,4.08-12.28,12.16-1,4.74-3.3,15.84-3.3,15.84"/><polygon class="cls-3" points="173.53 140.99 161.53 140.99 161.02 153.16 173.53 140.99"/><rect class="cls-5" x="138.46" y="176.5" width="7.31" height="7.31" rx="2.85" ry="2.85"/><rect class="cls-5" x="144.35" y="177.03" width="7.98" height="6.84" rx="2.88" ry="2.88" transform="translate(-39.48 41.56) rotate(-14.1)"/><rect class="cls-5" x="130.32" y="178.21" width="7.31" height="7.31" rx="2.29" ry="2.29" transform="translate(143.38 -43.82) rotate(38.77)"/><rect class="cls-5" x="119.27" y="173.95" width="7.31" height="7.31" rx="2.85" ry="2.85" transform="translate(-33.26 28.41) rotate(-11.62)"/><rect class="cls-5" x="131.97" y="170.47" width="7.31" height="7.31" rx="2.85" ry="2.85" transform="translate(-48.75 52.8) rotate(-18.74)"/><rect class="cls-6" x="137.76" y="166.82" width="7.31" height="7.31" rx="2.85" ry="2.85"/><rect class="cls-5" x="133.4" y="184.17" width="7.31" height="7.31" rx="2.85" ry="2.85"/><rect class="cls-6" x="118.51" y="180.95" width="7.31" height="7.31" rx="2.85" ry="2.85" transform="translate(-34.69 28.4) rotate(-11.62)"/><rect class="cls-6" x="118.51" y="166.42" width="7.31" height="7.31" rx="2.85" ry="2.85"/><rect class="cls-5" x="142.13" y="168.92" width="7.31" height="7.31" rx="2.57" ry="2.57" transform="translate(53.01 -33.41) rotate(15.94)"/><rect class="cls-6" x="124.88" y="173.73" width="7.31" height="7.31" rx="2.85" ry="2.85"/><rect class="cls-7" x="149.21" y="186.47" width="7.31" height="7.31" rx="2.85" ry="2.85" transform="translate(-35.17 34.7) rotate(-11.62)"/><rect class="cls-6" x="149.99" y="181.1" width="7.31" height="7.31" rx="2.85" ry="2.85" transform="translate(28.52 -20.39) rotate(8.37)"/><rect class="cls-6" x="142.11" y="191.55" width="7.31" height="7.31" rx="2.85" ry="2.85"/><rect class="cls-6" x="149.99" y="170.07" width="7.31" height="7.31" rx="2.85" ry="2.85" transform="translate(-37.68 42.65) rotate(-14.1)"/><rect class="cls-5" x="135.55" y="191.26" width="9.22" height="7.9" rx="3.33" ry="3.33" transform="translate(-43.32 40.01) rotate(-14.1)"/><rect class="cls-6" x="125.17" y="184.17" width="7.31" height="7.31" rx="2.85" ry="2.85" transform="translate(-76.66 89.58) rotate(-30)"/><rect class="cls-6" x="141.41" y="184.17" width="7.31" height="7.31" rx="2.85" ry="2.85"/><rect class="cls-6" x="119.07" y="189.21" width="7.31" height="7.31" rx="2.85" ry="2.85" transform="translate(-55.45 49.64) rotate(-18.74)"/><rect class="cls-6" x="131.49" y="190.54" width="7.31" height="7.31" rx="2.85" ry="2.85"/><rect class="cls-6" x="148.33" y="192.04" width="7.31" height="7.31" rx="2.85" ry="2.85" transform="translate(-70.19 86) rotate(-25.89)"/><rect class="cls-5" x="124.88" y="192.67" width="7.31" height="7.31" rx="2.85" ry="2.85"/><path class="cls-8" d="M153,200H123a4.4,4.4,0,0,1-4.26-4.29L116,143.86h43.29l-2,51.77A4.39,4.39,0,0,1,153,200Z"/><path class="cls-9" d="M153,200H123a4.4,4.4,0,0,1-4.26-4.29L116,143.85h43.29l-2,51.78A4.39,4.39,0,0,1,153,200Z"/><line class="cls-10" x1="144.81" y1="150.48" x2="158.33" y2="150.48"/><line class="cls-10" x1="144.81" y1="168.85" x2="158.33" y2="168.85"/><line class="cls-10" x1="150.4" y1="159.48" x2="158.33" y2="159.48"/><line class="cls-10" x1="150.4" y1="179.35" x2="158.33" y2="179.35"/><line class="cls-10" x1="144.81" y1="188.73" x2="158.33" y2="188.73"/><g class="cls-11"><rect class="cls-12" x="295.83" y="120.33" width="38.9" height="84.63" transform="translate(336.26 -191.5) rotate(66.1)"/><path class="cls-13" d="M344.21,131.38l-72.2,32,13.49,30.45,72.2-32Zm7.24,21c-3.08,2.35-4.36,6.8-3.23,11.22L293.16,188c-2.51-3.8-6.66-5.85-10.47-5.14l-4.42-10c3.07-2.35,4.35-6.8,3.22-11.21l55.06-24.4c2.51,3.81,6.66,5.85,10.47,5.15Z"/><ellipse class="cls-13" cx="314.82" cy="162.51" rx="12.04" ry="12.21" transform="translate(-38.85 141.46) rotate(-23.9)"/><path class="cls-14" d="M312.31,154.82a5.82,5.82,0,0,1,1.42-.26,4.4,4.4,0,0,1,1.4.16,3.86,3.86,0,0,1,1.29.63,4.51,4.51,0,0,1,1.09,1.16l-1.36.61a3,3,0,0,0-3.25-1l2.15,4.85c.57,0,1.15,0,1.73,0a6.55,6.55,0,0,1,1.63.22,4,4,0,0,1,1.38.65,3,3,0,0,1,1,1.27,3.68,3.68,0,0,1,0,3.33,4.52,4.52,0,0,1-1,1.27,6.5,6.5,0,0,1-1.3.94l1,2.3-1.34.59-1-2.33a4.74,4.74,0,0,1-1.59.1,5,5,0,0,1-1.56-.43,5.85,5.85,0,0,1-1.42-.92,6.37,6.37,0,0,1-1.16-1.36l1.44-.64a4.62,4.62,0,0,0,1.63,1.52,3,3,0,0,0,2,.33l-2.33-5.25c-.53,0-1.06,0-1.58,0a6.26,6.26,0,0,1-1.48-.28,3.62,3.62,0,0,1-1.24-.66,3,3,0,0,1-.91-1.21,3.4,3.4,0,0,1-.29-1.41,3.8,3.8,0,0,1,.31-1.37,4.33,4.33,0,0,1,.8-1.23,5.21,5.21,0,0,1,1.21-1l-.66-1.48,1.34-.6Zm-2,4.88a2,2,0,0,0,.5.69,2.54,2.54,0,0,0,.72.41,3.49,3.49,0,0,0,.9.22,6.91,6.91,0,0,0,1,0l-1.91-4.3a3.14,3.14,0,0,0-1.24,1.4A1.9,1.9,0,0,0,310.32,159.7Zm9.06,4.13a1.56,1.56,0,0,0-.56-.66,2.83,2.83,0,0,0-.88-.39,5.68,5.68,0,0,0-1.07-.18c-.38,0-.76,0-1.14,0l2.12,4.79a3.65,3.65,0,0,0,1-.74,3.06,3.06,0,0,0,.57-.89,2.45,2.45,0,0,0,.2-1A2.25,2.25,0,0,0,319.38,163.83Z"/><rect class="cls-13" x="286.91" y="168.4" width="13.15" height="1.37" transform="translate(-43.34 133.39) rotate(-23.9)"/><rect class="cls-13" x="288.01" y="170.9" width="13.15" height="1.37" transform="translate(-44.25 134.05) rotate(-23.9)"/><rect class="cls-13" x="289.12" y="173.39" width="13.15" height="1.37" transform="translate(-45.17 134.71) rotate(-23.9)"/><rect class="cls-13" x="327.73" y="150.32" width="13.15" height="1.37" transform="translate(-32.51 148.37) rotate(-23.9)"/><rect class="cls-13" x="328.83" y="152.81" width="13.15" height="1.37" transform="translate(-33.43 149.03) rotate(-23.9)"/><rect class="cls-13" x="329.94" y="155.3" width="13.15" height="1.37" transform="translate(-34.34 149.69) rotate(-23.9)"/></g><rect class="cls-15" x="301.25" y="121.76" width="38.9" height="84.63" transform="translate(392.76 -188.88) rotate(74.45)"/><path class="cls-13" d="M353.85,137.34l-76.07,21.17,8.93,32.09,76.07-21.18Zm4.12,21.8c-3.39,1.88-5.3,6.1-4.82,10.63l-58,16.15c-1.94-4.13-5.75-6.75-9.62-6.61l-2.93-10.52c3.39-1.88,5.3-6.1,4.82-10.63l58-16.15c1.94,4.13,5.75,6.76,9.62,6.61Z"/><ellipse class="cls-13" cx="320.25" cy="163.87" rx="12.04" ry="12.21" transform="translate(-32.21 91.88) rotate(-15.55)"/><path class="cls-14" d="M318.89,155.9a5.35,5.35,0,0,1,1.44-.05,4.2,4.2,0,0,1,1.36.35,4.24,4.24,0,0,1,2.1,2.13l-1.44.4a3,3,0,0,0-3.07-1.43l1.42,5.11c.57.07,1.14.16,1.71.26a7,7,0,0,1,1.59.45,4.26,4.26,0,0,1,1.27.84,3.12,3.12,0,0,1,.78,1.41,3.79,3.79,0,0,1,.11,1.81,3.9,3.9,0,0,1-.64,1.47,4.5,4.5,0,0,1-1.14,1.12,6.64,6.64,0,0,1-1.42.74l.67,2.42-1.41.39-.68-2.45a4.72,4.72,0,0,1-1.59-.13,5,5,0,0,1-1.48-.66A5.54,5.54,0,0,1,317.2,169a5.91,5.91,0,0,1-.95-1.52l1.51-.42a4.59,4.59,0,0,0,1.4,1.74,3,3,0,0,0,2,.63l-1.54-5.53c-.53-.08-1-.18-1.57-.29a6.26,6.26,0,0,1-1.42-.49,3.72,3.72,0,0,1-1.13-.83,3,3,0,0,1-.72-1.33,3.21,3.21,0,0,1-.08-1.44,3.67,3.67,0,0,1,.5-1.31,4.32,4.32,0,0,1,1-1.09,5.29,5.29,0,0,1,1.34-.8l-.44-1.56,1.41-.39Zm-2.67,4.54a1.92,1.92,0,0,0,.39.75,2.57,2.57,0,0,0,.65.52,4.08,4.08,0,0,0,.85.34,7.81,7.81,0,0,0,1,.21l-1.26-4.54a3.23,3.23,0,0,0-1.44,1.2A1.88,1.88,0,0,0,316.22,160.44Zm8.36,5.4a1.48,1.48,0,0,0-.46-.74,3.28,3.28,0,0,0-.81-.51,5.92,5.92,0,0,0-1-.33c-.38-.09-.75-.16-1.12-.21l1.4,5a3.78,3.78,0,0,0,1.05-.59,3.28,3.28,0,0,0,.7-.8,2.54,2.54,0,0,0,.33-.92A2.13,2.13,0,0,0,324.58,165.84Z"/><rect class="cls-13" x="291.62" y="166.6" width="13.15" height="1.37" transform="translate(-33.94 86.09) rotate(-15.55)"/><rect class="cls-13" x="292.35" y="169.23" width="13.15" height="1.37" transform="matrix(0.96, -0.27, 0.27, 0.96, -34.61, 86.38)"/><rect class="cls-13" x="293.08" y="171.85" width="13.15" height="1.37" transform="translate(-35.29 86.67) rotate(-15.55)"/><rect class="cls-13" x="334.63" y="154.63" width="13.15" height="1.37" transform="matrix(0.96, -0.27, 0.27, 0.96, -29.15, 97.18)"/><rect class="cls-13" x="335.36" y="157.25" width="13.15" height="1.37" transform="translate(-29.83 97.47) rotate(-15.55)"/><rect class="cls-13" x="336.09" y="159.88" width="13.15" height="1.37" transform="matrix(0.96, -0.27, 0.27, 0.96, -30.51, 97.77)"/><rect class="cls-12" x="302.49" y="122.58" width="38.9" height="84.63" transform="translate(486.84 -157.05) rotate(90)"/><path class="cls-13" d="M361.05,148h-79v33.31h79Zm-1.88,22.11c-3.77.91-6.74,4.46-7.49,9H291.46c-.76-4.49-3.73-8.05-7.49-9V159.23c3.76-.91,6.73-4.46,7.49-8.95h60.22c.75,4.49,3.72,8,7.49,8.95Z"/><ellipse class="cls-13" cx="321.57" cy="164.59" rx="12.04" ry="12.21"/><path class="cls-14" d="M322.39,156.54a5.41,5.41,0,0,1,1.4.34,4,4,0,0,1,1.22.71,4.07,4.07,0,0,1,.92,1.09,4.41,4.41,0,0,1,.53,1.52H325a3,3,0,0,0-2.58-2.2v5.3c.53.22,1.06.46,1.58.7a7.29,7.29,0,0,1,1.41.87,4,4,0,0,1,1,1.15,3,3,0,0,1,.38,1.56,3.93,3.93,0,0,1-.38,1.78,3.85,3.85,0,0,1-1,1.24,4.44,4.44,0,0,1-1.4.77,6.31,6.31,0,0,1-1.57.34v2.51h-1.46v-2.55a4.58,4.58,0,0,1-1.5-.55,4.91,4.91,0,0,1-1.25-1,5.75,5.75,0,0,1-.93-1.41,6.35,6.35,0,0,1-.5-1.72h1.57a4.48,4.48,0,0,0,.88,2,3.06,3.06,0,0,0,1.73,1.14V164.4c-.49-.21-1-.45-1.43-.69a6.3,6.3,0,0,1-1.24-.85,3.89,3.89,0,0,1-.87-1.11,3.12,3.12,0,0,1-.33-1.47,3.24,3.24,0,0,1,.3-1.41,3.56,3.56,0,0,1,.83-1.13,4.33,4.33,0,0,1,1.23-.79,5,5,0,0,1,1.51-.41v-1.62h1.46Zm-3.79,3.66a1.83,1.83,0,0,0,.18.82,2.47,2.47,0,0,0,.48.68,4.26,4.26,0,0,0,.73.56,7.49,7.49,0,0,0,.94.47V158a3.16,3.16,0,0,0-1.71.78A1.89,1.89,0,0,0,318.6,160.2Zm6.61,7.44a1.47,1.47,0,0,0-.25-.83,3,3,0,0,0-.64-.71,7.17,7.17,0,0,0-.91-.6c-.33-.18-.67-.35-1-.5v5.23a3.59,3.59,0,0,0,1.17-.29,2.92,2.92,0,0,0,.89-.58,2.42,2.42,0,0,0,.56-.79A2.32,2.32,0,0,0,325.21,167.64Z"/><rect class="cls-13" x="292.82" y="161.27" width="13.15" height="1.37"/><rect class="cls-13" x="292.82" y="164" width="13.15" height="1.37"/><rect class="cls-13" x="292.82" y="166.73" width="13.15" height="1.37"/><rect class="cls-13" x="337.47" y="161.27" width="13.15" height="1.37"/><rect class="cls-13" x="337.47" y="164" width="13.15" height="1.37"/><rect class="cls-13" x="337.47" y="166.73" width="13.15" height="1.37"/><path class="cls-16" d="M257.67,40.76l-3.09-10.08h-.08c.11,2,.17,3.42.17,4.1v6h-2.44V27.91h3.71l3,9.83H259l3.22-9.83H266V40.76h-2.54V34.68c0-.29,0-.62,0-1s0-1.37.11-3h-.08l-3.31,10.06Z"/><path class="cls-16" d="M280.87,34.32a7,7,0,0,1-1.58,4.9,6.87,6.87,0,0,1-9.07,0,7,7,0,0,1-1.59-4.92,6.9,6.9,0,0,1,1.59-4.9,6.93,6.93,0,0,1,9.08,0A7,7,0,0,1,280.87,34.32Zm-9.38,0a5.34,5.34,0,0,0,.82,3.24,2.84,2.84,0,0,0,2.44,1.09c2.18,0,3.26-1.44,3.26-4.33S276.93,30,274.77,30a2.88,2.88,0,0,0-2.45,1.1A5.35,5.35,0,0,0,271.49,34.32Z"/><path class="cls-16" d="M294.93,40.76h-3.46L285.88,31h-.08c.11,1.71.17,2.94.17,3.67v6h-2.44V27.91H287l5.58,9.62h.06c-.09-1.67-.13-2.85-.13-3.54V27.91h2.45Z"/><path class="cls-16" d="M303.12,40.76H300.4V30.18h-3.49V27.91h9.7v2.27h-3.49Z"/><path class="cls-16" d="M319.12,40.76H316.4V35.21h-5.09v5.55h-2.72V27.91h2.72v5h5.09v-5h2.72Z"/><path class="cls-16" d="M322.36,40.76V27.91h2.73v10.6h5.21v2.25Z"/><path class="cls-16" d="M336.53,33.2l2.68-5.29h2.94l-4.27,7.85v5h-2.7V35.85l-4.27-7.94h3Z"/><path class="cls-16" d="M353.9,30a2.77,2.77,0,0,0-2.38,1.16,5.31,5.31,0,0,0-.85,3.22c0,2.86,1.08,4.3,3.23,4.3a10.3,10.3,0,0,0,3.28-.68v2.29a9.34,9.34,0,0,1-3.54.65,5.37,5.37,0,0,1-4.29-1.7,7.19,7.19,0,0,1-1.48-4.88,7.92,7.92,0,0,1,.73-3.51,5.17,5.17,0,0,1,2.09-2.31,6.17,6.17,0,0,1,3.21-.81,8.69,8.69,0,0,1,3.76.91l-.88,2.21c-.48-.22-1-.42-1.45-.59A4.33,4.33,0,0,0,353.9,30Z"/><path class="cls-16" d="M371.57,34.32a7,7,0,0,1-1.58,4.9,6.87,6.87,0,0,1-9.07,0,7,7,0,0,1-1.58-4.92,6.94,6.94,0,0,1,1.58-4.9,5.94,5.94,0,0,1,4.55-1.69,5.85,5.85,0,0,1,4.53,1.7A7,7,0,0,1,371.57,34.32Zm-9.38,0a5.41,5.41,0,0,0,.82,3.24,2.86,2.86,0,0,0,2.44,1.09q3.27,0,3.27-4.33c0-2.9-1.09-4.35-3.25-4.35a2.88,2.88,0,0,0-2.45,1.1A5.35,5.35,0,0,0,362.19,34.32Z"/><path class="cls-16" d="M381.82,37.19a3.33,3.33,0,0,1-1.25,2.74,5.45,5.45,0,0,1-3.49,1,8.15,8.15,0,0,1-3.64-.77V37.63a14.66,14.66,0,0,0,2.21.82,6.39,6.39,0,0,0,1.64.23,2.34,2.34,0,0,0,1.38-.34,1.18,1.18,0,0,0,.48-1,1.13,1.13,0,0,0-.21-.67,2.31,2.31,0,0,0-.62-.57,16.32,16.32,0,0,0-1.67-.87,7.92,7.92,0,0,1-1.76-1.06A3.84,3.84,0,0,1,374,33a3.67,3.67,0,0,1,.8-4.26,4.79,4.79,0,0,1,3.19-1,7.54,7.54,0,0,1,1.92.24,13.18,13.18,0,0,1,1.9.67l-.88,2.12a13,13,0,0,0-1.7-.59,5.56,5.56,0,0,0-1.32-.17,1.76,1.76,0,0,0-1.19.36,1.3,1.3,0,0,0-.25,1.57,1.93,1.93,0,0,0,.54.52,14.48,14.48,0,0,0,1.72.9,6.87,6.87,0,0,1,2.47,1.73A3.32,3.32,0,0,1,381.82,37.19Z"/><path class="cls-16" d="M389.11,40.76h-2.73V30.18h-3.49V27.91h9.71v2.27h-3.49Z"/><path class="cls-16" d="M43.94,30a2.77,2.77,0,0,0-2.38,1.16,5.31,5.31,0,0,0-.85,3.22c0,2.86,1.08,4.3,3.23,4.3A10.3,10.3,0,0,0,47.22,38v2.29a9.34,9.34,0,0,1-3.54.65,5.37,5.37,0,0,1-4.29-1.7,7.19,7.19,0,0,1-1.48-4.88,7.92,7.92,0,0,1,.73-3.51,5.17,5.17,0,0,1,2.09-2.31,6.2,6.2,0,0,1,3.21-.81,8.69,8.69,0,0,1,3.76.91l-.88,2.21c-.48-.22-1-.42-1.45-.59A4.33,4.33,0,0,0,43.94,30Z"/><path class="cls-16" d="M60.41,27.91v8.31a4.77,4.77,0,0,1-.64,2.5,4.15,4.15,0,0,1-1.84,1.64,6.59,6.59,0,0,1-2.85.57,5.45,5.45,0,0,1-3.85-1.27,4.5,4.5,0,0,1-1.37-3.47V27.91h2.72v7.87a3.3,3.3,0,0,0,.6,2.18,2.46,2.46,0,0,0,2,.69,2.42,2.42,0,0,0,1.94-.7,3.33,3.33,0,0,0,.6-2.19V27.91Z"/><path class="cls-16" d="M72.43,31.92a3.93,3.93,0,0,1-1.29,3.17,5.58,5.58,0,0,1-3.69,1.1H66.28v4.57H63.56V27.91h4.1a5.43,5.43,0,0,1,3.56,1A3.67,3.67,0,0,1,72.43,31.92Zm-6.15,2h.9a3,3,0,0,0,1.88-.5A1.75,1.75,0,0,0,69.68,32a1.77,1.77,0,0,0-.52-1.41,2.43,2.43,0,0,0-1.64-.46H66.28Z"/><path class="cls-16" d="M82.44,37.19a3.3,3.3,0,0,1-1.25,2.74,5.42,5.42,0,0,1-3.48,1,8.09,8.09,0,0,1-3.64-.77V37.63a14.6,14.6,0,0,0,2.2.82,6.4,6.4,0,0,0,1.65.23,2.33,2.33,0,0,0,1.37-.34,1.18,1.18,0,0,0,.48-1,1.13,1.13,0,0,0-.21-.67,2.31,2.31,0,0,0-.62-.57,17,17,0,0,0-1.66-.87,7.79,7.79,0,0,1-1.77-1.06A4,4,0,0,1,74.57,33a3.71,3.71,0,0,1,.8-4.26,4.82,4.82,0,0,1,3.2-1,7.46,7.46,0,0,1,1.91.24,13.18,13.18,0,0,1,1.9.67l-.88,2.12a12.52,12.52,0,0,0-1.7-.59A5.56,5.56,0,0,0,78.48,30a1.76,1.76,0,0,0-1.19.36,1.21,1.21,0,0,0-.41.94,1.19,1.19,0,0,0,.17.63,1.75,1.75,0,0,0,.53.52,14.93,14.93,0,0,0,1.73.9,7,7,0,0,1,2.47,1.73A3.37,3.37,0,0,1,82.44,37.19Z"/><path class="cls-16" d="M98.33,31.92A3.94,3.94,0,0,1,97,35.09a5.57,5.57,0,0,1-3.69,1.1H92.17v4.57H89.45V27.91h4.1a5.42,5.42,0,0,1,3.56,1A3.67,3.67,0,0,1,98.33,31.92Zm-6.16,2h.9a3,3,0,0,0,1.88-.5A1.72,1.72,0,0,0,95.57,32a1.77,1.77,0,0,0-.52-1.41,2.42,2.42,0,0,0-1.64-.46H92.17Z"/><path class="cls-16" d="M108.15,40.76h-7.4V27.91h7.4v2.23h-4.67V33h4.35V35.2h-4.35v3.31h4.67Z"/><path class="cls-16" d="M113.56,35.83v4.93h-2.73V27.91h3.75a6.45,6.45,0,0,1,3.87.95,3.8,3.8,0,0,1,.63,4.92,4.11,4.11,0,0,1-1.76,1.38q2.9,4.34,3.78,5.6h-3L115,35.83Zm0-2.22h.88a3.32,3.32,0,0,0,1.9-.43,1.53,1.53,0,0,0,.62-1.35,1.41,1.41,0,0,0-.63-1.3,3.8,3.8,0,0,0-2-.39h-.82Z"/><path class="cls-16" d="M138.05,34.21a6.32,6.32,0,0,1-1.8,4.86A7.37,7.37,0,0,1,131,40.76h-3.64V27.91h4a6.79,6.79,0,0,1,4.89,1.66A6.11,6.11,0,0,1,138.05,34.21Zm-2.83.07q0-4.14-3.65-4.14h-1.45v8.37h1.16Q135.23,38.51,135.22,34.28Z"/><path class="cls-16" d="M148.58,40.76l-.93-3.06H143L142,40.76H139.1l4.53-12.9H147l4.56,12.9ZM147,35.42c-.86-2.78-1.35-4.34-1.46-4.71s-.18-.65-.23-.86c-.19.75-.75,2.61-1.66,5.57Z"/><path class="cls-16" d="M157.13,33.2l2.68-5.29h2.94l-4.26,7.85v5h-2.71V35.85l-4.26-7.94h2.95Z"/><path class="cls-3" d="M277.73,87.4a13.5,13.5,0,0,1-4.79-1.11V82.52a16.21,16.21,0,0,0,2.86,1.12,9.85,9.85,0,0,0,2.71.45,3.15,3.15,0,0,0,1.42-.24.84.84,0,0,0,.12-1.41,4.92,4.92,0,0,0-1.08-.59c-.5-.22-1.18-.48-2-.79a9.5,9.5,0,0,1-2.33-1.2,4.17,4.17,0,0,1-1.29-1.49,4.58,4.58,0,0,1-.4-2,3.69,3.69,0,0,1,1.2-2.93,6.37,6.37,0,0,1,3.61-1.31V70.54h2.35v1.53a13.18,13.18,0,0,1,4.55,1.11l-1.35,3.24A10.62,10.62,0,0,0,279,75.35a2.59,2.59,0,0,0-1.27.22.71.71,0,0,0-.37.65.82.82,0,0,0,.26.62,3.88,3.88,0,0,0,.93.55q.66.3,1.83.69a8.76,8.76,0,0,1,3.4,1.92,3.79,3.79,0,0,1,1,2.76,4.16,4.16,0,0,1-1.21,3.1,5.9,5.9,0,0,1-3.52,1.47v2.19h-2.35Z"/><path class="cls-3" d="M298.36,88.17h-12v-3l4.05-4.09c1.16-1.21,1.92-2,2.27-2.48a5.73,5.73,0,0,0,.75-1.14,2.67,2.67,0,0,0,.21-1,1.3,1.3,0,0,0-.42-1,1.72,1.72,0,0,0-1.18-.38,3.23,3.23,0,0,0-1.59.45,12.05,12.05,0,0,0-1.81,1.32L286.14,74a13,13,0,0,1,2.16-1.64,7.78,7.78,0,0,1,1.9-.76,9.54,9.54,0,0,1,2.31-.26,6.9,6.9,0,0,1,2.87.57,4.53,4.53,0,0,1,2,1.62,4.18,4.18,0,0,1,.69,2.35,6.5,6.5,0,0,1-.24,1.81,6.43,6.43,0,0,1-.75,1.63A12.39,12.39,0,0,1,295.69,81c-.56.59-1.77,1.71-3.6,3.36v.11h6.27Z"/><path class="cls-3" d="M306.78,77.3a5,5,0,0,1,2.58.67,4.57,4.57,0,0,1,1.8,1.87,6,6,0,0,1,.64,2.81,5.39,5.39,0,0,1-1.68,4.26,7.42,7.42,0,0,1-5.06,1.49,10.84,10.84,0,0,1-4.75-.9V83.83a12.39,12.39,0,0,0,2.23.75,9.83,9.83,0,0,0,2.14.29,3.07,3.07,0,0,0,1.92-.53,1.85,1.85,0,0,0,.67-1.56,1.78,1.78,0,0,0-.68-1.48,3.3,3.3,0,0,0-2.07-.54,7.31,7.31,0,0,0-2.28.4l-1.64-.82.62-8.76h9.46v3.74H305l-.2,2.19a8.93,8.93,0,0,1,1.26-.19Z"/><path class="cls-3" d="M319.39,83.71V80.17h6.41v3.54Z"/><path class="cls-3" d="M338,87.4a13.45,13.45,0,0,1-4.78-1.11V82.52a16.1,16.1,0,0,0,2.85,1.12,9.91,9.91,0,0,0,2.72.45,3.13,3.13,0,0,0,1.41-.24.84.84,0,0,0,.12-1.41,5,5,0,0,0-1.07-.59c-.51-.22-1.19-.48-2-.79a9.5,9.5,0,0,1-2.33-1.2,4,4,0,0,1-1.28-1.49,4.57,4.57,0,0,1-.41-2,3.69,3.69,0,0,1,1.2-2.93A6.4,6.4,0,0,1,338,72.09V70.54h2.35v1.53a13.13,13.13,0,0,1,4.55,1.11l-1.35,3.24a10.58,10.58,0,0,0-4.28-1.07,2.59,2.59,0,0,0-1.27.22.71.71,0,0,0-.37.65.8.8,0,0,0,.27.62,3.58,3.58,0,0,0,.92.55q.66.3,1.83.69a8.76,8.76,0,0,1,3.4,1.92,3.79,3.79,0,0,1,1,2.76,4.19,4.19,0,0,1-1.2,3.1,5.93,5.93,0,0,1-3.53,1.47v2.19H338Z"/><path class="cls-3" d="M358.12,75.18a4,4,0,0,1-.94,2.65,5.34,5.34,0,0,1-2.73,1.6v.07q4.16.52,4.16,3.93a4.26,4.26,0,0,1-1.84,3.64,8.51,8.51,0,0,1-5.09,1.33,14.78,14.78,0,0,1-2.48-.19,13,13,0,0,1-2.46-.71V83.78a9.39,9.39,0,0,0,2.21.82,9.08,9.08,0,0,0,2.09.27,4.34,4.34,0,0,0,2.15-.41,1.66,1.66,0,0,0,.32-2.35,2.26,2.26,0,0,0-1.13-.56,9.46,9.46,0,0,0-2.05-.19h-1V78h1.05c2.27,0,3.41-.58,3.41-1.74a1.09,1.09,0,0,0-.5-1,2.56,2.56,0,0,0-1.36-.32A6.2,6.2,0,0,0,348.62,76l-1.86-3a9.21,9.21,0,0,1,2.69-1.29,11.68,11.68,0,0,1,3.16-.39,6.88,6.88,0,0,1,4,1A3.23,3.23,0,0,1,358.12,75.18Z"/><path class="cls-3" d="M372.36,79.9q0,4.41-1.48,6.45a5.18,5.18,0,0,1-4.51,2.05,5.11,5.11,0,0,1-4.48-2.14q-1.51-2.15-1.51-6.36,0-4.43,1.47-6.49a5.84,5.84,0,0,1,9,.08C371.85,74.93,372.36,77.06,372.36,79.9Zm-7.52,0a13.92,13.92,0,0,0,.35,3.87c.23.7.62,1,1.18,1s.95-.36,1.18-1.08a14.48,14.48,0,0,0,.35-3.84,14.6,14.6,0,0,0-.35-3.86c-.24-.74-.63-1.11-1.18-1.11s-.95.36-1.18,1.07A14.18,14.18,0,0,0,364.84,79.9Z"/><path class="cls-3" d="M75.48,84.17H70.93V75.39c0-1.07,0-2,.07-2.93a10.24,10.24,0,0,1-1,1.07l-1.89,1.55-2.32-2.86,5.69-4.64h4Z"/><path class="cls-3" d="M79.39,82.29A2,2,0,0,1,80,80.68a2.56,2.56,0,0,1,1.8-.57,2.41,2.41,0,0,1,1.72.57,2.1,2.1,0,0,1,.6,1.61,2,2,0,0,1-.62,1.59,2.37,2.37,0,0,1-1.7.58A2.58,2.58,0,0,1,80,83.89,2,2,0,0,1,79.39,82.29Z"/><path class="cls-3" d="M92.67,73.3a5,5,0,0,1,2.58.67A4.61,4.61,0,0,1,97,75.84a5.91,5.91,0,0,1,.64,2.81A5.41,5.41,0,0,1,96,82.91a7.47,7.47,0,0,1-5.07,1.49,10.77,10.77,0,0,1-4.74-.9V79.83a12.13,12.13,0,0,0,2.23.75,9.83,9.83,0,0,0,2.14.29,3,3,0,0,0,1.91-.53,1.85,1.85,0,0,0,.67-1.56,1.75,1.75,0,0,0-.68-1.48,3.27,3.27,0,0,0-2.06-.54,7.21,7.21,0,0,0-2.28.4l-1.65-.82.62-8.76h9.47v3.74H90.92l-.21,2.19A8.93,8.93,0,0,1,92,73.32Z"/><path class="cls-3" d="M106.14,84.4a6.35,6.35,0,0,1-4.79-1.7,6.84,6.84,0,0,1-1.63-4.89,6.7,6.7,0,0,1,1.76-5,6.78,6.78,0,0,1,5-1.76,9.39,9.39,0,0,1,4.21,1l-1.31,3.28a15,15,0,0,0-1.49-.56,4.72,4.72,0,0,0-1.41-.21,1.92,1.92,0,0,0-1.67.84,4.11,4.11,0,0,0-.59,2.37q0,3.09,2.28,3.09a6.92,6.92,0,0,0,3.74-1.13v3.53A7.31,7.31,0,0,1,106.14,84.4Z"/><path class="cls-3" d="M122,84.17l-.55-1.6h-.26a3.67,3.67,0,0,1-1.55,1.36,5.44,5.44,0,0,1-2.33.47A4.38,4.38,0,0,1,114,83.17a4.85,4.85,0,0,1-1.18-3.48V71.32h4.44v7a4,4,0,0,0,.36,1.91,1.23,1.23,0,0,0,1.17.64,1.72,1.72,0,0,0,1.64-.9,7,7,0,0,0,.48-3V71.32h4.44V84.17Z"/><path class="cls-3" d="M136.09,84.4a4,4,0,0,1-3.28-1.49h-.2c.13.9.2,1.46.2,1.68v5.17h-4.43V71.32H132l.63,1.63h.2a3.91,3.91,0,0,1,3.42-1.86,3.85,3.85,0,0,1,3.35,1.77,8.48,8.48,0,0,1,1.21,4.86,8.28,8.28,0,0,1-1.27,4.89A4,4,0,0,1,136.09,84.4Zm-1.48-9.83a1.45,1.45,0,0,0-1.37.7,4.71,4.71,0,0,0-.43,2.07v.35a4.8,4.8,0,0,0,.45,2.4,1.5,1.5,0,0,0,1.39.73,1.3,1.3,0,0,0,1.24-.73,5.66,5.66,0,0,0,.38-2.42,5.51,5.51,0,0,0-.38-2.38A1.35,1.35,0,0,0,134.61,74.57Z"/><path class="cls-3" d="M153.25,80.22a3.64,3.64,0,0,1-1.41,3.12,6.59,6.59,0,0,1-4,1.06,17.83,17.83,0,0,1-2.48-.15,10.47,10.47,0,0,1-2.16-.57V80.13a13.73,13.73,0,0,0,2.27.75,9.36,9.36,0,0,0,2.19.3q1.44,0,1.44-.66a.74.74,0,0,0-.4-.61,19.06,19.06,0,0,0-2.34-1,5.8,5.8,0,0,1-2.48-1.65,3.74,3.74,0,0,1-.7-2.34,3.23,3.23,0,0,1,1.38-2.79,6.6,6.6,0,0,1,3.92-1,9.67,9.67,0,0,1,2.39.28,13.42,13.42,0,0,1,2.32.81L151.94,75a13.33,13.33,0,0,0-1.87-.68,6.46,6.46,0,0,0-1.61-.28c-.73,0-1.09.18-1.09.54a.67.67,0,0,0,.38.56,23.44,23.44,0,0,0,2.2.95,8.17,8.17,0,0,1,2,1.09,3.27,3.27,0,0,1,1,1.25A4.38,4.38,0,0,1,153.25,80.22Z"/></g></g></svg>