<svg xmlns="http://www.w3.org/2000/svg" viewBox="0 0 176.06 131.21"><defs><style>.cls-1{fill:#e6e6e6;}.cls-2{fill:none;}.cls-3{fill:#c9793d;}.cls-4{fill:#f2f2f2;}.cls-5{fill:#0c0f1b;}</style></defs><title>beagle-body2</title><g id="Layer_2" data-name="Layer 2"><g id="beagle1"><path class="cls-1" d="M169.84,48.71c.12,1.95,1.57,19.2-10.44,29.61-1.18,13.7-3.2,18.08-3.54,22.1-.59,7.17-.76,17.59-.33,20.81,5.34,2.7,5.83,6.85,5.24,10H143.42c-2.62-.35-2.06-6.27-.7-11.61.89-3.49-.32-23.74-6.79-42C140.88,74,165.14,63.34,169.84,48.71Z"/><path class="cls-1" d="M25.88,56.67c-1,2.54,2,21.14,4.9,27.4s.34,17.59-7.61,21.82c-5.92,9-1.86,16.41,0,24.87H45.33c1.86-2.63.56-8-3.86-8.62a10.36,10.36,0,0,0-3.75.33c-1.27.26-8.32-4.26,1.07-14.41S61.63,97.37,63.4,76.94C64.8,70.47,25.88,56.67,25.88,56.67Z"/><path class="cls-2" d="M79.69,40.11c-.07-.16-.13-.31-.19-.47C79.56,39.8,79.62,40,79.69,40.11Z"/><path class="cls-2" d="M79.32,39.15c0-.12-.1-.25-.14-.37C79.22,38.9,79.27,39,79.32,39.15Z"/><path class="cls-2" d="M78.92,38c0-.1,0-.19-.08-.28C78.87,37.82,78.89,37.91,78.92,38Z"/><path class="cls-2" d="M82.16,45.09c-.32-.54-.61-1.07-.88-1.58C81.55,44,81.84,44.55,82.16,45.09Z"/><path class="cls-2" d="M81.1,43.17c-.11-.21-.21-.42-.31-.62C80.89,42.75,81,43,81.1,43.17Z"/><path class="cls-2" d="M80.1,41.09l-.22-.52Z"/><path class="cls-2" d="M78.71,37.27c0-.1,0-.19-.07-.28C78.66,37.08,78.68,37.17,78.71,37.27Z"/><path class="cls-2" d="M44.64,26.65c0-.06-.1-.11-.15-.17S44.6,26.59,44.64,26.65Z"/><path class="cls-2" d="M42.87,25.49l-.27-.09Z"/><path class="cls-2" d="M78.55,36.6a2,2,0,0,1,0-.24A2,2,0,0,0,78.55,36.6Z"/><path class="cls-2" d="M44.92,27.19c0-.06-.06-.11-.08-.17S44.9,27.13,44.92,27.19Z"/><path class="cls-2" d="M78.44,36a.63.63,0,0,1,0-.19A.63.63,0,0,0,78.44,36Z"/><path class="cls-2" d="M78.38,35.53c0-.05,0-.1,0-.14S78.37,35.48,78.38,35.53Z"/><path class="cls-2" d="M43.6,25.8l-.25-.11Z"/><path class="cls-2" d="M95.21,59c-.86-.57-1.69-1.17-2.47-1.79C93.52,57.84,94.35,58.44,95.21,59Z"/><path class="cls-2" d="M92.52,57.05c-.32-.25-.63-.51-.94-.77C91.89,56.54,92.2,56.8,92.52,57.05Z"/><path class="cls-2" d="M96.28,59.69,95.22,59Z"/><path class="cls-2" d="M101.26,62.32l-1.11-.51Z"/><path class="cls-2" d="M91.18,56l-.84-.75Z"/><path class="cls-2" d="M97.82,60.6c-.35-.2-.69-.39-1-.6C97.13,60.21,97.47,60.4,97.82,60.6Z"/><path class="cls-2" d="M82.72,46c-.16-.25-.31-.51-.46-.76C82.41,45.51,82.56,45.77,82.72,46Z"/><path class="cls-2" d="M99.49,61.49l-1.06-.55Z"/><path class="cls-2" d="M85.12,49.51l-.59-.8Z"/><path class="cls-2" d="M84.25,48.32c-.19-.26-.36-.51-.53-.76C83.89,47.81,84.06,48.06,84.25,48.32Z"/><path class="cls-2" d="M89.93,54.82c-.27-.25-.54-.5-.8-.76C89.39,54.32,89.66,54.57,89.93,54.82Z"/><path class="cls-2" d="M83.45,47.15c-.17-.25-.34-.5-.49-.75C83.11,46.65,83.28,46.9,83.45,47.15Z"/><path class="cls-2" d="M87.77,52.65c-.87-.94-1.68-1.89-2.42-2.84C86.09,50.76,86.9,51.71,87.77,52.65Z"/><path class="cls-2" d="M88.77,53.7,88,52.9Z"/><path class="cls-2" d="M80.57,42.11l-.27-.57Z"/><path class="cls-2" d="M44,26.05l.21.13Z"/><path class="cls-2" d="M41.11,25l-.27,0Z"/><path class="cls-2" d="M38,24.72h0Z"/><path class="cls-2" d="M39.07,24.79h0Z"/><path class="cls-2" d="M101.93,62.6l1.19.49h0Z"/><path class="cls-2" d="M42,25.24l-.28-.06Z"/><path class="cls-2" d="M40.12,24.9l-.26,0Z"/><path class="cls-3" d="M36.76,40.27c1.59-5.51-.78-11.23-4-15.67l-.39,0a31.32,31.32,0,0,0-4.5,2C14,34.34,8.35,48.88,6.39,56.84c-.77,3.15.55,12.32,2.4,19.67,5.73-2.71,13.45-6.76,17.48-9.08C32.7,63.72,33.71,50.83,36.76,40.27Z"/><path class="cls-4" d="M176.06,7.77,139.78,1.25c.68,12.84-6.57,24.2-2.78,29.66,5.42,7.78,12,23.68-.52,37.72-7.44,7-23.15.6-33.35-5.53h0l-1.19-.49-.67-.28-1.11-.51-.66-.32-1.06-.55-.61-.34c-.35-.2-.69-.39-1-.6l-.51-.31L95.22,59h0c-.86-.57-1.69-1.17-2.47-1.79l-.22-.17c-.32-.25-.63-.51-.94-.77l-.4-.33-.84-.75-.41-.38c-.27-.25-.54-.5-.8-.76l-.36-.36L88,52.9l-.22-.25c-.87-.94-1.68-1.89-2.42-2.84l-.23-.3-.59-.8-.28-.39c-.19-.26-.36-.51-.53-.76a4.81,4.81,0,0,1-.27-.41c-.17-.25-.34-.5-.49-.75L82.72,46c-.16-.25-.31-.51-.46-.76a1,1,0,0,1-.1-.17c-.32-.54-.61-1.07-.88-1.58l-.18-.34c-.11-.21-.21-.42-.31-.62s-.15-.3-.22-.44l-.27-.57c-.06-.15-.13-.3-.2-.45l-.22-.52-.19-.46c-.07-.16-.13-.31-.19-.47l-.18-.49c0-.12-.1-.25-.14-.37L78.92,38c0-.1,0-.19-.08-.28s-.09-.32-.13-.46,0-.19-.07-.28-.07-.26-.09-.39a2,2,0,0,1,0-.24,2.21,2.21,0,0,1-.06-.34.63.63,0,0,1,0-.19,1.69,1.69,0,0,1,0-.3c0-.05,0-.1,0-.14s0-.24,0-.33c.38-3.17.76-13.58-4.18-14.85S68.1,25.54,56.68,33s-11.8-.25-11.67-5.2a2.2,2.2,0,0,0-.09-.64c0-.06-.06-.11-.08-.17a1.65,1.65,0,0,0-.2-.37c0-.06-.1-.11-.15-.17a4,4,0,0,0-.29-.3L44,26.05a3.73,3.73,0,0,0-.39-.25l-.25-.11c-.15-.07-.31-.14-.48-.2l-.27-.09L42,25.24l-.28-.06L41.11,25l-.27,0-.72-.1-.26,0-.79-.08h-.21L38,24.72h-.12c-1.91-.1-3.79-.07-5.1-.12,3.21,4.44,5.58,10.16,4,15.67-3,10.56-4.06,23.45-10.49,27.16-4,2.32-11.75,6.37-17.48,9.08a48.17,48.17,0,0,0,2.51,7.73c2.88,6.26.15,16.11-7.61,21.82-7.28,7.49-1.86,16.41,0,24.87H25.85c1.86-2.62-.16-7.35-4.57-7.94a18.15,18.15,0,0,0-3-.35C17,122.9,10.62,121.12,20,111s15.23-7,25.63-33.41c21.31,14.21,35.27-5.33,65-2.28,10,1.87,13.63,2.45,14.91,2.35,1.42,6.24,4.88,13.89,5.56,21.16s2.12,17.39,1.22,20.89c-1.36,5.33-1.9,11,.72,11.33h17.78c.59-3.13-1.48-5-3.22-10.23.24-9.82.67-19.46,1-25.46.31-5.4,2.75-13.16,7.19-17.47,15.06-7.48,14.08-21.18,14.21-28.07.16-7.91-1.8-17.13,1.26-23.6S176.06,7.77,176.06,7.77Z"/><path class="cls-5" d="M32.77,24.6l-.39,0,.39,0Z"/><path class="cls-5" d="M96.79,60l-.51-.31Z"/><path class="cls-5" d="M83.72,47.56a4.81,4.81,0,0,1-.27-.41A4.81,4.81,0,0,0,83.72,47.56Z"/><path class="cls-5" d="M42.6,25.4,42,25.24Z"/><path class="cls-5" d="M84.53,48.71l-.28-.39Z"/><path class="cls-5" d="M98.43,60.94l-.61-.34Z"/><path class="cls-5" d="M83,46.4,82.72,46Z"/><path class="cls-5" d="M82.26,45.26a1,1,0,0,1-.1-.17A1,1,0,0,0,82.26,45.26Z"/><path class="cls-5" d="M101.93,62.6l-.67-.28Z"/><path class="cls-5" d="M88,52.9l-.22-.25Z"/><path class="cls-5" d="M85.35,49.81l-.23-.3Z"/><path class="cls-5" d="M89.13,54.06l-.36-.36Z"/><path class="cls-5" d="M91.58,56.28l-.4-.33Z"/><path class="cls-5" d="M90.34,55.2l-.41-.38Z"/><path class="cls-5" d="M95.22,59h0Z"/><path class="cls-5" d="M81.28,43.51l-.18-.34Z"/><path class="cls-5" d="M92.74,57.22l-.22-.17Z"/><path class="cls-5" d="M100.15,61.81l-.66-.32Z"/><path class="cls-5" d="M78.64,37c0-.13-.07-.26-.09-.39C78.57,36.73,78.61,36.86,78.64,37Z"/><path class="cls-5" d="M45,27.83a2.2,2.2,0,0,0-.09-.64A2.2,2.2,0,0,1,45,27.83Z"/><path class="cls-5" d="M44.84,27a1.65,1.65,0,0,0-.2-.37A1.65,1.65,0,0,1,44.84,27Z"/><path class="cls-5" d="M78.84,37.73c0-.16-.09-.32-.13-.46C78.75,37.41,78.8,37.57,78.84,37.73Z"/><path class="cls-5" d="M39.86,24.87l-.79-.08Z"/><path class="cls-5" d="M43.35,25.69c-.15-.07-.31-.14-.48-.2C43,25.55,43.2,25.62,43.35,25.69Z"/><path class="cls-5" d="M78.41,35.83a1.69,1.69,0,0,1,0-.3A1.69,1.69,0,0,0,78.41,35.83Z"/><path class="cls-5" d="M40.84,25l-.72-.1Z"/><path class="cls-5" d="M78.36,35.39c0-.12,0-.24,0-.33C78.36,35.15,78.36,35.27,78.36,35.39Z"/><path class="cls-5" d="M78.5,36.36a2.21,2.21,0,0,1-.06-.34A2.21,2.21,0,0,0,78.5,36.36Z"/><path class="cls-5" d="M38.86,24.78,38,24.72Z"/><path class="cls-5" d="M80.3,41.54c-.06-.15-.13-.3-.2-.45C80.17,41.24,80.24,41.39,80.3,41.54Z"/><path class="cls-5" d="M44,26.05a3.73,3.73,0,0,0-.39-.25A3.73,3.73,0,0,1,44,26.05Z"/><path class="cls-5" d="M44.2,26.18a4,4,0,0,1,.29.3A4,4,0,0,0,44.2,26.18Z"/><path class="cls-5" d="M80.79,42.55c-.08-.15-.15-.3-.22-.44C80.64,42.25,80.71,42.4,80.79,42.55Z"/><path class="cls-5" d="M41.76,25.18,41.11,25Z"/><path class="cls-5" d="M79.88,40.57l-.19-.46Z"/><path class="cls-5" d="M79.5,39.64l-.18-.49Z"/><path class="cls-5" d="M79.18,38.78,78.92,38Z"/><path class="cls-5" d="M32.77,24.6c1.31,0,3.19,0,5.1.12-1.91-.1-3.79-.07-5.1-.12Z"/><path class="cls-2" d="M106.12,64.1c.65.19,1.3.37,2,.54C107.42,64.47,106.76,64.29,106.12,64.1Z"/><path class="cls-2" d="M111.67,65.38c.93.15,1.88.28,2.86.38C113.55,65.66,112.6,65.53,111.67,65.38Z"/><path class="cls-2" d="M108.88,64.83c.65.15,1.31.28,2,.4C110.19,65.11,109.53,65,108.88,64.83Z"/><path class="cls-2" d="M103.12,63.09h0c.78.3,1.59.57,2.41.83C104.71,63.66,103.9,63.39,103.12,63.09Z"/><path class="cls-3" d="M131.32,0a5.1,5.1,0,0,1,1.5,2.55c2.76,11.68-6.11,29.34-11.56,32.13s-5.08,16-.77,22.84.38,9.27-6,8.24c-1-.1-1.93-.23-2.86-.38l-.81-.15c-.67-.12-1.33-.25-2-.4l-.79-.19c-.67-.17-1.32-.35-2-.54l-.59-.18c-.82-.26-1.63-.53-2.41-.83h0c10.2,6.13,25.91,12.52,33.35,5.53,12.5-14,5.94-29.94.52-37.72-3.79-5.46,3.46-16.82,2.78-29.66l-7-1.25Z"/><path class="cls-5" d="M121.26,34.68c5.45-2.79,14.32-20.45,11.56-32.13A5.1,5.1,0,0,0,131.32,0h-.25a23.34,23.34,0,0,0-5.56,1.12c-8.75,2.68-20.61,9.26-23.2,10.21-2.94,1.09-51.06,6.41-69.93,13.25l.39,0c1.31,0,3.19,0,5.1.12H38l.87.06h.21l.79.08.26,0,.72.1.27,0,.65.14.28.06.56.16.27.09c.17.06.33.13.48.2l.25.11a3.73,3.73,0,0,1,.39.25l.21.13a4,4,0,0,1,.29.3c0,.06.11.11.15.17a1.65,1.65,0,0,1,.2.37c0,.06.06.11.08.17a2.2,2.2,0,0,1,.09.64c-.13,5,.25,12.68,11.67,5.2S69.24,18.94,74.19,20.21s4.22,10.27,4.18,14.85c0,2.07,5.08,27.26,36.16,30.7,6.34,1,10.28-1.39,6-8.24S115.8,37.47,121.26,34.68Z"/><path class="cls-5" d="M108.09,64.64l.79.19Z"/><path class="cls-5" d="M105.53,63.92l.59.18Z"/><path class="cls-5" d="M110.86,65.23l.81.15Z"/></g></g></svg>