<svg xmlns="http://www.w3.org/2000/svg" viewBox="0 0 118.91 160.01"><defs><style>.cls-1{fill:#e6e6e6;}.cls-2{fill:#c9793d;}.cls-3{fill:none;}.cls-4{fill:#f2f2f2;}.cls-5{fill:#b76730;}.cls-6{fill:#fff;}</style></defs><title>beagle-body</title><g id="Layer_2" data-name="Layer 2"><g id="beagle1"><path class="cls-1" d="M19.48,30.11c-3.76,3.44-6.15,44.45-5.8,57.14,0,.71,0,1.33.08,1.85a4.19,4.19,0,0,1-.9,2.92c-3,3.8-11.15,17.35-5.39,47.19A4.47,4.47,0,0,1,7,142.16c-1.11,2-2.16,6.13,5.26,8.59a4.85,4.85,0,0,1,3.26,3.41c.47,1.9,1.62,4.18,4.46,4.47,3.05.31,9.43.24,13.91.14a4.79,4.79,0,0,0,4.87-4.58v-3.44c0-3.25,3.58-5.45,6.88-4.23,6.85,2.52,17.84,5.19,28.46,1.89,3.25-1,6.63,1.18,6.63,4.32h0A4.59,4.59,0,0,0,83.78,157c4.83,1.88,14.14,4.4,18.7-1.79a5.13,5.13,0,0,1,4.87-1.85c2.61.39,6,.48,7.59-1.26,1.79-2-.37-5.43-2.11-7.62-1-1.26-3.66-2.17-3-3.62,2.81-6.42,10.73-24.79-2.66-55.3A35.38,35.38,0,0,1,106,81.83l-10.18-55c0-.47-2.55-4.13-2.75-4.56C93.09,22.3,23.35,26.56,19.48,30.11Z"/><path class="cls-2" d="M14,90l10.24,57.63L15,153s-11.14-3.55-10.34-7.21S-.19,100.61,14,90Z"/><path class="cls-2" d="M104.57,81.5,91.23,152,102.5,158s14.62-3.6,13.58-8.07S123.11,94.54,104.57,81.5Z"/><path class="cls-1" d="M11.74,141.9c-5.54,0-10.21,4.33-11.67,10.25a2.21,2.21,0,0,0,2,2.84H21.42a2.21,2.21,0,0,0,2-2.84C21.94,146.23,17.27,141.9,11.74,141.9Z"/><path class="cls-1" d="M107.17,143.9c-5.53,0-10.2,4.33-11.66,10.25a2.2,2.2,0,0,0,2,2.83h19.37a2.2,2.2,0,0,0,2-2.83C117.37,148.23,112.71,143.9,107.17,143.9Z"/><path class="cls-3" d="M99.84,50.87a31,31,0,0,0-2.15-5.14,214,214,0,0,1,6,31.21C103,67.57,102,57.73,99.84,50.87Z"/><path class="cls-4" d="M104.27,84.31c0-.49,0-1-.07-1.49-.15-1.91-.3-3.88-.46-5.88a214,214,0,0,0-6-31.21c-4.25-8-11-18.37-12.82-30.57C77.06,10.56,63.69,0,55.35,0,45.46,0,36.63,8.77,30.64,12c-1.25,9.12-1.58,22.91-5.17,27.78L23.06,42,17.7,46.8l-5,47.53S15,144.76,15,153s11.38,5.88,17.08,5.83,6.44-3.32,6.44-3.32l3.08-39.18C42.18,101.07,52.84,93,59.57,93s16.65,7.5,17.74,22.84l4.23,39.57s.75,3.37,6.44,3.42,17.09,2.45,17.08-6,1.37-69.45,1.37-69.45Z"/><path class="cls-5" d="M33.2,7.14c-12,10.16-18.51,27-21.46,47.41C10.09,66,12.27,96.27,13,100.46c2.36-10.7,2.24-36.4,6.45-49.59a36.66,36.66,0,0,1,6-11.1c3.59-4.87,7.3-9.32,8.56-18.44.06-.44.12-.89.16-1.36C35.46,8,33.2,7.14,33.2,7.14Z"/><path class="cls-5" d="M104.2,82.82c-.1-1.93-.25-3.9-.46-5.88C103.9,78.94,104.05,80.91,104.2,82.82Z"/><path class="cls-5" d="M105.45,50.87c-3-20.45-12.36-28.57-19-40.14,0,0-2.62-2.78-1.35,9.24.07.62.15,1.21.24,1.8,1.81,12.19,8.1,15.92,12.35,24a31,31,0,0,1,2.15,5.14c2.19,6.86,3.15,16.7,3.9,26.07.21,2,.36,4,.46,5.88A133.68,133.68,0,0,0,106.08,99C107.07,90.7,107.1,62.27,105.45,50.87Z"/><path class="cls-6" d="M28.58,145.63a15.43,15.43,0,0,0-14.84,11,2.46,2.46,0,0,0,2.52,3.05H40.91a2.45,2.45,0,0,0,2.51-3.05A15.42,15.42,0,0,0,28.58,145.63Z"/><path class="cls-6" d="M92.24,145.93A15.42,15.42,0,0,0,77.4,157a2.45,2.45,0,0,0,2.52,3h24.65a2.45,2.45,0,0,0,2.51-3A15.42,15.42,0,0,0,92.24,145.93Z"/></g></g></svg>