<svg xmlns="http://www.w3.org/2000/svg" viewBox="0 0 130.03 116.64"><defs><style>.cls-1{fill:#c9793d;}.cls-2{fill:#fff;}.cls-3{fill:none;stroke:#0f1110;stroke-linecap:round;stroke-linejoin:round;stroke-width:1.35px;}.cls-4{fill:#0f1110;}.cls-5{fill:#603813;}</style></defs><title>beagle-head</title><g id="Layer_2" data-name="Layer 2"><g id="beagle1"><path class="cls-1" d="M87.77,3.09C60.13-6.5,40.64,8.34,30.27,19c-3.67,3.78.42,7.16,1.88,12.49a35.36,35.36,0,0,1,.66,14.73A67.21,67.21,0,0,0,32,55,32,32,0,0,1,29.3,66.77l-.27.66C24.52,78.6,30.5,90,41.66,94.47c2.91,1.17,5.36,3,8.28,2.91,2.06,2.12,5,2.46,7.9,3.64,11.17,4.51,21.72,3.28,28-3.23,4.51-16.25,12.88-19.08,18.94-28.3,5.34-7.71,13.48-13.51,14.06-18.77A45.84,45.84,0,0,0,87.77,3.09Z"/><path class="cls-2" d="M76.38,74.06c-1.27-2.11-1.7-4.6-2.32-7,.06-.14.12-.27.17-.41L84.58,37.94a9.7,9.7,0,0,0-5.84-12.41h0a9.69,9.69,0,0,0-12.41,5.83L56.14,59.62c-2.36,1.6-4.47,3.63-7.16,4.56"/><path class="cls-2" d="M54.78,101.3C85.67,113.73,89.88,92.76,87,85.83c-3.33-8-.6-12.28-3-18.35-.72-2.92-5.38-9.91-7.78-16.27-2-5.41-6-6.82-11.33-4.19-6.1,3-16.18,6.13-18.62,7.89-9.12,5.64-9.75,11.44-12.64,13.61s-18.73,17,15,30.54Z"/><path class="cls-3" d="M60.85,72.27,56.49,83.05c.69,2,7.37,9.25,10.57,11.88"/><path class="cls-3" d="M60.85,72.27,56.49,83.05c-1.86,1-11.71,1.54-15.85,1.21"/><path class="cls-4" d="M68.84,71.45c-1.4,3.48-6.55,6.88-10.56,5.26s-5.35-7.64-3.94-11.12,5-3.1,9-1.48S70.25,68,68.84,71.45Z"/><path class="cls-5" d="M63.58.1C49.36-1.43,19.78,14.24,6.9,32.42a27.82,27.82,0,0,0-4,7.62C-.93,61.28-1.93,79.89,6,84.83S29.11,81,34.06,70.6s3.52-38.87,8.79-46.3C48,17.09,48,17.39,51.14,12.55,54.4,8.16,59.36.94,63.58.1Z"/><path class="cls-5" d="M105.84,14.24c6.47,2.47,26.63,35.45,23.94,57.32-.48,27-5.58,44.65-16.82,45.07-9.33.35-18-15-17.06-26.44s12-37,11.25-46-.32-18.13-.58-23.87A26.85,26.85,0,0,0,105.84,14.24Z"/><path class="cls-4" d="M94.45,56.84c-.2-5.38-7.76-11.43-12.91-3.56C84,60.52,91.05,61.35,94.45,56.84Z"/><circle class="cls-2" cx="91.28" cy="53.38" r="1.06"/><path class="cls-4" d="M45.58,40c2.84-4.58,12.47-5.38,13,4C52.93,49.08,46.3,45.59,45.58,40Z"/><circle class="cls-2" cx="55.71" cy="40.66" r="1.06"/></g></g></svg>