<svg xmlns="http://www.w3.org/2000/svg" viewBox="0 0 84.49 71.05"><defs><style>.cls-1{fill:#c9793d;}.cls-2{fill:#fff;}.cls-3{fill:#0f1110;}.cls-4{fill:#603813;}.cls-5{fill:#cb6853;}.cls-6{fill:none;stroke:#0f1110;stroke-linecap:round;stroke-linejoin:round;stroke-width:1.35px;}</style></defs><title>beagle-head2</title><g id="Layer_2" data-name="Layer 2"><g id="beagle1"><path class="cls-1" d="M30.52.28C10.7,2.84,3.3,17.85.2,27.53c-1.09,3.42,2.44,4.24,5,7.06a24.22,24.22,0,0,1,4.89,8.8A47.37,47.37,0,0,0,12.24,49a21.74,21.74,0,0,1,1.92,8l0,.49c.65,8.2,7.76,13.32,16,12.68,2.14-.17,4.2.22,6-.74,1.91.67,3.8,0,5.94-.18,8.2-.64,14.28-4.6,16.13-10.49-2.19-11.32,2.06-15.6,3-23.08C62.05,29.37,65.26,23.35,64,20A31.31,31.31,0,0,0,30.52.28Z"/><path class="cls-2" d="M45.16,47.15a17.27,17.27,0,0,1-3.55-3.59c0-.1,0-.19,0-.29l-2.41-20.7a6.62,6.62,0,0,0-7.35-5.81h0A6.62,6.62,0,0,0,26,24.1l2.37,20.38c-.95,1.7-1.62,3.59-3,5"/><path class="cls-2" d="M40.25,70.38c22.68-1.8,18.87-15.9,15-19.27-4.48-3.91-4.1-7.32-7.39-10.32-1.33-1.57-6.31-4.43-9.72-7.58-2.89-2.69-5.72-2.35-8.19.89-2.82,3.69-8,8.67-9,10.49-3.86,6.23-2.48,10-3.59,12.18s-6.28,16.06,18.5,14.09Z"/><path class="cls-3" d="M39.76,44.45c.2,2.56-1.91,6.21-4.85,6.44s-5.6-3-5.8-5.6,2.13-3.43,5.07-3.66S39.56,41.9,39.76,44.45Z"/><path class="cls-4" d="M45,1.6C49.67,1.14,72,15.17,77.06,29.36,85,46,87.25,58.36,80.5,62c-5.6,3.06-15.58-3.67-18.49-11s-3.89-26.28-7.14-31.58-5.71-11-7.62-14.42A18.35,18.35,0,0,0,45,1.6Z"/><path class="cls-3" d="M51,31.12c-1.76-3.23-8.22-4.62-9,1.75C45.68,36.57,50.27,34.91,51,31.12Z"/><circle class="cls-2" cx="47.98" cy="29.97" r="0.73"/><path class="cls-3" d="M16,35.69c.34-3.66,6-7.09,9.18-1.53C23.22,39,18.1,38.9,16,35.69Z"/><circle class="cls-2" cx="22.36" cy="33.02" r="0.73"/><path class="cls-5" d="M37.76,66.84c-2.56.33-4.59-1.72-4.91-4.55a35.55,35.55,0,0,1,.22-5.65,6.72,6.72,0,0,0,2.68-2.7,21.28,21.28,0,0,0,4,2.09,15.77,15.77,0,0,1,1.28,5.39C41.06,64.39,40.06,66.54,37.76,66.84Z"/><path class="cls-6" d="M35.13,46.24l.62,7.92a10,10,0,0,0,10.73,1.6"/><path class="cls-6" d="M35.13,46.24l.62,7.92A9.25,9.25,0,0,1,26,58.21"/></g></g></svg>