<svg xmlns="http://www.w3.org/2000/svg" viewBox="0 0 128.68 142.15"><defs><style>.cls-1{fill:#c9793d;}.cls-2{fill:#fff;}.cls-3{fill:#0f1110;}.cls-4{fill:#603813;}.cls-5{fill:#cb6853;}.cls-6,.cls-8{fill:none;}.cls-6{stroke:#0f1110;stroke-linecap:round;stroke-linejoin:round;stroke-width:1.85px;}.cls-7{fill:#d33737;}.cls-9{fill:#fcc062;}</style></defs><title>beagle-complete</title><g id="Layer_2" data-name="Layer 2"><g id="beagle1"><path class="cls-1" d="M61.59,39.26C33.85,39.9,21.47,59,15.79,71.63c-2,4.45,2.76,6.05,5.83,10.2A32.28,32.28,0,0,1,27.1,94.36a60.07,60.07,0,0,0,2.21,7.88,28.65,28.65,0,0,1,1.49,11l0,.66c-.3,11.12,8.78,19,20.2,19.3,3,.08,5.76.88,8.32-.15,2.53,1.16,5.25.51,8.23.59,11.41.29,16.28-1.3,23-6.89,6.24-11,5.88-25.63,8.2-35.58,2.19-8.39,7.49-16,6.26-20.79C101.17,55.7,85.89,38.69,61.59,39.26Z"/><path class="cls-2" d="M74.72,104.36C73,103,71.84,100.93,70.55,99c0-.13,0-.26,0-.4l-.34-28.17a8.85,8.85,0,0,0-8.84-8.86h0a8.84,8.84,0,0,0-8.63,9.05l.33,27.75c-1.47,2.15-2.62,4.59-4.6,6.26"/><path class="cls-2" d="M89.31,113.47c-2-2.87-.52-8.19-7.22-16.17-1.71-2.35-10.22-8.42-15-13.09a9.53,9.53,0,0,0-5.8-3,9.53,9.53,0,0,0-5.8,3C50.75,88.88,42.24,95,40.53,97.3c-6.7,8-5.22,13.3-7.22,16.17s-11.83,21.11,25.28,22H64C101.14,134.58,91.3,116.34,89.31,113.47Z"/><path class="cls-3" d="M68.44,99.74c0,3.47-3.29,8.18-7.39,8.2s-7.43-4.66-7.45-8.12,3.3-4.42,7.4-4.44S68.43,96.28,68.44,99.74Z"/><path class="cls-4" d="M81.35,43.06c6.56,0,35.42,22.06,40.3,41.85,8.55,23.55,9.87,40.45,0,44.45-8.17,3.32-21-7.14-23.94-17.37s-1.58-35.88-5.3-43.47S86.13,52.93,84,48.05A24.29,24.29,0,0,0,81.35,43.06Z"/><path class="cls-5" d="M62,129.8c-3.58.08-6.1-3-6.12-6.81A47.11,47.11,0,0,1,57,115.41c2.28-.65,4.08-3.26,4.08-3.26a29.6,29.6,0,0,0,5.27,3.39,20.91,20.91,0,0,1,1,7.43C66.88,127,65.19,129.72,62,129.8Z"/><path class="cls-6" d="M61.31,101.72,61,112.46a14.17,14.17,0,0,0,14.6,3.66"/><path class="cls-6" d="M61.31,101.72,61,112.46a13,13,0,0,1-14,4.07"/><path class="cls-4" d="M40.21,44.28C27.09,47.63,6.31,71.5,1,91.43a25.55,25.55,0,0,0-1,7.9C2.13,120,6.55,134.38,15.24,136.05s19.19-10.92,20.08-21.51S27.84,80.12,30,72c2.1-7.91,2.24-7.67,3.38-12.87C34.8,54.25,36.76,46.39,40.21,44.28Z"/><path class="cls-7" d="M45.18,75.46a4.59,4.59,0,0,0-3.54,5.45,4.6,4.6,0,0,0-9,1.92c1.68,7.85,11.32,9,11.32,9S52.31,86.91,50.63,79A4.6,4.6,0,0,0,45.18,75.46Z"/><path class="cls-7" d="M77.88,75.2a4.59,4.59,0,0,1,3.53,5.45,4.6,4.6,0,1,1,9,1.92c-1.68,7.85-11.32,9-11.32,9s-8.34-5-6.66-12.86A4.6,4.6,0,0,1,77.88,75.2Z"/><rect class="cls-8" x="0.11" width="128.57" height="142.15"/><polygon class="cls-9" points="64.4 3.26 68.87 12.32 78.86 13.77 71.63 20.82 73.34 30.77 64.4 26.07 55.46 30.77 57.17 20.82 49.94 13.77 59.93 12.32 64.4 3.26"/></g></g></svg>