<svg xmlns="http://www.w3.org/2000/svg" viewBox="0 0 273.39 128.42"><defs><style>.cls-1{fill:none;stroke:#79ad84;stroke-linecap:round;stroke-linejoin:round;stroke-width:2.24px;}.cls-2{isolation:isolate;}.cls-3{fill:#f6c16a;}.cls-4{fill:#ffda6f;}.cls-5{fill:#79ad84;}</style></defs><title>brush-frequency</title><g id="Layer_2" data-name="Layer 2"><g id="Layer_1-2" data-name="Layer 1"><line class="cls-1" x1="17.49" y1="100.19" x2="250.08" y2="100.19"/><g class="cls-2"><path d="M16.29,121.17a4.19,4.19,0,0,1-1.21,3.24,4.9,4.9,0,0,1-3.47,1.13H9.18V117h2.69a4.52,4.52,0,0,1,3.26,1.11A4.09,4.09,0,0,1,16.29,121.17Zm-1.89,0c0-1.84-.81-2.76-2.44-2.76H11V124h.78C13.53,124,14.4,123.1,14.4,121.22Z"/><path d="M22.08,125.54l-.34-.89h0a2.62,2.62,0,0,1-.93.78,2.93,2.93,0,0,1-1.24.22,2,2,0,0,1-1.49-.54,2.07,2.07,0,0,1-.54-1.53,1.72,1.72,0,0,1,.73-1.54,4.28,4.28,0,0,1,2.2-.55l1.14,0v-.29a.9.9,0,0,0-1-1,4.61,4.61,0,0,0-1.85.48l-.59-1.21a5.37,5.37,0,0,1,2.51-.59,3.14,3.14,0,0,1,2,.57,2.14,2.14,0,0,1,.7,1.75v4.37Zm-.52-3-.69,0a2.23,2.23,0,0,0-1.17.29.88.88,0,0,0-.38.78c0,.5.29.76.87.76a1.34,1.34,0,0,0,1-.36,1.27,1.27,0,0,0,.38-.95Z"/><path d="M25.1,117.29c0-.58.32-.87,1-.87s1,.29,1,.87a.85.85,0,0,1-.24.65,1,1,0,0,1-.73.23C25.42,118.17,25.1,117.88,25.1,117.29ZM27,125.54H25.17V119H27Z"/><path d="M30.62,125.54H28.83v-9.12h1.79Z"/><path d="M31.56,119h2l1.23,3.68a4.91,4.91,0,0,1,.22,1.14h0a5.26,5.26,0,0,1,.26-1.14L36.47,119h1.91l-2.77,7.38a3.15,3.15,0,0,1-1.08,1.54,2.74,2.74,0,0,1-1.65.51,4,4,0,0,1-.91-.1V126.9a3.06,3.06,0,0,0,.7.08,1.29,1.29,0,0,0,.83-.29,1.88,1.88,0,0,0,.55-.88l.11-.32Z"/></g><g class="cls-2"><path d="M123.44,125.54h-2.07l-1.16-4.5c0-.16-.12-.5-.22-1s-.16-.84-.18-1a10.24,10.24,0,0,1-.18,1c-.09.46-.16.8-.21,1l-1.16,4.49H116.2L114,117h1.78l1.1,4.67c.19.87.33,1.62.41,2.25,0-.22.08-.57.17-1s.16-.82.23-1.08L119,117h1.72l1.25,4.8c0,.21.12.54.2,1s.15.82.19,1.14c0-.31.1-.69.19-1.14s.16-.82.23-1.11l1.09-4.67h1.79Z"/><path d="M129.52,125.65a3.38,3.38,0,0,1-2.47-.87,3.28,3.28,0,0,1-.89-2.47,3.64,3.64,0,0,1,.82-2.55,2.94,2.94,0,0,1,2.28-.9,2.89,2.89,0,0,1,2.16.79,3,3,0,0,1,.77,2.19v.87H128a1.71,1.71,0,0,0,.45,1.18,1.56,1.56,0,0,0,1.18.43,5,5,0,0,0,1.12-.12,5.4,5.4,0,0,0,1.1-.39v1.38a4.08,4.08,0,0,1-1,.35A6.78,6.78,0,0,1,129.52,125.65Zm-.25-5.52a1.12,1.12,0,0,0-.89.36,1.63,1.63,0,0,0-.37,1h2.51a1.52,1.52,0,0,0-.35-1A1.16,1.16,0,0,0,129.27,120.13Z"/><path d="M136.61,125.65a3.37,3.37,0,0,1-2.47-.87,3.28,3.28,0,0,1-.89-2.47,3.64,3.64,0,0,1,.82-2.55,2.94,2.94,0,0,1,2.28-.9,2.89,2.89,0,0,1,2.16.79,3,3,0,0,1,.77,2.19v.87h-4.22a1.71,1.71,0,0,0,.45,1.18,1.56,1.56,0,0,0,1.18.43,5,5,0,0,0,1.12-.12,5.4,5.4,0,0,0,1.1-.39v1.38a4.08,4.08,0,0,1-1,.35A6.85,6.85,0,0,1,136.61,125.65Zm-.25-5.52a1.12,1.12,0,0,0-.89.36,1.63,1.63,0,0,0-.37,1h2.51a1.52,1.52,0,0,0-.35-1A1.16,1.16,0,0,0,136.36,120.13Z"/><path d="M142.45,122l.78-1,1.83-2h2l-2.6,2.85,2.76,3.71h-2.06l-1.89-2.66-.77.62v2h-1.79v-9.12h1.79v4.06l-.09,1.49Z"/><path d="M150,125.54h-1.78v-9.12H150Z"/><path d="M150.9,119h2l1.23,3.69a4.91,4.91,0,0,1,.22,1.14h0a4.62,4.62,0,0,1,.25-1.14l1.21-3.69h1.92L155,126.37a3.23,3.23,0,0,1-1.09,1.54,2.74,2.74,0,0,1-1.65.51,4.61,4.61,0,0,1-.91-.1V126.9a3.13,3.13,0,0,0,.7.08,1.27,1.27,0,0,0,.83-.29,2,2,0,0,0,.56-.88l.1-.32Z"/></g><g class="cls-2"><path d="M227.88,125.54l-2.06-6.73h-.06c.08,1.37.11,2.28.11,2.74v4h-1.62V117h2.47l2,6.55h0l2.15-6.55h2.47v8.57h-1.69v-4.06c0-.19,0-.41,0-.66s0-.92.07-2h-.05l-2.21,6.71Z"/><path d="M241.38,122.25a3.49,3.49,0,0,1-.85,2.5,3,3,0,0,1-2.34.9,3.36,3.36,0,0,1-1.67-.41,2.78,2.78,0,0,1-1.11-1.19,4,4,0,0,1-.38-1.8,3.56,3.56,0,0,1,.83-2.5,3.11,3.11,0,0,1,2.36-.89,3.32,3.32,0,0,1,1.66.41,2.75,2.75,0,0,1,1.11,1.18A3.92,3.92,0,0,1,241.38,122.25Zm-4.53,0a2.76,2.76,0,0,0,.32,1.47,1.14,1.14,0,0,0,1,.5,1.13,1.13,0,0,0,1-.5,2.77,2.77,0,0,0,.31-1.47,2.61,2.61,0,0,0-.32-1.46,1.33,1.33,0,0,0-2.06,0A2.61,2.61,0,0,0,236.85,122.25Z"/><path d="M248.9,125.54h-1.79v-3.83a1.8,1.8,0,0,0-.25-1.06.89.89,0,0,0-.8-.36,1.2,1.2,0,0,0-1.08.5,3,3,0,0,0-.34,1.66v3.09h-1.78V119h1.36l.24.84h.1a2,2,0,0,1,.82-.72,2.86,2.86,0,0,1,1.2-.24,2.28,2.28,0,0,1,1.73.62,2.5,2.5,0,0,1,.59,1.78Z"/><path d="M253.5,124.23a3.85,3.85,0,0,0,1.13-.21v1.33a4,4,0,0,1-1.64.3,2,2,0,0,1-1.57-.54,2.39,2.39,0,0,1-.48-1.63v-3.15h-.86v-.76l1-.6.52-1.38h1.14V119h1.84v1.35h-1.84v3.15a.68.68,0,0,0,.22.57A.84.84,0,0,0,253.5,124.23Z"/><path d="M262,125.54h-1.79v-3.83c0-.95-.35-1.42-1-1.42a1.21,1.21,0,0,0-1.09.51,3.14,3.14,0,0,0-.33,1.65v3.09H256v-9.12h1.79v1.86c0,.14,0,.48,0,1l0,.53h.09a2.07,2.07,0,0,1,1.9-1,2.33,2.33,0,0,1,1.75.62,2.47,2.47,0,0,1,.6,1.78Z"/><path d="M265.62,125.54h-1.78v-9.12h1.78Z"/><path d="M266.56,119h2l1.24,3.69a5.54,5.54,0,0,1,.21,1.14h0a4.62,4.62,0,0,1,.25-1.14l1.21-3.69h1.92l-2.77,7.39a3.23,3.23,0,0,1-1.09,1.54,2.74,2.74,0,0,1-1.65.51,4.61,4.61,0,0,1-.91-.1V126.9a3.15,3.15,0,0,0,.71.08,1.26,1.26,0,0,0,.82-.29,1.89,1.89,0,0,0,.56-.88l.1-.32Z"/></g><path class="cls-3" d="M245.6,42.85s2.59,5.52,11.89,9.15c2.39.93,5,3.21,6.32,9.76,1,5.07.66,10.88-3.33,13.58-7.89,5.34-16.39,6.4-22.31,1.45-2.48-2.08-3.88-8.06-4.29-11.08-.69-5.13-.68-10.37,2.36-14.61,0,0,.9,9.28,3.44,9.43,0,0-1.87-6.79.67-9.94,0,0,2.93,1.71,2.93,4.7C243.28,55.29,244,46.32,245.6,42.85Z"/><path class="cls-4" d="M250.69,56.19s3.69,10-.43,15.17c0,0,6.5-2.6,6.07-4.55l-.22,3.47,2.17-2.82,1.73,1.3s1.08-13.22-5.85-15c0,0,2.38,3.46,1.08,6.28Z"/><path class="cls-3" d="M122.24,48.75s5.79,8.6,23-.75,16.27,16.27,15.15,19.26-6.36,14-14.4,5.43c0,0-21.32,7.85-27.87,2.06s-6.55-17.77-3-22.08c0,0-.19,5,2.43,6A14.93,14.93,0,0,1,122.24,48.75Z"/><path class="cls-4" d="M140.69,56.2s5.79,8.61,5.65,10.36c0,0,1.48-8.34,4.58-2.15V60.64s2.42,3.77,3,3.63.67-5.38-4.17-10.49c0,0-3.64-1.35-3.64-.54s2,3.36,2,3.36l-3.77-1.21,1.08,1.75Z"/><path class="cls-4" d="M121.35,70.49s7.42-7.25,9.16-7.43c0,0-8.47,0-2.94-4.11l-3.71.68s3.27-3.07,3-3.57-5.42.31-9.57,6c0,0-.66,3.82.13,3.67s2.94-2.59,2.94-2.59l-.51,3.92,1.53-1.37Z"/><path class="cls-3" d="M38.72,52s-8.47-17.3-19-10.64-8.35,13.18-8.35,13.18l-1.09-.12s-1,5.44-1,6.77-2.17-3-2.17-3A18.86,18.86,0,0,0,5.82,65.9c.36,3.63-3.51-5.81-2.79-7.62,0,0-8.1,11.25,2.18,21.53,0,0,5.32,4.6,14,.12,0,0,2.06,5.44,6.9,1.57,0,0,4.35,4.72,8.22-2.54,0,0,9.44,12,15.24-6.89S36.05,53.44,36.05,53.44l-4.83-3.75S35.93,48.73,38.72,52Z"/><path class="cls-4" d="M29.91,59.09S24,54.72,18.63,56.47c0,0,1.75-2.24,2.92-1.95,0,0-.1-2.72-4.77.58,0,0,3.7-7,11.28-5.34,0,0,2.72,1.55.2,2.23l2.52,1.75s-3.11-.48-3.11,0S29.42,56,29.91,59.09Z"/><path class="cls-4" d="M32.72,65.2s6.8,2.85,8,8.33c0,0,1-2.64.18-3.5,0,0,2.38-1.31,1.94,4.39,0,0,4.11-6.76-1.2-12.42,0,0-2.73-1.54-2,1l-2.79-1.27s2,2.42,1.59,2.67S35.64,64,32.72,65.2Z"/><path class="cls-4" d="M10.88,64.37s2.31,6.94-.45,11.83c0,0,2.23,0,3.65-3.29S15.42,76,15.42,76l1.42-2.85s.36,1.25,1.33,1.16,1.78-1.25.54-5.87-7-7.21-7-7.21S14.53,64.19,14,67Z"/><g class="cls-2"><path d="M52.25,1.44a1.1,1.1,0,0,1,.13-.56,1.09,1.09,0,0,1,.34-.37A1.82,1.82,0,0,1,53.23.3a2.35,2.35,0,0,1,.6-.07H56l1,0a6,6,0,0,1,1,.1,4,4,0,0,1,.89.23,2.14,2.14,0,0,1,.73.43,1.9,1.9,0,0,1,.5.7,2.41,2.41,0,0,1,.19,1A2.23,2.23,0,0,1,60,3.5a2.19,2.19,0,0,1-.39.68A2.27,2.27,0,0,1,58.28,5V5a2.91,2.91,0,0,1,.92.28,2.33,2.33,0,0,1,.7.52,2.18,2.18,0,0,1,.45.73,2.55,2.55,0,0,1,.16.88,2.62,2.62,0,0,1-.21,1,2.43,2.43,0,0,1-.63.87,3,3,0,0,1-1.07.62,4.55,4.55,0,0,1-1.55.24H53.83a3.44,3.44,0,0,1-.68-.06,1.18,1.18,0,0,1-.5-.25,1.27,1.27,0,0,1-.3-.54,3.22,3.22,0,0,1-.1-.91Zm2.41.32V4.48h1a5.53,5.53,0,0,0,.84-.06,2.14,2.14,0,0,0,.66-.22,1.18,1.18,0,0,0,.43-.43,1.31,1.31,0,0,0,.16-.69,1.3,1.3,0,0,0-.15-.67,1.24,1.24,0,0,0-.42-.4,1.94,1.94,0,0,0-.63-.2,5.78,5.78,0,0,0-.75-.05Zm0,6.87H55.8a6.85,6.85,0,0,0,1-.06,1.75,1.75,0,0,0,.7-.22,1.07,1.07,0,0,0,.42-.45A1.67,1.67,0,0,0,58,7.14a1.34,1.34,0,0,0-.16-.7A1.12,1.12,0,0,0,57.4,6a2.16,2.16,0,0,0-.73-.23,6.76,6.76,0,0,0-.94-.06H54.66Z"/><path d="M64.81,8.82a1.32,1.32,0,0,1-.1.53,1.17,1.17,0,0,1-.27.42,1.28,1.28,0,0,1-.9.39,1.14,1.14,0,0,1-.49-.11,1,1,0,0,1-.4-.28,1.17,1.17,0,0,1-.27-.42,1.32,1.32,0,0,1-.1-.53V1.48A1.2,1.2,0,0,1,62.4.93a1.28,1.28,0,0,1,.34-.39,1.79,1.79,0,0,1,.5-.24,2.35,2.35,0,0,1,.6-.08h2.74A11.25,11.25,0,0,1,68,.32,3.7,3.7,0,0,1,69.26.7a2.15,2.15,0,0,1,.85.76,2.26,2.26,0,0,1,.32,1.26,2.63,2.63,0,0,1-.12.8,1.87,1.87,0,0,1-.38.69,2.31,2.31,0,0,1-.68.52,3.39,3.39,0,0,1-1,.31v0a4.06,4.06,0,0,1,.75.16,1.77,1.77,0,0,1,.53.28,1.44,1.44,0,0,1,.36.42,2.8,2.8,0,0,1,.22.58,6.58,6.58,0,0,1,.15.77c0,.28.07.6.1,1,0,.1,0,.2,0,.3s0,.18,0,.27a2.23,2.23,0,0,1-.06.54,1,1,0,0,1-.19.43.9.9,0,0,1-.38.27,1.53,1.53,0,0,1-.61.1.94.94,0,0,1-.57-.16,1.15,1.15,0,0,1-.38-.43,2.23,2.23,0,0,1-.23-.63c0-.24-.09-.49-.13-.77s-.09-.73-.14-1a1.6,1.6,0,0,0-.23-.65A.86.86,0,0,0,67,6.17a2.48,2.48,0,0,0-.8-.1H64.81Zm1.06-4.34a6,6,0,0,0,.73,0,2.27,2.27,0,0,0,.67-.18,1.2,1.2,0,0,0,.48-.41,1.26,1.26,0,0,0,.19-.73,1.41,1.41,0,0,0-.18-.78A1.09,1.09,0,0,0,67.29,2a2.06,2.06,0,0,0-.68-.17q-.39,0-.81,0h-1V4.48Z"/><path d="M78,1.56a1.46,1.46,0,0,1,.1-.52A1.43,1.43,0,0,1,78.4.61a1.38,1.38,0,0,1,.4-.28,1.22,1.22,0,0,1,.5-.11,1.14,1.14,0,0,1,.49.11,1.3,1.3,0,0,1,.41.28,1.43,1.43,0,0,1,.27.43,1.27,1.27,0,0,1,.1.52V6.79a3.68,3.68,0,0,1-.32,1.58,3.06,3.06,0,0,1-.89,1.12,3.9,3.9,0,0,1-1.35.68,6.3,6.3,0,0,1-1.73.23,6.53,6.53,0,0,1-1.7-.22,4.12,4.12,0,0,1-1.36-.67,3.16,3.16,0,0,1-.89-1.12A3.77,3.77,0,0,1,72,6.79V1.56a1.27,1.27,0,0,1,.1-.52,1.43,1.43,0,0,1,.27-.43,1.26,1.26,0,0,1,.4-.28,1.17,1.17,0,0,1,1,0,1.26,1.26,0,0,1,.4.28,1.28,1.28,0,0,1,.28.43,1.46,1.46,0,0,1,.1.52V6.75a2.19,2.19,0,0,0,.15.85,1.66,1.66,0,0,0,.4.58,1.64,1.64,0,0,0,.55.34,2,2,0,0,0,.63.11,2,2,0,0,0,.64-.11,1.68,1.68,0,0,0,.56-.34,1.66,1.66,0,0,0,.4-.58A2.19,2.19,0,0,0,78,6.75Z"/><path d="M84.7,2.82a.76.76,0,0,0,.22.56,1.79,1.79,0,0,0,.57.39,4.85,4.85,0,0,0,.79.28l.9.26c.48.14.92.3,1.32.46a4.26,4.26,0,0,1,1,.59,2.53,2.53,0,0,1,.65.81,2.57,2.57,0,0,1,.23,1.12,2.92,2.92,0,0,1-.29,1.3,2.79,2.79,0,0,1-.81,1,3.87,3.87,0,0,1-1.29.62,6,6,0,0,1-1.7.22,8.06,8.06,0,0,1-1-.06,9.4,9.4,0,0,1-.95-.17,5.75,5.75,0,0,1-.86-.27,3.91,3.91,0,0,1-.71-.35,2,2,0,0,1-.47-.43.89.89,0,0,1-.17-.51,1,1,0,0,1,.07-.33,1.17,1.17,0,0,1,.19-.3.82.82,0,0,1,.25-.21A.51.51,0,0,1,83,7.68a1,1,0,0,1,.24,0l.23.1.25.13a1.11,1.11,0,0,0,.27.12A9.16,9.16,0,0,0,85,8.46a4.51,4.51,0,0,0,1.23.17,2.84,2.84,0,0,0,.66-.07,1.79,1.79,0,0,0,.55-.2A1,1,0,0,0,87.81,8,.93.93,0,0,0,88,7.51a.91.91,0,0,0-.09-.41,1,1,0,0,0-.22-.31,1.36,1.36,0,0,0-.34-.23,2.43,2.43,0,0,0-.4-.18l-.31-.1-.17-.06-.18-.06-.35-.1-.2,0-.15,0-.12,0-.15,0-.64-.23a8.5,8.5,0,0,1-1.07-.47,3,3,0,0,1-.72-.55,1.85,1.85,0,0,1-.41-.7A2.87,2.87,0,0,1,82.29,3,2.67,2.67,0,0,1,83.39.81a3.89,3.89,0,0,1,1.28-.6A6.38,6.38,0,0,1,86.37,0a6.75,6.75,0,0,1,.75,0,7.62,7.62,0,0,1,.81.14,5.23,5.23,0,0,1,.77.23,3.38,3.38,0,0,1,.66.32,1.74,1.74,0,0,1,.46.43A.88.88,0,0,1,90,1.7a.82.82,0,0,1-.07.31.74.74,0,0,1-.17.25,1.13,1.13,0,0,1-.26.16.79.79,0,0,1-.3.05.69.69,0,0,1-.38-.09c-.21-.1-.41-.2-.6-.27a4.05,4.05,0,0,0-.55-.2,5,5,0,0,0-.56-.11,6.4,6.4,0,0,0-.64,0,3.49,3.49,0,0,0-.65.06,2.17,2.17,0,0,0-.56.18,1.24,1.24,0,0,0-.41.33A.76.76,0,0,0,84.7,2.82Z"/><path d="M98,1.56a1.27,1.27,0,0,1,.1-.52,1.43,1.43,0,0,1,.27-.43,1.38,1.38,0,0,1,.4-.28,1.19,1.19,0,0,1,1,0,1.38,1.38,0,0,1,.4.28,1.26,1.26,0,0,1,.27.43,1.27,1.27,0,0,1,.1.52V8.82a1.36,1.36,0,0,1-.37.95,1.24,1.24,0,0,1-1.8,0A1.36,1.36,0,0,1,98,8.82V6H94.49V8.82a1.51,1.51,0,0,1-.1.53,1.34,1.34,0,0,1-.28.42,1.12,1.12,0,0,1-.4.28,1.17,1.17,0,0,1-1,0,1.12,1.12,0,0,1-.4-.28,1.51,1.51,0,0,1-.27-.42,1.32,1.32,0,0,1-.1-.53V1.56a1.27,1.27,0,0,1,.1-.52,1.43,1.43,0,0,1,.27-.43,1.26,1.26,0,0,1,.4-.28,1.17,1.17,0,0,1,1,0,1.26,1.26,0,0,1,.4.28,1.28,1.28,0,0,1,.28.43,1.46,1.46,0,0,1,.1.52V4.05H98Z"/><path d="M105.19,8.82a1.32,1.32,0,0,1-.1.53,1.17,1.17,0,0,1-.27.42,1.28,1.28,0,0,1-.9.39,1.14,1.14,0,0,1-.49-.11,1,1,0,0,1-.4-.28,1.17,1.17,0,0,1-.27-.42,1.32,1.32,0,0,1-.1-.53V1.56a1.27,1.27,0,0,1,.1-.52A1.12,1.12,0,0,1,103,.61a1.15,1.15,0,0,1,.4-.28,1.14,1.14,0,0,1,.49-.11,1.22,1.22,0,0,1,.5.11,1.38,1.38,0,0,1,.4.28,1.12,1.12,0,0,1,.27.43,1.27,1.27,0,0,1,.1.52Z"/><path d="M109.41,9.08a1,1,0,0,1-.09.43.94.94,0,0,1-.23.33,1,1,0,0,1-.34.23,1,1,0,0,1-.84,0,1,1,0,0,1-.34-.23,1.06,1.06,0,0,1-.22-.33,1,1,0,0,1-.09-.43V1.62a1.78,1.78,0,0,1,.1-.59,1.37,1.37,0,0,1,.27-.44A1.05,1.05,0,0,1,108,.32a1.3,1.3,0,0,1,.49-.1,1.11,1.11,0,0,1,.43.09,2.05,2.05,0,0,1,.4.23,2.28,2.28,0,0,1,.36.34c.12.13.24.27.35.41l4,5.47V1.3a1.16,1.16,0,0,1,.08-.42,1,1,0,0,1,.23-.34,1,1,0,0,1,.34-.23,1,1,0,0,1,.84,0,1,1,0,0,1,.33.23.89.89,0,0,1,.23.34,1,1,0,0,1,.09.42v7a5.58,5.58,0,0,1,0,.72,2,2,0,0,1-.17.6,1,1,0,0,1-.37.42,1.1,1.1,0,0,1-.64.16,1.15,1.15,0,0,1-.41-.08,1.54,1.54,0,0,1-.39-.23,2.92,2.92,0,0,1-.37-.34c-.12-.13-.23-.27-.35-.42l-4.07-5.54Z"/><path d="M126.24,4.81a1.24,1.24,0,0,1,.43.07.52.52,0,0,1,.26.22,1,1,0,0,1,.12.37,3.63,3.63,0,0,1,0,.5V8a4.56,4.56,0,0,1-.07.9,1.42,1.42,0,0,1-.27.61,1.32,1.32,0,0,1-.56.4,4.84,4.84,0,0,1-.93.23l-.53.09-.57.07-.57.06-.53,0a7.29,7.29,0,0,1-2.17-.31,4.34,4.34,0,0,1-1.65-.95,4.14,4.14,0,0,1-1-1.62,6.53,6.53,0,0,1-.37-2.32,6.67,6.67,0,0,1,.31-2,4.66,4.66,0,0,1,.95-1.65A4.47,4.47,0,0,1,120.7.41,6.07,6.07,0,0,1,123,0a8.44,8.44,0,0,1,.87,0c.28,0,.56.07.83.12s.52.12.76.19a5.39,5.39,0,0,1,.68.24,1,1,0,0,1,.45.35.85.85,0,0,1,.15.48.76.76,0,0,1-.26.64.92.92,0,0,1-.64.22,2.11,2.11,0,0,1-.5-.07L124.69,2c-.24-.07-.48-.13-.73-.18a3.47,3.47,0,0,0-.68-.08A3.16,3.16,0,0,0,122,2a2.25,2.25,0,0,0-.88.7,3.29,3.29,0,0,0-.5,1.12,6.65,6.65,0,0,0-.15,1.47,7,7,0,0,0,.14,1.55,2.5,2.5,0,0,0,.45,1,1.73,1.73,0,0,0,.78.57,3.37,3.37,0,0,0,1.16.18c.28,0,.55,0,.83,0a3.6,3.6,0,0,0,.8-.12V6.25h-.92a2.34,2.34,0,0,1-.39,0,1.05,1.05,0,0,1-.31-.12.56.56,0,0,1-.2-.23.61.61,0,0,1-.08-.34.69.69,0,0,1,.21-.52.91.91,0,0,1,.64-.2h2.67Z"/><path d="M139.06,4.2a.81.81,0,0,1,.35.07.77.77,0,0,1,.28.19.67.67,0,0,1,.19.28.81.81,0,0,1,.07.35.8.8,0,0,1-.07.34.67.67,0,0,1-.19.28.92.92,0,0,1-.28.19.81.81,0,0,1-.35.07H136V8.82a1.36,1.36,0,0,1-.37.95,1.25,1.25,0,0,1-.41.28,1.17,1.17,0,0,1-1,0,1.12,1.12,0,0,1-.4-.28,1.36,1.36,0,0,1-.37-.95V1.5a1.26,1.26,0,0,1,.13-.57,1.1,1.1,0,0,1,.35-.39,1.48,1.48,0,0,1,.51-.23A2.51,2.51,0,0,1,135,.23h4.24a1,1,0,0,1,.34.07,1.15,1.15,0,0,1,.29.2.82.82,0,0,1,.19.28,1,1,0,0,1,.07.35.94.94,0,0,1-.07.34.92.92,0,0,1-.19.28,1.12,1.12,0,0,1-.29.19.8.8,0,0,1-.34.07H136V4.2Z"/><path d="M144.21,8.82a1.51,1.51,0,0,1-.1.53,1.34,1.34,0,0,1-.28.42,1.12,1.12,0,0,1-.4.28,1.17,1.17,0,0,1-1,0,1.12,1.12,0,0,1-.4-.28,1.17,1.17,0,0,1-.27-.42,1.32,1.32,0,0,1-.1-.53V1.48a1.09,1.09,0,0,1,.13-.55,1.13,1.13,0,0,1,.33-.39,1.93,1.93,0,0,1,.5-.24,2.35,2.35,0,0,1,.6-.08H146a11.54,11.54,0,0,1,1.46.1,3.72,3.72,0,0,1,1.22.38,2.09,2.09,0,0,1,.85.76,2.26,2.26,0,0,1,.32,1.26,2.63,2.63,0,0,1-.12.8,2,2,0,0,1-.37.69,2.45,2.45,0,0,1-.68.52,3.57,3.57,0,0,1-1,.31v0a3.94,3.94,0,0,1,.74.16,1.77,1.77,0,0,1,.53.28,1.44,1.44,0,0,1,.36.42,2.81,2.81,0,0,1,.23.58c.05.23.1.48.14.77s.07.6.1,1c0,.1,0,.2,0,.3a2.44,2.44,0,0,1,0,.27,2.23,2.23,0,0,1-.06.54,1,1,0,0,1-.19.43.87.87,0,0,1-.37.27,1.58,1.58,0,0,1-.62.1.94.94,0,0,1-.57-.16,1.15,1.15,0,0,1-.38-.43,2.23,2.23,0,0,1-.23-.63c-.05-.24-.09-.49-.12-.77s-.1-.73-.14-1a2,2,0,0,0-.23-.65.92.92,0,0,0-.45-.35,2.44,2.44,0,0,0-.8-.1h-1.38Zm1-4.34a6.23,6.23,0,0,0,.74,0,2.29,2.29,0,0,0,.66-.18,1.2,1.2,0,0,0,.48-.41,1.26,1.26,0,0,0,.19-.73,1.41,1.41,0,0,0-.18-.78,1,1,0,0,0-.47-.38,2,2,0,0,0-.68-.17c-.26,0-.53,0-.8,0h-1V4.48Z"/><path d="M152.9,10.16a1.1,1.1,0,0,1-1-.52,1.42,1.42,0,0,1-.21-.52,2.76,2.76,0,0,1-.06-.57V2a5.31,5.31,0,0,1,.05-.72,1.3,1.3,0,0,1,.21-.58,1.15,1.15,0,0,1,.48-.37,2.18,2.18,0,0,1,.85-.14h4.38A1.17,1.17,0,0,1,158,.3a1,1,0,0,1,.3.2.74.74,0,0,1,.21.28.81.81,0,0,1,.07.35.77.77,0,0,1-.07.34.83.83,0,0,1-.21.28,1,1,0,0,1-.3.19,1,1,0,0,1-.38.07h-3.52V4.22h3.22a1.16,1.16,0,0,1,.37.07.91.91,0,0,1,.3.19,1,1,0,0,1,.21.29.8.8,0,0,1,.07.34.81.81,0,0,1-.07.35.94.94,0,0,1-.21.28.91.91,0,0,1-.3.19,1.15,1.15,0,0,1-.37.06h-3.22v2.4h3.7a.8.8,0,0,1,.34.07.67.67,0,0,1,.28.19.8.8,0,0,1,.2.28,1,1,0,0,1,.06.35,1,1,0,0,1-.06.34.8.8,0,0,1-.2.28.92.92,0,0,1-.28.19,1,1,0,0,1-.34.07Z"/><path d="M159.93,5.2a7,7,0,0,1,.31-2.09,4.6,4.6,0,0,1,.91-1.64A4.25,4.25,0,0,1,162.68.39,5.45,5.45,0,0,1,164.82,0a5.61,5.61,0,0,1,2.09.36,4.16,4.16,0,0,1,1.52,1A4.31,4.31,0,0,1,169.35,3a6.76,6.76,0,0,1,.32,2.13,4.53,4.53,0,0,1-.1,1,5.13,5.13,0,0,1-.28.89,5.46,5.46,0,0,1-.43.79,5.44,5.44,0,0,1-.56.69h.53a3.15,3.15,0,0,1,.44,0,1.12,1.12,0,0,1,.39.13.68.68,0,0,1,.28.25.73.73,0,0,1,.11.41.74.74,0,0,1-.29.64,1.62,1.62,0,0,1-.87.22l-2.45.1h-.52l-.32.05-.43.06-.31,0a5.77,5.77,0,0,1-2.12-.37,4.22,4.22,0,0,1-1.54-1,4.35,4.35,0,0,1-.94-1.64A6.54,6.54,0,0,1,159.93,5.2Zm2.66,0a4.88,4.88,0,0,0,.54,2.56,2.07,2.07,0,0,0,3.37,0,4.8,4.8,0,0,0,.56-2.57,7.09,7.09,0,0,0-.14-1.46,3.14,3.14,0,0,0-.4-1.07,1.8,1.8,0,0,0-.7-.67,2.27,2.27,0,0,0-2,0,1.86,1.86,0,0,0-.7.67,3.36,3.36,0,0,0-.4,1.07A7.09,7.09,0,0,0,162.59,5.2Z"/><path d="M177.34,1.56a1.27,1.27,0,0,1,.1-.52,1.12,1.12,0,0,1,.27-.43,1.26,1.26,0,0,1,.4-.28,1.17,1.17,0,0,1,1,0,1.26,1.26,0,0,1,.4.28,1.28,1.28,0,0,1,.28.43,1.46,1.46,0,0,1,.1.52V6.79a3.68,3.68,0,0,1-.32,1.58,3.06,3.06,0,0,1-.89,1.12,3.86,3.86,0,0,1-1.36.68,6.22,6.22,0,0,1-1.72.23,6.61,6.61,0,0,1-1.71-.22,4.07,4.07,0,0,1-1.35-.67,3.06,3.06,0,0,1-.89-1.12,3.63,3.63,0,0,1-.32-1.6V1.56a1.27,1.27,0,0,1,.1-.52,1.12,1.12,0,0,1,.27-.43,1.15,1.15,0,0,1,.4-.28,1.14,1.14,0,0,1,.49-.11,1.22,1.22,0,0,1,.5.11,1.38,1.38,0,0,1,.4.28,1.12,1.12,0,0,1,.27.43,1.27,1.27,0,0,1,.1.52V6.75a2.19,2.19,0,0,0,.15.85,1.64,1.64,0,0,0,.39.58,1.68,1.68,0,0,0,.56.34,1.9,1.9,0,0,0,.63.11,2,2,0,0,0,.64-.11,1.63,1.63,0,0,0,1-.92,2.19,2.19,0,0,0,.15-.85Z"/><path d="M183.14,10.16a1.08,1.08,0,0,1-.59-.15,1.12,1.12,0,0,1-.38-.37,1.61,1.61,0,0,1-.2-.52,2.76,2.76,0,0,1-.06-.57V2a5.39,5.39,0,0,1,0-.72,1.43,1.43,0,0,1,.22-.58,1.05,1.05,0,0,1,.47-.37,2.21,2.21,0,0,1,.85-.14h4.39a1.11,1.11,0,0,1,.37.07,1.1,1.1,0,0,1,.31.2.84.84,0,0,1,.2.28.82.82,0,0,1,.08.35.77.77,0,0,1-.08.34,1,1,0,0,1-.2.28,1.08,1.08,0,0,1-.31.19.9.9,0,0,1-.37.07h-3.52V4.22h3.21a1.22,1.22,0,0,1,.38.07,1.17,1.17,0,0,1,.3.19.94.94,0,0,1,.2.29.81.81,0,0,1,.08.34.82.82,0,0,1-.08.35.9.9,0,0,1-.2.28,1.17,1.17,0,0,1-.3.19,1.21,1.21,0,0,1-.38.06h-3.21v2.4h3.69a.84.84,0,0,1,.35.07.73.73,0,0,1,.28.19.77.77,0,0,1,.19.28.81.81,0,0,1,.07.35.8.8,0,0,1-.07.34.77.77,0,0,1-.19.28,1.07,1.07,0,0,1-.28.19,1,1,0,0,1-.35.07Z"/><path d="M192.68,9.08a1,1,0,0,1-.09.43.94.94,0,0,1-.23.33,1,1,0,0,1-.34.23,1,1,0,0,1-.84,0,1,1,0,0,1-.34-.23,1.09,1.09,0,0,1-.23-.33,1.22,1.22,0,0,1-.08-.43V1.62a1.78,1.78,0,0,1,.1-.59,1.37,1.37,0,0,1,.27-.44,1.05,1.05,0,0,1,.39-.27,1.3,1.3,0,0,1,.49-.1,1.06,1.06,0,0,1,.42.09,1.6,1.6,0,0,1,.4.23,2.33,2.33,0,0,1,.37.34,4.35,4.35,0,0,1,.34.41l4,5.47V1.3a1.16,1.16,0,0,1,.08-.42.89.89,0,0,1,.23-.34A1,1,0,0,1,198,.31a1,1,0,0,1,.84,0,1,1,0,0,1,.34.23,1,1,0,0,1,.23.34,1,1,0,0,1,.09.42v7c0,.25,0,.49,0,.72a2,2,0,0,1-.17.6,1,1,0,0,1-.37.42,1.13,1.13,0,0,1-.64.16,1.15,1.15,0,0,1-.41-.08,1.54,1.54,0,0,1-.39-.23,2.92,2.92,0,0,1-.37-.34c-.12-.13-.23-.27-.35-.42l-4.07-5.54Z"/><path d="M201.06,5.28a6.25,6.25,0,0,1,.37-2.23,4.74,4.74,0,0,1,1-1.66,4.38,4.38,0,0,1,1.56-1A5.34,5.34,0,0,1,206,0a9,9,0,0,1,1.48.11,4.15,4.15,0,0,1,1.05.29,1.51,1.51,0,0,1,.62.43.84.84,0,0,1,.21.55.78.78,0,0,1-.08.35,1,1,0,0,1-.22.24,1,1,0,0,1-.3.14,1.17,1.17,0,0,1-.32,0h-.2a.57.57,0,0,1-.18,0l-.5-.13a3.9,3.9,0,0,0-.46-.12l-.46-.08a3.59,3.59,0,0,0-.47,0,2.78,2.78,0,0,0-1,.16,1.75,1.75,0,0,0-.79.54,2.84,2.84,0,0,0-.53,1.06,6.11,6.11,0,0,0-.2,1.69,6.19,6.19,0,0,0,.16,1.43,3.18,3.18,0,0,0,.47,1.07,2.12,2.12,0,0,0,.78.68,2.37,2.37,0,0,0,1.09.24,2.53,2.53,0,0,0,.53-.06,4.17,4.17,0,0,0,.56-.14c.19,0,.38-.12.58-.19l.59-.22a.69.69,0,0,1,.22,0,.62.62,0,0,1,.31.07.67.67,0,0,1,.4.43.78.78,0,0,1-.12.8,1.84,1.84,0,0,1-.46.4,4.06,4.06,0,0,1-.66.31,6.23,6.23,0,0,1-.77.22,6.85,6.85,0,0,1-.79.13,6.4,6.4,0,0,1-.73.05,5.06,5.06,0,0,1-1.88-.34,4.35,4.35,0,0,1-1.52-1,4.7,4.7,0,0,1-1-1.61A5.89,5.89,0,0,1,201.06,5.28Z"/><path d="M216.52,8.82a1.78,1.78,0,0,1-.11.53,1.34,1.34,0,0,1-.28.42,1.28,1.28,0,0,1-.9.39,1.14,1.14,0,0,1-.49-.11,1,1,0,0,1-.4-.28,1.17,1.17,0,0,1-.27-.42,1.32,1.32,0,0,1-.1-.53V6.36l-2.51-4.19a1.56,1.56,0,0,1-.19-.42,1.74,1.74,0,0,1-.05-.39,1.14,1.14,0,0,1,.09-.46,1,1,0,0,1,.25-.36,1,1,0,0,1,.35-.23,1.06,1.06,0,0,1,.42-.09,1.22,1.22,0,0,1,.66.21,1.54,1.54,0,0,1,.55.68l1.8,3.57h0l1.87-3.6a1.65,1.65,0,0,1,.55-.65,1.2,1.2,0,0,1,.63-.2.94.94,0,0,1,.37.07,1,1,0,0,1,.3.19.81.81,0,0,1,.21.3,1,1,0,0,1,.07.39,1.18,1.18,0,0,1-.05.37,1.51,1.51,0,0,1-.19.41l-2.61,4.36Z"/></g><circle class="cls-5" cx="136.26" cy="100.19" r="7.54"/></g></g></svg>