<svg xmlns="http://www.w3.org/2000/svg" viewBox="0 0 45.45 168.61"><defs><style>.cls-1{fill:#507b9b;}.cls-2{fill:#79ad84;}.cls-3{fill:#51504c;}.cls-4{fill:#6294b2;}</style></defs><title>brush</title><g id="Layer_2" data-name="Layer 2"><g id="Layer_1-2" data-name="Layer 1"><ellipse class="cls-1" cx="31.52" cy="163.87" rx="4.75" ry="7.8" transform="translate(-132.45 194.87) rotate(-89.82)"/><path class="cls-2" d="M25.42,165.2l12.21.15c2.09,0,3.75-1.74,3.75-4.41L39.7,97.65,25,97.46l-3.29,63.23C21.63,163.36,23.33,165.17,25.42,165.2Z"/><ellipse class="cls-2" cx="33.17" cy="40.27" rx="40.27" ry="12.27" transform="translate(-7.52 72.92) rotate(-89.27)"/><ellipse class="cls-1" cx="28.96" cy="39.43" rx="37.45" ry="7.97" transform="matrix(0.03, -1, 1, 0.03, -11.2, 67.36)"/><rect class="cls-3" x="6.42" y="11.23" width="25.27" height="2.23" rx="1.12" ry="1.12" transform="translate(0.16 -0.24) rotate(0.73)"/><rect class="cls-3" x="8.14" y="6.4" width="22.27" height="2.23" rx="1.07" ry="1.07" transform="translate(0.1 -0.25) rotate(0.73)"/><rect class="cls-3" x="4.59" y="16.06" width="28.13" height="2.23" rx="1.12" ry="1.12" transform="translate(0.22 -0.24) rotate(0.73)"/><rect class="cls-3" x="3.13" y="20.82" width="30.48" height="2.38" rx="1.19" ry="1.19" transform="translate(0.28 -0.23) rotate(0.73)"/><rect class="cls-3" x="1.31" y="26.29" width="31.96" height="2.47" rx="1.24" ry="1.24" transform="translate(0.35 -0.22) rotate(0.73)"/><rect class="cls-3" x="0.71" y="31.12" width="32.5" height="2.47" rx="1.24" ry="1.24" transform="translate(0.42 -0.21) rotate(0.73)"/><rect class="cls-3" x="0.06" y="35.95" width="33.09" height="2.47" rx="1.24" ry="1.24" transform="translate(0.48 -0.21) rotate(0.73)"/><rect class="cls-3" x="4.89" y="65.41" width="25.27" height="2.23" rx="1.12" ry="1.12" transform="translate(0.85 -0.22) rotate(0.73)"/><rect class="cls-3" x="6.48" y="70.25" width="22.27" height="2.23" rx="1.07" ry="1.07" transform="translate(0.91 -0.22) rotate(0.73)"/><rect class="cls-3" x="3.18" y="60.57" width="28.13" height="2.23" rx="1.12" ry="1.12" transform="translate(0.79 -0.22) rotate(0.73)"/><rect class="cls-3" x="1.85" y="55.66" width="30.48" height="2.38" rx="1.19" ry="1.19" transform="translate(0.73 -0.21) rotate(0.73)"/><rect class="cls-3" x="1" y="50.78" width="31.96" height="2.47" rx="1.24" ry="1.24" transform="translate(0.67 -0.21) rotate(0.73)"/><rect class="cls-3" x="0.52" y="45.94" width="32.5" height="2.47" rx="1.24" ry="1.24" transform="translate(0.61 -0.21) rotate(0.73)"/><rect class="cls-3" y="41.1" width="33.09" height="2.47" rx="1.24" ry="1.24" transform="translate(0.54 -0.21) rotate(0.73)"/><path class="cls-1" d="M42,94.27,22.82,94l-.08,6c0,.59,4.27,1.62,9.56,1.69s9.59-.86,9.59-1.44Z"/><ellipse class="cls-4" cx="32.4" cy="94.14" rx="1.06" ry="9.58" transform="translate(-62.16 125.33) rotate(-89.27)"/><path class="cls-2" d="M28.24,77.76,28,93.9h0c0,.25,1.91.62,4.3.65s4.38-.29,4.42-.54h0L37,75.91,31.75,79.8Z"/></g></g></svg>