<svg xmlns="http://www.w3.org/2000/svg" viewBox="0 0 39.6 120.91"><defs><style>.cls-1{fill:#507b9b;}.cls-2{fill:#79ad84;}.cls-3{fill:#51504c;}</style></defs><title>brush</title><g id="Layer_2" data-name="Layer 2"><g id="Icon"><ellipse class="cls-1" cx="20.32" cy="116.76" rx="8.48" ry="4.15"/><path class="cls-2" d="M27,118.11H13.69A4.07,4.07,0,0,1,9.63,114l2.72-53.78h16L31,114A4.06,4.06,0,0,1,27,118.11Z"/><path class="cls-3" d="M1.59,4.45h15.7a.23.23,0,0,1,.23.23V7.39a.23.23,0,0,1-.23.23H1.59A1.58,1.58,0,0,1,0,6V6A1.58,1.58,0,0,1,1.59,4.45Z"/><path class="cls-3" d="M23.25,4.45H39.46a.14.14,0,0,1,.14.14V5.9a.14.14,0,0,1-.14.14H23.25a.79.79,0,0,1-.79-.79v0a.79.79,0,0,1,.79-.79Z" transform="translate(62.05 10.5) rotate(-179.99)"/><path class="cls-3" d="M23.25,8H39.46a.14.14,0,0,1,.14.14V9.41a.14.14,0,0,1-.14.14H23.25a.79.79,0,0,1-.79-.79v0A.79.79,0,0,1,23.25,8Z" transform="translate(62.05 17.51) rotate(-179.99)"/><path class="cls-3" d="M23.25,11.47H39.46a.14.14,0,0,1,.14.14v1.31a.14.14,0,0,1-.14.14H23.25a.79.79,0,0,1-.79-.79v0a.79.79,0,0,1,.79-.79Z" transform="translate(62.05 24.53) rotate(-179.99)"/><path class="cls-3" d="M23.25,15H39.46a.14.14,0,0,1,.14.14v1.31a.14.14,0,0,1-.14.14H23.25a.79.79,0,0,1-.79-.79v0a.79.79,0,0,1,.79-.79Z" transform="translate(62.05 31.54) rotate(-179.99)"/><path class="cls-3" d="M23.24,18.48H39.46a.14.14,0,0,1,.14.14v1.31a.14.14,0,0,1-.14.14H23.24a.79.79,0,0,1-.79-.79v0a.79.79,0,0,1,.79-.79Z" transform="translate(62.04 38.55) rotate(-179.99)"/><path class="cls-3" d="M23.24,22H39.46a.14.14,0,0,1,.14.14v1.31a.14.14,0,0,1-.14.14H23.24a.79.79,0,0,1-.79-.79v0a.79.79,0,0,1,.79-.79Z" transform="translate(62.04 45.56) rotate(-179.99)"/><path class="cls-3" d="M23.24,25.49H39.46a.14.14,0,0,1,.14.14v1.31a.14.14,0,0,1-.14.14H23.24a.79.79,0,0,1-.79-.79v0a.79.79,0,0,1,.79-.79Z" transform="translate(62.04 52.57) rotate(-179.99)"/><path class="cls-3" d="M23.24,29H39.45a.14.14,0,0,1,.14.14v1.31a.14.14,0,0,1-.14.14H23.24a.79.79,0,0,1-.79-.79v0A.79.79,0,0,1,23.24,29Z" transform="translate(62.04 59.58) rotate(-179.99)"/><path class="cls-3" d="M23.24,32.5H39.45a.14.14,0,0,1,.14.14v1.31a.14.14,0,0,1-.14.14H23.24a.79.79,0,0,1-.79-.79v0a.79.79,0,0,1,.79-.79Z" transform="translate(62.03 66.6) rotate(-179.99)"/><path class="cls-3" d="M23.24,36H39.45a.14.14,0,0,1,.14.14v1.31a.14.14,0,0,1-.14.14H23.24a.79.79,0,0,1-.79-.79v0A.79.79,0,0,1,23.24,36Z" transform="translate(62.03 73.61) rotate(-179.99)"/><path class="cls-3" d="M23.24,39.51H39.45a.14.14,0,0,1,.14.14V41a.14.14,0,0,1-.14.14H23.24a.79.79,0,0,1-.79-.79v0a.79.79,0,0,1,.79-.79Z" transform="translate(62.03 80.62) rotate(-179.99)"/><path class="cls-3" d="M23.24,43H39.45a.14.14,0,0,1,.14.14v1.31a.14.14,0,0,1-.14.14H23.24a.79.79,0,0,1-.79-.79v0a.79.79,0,0,1,.79-.79Z" transform="translate(62.03 87.63) rotate(-179.99)"/><path class="cls-3" d="M23.24,46.53H39.45a.14.14,0,0,1,.14.14V48a.14.14,0,0,1-.14.14H23.24a.79.79,0,0,1-.79-.79v0a.79.79,0,0,1,.79-.79Z" transform="translate(62.02 94.64) rotate(-179.99)"/><path class="cls-3" d="M23.24,50H39.45a.14.14,0,0,1,.14.14v1.31a.14.14,0,0,1-.14.14H23.24a.79.79,0,0,1-.79-.79v0a.79.79,0,0,1,.79-.79Z" transform="translate(62.02 101.65) rotate(-179.99)"/><path class="cls-3" d="M1.59,11.69h15.7a.23.23,0,0,1,.23.23v2.72a.23.23,0,0,1-.23.23H1.59A1.58,1.58,0,0,1,0,13.27v0a1.58,1.58,0,0,1,1.58-1.58Z"/><path class="cls-3" d="M1.59,18.93h15.7a.23.23,0,0,1,.23.23v2.72a.23.23,0,0,1-.23.23H1.59A1.58,1.58,0,0,1,0,20.51v0a1.58,1.58,0,0,1,1.58-1.58Z"/><path class="cls-3" d="M1.59,26.17h15.7a.23.23,0,0,1,.23.23v2.72a.23.23,0,0,1-.23.23H1.59A1.58,1.58,0,0,1,0,27.75v0a1.58,1.58,0,0,1,1.58-1.58Z"/><path class="cls-3" d="M1.59,33.41h15.7a.23.23,0,0,1,.23.23v2.72a.23.23,0,0,1-.23.23H1.59A1.58,1.58,0,0,1,0,35v0A1.58,1.58,0,0,1,1.59,33.41Z"/><path class="cls-3" d="M1.59,40.64h15.7a.23.23,0,0,1,.23.23v2.72a.23.23,0,0,1-.23.23H1.59A1.58,1.58,0,0,1,0,42.23v0a1.58,1.58,0,0,1,1.58-1.58Z"/><path class="cls-3" d="M1.58,47.88h15.7a.23.23,0,0,1,.23.23v2.72a.23.23,0,0,1-.23.23H1.58A1.58,1.58,0,0,1,0,49.47v0a1.58,1.58,0,0,1,1.58-1.58Z"/><rect class="cls-2" x="-9.31" y="26.45" width="59.29" height="6.38" rx="3.19" ry="3.19" transform="translate(-9.31 49.98) rotate(-89.99)"/><rect class="cls-1" x="9.93" y="57.17" width="20.81" height="5.64" rx="2.66" ry="2.66"/></g></g></svg>