<svg xmlns="http://www.w3.org/2000/svg" viewBox="0 0 48.51 46.16"><defs><style>.cls-1{fill:#ce87af;}.cls-2{fill:#6f4727;}</style></defs><title>bulldog-ear</title><g id="Layer_2" data-name="Layer 2"><g id="Layer_1-2" data-name="Layer 1"><path class="cls-1" d="M19.41,9.67c-2.63,4-12.51,20.48-10.95,23.52S17.65,40.22,18,44,30.71,20.48,38,15.4s7-6.21.71-7.26S19.41,9.67,19.41,9.67Z"/><path class="cls-2" d="M48.51,9.75C45.06,6.59,27.38-6.35,19,3.85,12.61,11.71,7.62,16.71,1.42,20c-5.18,2.75,5.15,24.65,9.81,24.36C18,44,16,13.47,25.4,10.23s12.14-.35,12.43,2.88S28.15,17.08,24,27.8s-4.91,12.27-4.28,18.36C21.46,46.59,46.19,16.51,48.51,9.75Z"/></g></g></svg>