<svg xmlns="http://www.w3.org/2000/svg" viewBox="0 0 277.59 244.93"><defs><style>.cls-1{fill:#b3733f;}.cls-2{fill:#aa6f39;}.cls-3{fill:#f3f2f4;}.cls-4{fill:#fff;}.cls-5{fill:#ce87af;}.cls-6{fill:#6f4727;}.cls-7{fill:#a05d30;}</style></defs><title>bulldog-body</title><g id="Layer_2" data-name="Layer 2"><g id="Layer_1-2" data-name="Layer 1"><path class="cls-1" d="M22.28,110.66C15.54,106,9.41,96.44,7.76,83.37s27.05,1.25,27.05,1.25Z"/><path class="cls-2" d="M202.86,126.72c-5.37-3.64-20.19,22.55-21.76,23.86s15.73,15.21,16.65,23.34.42,12.35.23,13.73c-3.94.78-9.28,6.06-7.57,15.73h27.92c2-16.62-6.88-18.58-5.9-30.38C213.07,165.35,210,131.57,202.86,126.72Z"/><path class="cls-3" d="M226.39,118.53c-4.39-4.65-22.61-24.16-25.76-18.65-13.24,45.59-27.27,49.52-43.61,39.75,12.93-44.89-21-60.49-39.5-55.25,2-2.75,5.31-19.4,6.63-28.91-1.72.56-3,1-3.75,1.29-3.54-.22-20.6-22.67-28.33-20.86-2.35.56-63.7,73.19-64.81,76-3.85,9.81,4,22.72,6.42,29-7.27,32.83,23,45.42,9,72-5.7,1.83-23.15,1.51-20.45,17.5,0,0,32.84,2.49,42-1,12.31-24.31-2-43.58,5.56-66.66,15.33,12.78,46.4,24.78,60,14.75-4.92,16.91,2.75,43.46.39,51.72-3.73,1.37-14.9,2.69-13.15,15.69h41.5c3.25-17.25-5.25-11.75,1-25.92,4.14-9.35,7.34-44.83,1.05-52.7,22-4.45,38.6-28.31,42.73-32.44s9.18-10.56,19.14,4.13c1,1.46,2.09,3.12,3.26,4.92C228,135.78,230.61,123,226.39,118.53Z"/><path class="cls-1" d="M270,173.78c-8.84-17.89-3.54-26.34-7.27-45.62-9.83-64.49-46.41-86.91-63.71-88.55-13.78-1.31-67.7,12.63-78.66,17.15-2,.7-15.29-20.86-25-19.19C89.07,21.72,69.57,8.27,46.52,9.26,15.82,10.58-1.15,34.27.06,62.54c.46,10.67,6,12.71,8.84,24.83C14,109.21,39.1,94.68,39.1,84l27.45,26.88c5.43.48,9.19-.26,11.87-1.81-.56.58-.48.58.27-.16,6.77.42,18.51-24.32,38.83-24.56C138.8,84,170,94.74,157,139.63c16.34,9.77,30.37,5.84,43.61-39.75,3.15-5.51,21.37,14,25.76,18.65,4.22,4.47,1.62,17.25-.6,24.39,10.62,16.34,27.55,44.6,30,45.55-.13,1.57,0,8.65.07,15.6-4.72,1.18-6.69,7.27-6.3,14.94h27.93C277.52,216.46,278.89,191.68,270,173.78Z"/><rect class="cls-4" x="42" y="19.91" width="11.66" height="39.4" rx="5.26" ry="5.26" transform="translate(-1.66 2.09) rotate(-2.46)"/><path class="cls-5" d="M84,9.21c-8.8-2.21-11.35,2.3-11.78,5.21a50.08,50.08,0,0,1,25,27.77,17.93,17.93,0,0,1,1.58-2C95.21,31.63,91.23,11,84,9.21Z"/><path class="cls-6" d="M108.19,25.44C102.71,21.66,98,11.16,91.35,3.14,83.93-5.74,69.8,6.53,64.44,11.45a69.22,69.22,0,0,1,7.75,3c.94-2.36,5.86-3.52,10.3-.31,6.33,4.59.34,19.49,3.86,28.08,1.15,2.82,3,4.66,4.7,4.62C95.71,46.69,114.16,29.55,108.19,25.44Z"/><path class="cls-7" d="M97.23,46.81c1.58,8.93-1.85,32.59-7.78,39.47-3.9,4.53,9.09,1.77,10.47-22.38C100.53,53.17,97.23,46.81,97.23,46.81Z"/><path class="cls-7" d="M107.19,56.22c.16,8-6.86,27.6-13.74,32.36-4.53,3.13,8.64,3.26,13.73-17.18C109.44,62.31,107.19,56.22,107.19,56.22Z"/></g></g></svg>