<svg xmlns="http://www.w3.org/2000/svg" viewBox="0 0 148.2 130.27"><defs><style>.cls-1{fill:#ce87af;}.cls-2{fill:#b3733f;}.cls-3{fill:#6f4727;}.cls-4{fill:#27282e;}.cls-5{fill:#fff;}.cls-6{fill:#342c2b;}.cls-7{fill:none;stroke:#342c2b;stroke-linecap:round;stroke-linejoin:round;stroke-width:2.15px;}</style></defs><title>bulldogIcon</title><g id="Layer_2" data-name="Layer 2"><g id="Icon"><path class="cls-1" d="M23.89,11.11C20.56,15.75,7.92,34.9,9.65,38.6s10.58,8.84,10.82,13.29,16.39-27.34,25.33-33,8.71-7.07,1.22-8.61S23.89,11.11,23.89,11.11Z"/><path class="cls-2" d="M58.53,12.7C54.6,8.77,34.19-7.57,23.7,4.18c-8,9-14.28,14.75-21.82,18.36-6.32,3,4.87,29.63,10.44,29.54,8.05-.14,7.3-36.57,18.64-39.94s14.46.19,14.65,4.07S33.86,20.43,28.38,33s-6.46,14.38-6,21.64C24.45,55.22,55.44,20.62,58.53,12.7Z"/><path class="cls-1" d="M124.36,11.11c3.33,4.64,16,23.79,14.24,27.49S128,47.44,127.78,51.89s-16.39-27.34-25.33-33-8.71-7.07-1.22-8.61S124.36,11.11,124.36,11.11Z"/><path class="cls-2" d="M89.67,12.7C93.6,8.77,114-7.57,124.5,4.18c8.06,9,14.28,14.75,21.82,18.36,6.32,3-4.87,29.63-10.44,29.54-8-.14-7.3-36.57-18.63-39.94s-14.47.19-14.66,4.07S114.34,20.43,119.82,33s6.46,14.38,6,21.64C123.8,55.22,92.81,20.62,89.67,12.7Z"/><path class="cls-2" d="M74.12,127a19.79,19.79,0,0,1,4.41.47c21.39,4.4,37.45,6.23,42.42-20,2.76-14.61,11.23-25.19,11.23-37.93,0-33.75-21.44-61.1-58.1-61.1S16,35.79,16,69.54c0,12.74,8.81,24,11.57,38.54,5,26.26,20.69,23.83,42.09,19.43a20.83,20.83,0,0,1,4.49-.47Z"/><path class="cls-3" d="M60,62.71c2.25-5.67-4.49-12.08-7.4-12.27S48.7,53.34,38,54.37,31.52,67.16,33.91,73s11,9,17.13-.84C55.26,65.33,57.32,69.5,60,62.71Z"/><path class="cls-3" d="M87.05,62.57c-2.44-6.14,4.87-13.07,8-13.25s4.22,3.13,15.83,4.21,7,13.81,4.4,20-11.8,9.74-18.54-.94C92.2,65.42,90,69.92,87.05,62.57Z"/><path class="cls-4" d="M108.54,65.89A7,7,0,1,1,95,62.19c1-3.74,4.4-4.21,8.14-3.18S109.57,62.15,108.54,65.89Z"/><circle class="cls-5" cx="99.36" cy="60.88" r="1.59"/><path class="cls-4" d="M39.66,65.89a7,7,0,1,0,13.54-3.7c-1-3.74-4.41-4.21-8.15-3.18S38.68,62.15,39.66,65.89Z"/><circle class="cls-5" cx="48.84" cy="60.88" r="1.59"/><path class="cls-5" d="M74.78,68.09H73.42a6.27,6.27,0,0,1-6.27-6.27V27.36a6.28,6.28,0,0,1,6.27-6.28h1.36a6.28,6.28,0,0,1,6.27,6.28V61.82A6.27,6.27,0,0,1,74.78,68.09Z"/><path class="cls-5" d="M111.86,114.73c-2.06-8.52-1.59-11.29-1.26-18.87.89-21.49-15.73-34.37-36.48-34.37S36.71,74.37,37.65,95.86c.33,7.58.8,10.35-1.26,18.87-2.25,9.13,4.87,17.88,19.1,14.75a98.2,98.2,0,0,1,18.68-2.3,98.1,98.1,0,0,1,18.68,2.3C107,132.61,114.11,123.9,111.86,114.73Z"/><path class="cls-6" d="M62.51,72.59c0-6.42,5.2-7.45,11.61-7.45s11.62,1,11.62,7.45S78.53,83.45,74.12,83.45C69.49,83.45,62.51,79,62.51,72.59Z"/><path class="cls-7" d="M74.12,77.55V103c1.6,3.42,11.94,12.74,16.53,15.46"/><path class="cls-7" d="M74.12,77.55V103c-1.59,3.42-11.93,12.74-16.52,15.46"/></g></g></svg>