<svg xmlns="http://www.w3.org/2000/svg" viewBox="0 0 216.93 210.28"><defs><style>.cls-1{fill:#fff;}.cls-2{fill:#b3733f;}.cls-3{fill:#d6d7d6;opacity:0.32;}</style></defs><title>bulldog-body2</title><g id="Layer_2" data-name="Layer 2"><g id="Layer_1-2" data-name="Layer 1"><path class="cls-1" d="M60.67,17.94c-5.46,5.23-10,14-14.34,21.67A123.31,123.31,0,0,0,30,102.94c.33,33.34,6.67,67.67-4.67,73.34S.67,178.61,0,194.61H39.33c8.34-4,2.67-8.83,8.67-17.33s3.5-17,7-23.5,8.5-16.25,9.5-25l10.75,12c-1,5.75,4.25,22.5,7.25,25.5-8.75,2.25-11,9.75-7.75,20.25L120,185.28c-1,8.89-6.75,9.75-3.5,25h35.25c2.4-13.17-5-15-4-18.25,3.25,3,8.25,1.5,11.25.75-1.06,3.5,0,5.18,0,5.18,1.5.75,14.38,4.19,31.12,1.44,6.26-.87,6.63-2.12,12.13-4.12C212,188.78,207,187,215.75,171c2.81-15.75.25-35.5-4-40.5S198.21,93,168.44,67c-6.77-11.36-9.94-17.36-15.11-20.69.79-4.75-2.71-10.63-5.71-12.25s-13-8.63-13.37-19.38S93.58-13.64,60.67,17.94Z"/><path class="cls-2" d="M211.73,130.62c-4.25-5-13.54-37.52-43.31-63.55-6.77-11.37-9.94-17.37-15.11-20.7.79-4.75-2.71-10.62-5.71-12.25s-13-8.62-13.37-19.37S93.56-13.55,60.65,18c-5.46,5.23-10,14-14.34,21.66A123.32,123.32,0,0,0,30,103c0,2.54.09,5.09.17,7.63,3.25,3,6.28,1.29,8.06-8.59,4.69-26-4.31-37.51,10.69-41.67s16.75,11.44,29,10.33c14.78-1.33,20.08-4,33.21-15.33s32.33,1.33,31.06,12.67-3.39,28,0,37.33,4,17.15,14.38,3.57S167.9,87.41,167.9,87.41c5,6,25.36,15.85,17.66,28.88-26.66,45.12-.66,42.79-6.66,54.12s-9.93,7.42-15.71,13.92A16.74,16.74,0,0,0,159,198.06c2.54.78,14.37,4.19,31.12,1.44,6.25-.88,6.63-2.13,12.13-4.13,9.75-6.5,4.75-8.25,13.5-24.25C218.54,155.37,216,135.62,211.73,130.62Z"/><path class="cls-3" d="M121.74,151.53c2-12,1.77-14-4.92-27.11-2.82-5.55-6.58-10-6.58-15.53-3.83,2-26.92,5.82-45.92.82,1,6.46.34,18.66.18,19.07l10.7,12c-1,5.75,4.25,22.5,7.25,25.5-8.75,2.25-11,9.75-7.75,20.25l45-1.25a42.79,42.79,0,0,0,.59-4.39C120.82,175.4,119.74,163.53,121.74,151.53Z"/></g></g></svg>