<svg xmlns="http://www.w3.org/2000/svg" viewBox="0 0 115.62 123.3"><defs><style>.cls-1{fill:#b3733f;}.cls-2{fill:#6f4727;}.cls-3{fill:#27282e;}.cls-4{fill:#fff;}.cls-5{fill:#d6d7d6;}.cls-6{fill:#342c2b;}.cls-7{fill:#a05d30;}.cls-8{fill:#ce87af;}</style></defs><title>bulldog-head2</title><g id="Layer_2" data-name="Layer 2"><g id="FRISBEE"><path class="cls-1" d="M35.5,16.94C24.78,21.49,14,59.6,21.67,79.6s9.67,28.34,9,33.67,8.34,17.67,39,3.33S108,89.94,111,78.94s-1.67-18.84-1-24.67,3.17-7.82-3-16c3.67-3.5-4.17-23.6-14.17-26.73S68.05,2.38,58.71,5.88,45.15,12.83,35.5,16.94Z"/><path class="cls-2" d="M77.92,26.26c-2.46-3.91,1.62-9.7,3.72-10.25s3.28,1.6,11.31.8,6.54,8.62,5.6,13.3S91.78,38.45,85.84,32C81.79,27.55,80.87,31,77.92,26.26Z"/><path class="cls-3" d="M93,24.56a4.85,4.85,0,1,1-9.67-.76c.22-2.72,2.46-3.51,5.13-3.3S93.16,21.84,93,24.56Z"/><ellipse class="cls-4" cx="86.06" cy="22.32" rx="1.11" ry="1.09" transform="translate(56.2 106.06) rotate(-84.92)"/><path class="cls-2" d="M62.64,33.48c.15-4.54-6.22-7.31-8.29-6.7s-2,3-9.24,6.45S43.82,43.8,47,47.25s9.93,3.53,11.77-4.94C60,36.53,62.46,38.93,62.64,33.48Z"/><path class="cls-3" d="M49.24,40.86a5.21,5.21,0,1,0,8.5-6c-1.67-2.35-4.15-1.82-6.5-.16S47.58,38.51,49.24,40.86Z"/><circle class="cls-4" cx="54.38" cy="35.03" r="1.17"/><rect class="cls-4" x="66.69" y="10.08" width="9.22" height="31.16" rx="4.16" ry="4.16" transform="translate(-3.76 36.1) rotate(-27.72)"/><path class="cls-4" d="M69.72,28.76c-6.27,4.11-12.12,9.05-12.9,15.72S59.53,65,55.39,81.58c-2.84,11.44,10.5,18,25.3,6.57,9.52-.34,17-4.7,18.87-7.64,2.42,1.9,16.23,0,16.06-7.42S110.27,56.34,111,45.63,84.8,18.87,69.72,28.76Z"/><path class="cls-5" d="M74.16,48c-1.87,1.63,1.67,32.05-3.39,38.25-1.61,2-2.78,2.4-5.26,3.2A8.86,8.86,0,0,0,73,84.1c3.62-7.8.72-34.87,3.35-37s3.75-3.87,4.12-5.62S76.1,46.35,74.16,48Z"/><path class="cls-5" d="M81.88,38.18a14.85,14.85,0,0,0,4.69,2.23,19.22,19.22,0,0,0,5.09.5,11.29,11.29,0,0,1,5.56,1.27,7.56,7.56,0,0,1,3.56,4.73,16.27,16.27,0,0,1,.36,2.81c0,.88.12,1.77.16,2.65l.28,5.3c.22,3.52.32,7,.89,10.56A28.63,28.63,0,0,1,101,63.09q-.54-2.62-.9-5.28c-.26-1.76-.43-3.53-.62-5.3a49,49,0,0,0-.57-5.1,5.75,5.75,0,0,0-2.61-3.58,10.16,10.16,0,0,0-4.64-1.28,17.22,17.22,0,0,1-5.37-1.16A11.8,11.8,0,0,1,81.88,38.18Z"/><path class="cls-6" d="M71,38.18c-2-3.7.64-5.94,4.33-8s7-3.09,9,.6-.69,8.55-3.24,10S73.07,41.87,71,38.18Z"/><path class="cls-6" d="M99.18,48.85a7.15,7.15,0,0,0-2.64-4.58,9,9,0,0,0-4.94-1.52c-.46,0-.85,0-1.38,0a7.24,7.24,0,0,1-1.55-.21,14.12,14.12,0,0,1-2.82-1c-.89-.42-1.71-.91-2.52-1.37-.4-.23-.8-.46-1.18-.64a2.81,2.81,0,0,0-.87-.31s.22-.08.23-.14,0,0,0,0l0,.08,0,.18a10.35,10.35,0,0,1-.38,1.48,16.42,16.42,0,0,1-1.15,2.73A20.06,20.06,0,0,1,78.34,46c-.3.39-.6.78-.92,1.14l-.49.54-.39.46a12.19,12.19,0,0,0-1.66,5c-.31,1.82-.34,3.7-.55,5.58A39.28,39.28,0,0,1,73.9,53a12.11,12.11,0,0,1,1.34-5.75l.46-.66.42-.54c.27-.36.54-.72.79-1.09a19.81,19.81,0,0,0,1.31-2.33,17.27,17.27,0,0,0,1-2.46A11.82,11.82,0,0,0,79.49,39l0-.17.06-.26a2.18,2.18,0,0,1,.26-.61,1.55,1.55,0,0,1,.64-.57,1.24,1.24,0,0,1,.4-.15,1.8,1.8,0,0,1,.37,0,2.75,2.75,0,0,1,1,.21c.28.1.51.22.75.33.45.24.87.48,1.28.72.81.49,1.59,1,2.38,1.38a12.44,12.44,0,0,0,2.4,1,6,6,0,0,0,1.22.24c.41.05,1,.07,1.43.15a9.53,9.53,0,0,1,5.43,2.33A6.92,6.92,0,0,1,99.18,48.85Z"/><path class="cls-7" d="M30.44,79c3.13,5.63,15.61,17.15,22,18.29,4.19.75-4.22,5-15.79-7.66C31.47,84,30.44,79,30.44,79Z"/><path class="cls-7" d="M29.16,91.06c3.48,4.46,16.14,12.14,22.07,11.69,3.9-.3-3.31,5.67-15.27-3.33C30.65,95.42,29.16,91.06,29.16,91.06Z"/><path class="cls-2" d="M69.76,4.88C71.45,1.32,79-.46,88.3.1,92.5.35,97,6.53,99.76,9.35c3.88,4.91,7.95,12.09,6.18,15.65a.54.54,0,0,1-1,0,34.09,34.09,0,0,0-4.48-7.36c-2.64-3.47-10.24-5.83-13.74-6.33S68.76,7.77,69.76,4.88Z"/><path class="cls-8" d="M31.76,21.1C23,21.2,11,26.85,10.51,31.6S5,41.85,8.26,45.85s6.25,1.57,8.75,4,4.75,7.7,8,9.48c1-3.2-3-14.73,4.5-26.48S34.24,21.07,31.76,21.1Z"/><path class="cls-2" d="M40.64,18.39a3.88,3.88,0,0,0-3.44-2.81c-6.81-.79-11.36,2.74-18.2,5C11.51,23.1,8,27.85,6.76,33.1S-.24,39.6,0,43.85,9.51,59.6,12.51,55.1,9.76,35.6,15,31.35s5-5.25,14-6.75C36.4,23.37,41.43,21.74,40.64,18.39Z"/></g></g></svg>