<svg xmlns="http://www.w3.org/2000/svg" viewBox="0 0 125.04 146.13"><defs><style>.cls-1{fill:#ce87af;}.cls-2{fill:#935e35;}.cls-3{fill:#fcc062;}.cls-4{fill:#6f4727;}.cls-5{fill:#dc5f5f;}.cls-6{fill:#fff;}.cls-7{fill:#342c2b;}.cls-8{fill:#cb6853;}.cls-9{fill:none;stroke:#342c2b;stroke-linecap:round;stroke-linejoin:round;stroke-width:1.82px;}</style></defs><title>bulldog-complete</title><g id="Layer_2" data-name="Layer 2"><g id="Layer_1-2" data-name="Layer 1"><path class="cls-1" d="M20.12,43.91C17.3,47.84,6.66,64,8.09,67.09S17,74.56,17.21,78.33,31,55.27,38.57,50.48s7.34-5.95,1-7.27S20.12,43.91,20.12,43.91Z"/><path class="cls-2" d="M49.38,45.25C46.05,41.92,28.83,28.14,20,38,13.2,45.67,8,50.48,1.58,53.53c-5.32,2.55,4.12,25,8.81,24.93,6.82-.13,6.15-30.87,15.73-33.73s12.22.18,12.37,3.44S28.59,51.74,24,62.34s-5.47,12.13-5.1,18.28C20.59,81.13,46.76,52,49.38,45.25Z"/><path class="cls-1" d="M104.92,43.91c2.82,3.93,13.46,20.06,12,23.18s-8.94,7.47-9.12,11.24S94,55.27,86.47,50.48s-7.35-5.95-1-7.27S104.92,43.91,104.92,43.91Z"/><path class="cls-2" d="M75.66,45.25C79,41.92,96.2,28.14,105,38c6.8,7.63,12,12.44,18.42,15.49,5.32,2.55-4.12,25-8.81,24.93-6.82-.13-6.15-30.87-15.73-33.73s-12.22.18-12.38,3.44,9.91,3.57,14.54,14.17,5.47,12.13,5.1,18.28C104.45,81.13,78.28,52,75.66,45.25Z"/><path class="cls-2" d="M62.52,141.74a18.72,18.72,0,0,1,3.73.37c18.07,3.7,31.62,5.27,35.81-16.9,2.33-12.32,9.48-21.28,9.48-32,0-28.48-18.09-51.56-49-51.56s-49,23.08-49,51.56c0,10.75,7.43,20.22,9.75,32.53,4.19,22.18,17.47,20.1,35.54,16.4a18.65,18.65,0,0,1,3.73-.37Z"/><polygon class="cls-3" points="64.79 0 69.26 9.06 79.25 10.51 72.02 17.56 73.73 27.51 64.79 22.81 55.85 27.51 57.56 17.56 50.33 10.51 60.32 9.06 64.79 0"/><path class="cls-4" d="M50.62,87.44c1.92-4.78-3.81-10.21-6.25-10.35S41.06,79.53,32,80.4s-5.47,10.78-3.45,15.67,9.23,7.62,14.47-.72C46.6,89.67,48.32,93.2,50.62,87.44Z"/><path class="cls-4" d="M73.45,87.33c-2.07-5.17,4.12-11,6.76-11.18s3.57,2.64,13.35,3.57,5.9,11.65,3.73,16.93-10,8.22-15.63-.78C77.8,89.74,75.94,93.54,73.45,87.33Z"/><path class="cls-5" d="M41.18,81.54A4.15,4.15,0,0,0,38,86.46a4.15,4.15,0,0,0-8.11,1.73c1.51,7.09,10.22,8.14,10.22,8.14s7.52-4.46,6-11.6A4.15,4.15,0,0,0,41.18,81.54Z"/><path class="cls-5" d="M83.86,81.54a4.15,4.15,0,0,1,3.19,4.92,4.15,4.15,0,1,1,8.11,1.73c-1.51,7.09-10.22,8.14-10.22,8.14s-7.53-4.46-6-11.6A4.15,4.15,0,0,1,83.86,81.54Z"/><rect class="cls-6" x="56.65" y="52.36" width="11.73" height="39.65" rx="5.29" ry="5.29"/><path class="cls-6" d="M94.4,131.37c-1.76-7.19-1.36-9.51-1.09-15.91.77-18.16-13.26-29-30.79-29S31,97.3,31.73,115.46c.27,6.4.67,8.72-1.09,15.91-1.88,7.72,4.13,15.09,16.13,12.46a81.79,81.79,0,0,1,15.75-1.94,81.79,81.79,0,0,1,15.75,1.94C90.27,146.46,96.28,139.09,94.4,131.37Z"/><path class="cls-7" d="M52.72,95.78c0-5.41,4.39-6.28,9.8-6.28s9.8.87,9.8,6.28S66.24,105,62.52,105C58.62,105,52.72,101.19,52.72,95.78Z"/><path class="cls-8" d="M62.52,146.13c-5.62,0-9.75-3.95-9.57-9.45a103.85,103.85,0,0,1,1.23-10.83c3.44-1.25,8.34-8.81,8.34-8.81a115.65,115.65,0,0,0,8.34,9,60.2,60.2,0,0,1,1.24,10.64C72.1,142.41,68,146.13,62.52,146.13Z"/><path class="cls-9" d="M62.52,100V117c-1.35,2.91-10.26,10.77-14.4,10.77"/><path class="cls-9" d="M62.52,100V117c1.35,2.91,10.26,10.77,14.39,10.77"/></g></g></svg>