<svg xmlns="http://www.w3.org/2000/svg" viewBox="0 0 63.98 59.3"><defs><style>.cls-1{fill:#fff;}.cls-2{fill:#342c2b;}.cls-3{fill:none;stroke:#342c2b;stroke-linecap:round;stroke-linejoin:round;stroke-width:1.81px;}</style></defs><title>bulldog-mouse</title><g id="Layer_2" data-name="Layer 2"><g id="Layer_1-2" data-name="Layer 1"><path class="cls-1" d="M63.51,44c-2.06-7.17-1.76-9.52-1.77-16C61.72,9.64,47.32-.71,29.92,0S-.93,12.33.62,30.59c.54,6.44,1,8.76-.39,16.08-1.54,7.86,4.75,15,16.55,11.86A81.45,81.45,0,0,1,32.32,55.9,81.75,81.75,0,0,1,48,57.19C60.07,59.33,65.71,51.65,63.51,44Z"/><path class="cls-2" d="M20.6,9.72c-.23-5.37,4.08-6.41,9.45-6.64s9.77.44,10,5.81-5.64,9.36-9.34,9.52C26.85,18.58,20.83,15.09,20.6,9.72Z"/><path class="cls-3" d="M30.5,13.48l.92,21.31C32.88,37.62,41.86,45,45.8,47.13"/><path class="cls-3" d="M30.5,13.48l.92,21.31c-1.22,2.94-9.53,11.09-13.28,13.53"/></g></g></svg>