<svg xmlns="http://www.w3.org/2000/svg" viewBox="0 0 156.07 168.39"><defs><style>.cls-1{isolation:isolate;}.cls-2{fill:#fff;}.cls-3{fill:#ce87af;}.cls-4{fill:#b3733f;}.cls-5{fill:#6f4727;}.cls-6{fill:#27282e;}.cls-7{fill:#342c2b;}.cls-8,.cls-9{fill:none;}.cls-8{stroke:#342c2b;stroke-linecap:round;stroke-linejoin:round;stroke-width:2.07px;}</style></defs><title>bulldogIcon</title><g id="Layer_2" data-name="Layer 2"><g id="Icon"><g class="cls-1"><path class="cls-2" d="M16.91,151.38a2.05,2.05,0,0,1,.23-1,2,2,0,0,1,.64-.68,2.64,2.64,0,0,1,.92-.39,5.12,5.12,0,0,1,1.12-.13h3.9l1.76,0a14.53,14.53,0,0,1,1.77.18,9.16,9.16,0,0,1,1.64.43,4.17,4.17,0,0,1,1.34.79,3.53,3.53,0,0,1,.92,1.28,4.64,4.64,0,0,1,.34,1.88,4.06,4.06,0,0,1-.25,1.43,4.15,4.15,0,0,1-.72,1.24,4.53,4.53,0,0,1-1.1.94,4.24,4.24,0,0,1-1.42.52v.05a5.44,5.44,0,0,1,1.7.52,4.53,4.53,0,0,1,1.29,1,4.42,4.42,0,0,1,.82,1.33,4.62,4.62,0,0,1,.28,1.63,4.82,4.82,0,0,1-.37,1.86,4.45,4.45,0,0,1-1.16,1.62,5.93,5.93,0,0,1-2,1.14,8.38,8.38,0,0,1-2.85.43H19.82a6.71,6.71,0,0,1-1.26-.11,1.92,1.92,0,0,1-.91-.46,2.26,2.26,0,0,1-.56-1,6.37,6.37,0,0,1-.18-1.68Zm4.43.6v5h1.8a10.42,10.42,0,0,0,1.54-.11,3.72,3.72,0,0,0,1.22-.4,2.17,2.17,0,0,0,.8-.79,2.5,2.5,0,0,0,.29-1.26,2.37,2.37,0,0,0-.28-1.24,2,2,0,0,0-.78-.74,3.64,3.64,0,0,0-1.14-.36,10.21,10.21,0,0,0-1.38-.09Zm0,12.62h2.09a13.23,13.23,0,0,0,1.77-.1,3.32,3.32,0,0,0,1.29-.4,2,2,0,0,0,.78-.83,3.25,3.25,0,0,0,.26-1.39,2.53,2.53,0,0,0-.3-1.3,2.22,2.22,0,0,0-.86-.8,4.34,4.34,0,0,0-1.33-.41,13,13,0,0,0-1.73-.11h-2Z"/><path class="cls-2" d="M46.29,151.6a2.56,2.56,0,0,1,.18-1,2.43,2.43,0,0,1,.5-.78,2.3,2.3,0,0,1,.74-.52,2.12,2.12,0,0,1,.91-.19,2.15,2.15,0,0,1,.91.19,2.37,2.37,0,0,1,1.24,1.3,2.57,2.57,0,0,1,.19,1v9.63a6.7,6.7,0,0,1-.59,2.9,5.63,5.63,0,0,1-1.63,2.07,7.16,7.16,0,0,1-2.5,1.25,11.7,11.7,0,0,1-3.17.41,11.58,11.58,0,0,1-3.14-.41,7.24,7.24,0,0,1-2.49-1.22,5.87,5.87,0,0,1-1.64-2.07,6.81,6.81,0,0,1-.59-2.93V151.6a2.61,2.61,0,0,1,.68-1.74,2.42,2.42,0,0,1,.74-.52,2.27,2.27,0,0,1,1.82,0,2.42,2.42,0,0,1,.74.52,2.45,2.45,0,0,1,.51.78,2.56,2.56,0,0,1,.18,1v9.56a3.92,3.92,0,0,0,.28,1.56,3.06,3.06,0,0,0,.72,1.07,3,3,0,0,0,1,.61,3.33,3.33,0,0,0,1.16.2,3.4,3.4,0,0,0,1.18-.2,3,3,0,0,0,1-.61,3.24,3.24,0,0,0,.74-1.07,3.92,3.92,0,0,0,.28-1.56Z"/><path class="cls-2" d="M65.62,164.08a1.56,1.56,0,0,1,.64.13,1.7,1.7,0,0,1,.54.36,1.77,1.77,0,0,1,.36.53,1.61,1.61,0,0,1,.13.65,1.64,1.64,0,0,1-.13.65,1.77,1.77,0,0,1-.36.53,1.7,1.7,0,0,1-.54.36,1.56,1.56,0,0,1-.64.13H57a2.08,2.08,0,0,1-1.13-.29,2.25,2.25,0,0,1-.72-.78,3.49,3.49,0,0,1-.38-1.1,7.48,7.48,0,0,1-.1-1.26V151.6a2.56,2.56,0,0,1,.18-1,2.31,2.31,0,0,1,1.23-1.3,2.27,2.27,0,0,1,1.82,0,2.42,2.42,0,0,1,.74.52,2.29,2.29,0,0,1,.51.78,2.56,2.56,0,0,1,.18,1v12.48Z"/><path class="cls-2" d="M80.67,164.08a1.64,1.64,0,0,1,.65.13,1.71,1.71,0,0,1,.89.89,1.61,1.61,0,0,1,.13.65,1.64,1.64,0,0,1-.13.65,1.71,1.71,0,0,1-.89.89,1.64,1.64,0,0,1-.65.13H72.06a2.12,2.12,0,0,1-1.14-.29,2.25,2.25,0,0,1-.72-.78,3.49,3.49,0,0,1-.38-1.1,7.48,7.48,0,0,1-.1-1.26V151.6a2.56,2.56,0,0,1,.18-1,2.43,2.43,0,0,1,.5-.78,2.26,2.26,0,0,1,.73-.52,2.15,2.15,0,0,1,.91-.19,2.12,2.12,0,0,1,.91.19,2.59,2.59,0,0,1,.75.52,2.43,2.43,0,0,1,.5.78,2.56,2.56,0,0,1,.18,1v12.48Z"/><path class="cls-2" d="M87,167.42a2,2,0,0,1-1.84-1,3.16,3.16,0,0,1-.37-1,7.49,7.49,0,0,1-.1-1.17V152.39a5.6,5.6,0,0,1,.17-1.45,2.11,2.11,0,0,1,1.53-1.59,5.27,5.27,0,0,1,1.5-.19H91q5.13,0,7.76,2.27c1.74,1.52,2.61,3.84,2.61,7a10.2,10.2,0,0,1-.72,4,7.32,7.32,0,0,1-2,2.81,8.5,8.5,0,0,1-3.16,1.65,14.59,14.59,0,0,1-4.1.54Zm2.3-2.82H91a8.07,8.07,0,0,0,2.46-.32,3.64,3.64,0,0,0,1.71-1.12,5,5,0,0,0,1-2,11.26,11.26,0,0,0,.32-2.89,7.21,7.21,0,0,0-1.32-4.74,5,5,0,0,0-4-1.55H89.26Z"/><path class="cls-2" d="M103.23,158.3a12.35,12.35,0,0,1,.56-3.83,8.42,8.42,0,0,1,1.67-3,7.67,7.67,0,0,1,2.81-2,10,10,0,0,1,4-.71,10.18,10.18,0,0,1,3.88.69,7.59,7.59,0,0,1,2.82,1.95,8.57,8.57,0,0,1,1.71,3,13.38,13.38,0,0,1,0,7.76,8.21,8.21,0,0,1-1.7,3,7.71,7.71,0,0,1-2.81,2,11.28,11.28,0,0,1-7.77,0,7.51,7.51,0,0,1-2.82-1.93,8.28,8.28,0,0,1-1.73-3A12.41,12.41,0,0,1,103.23,158.3Zm4.89,0a9,9,0,0,0,1,4.71,3.82,3.82,0,0,0,6.2,0,8.82,8.82,0,0,0,1-4.72,12.73,12.73,0,0,0-.25-2.68,5.93,5.93,0,0,0-.75-2,3.4,3.4,0,0,0-1.27-1.23,3.82,3.82,0,0,0-1.84-.42,3.75,3.75,0,0,0-1.83.42,3.42,3.42,0,0,0-1.28,1.23,6.39,6.39,0,0,0-.75,2A13.47,13.47,0,0,0,108.12,158.3Z"/><path class="cls-2" d="M138.61,157.59a2,2,0,0,1,.8.13,1,1,0,0,1,.47.4,1.82,1.82,0,0,1,.22.68,6.22,6.22,0,0,1,.06.93v3.74a8.57,8.57,0,0,1-.14,1.66,2.49,2.49,0,0,1-.49,1.12,2.57,2.57,0,0,1-1,.72,7.26,7.26,0,0,1-1.71.44l-1,.16-1,.14-1.06.11c-.35,0-.67,0-1,0a13,13,0,0,1-4-.57,7.84,7.84,0,0,1-3-1.75,7.66,7.66,0,0,1-1.93-3,12.13,12.13,0,0,1-.67-4.26,11.86,11.86,0,0,1,.57-3.71,8.1,8.1,0,0,1,4.73-5.1,11.19,11.19,0,0,1,4.29-.75,14.17,14.17,0,0,1,1.6.08c.52.05,1,.13,1.52.22a12.1,12.1,0,0,1,1.41.34,11.16,11.16,0,0,1,1.24.44,1.77,1.77,0,0,1,.84.65,1.49,1.49,0,0,1,.28.88,1.45,1.45,0,0,1-.48,1.18,1.76,1.76,0,0,1-1.18.41,4,4,0,0,1-.93-.15c-.39-.1-.8-.2-1.24-.33s-.89-.23-1.34-.32a6,6,0,0,0-1.25-.15,5.71,5.71,0,0,0-2.38.45,4.16,4.16,0,0,0-1.61,1.29,5.44,5.44,0,0,0-.92,2.05,11.79,11.79,0,0,0-.29,2.71,13.48,13.48,0,0,0,.26,2.84,4.77,4.77,0,0,0,.82,1.89,3.19,3.19,0,0,0,1.46,1.06,6.12,6.12,0,0,0,2.13.32c.5,0,1,0,1.51,0a8,8,0,0,0,1.48-.22v-4.11h-1.69a3.17,3.17,0,0,1-.71-.07,1.62,1.62,0,0,1-.57-.23,1,1,0,0,1-.39-.41,1.35,1.35,0,0,1-.14-.64,1.23,1.23,0,0,1,.39-.94,1.66,1.66,0,0,1,1.17-.36h4.92Z"/></g><path class="cls-3" d="M30.19,17.78C27,22.24,14.82,40.68,16.48,44.24S26.67,52.76,26.9,57,42.67,30.71,51.28,25.26s8.39-6.81,1.17-8.29S30.19,17.78,30.19,17.78Z"/><path class="cls-4" d="M63.54,19.31C59.76,15.52,40.1-.21,30,11.11c-7.76,8.7-13.75,14.2-21,17.67-6.08,2.88,4.69,28.53,10.05,28.44,7.76-.14,7-35.21,17.94-38.45S50.92,19,51.1,22.69,39.79,26.75,34.51,38.87,28.29,52.71,28.7,59.7C30.73,60.24,60.57,26.93,63.54,19.31Z"/><path class="cls-3" d="M126.92,17.78c3.2,4.46,15.37,22.9,13.7,26.46S130.44,52.76,130.21,57s-15.78-26.33-24.39-31.78-8.38-6.81-1.17-8.29S126.92,17.78,126.92,17.78Z"/><path class="cls-4" d="M93.52,19.31C97.3,15.52,117-.21,127.05,11.11c7.76,8.7,13.75,14.2,21,17.67,6.09,2.88-4.69,28.53-10.05,28.44-7.76-.14-7-35.21-17.94-38.45S106.14,19,106,22.69s11.31,4.06,16.59,16.18,6.22,13.84,5.81,20.83C126.38,60.24,96.54,26.93,93.52,19.31Z"/><path class="cls-4" d="M78.55,129.39a18.79,18.79,0,0,1,4.24.45c20.6,4.23,36.06,6,40.84-19.3,2.66-14.06,10.82-24.25,10.82-36.51,0-32.5-20.65-58.82-55.94-58.82S22.57,41.53,22.57,74c0,12.26,8.47,23.08,11.13,37.1,4.78,25.29,19.93,22.94,40.53,18.71a19.82,19.82,0,0,1,4.32-.45Z"/><path class="cls-5" d="M65,67.45c2.16-5.45-4.33-11.63-7.13-11.81s-3.78,2.8-14.11,3.79-6.22,12.3-3.92,17.89,10.55,8.7,16.5-.81C60.39,70,62.37,74,65,67.45Z"/><path class="cls-5" d="M91,67.32c-2.34-5.91,4.69-12.58,7.71-12.76s4.06,3,15.24,4.06,6.71,13.29,4.23,19.29-11.35,9.37-17.85-.9C96,70.07,93.83,74.39,91,67.32Z"/><path class="cls-6" d="M111.68,70.52a6.75,6.75,0,1,1-13-3.56c1-3.61,4.23-4.06,7.84-3.07S112.68,66.91,111.68,70.52Z"/><circle class="cls-2" cx="102.85" cy="65.69" r="1.53"/><path class="cls-6" d="M45.38,70.52A6.75,6.75,0,1,0,58.4,67c-.94-3.61-4.23-4.06-7.84-3.07S44.43,66.91,45.38,70.52Z"/><circle class="cls-2" cx="54.21" cy="65.69" r="1.53"/><path class="cls-2" d="M79.18,72.63h-1.3a6,6,0,0,1-6-6V33.42a6,6,0,0,1,6-6h1.3a6,6,0,0,1,6,6V66.59A6,6,0,0,1,79.18,72.63Z"/><path class="cls-2" d="M114.88,118.48c-2-8.21-1.53-10.87-1.21-18.17.85-20.69-15.15-33.08-35.12-33.08s-36,12.39-35.11,33.08c.31,7.3.77,10-1.22,18.17-2.16,8.79,4.69,17.22,18.39,14.2a94.27,94.27,0,0,1,18-2.21,94.27,94.27,0,0,1,18,2.21C110.2,135.7,117.05,127.31,114.88,118.48Z"/><path class="cls-7" d="M67.37,77c0-6.17,5-7.16,11.18-7.16s11.18,1,11.18,7.16S82.79,87.42,78.55,87.42C74.09,87.42,67.37,83.09,67.37,77Z"/><path class="cls-8" d="M78.55,81.74v24.48c1.54,3.29,11.5,12.26,15.91,14.87"/><path class="cls-8" d="M78.55,81.74v24.48c-1.53,3.29-11.49,12.26-15.91,14.87"/><rect class="cls-9" width="156.07" height="168.39"/></g></g></svg>