<svg xmlns="http://www.w3.org/2000/svg" viewBox="0 0 148.2 164.84"><defs><style>.cls-1{isolation:isolate;}.cls-2{fill:#fff;}.cls-3{fill:#ce87af;}.cls-4{fill:#b3733f;}.cls-5{fill:#6f4727;}.cls-6{fill:#27282e;}.cls-7{fill:#342c2b;}.cls-8{fill:none;stroke:#342c2b;stroke-linecap:round;stroke-linejoin:round;stroke-width:2.15px;}</style></defs><title>bulldogIcon</title><g id="Layer_2" data-name="Layer 2"><g id="Icon"><g class="cls-1"><path class="cls-2" d="M13,148.35a1.94,1.94,0,0,1,.88-1.7,3.08,3.08,0,0,1,.92-.39,5.06,5.06,0,0,1,1.12-.12h3.9l1.76,0a14.73,14.73,0,0,1,1.77.17,9.39,9.39,0,0,1,1.64.43,4.17,4.17,0,0,1,1.34.79,3.61,3.61,0,0,1,.92,1.29,4.58,4.58,0,0,1,.34,1.88,4.24,4.24,0,0,1-.25,1.42,4.15,4.15,0,0,1-.72,1.24,4.4,4.4,0,0,1-1.11.94,4,4,0,0,1-1.42.52v.05a5.69,5.69,0,0,1,1.71.52,4.82,4.82,0,0,1,1.29,1,4.14,4.14,0,0,1,.81,1.34,4.32,4.32,0,0,1,.29,1.62,4.7,4.7,0,0,1-.38,1.87,4.47,4.47,0,0,1-1.15,1.61,5.93,5.93,0,0,1-2,1.14,8.38,8.38,0,0,1-2.85.43H15.91a5.91,5.91,0,0,1-1.26-.11,1.84,1.84,0,0,1-.91-.46,2.17,2.17,0,0,1-.56-1,6.26,6.26,0,0,1-.19-1.68Zm4.44.6v5h1.8a9.26,9.26,0,0,0,1.54-.12,3.58,3.58,0,0,0,1.22-.4,2.09,2.09,0,0,0,.8-.79,2.5,2.5,0,0,0,.29-1.26,2.39,2.39,0,0,0-.29-1.24,1.87,1.87,0,0,0-.77-.73,3.32,3.32,0,0,0-1.14-.36,10.21,10.21,0,0,0-1.39-.1Zm0,12.63h2.09a13.23,13.23,0,0,0,1.77-.1,3.45,3.45,0,0,0,1.28-.4,2,2,0,0,0,.78-.84,3.1,3.1,0,0,0,.27-1.39,2.53,2.53,0,0,0-.3-1.3,2.19,2.19,0,0,0-.86-.79,3.85,3.85,0,0,0-1.33-.41,11.5,11.5,0,0,0-1.74-.12h-2Z"/><path class="cls-2" d="M42.38,148.58a2.58,2.58,0,0,1,.18-1,2.49,2.49,0,0,1,.5-.77,2.25,2.25,0,0,1,.73-.53,2.32,2.32,0,0,1,.91-.19,2.37,2.37,0,0,1,.92.19,2.4,2.4,0,0,1,.74.53,2.49,2.49,0,0,1,.5.77,2.58,2.58,0,0,1,.18,1v9.63a6.76,6.76,0,0,1-.58,2.9,5.7,5.7,0,0,1-1.64,2.06,7.12,7.12,0,0,1-2.49,1.25,11.36,11.36,0,0,1-3.17.42,11.58,11.58,0,0,1-3.14-.41,7.26,7.26,0,0,1-2.49-1.23,5.54,5.54,0,0,1-1.64-2.06,6.84,6.84,0,0,1-.59-2.93v-9.63a2.58,2.58,0,0,1,.18-1,2.49,2.49,0,0,1,.5-.77,2.25,2.25,0,0,1,.73-.53,2.37,2.37,0,0,1,.92-.19,2.32,2.32,0,0,1,.91.19,2.29,2.29,0,0,1,.74.53,2.49,2.49,0,0,1,.5.77,2.58,2.58,0,0,1,.19,1v9.55a4,4,0,0,0,.27,1.56,3.12,3.12,0,0,0,.73,1.07,2.8,2.8,0,0,0,1,.62,3.54,3.54,0,0,0,1.16.2,3.6,3.6,0,0,0,1.17-.2,2.93,2.93,0,0,0,1-.62,3,3,0,0,0,.73-1.07,3.84,3.84,0,0,0,.29-1.56Z"/><path class="cls-2" d="M61.7,161.05a1.57,1.57,0,0,1,.65.13,1.7,1.7,0,0,1,.54.36,1.58,1.58,0,0,1,.35.53,1.65,1.65,0,0,1,.14.65,1.62,1.62,0,0,1-.14.65,1.49,1.49,0,0,1-.35.53,1.7,1.7,0,0,1-.54.36,1.57,1.57,0,0,1-.65.13H53.09A2,2,0,0,1,52,164.1a2.25,2.25,0,0,1-.72-.78,3.41,3.41,0,0,1-.38-1.1,7.47,7.47,0,0,1-.11-1.26V148.58a2.58,2.58,0,0,1,.18-1,2.69,2.69,0,0,1,.5-.77,2.24,2.24,0,0,1,3.3,0,2.52,2.52,0,0,1,.51.77,2.58,2.58,0,0,1,.18,1v12.47Z"/><path class="cls-2" d="M76.76,161.05a1.56,1.56,0,0,1,.64.13,1.7,1.7,0,0,1,.54.36,1.77,1.77,0,0,1,.36.53,1.84,1.84,0,0,1,.13.65,1.79,1.79,0,0,1-.13.65,1.66,1.66,0,0,1-.36.53,1.7,1.7,0,0,1-.54.36,1.56,1.56,0,0,1-.64.13H68.14A2,2,0,0,1,67,164.1a2.25,2.25,0,0,1-.72-.78,3.41,3.41,0,0,1-.38-1.1A7.47,7.47,0,0,1,65.8,161V148.58a2.4,2.4,0,0,1,.19-1,2.47,2.47,0,0,1,.49-.77,2.24,2.24,0,0,1,3.3,0,2.52,2.52,0,0,1,.51.77,2.58,2.58,0,0,1,.18,1v12.47Z"/><path class="cls-2" d="M83,164.39a2.11,2.11,0,0,1-1.12-.27,2.07,2.07,0,0,1-.71-.73,3,3,0,0,1-.37-1,7.49,7.49,0,0,1-.1-1.17V149.37a6.2,6.2,0,0,1,.16-1.46,2.12,2.12,0,0,1,1.53-1.58,5,5,0,0,1,1.51-.19h3.11c3.43,0,6,.75,7.76,2.27s2.62,3.84,2.62,7a10.17,10.17,0,0,1-.72,4,7.35,7.35,0,0,1-2,2.81,8.58,8.58,0,0,1-3.16,1.65,14.59,14.59,0,0,1-4.1.54Zm2.3-2.81h1.73a8.14,8.14,0,0,0,2.46-.33,3.56,3.56,0,0,0,1.7-1.12,5.09,5.09,0,0,0,1-2,11.23,11.23,0,0,0,.32-2.88,7.21,7.21,0,0,0-1.32-4.74,5,5,0,0,0-4-1.56H85.34Z"/><path class="cls-2" d="M99.31,155.28a12.77,12.77,0,0,1,.56-3.84,8.6,8.6,0,0,1,1.68-3,7.65,7.65,0,0,1,2.81-2,10,10,0,0,1,3.94-.72,10.19,10.19,0,0,1,3.89.69,7.57,7.57,0,0,1,2.82,2,8.52,8.52,0,0,1,1.71,3,13.61,13.61,0,0,1,0,7.76,8.21,8.21,0,0,1-1.7,3,7.67,7.67,0,0,1-2.82,2,10,10,0,0,1-3.91.71,10.25,10.25,0,0,1-3.85-.68,7.74,7.74,0,0,1-2.82-1.93,8.19,8.19,0,0,1-1.73-3A12.38,12.38,0,0,1,99.31,155.28Zm4.89,0a9,9,0,0,0,1,4.71,3.82,3.82,0,0,0,6.2,0,8.76,8.76,0,0,0,1-4.71,13.53,13.53,0,0,0-.25-2.69,5.93,5.93,0,0,0-.75-2,3.45,3.45,0,0,0-1.27-1.22,4.24,4.24,0,0,0-3.68,0,3.45,3.45,0,0,0-1.27,1.22,5.93,5.93,0,0,0-.75,2A13.53,13.53,0,0,0,104.2,155.28Z"/><path class="cls-2" d="M134.7,154.56a2.27,2.27,0,0,1,.8.13,1,1,0,0,1,.47.41,1.76,1.76,0,0,1,.22.67,8.41,8.41,0,0,1,.05.93v3.75a8.62,8.62,0,0,1-.13,1.65,2.54,2.54,0,0,1-.5,1.13,2.47,2.47,0,0,1-1,.72,7.8,7.8,0,0,1-1.72.43l-1,.16-1,.14c-.36,0-.71.08-1.06.11s-.67.05-1,.05a13.07,13.07,0,0,1-4-.58,7.8,7.8,0,0,1-3-1.75,7.48,7.48,0,0,1-1.93-3,12.1,12.1,0,0,1-.68-4.25,11.6,11.6,0,0,1,.58-3.72,8.42,8.42,0,0,1,1.74-3,8.31,8.31,0,0,1,3-2.06,11.19,11.19,0,0,1,4.29-.75c.53,0,1.07,0,1.59.08s1,.13,1.53.22,1,.21,1.41.34.86.28,1.24.44a1.83,1.83,0,0,1,.84.65,1.52,1.52,0,0,1,.28.89,1.47,1.47,0,0,1-.48,1.18,1.76,1.76,0,0,1-1.18.4,3.83,3.83,0,0,1-.93-.15c-.39-.09-.8-.2-1.24-.32s-.89-.23-1.35-.33a5.76,5.76,0,0,0-1.25-.14,5.86,5.86,0,0,0-2.37.44,4.09,4.09,0,0,0-1.61,1.29,5.51,5.51,0,0,0-.92,2.05,11.88,11.88,0,0,0-.29,2.72,13.37,13.37,0,0,0,.26,2.83,4.57,4.57,0,0,0,.82,1.89,3.21,3.21,0,0,0,1.45,1.06,6.11,6.11,0,0,0,2.13.33c.51,0,1,0,1.52-.05a8,8,0,0,0,1.48-.22V157.2H130a3.11,3.11,0,0,1-.71-.07,1.75,1.75,0,0,1-.58-.22,1.18,1.18,0,0,1-.38-.42,1.33,1.33,0,0,1-.14-.63,1.28,1.28,0,0,1,.38-1,1.68,1.68,0,0,1,1.18-.36h4.92Z"/></g><path class="cls-3" d="M23.89,11.11C20.56,15.75,7.92,34.9,9.65,38.6s10.58,8.84,10.82,13.29,16.39-27.34,25.33-33,8.71-7.07,1.22-8.61S23.89,11.11,23.89,11.11Z"/><path class="cls-4" d="M58.53,12.7C54.6,8.77,34.19-7.57,23.7,4.18c-8,9-14.28,14.75-21.82,18.36-6.32,3,4.87,29.63,10.44,29.54,8.05-.14,7.3-36.57,18.64-39.94s14.46.19,14.65,4.07S33.86,20.43,28.38,33s-6.46,14.38-6,21.64C24.45,55.22,55.44,20.62,58.53,12.7Z"/><path class="cls-3" d="M124.36,11.11c3.33,4.64,16,23.79,14.24,27.49S128,47.44,127.78,51.89s-16.39-27.34-25.33-33-8.71-7.07-1.22-8.61S124.36,11.11,124.36,11.11Z"/><path class="cls-4" d="M89.67,12.7C93.6,8.77,114-7.57,124.5,4.18c8.06,9,14.28,14.75,21.82,18.36,6.32,3-4.87,29.63-10.44,29.54-8-.14-7.3-36.57-18.63-39.94s-14.47.19-14.66,4.07S114.34,20.43,119.82,33s6.46,14.38,6,21.64C123.8,55.22,92.81,20.62,89.67,12.7Z"/><path class="cls-4" d="M74.12,127a19.79,19.79,0,0,1,4.41.47c21.39,4.4,37.45,6.23,42.42-20,2.76-14.61,11.23-25.19,11.23-37.93,0-33.75-21.44-61.1-58.1-61.1S16,35.79,16,69.54c0,12.74,8.81,24,11.57,38.54,5,26.26,20.69,23.83,42.09,19.43a20.83,20.83,0,0,1,4.49-.47Z"/><path class="cls-5" d="M60,62.71c2.25-5.67-4.49-12.08-7.4-12.27S48.7,53.34,38,54.37,31.52,67.16,33.91,73s11,9,17.13-.84C55.26,65.33,57.32,69.5,60,62.71Z"/><path class="cls-5" d="M87.05,62.57c-2.44-6.14,4.87-13.07,8-13.25s4.22,3.13,15.83,4.21,7,13.81,4.4,20-11.8,9.74-18.54-.94C92.2,65.42,90,69.92,87.05,62.57Z"/><path class="cls-6" d="M108.54,65.89A7,7,0,1,1,95,62.19c1-3.74,4.4-4.21,8.14-3.18S109.57,62.15,108.54,65.89Z"/><circle class="cls-2" cx="99.36" cy="60.88" r="1.59"/><path class="cls-6" d="M39.66,65.89a7,7,0,1,0,13.54-3.7c-1-3.74-4.41-4.21-8.15-3.18S38.68,62.15,39.66,65.89Z"/><circle class="cls-2" cx="48.84" cy="60.88" r="1.59"/><path class="cls-2" d="M74.78,68.09H73.42a6.27,6.27,0,0,1-6.27-6.27V27.36a6.28,6.28,0,0,1,6.27-6.28h1.36a6.28,6.28,0,0,1,6.27,6.28V61.82A6.27,6.27,0,0,1,74.78,68.09Z"/><path class="cls-2" d="M111.86,114.73c-2.06-8.52-1.59-11.29-1.26-18.87.89-21.49-15.73-34.37-36.48-34.37S36.71,74.37,37.65,95.86c.33,7.58.8,10.35-1.26,18.87-2.25,9.13,4.87,17.88,19.1,14.75a98.2,98.2,0,0,1,18.68-2.3,98.1,98.1,0,0,1,18.68,2.3C107,132.61,114.11,123.9,111.86,114.73Z"/><path class="cls-7" d="M62.51,72.59c0-6.42,5.2-7.45,11.61-7.45s11.62,1,11.62,7.45S78.53,83.45,74.12,83.45C69.49,83.45,62.51,79,62.51,72.59Z"/><path class="cls-8" d="M74.12,77.55V103c1.6,3.42,11.94,12.74,16.53,15.46"/><path class="cls-8" d="M74.12,77.55V103c-1.59,3.42-11.93,12.74-16.52,15.46"/></g></g></svg>