<?xml version="1.0" encoding="utf-8"?>
<!-- Generator: Adobe Illustrator 22.0.1, SVG Export Plug-In . SVG Version: 6.00 Build 0)  -->
<svg version="1.1" id="Layer_1" xmlns="http://www.w3.org/2000/svg" xmlns:xlink="http://www.w3.org/1999/xlink" x="0px" y="0px"
	 viewBox="0 0 43.7 112.2" style="enable-background:new 0 0 43.7 112.2;" xml:space="preserve">
<style type="text/css">
	.st0{fill:#3B6081;}
</style>
<title>comb2_1</title>
<g id="Layer_2_1_">
	<g id="FRISBEE">
		<path class="st0" d="M25.6,0h12.8c2.9,0,5.2,2.3,5.2,5.2c0,0,0,0,0,0V107c0,2.9-2.3,5.2-5.2,5.2H25.6l0,0V0L25.6,0z"/>
		<path class="st0" d="M1,0h34.2c0.5,0,1,0.4,1,1v0c0,0.5-0.4,1-1,1H1C0.4,2,0,1.5,0,1v0C0,0.4,0.4,0,1,0z"/>
		<path class="st0" d="M1,5.3h34.2c0.5,0,1,0.4,1,1v0c0,0.5-0.4,1-1,1H1c-0.5,0-1-0.4-1-1v0C0,5.7,0.4,5.3,1,5.3z"/>
		<path class="st0" d="M1,10.5h34.2c0.5,0,1,0.4,1,1v0c0,0.5-0.4,1-1,1H1c-0.5,0-1-0.4-1-1v0C0,10.9,0.4,10.5,1,10.5z"/>
		<path class="st0" d="M1,15.7h34.2c0.5,0,1,0.4,1,1v0c0,0.5-0.4,1-1,1H1c-0.5,0-1-0.4-1-1v0C0,16.2,0.4,15.7,1,15.7z"/>
		<path class="st0" d="M1,21h34.2c0.5,0,1,0.4,1,1v0c0,0.5-0.4,1-1,1H1c-0.5,0-1-0.4-1-1v0C0,21.4,0.4,21,1,21z"/>
		<path class="st0" d="M1,26.2h34.2c0.5,0,1,0.4,1,1v0c0,0.5-0.4,1-1,1H1c-0.5,0-1-0.4-1-1v0C0,26.7,0.4,26.2,1,26.2z"/>
		<path class="st0" d="M1,31.5h34.2c0.5,0,1,0.4,1,1v0c0,0.5-0.4,1-1,1H1c-0.5,0-1-0.4-1-1v0C0,31.9,0.4,31.5,1,31.5z"/>
		<path class="st0" d="M1,36.7h34.2c0.5,0,1,0.4,1,1v0c0,0.5-0.4,1-1,1H1c-0.5,0-1-0.4-1-1v0C0,37.2,0.4,36.7,1,36.7z"/>
		<path class="st0" d="M1,42h34.2c0.5,0,1,0.4,1,1v0c0,0.5-0.4,1-1,1H1c-0.5,0-1-0.4-1-1v0C0,42.4,0.4,42,1,42z"/>
		<path class="st0" d="M1,47.2h34.2c0.5,0,1,0.4,1,1v0c0,0.5-0.4,1-1,1H1c-0.5,0-1-0.4-1-1v0C0,47.7,0.4,47.2,1,47.2z"/>
		<path class="st0" d="M1,52.5h34.2c0.5,0,1,0.4,1,1v0c0,0.5-0.4,1-1,1H1c-0.5,0-1-0.4-1-1v0C0,52.9,0.4,52.5,1,52.5z"/>
		<path class="st0" d="M1,57.7h34.2c0.5,0,1,0.4,1,1v0c0,0.5-0.4,1-1,1H1c-0.5,0-1-0.4-1-1v0C0,58.2,0.4,57.7,1,57.7z"/>
		<path class="st0" d="M1,63h34.2c0.5,0,1,0.4,1,1v0c0,0.5-0.4,1-1,1H1c-0.5,0-1-0.4-1-1v0C0,63.4,0.4,63,1,63z"/>
		<path class="st0" d="M1,68.2h34.2c0.5,0,1,0.4,1,1v0c0,0.5-0.4,1-1,1H1c-0.5,0-1-0.4-1-1v0C0,68.6,0.4,68.2,1,68.2z"/>
		<path class="st0" d="M1,73.5h34.2c0.5,0,1,0.4,1,1v0c0,0.5-0.4,1-1,1H1c-0.5,0-1-0.4-1-1v0C0,73.9,0.4,73.5,1,73.5z"/>
		<path class="st0" d="M1,78.7h34.2c0.5,0,1,0.4,1,1v0c0,0.5-0.4,1-1,1H1c-0.5,0-1-0.4-1-1v0C0,79.1,0.4,78.7,1,78.7z"/>
		<path class="st0" d="M1,84h34.2c0.5,0,1,0.4,1,1v0c0,0.5-0.4,1-1,1H1c-0.5,0-1-0.4-1-1v0C0,84.4,0.4,84,1,84z"/>
		<path class="st0" d="M1,89.2h34.2c0.5,0,1,0.4,1,1v0c0,0.5-0.4,1-1,1H1c-0.5,0-1-0.4-1-1v0C0,89.6,0.4,89.2,1,89.2z"/>
		<path class="st0" d="M1,94.5h34.2c0.5,0,1,0.4,1,1v0c0,0.5-0.4,1-1,1H1c-0.5,0-1-0.4-1-1v0C0,94.9,0.4,94.5,1,94.5z"/>
		<path class="st0" d="M1,99.7h34.2c0.5,0,1,0.4,1,1v0c0,0.5-0.4,1-1,1H1c-0.5,0-1-0.4-1-1v0C0,100.1,0.4,99.7,1,99.7z"/>
		<path class="st0" d="M1,105h34.2c0.5,0,1,0.4,1,1v0c0,0.5-0.4,1-1,1H1c-0.5,0-1-0.4-1-1v0C0,105.4,0.4,105,1,105z"/>
		<path class="st0" d="M1,110.2h34.2c0.5,0,1,0.4,1,1v0c0,0.5-0.4,1-1,1H1c-0.5,0-1-0.4-1-1v0C0,110.6,0.4,110.2,1,110.2z"/>
	</g>
</g>
</svg>
