<svg xmlns="http://www.w3.org/2000/svg" viewBox="0 0 148.7 189.11"><defs><style>.cls-1{fill:#507b9b;}.cls-2{fill:#79ad84;}.cls-3{fill:#51504c;}</style></defs><title>comb</title><g id="Layer_2" data-name="Layer 2"><g id="Layer_1-2" data-name="Layer 1"><ellipse class="cls-1" cx="9.09" cy="181.02" rx="6.26" ry="10.29" transform="translate(-137.56 74.5) rotate(-51.13)"/><path class="cls-2" d="M1.71,177.35l12.45,10.23c2.13,1.75,5.3,1.3,7.49-1.45l50.46-66.56-15-12.32L1.6,169.65C-.68,172.33-.42,175.6,1.71,177.35Z"/><ellipse class="cls-2" cx="112.71" cy="55.09" rx="53.14" ry="16.19" transform="translate(-1.41 107.18) rotate(-50.58)"/><ellipse class="cls-1" cx="109.07" cy="50.74" rx="49.42" ry="10.52" transform="translate(-0.05 101.37) rotate(-49.84)"/><rect class="cls-3" x="104.53" y="13.22" width="33.34" height="2.95" rx="1.47" ry="1.47" transform="translate(36.9 -73.62) rotate(39.42)"/><rect class="cls-3" x="110.71" y="8.42" width="29.39" height="2.95" rx="1.41" ry="1.41" transform="translate(34.81 -77.38) rotate(39.42)"/><rect class="cls-3" x="98.24" y="17.86" width="37.12" height="2.95" rx="1.47" ry="1.47" transform="translate(38.84 -69.76) rotate(39.42)"/><rect class="cls-3" x="92.42" y="22.5" width="40.22" height="3.14" rx="1.57" ry="1.57" transform="translate(40.88 -65.97) rotate(39.42)"/><rect class="cls-3" x="85.79" y="27.23" width="42.17" height="3.26" rx="1.63" ry="1.63" transform="translate(42.64 -61.29) rotate(39.42)"/><rect class="cls-3" x="81.11" y="31.94" width="42.88" height="3.26" rx="1.63" ry="1.63" transform="translate(44.64 -57.48) rotate(39.42)"/><rect class="cls-3" x="76.37" y="36.62" width="43.66" height="3.26" rx="1.63" ry="1.63" transform="translate(46.62 -53.65) rotate(39.42)"/><rect class="cls-3" x="58.28" y="67.75" width="33.34" height="2.95" rx="1.47" ry="1.47" transform="translate(61 -31.84) rotate(39.42)"/><rect class="cls-3" x="56.36" y="72.81" width="29.39" height="2.95" rx="1.41" ry="1.41" transform="translate(63.33 -28.22) rotate(39.42)"/><rect class="cls-3" x="60.09" y="62.53" width="37.12" height="2.95" rx="1.47" ry="1.47" transform="translate(58.53 -35.38) rotate(39.42)"/><rect class="cls-3" x="62.37" y="57.33" width="40.22" height="3.14" rx="1.57" ry="1.57" transform="translate(56.16 -38.97) rotate(39.42)"/><rect class="cls-3" x="65.27" y="52.2" width="42.17" height="3.26" rx="1.63" ry="1.63" transform="translate(53.82 -42.59) rotate(39.42)"/><rect class="cls-3" x="68.69" y="47.05" width="42.88" height="3.26" rx="1.63" ry="1.63" transform="translate(51.41 -46.16) rotate(39.42)"/><rect class="cls-3" x="72.05" y="41.87" width="43.66" height="3.26" rx="1.63" ry="1.63" transform="translate(48.98 -49.72) rotate(39.42)"/><path class="cls-2" d="M76.72,89.63,63.19,106.08h0c-.17.29,1.46,2.22,3.89,4.22s4.76,3.31,5,3.09h0L87.26,94.94l-8.61-.31Z"/><rect class="cls-1" x="50.58" y="107.96" width="28.01" height="9.72" rx="4.86" ry="4.86" transform="translate(87.99 -15.06) rotate(40.16)"/></g></g></svg>