<svg xmlns="http://www.w3.org/2000/svg" viewBox="0 0 80.28 73.82"><defs><style>.cls-1{fill:#3bae8b;}.cls-2,.cls-6,.cls-8{fill:none;}.cls-2{stroke:#3bae8b;stroke-width:7px;}.cls-2,.cls-8{stroke-linecap:round;stroke-linejoin:round;}.cls-3{fill:#603813;}.cls-4{fill:#724617;}.cls-5{fill:#775235;}.cls-7{fill:#d0dac5;opacity:0.45;}.cls-8{stroke:#d33737;stroke-width:2.22px;}</style></defs><title>cup</title><g id="Layer_2" data-name="Layer 2"><g id="background"><path class="cls-1" d="M60.69,73.82H28.92a6.75,6.75,0,0,1-6.74-6.37l-3.1-55.3H69.75L67.43,67.36A6.74,6.74,0,0,1,60.69,73.82Z"/><path class="cls-2" d="M19.08,19.32C15.5,19.07,8.58,23.4,6.81,31.48c-1,4.74-3.31,15.84-3.31,15.84"/><polygon class="cls-1" points="80.28 12.15 68.28 12.15 67.77 24.32 80.28 12.15"/><rect class="cls-3" x="45.21" y="47.66" width="7.31" height="7.31" rx="2.85" ry="2.85"/><rect class="cls-3" x="51.1" y="48.18" width="7.98" height="6.84" rx="2.88" ry="2.88" transform="translate(-10.91 14.97) rotate(-14.1)"/><rect class="cls-3" x="37.07" y="49.37" width="7.31" height="7.31" rx="2.29" ry="2.29" transform="matrix(0.78, 0.63, -0.63, 0.78, 42.17, -13.82)"/><rect class="cls-3" x="26.02" y="45.11" width="7.31" height="7.31" rx="2.85" ry="2.85" transform="translate(-9.22 6.98) rotate(-11.62)"/><rect class="cls-4" x="38.24" y="33.32" width="7.31" height="7.31" rx="2.85" ry="2.85"/><rect class="cls-4" x="56.75" y="32.68" width="7.31" height="7.31" rx="2.85" ry="2.85" transform="translate(-9.8 30.02) rotate(-25.89)"/><rect class="cls-3" x="38.72" y="41.63" width="7.31" height="7.31" rx="2.85" ry="2.85" transform="translate(-12.3 16.01) rotate(-18.74)"/><rect class="cls-4" x="44.51" y="37.98" width="7.31" height="7.31" rx="2.85" ry="2.85"/><rect class="cls-3" x="40.16" y="55.33" width="7.31" height="7.31" rx="2.85" ry="2.85"/><rect class="cls-4" x="25.26" y="52.1" width="7.31" height="7.31" rx="2.85" ry="2.85" transform="translate(-10.64 6.97) rotate(-11.62)"/><rect class="cls-4" x="25.26" y="37.58" width="7.31" height="7.31" rx="2.85" ry="2.85"/><rect class="cls-3" x="48.88" y="40.07" width="7.31" height="7.31" rx="2.57" ry="2.57" transform="translate(14.03 -12.75) rotate(15.94)"/><rect class="cls-4" x="31.63" y="44.89" width="7.31" height="7.31" rx="2.85" ry="2.85"/><rect class="cls-5" x="55.96" y="57.62" width="7.31" height="7.31" rx="2.85" ry="2.85" transform="translate(-11.12 13.27) rotate(-11.62)"/><rect class="cls-4" x="56.75" y="52.26" width="7.31" height="7.31" rx="2.85" ry="2.85" transform="matrix(0.99, 0.15, -0.15, 0.99, 8.78, -8.19)"/><rect class="cls-4" x="48.86" y="62.71" width="7.31" height="7.31" rx="2.85" ry="2.85"/><rect class="cls-4" x="56.75" y="41.23" width="7.31" height="7.31" rx="2.85" ry="2.85" transform="translate(-9.11 16.06) rotate(-14.1)"/><rect class="cls-3" x="42.3" y="62.42" width="9.22" height="7.9" rx="3.33" ry="3.33" transform="translate(-14.75 13.42) rotate(-14.1)"/><rect class="cls-4" x="31.92" y="55.33" width="7.31" height="7.31" rx="2.85" ry="2.85" transform="translate(-24.73 25.69) rotate(-30)"/><rect class="cls-4" x="48.16" y="55.33" width="7.31" height="7.31" rx="2.85" ry="2.85"/><rect class="cls-4" x="25.82" y="60.37" width="7.31" height="7.31" rx="2.85" ry="2.85" transform="translate(-19 12.86) rotate(-18.74)"/><rect class="cls-4" x="38.24" y="61.69" width="7.31" height="7.31" rx="2.85" ry="2.85"/><rect class="cls-4" x="55.08" y="63.2" width="7.31" height="7.31" rx="2.85" ry="2.85" transform="translate(-23.29 32.35) rotate(-25.89)"/><rect class="cls-3" x="31.63" y="63.83" width="7.31" height="7.31" rx="2.85" ry="2.85"/><rect class="cls-4" x="28.92" y="16.84" width="7.31" height="7.31" rx="2.85" ry="2.85"/><rect class="cls-3" x="24" y="20.67" width="7.31" height="7.31" rx="2.85" ry="2.85" transform="translate(7.75 -6.66) rotate(15.94)"/><rect class="cls-4" x="23.34" y="10.71" width="7.31" height="7.31" rx="2.61" ry="2.61" transform="translate(6.34 -8.18) rotate(19.48)"/><rect class="cls-4" x="38.72" y="11.32" width="7.31" height="7.31" rx="2.85" ry="2.85" transform="matrix(0.95, -0.32, 0.32, 0.95, -2.57, 14.41)"/><rect class="cls-4" x="50.04" y="13.18" width="7.31" height="7.31" rx="2.85" ry="2.85" transform="translate(-1.23 29.1) rotate(-30)"/><rect class="cls-4" x="58.51" y="8.9" width="7.31" height="7.31" rx="2.85" ry="2.85" transform="translate(5.84 -16.59) rotate(15.94)"/><rect class="cls-4" x="36.37" y="16.84" width="7.31" height="7.31" rx="2.85" ry="2.85" transform="translate(-3.31 8.49) rotate(-11.62)"/><rect class="cls-4" x="51.13" y="29.66" width="7.31" height="7.31" rx="2.85" ry="2.85" transform="translate(24 -22.93) rotate(30)"/><rect class="cls-4" x="44.6" y="30.09" width="7.31" height="7.31" rx="2.85" ry="2.85" transform="matrix(0.95, -0.32, 0.32, 0.95, -8.28, 17.29)"/><rect class="cls-3" x="30.94" y="35.39" width="7.31" height="7.31" rx="2.85" ry="2.85"/><rect class="cls-4" x="30.94" y="29.66" width="7.31" height="7.31" rx="2.85" ry="2.85" transform="translate(-6 7.65) rotate(-11.62)"/><rect class="cls-4" x="44.6" y="17.98" width="7.31" height="7.31" rx="2.85" ry="2.85"/><rect class="cls-4" x="56.75" y="17.78" width="7.31" height="7.31" rx="2.85" ry="2.85" transform="translate(-2.62 33.07) rotate(-30)"/><rect class="cls-4" x="33.08" y="23.74" width="7.31" height="7.31" rx="2.85" ry="2.85" transform="translate(20.41 -15.42) rotate(32.42)"/><rect class="cls-3" x="40.73" y="23.74" width="7.31" height="7.31" rx="2.85" ry="2.85"/><rect class="cls-3" x="57.15" y="25.18" width="7.31" height="7.31" rx="2.85" ry="2.85"/><rect class="cls-3" x="24" y="28.83" width="7.31" height="7.31" rx="2.85" ry="2.85" transform="translate(37.45 -9.03) rotate(53.68)"/><rect class="cls-4" x="49.06" y="22.8" width="7.31" height="7.31" rx="2.85" ry="2.85" transform="matrix(0.87, 0.5, -0.5, 0.87, 20.29, -22.81)"/><path class="cls-6" d="M59.76,71.14h-30a4.4,4.4,0,0,1-4.26-4.29L22.77,15h43.3L64,66.79A4.39,4.39,0,0,1,59.76,71.14Z"/><path class="cls-7" d="M59.76,71.14h-30a4.4,4.4,0,0,1-4.26-4.29L22.77,15h43.3L64,66.78A4.39,4.39,0,0,1,59.76,71.14Z"/><line class="cls-8" x1="51.56" y1="21.64" x2="65.08" y2="21.64"/><line class="cls-8" x1="51.56" y1="40.01" x2="65.08" y2="40.01"/><line class="cls-8" x1="57.15" y1="30.64" x2="65.08" y2="30.64"/><line class="cls-8" x1="57.15" y1="50.51" x2="65.08" y2="50.51"/><line class="cls-8" x1="51.56" y1="59.89" x2="65.08" y2="59.89"/><rect class="cls-4" x="43.66" y="0.15" width="7.31" height="7.31" rx="2.85" ry="2.85" transform="translate(0.2 9.61) rotate(-11.62)"/><rect class="cls-4" x="36.61" y="3.8" width="7.31" height="7.31" rx="2.85" ry="2.85"/><rect class="cls-3" x="45.58" y="7.53" width="7.31" height="7.31" rx="2.85" ry="2.85" transform="translate(12.19 -23.12) rotate(30)"/><rect class="cls-3" x="54.66" y="5.24" width="7.31" height="7.31" rx="2.85" ry="2.85" transform="matrix(0.99, -0.16, 0.16, 0.99, -0.67, 9.29)"/><rect class="cls-3" x="27.28" y="4.36" width="7.31" height="7.31" rx="2.85" ry="2.85" transform="translate(2.83 23.23) rotate(-42.95)"/><rect class="cls-4" x="29.97" y="9.75" width="7.31" height="7.31" rx="2.61" ry="2.61" transform="translate(6.39 -10.44) rotate(19.48)"/></g></g></svg>