<?xml version="1.0" encoding="iso-8859-1"?>
<!-- Generator: Adobe Illustrator 19.0.0, SVG Export Plug-In . SVG Version: 6.00 Build 0)  -->
<svg version="1.1" id="Layer_1" xmlns="http://www.w3.org/2000/svg" xmlns:xlink="http://www.w3.org/1999/xlink" x="0px" y="0px"
	 viewBox="0 0 512 512" style="enable-background:new 0 0 512 512;" xml:space="preserve">
<g>
	<g>
		<g>
			<path style="fill:#FFEBB7;" d="M488,72H24C10.766,72,0,82.766,0,96v320c0,13.234,10.766,24,24,24h464c13.234,0,24-10.766,24-24
				V96C512,82.766,501.234,72,488,72z"/>
		</g>
	</g>
	<g>
		<g>
			<path style="fill:#00C37A;" d="M40.023,160c-2.164,0-4.242-0.883-5.687-2.32c-1.516-1.52-2.313-3.52-2.313-5.68
				c0-2.082,0.797-4.16,2.313-5.68c2.961-2.961,8.32-2.961,11.367,0c1.438,1.52,2.32,3.598,2.32,5.68c0,2.078-0.883,4.16-2.32,5.68
				C44.18,159.117,42.102,160,40.023,160z"/>
		</g>
	</g>
	<g>
		<g>
			<path style="fill:#60DC4D;" d="M40,336c-4.422,0-8-3.582-8-8V183.996c0-4.418,3.578-8,8-8s8,3.582,8,8V328
				C48,332.418,44.422,336,40,336z"/>
		</g>
	</g>
	<g>
		<g>
			<path style="fill:#60DC4D;" d="M472,336c-4.422,0-8-3.582-8-8V183.996c0-4.418,3.578-8,8-8s8,3.582,8,8V328
				C480,332.418,476.422,336,472,336z"/>
		</g>
	</g>
	<g>
		<g>
			<path style="fill:#60DC4D;" d="M400,408H112c-4.422,0-8-3.582-8-8s3.578-8,8-8h288c4.422,0,8,3.582,8,8S404.422,408,400,408z"/>
		</g>
	</g>
	<g>
		<g>
			<path style="fill:#60DC4D;" d="M400,120H112c-4.422,0-8-3.582-8-8s3.578-8,8-8h288c4.422,0,8,3.582,8,8S404.422,120,400,120z"/>
		</g>
	</g>
	<g>
		<g>
			<path style="fill:#00C37A;" d="M80.023,120c-2.164,0-4.164-0.883-5.687-2.32c-1.516-1.52-2.313-3.602-2.313-5.68
				c0-2.082,0.797-4.16,2.313-5.68c3.047-2.961,8.32-2.961,11.281,0c1.523,1.52,2.406,3.598,2.406,5.68
				c0,2.078-0.883,4.16-2.32,5.68C84.18,119.117,82.102,120,80.023,120z"/>
		</g>
	</g>
	<g>
		<g>
			<path style="fill:#00A077;" d="M64,144c-2.047,0-4.094-0.781-5.656-2.344l-24-24c-3.125-3.125-3.125-8.188,0-11.313
				s8.187-3.125,11.312,0l24,24c3.125,3.125,3.125,8.188,0,11.313C68.094,143.219,66.047,144,64,144z"/>
		</g>
	</g>
	<g>
		<g>
			<path style="fill:#00C37A;" d="M432.023,120c-2.164,0-4.242-0.883-5.688-2.32c-1.516-1.52-2.313-3.602-2.313-5.68
				c0-2.082,0.797-4.16,2.313-5.68c2.961-2.961,8.32-2.961,11.281,0c1.523,1.52,2.406,3.598,2.406,5.68
				c0,2.078-0.883,4.16-2.32,5.68C436.18,119.117,434.101,120,432.023,120z"/>
		</g>
	</g>
	<g>
		<g>
			<path style="fill:#00C37A;" d="M472.023,160c-2.164,0-4.242-0.883-5.688-2.32c-1.516-1.52-2.313-3.602-2.313-5.68
				c0-2.082,0.797-4.16,2.313-5.68c2.961-2.961,8.406-2.961,11.281,0c1.523,1.52,2.406,3.598,2.406,5.68
				c0,2.078-0.883,4.16-2.406,5.68C476.18,159.117,474.101,160,472.023,160z"/>
		</g>
	</g>
	<g>
		<g>
			<path style="fill:#00A077;" d="M448,144c-2.047,0-4.094-0.781-5.656-2.344c-3.125-3.125-3.125-8.188,0-11.313l24-24
				c3.125-3.125,8.188-3.125,11.313,0s3.125,8.188,0,11.313l-24,24C452.094,143.219,450.047,144,448,144z"/>
		</g>
	</g>
	<g>
		<g>
			<path style="fill:#00C37A;" d="M472.023,368c-2.086,0-4.164-0.883-5.688-2.32c-1.516-1.52-2.313-3.602-2.313-5.68
				c0-2.082,0.797-4.16,2.313-5.68c2.961-2.961,8.32-2.961,11.281,0c1.523,1.52,2.406,3.598,2.406,5.68
				c0,2.078-0.883,4.16-2.406,5.68C476.18,367.117,474.101,368,472.023,368z"/>
		</g>
	</g>
	<g>
		<g>
			<path style="fill:#00C37A;" d="M432.023,408c-2.164,0-4.242-0.883-5.688-2.32c-1.516-1.52-2.313-3.52-2.313-5.68
				s0.797-4.16,2.313-5.68c2.961-2.961,8.32-2.961,11.281,0c1.523,1.52,2.406,3.598,2.406,5.68c0,2.078-0.883,4.16-2.406,5.68
				C436.18,407.117,434.101,408,432.023,408z"/>
		</g>
	</g>
	<g>
		<g>
			<path style="fill:#00A077;" d="M472,408c-2.047,0-4.094-0.781-5.656-2.344l-24-24c-3.125-3.125-3.125-8.188,0-11.313
				s8.188-3.125,11.313,0l24,24c3.125,3.125,3.125,8.187,0,11.312C476.094,407.219,474.047,408,472,408z"/>
		</g>
	</g>
	<g>
		<g>
			<path style="fill:#00C37A;" d="M80.023,408c-2.086,0-4.164-0.883-5.687-2.32c-1.516-1.52-2.313-3.602-2.313-5.68
				c0-2.082,0.797-4.16,2.313-5.68c2.961-2.961,8.32-2.961,11.367,0c1.438,1.52,2.32,3.598,2.32,5.68c0,2.078-0.883,4.16-2.32,5.68
				C84.18,407.117,82.102,408,80.023,408z"/>
		</g>
	</g>
	<g>
		<g>
			<path style="fill:#00C37A;" d="M40.023,368c-2.164,0-4.242-0.883-5.687-2.32c-1.516-1.52-2.313-3.52-2.313-5.68
				c0-2.082,0.797-4.16,2.313-5.68c2.961-2.961,8.32-2.961,11.367,0c1.438,1.52,2.32,3.598,2.32,5.68c0,2.078-0.883,4.16-2.32,5.68
				C44.18,367.117,42.102,368,40.023,368z"/>
		</g>
	</g>
	<g>
		<g>
			<path style="fill:#00A077;" d="M40,408c-2.047,0-4.094-0.781-5.656-2.344c-3.125-3.125-3.125-8.187,0-11.312l24-24
				c3.125-3.125,8.187-3.125,11.312,0s3.125,8.188,0,11.313l-24,24C44.094,407.219,42.047,408,40,408z"/>
		</g>
	</g>
	<g>
		<g>
			<path style="fill:#00A077;" d="M320,168H192c-4.422,0-8-3.582-8-8s3.578-8,8-8h128c4.422,0,8,3.582,8,8S324.422,168,320,168z"/>
		</g>
	</g>
	<g>
		<g>
			<path style="fill:#00A077;" d="M400,200H112c-4.422,0-8-3.582-8-8s3.578-8,8-8h288c4.422,0,8,3.582,8,8S404.422,200,400,200z"/>
		</g>
	</g>
	<g>
		<g>
			<path style="fill:#C9A07C;" d="M288,256H112c-4.422,0-8-3.582-8-8s3.578-8,8-8h176c4.422,0,8,3.582,8,8S292.422,256,288,256z"/>
		</g>
	</g>
	<g>
		<g>
			<path style="fill:#C9A07C;" d="M240,352H112c-4.422,0-8-3.582-8-8s3.578-8,8-8h128c4.422,0,8,3.582,8,8S244.422,352,240,352z"/>
		</g>
	</g>
	<g>
		<g>
			<path style="fill:#C9A07C;" d="M272,320H112c-4.422,0-8-3.582-8-8s3.578-8,8-8h160c4.422,0,8,3.582,8,8S276.422,320,272,320z"/>
		</g>
	</g>
	<g>
		<g>
			<path style="fill:#C9A07C;" d="M208,288h-96c-4.422,0-8-3.582-8-8s3.578-8,8-8h96c4.422,0,8,3.582,8,8S212.422,288,208,288z"/>
		</g>
	</g>
	<g>
		<g>
			<path style="fill:#C9A07C;" d="M256,288h-16c-4.422,0-8-3.582-8-8s3.578-8,8-8h16c4.422,0,8,3.582,8,8S260.422,288,256,288z"/>
		</g>
	</g>
	<g>
		<path style="fill:#E3001E;" d="M401.702,302.451l18.383,44.381c1.364,3.292-1.934,6.59-5.226,5.226l-11.983-4.964l-4.964,11.983
			c-1.364,3.292-6.027,3.292-7.391,0L371.021,312"/>
	</g>
	<g>
		<path style="fill:#FF4F19;" d="M349.064,301.757l-18.671,45.075c-1.364,3.292,1.934,6.59,5.226,5.226l11.983-4.964l4.964,11.983
			c1.364,3.292,6.027,3.292,7.391,0l19.5-47.078"/>
	</g>
	<g>
		<circle style="fill:#FFCD00;" cx="375.781" cy="272" r="40"/>
	</g>
	<g>
		<path style="fill:#FFE671;" d="M375.781,256c-8.82,0-16,7.176-16,16s7.18,16,16,16s16-7.176,16-16S384.601,256,375.781,256z"/>
	</g>
</g>
<g>
</g>
<g>
</g>
<g>
</g>
<g>
</g>
<g>
</g>
<g>
</g>
<g>
</g>
<g>
</g>
<g>
</g>
<g>
</g>
<g>
</g>
<g>
</g>
<g>
</g>
<g>
</g>
<g>
</g>
</svg>
