<svg xmlns="http://www.w3.org/2000/svg" viewBox="0 0 166.8 66.41"><defs><style>.cls-1{fill:#6b5641;}.cls-2{fill:#db5b58;}.cls-3{fill:#f9f7e2;}</style></defs><title>dogplate</title><g id="Layer_2" data-name="Layer 2"><g id="Layer_1-2" data-name="Layer 1"><ellipse class="cls-1" cx="84.15" cy="6.16" rx="72.13" ry="6.16"/><path class="cls-2" d="M356.28,106.16c0,3.41-32.29,6.16-72.13,6.16S212,109.57,212,106.16l-12,48.75c0,3.4,38.09,11.5,84.15,11.5s82.65-8.1,82.65-11.5Z" transform="translate(-200 -100)"/><path class="cls-3" d="M323.1,139.39h0a1.89,1.89,0,0,1,0-3,9.39,9.39,0,0,0-7-16.69,9.5,9.5,0,0,0-7.22,5.22,10.66,10.66,0,0,0-.64,1.62,6.13,6.13,0,0,1-5.83,4.55h-36a6.13,6.13,0,0,1-5.83-4.55,9.71,9.71,0,0,0-.64-1.62,9.35,9.35,0,0,0-17.78,4.1,9.39,9.39,0,0,0,3.57,7.37,1.89,1.89,0,0,1,0,3h0a9.37,9.37,0,0,0,7,16.64,9.47,9.47,0,0,0,7.23-5.21,9.8,9.8,0,0,0,.64-1.63,6.14,6.14,0,0,1,5.83-4.55h36a6.13,6.13,0,0,1,5.83,4.55,10.76,10.76,0,0,0,.64,1.63,9.36,9.36,0,0,0,17.78-4.11A9.31,9.31,0,0,0,323.1,139.39Z" transform="translate(-200 -100)"/></g></g></svg>