<svg xmlns="http://www.w3.org/2000/svg" viewBox="0 0 55.95 41.43"><defs><style>.cls-1{fill:#f0f0f0;}</style></defs><title>food-colored</title><g id="Layer_2" data-name="Layer 2"><g id="Icon"><path class="cls-1" d="M51.06,12h0a1.4,1.4,0,0,1-.86-2,6.87,6.87,0,0,0,.18-5.84A6.58,6.58,0,0,0,41.07.86,6.56,6.56,0,0,0,38,6.27,7.3,7.3,0,0,0,38,7.52a4.26,4.26,0,0,1-2.4,4.58l-7.71,3.41-11.4,4.87a4.27,4.27,0,0,1-5-1.42,6.65,6.65,0,0,0-.86-.91,6.57,6.57,0,0,0-6-1.49,6.57,6.57,0,0,0-4,9,6.8,6.8,0,0,0,4.34,3.9,1.4,1.4,0,0,1,.81,2h0a6.84,6.84,0,0,0-.17,5.81,6.57,6.57,0,0,0,9.31,3.3A6.54,6.54,0,0,0,18,35.16a7.23,7.23,0,0,0-.06-1.25,4.27,4.27,0,0,1,2.41-4.58l11.41-4.88L39.44,21a4.26,4.26,0,0,1,5,1.43,7.32,7.32,0,0,0,.87.9,6.4,6.4,0,0,0,10.1-7.52A6.85,6.85,0,0,0,51.06,12Z"/></g></g></svg>