<svg xmlns="http://www.w3.org/2000/svg" viewBox="0 0 126.82 156.87"><defs><style>.cls-1{fill:#c9902d;}.cls-2{fill:#ce9b42;}.cls-3{fill:#ad2832;stroke:#512320;stroke-miterlimit:10;stroke-width:5.25px;}.cls-4{fill:#603c11;opacity:0.38;}.cls-5{fill:#fefaf4;}.cls-6{fill:#724617;}</style></defs><title>foodbag</title><g id="Layer_2" data-name="Layer 2"><g id="Icon"><path class="cls-1" d="M117.05,156.41l-107.21.46c-5.43,0-9.84-4.9-9.84-11l1.8-34.7L0,49H126.82l-3.66,67.23,3.66,29.25C126.82,151.48,122.45,156.38,117.05,156.41Z"/><polygon class="cls-2" points="126.82 48.96 0 48.96 6.06 17.32 120.86 17.32 126.82 48.96"/><rect class="cls-1" x="2.09" width="121.93" height="19.9" rx="2.43" ry="2.43" transform="translate(126.11 19.9) rotate(180)"/><circle class="cls-3" cx="63.19" cy="83.83" r="23.72"/><polygon class="cls-4" points="4.39 19.9 121.73 19.9 123.34 30.5 4.39 19.9"/><path class="cls-5" d="M71.22,88.93A5.88,5.88,0,0,1,69,85.86q-1.47-4.76-5.8-4.76a6.06,6.06,0,0,0-5.84,4.51,7.6,7.6,0,0,1-2.45,3.53,5.15,5.15,0,0,0-1.93,4,5.22,5.22,0,0,0,5.25,5.19,5.13,5.13,0,0,0,1.12-.12,18.5,18.5,0,0,1,7.7,0,5.19,5.19,0,0,0,4.18-9.3Z"/><ellipse class="cls-5" cx="57.86" cy="74.16" rx="3.37" ry="4.99" transform="translate(-21.48 23.64) rotate(-19.55)"/><ellipse class="cls-5" cx="50.72" cy="81.27" rx="3.37" ry="4.99" transform="translate(-43.63 64.7) rotate(-48.07)"/><ellipse class="cls-5" cx="75.67" cy="81.27" rx="4.99" ry="3.37" transform="translate(-34.93 71.37) rotate(-41.93)"/><ellipse class="cls-5" cx="68.53" cy="74.16" rx="4.99" ry="3.37" transform="translate(-24.28 113.92) rotate(-70.45)"/><rect class="cls-6" x="81.81" y="124.9" width="9.33" height="9.33" rx="3.64" ry="3.64"/><rect class="cls-6" x="91.15" y="102.66" width="9.33" height="9.33" rx="3.64" ry="3.64"/><rect class="cls-6" x="57.8" y="131.03" width="9.33" height="9.33" rx="3.64" ry="3.64"/><rect class="cls-6" x="67.85" y="129.94" width="11.77" height="10.09" rx="4.25" ry="4.25" transform="translate(-30.65 22.02) rotate(-14.1)"/><rect class="cls-6" x="43.6" y="133.69" width="9.33" height="9.33" rx="3.64" ry="3.64"/><rect class="cls-6" x="32.66" y="132.77" width="9.33" height="9.33" rx="3.64" ry="3.64" transform="translate(-26.92 10.34) rotate(-11.62)"/><rect class="cls-6" x="45.95" y="118.46" width="9.33" height="9.33" rx="3.64" ry="3.64"/><rect class="cls-6" x="21.75" y="122.38" width="9.33" height="9.33" rx="3.64" ry="3.64"/><rect class="cls-6" x="74.61" y="115.57" width="9.33" height="9.33" rx="3.64" ry="3.64"/><rect class="cls-6" x="95.1" y="129.57" width="9.33" height="9.33" rx="3.64" ry="3.64"/><rect class="cls-6" x="45.32" y="129.02" width="9.33" height="9.33" rx="3.64" ry="3.64"/><rect class="cls-6" x="50.61" y="124.9" width="9.33" height="9.33" rx="3.64" ry="3.64"/><rect class="cls-6" x="64.4" y="129.02" width="9.33" height="9.33" rx="3.64" ry="3.64"/><rect class="cls-6" x="79.27" y="131.03" width="9.33" height="9.33" rx="3.64" ry="3.64"/><rect class="cls-6" x="66.59" y="141.33" width="9.33" height="9.33" rx="3.64" ry="3.64" transform="translate(-27.95 17.35) rotate(-11.62)"/><rect class="cls-6" x="87.21" y="131.03" width="9.33" height="9.33" rx="3.64" ry="3.64" transform="translate(-50.03 53.73) rotate(-25.89)"/><rect class="cls-6" x="103.73" y="141.33" width="9.33" height="9.33" rx="3.64" ry="3.64" transform="translate(-52.87 61.98) rotate(-25.89)"/><rect class="cls-6" x="81.81" y="135.7" width="9.33" height="9.33" rx="3.64" ry="3.64" transform="translate(21.35 -11.09) rotate(8.37)"/><rect class="cls-6" x="37.91" y="127.04" width="9.33" height="9.33" rx="3.64" ry="3.64"/><rect class="cls-6" x="58.48" y="123.13" width="9.33" height="9.33" rx="3.64" ry="3.64"/><rect class="cls-6" x="19.92" y="101.38" width="9.33" height="9.33" rx="3.64" ry="3.64" transform="matrix(0.87, -0.5, 0.5, 0.87, -49.73, 26.5)"/><polygon class="cls-4" points="123.16 116.19 16.64 111.2 126.45 142.46 123.16 116.19"/></g></g></svg>