<svg xmlns="http://www.w3.org/2000/svg" viewBox="0 0 213.35 154.77"><defs><style>.cls-1,.cls-2,.cls-3{fill:#020202;}.cls-1{opacity:0.15;}.cls-2{opacity:0.1;}.cls-3{opacity:0.05;}.cls-4{fill:#569c9d;}.cls-5{fill:#458484;}.cls-6{fill:#fff;}.cls-7{fill:#dadbdc;}</style></defs><title>frisbee_1</title><g id="Layer_2" data-name="Layer 2"><g id="Icon"><ellipse class="cls-1" cx="119.14" cy="123.44" rx="94.34" ry="30.93" transform="translate(-6.67 6.81) rotate(-3.18)"/><ellipse class="cls-1" cx="100.74" cy="85.03" rx="87.58" ry="28.71" transform="translate(-28.18 57.49) rotate(-28.11)"/><ellipse class="cls-2" cx="60.68" cy="66.85" rx="71.06" ry="23.3" transform="translate(-29.47 71.81) rotate(-50.92)"/><ellipse class="cls-3" cx="22.3" cy="60.38" rx="61.16" ry="20.05" transform="translate(-40.98 72.18) rotate(-80.29)"/><ellipse class="cls-4" cx="116.06" cy="101.18" rx="94.34" ry="30.93" transform="matrix(0.95, -0.3, 0.3, 0.95, -24.91, 39.25)"/><path class="cls-5" d="M123.9,126.23c-47.44,14.84-90.07,15-98.32.79a10.8,10.8,0,0,0,.44,2.32c5.1,16.3,49.55,16.91,99.27,1.36S211.2,89.33,206.1,73a10.28,10.28,0,0,0-.95-2.15C206.44,87.22,171.33,111.4,123.9,126.23Z"/><ellipse class="cls-6" cx="112.82" cy="90.81" rx="75.47" ry="24.74" transform="translate(-21.96 37.81) rotate(-17.36)"/><path class="cls-7" d="M119.28,111.47c-38.27,12-72.62,12-78.81.34a7.75,7.75,0,0,0,.32,1.52c4.08,13,39.63,13.54,79.42,1.1s68.72-33.1,64.64-46.15a8.49,8.49,0,0,0-.6-1.43C185.79,79.94,157.55,99.51,119.28,111.47Z"/><ellipse class="cls-4" cx="109.97" cy="81.71" rx="29.08" ry="9.53" transform="translate(-19.37 36.55) rotate(-17.36)"/></g></g></svg>