<svg xmlns="http://www.w3.org/2000/svg" viewBox="0 0 57.71 51.94"><defs><style>.cls-1{fill:#e07171;stroke:#e07171;stroke-miterlimit:10;stroke-width:2px;}.cls-2{fill:#fff;}</style></defs><title>house-colored</title><g id="Layer_2" data-name="Layer 2"><g id="Icon"><path class="cls-1" d="M56.25,27.92,43.58,15.19V6.52A1.6,1.6,0,0,0,42,4.92a1.56,1.56,0,0,0-1.55,1.6V12L30,1.5A1.51,1.51,0,0,0,28.87,1a1.58,1.58,0,0,0-1.14.5L1.49,27.74a1.51,1.51,0,0,0,0,2.22,1.51,1.51,0,0,0,2.22,0L28.87,4.86,54,30.2a1.55,1.55,0,0,0,1.14.41,1.76,1.76,0,0,0,1.13-.41A1.65,1.65,0,0,0,56.25,27.92Z"/><path class="cls-2" d="M47.75,28.44h0L46.25,27l-16-15.44a2,2,0,0,0-2.81,0L11.33,27.73,10,29.1v0h0s0,0,0,0V50.49a1.46,1.46,0,0,0,1.44,1.45H23a1.46,1.46,0,0,0,1.45-1.45V39.12h8.74V50.49a1.48,1.48,0,0,0,1.51,1.45H46.3a1.46,1.46,0,0,0,1.45-1.45v-22s0,0,0,0Z"/></g></g></svg>