<svg xmlns="http://www.w3.org/2000/svg" viewBox="0 0 57.71 51.94"><defs><style>.cls-1,.cls-2{fill:#7d995f;}.cls-1{stroke:#7d995f;stroke-miterlimit:10;stroke-width:2px;}</style></defs><title>house</title><g id="Layer_2" data-name="Layer 2"><g id="Icon"><path class="cls-1" d="M-129.75,1581.92l-12.67-12.73v-8.67a1.6,1.6,0,0,0-1.63-1.6,1.56,1.56,0,0,0-1.55,1.6V1566L-156,1555.5a1.51,1.51,0,0,0-1.08-.5,1.58,1.58,0,0,0-1.14.5l-26.24,26.24a1.51,1.51,0,0,0,0,2.22,1.51,1.51,0,0,0,2.22,0l25.16-25.11L-132,1584.2a1.55,1.55,0,0,0,1.14.41,1.76,1.76,0,0,0,1.13-.41A1.65,1.65,0,0,0-129.75,1581.92Z" transform="translate(186 -1554)"/><path class="cls-2" d="M-138.25,1582.43h0l-1.48-1.43-16-15.44a2,2,0,0,0-2.81,0l-16.13,16.15-1.38,1.38v0h0s0,0,0,0v21.33a1.46,1.46,0,0,0,1.44,1.45H-163a1.46,1.46,0,0,0,1.45-1.45v-11.37h8.74v11.37a1.48,1.48,0,0,0,1.51,1.45h11.58a1.46,1.46,0,0,0,1.45-1.45v-22s0,0,0,0Z" transform="translate(186 -1554)"/></g></g></svg>