<svg xmlns="http://www.w3.org/2000/svg" viewBox="0 0 307.88 103"><defs><style>.cls-1{fill:#424242;}.cls-2{fill:#d33737;}.cls-3{fill:none;}</style></defs><title>K9U-meaning</title><g id="Layer_2" data-name="Layer 2"><g id="background"><path class="cls-1" d="M65.55,85a12.16,12.16,0,0,1-2.13,7.25c-1.36,1.92-2.93,2.89-4.74,2.89H49.84v-19H59a5.74,5.74,0,0,1,4.24,2.16A9.51,9.51,0,0,1,65.55,85Zm-3.93.31a8.09,8.09,0,0,0-1-4,3,3,0,0,0-2.55-1.82H53.74V91.86h3.59a3.62,3.62,0,0,0,3.1-1.76A8.53,8.53,0,0,0,61.62,85.28Z"/><path class="cls-1" d="M85.91,85.8A10.05,10.05,0,0,1,83.37,93a8.6,8.6,0,0,1-6.59,2.71A8.4,8.4,0,0,1,70,92.74a10.33,10.33,0,0,1-2.32-7,10.51,10.51,0,0,1,2.19-6.84,8.65,8.65,0,0,1,7.1-3.07,8.23,8.23,0,0,1,6.68,2.94A10.64,10.64,0,0,1,85.91,85.8Zm-3.72,0A7.32,7.32,0,0,0,80.74,81a5,5,0,0,0-4-1.74A4.82,4.82,0,0,0,72.81,81a7.17,7.17,0,0,0-1.44,4.72,7.34,7.34,0,0,0,1.49,4.87A5.13,5.13,0,0,0,77,92.32a4.58,4.58,0,0,0,3.76-1.8A7.36,7.36,0,0,0,82.19,85.8Z"/><path class="cls-1" d="M105.38,95.18H103l-.46-2.34a7.1,7.1,0,0,1-6,2.84,7.89,7.89,0,0,1-6-2.6A10,10,0,0,1,88,85.9a10.44,10.44,0,0,1,2.51-7.32,8.55,8.55,0,0,1,6.64-2.74,8.9,8.9,0,0,1,5.75,1.74,7.17,7.17,0,0,1,2.52,4.58h-3.57Q100.74,79,97.12,79a4.89,4.89,0,0,0-4,1.78,7.17,7.17,0,0,0-1.48,4.76,7.78,7.78,0,0,0,1.56,5,5,5,0,0,0,7.27.73,4.75,4.75,0,0,0,1.62-3.15H97.76V84.91h7.62Z"/><path class="cls-1" d="M196.35,89.75a5.23,5.23,0,0,1-1.79,4,8.6,8.6,0,0,1-6,2,7.4,7.4,0,0,1-5.12-1.89,5.72,5.72,0,0,1-2.1-4.32V76.15h3.9V89.54a2.41,2.41,0,0,0,1,2,3.72,3.72,0,0,0,2.43.8q3.83,0,3.82-2.76V76.15h3.9Z"/><path class="cls-1" d="M212.34,95.11H208.7V85.43a1.4,1.4,0,0,0-.65-1.23,3,3,0,0,0-1.77-.46,3.21,3.21,0,0,0-2,.65,2,2,0,0,0-.82,1.64v9.08h-3.64V81h3.64v2.11a4,4,0,0,1,3.7-2.34A5.66,5.66,0,0,1,210.91,82a4,4,0,0,1,1.43,3.23Z"/><path class="cls-1" d="M219.41,79.4h-3.64V76.15h3.64Zm0,15.71h-3.64V81h3.64Z"/><path class="cls-1" d="M235.2,81l-4.89,14.1h-3.82L221.62,81h3.85l2.94,10.33L231.35,81Z"/><path class="cls-1" d="M249.39,88.09a6.29,6.29,0,0,1-.08,1.11H240a2,2,0,0,0,0,.5,3,3,0,0,0,.85,2.22,3.15,3.15,0,0,0,3.89.33,2.16,2.16,0,0,0,.87-1.12h3.7a6.58,6.58,0,0,1-2.56,3.3,7.16,7.16,0,0,1-4.1,1.25,6,6,0,0,1-4.24-1.59,7,7,0,0,1-2.05-5.43,9.09,9.09,0,0,1,1.65-5.84,5.74,5.74,0,0,1,4.74-2,6.29,6.29,0,0,1,4.87,2A7.55,7.55,0,0,1,249.39,88.09Zm-3.85-1.33c-.1-2-1-2.94-2.72-2.94s-2.7,1-2.89,2.94Z"/><path class="cls-1" d="M259.77,84.47c-.49,0-.84-.08-1.07-.08a3.39,3.39,0,0,0-2.4.82,2.71,2.71,0,0,0-.88,2.07v7.83h-3.64V81h3.64v2.73a4.09,4.09,0,0,1,1.56-2.1,3.25,3.25,0,0,1,2.79-.81Z"/><path class="cls-1" d="M273.81,90.82a4.41,4.41,0,0,1-1.62,3.54,6.36,6.36,0,0,1-4.26,1.37,8.55,8.55,0,0,1-5-1.24A4.37,4.37,0,0,1,261,91h3.59A2.18,2.18,0,0,0,266,92.56a4.91,4.91,0,0,0,2.15.44,2,2,0,0,0,1.34-.45,1.33,1.33,0,0,0,.54-1.07,1.1,1.1,0,0,0-.37-.92,4.75,4.75,0,0,0-1.27-.49l-4.11-1.19a3.48,3.48,0,0,1-2.73-3.66A3.89,3.89,0,0,1,263.12,82a8.05,8.05,0,0,1,8.65.08,4.28,4.28,0,0,1,1.67,3.48h-3.51a1.62,1.62,0,0,0-.63-1.47,3.5,3.5,0,0,0-2.15-.55,2.63,2.63,0,0,0-1.38.36,1.15,1.15,0,0,0-.7,1c0,.47.16.75.47.84l5.2,1.43C272.78,87.73,273.81,88.94,273.81,90.82Z"/><path class="cls-1" d="M280.12,79.4h-3.64V76.15h3.64Zm0,15.71h-3.64V81h3.64Z"/><path class="cls-1" d="M289.8,95.39a9.7,9.7,0,0,1-2.32.31,3.5,3.5,0,0,1-2.36-.84,2.57,2.57,0,0,1-1-2V83.72h-1.8V81.3h1.8V77.48h3.64V81.3h2v2.42h-2v8.4c0,.53.41.8,1.22.8l.81,0Z"/><path class="cls-1" d="M304.62,81l-6,17.22a3.54,3.54,0,0,1-3.38,2.41l-2.39.19v-3h.55c1.75,0,2.62-.73,2.62-2.19L290.86,81h4l3,10.22L300.87,81Z"/><path class="cls-2" d="M55,36l10.08-13.2a15.21,15.21,0,0,1,2.24-2.45,3.75,3.75,0,0,1,2.53-.94,4.38,4.38,0,0,1,1.58.3,4.68,4.68,0,0,1,2.43,2.12,3.34,3.34,0,0,1,.39,1.59A2.71,2.71,0,0,1,74,24.48a7.47,7.47,0,0,1-.58,1.12,13.1,13.1,0,0,1-.81,1.12l-.87,1.06L64,36.86,73,48.24c.3.37.59.75.89,1.16s.56.82.8,1.23a7,7,0,0,1,.6,1.19A3,3,0,0,1,75.55,53a3.42,3.42,0,0,1-.41,1.62,4.64,4.64,0,0,1-1,1.36,4.86,4.86,0,0,1-1.47.92A4.18,4.18,0,0,1,71,57.2a3.7,3.7,0,0,1-1.74-.42,7,7,0,0,1-1.53-1.06,12.2,12.2,0,0,1-1.33-1.44c-.4-.52-.79-1-1.15-1.53L55,38.87l0,13.25a5.22,5.22,0,0,1-.37,2,5.06,5.06,0,0,1-1,1.62,5,5,0,0,1-1.54,1.08,4.77,4.77,0,0,1-3.78,0,4.68,4.68,0,0,1-1.52-1.08,5.26,5.26,0,0,1-1.41-3.61V24.44a5.26,5.26,0,0,1,.38-2,5.16,5.16,0,0,1,1-1.61,4.68,4.68,0,0,1,1.52-1.08,4.57,4.57,0,0,1,3.74,0,4.81,4.81,0,0,1,1.55,1.08,5.21,5.21,0,0,1,1,1.61,5.08,5.08,0,0,1,.39,2Z"/><path class="cls-2" d="M85.05,56.26a2.58,2.58,0,0,1-1.34-1.09,3.24,3.24,0,0,1-.43-1.64,3.08,3.08,0,0,1,.89-2.25,3.17,3.17,0,0,1,2.37-.9,9.21,9.21,0,0,1,1.62.15l1.72.36c.58.13,1.17.24,1.76.35a10.26,10.26,0,0,0,1.72.15,8.78,8.78,0,0,0,4-.84A7,7,0,0,0,100,48.13a11.37,11.37,0,0,0,1.5-3.71,23.79,23.79,0,0,0,.46-5s0,0,0,0a0,0,0,0,1,0,0,8.1,8.1,0,0,1-1.83,2.09,9.06,9.06,0,0,1-2.3,1.31,11.6,11.6,0,0,1-2.59.68,19.29,19.29,0,0,1-2.76.19A14.13,14.13,0,0,1,88,42.72a10.77,10.77,0,0,1-3.64-2.29,10.36,10.36,0,0,1-2.44-3.66,13.22,13.22,0,0,1-.88-5,13.69,13.69,0,0,1,1-5.21,11.66,11.66,0,0,1,2.83-4.14,13,13,0,0,1,4.53-2.72,17.76,17.76,0,0,1,6.09-1,16.89,16.89,0,0,1,7,1.34,13.07,13.07,0,0,1,4.85,3.73,15.44,15.44,0,0,1,2.78,5.69,27.94,27.94,0,0,1,.89,7.24,40.08,40.08,0,0,1-.38,5.63,26.14,26.14,0,0,1-1.22,5,19,19,0,0,1-2.2,4.37,14.19,14.19,0,0,1-3.28,3.37,14.93,14.93,0,0,1-4.48,2.17,20.24,20.24,0,0,1-5.81.77,23.27,23.27,0,0,1-4.36-.44A17.9,17.9,0,0,1,85.05,56.26ZM95.47,24.78a5.51,5.51,0,0,0-4.36,1.73,7.32,7.32,0,0,0-1.53,5,11.07,11.07,0,0,0,.34,2.8,6.36,6.36,0,0,0,1,2.16,4.54,4.54,0,0,0,1.73,1.39,5.71,5.71,0,0,0,2.46.5,5.79,5.79,0,0,0,4.6-1.83,7.53,7.53,0,0,0,1.6-5.12,8.42,8.42,0,0,0-.43-2.74,6.1,6.1,0,0,0-1.21-2.08,5.2,5.2,0,0,0-1.87-1.33A5.87,5.87,0,0,0,95.47,24.78Z"/><path d="M166.14,41.37h7.29a6,6,0,0,1,1.16.12,3.48,3.48,0,0,1,1.12.4,2.43,2.43,0,0,1,.85.81,2.37,2.37,0,0,1,.34,1.3,2.43,2.43,0,0,1-.29,1.21,2.36,2.36,0,0,1-.77.83,3.08,3.08,0,0,1-1.11.47,5.51,5.51,0,0,1-1.3.14h-7.29v7.06a6,6,0,0,1-.12,1.16,3.48,3.48,0,0,1-.4,1.12,2.18,2.18,0,0,1-.82.83,2.51,2.51,0,0,1-1.34.33,2.29,2.29,0,0,1-2.05-1,4.47,4.47,0,0,1-.63-2.48V46.65h-7.27a6,6,0,0,1-1.18-.11,3.49,3.49,0,0,1-1.12-.41,2.38,2.38,0,0,1-.84-.8,2.54,2.54,0,0,1-.32-1.33,2.41,2.41,0,0,1,.27-1.17,2.33,2.33,0,0,1,.74-.82,3.45,3.45,0,0,1,1.1-.49,5.76,5.76,0,0,1,1.35-.15h7.27V34.29a6.74,6.74,0,0,1,.1-1.16,3.46,3.46,0,0,1,.39-1.12,2.46,2.46,0,0,1,.82-.85,2.57,2.57,0,0,1,1.37-.34,2.53,2.53,0,0,1,1.24.29,2.47,2.47,0,0,1,.83.78A3.41,3.41,0,0,1,166,33a6,6,0,0,1,.14,1.28Z"/><path class="cls-2" d="M240.72,24.44a5.08,5.08,0,0,1,.38-2,5,5,0,0,1,1-1.61,4.68,4.68,0,0,1,1.52-1.08,4.64,4.64,0,0,1,3.77,0A4.77,4.77,0,0,1,249,20.84a5,5,0,0,1,1,1.61,5.26,5.26,0,0,1,.38,2v20a13.88,13.88,0,0,1-1.21,6,11.77,11.77,0,0,1-3.39,4.28,14.69,14.69,0,0,1-5.17,2.58,23.41,23.41,0,0,1-6.56.86,23.82,23.82,0,0,1-6.49-.84,15,15,0,0,1-5.16-2.54,11.79,11.79,0,0,1-3.4-4.27,14.11,14.11,0,0,1-1.22-6.07V24.44a5.08,5.08,0,0,1,.38-2,5.14,5.14,0,0,1,1-1.61,4.83,4.83,0,0,1,1.53-1.08,4.64,4.64,0,0,1,3.77,0A4.88,4.88,0,0,1,226,20.84a5,5,0,0,1,1,1.61,5.26,5.26,0,0,1,.38,2l0,19.79a8.29,8.29,0,0,0,.58,3.23,6.51,6.51,0,0,0,1.49,2.22A6.08,6.08,0,0,0,231.64,51a7.21,7.21,0,0,0,4.85,0,6.21,6.21,0,0,0,2.12-1.27,6.57,6.57,0,0,0,1.52-2.22,8.1,8.1,0,0,0,.59-3.23Z"/><rect class="cls-3" width="307.88" height="103"/></g></g></svg>