<svg xmlns="http://www.w3.org/2000/svg" viewBox="0 0 138.51 149.8"><defs><style>.cls-1{fill:none;stroke:#89cec0;stroke-linecap:round;stroke-linejoin:round;stroke-width:4.73px;}.cls-2{fill:#d45c5d;}.cls-3{fill:#473d33;}.cls-4{fill:#615547;}.cls-5{fill:#897562;}.cls-6{fill:#f5e4b0;}</style></defs><title>leash</title><g id="Layer_2" data-name="Layer 2"><g id="background"><path class="cls-1" d="M-145.94,1580.93c-22.62-1.52-48.38,25-33.08,65.48s65.71,1.35,93.61,6.3,50.86,34,1.58,40.64" transform="translate(186 -1554)"/><rect class="cls-2" x="-97.04" y="1554.51" width="13.5" height="18.4" rx="4.45" ry="4.45" transform="matrix(0.87, 0.5, -0.5, 0.87, 955.76, -1299.36)"/><path class="cls-3" d="M-132.66,1578l-8.59-1.71a4.47,4.47,0,0,0-4.11,1.3l-4,4.19a4.42,4.42,0,0,0-1.13,3.91l1.25,6.42,7.42-2.82Z" transform="translate(186 -1554)"/><path class="cls-4" d="M-71.46,1571.42c-10.25-5.17-7-.22-27-7.87-17.26-6.6-41.37,15-50.29,24.64a30.07,30.07,0,0,0-2.93,3.44,1.34,1.34,0,0,0-.11.14h0a31.16,31.16,0,0,0-6,18.38,31.31,31.31,0,0,0,31.3,31.3,31.2,31.2,0,0,0,14.57-3.6h0c16.73-9,23.17,6.76,47.41.41C-32.53,1629.88-51.93,1581.27-71.46,1571.42ZM-59,1626.16c-2.62,6.13-15.31,4.53-20.78,4.16-9.1-.61-10.49-.23-10.49-22,0-12.49-7.55-15.89-6.37-21.09,1.06-4.69,12.39-9.64,16.37-9.12,12.68,1.67,5.46,9.19,9.25,20.53C-65.44,1615.36-54.13,1614.69-59,1626.16Z" transform="translate(186 -1554)"/><circle class="cls-5" cx="59.79" cy="56.39" r="24.19"/><path class="cls-6" d="M-164,1694.79c.46,2.18,2.28,6,9.27,6.77,3.36.4,6.91.64,10.57.75,6.54.21,13.43,0,20.22-.42l18,1.84a12.35,12.35,0,0,0,9-2.67l3.17-2.52c7.72-1.18,13.66-2.33,16.38-3a3.13,3.13,0,0,0,2.14-3.65,2.73,2.73,0,0,0-3.17-2.43,337.53,337.53,0,0,1-50.55,6.42,45.87,45.87,0,0,0-6.23-6.2c-10.49-9-20-7.75-24.9-4C-163.25,1688.08-164.73,1691.55-164,1694.79Zm5.25-1.49c-.09-.42.34-1.45,1.59-2.39,2.79-2.13,10.1-4.07,18.68,3.8,2.75,2.52-10.39,1.31-15.68.68C-157.3,1695-158.66,1693.92-158.79,1693.3Z" transform="translate(186 -1554)"/></g></g></svg>