<svg xmlns="http://www.w3.org/2000/svg" viewBox="0 0 300 351.43"><defs><style>.cls-1{fill:#ffda6f;}.cls-2{fill:#d33737;}.cls-3{fill:#996a37;}.cls-4{fill:#0f1110;}.cls-5{fill:#f75c5c;}.cls-6{fill:#393939;}.cls-7{isolation:isolate;}</style></defs><title>logo</title><g id="Layer_2" data-name="Layer 2"><g id="logo"><circle class="cls-1" cx="150" cy="150" r="139.53"/><path class="cls-2" d="M150,20.87A129.13,129.13,0,1,1,20.87,150,129.12,129.12,0,0,1,150,20.87M150,0A149.61,149.61,0,0,0,44,44,149.61,149.61,0,0,0,0,150,149.61,149.61,0,0,0,44,256,150,150,0,0,0,300,150,149.61,149.61,0,0,0,256,44,149.61,149.61,0,0,0,150,0Z"/><path class="cls-3" d="M131.88,141.68c-17.6-1.33-41.36,10.47-38.32,35,.45,3.71,4.16,13.29,7.8,16.26,17.6,14,17.82-1,42.18-11.21C164,172.87,158.76,143.61,131.88,141.68Z"/><circle class="cls-4" cx="125.94" cy="175.1" r="10.77"/><circle class="cls-4" cx="189.73" cy="175.1" r="10.77"/><path class="cls-3" d="M104.26,131c-14.41,12.18-13.15,49.75-37,25-18.72-19.31-30.37-38.77-17.9-47.38C64.68,98,80.79,122.38,114,115.32a34.64,34.64,0,0,1,9.05-.52,2.13,2.13,0,0,1,.6,4.09A73.74,73.74,0,0,0,104.26,131Z"/><path class="cls-3" d="M222.33,116.14c13.14,4.23,37.57,13.14,32.89,29.85-6.31,22.35-20.42,39.28-33.19,31.93-18.34-10.62-1.11-43.74-30.67-60.67C184.08,113,200.12,108.94,222.33,116.14Z"/><path d="M195.37,210.45c-3.27-.52-2.23,2.67-2.6,4.45-1.63,8.76-9.65,15.22-18,14.33-9.5-1-15.81-7.79-15.81-16.85,10.32-4.68,13.88-9.29,12.32-16-1.48-6.46-7.94-10.84-15.22-10.62s-13.37,5-14.33,11.14c-1.12,7.06,2.67,11.73,12.4,15.37-.15,9.58-7.13,16.49-16.86,16.93-8.24.45-15.81-6.31-17-14.92-.3-1.49-1.56-2.75-2.45-4.16-.6,1.63-1.93,3.41-1.64,5a21.45,21.45,0,0,0,25.4,18.2c1-.15,2-.37,3.42-.52,1-.15,9-3.2,11.51-7.06,3,4.38,10.69,6.69,11.73,6.83,1.63.38,2.52.52,3.49.67,11.88,2.08,23.39-5.64,25.1-17.22C196.93,214.23,196,210.52,195.37,210.45Z"/><path class="cls-5" d="M168.12,232.57c-1.11-.14-8.76-2.52-11.73-6.83-2.53,3.86-10.47,6.76-11.51,7.06V237c.15,7.05,4.67,12.1,11.21,12.25s11.66-4.68,12.1-11.88C168.19,235.77,168.12,234.28,168.12,232.57Z"/><path class="cls-6" d="M194.55,82c1,4.9,1.94,9.58,2.68,14.26a7.07,7.07,0,0,1-1.34,5.12,27.72,27.72,0,0,1-7.65,7.65,71.18,71.18,0,0,1-21.75,11.14,23.22,23.22,0,0,1-8.17.67A71.66,71.66,0,0,1,136,117.18a39.42,39.42,0,0,1-6.61-3.27,6.73,6.73,0,0,1-3.27-5.2c-.67-3.93-1.49-7.79-2.23-11.73a14,14,0,0,0-.3-1.41c3.49.59,6.84,1.19,10.25,1.86,7.21,1.33,14.56,2.52,21.76,3.93a15.43,15.43,0,0,0,11.14-2.15c8.83-5.57,17.75-11.07,26.58-16.49C193.81,82.5,194.11,82.2,194.55,82Z"/><path d="M230.72,125.72c-1.86,5-5.57,7.94-10.17,10a2.38,2.38,0,0,1-2.75-.52,14.62,14.62,0,0,1-5.05-6.61c-1.41-3.41-2.53-7-3.71-10.54a2.86,2.86,0,0,0-1.34-1.86,5.9,5.9,0,0,1-1.71-9.06,2,2,0,0,0,.45-1.48c-1.71-9.06-3.49-18.12-5.2-27.11a2.54,2.54,0,0,0-.15-.59c-.52.3-.89.52-1.34.82-11.73,7.27-23.46,14.63-35.2,21.9a11.21,11.21,0,0,1-8.16,1.56c-20.2-3.64-40.4-7.2-60.6-10.84a5.43,5.43,0,0,1-3-1.86,11.09,11.09,0,0,0-.3-1.48,6.15,6.15,0,0,1,2.08-2.9c17.45-10.84,35-21.75,52.35-32.6A11.3,11.3,0,0,1,155.05,51l60,10.7a5.48,5.48,0,0,1,3.71,1.93,11.09,11.09,0,0,0,.3,1.48,5.49,5.49,0,0,1-2.67,3.2c-3,1.7-5.94,3.64-8.84,5.49a1.49,1.49,0,0,0-.82,1.86c1.93,9.58,3.72,19.16,5.57,28.81a2.07,2.07,0,0,0,1.12,1.49c2.89,1.55,4.08,4.9,2.52,7.57a2.77,2.77,0,0,0,.3,3.49c.37.45.67,1,1,1.41,2.52,3.12,5.94,4.53,9.73,5.12a33.59,33.59,0,0,1,3.63,1.12A4.56,4.56,0,0,0,230.72,125.72Z"/><g class="cls-7"><path d="M112.4,347.73a2.93,2.93,0,0,1-.27,1.3,2.61,2.61,0,0,1-.71.92,3.27,3.27,0,0,1-1,.57,3.67,3.67,0,0,1-1.14.18,3.56,3.56,0,0,1-1.13-.18,3.19,3.19,0,0,1-1-.55,2.86,2.86,0,0,1-.69-.93,3.13,3.13,0,0,1-.25-1.31V320a3,3,0,0,1,.27-1.31,2.59,2.59,0,0,1,.7-.92,3,3,0,0,1,1-.55,3.35,3.35,0,0,1,1.13-.19,3.41,3.41,0,0,1,1.14.19,3,3,0,0,1,1,.55,2.71,2.71,0,0,1,.7.92,3,3,0,0,1,.27,1.31v11.84l12.19-13.45a2.81,2.81,0,0,1,1.09-1,2.94,2.94,0,0,1,2.36-.1,3.12,3.12,0,0,1,.94.54,3.22,3.22,0,0,1,.67.84,2.16,2.16,0,0,1,.25,1,2.66,2.66,0,0,1-.56,1.56l-10.81,11.16,12,13.64a2.73,2.73,0,0,1,.45.88,2.8,2.8,0,0,1,.13.83,2.46,2.46,0,0,1-.27,1.14,3,3,0,0,1-.71.91,3.5,3.5,0,0,1-1,.61,3.14,3.14,0,0,1-1.16.22,3,3,0,0,1-1.32-.32,2.73,2.73,0,0,1-1.11-1.06L112.4,333.86Z"/><path d="M138.86,349.65a1.68,1.68,0,0,1-.87-.76,2.18,2.18,0,0,1-.27-1,2.77,2.77,0,0,1,.15-.89,2.46,2.46,0,0,1,1.1-1.35,1.76,1.76,0,0,1,.85-.22,1.27,1.27,0,0,1,.28,0,.89.89,0,0,1,.28.07,21.51,21.51,0,0,0,3.13.88,13.73,13.73,0,0,0,2.82.31,8.43,8.43,0,0,0,3-.49,7,7,0,0,0,2.23-1.36,7.45,7.45,0,0,0,1.57-2.08,12.62,12.62,0,0,0,1-2.65,18.72,18.72,0,0,0,.5-3c.1-1.06.14-2.14.14-3.23a0,0,0,0,0,0,0s0,0,0,0a7.61,7.61,0,0,1-1.48,1.95,8,8,0,0,1-2,1.37,9.28,9.28,0,0,1-2.31.8,12.68,12.68,0,0,1-2.55.26,12.36,12.36,0,0,1-4.37-.74,9.37,9.37,0,0,1-3.34-2.11,9.19,9.19,0,0,1-2.14-3.3,11.78,11.78,0,0,1-.75-4.31,12.07,12.07,0,0,1,.82-4.52,9.93,9.93,0,0,1,2.37-3.55,10.82,10.82,0,0,1,3.76-2.33,14.05,14.05,0,0,1,5-.83,13.78,13.78,0,0,1,6.11,1.23,10.92,10.92,0,0,1,4.06,3.34,13.87,13.87,0,0,1,2.24,4.94,25.07,25.07,0,0,1,.69,6,43.08,43.08,0,0,1-.27,4.84,26.71,26.71,0,0,1-.9,4.53,16.88,16.88,0,0,1-1.72,3.95,12.11,12.11,0,0,1-2.69,3.14,12,12,0,0,1-3.82,2.07,16,16,0,0,1-5.13.74,17.93,17.93,0,0,1-3.82-.41A16.37,16.37,0,0,1,138.86,349.65Zm9.08-28.92a7.25,7.25,0,0,0-2.69.47,5.22,5.22,0,0,0-2,1.37,6,6,0,0,0-1.21,2.14,8.64,8.64,0,0,0-.41,2.78,10.29,10.29,0,0,0,.34,2.72,6.2,6.2,0,0,0,1,2.21,4.88,4.88,0,0,0,1.82,1.48,6,6,0,0,0,2.64.54,7.52,7.52,0,0,0,2.86-.51,5.76,5.76,0,0,0,2.11-1.45,6.17,6.17,0,0,0,1.29-2.25,9.36,9.36,0,0,0,.43-2.88,7.18,7.18,0,0,0-.46-2.62,6.47,6.47,0,0,0-1.28-2.09,5.84,5.84,0,0,0-2-1.4A6.2,6.2,0,0,0,147.94,320.73Z"/><path d="M166.59,320.1a3.05,3.05,0,0,1,.27-1.32,2.83,2.83,0,0,1,.7-.95,3,3,0,0,1,1-.56,3.87,3.87,0,0,1,1.17-.19,3.75,3.75,0,0,1,1.15.19,3.23,3.23,0,0,1,1,.56,2.86,2.86,0,0,1,.71.95,3.05,3.05,0,0,1,.27,1.32V339a8.37,8.37,0,0,0,.64,3.43,7,7,0,0,0,1.7,2.38,6.92,6.92,0,0,0,2.4,1.41,8.57,8.57,0,0,0,2.75.45,8.69,8.69,0,0,0,2.77-.45,7.1,7.1,0,0,0,2.4-1.41,7,7,0,0,0,1.69-2.38,8.36,8.36,0,0,0,.65-3.43V320.1a3.05,3.05,0,0,1,.26-1.32,2.75,2.75,0,0,1,.72-.95,3.07,3.07,0,0,1,1-.56,3.87,3.87,0,0,1,1.17-.19,3.75,3.75,0,0,1,1.15.19,3.23,3.23,0,0,1,1,.56,2.86,2.86,0,0,1,.71.95,3.05,3.05,0,0,1,.27,1.32v19.12a12.39,12.39,0,0,1-1.1,5.38,10.79,10.79,0,0,1-3,3.81,12.63,12.63,0,0,1-4.39,2.27,19.39,19.39,0,0,1-10.68,0,12.54,12.54,0,0,1-4.37-2.27,10.66,10.66,0,0,1-3-3.81,12.39,12.39,0,0,1-1.09-5.38Z"/></g></g></g></svg>