<svg xmlns="http://www.w3.org/2000/svg" viewBox="0 0 162.87 116.35"><defs><style>.cls-1{fill:#98b76c;}.cls-2{fill:#7d995f;}.cls-3{fill:#cce393;}.cls-4{fill:#fafbfc;opacity:0.79;}.cls-5{fill:#d33737;}.cls-6{fill:none;}</style></defs><title>money-minus</title><g id="Layer_2" data-name="Layer 2"><g id="Icon"><rect class="cls-1" x="48.27" y="-8.01" width="64.27" height="139.8" transform="translate(142.3 -18.51) rotate(90)"/><path class="cls-2" d="M145,34H14.56v55H145Zm-3.1,36.54c-6.22,1.48-11.13,7.35-12.38,14.78H30c-1.25-7.43-6.16-13.3-12.38-14.78v-18C23.88,51,28.79,45.17,30,37.74h99.48c1.25,7.43,6.16,13.3,12.38,14.79Z"/><ellipse class="cls-2" cx="79.78" cy="61.39" rx="19.9" ry="20.17"/><path class="cls-3" d="M81.14,48.09a9.59,9.59,0,0,1,2.32.56,7,7,0,0,1,2,1.17A6.69,6.69,0,0,1,87,51.63a7.32,7.32,0,0,1,.87,2.5H85.4a5,5,0,0,0-4.26-3.63v8.75q1.32.55,2.61,1.17a11.8,11.8,0,0,1,2.32,1.43,6.64,6.64,0,0,1,1.65,1.9,5.1,5.1,0,0,1,.63,2.59,6.39,6.39,0,0,1-.64,2.93,6.48,6.48,0,0,1-1.66,2.06,7.57,7.57,0,0,1-2.32,1.27,10.9,10.9,0,0,1-2.59.55V77.3H78.72V73.09a7.76,7.76,0,0,1-2.47-.92,8.34,8.34,0,0,1-2.07-1.69,9.75,9.75,0,0,1-1.53-2.34,10.43,10.43,0,0,1-.83-2.83h2.59a7.76,7.76,0,0,0,1.45,3.39,5.14,5.14,0,0,0,2.86,1.87V61.08c-.81-.36-1.59-.74-2.36-1.15a10.19,10.19,0,0,1-2-1.4,6.34,6.34,0,0,1-1.44-1.83,5.08,5.08,0,0,1-.55-2.44,5.33,5.33,0,0,1,.5-2.33,6.4,6.4,0,0,1,1.37-1.86,7.36,7.36,0,0,1,2-1.31,8.82,8.82,0,0,1,2.48-.67V45.42h2.42Zm-6.27,6a3.09,3.09,0,0,0,.3,1.37,4.13,4.13,0,0,0,.8,1.11,6.14,6.14,0,0,0,1.21.93,13,13,0,0,0,1.54.78V50.54a5.18,5.18,0,0,0-2.81,1.28A3.11,3.11,0,0,0,74.87,54.13ZM85.8,66.43a2.5,2.5,0,0,0-.41-1.37,4.7,4.7,0,0,0-1.07-1.17,9.43,9.43,0,0,0-1.49-1c-.56-.3-1.12-.58-1.69-.83V70.7a5.76,5.76,0,0,0,1.93-.47,5,5,0,0,0,1.46-1A4.15,4.15,0,0,0,85.47,68,3.7,3.7,0,0,0,85.8,66.43Z"/><rect class="cls-2" x="32.3" y="55.91" width="21.73" height="2.26"/><rect class="cls-2" x="32.3" y="60.42" width="21.73" height="2.26"/><rect class="cls-2" x="32.3" y="64.92" width="21.73" height="2.26"/><rect class="cls-2" x="106.06" y="55.91" width="21.73" height="2.26"/><rect class="cls-2" x="106.06" y="60.42" width="21.73" height="2.26"/><rect class="cls-2" x="106.06" y="64.92" width="21.73" height="2.26"/><circle class="cls-4" cx="79.93" cy="62.4" r="27.75"/><path class="cls-5" d="M67,65.25v-5.7H92.87v5.7Z"/><rect class="cls-6" width="162.87" height="116.35"/></g></g></svg>