<svg xmlns="http://www.w3.org/2000/svg" viewBox="0 0 161.83 115.39"><defs><style>.cls-1{opacity:0.76;}.cls-2{fill:#98b76c;}.cls-3{fill:#7d995f;}.cls-4{fill:#cce393;}.cls-5{fill:#8ba563;}</style></defs><title>money</title><g id="Layer_2" data-name="Layer 2"><g id="Icon"><g class="cls-1"><rect class="cls-2" x="44.79" y="-12.21" width="64.27" height="139.8" transform="translate(98.51 -36.01) rotate(66.1)"/><path class="cls-3" d="M124.7,6.05,5.44,58.9l22.29,50.3L147,56.36Zm12,34.66c-5.08,3.88-7.2,11.23-5.32,18.53l-91,40.3c-4.15-6.29-11-9.66-17.3-8.5L15.77,74.55C20.85,70.67,23,63.31,21.1,56l90.95-40.29c4.15,6.28,11,9.66,17.3,8.5Z"/><ellipse class="cls-3" cx="76.15" cy="57.48" rx="19.9" ry="20.17" transform="translate(-16.76 35.78) rotate(-23.9)"/><path class="cls-4" d="M72,44.78a9,9,0,0,1,2.34-.43,7,7,0,0,1,2.32.25,6.79,6.79,0,0,1,2.13,1,7.29,7.29,0,0,1,1.8,1.93l-2.25,1A5,5,0,0,0,73,47l3.55,8c1,0,1.91,0,2.86,0a11.58,11.58,0,0,1,2.7.36,6.66,6.66,0,0,1,2.28,1.08A5,5,0,0,1,86,58.54a6.19,6.19,0,0,1,.6,2.93A6.28,6.28,0,0,1,85.91,64a7.36,7.36,0,0,1-1.61,2.1,10.93,10.93,0,0,1-2.14,1.56l1.68,3.79-2.21,1-1.71-3.85a7.75,7.75,0,0,1-2.63.16,8.15,8.15,0,0,1-2.57-.71,9.44,9.44,0,0,1-2.35-1.52,10,10,0,0,1-1.91-2.25l2.38-1.05a7.64,7.64,0,0,0,2.69,2.51,5.13,5.13,0,0,0,3.37.56l-3.84-8.68c-.88,0-1.76,0-2.63-.09A10.36,10.36,0,0,1,70,57.08,6.37,6.37,0,0,1,67.94,56a5.18,5.18,0,0,1-1.49-2A5.43,5.43,0,0,1,66,51.65a6,6,0,0,1,.5-2.25,7.26,7.26,0,0,1,1.33-2,8.78,8.78,0,0,1,2-1.61l-1.09-2.45,2.21-1Zm-3.28,8A3.21,3.21,0,0,0,69.55,54a4.12,4.12,0,0,0,1.19.69,5.84,5.84,0,0,0,1.48.35,11.84,11.84,0,0,0,1.72.09L70.79,48a5,5,0,0,0-2.05,2.31A3.07,3.07,0,0,0,68.73,52.83Zm15,6.82a2.43,2.43,0,0,0-.92-1.09,5.18,5.18,0,0,0-1.45-.64,11.65,11.65,0,0,0-1.77-.3c-.63,0-1.26-.07-1.88-.07l3.5,7.9a6.17,6.17,0,0,0,1.58-1.21,5,5,0,0,0,.94-1.47A4.18,4.18,0,0,0,84,61.19,3.71,3.71,0,0,0,83.69,59.65Z"/><rect class="cls-3" x="30.05" y="67.21" width="21.73" height="2.26" transform="translate(-24.18 22.43) rotate(-23.9)"/><rect class="cls-3" x="31.87" y="71.33" width="21.73" height="2.26" transform="translate(-25.69 23.52) rotate(-23.9)"/><rect class="cls-3" x="33.7" y="75.45" width="21.73" height="2.26" transform="translate(-27.2 24.62) rotate(-23.9)"/><rect class="cls-3" x="97.48" y="37.33" width="21.73" height="2.26" transform="translate(-6.29 47.19) rotate(-23.9)"/><rect class="cls-3" x="99.31" y="41.45" width="21.73" height="2.26" transform="translate(-7.8 48.28) rotate(-23.9)"/><rect class="cls-3" x="101.13" y="45.57" width="21.73" height="2.26" transform="translate(-9.32 49.37) rotate(-23.9)"/></g><rect class="cls-5" x="53.74" y="-9.85" width="64.27" height="139.8" transform="translate(120.7 -38.78) rotate(74.45)"/><path class="cls-3" d="M140.63,15.89,15,50.87l14.76,53,125.67-35Zm6.81,36c-5.59,3.11-8.75,10.07-8,17.56L43.64,96.15C40.45,89.33,34.14,85,27.75,85.23L22.92,67.85c5.59-3.1,8.75-10.07,8-17.56l95.83-26.68c3.2,6.83,9.5,11.16,15.89,10.93Z"/><ellipse class="cls-3" cx="85.13" cy="59.73" rx="19.9" ry="20.17" transform="translate(-12.9 25.02) rotate(-15.55)"/><path class="cls-4" d="M82.88,46.56a9.52,9.52,0,0,1,2.38-.09,6.93,6.93,0,0,1,2.25.59,6.71,6.71,0,0,1,2,1.34A7.35,7.35,0,0,1,91,50.57l-2.38.66a5,5,0,0,0-5.08-2.36l2.35,8.44c.95.12,1.89.26,2.83.42a12.12,12.12,0,0,1,2.62.75,6.72,6.72,0,0,1,2.1,1.4,5.11,5.11,0,0,1,1.3,2.32,6.45,6.45,0,0,1,.17,3,6.33,6.33,0,0,1-1,2.43A7.73,7.73,0,0,1,92,69.47,11.24,11.24,0,0,1,89.6,70.7l1.11,4-2.33.65-1.13-4.06a7.75,7.75,0,0,1-2.63-.21A8.71,8.71,0,0,1,82.18,70a9.84,9.84,0,0,1-2.1-1.84,10,10,0,0,1-1.56-2.51L81,65a7.64,7.64,0,0,0,2.3,2.87,5.09,5.09,0,0,0,3.26,1L84,59.72q-1.31-.19-2.58-.48a10.16,10.16,0,0,1-2.35-.8,6.55,6.55,0,0,1-1.87-1.37A5.17,5.17,0,0,1,76,54.86a5.36,5.36,0,0,1-.13-2.38,6.19,6.19,0,0,1,.82-2.16,7.21,7.21,0,0,1,1.61-1.81,8.84,8.84,0,0,1,2.21-1.31l-.72-2.57L82.16,44Zm-4.42,7.49a3.14,3.14,0,0,0,.66,1.24,3.93,3.93,0,0,0,1.07.86,6.48,6.48,0,0,0,1.41.57,12,12,0,0,0,1.69.33l-2.08-7.49a5.22,5.22,0,0,0-2.37,2A3.11,3.11,0,0,0,78.46,54.05ZM92.28,63a2.43,2.43,0,0,0-.76-1.21,4.63,4.63,0,0,0-1.34-.84,10,10,0,0,0-1.7-.56c-.62-.14-1.24-.26-1.86-.35l2.32,8.33a5.83,5.83,0,0,0,1.74-1,5.06,5.06,0,0,0,1.15-1.32,4.24,4.24,0,0,0,.55-1.51A3.62,3.62,0,0,0,92.28,63Z"/><rect class="cls-3" x="37.83" y="64.23" width="21.73" height="2.26" transform="translate(-15.74 15.45) rotate(-15.55)"/><rect class="cls-3" x="39.03" y="68.57" width="21.73" height="2.26" transform="translate(-16.86 15.93) rotate(-15.55)"/><rect class="cls-3" x="40.24" y="72.91" width="21.73" height="2.26" transform="translate(-17.98 16.42) rotate(-15.55)"/><rect class="cls-3" x="108.89" y="44.45" width="21.73" height="2.26" transform="translate(-7.84 33.78) rotate(-15.55)"/><rect class="cls-3" x="110.09" y="48.79" width="21.73" height="2.26" transform="translate(-8.96 34.26) rotate(-15.55)"/><rect class="cls-3" x="111.3" y="53.13" width="21.73" height="2.26" transform="translate(-10.08 34.75) rotate(-15.55)"/><rect class="cls-2" x="55.79" y="-8.48" width="64.27" height="139.8" transform="translate(149.34 -26.51) rotate(90)"/><path class="cls-3" d="M152.53,33.56H22.08v55H152.53Zm-3.11,36.53c-6.22,1.49-11.13,7.35-12.38,14.78H37.56c-1.24-7.43-6.15-13.29-12.37-14.78v-18c6.22-1.49,11.13-7.36,12.37-14.78H137c1.25,7.42,6.16,13.29,12.38,14.78Z"/><ellipse class="cls-3" cx="87.3" cy="60.91" rx="19.9" ry="20.17"/><path class="cls-4" d="M88.66,47.61a9.48,9.48,0,0,1,2.32.56,7,7,0,0,1,2,1.17,6.8,6.8,0,0,1,1.53,1.82,7.19,7.19,0,0,1,.87,2.49H92.93A5,5,0,0,0,88.66,50v8.75c.88.38,1.75.77,2.62,1.17a12.42,12.42,0,0,1,2.32,1.43,6.58,6.58,0,0,1,1.64,1.9,5.1,5.1,0,0,1,.63,2.59,6.27,6.27,0,0,1-.64,2.93,6.34,6.34,0,0,1-1.66,2.06,7.57,7.57,0,0,1-2.32,1.27,10.79,10.79,0,0,1-2.59.55v4.15H86.24V72.61A8.06,8.06,0,0,1,81.71,70a9.46,9.46,0,0,1-1.53-2.34,10.1,10.1,0,0,1-.84-2.83h2.6a7.64,7.64,0,0,0,1.45,3.39,5.08,5.08,0,0,0,2.85,1.87V60.6c-.8-.36-1.59-.74-2.36-1.15a9.8,9.8,0,0,1-2-1.4,6.51,6.51,0,0,1-1.44-1.83,5.08,5.08,0,0,1-.55-2.44,5.26,5.26,0,0,1,.51-2.32,5.83,5.83,0,0,1,1.37-1.86,7.25,7.25,0,0,1,2-1.32,9,9,0,0,1,2.48-.67V44.94h2.42Zm-6.26,6A3.2,3.2,0,0,0,82.69,55a4.15,4.15,0,0,0,.81,1.12,6.2,6.2,0,0,0,1.21.92,12.85,12.85,0,0,0,1.53.78V50.06a5.15,5.15,0,0,0-2.81,1.29A3.08,3.08,0,0,0,82.4,53.65ZM93.32,66a2.5,2.5,0,0,0-.41-1.37,4.65,4.65,0,0,0-1.06-1.17,9.28,9.28,0,0,0-1.5-1c-.55-.31-1.12-.59-1.69-.84v8.64a5.88,5.88,0,0,0,1.94-.46,5.21,5.21,0,0,0,1.46-1A4.28,4.28,0,0,0,93,67.48,3.7,3.7,0,0,0,93.32,66Z"/><rect class="cls-3" x="39.82" y="55.43" width="21.73" height="2.26"/><rect class="cls-3" x="39.82" y="59.94" width="21.73" height="2.26"/><rect class="cls-3" x="39.82" y="64.44" width="21.73" height="2.26"/><rect class="cls-3" x="113.58" y="55.43" width="21.73" height="2.26"/><rect class="cls-3" x="113.58" y="59.94" width="21.73" height="2.26"/><rect class="cls-3" x="113.58" y="64.44" width="21.73" height="2.26"/></g></g></svg>