<?xml version="1.0" encoding="utf-8"?>
<!-- Generator: Adobe Illustrator 22.0.1, SVG Export Plug-In . SVG Version: 6.00 Build 0)  -->
<svg version="1.1" id="Layer_1" xmlns="http://www.w3.org/2000/svg" xmlns:xlink="http://www.w3.org/1999/xlink" x="0px" y="0px"
	 viewBox="0 0 86.3 122.2" style="enable-background:new 0 0 86.3 122.2;" xml:space="preserve">
<style type="text/css">
	.st0{fill:none;stroke:#7D7B7B;stroke-width:0.75;stroke-miterlimit:10;}
	.st1{fill:#6F6E6F;}
	.st2{fill:#848484;}
	.st3{fill:#828282;}
	.st4{fill:#909090;stroke:#616161;stroke-miterlimit:10;}
	.st5{fill:#767676;}
</style>
<title>nail-clipper</title>
<g id="Layer_2_1_">
	<g id="FRISBEE">
		<ellipse class="st0" cx="29.1" cy="50.5" rx="1.8" ry="5.3"/>
		<ellipse class="st0" cx="31.2" cy="50.5" rx="1.8" ry="5.3"/>
		<ellipse class="st0" cx="33.4" cy="50.5" rx="1.8" ry="5.3"/>
		<ellipse class="st0" cx="35.6" cy="50.5" rx="1.8" ry="5.3"/>
		<ellipse class="st0" cx="37.8" cy="50.5" rx="1.8" ry="5.3"/>
		<ellipse class="st0" cx="39.9" cy="50.5" rx="1.8" ry="5.3"/>
		<ellipse class="st0" cx="42.1" cy="50.5" rx="1.8" ry="5.3"/>
		<ellipse class="st0" cx="44.3" cy="50.5" rx="1.8" ry="5.3"/>
		<ellipse class="st0" cx="46.5" cy="50.5" rx="1.8" ry="5.3"/>
		<ellipse class="st0" cx="48.6" cy="50.5" rx="1.8" ry="5.3"/>
		<ellipse class="st0" cx="50.8" cy="50.5" rx="1.8" ry="5.3"/>
		<ellipse class="st0" cx="53" cy="50.5" rx="1.8" ry="5.3"/>
		<ellipse class="st0" cx="55.2" cy="50.5" rx="1.8" ry="5.3"/>
		<ellipse class="st0" cx="57.3" cy="50.5" rx="1.8" ry="5.3"/>
		<path class="st1" d="M26.4,21l4.3-18l4.1-3h4.3c-2.3,1.6-3.6,4.1-3.6,6.9c-0.1,4.3,3.3,8,7.6,8.1c2,0,3.9-0.8,5.3-2.3
			c8.5,5.8,13.5,14.1,17.6,22.2l-12.7,5.4C44.6,26,26.4,21,26.4,21z"/>
		<path class="st2" d="M77.7,122.2c4.6,0,8.3-3.6,8.5-8.2c1.2-32.3-5-58.9-19-81.3c-1.2-2-5.1,0.4-8.7,2.7s-7,4.4-5.7,6.4
			c12.1,19.4,17.5,42.9,16.4,71.7c-0.2,4.7,3.5,8.6,8.2,8.8c0,0,0,0,0,0L77.7,122.2z"/>
		<path class="st3" d="M60,21L55.6,3l-4.1-3h-4.3c2.3,1.6,3.6,4.1,3.6,6.9c0.1,4.3-3.3,8-7.6,8.1c-2,0-3.9-0.8-5.3-2.3
			c-8.5,5.8-13.6,14.1-17.6,22.2L33,40.3C41.7,26,60,21,60,21z"/>
		<path class="st2" d="M8.6,122.2c-4.6,0-8.3-3.6-8.5-8.2c-1.3-32.3,5-58.9,19-81.3c1.2-2,5.1,0.4,8.7,2.7s7,4.4,5.7,6.4
			C21.4,61.1,16,84.6,17.1,113.4c0.2,4.7-3.5,8.6-8.1,8.8L8.6,122.2z"/>
		<circle class="st4" cx="43.3" cy="20.2" r="2.9"/>
		<path class="st5" d="M22.8,30.2l11.5,6.6c2,1.2,2.7,3.8,1.6,5.8l0,0c-1.2,2-3.8,2.7-5.8,1.6l-11.5-6.6c-2-1.2-2.7-3.8-1.6-5.8l0,0
			C18.1,29.7,20.7,29,22.8,30.2z"/>
		<path class="st5" d="M67.8,37.6l-11.5,6.6c-2,1.2-4.6,0.5-5.8-1.6l0,0c-1.2-2-0.5-4.6,1.6-5.8l11.5-6.6c2-1.2,4.6-0.5,5.8,1.6l0,0
			C70.6,33.8,69.9,36.4,67.8,37.6z"/>
	</g>
</g>
</svg>
