<svg xmlns="http://www.w3.org/2000/svg" viewBox="0 0 86.35 122.2"><defs><style>.cls-1{fill:none;stroke-width:0.75px;}.cls-1,.cls-5{stroke:#7d7b7b;stroke-miterlimit:10;}.cls-2{fill:#7d7b7b;}.cls-3{fill:#79ad84;}.cls-4{fill:#989696;}.cls-5{fill:#b6b5b5;}.cls-6{fill:#507b9b;}</style></defs><title>nail-clipper</title><g id="Layer_2" data-name="Layer 2"><g id="FRISBEE"><ellipse class="cls-1" cx="29.06" cy="50.47" rx="1.83" ry="5.29"/><ellipse class="cls-1" cx="31.24" cy="50.47" rx="1.83" ry="5.29"/><ellipse class="cls-1" cx="33.41" cy="50.47" rx="1.83" ry="5.29"/><ellipse class="cls-1" cx="35.59" cy="50.47" rx="1.83" ry="5.29"/><ellipse class="cls-1" cx="37.76" cy="50.47" rx="1.83" ry="5.29"/><ellipse class="cls-1" cx="39.93" cy="50.47" rx="1.83" ry="5.29"/><ellipse class="cls-1" cx="42.11" cy="50.47" rx="1.83" ry="5.29"/><ellipse class="cls-1" cx="44.28" cy="50.47" rx="1.83" ry="5.29"/><ellipse class="cls-1" cx="46.46" cy="50.47" rx="1.83" ry="5.29"/><ellipse class="cls-1" cx="48.63" cy="50.47" rx="1.83" ry="5.29"/><ellipse class="cls-1" cx="50.81" cy="50.47" rx="1.83" ry="5.29"/><ellipse class="cls-1" cx="52.98" cy="50.47" rx="1.83" ry="5.29"/><ellipse class="cls-1" cx="55.15" cy="50.47" rx="1.83" ry="5.29"/><ellipse class="cls-1" cx="57.33" cy="50.47" rx="1.83" ry="5.29"/><path class="cls-2" d="M26.4,21,30.71,3,34.8,0h4.33a8.25,8.25,0,0,0-3.58,6.89A7.88,7.88,0,0,0,43.17,15a7.38,7.38,0,0,0,5.29-2.27C56.94,18.5,62,26.83,66.05,34.92L53.38,40.33C44.63,26,26.4,21,26.4,21Z"/><path class="cls-3" d="M77.7,122.2A8.5,8.5,0,0,0,86.19,114c1.25-32.32-5-58.93-19-81.35-1.25-2-5.08.4-8.68,2.66s-7,4.39-5.72,6.38C64.93,61.14,70.32,84.58,69.2,113.37a8.5,8.5,0,0,0,8.17,8.82Z"/><path class="cls-4" d="M60,21,55.63,3,51.55,0H47.21A8.26,8.26,0,0,1,50.8,6.89,7.88,7.88,0,0,1,43.17,15a7.41,7.41,0,0,1-5.29-2.27C29.41,18.5,24.31,26.83,20.3,34.92L33,40.33C41.71,26,60,21,60,21Z"/><path class="cls-3" d="M8.64,122.2A8.49,8.49,0,0,1,.16,114c-1.26-32.32,5-58.93,19-81.35,1.25-2,5.07.4,8.67,2.66s7,4.39,5.73,6.38C21.41,61.14,16,84.58,17.14,113.37A8.5,8.5,0,0,1,9,122.19Z"/><circle class="cls-5" cx="43.3" cy="20.17" r="2.93"/><rect class="cls-6" x="15.51" y="32.93" width="21.78" height="8.51" rx="4.25" ry="4.25" transform="translate(22.13 -8.22) rotate(30)"/><rect class="cls-6" x="49.05" y="32.93" width="21.78" height="8.51" rx="4.25" ry="4.25" transform="translate(130.45 39.42) rotate(150)"/></g></g></svg>