<?xml version="1.0" encoding="utf-8"?>
<!-- Generator: Adobe Illustrator 22.0.1, SVG Export Plug-In . SVG Version: 6.00 Build 0)  -->
<svg version="1.1" id="Layer_1" xmlns="http://www.w3.org/2000/svg" xmlns:xlink="http://www.w3.org/1999/xlink" x="0px" y="0px"
	 viewBox="0 0 508 508" style="enable-background:new 0 0 508 508;" xml:space="preserve">
<style type="text/css">
	.st0{fill:#F1543F;}
	.st1{fill:#FFD05B;}
	.st2{fill:#2B3B4E;}
	.st3{fill:#E6E9EE;}
	.st4{fill:#FF7058;}
	.st5{fill:#F9B54C;}
	.st6{fill:#324A5E;}
</style>
<circle class="st0" cx="254" cy="254" r="254"/>
<path class="st1" d="M254,479.2c-60.2,0-116.7-23.4-159.2-66c-42.5-42.5-66-99.1-66-159.2s23.4-116.7,66-159.2s99.1-66,159.2-66
	s116.7,23.4,159.2,66c42.5,42.5,66,99.1,66,159.2s-23.4,116.7-66,159.2C370.7,455.8,314.2,479.2,254,479.2z"/>
<path class="st2" d="M256.8,177.6h-100v119.6c64.4-17.2,100.4,24,100.4,24s36-41.2,100.4-24V177.6H256.8z"/>
<polygon class="st0" points="252.8,349.2 233.2,349.2 233.2,398 252.8,381.6 272.4,398 272.4,349.2 "/>
<path class="st3" d="M418.8,277.6c-109.6,14.4-221.6,14.4-331.6,0l0,0v96.8l0,0c109.6-14.4,221.6-14.4,331.6,0l0,0V277.6
	L418.8,277.6z"/>
<path class="st4" d="M275.6,288.4V364c-7.6,0-15.2,0-22.4,0c-7.6,0-15.2,0-22.4,0v-75.6C245.6,288.8,260.4,288.8,275.6,288.4z"/>
<polygon class="st5" points="409.2,304 368,304 376.8,269.2 400.4,269.2 "/>
<rect x="384.8" y="177.6" class="st4" width="8" height="103.2"/>
<polygon class="st6" points="256.8,110 92.8,177.6 256.8,244.8 420.8,177.6 "/>
<circle class="st1" cx="388.8" cy="269.2" r="16.4"/>
<polygon class="st0" points="401,85 71,415 88,432 433.5,86.5 415.5,68.5 "/>
</svg>
