<?xml version="1.0" encoding="utf-8"?>
<!-- Generator: Adobe Illustrator 22.0.1, SVG Export Plug-In . SVG Version: 6.00 Build 0)  -->
<svg version="1.1" id="Capa_1" xmlns="http://www.w3.org/2000/svg" xmlns:xlink="http://www.w3.org/1999/xlink" x="0px" y="0px"
	 viewBox="0 0 295 295" style="enable-background:new 0 0 295 295;" xml:space="preserve">
<g>
	<path d="M8.6,197c13.2,37.1,40.1,66.8,75.7,83.7c35.6,16.9,75.6,18.9,112.7,5.7c37.1-13.2,66.8-40.1,83.7-75.7
		c16.9-35.6,18.9-75.6,5.7-112.7c-1.1-3.1-4.5-4.7-7.7-3.6c-3.1,1.1-4.8,4.5-3.6,7.7c12.1,34.1,10.3,70.8-5.2,103.5
		S227,262.9,193,275s-70.8,10.3-103.5-5.2C56.8,254.3,32.1,227,19.9,193C7.8,158.9,9.6,122.1,25.1,89.4S68,32.1,102,19.9
		c38.2-13.6,80.1-9.5,114.9,11.3c2.8,1.7,6.5,0.8,8.2-2.1s0.8-6.5-2.1-8.2C199.9,7.1,173.8,0,147.6,0C130.9,0,114.1,2.9,98,8.6
		C60.9,21.8,31.2,48.7,14.3,84.3C-2.6,119.9-4.6,159.9,8.6,197z"/>
	<path d="M81.5,147.5c0,3.3,2.7,6,6,6h149.4c3.3,0,6-2.7,6-6s-2.7-6-6-6H87.5C84.2,141.5,81.5,144.2,81.5,147.5z"/>
	<path d="M129.3,84.7c2.3-2.3,2.3-6.1,0-8.5c-1.2-1.2-2.7-1.8-4.2-1.8s-3.1,0.6-4.2,1.8l-67,67c-2.3,2.3-2.3,6.1,0,8.5l67,67
		c2.3,2.3,6.1,2.3,8.5,0c2.3-2.3,2.3-6.1,0-8.5l-62.8-62.8L129.3,84.7z"/>
</g>
</svg>
