<svg xmlns="http://www.w3.org/2000/svg" viewBox="0 0 107.79 83.65"><defs><style>.cls-1{isolation:isolate;}.cls-2{fill:#f6e7cf;}.cls-3{mix-blend-mode:multiply;}.cls-4{fill:#231f20;}.cls-5{fill:#0f1110;}.cls-6{fill:#fff;}</style></defs><title>puf-face2</title><g class="cls-1"><g id="Layer_2" data-name="Layer 2"><g id="pig2"><path class="cls-2" d="M72.85,2.84l.11,0c1,.41,14,6.22,19.13,25.33A55.63,55.63,0,0,1,94,44.82,38,38,0,0,1,83.53,69.48c-1.48,1.55-3.1,3.16-4.74,4.63a.63.63,0,0,1-.42.16h0a.62.62,0,0,1-.62-.65c.66-10.64-11-26.08-16.09-30.39-4.87-4.09-6.95-7.38-7.8-9.15a.61.61,0,0,0-1.11,0c-.86,1.77-2.93,5.06-7.81,9.15C39.82,47.54,28.2,63,28.85,73.62c0,.35-.62.65-.62.65a.67.67,0,0,1-.42-.16c-1.72-1.55-3.41-3.24-4.95-4.87A37.21,37.21,0,0,1,12.67,46,55.37,55.37,0,0,1,14.52,28.2C19.64,9.13,27,5.71,33.77,2.84S60.67-1.77,72.85,2.84Z"/><g class="cls-3"><path class="cls-2" d="M53.3,40.64a.72.72,0,0,1-.72-.72V18.25a.73.73,0,0,1,.72-.73.73.73,0,0,1,.73.73V39.92A.73.73,0,0,1,53.3,40.64Z"/></g><path class="cls-4" d="M37.23,34.41a10.73,10.73,0,0,0,1.11,2.64,6.36,6.36,0,0,1-.82,7.52,60.49,60.49,0,0,0-4.83,6.06,6.34,6.34,0,0,1-11-1c-.87-1.92-1.76-3.78-2.57-5.35a6.37,6.37,0,0,1,.85-7.1,30.71,30.71,0,0,1,8-6.68A6.34,6.34,0,0,1,37.23,34.41Z"/><path class="cls-5" d="M52.2,64.54C50,65.76,45,69.43,41.61,79.22a2.61,2.61,0,0,0,3.57,3.26l.22-.13a2.54,2.54,0,0,1,2.58,0,8.1,8.1,0,0,0,5,1.24,3.22,3.22,0,0,1,.76,0,8.06,8.06,0,0,0,5-1.24,2.55,2.55,0,0,1,2.59,0l.21.13a2.61,2.61,0,0,0,3.57-3.26c-3.36-9.79-8.33-13.46-10.59-14.68A2.51,2.51,0,0,0,52.2,64.54Z"/><path class="cls-4" d="M61.66,43.23C54.23,37,53.3,32.63,53.3,32.63s-.93,4.36-8.36,10.6c-6.66,5.6-24.29,30-11.7,38.23,0,0,3.09,2.26,8.89,0,0,0,3-13.55,11.17-16.46,8.15,2.91,11.17,16.46,11.17,16.46,5.8,2.26,8.89,0,8.89,0C86,73.23,68.32,48.83,61.66,43.23Z"/><g class="cls-3"><path class="cls-2" d="M31.88,81.13a.71.71,0,0,1-.53-.24c-6.57-7.28-7.09-16.1-1.55-26.21,3-5.53,7.82-11.28,14.23-17.08a7.12,7.12,0,0,0,2.37-7.21,11,11,0,0,0-1.62-3.7.71.71,0,0,1,.15-1,.72.72,0,0,1,1,.15c.05.07,5.26,7.23-.94,12.84-10.23,9.27-25.47,27-12.58,41.25a.73.73,0,0,1-.05,1A.74.74,0,0,1,31.88,81.13Z"/></g><path class="cls-6" d="M34.89,41.27a6.07,6.07,0,1,0-6.07,6.06A6.06,6.06,0,0,0,34.89,41.27Z"/><path class="cls-5" d="M33.7,41.27a4.88,4.88,0,1,0-4.88,4.88A4.88,4.88,0,0,0,33.7,41.27Z"/><path class="cls-5" d="M47.76,50.34a1.46,1.46,0,0,0,2.89.42,5.79,5.79,0,0,0,.07-.77s.22-3.54-1.93-2.66C47.55,47.84,47.85,49.18,47.76,50.34Z"/><g class="cls-3"><path class="cls-2" d="M74.72,81.13a.72.72,0,0,1-.48-.18.73.73,0,0,1-.06-1c12.9-14.3-2.34-32-12.58-41.25-6.19-5.61-1-12.77-.93-12.84a.72.72,0,0,1,1.16.86c-.2.27-4.46,6.19.75,10.91C69,43.4,73.77,49.15,76.81,54.68c5.54,10.11,5,18.93-1.55,26.21A.71.71,0,0,1,74.72,81.13Z"/></g><path class="cls-4" d="M68.81,34.28a9.87,9.87,0,0,1-1.11,2.64,6.38,6.38,0,0,0,.83,7.52,61.66,61.66,0,0,1,4.83,6.06,6.34,6.34,0,0,0,11-1c.87-1.92,1.76-3.78,2.57-5.35a6.37,6.37,0,0,0-.85-7.1,30.9,30.9,0,0,0-8-6.68A6.35,6.35,0,0,0,68.81,34.28Z"/><path class="cls-6" d="M71.72,41.27a6.06,6.06,0,1,1,6.06,6.06A6.06,6.06,0,0,1,71.72,41.27Z"/><circle class="cls-5" cx="77.78" cy="41.27" r="4.88"/><path class="cls-5" d="M58.84,50.34a1.46,1.46,0,0,1-2.88.42,5.79,5.79,0,0,1-.07-.77s-.22-3.54,1.93-2.66C59.05,47.84,58.76,49.18,58.84,50.34Z"/><path class="cls-4" d="M91.32,28.2c-4.56-17-15.38-23.47-18.39-25l0-.37S72.59-2.47,85,6.73a55.4,55.4,0,0,0,10.5,4.36s12.59,2.06,12.26,11.76c0,0-2.07,11.57-5.82,19.8,0,0-1.28,5.42-4.51,4.68s-4.34-8.77-4.34-8.77L93,37A57.75,57.75,0,0,0,91.32,28.2Z"/><path class="cls-4" d="M16.47,28.2c4.56-17,15.38-23.47,18.39-25l0-.37s.31-5.32-12.12,3.88a55.4,55.4,0,0,1-10.5,4.36S-.32,13.15,0,22.85c0,0,2.07,11.57,5.82,19.8,0,0,1.28,5.42,4.51,4.68s4.34-8.77,4.34-8.77L14.82,37A57.75,57.75,0,0,1,16.47,28.2Z"/><path class="cls-6" d="M29.46,39.92a1.36,1.36,0,1,1-1.35-1.36A1.36,1.36,0,0,1,29.46,39.92Z"/><path class="cls-6" d="M77.14,39.92a1.36,1.36,0,1,0,1.36-1.36A1.36,1.36,0,0,0,77.14,39.92Z"/><g class="cls-3"><path class="cls-2" d="M25.06,28.28a.75.75,0,0,1-.58-.28.74.74,0,0,1,.13-1c12.3-9.54,16.38-6.53,16.8-6.15a.72.72,0,0,1-.94,1.1c-.1-.07-3.72-2.52-15,6.19A.68.68,0,0,1,25.06,28.28Z"/></g><g class="cls-3"><path class="cls-2" d="M81.55,28.28a.71.71,0,0,1-.45-.16c-11.34-8.79-14.93-6.22-15-6.19a.72.72,0,0,1-1-.07.74.74,0,0,1,.07-1c.43-.38,4.5-3.39,16.8,6.15a.73.73,0,0,1-.44,1.3Z"/></g></g></g></g></svg>