<svg xmlns="http://www.w3.org/2000/svg" viewBox="0 0 136.27 166.92"><defs><style>.cls-1{fill:#d1bba1;}.cls-2{fill:#f6e7cf;}</style></defs><title>pug-body</title><g id="Layer_2" data-name="Layer 2"><g id="pug3"><path class="cls-1" d="M17.61,85.43C6.3,95.61-13,123.12,12.89,139c0,0-17.4,21.17,6.05,20.41S45.41,148,45.41,148s18.15,9.08,34.78,4.54,28.74,10.62,40.84,6.82,0-19.68,0-19.68,34.79-17.39-.76-52.18S28.93,75.26,17.61,85.43Z"/><path class="cls-2" d="M20.07,28.89c-6.6,16.23-11.54,38.23-2,57.47,0,0-3.93,20,9.07,36.8,5.17,6.8,3.65,16.55,2,21.13-2.48,5.34-6,7.79-7.44,12.59-3,10.43,17.73,15.83,29.64.57,2.82-6.12,0-14.12,0-14.12S32.68,75.27,65.45,79.81s29.24,29.24,18.65,63c0,0-4.54,25.34,17.65,23.76s11.09-10.15,3.53-29.81c0,0,1-13.11,3-16.14s13.75-20,11.6-38.31c5.67-10.26,15.41-27.56-9.35-63.62C90.28-10.81,33.41-3.89,20.07,28.89Z"/></g></g></svg>