<?xml version="1.0" encoding="utf-8"?>
<!-- Generator: Adobe Illustrator 22.0.1, SVG Export Plug-In . SVG Version: 6.00 Build 0)  -->
<svg version="1.1" id="Capa_1" xmlns="http://www.w3.org/2000/svg" xmlns:xlink="http://www.w3.org/1999/xlink" x="0px" y="0px"
	 viewBox="0 0 92 92" style="enable-background:new 0 0 92 92;" xml:space="preserve">
<style type="text/css">
	.st0{fill:#D33737;}
	.st1{fill:#F4EFEF;}
</style>
<ellipse class="st0" cx="45.2" cy="46" rx="27.7" ry="31"/>
<g>
	<path class="st1" d="M45.4,0C20,0.3-0.3,21.2,0,46.6C0.3,72,21.2,92.3,46.6,92C72,91.7,92.3,70.8,92,45.4C91.7,20,70.8-0.3,45.4,0z
		 M45.2,74L45,74c-3.9-0.1-6.7-3-6.6-6.9c0.1-3.8,2.9-6.5,6.7-6.5l0.2,0c4,0.1,6.7,3,6.6,6.9C51.9,71.3,49.1,74,45.2,74z M61.7,41.3
		c-0.9,1.3-2.9,2.9-5.5,4.9l-2.8,1.9c-1.5,1.2-2.5,2.3-2.8,3.4c-0.3,0.9-0.4,1.1-0.4,2.9l0,0.5H39.4l0-0.9c0.1-3.7,0.2-5.9,1.8-7.7
		c2.4-2.8,7.8-6.3,8-6.4c0.8-0.6,1.4-1.2,1.9-1.9c1.1-1.6,1.6-2.8,1.6-4c0-1.7-0.5-3.2-1.5-4.6c-0.9-1.3-2.7-2-5.3-2
		c-2.6,0-4.3,0.8-5.4,2.5c-1.1,1.7-1.6,3.5-1.6,5.3v0.5H27.9l0-0.5c0.3-6.8,2.7-11.6,7.2-14.5c2.8-1.8,6.3-2.7,10.4-2.7
		c5.3,0,9.9,1.3,13.4,3.9c3.6,2.6,5.4,6.5,5.4,11.6C64.4,36.3,63.5,38.9,61.7,41.3z"/>
</g>
</svg>
