<svg xmlns="http://www.w3.org/2000/svg" viewBox="0 0 268.93 78.83"><defs><style>.cls-1{fill:#706d6e;}.cls-2{fill:#891704;}.cls-3{fill:none;}</style></defs><title>quiz-66</title><g id="Layer_2" data-name="Layer 2"><g id="Layer_1-2" data-name="Layer 1"><path class="cls-1" d="M64.57,22.67a8.72,8.72,0,0,0-1.32.61c-.44.25-.85.51-1.25.79s-.78.58-1.15.89l-1,.89a2.66,2.66,0,0,1-.82.5,2.19,2.19,0,0,1-.93.13,2.15,2.15,0,0,1-.86-.26,2.55,2.55,0,0,1-.71-.57,2.6,2.6,0,0,1-.56-2.25,2.89,2.89,0,0,1,.91-1.46c.52-.47,1.06-.93,1.63-1.38s1.16-.86,1.76-1.25,1.21-.74,1.81-1a16,16,0,0,1,1.78-.79,14.43,14.43,0,0,1,3.79-.84A9.26,9.26,0,0,1,71,17a6.53,6.53,0,0,1,4.43,4.25,9.6,9.6,0,0,1,.46,4.23,20.05,20.05,0,0,1-1.11,4.81,35.74,35.74,0,0,1-2.27,5q-1.39,2.53-3,4.9l7.91-2.85a7.44,7.44,0,0,1,1.4-.37,4,4,0,0,1,1.28,0,2.44,2.44,0,0,1,1,.43,2.08,2.08,0,0,1,.69,1,2.38,2.38,0,0,1,0,2,3,3,0,0,1-1.71,1.3L66.52,46.56a6.43,6.43,0,0,1-1.28.31,2.84,2.84,0,0,1-1.17-.06,2.14,2.14,0,0,1-1-.56,2.87,2.87,0,0,1-.69-1.14,4.4,4.4,0,0,1,.49-3.83l1.84-3.21.74-1.31c.25-.42.46-.8.62-1.14l.48-.95c.58-1.12,1.09-2.19,1.53-3.24a25.07,25.07,0,0,0,1-2.92A12.63,12.63,0,0,0,69.58,26a4.58,4.58,0,0,0-.22-1.92A2.58,2.58,0,0,0,68.61,23a2.92,2.92,0,0,0-1.14-.57,4,4,0,0,0-1.4-.09A6.24,6.24,0,0,0,64.57,22.67Z"/><path class="cls-1" d="M89,39.28a1.75,1.75,0,0,1-.37,1.22,2.09,2.09,0,0,1-.89.63,2.3,2.3,0,0,1-.71.13,2,2,0,0,1-.73-.11,1.81,1.81,0,0,1-.65-.36,1.55,1.55,0,0,1-.43-.66,2.85,2.85,0,0,1-.15-.89c0-.34,0-.69,0-1q-.15-6.48-.28-12.88t-.29-12.88a8.06,8.06,0,0,1,0-1,3.92,3.92,0,0,1,.18-.88,2.21,2.21,0,0,1,.39-.71,1.56,1.56,0,0,1,.68-.45,2.36,2.36,0,0,1,.74-.14,1.76,1.76,0,0,1,.72.12,1.68,1.68,0,0,1,.62.41,2,2,0,0,1,.44.74,2.69,2.69,0,0,1,.15.85c0,.34,0,.65,0,.95q.14,6.78.27,13.46T89,39.28Z"/><path class="cls-1" d="M102,16.35a7.8,7.8,0,0,0,1.66-.83,4.17,4.17,0,0,0,1.16-1.13,3.21,3.21,0,0,0,.55-1.41,3.3,3.3,0,0,0-.2-1.64,3,3,0,0,0-.82-1.26,3.36,3.36,0,0,0-1.25-.67,4,4,0,0,0-1.53-.11,6.64,6.64,0,0,0-1.66.38,11.39,11.39,0,0,0-1.46.64c-.5.25-1,.52-1.42.79l-1,.58-.6.37a3.1,3.1,0,0,1-.45.21,2.45,2.45,0,0,1-1.88,0A2.12,2.12,0,0,1,92,11c-.38-1,0-2.1,1.08-3.2a16,16,0,0,1,5.76-3.14,16.11,16.11,0,0,1,4.39-1,10,10,0,0,1,3.63.34,6.76,6.76,0,0,1,2.74,1.59,7,7,0,0,1,1.71,2.69,6.35,6.35,0,0,1,.39,2.25,6.91,6.91,0,0,1-.36,2.14,6.45,6.45,0,0,1-1,1.84,5.65,5.65,0,0,1-1.54,1.35l0,.08a6.82,6.82,0,0,1,2.5,0,5.89,5.89,0,0,1,3.82,2.35,8.27,8.27,0,0,1,1.19,2.22,7.42,7.42,0,0,1,.43,3.71,7.22,7.22,0,0,1-1.33,3.15,10.44,10.44,0,0,1-2.76,2.54,18.63,18.63,0,0,1-3.85,1.88,14.34,14.34,0,0,1-1.48.44c-.53.13-1.09.25-1.66.34a16.86,16.86,0,0,1-1.74.21c-.59,0-1.16.06-1.71.05a4.34,4.34,0,0,1-1.93-.39,2.14,2.14,0,0,1-1.12-1.27,2.27,2.27,0,0,1-.13-.89,2.17,2.17,0,0,1,.24-.87,2.38,2.38,0,0,1,.59-.74,3.19,3.19,0,0,1,.94-.53L101,28c.29,0,.64-.05,1-.07l1.34-.11c.48-.06,1-.13,1.5-.23a9.76,9.76,0,0,0,1.52-.42A8.23,8.23,0,0,0,108,26.4a4.17,4.17,0,0,0,1.18-1,2.87,2.87,0,0,0,.57-1.34,3.22,3.22,0,0,0-.21-1.63,3.44,3.44,0,0,0-2.24-2.27,6.07,6.07,0,0,0-3.89.31l-1.29.47a2,2,0,0,1-1.67-.07,2.24,2.24,0,0,1-1-1.22,2.46,2.46,0,0,1-.14-.81,2.12,2.12,0,0,1,.13-.79,2.23,2.23,0,0,1,.45-.68,2,2,0,0,1,.78-.49Z"/><path class="cls-2" d="M127.39,23.39a2.06,2.06,0,0,1,1.07.77,2.18,2.18,0,0,1,.42,1.14,2.71,2.71,0,0,1-.08.93,2.49,2.49,0,0,1-.39.84,2.2,2.2,0,0,1-.66.63,2,2,0,0,1-.88.3,1.19,1.19,0,0,1-.27,0c-.42-.05-.84-.12-1.25-.2l-1.24-.21c-.42-.06-.82-.11-1.22-.14a6.17,6.17,0,0,0-1.14,0,6.69,6.69,0,0,0-3,.91,5.25,5.25,0,0,0-1.88,1.95,7.87,7.87,0,0,0-.87,2.8,16.82,16.82,0,0,0,0,3.49l0,0a5.65,5.65,0,0,1,1.12-1.57A6.5,6.5,0,0,1,118.59,34a7.6,7.6,0,0,1,1.77-.7,11.58,11.58,0,0,1,2-.34,10,10,0,0,1,3.52.28,8.17,8.17,0,0,1,3,1.46A8,8,0,0,1,131,37.24a9.67,9.67,0,0,1,1,3.66,10.07,10.07,0,0,1-.41,4,8.74,8.74,0,0,1-1.87,3.24,9.65,9.65,0,0,1-3.19,2.27,13.17,13.17,0,0,1-4.37,1.1,12.81,12.81,0,0,1-5.28-.52,9.36,9.36,0,0,1-3.8-2.42,11.6,11.6,0,0,1-2.44-4,21.19,21.19,0,0,1-1.14-5.33,30.42,30.42,0,0,1-.08-4.14,19.44,19.44,0,0,1,.56-3.77A13,13,0,0,1,111.27,28a10.07,10.07,0,0,1,2.21-2.62,10.9,10.9,0,0,1,3.19-1.84,15.43,15.43,0,0,1,4.29-.93,17,17,0,0,1,3.18,0A14.6,14.6,0,0,1,127.39,23.39ZM121.73,47a4.05,4.05,0,0,0,3.11-1.56,5.38,5.38,0,0,0,.81-3.78,8.29,8.29,0,0,0-.43-2,4.87,4.87,0,0,0-.91-1.54,3.46,3.46,0,0,0-1.37-.92,4.27,4.27,0,0,0-1.86-.21,4.2,4.2,0,0,0-3.28,1.68A5.63,5.63,0,0,0,117,42.5a6.38,6.38,0,0,0,.48,2,4.35,4.35,0,0,0,1,1.46,3.89,3.89,0,0,0,1.45.84A4.46,4.46,0,0,0,121.73,47Z"/><path class="cls-2" d="M152.42,21.18a2.17,2.17,0,0,1,1.48,1.91,2.67,2.67,0,0,1-.08.93,2.63,2.63,0,0,1-.39.85,2.47,2.47,0,0,1-.66.63,2,2,0,0,1-.88.29h-.27l-1.25-.2c-.41-.08-.83-.16-1.24-.22s-.82-.1-1.22-.13a7.1,7.1,0,0,0-1.13,0,6.9,6.9,0,0,0-3,.91,5.29,5.29,0,0,0-1.87,1.95,7.54,7.54,0,0,0-.87,2.81,16,16,0,0,0,0,3.48l0,0a5.62,5.62,0,0,1,1.11-1.58,6.72,6.72,0,0,1,1.49-1.11,8,8,0,0,1,1.78-.7,12.27,12.27,0,0,1,2-.34,10.53,10.53,0,0,1,3.52.28,8.29,8.29,0,0,1,3,1.46A8.18,8.18,0,0,1,156,35a9.42,9.42,0,0,1,1,3.67,10,10,0,0,1-.41,4,8.46,8.46,0,0,1-1.87,3.24,9.89,9.89,0,0,1-3.18,2.28,13.29,13.29,0,0,1-4.38,1.09,12.65,12.65,0,0,1-5.28-.51,9.38,9.38,0,0,1-3.8-2.43,11.55,11.55,0,0,1-2.44-4A20.76,20.76,0,0,1,134.5,37a28.76,28.76,0,0,1-.09-4.13,19.33,19.33,0,0,1,.56-3.77,12.9,12.9,0,0,1,1.33-3.26,10.08,10.08,0,0,1,2.2-2.63,11.12,11.12,0,0,1,3.19-1.84,15.43,15.43,0,0,1,4.29-.93,17,17,0,0,1,3.18,0A14.13,14.13,0,0,1,152.42,21.18Zm-5.67,23.6a4.11,4.11,0,0,0,3.12-1.55,5.46,5.46,0,0,0,.8-3.78,8.19,8.19,0,0,0-.43-2,4.59,4.59,0,0,0-.91-1.54A3.41,3.41,0,0,0,148,35a4.09,4.09,0,0,0-1.86-.2,4.24,4.24,0,0,0-3.28,1.67,5.71,5.71,0,0,0-.83,3.87,6.18,6.18,0,0,0,.49,2,4.15,4.15,0,0,0,1,1.45,3.76,3.76,0,0,0,1.45.84A4.48,4.48,0,0,0,146.75,44.78Z"/><path class="cls-2" d="M104.23,65a440.42,440.42,0,0,1,68.18-8.5c4.43-.2,3.24-5.21-.62-5a451.2,451.2,0,0,0-69.88,8.59c-4.38.89-1,5.63,2.32,5Z"/><path class="cls-2" d="M102.12,72.42A441.09,441.09,0,0,1,170.43,64c4.4-.2-.75-3.17-2.9-3.07a449.72,449.72,0,0,0-69.76,8.62c-3.49.71,2.56,3.27,4.35,2.91Z"/><rect class="cls-3" width="268.93" height="78.83"/></g></g></svg>