<svg xmlns="http://www.w3.org/2000/svg" viewBox="0 0 268.93 78.83"><defs><style>.cls-1{fill:#706d6e;}.cls-2{fill:#891704;}.cls-3{fill:none;}</style></defs><title>quiz-0</title><g id="Layer_2" data-name="Layer 2"><g id="Layer_1-2" data-name="Layer 1"><path class="cls-1" d="M63.73,17.61A10.91,10.91,0,0,1,69,16.92a9.42,9.42,0,0,1,4.29,1.73,13.4,13.4,0,0,1,3.37,3.66,25.32,25.32,0,0,1,2.47,5.09,27.31,27.31,0,0,1,1,3.66,18,18,0,0,1,.41,3.5,13.2,13.2,0,0,1-.34,3.24A9.24,9.24,0,0,1,79,40.65,9.39,9.39,0,0,1,76.82,43a12.43,12.43,0,0,1-3.31,1.74,11,11,0,0,1-5.29.71,9.52,9.52,0,0,1-4.3-1.74,13.19,13.19,0,0,1-3.34-3.67A25.28,25.28,0,0,1,58.13,35a27.74,27.74,0,0,1-1.05-3.61,17.76,17.76,0,0,1-.42-3.48A12.73,12.73,0,0,1,57,24.63a9.2,9.2,0,0,1,1.2-2.87,9.47,9.47,0,0,1,2.2-2.38A12.43,12.43,0,0,1,63.73,17.61Zm1.61,4.46a3.22,3.22,0,0,0-1.8,1.4,4.58,4.58,0,0,0-.54,2.3,13,13,0,0,0,.46,3.1c.3,1.15.69,2.4,1.18,3.75s1,2.56,1.48,3.64a13.25,13.25,0,0,0,1.62,2.66,4.48,4.48,0,0,0,1.88,1.42,3.7,3.7,0,0,0,4.06-1.46,4.53,4.53,0,0,0,.55-2.28,11.81,11.81,0,0,0-.43-3.07,38,38,0,0,0-1.18-3.79c-.48-1.34-1-2.54-1.47-3.62a12.25,12.25,0,0,0-1.64-2.67A4.64,4.64,0,0,0,67.62,22,3.21,3.21,0,0,0,65.34,22.07Z"/><path class="cls-1" d="M89,39.27a1.76,1.76,0,0,1-.37,1.23,2.09,2.09,0,0,1-.89.63,2.3,2.3,0,0,1-.71.13,2,2,0,0,1-.73-.11,1.81,1.81,0,0,1-.65-.36,1.49,1.49,0,0,1-.43-.66,2.85,2.85,0,0,1-.15-.89c0-.34,0-.69,0-1q-.15-6.48-.28-12.88t-.29-12.88a8.06,8.06,0,0,1,0-1,3.92,3.92,0,0,1,.18-.88,2.21,2.21,0,0,1,.39-.71,1.56,1.56,0,0,1,.68-.45,2.36,2.36,0,0,1,.74-.14,1.76,1.76,0,0,1,.72.12,1.68,1.68,0,0,1,.62.41,2,2,0,0,1,.44.74,2.7,2.7,0,0,1,.15.86c0,.33,0,.64,0,.94q.14,6.78.27,13.46T89,39.27Z"/><path class="cls-1" d="M102,16.35a7.8,7.8,0,0,0,1.66-.83,4.17,4.17,0,0,0,1.16-1.13,3.21,3.21,0,0,0,.55-1.41,3.3,3.3,0,0,0-.2-1.64,3,3,0,0,0-.82-1.26,3.36,3.36,0,0,0-1.25-.67,4,4,0,0,0-1.53-.11,6.64,6.64,0,0,0-1.66.38,11.39,11.39,0,0,0-1.46.64c-.5.25-1,.52-1.42.79l-1,.58-.6.37a3.1,3.1,0,0,1-.45.21,2.54,2.54,0,0,1-1.88,0A2.14,2.14,0,0,1,92,11c-.38-1,0-2.1,1.08-3.2a16,16,0,0,1,5.76-3.14,16.11,16.11,0,0,1,4.39-1,10,10,0,0,1,3.63.34,6.76,6.76,0,0,1,2.74,1.59,7,7,0,0,1,1.71,2.69,6.35,6.35,0,0,1,.39,2.25,6.91,6.91,0,0,1-.36,2.14,6.45,6.45,0,0,1-1,1.84,5.65,5.65,0,0,1-1.54,1.35l0,.08a6.82,6.82,0,0,1,2.5,0,5.89,5.89,0,0,1,3.82,2.35,8.27,8.27,0,0,1,1.19,2.22,7.41,7.41,0,0,1,.43,3.71,7.22,7.22,0,0,1-1.33,3.15,10.44,10.44,0,0,1-2.76,2.54,18.63,18.63,0,0,1-3.85,1.88,14.34,14.34,0,0,1-1.48.44c-.53.13-1.09.25-1.66.34a16.86,16.86,0,0,1-1.74.21c-.59,0-1.16.06-1.71.05a4.34,4.34,0,0,1-1.93-.39,2.14,2.14,0,0,1-1.12-1.27,2.27,2.27,0,0,1-.13-.89,2.17,2.17,0,0,1,.24-.87,2.38,2.38,0,0,1,.59-.74,3.19,3.19,0,0,1,.94-.53L101,28l1-.07,1.34-.11c.48-.06,1-.13,1.5-.23a9.76,9.76,0,0,0,1.52-.42A8.23,8.23,0,0,0,108,26.4a4.17,4.17,0,0,0,1.18-1,2.87,2.87,0,0,0,.57-1.34,3.22,3.22,0,0,0-.21-1.63,3.44,3.44,0,0,0-2.24-2.27,6.07,6.07,0,0,0-3.89.31l-1.29.47a2,2,0,0,1-1.67-.07,2.23,2.23,0,0,1-1-1.23,2.36,2.36,0,0,1-.14-.8,2,2,0,0,1,.13-.78,2.16,2.16,0,0,1,.45-.69,2,2,0,0,1,.78-.49Z"/><path class="cls-2" d="M129.71,23a10.85,10.85,0,0,1,5.26.68,9.45,9.45,0,0,1,3.71,2.77A13.59,13.59,0,0,1,141,30.82a25.63,25.63,0,0,1,1.09,5.55,28.79,28.79,0,0,1,.08,3.81,17.58,17.58,0,0,1-.5,3.49,13.1,13.1,0,0,1-1.16,3,9.15,9.15,0,0,1-4.63,4.16,12.17,12.17,0,0,1-3.64.84,11,11,0,0,1-5.3-.66,9.5,9.5,0,0,1-3.71-2.78,13.33,13.33,0,0,1-2.3-4.4,25.52,25.52,0,0,1-1.07-5.55,27.86,27.86,0,0,1-.09-3.75,17.49,17.49,0,0,1,.48-3.48,12.48,12.48,0,0,1,1.14-3.05,9,9,0,0,1,1.89-2.47A9.3,9.3,0,0,1,126,23.84,12.35,12.35,0,0,1,129.71,23Zm.41,4.72a3.23,3.23,0,0,0-2.09.9,4.5,4.5,0,0,0-1.11,2.09,12.88,12.88,0,0,0-.35,3.11q0,1.79.18,3.93c.13,1.42.3,2.72.51,3.89a12.65,12.65,0,0,0,.89,3,4.39,4.39,0,0,0,1.45,1.85,3.27,3.27,0,0,0,2.22.51,3.32,3.32,0,0,0,2.08-.88A4.63,4.63,0,0,0,135,44a12.85,12.85,0,0,0,.37-3.08q0-1.78-.18-4c-.12-1.41-.29-2.7-.51-3.88a12.34,12.34,0,0,0-.89-3,4.52,4.52,0,0,0-1.47-1.88A3.22,3.22,0,0,0,130.12,27.7Z"/><path class="cls-2" d="M103.88,65.42A439.76,439.76,0,0,1,172,57c4.16-.19,4.6-6.27.18-6.07a452,452,0,0,0-69.94,8.68c-4.26.87-2.58,6.64,1.63,5.78Z"/><path class="cls-2" d="M102.12,72.42A441.09,441.09,0,0,1,170.43,64c4.4-.2-.75-3.17-2.9-3.07a449.72,449.72,0,0,0-69.76,8.62c-3.49.71,2.56,3.27,4.35,2.91Z"/><rect class="cls-3" width="268.93" height="78.83"/></g></g></svg>