<svg xmlns="http://www.w3.org/2000/svg" viewBox="0 0 268.93 78.83"><defs><style>.cls-1{fill:#706d6e;}.cls-2{fill:#891704;}.cls-3{fill:none;}</style></defs><title>quiz-100</title><g id="Layer_2" data-name="Layer 2"><g id="Layer_1-2" data-name="Layer 1"><path class="cls-1" d="M66.2,29.27a7.34,7.34,0,0,0,1.66-.82A4.17,4.17,0,0,0,69,27.32a3.26,3.26,0,0,0,.55-1.41,3.3,3.3,0,0,0-.2-1.64A3,3,0,0,0,68.55,23a3.22,3.22,0,0,0-1.25-.67,4.07,4.07,0,0,0-1.53-.11,6.64,6.64,0,0,0-1.66.38,11.39,11.39,0,0,0-1.46.64c-.5.25-1,.52-1.42.79l-1,.58-.59.37a3.1,3.1,0,0,1-.45.21,2.54,2.54,0,0,1-1.88,0,2.15,2.15,0,0,1-1.2-1.3c-.37-1,0-2.09,1.09-3.19A16,16,0,0,1,63,17.57a16.11,16.11,0,0,1,4.39-1,10,10,0,0,1,3.63.34,6.86,6.86,0,0,1,2.74,1.58,7.09,7.09,0,0,1,1.71,2.7,6.35,6.35,0,0,1,.39,2.25,6.91,6.91,0,0,1-.36,2.14,6.24,6.24,0,0,1-1,1.84,5.47,5.47,0,0,1-1.53,1.35l0,.07a7,7,0,0,1,2.5,0,5.88,5.88,0,0,1,3.83,2.35,8.56,8.56,0,0,1,1.19,2.22,7.41,7.41,0,0,1,.43,3.71,7.22,7.22,0,0,1-1.33,3.15,10.44,10.44,0,0,1-2.76,2.54A18.88,18.88,0,0,1,73,44.66a13.83,13.83,0,0,1-1.49.44c-.52.13-1.08.25-1.65.34a17.05,17.05,0,0,1-1.75.21c-.58,0-1.15.06-1.71.05a4.32,4.32,0,0,1-1.92-.39A2.14,2.14,0,0,1,63.32,44a2.29,2.29,0,0,1-.13-.9,2.17,2.17,0,0,1,.24-.86,2.27,2.27,0,0,1,.59-.74A2.87,2.87,0,0,1,65,41l.16-.06c.3,0,.65-.05,1.06-.07l1.33-.12c.49,0,1-.12,1.51-.22a9.76,9.76,0,0,0,1.52-.42,8.23,8.23,0,0,0,1.66-.79,4.17,4.17,0,0,0,1.18-1A3,3,0,0,0,74,36.94a3.33,3.33,0,0,0-.21-1.63A3.44,3.44,0,0,0,71.5,33a6.07,6.07,0,0,0-3.89.31l-1.29.47a2,2,0,0,1-1.67-.07,2.23,2.23,0,0,1-1-1.23,2.36,2.36,0,0,1-.14-.8,2.08,2.08,0,0,1,.13-.79,2.2,2.2,0,0,1,.44-.68,2.08,2.08,0,0,1,.79-.49Z"/><path class="cls-1" d="M89,39.3a1.73,1.73,0,0,1-.37,1.22,2.09,2.09,0,0,1-.89.63,2.35,2.35,0,0,1-.71.13,2,2,0,0,1-.73-.1,1.83,1.83,0,0,1-.65-.37,1.49,1.49,0,0,1-.43-.66,2.8,2.8,0,0,1-.15-.89l0-1q-.15-6.48-.28-12.88t-.29-12.88a7.9,7.9,0,0,1,0-1,4,4,0,0,1,.18-.89A2.13,2.13,0,0,1,85,9.9a1.59,1.59,0,0,1,.67-.45,2.76,2.76,0,0,1,.74-.14,1.78,1.78,0,0,1,.73.12,1.91,1.91,0,0,1,.62.41,2.14,2.14,0,0,1,.44.74,3,3,0,0,1,.15.86c0,.33,0,.64,0,1q.14,6.76.27,13.45T89,39.3Z"/><path class="cls-1" d="M102,16.37a7.47,7.47,0,0,0,1.65-.82,4.36,4.36,0,0,0,1.17-1.13,3.26,3.26,0,0,0,.35-3.06,2.94,2.94,0,0,0-.82-1.25,3.1,3.1,0,0,0-1.25-.67,4.28,4.28,0,0,0-1.53-.12,6.81,6.81,0,0,0-1.67.38,13.71,13.71,0,0,0-1.45.64c-.5.26-1,.52-1.42.79l-1,.58-.6.37a1.85,1.85,0,0,1-.45.21,2.45,2.45,0,0,1-1.88,0A2.13,2.13,0,0,1,91.92,11c-.37-1,0-2.1,1.09-3.2a15.89,15.89,0,0,1,5.76-3.13,16.54,16.54,0,0,1,4.39-1,9.81,9.81,0,0,1,3.63.35,6.63,6.63,0,0,1,2.74,1.58,7.05,7.05,0,0,1,1.71,2.69,6.37,6.37,0,0,1,.39,2.26,6.8,6.8,0,0,1-.36,2.13,6.32,6.32,0,0,1-1,1.84,5.69,5.69,0,0,1-1.54,1.36l0,.07a6.82,6.82,0,0,1,2.5,0,6.13,6.13,0,0,1,2.13.79,5.94,5.94,0,0,1,1.69,1.56,8.62,8.62,0,0,1,1.19,2.23,7.4,7.4,0,0,1,.43,3.71,7.22,7.22,0,0,1-1.33,3.15,10.41,10.41,0,0,1-2.76,2.53,18.13,18.13,0,0,1-3.85,1.88,13.8,13.8,0,0,1-1.49.45c-.53.13-1.08.24-1.65.34s-1.16.16-1.75.2a16.32,16.32,0,0,1-1.7,0,4.34,4.34,0,0,1-1.93-.39,2.15,2.15,0,0,1-1.12-1.26,2.29,2.29,0,0,1-.13-.9,2.17,2.17,0,0,1,.24-.87,2.38,2.38,0,0,1,.59-.74,3.07,3.07,0,0,1,.94-.53l.16-.06L102,28c.41,0,.85-.06,1.34-.11s1-.13,1.5-.22a9.76,9.76,0,0,0,1.52-.42,8.81,8.81,0,0,0,1.66-.79,4.35,4.35,0,0,0,1.18-1.06,2.83,2.83,0,0,0,.57-1.33,3.32,3.32,0,0,0-.21-1.63,3.43,3.43,0,0,0-2.24-2.28,6,6,0,0,0-3.89.32l-1.29.46a1.9,1.9,0,0,1-1.67-.07,2.24,2.24,0,0,1-1-1.22,2.4,2.4,0,0,1-.14-.8,2.05,2.05,0,0,1,.13-.79,2.31,2.31,0,0,1,.44-.69,2.21,2.21,0,0,1,.79-.49Z"/><path class="cls-2" d="M101.73,32.33a2.47,2.47,0,0,1-1.17.43,2.11,2.11,0,0,1-.94-.12,2.33,2.33,0,0,1-.78-.46,2.3,2.3,0,0,1-.55-.72,2.47,2.47,0,0,1-.25-.88,2,2,0,0,1,.27-1.23,4.55,4.55,0,0,1,1.1-1.11l6.07-4.2a12.47,12.47,0,0,1,1.12-.7,3.17,3.17,0,0,1,1.27-.38,2.79,2.79,0,0,1,2.62,1,6.35,6.35,0,0,1,1.11,3.44L113.24,46a8.92,8.92,0,0,1,0,1.79,4.31,4.31,0,0,1-.41,1.53,2.88,2.88,0,0,1-1,1.09,3.44,3.44,0,0,1-1.68.52,2.87,2.87,0,0,1-2.73-1,7.23,7.23,0,0,1-1.14-3.72L104.86,30Z"/><path class="cls-2" d="M129.59,21a10.85,10.85,0,0,1,5.26.68,9.38,9.38,0,0,1,3.71,2.77,13.12,13.12,0,0,1,2.32,4.39A25,25,0,0,1,142,34.37a27.22,27.22,0,0,1,.09,3.81,18.34,18.34,0,0,1-.5,3.49,12.86,12.86,0,0,1-1.16,3,9.11,9.11,0,0,1-1.9,2.45,9.46,9.46,0,0,1-2.73,1.72,12.24,12.24,0,0,1-3.64.84,11,11,0,0,1-5.31-.67,9.52,9.52,0,0,1-3.71-2.77,13.23,13.23,0,0,1-2.29-4.4,26.25,26.25,0,0,1-1.08-5.55,27.94,27.94,0,0,1-.08-3.76,18.16,18.16,0,0,1,.47-3.47,13.35,13.35,0,0,1,1.14-3.05,9.08,9.08,0,0,1,4.63-4.21A12.35,12.35,0,0,1,129.59,21ZM130,25.7a3.23,3.23,0,0,0-2.1.9,4.4,4.4,0,0,0-1.1,2.09,12.4,12.4,0,0,0-.35,3.11c0,1.19.05,2.5.18,3.92s.29,2.73.51,3.9a12.82,12.82,0,0,0,.88,3,4.4,4.4,0,0,0,1.46,1.85,3.65,3.65,0,0,0,4.29-.38A4.45,4.45,0,0,0,134.9,42a11.91,11.91,0,0,0,.37-3.08c0-1.19-.05-2.51-.17-4s-.3-2.71-.51-3.88a12.34,12.34,0,0,0-.89-3,4.8,4.8,0,0,0-1.47-1.89A3.3,3.3,0,0,0,130,25.7Z"/><path class="cls-2" d="M155.17,18.73a10.9,10.9,0,0,1,5.27.67,9.51,9.51,0,0,1,3.7,2.77,13.27,13.27,0,0,1,2.32,4.4,25,25,0,0,1,1.09,5.55,27.22,27.22,0,0,1,.09,3.81,18.34,18.34,0,0,1-.5,3.49,13,13,0,0,1-1.16,3,9.11,9.11,0,0,1-1.9,2.45,9.44,9.44,0,0,1-2.73,1.71,11.93,11.93,0,0,1-3.64.85,11,11,0,0,1-5.3-.67A9.4,9.4,0,0,1,148.7,44a12.88,12.88,0,0,1-2.3-4.4,26,26,0,0,1-1.08-5.54,28,28,0,0,1-.08-3.76,17.59,17.59,0,0,1,.48-3.48,12.63,12.63,0,0,1,1.14-3.05,9.14,9.14,0,0,1,1.88-2.47,9.62,9.62,0,0,1,2.74-1.73A12.05,12.05,0,0,1,155.17,18.73Zm.42,4.72a3.25,3.25,0,0,0-2.1.89,4.48,4.48,0,0,0-1.1,2.1,12.82,12.82,0,0,0-.35,3.11c0,1.19.06,2.5.18,3.92s.3,2.72.51,3.9a13,13,0,0,0,.88,3,4.47,4.47,0,0,0,1.46,1.85,3.69,3.69,0,0,0,4.29-.38,4.41,4.41,0,0,0,1.12-2.06,12,12,0,0,0,.37-3.08c0-1.19,0-2.51-.17-4s-.3-2.7-.51-3.87a12.56,12.56,0,0,0-.89-3A4.76,4.76,0,0,0,157.81,24,3.16,3.16,0,0,0,155.59,23.45Z"/><path class="cls-2" d="M104.54,65.53A442.44,442.44,0,0,1,173,57c3.67-.17,1-6.18-1.71-6.06a450.83,450.83,0,0,0-69.65,8.57c-3.1.63.19,6.56,3,6Z"/><path class="cls-2" d="M102.12,72.42A441.09,441.09,0,0,1,170.43,64c4.4-.2-.75-3.17-2.9-3.07a449.72,449.72,0,0,0-69.76,8.62c-3.49.71,2.56,3.27,4.35,2.91Z"/><rect class="cls-3" width="268.93" height="78.83"/></g></g></svg>