<svg xmlns="http://www.w3.org/2000/svg" viewBox="0 0 249.12 83.12"><defs><style>.cls-1{fill:#79ad84;}.cls-2,.cls-3{fill:#3993bc;}.cls-3{font-size:19.98px;stroke:#3993bc;stroke-miterlimit:10;stroke-width:1.27px;font-family:MyriadPro-Regular, Myriad Pro;}</style></defs><title>quiz-walking</title><g id="Layer_2" data-name="Layer 2"><g id="Layer_1-2" data-name="Layer 1"><rect class="cls-1" y="44.19" width="3.12" height="10.29" rx="1.56" ry="1.56"/><rect class="cls-1" x="10.7" y="48.96" width="3.12" height="5.51" rx="1.56" ry="1.56"/><rect class="cls-1" x="21.4" y="48.96" width="3.12" height="5.51" rx="1.56" ry="1.56"/><rect class="cls-1" x="32.1" y="36.84" width="3.12" height="17.64" rx="1.56" ry="1.56"/><rect class="cls-1" x="42.81" y="39.59" width="3.12" height="14.89" rx="1.56" ry="1.56"/><rect class="cls-1" x="53.6" y="39.59" width="2.94" height="14.7" rx="1.47" ry="1.47"/><rect class="cls-1" x="64.3" width="2.94" height="54.29" rx="1.47" ry="1.47"/><rect class="cls-1" x="75" width="2.94" height="54.29" rx="1.47" ry="1.47"/><rect class="cls-1" x="85.75" y="18.14" width="2.85" height="36.27" rx="1.42" ry="1.42"/><rect class="cls-1" x="96.45" y="18.85" width="2.85" height="35.56" rx="1.41" ry="1.41"/><rect class="cls-1" x="107.15" y="26.67" width="2.85" height="27.74" rx="1.42" ry="1.42"/><rect class="cls-1" x="117.86" y="45.95" width="2.85" height="8.46" rx="1.42" ry="1.42"/><rect class="cls-1" x="128.56" y="49.43" width="2.85" height="4.98" rx="1.42" ry="1.42"/><rect class="cls-1" x="139.26" y="49.43" width="2.85" height="4.98" rx="1.42" ry="1.42"/><rect class="cls-1" x="149.96" y="27.45" width="2.85" height="26.96" rx="1.42" ry="1.42"/><rect class="cls-1" x="160.66" y="9.61" width="2.85" height="44.8" rx="1.42" ry="1.42"/><rect class="cls-1" x="171.01" y="33.2" width="2.85" height="21.21" rx="1.42" ry="1.42"/><rect class="cls-1" x="181.71" y="27.93" width="2.85" height="26.48" rx="1.42" ry="1.42"/><rect class="cls-1" x="192.77" y="48.73" width="2.85" height="5.69" rx="1.42" ry="1.42"/><rect class="cls-1" x="203.47" y="46.4" width="2.85" height="8.01" rx="1.42" ry="1.42"/><rect class="cls-1" x="214.17" y="37.55" width="2.85" height="16.86" rx="1.42" ry="1.42"/><rect class="cls-1" x="224.87" y="43.83" width="2.85" height="10.58" rx="1.42" ry="1.42"/><rect class="cls-1" x="235.57" y="49.25" width="2.85" height="5.17" rx="1.42" ry="1.42"/><rect class="cls-1" x="246.27" y="49.25" width="2.85" height="5.17" rx="1.42" ry="1.42"/><path class="cls-2" d="M107.91,76V71a3,3,0,0,0-.25-1.4.85.85,0,0,0-.81-.46,1.15,1.15,0,0,0-1.07.62,4.36,4.36,0,0,0-.34,1.95V76h-3.17V71a3.17,3.17,0,0,0-.24-1.4.82.82,0,0,0-.79-.46,1.14,1.14,0,0,0-1.08.66A5,5,0,0,0,99.82,72v4H96.66V66.82H99l.4,1.13h.19a2.33,2.33,0,0,1,1.05-1,3.49,3.49,0,0,1,1.58-.33,3.1,3.1,0,0,1,2.78,1.2h.25a2.65,2.65,0,0,1,1.08-.89,3.63,3.63,0,0,1,1.52-.31,3.13,3.13,0,0,1,2.41.83,3.63,3.63,0,0,1,.77,2.53v6Z"/><path class="cls-2" d="M113.16,64.53a1.3,1.3,0,0,1,.4-1.05,1.87,1.87,0,0,1,1.28-.35,2,2,0,0,1,1.28.35,1.33,1.33,0,0,1,.41,1.05c0,.93-.57,1.4-1.69,1.4S113.16,65.46,113.16,64.53ZM116.41,76h-3.17V66.82h3.17Z"/><path class="cls-2" d="M124.4,76V71a2.94,2.94,0,0,0-.26-1.38.9.9,0,0,0-.85-.46,1.23,1.23,0,0,0-1.16.64,4.92,4.92,0,0,0-.35,2.19v4h-3.17V66.82H121l.4,1.13h.18a2.52,2.52,0,0,1,1.12-1,3.92,3.92,0,0,1,1.65-.32,3.14,3.14,0,0,1,2.37.88,3.43,3.43,0,0,1,.84,2.48v6Z"/><path class="cls-2" d="M136.24,76l-.39-1.14h-.19a2.6,2.6,0,0,1-1.1,1,4,4,0,0,1-1.67.33,3.12,3.12,0,0,1-2.35-.87,3.46,3.46,0,0,1-.84-2.48v-6h3.16v5a2.85,2.85,0,0,0,.26,1.36.88.88,0,0,0,.83.47,1.22,1.22,0,0,0,1.17-.65,4.91,4.91,0,0,0,.35-2.17v-4h3.16V76Z"/><path class="cls-2" d="M145.3,73.65a4.7,4.7,0,0,0,1.53-.32v2.3a5.9,5.9,0,0,1-1.21.4,6.86,6.86,0,0,1-1.36.11,3,3,0,0,1-2.3-.78,3.48,3.48,0,0,1-.7-2.39V69.19h-1.11V67.9l1.41-1,.82-1.93h2.07v1.84h2.25v2.37h-2.25v3.56C144.45,73.35,144.73,73.65,145.3,73.65Z"/><path class="cls-2" d="M152.86,76.14a4.94,4.94,0,0,1-3.56-1.21A4.6,4.6,0,0,1,148,71.46a5,5,0,0,1,1.17-3.56,4.38,4.38,0,0,1,3.35-1.24,4.44,4.44,0,0,1,3.2,1.07,4.12,4.12,0,0,1,1.13,3.11v1.41h-5.66a1.58,1.58,0,0,0,.57,1.21,2.19,2.19,0,0,0,1.44.44,7.19,7.19,0,0,0,1.53-.16,8,8,0,0,0,1.52-.54v2.27a5.52,5.52,0,0,1-1.54.53A10.42,10.42,0,0,1,152.86,76.14Zm-.19-7.33a1.28,1.28,0,0,0-.93.35,1.62,1.62,0,0,0-.44,1.1H154a1.59,1.59,0,0,0-.38-1.06A1.25,1.25,0,0,0,152.67,68.81Z"/><path class="cls-2" d="M165.76,73.17a2.6,2.6,0,0,1-1,2.22,4.75,4.75,0,0,1-2.88.75A11.47,11.47,0,0,1,160.1,76a7.15,7.15,0,0,1-1.54-.4V73.1a9.05,9.05,0,0,0,1.62.54,6.79,6.79,0,0,0,1.56.21c.69,0,1-.16,1-.47a.53.53,0,0,0-.29-.44,14.92,14.92,0,0,0-1.67-.74A4.07,4.07,0,0,1,159.05,71a2.72,2.72,0,0,1-.5-1.67,2.31,2.31,0,0,1,1-2,4.69,4.69,0,0,1,2.8-.71,7.14,7.14,0,0,1,1.7.19,10.21,10.21,0,0,1,1.65.58l-.85,2a9.22,9.22,0,0,0-1.34-.48,4.54,4.54,0,0,0-1.15-.2c-.52,0-.77.13-.77.38a.47.47,0,0,0,.27.4,14.3,14.3,0,0,0,1.56.68,6.18,6.18,0,0,1,1.44.77,2.37,2.37,0,0,1,.69.9A3.1,3.1,0,0,1,165.76,73.17Z"/><text class="cls-3" transform="translate(86.48 77.49)">?</text></g></g></svg>