<?xml version="1.0" encoding="utf-8"?>
<!-- Generator: Adobe Illustrator 22.0.1, SVG Export Plug-In . SVG Version: 6.00 Build 0)  -->
<svg version="1.1" id="Layer_1" xmlns="http://www.w3.org/2000/svg" xmlns:xlink="http://www.w3.org/1999/xlink" x="0px" y="0px"
	 viewBox="0 0 268.9 78.8" style="enable-background:new 0 0 268.9 78.8;" xml:space="preserve">
<style type="text/css">
	.st0{fill:#891704;}
	.st1{fill:#706D6E;}
	.st2{fill:none;}
</style>
<title>quiz-0</title>
<g id="Layer_2_1_">
	<g id="Layer_1-2">
		<g>
			<path class="st0" d="M110.7,19.5c2.3,0,4.6,0.5,6.7,1.6c1.8,1,3.3,2.4,4.4,4.1c1.2,1.8,2,3.9,2.4,6c0.5,2.4,0.7,4.9,0.6,7.3
				c-0.1,1.6-0.2,3.3-0.5,4.9c-0.2,1.5-0.6,3-1.1,4.4c-0.5,1.3-1.1,2.6-1.9,3.8c-0.8,1.1-1.7,2.1-2.8,2.9c-1.1,0.8-2.4,1.4-3.7,1.8
				c-1.6,0.4-3.2,0.6-4.8,0.6c-2.3,0-4.7-0.5-6.7-1.6c-1.8-1-3.3-2.4-4.4-4.1c-1.2-1.8-1.9-3.9-2.3-6c-0.5-2.4-0.7-4.8-0.6-7.3
				c0-1.6,0.2-3.3,0.4-4.9c0.2-1.5,0.6-3,1.1-4.4c0.5-1.4,1.1-2.6,1.9-3.8c0.8-1.1,1.7-2.1,2.8-2.9c1.1-0.8,2.4-1.5,3.8-1.9
				C107.4,19.7,109.1,19.5,110.7,19.5z M110.6,25.7c-1-0.1-2,0.2-2.8,0.9c-0.8,0.7-1.4,1.6-1.7,2.5c-0.5,1.3-0.8,2.6-0.9,4
				c-0.2,1.5-0.3,3.2-0.3,5.1s0,3.6,0.1,5.1c0.1,1.4,0.3,2.7,0.7,4c0.3,1,0.9,1.9,1.6,2.6c1.6,1.2,3.9,1.3,5.6,0.1
				c0.8-0.7,1.4-1.5,1.7-2.5c0.5-1.3,0.8-2.6,0.9-3.9c0.2-1.7,0.3-3.4,0.3-5.1c0-1.8,0-3.5-0.1-5.1c-0.1-1.4-0.3-2.7-0.7-4
				c-0.3-1-0.9-1.9-1.6-2.6C112.6,26,111.6,25.7,110.6,25.7z"/>
			<path class="st1" d="M131.2,57.6c-0.2,0.6-0.5,1-1,1.3c-0.4,0.2-0.9,0.4-1.4,0.3c-0.3,0-0.6-0.1-0.9-0.2
				c-0.3-0.1-0.6-0.3-0.8-0.5c-0.3-0.2-0.5-0.5-0.6-0.7c-0.2-0.3-0.2-0.7-0.2-1c0-0.4,0.1-0.8,0.2-1.1c0.2-0.4,0.3-0.8,0.5-1.2
				c1.9-5.3,3.8-10.5,5.7-15.8s3.8-10.5,5.7-15.8c0.1-0.4,0.3-0.8,0.5-1.2c0.2-0.4,0.4-0.7,0.6-1c0.2-0.3,0.5-0.5,0.8-0.7
				c0.3-0.2,0.7-0.2,1-0.2c0.3,0,0.7,0.1,1,0.2c0.3,0.1,0.6,0.3,0.8,0.5c0.2,0.2,0.4,0.5,0.6,0.8c0.1,0.3,0.2,0.7,0.2,1.1
				c0,0.4-0.1,0.8-0.2,1.1c-0.2,0.4-0.3,0.8-0.4,1.1c-2,5.5-4,11-6,16.5C135.2,46.6,133.2,52.1,131.2,57.6z"/>
			<path class="st1" d="M157.7,35.9c0.8,0,1.6-0.1,2.4-0.2c0.7-0.1,1.4-0.4,1.9-0.8c0.6-0.4,1-0.9,1.3-1.5c0.3-0.6,0.5-1.4,0.5-2.1
				c0-0.7-0.1-1.3-0.4-1.9c-0.3-0.5-0.7-1-1.2-1.4c-0.5-0.4-1.2-0.7-1.8-0.8c-0.7-0.2-1.5-0.3-2.2-0.3c-0.7,0-1.4,0-2.1,0.1
				c-0.7,0.1-1.5,0.2-2.1,0.3l-1.5,0.2l-0.9,0.2c-0.2,0-0.4,0-0.6,0c-0.8,0-1.7-0.3-2.3-0.9c-0.5-0.6-0.8-1.3-0.7-2.1
				c0-1.4,1-2.5,2.8-3.4c2.7-1,5.6-1.3,8.5-1.1c2,0,3.9,0.3,5.8,0.8c1.5,0.4,3,1.2,4.2,2.1c1.1,0.9,2,2,2.6,3.2
				c0.6,1.3,0.9,2.7,0.8,4.1c0,1-0.2,2-0.6,2.9c-0.3,0.9-0.8,1.7-1.4,2.4c-0.6,0.7-1.3,1.3-2.1,1.8c-0.8,0.5-1.6,0.8-2.5,0.9l0,0.1
				c1.1,0.2,2.1,0.6,3,1.2c1.7,1,3,2.7,3.5,4.6c0.3,1.1,0.4,2.2,0.4,3.2c0,1.6-0.4,3.3-1.2,4.7c-0.8,1.3-1.8,2.4-3.1,3.2
				c-1.4,0.9-2.9,1.5-4.5,1.8c-1.8,0.4-3.7,0.5-5.5,0.5c-0.7,0-1.3-0.1-2-0.2c-0.7-0.1-1.4-0.2-2.2-0.4c-0.7-0.1-1.5-0.3-2.2-0.6
				c-0.7-0.3-1.4-0.5-2.1-0.7c-0.8-0.3-1.6-0.8-2.2-1.4c-0.5-0.6-0.8-1.3-0.8-2.1c0-0.4,0.1-0.8,0.3-1.1c0.2-0.4,0.4-0.7,0.7-0.9
				c0.3-0.3,0.7-0.5,1.1-0.6c0.4-0.1,0.9-0.2,1.4-0.2l0.3-0.1l1.2,0.4l1.7,0.5c0.6,0.2,1.3,0.3,1.9,0.4c0.7,0.1,1.4,0.2,2,0.2
				c0.8,0,1.6,0,2.3-0.2c0.7-0.1,1.3-0.3,1.9-0.7c0.5-0.3,1-0.8,1.3-1.4c0.3-0.6,0.5-1.4,0.5-2.1c0.1-1.5-0.5-2.9-1.7-3.8
				c-1.4-1-3.1-1.5-4.9-1.4l-1.8,0c-0.8,0-1.5-0.3-2-0.9c-0.4-0.6-0.7-1.3-0.6-2c0-0.4,0.1-0.7,0.2-1c0.1-0.3,0.3-0.6,0.5-0.9
				c0.2-0.3,0.5-0.5,0.9-0.6c0.4-0.2,0.8-0.2,1.2-0.2L157.7,35.9z"/>
		</g>
		<rect y="0" class="st2" width="268.9" height="78.8"/>
	</g>
</g>
</svg>
