<svg xmlns="http://www.w3.org/2000/svg" viewBox="0 0 268.93 78.83"><defs><style>.cls-1{fill:#706d6e;}.cls-2{fill:#891704;}.cls-3{fill:none;}</style></defs><title>quiz-33</title><g id="Layer_2" data-name="Layer 2"><g id="Layer_1-2" data-name="Layer 1"><path class="cls-1" d="M61.35,27.88a2.46,2.46,0,0,1-1,.72,2.18,2.18,0,0,1-.94.12,2.36,2.36,0,0,1-.87-.25,2.23,2.23,0,0,1-.71-.55,2.37,2.37,0,0,1-.47-.79,2,2,0,0,1-.06-1.26,4.61,4.61,0,0,1,.78-1.35l4.8-5.61a11.66,11.66,0,0,1,.91-1,3.3,3.3,0,0,1,1.13-.7,2.79,2.79,0,0,1,2.79.3,6.49,6.49,0,0,1,2,3.05L76,38.19a9.88,9.88,0,0,1,.46,1.73,4.17,4.17,0,0,1,0,1.58,2.7,2.7,0,0,1-.67,1.31,3.41,3.41,0,0,1-1.49.93,2.88,2.88,0,0,1-2.91-.31,7.2,7.2,0,0,1-2-3.3L63.79,24.84Z"/><path class="cls-1" d="M89,39.28a1.75,1.75,0,0,1-.37,1.22,2.09,2.09,0,0,1-.89.63,2.3,2.3,0,0,1-.71.13,2,2,0,0,1-.73-.11,1.67,1.67,0,0,1-.65-.36,1.49,1.49,0,0,1-.43-.66,2.85,2.85,0,0,1-.15-.89c0-.34,0-.69,0-1q-.15-6.48-.28-12.88t-.29-12.88a8.06,8.06,0,0,1,0-1,3.92,3.92,0,0,1,.18-.88,2.21,2.21,0,0,1,.39-.71,1.56,1.56,0,0,1,.68-.45,2.36,2.36,0,0,1,.74-.14,1.76,1.76,0,0,1,.72.12,1.68,1.68,0,0,1,.62.41,2,2,0,0,1,.44.74,2.7,2.7,0,0,1,.15.86c0,.33,0,.64,0,.94q.14,6.78.27,13.46T89,39.28Z"/><path class="cls-1" d="M102,16.35a7.8,7.8,0,0,0,1.66-.83,4.17,4.17,0,0,0,1.16-1.13,3.21,3.21,0,0,0,.55-1.41,3.3,3.3,0,0,0-.2-1.64,3,3,0,0,0-.82-1.26,3.36,3.36,0,0,0-1.25-.67,4,4,0,0,0-1.53-.11,6.64,6.64,0,0,0-1.66.38,11.39,11.39,0,0,0-1.46.64c-.5.25-1,.52-1.42.79l-1,.58-.6.37a3.1,3.1,0,0,1-.45.21,2.54,2.54,0,0,1-1.88,0A2.12,2.12,0,0,1,92,11c-.38-1,0-2.1,1.08-3.2a16,16,0,0,1,5.76-3.14,16.11,16.11,0,0,1,4.39-1,10,10,0,0,1,3.63.34,6.76,6.76,0,0,1,2.74,1.59,7,7,0,0,1,1.71,2.69,6.35,6.35,0,0,1,.39,2.25,6.91,6.91,0,0,1-.36,2.14,6.45,6.45,0,0,1-1,1.84,5.65,5.65,0,0,1-1.54,1.35l0,.08a6.82,6.82,0,0,1,2.5,0,5.89,5.89,0,0,1,3.82,2.35,8.42,8.42,0,0,1,1.19,2.22,7.41,7.41,0,0,1,.43,3.71,7.22,7.22,0,0,1-1.33,3.15,10.44,10.44,0,0,1-2.76,2.54,18.63,18.63,0,0,1-3.85,1.88,14.34,14.34,0,0,1-1.48.44c-.53.13-1.09.25-1.66.34a16.86,16.86,0,0,1-1.74.21c-.59,0-1.16.06-1.71.05a4.34,4.34,0,0,1-1.93-.39,2.15,2.15,0,0,1-1.12-1.26,2.34,2.34,0,0,1-.13-.9,2.17,2.17,0,0,1,.24-.87,2.38,2.38,0,0,1,.59-.74,3.19,3.19,0,0,1,.94-.53L101,28l1-.07,1.34-.11c.48-.06,1-.13,1.5-.23a9.73,9.73,0,0,0,1.52-.41,8.82,8.82,0,0,0,1.66-.8,4.17,4.17,0,0,0,1.18-1,2.87,2.87,0,0,0,.57-1.34,3.22,3.22,0,0,0-.21-1.63,3.44,3.44,0,0,0-2.24-2.27,6.07,6.07,0,0,0-3.89.31l-1.29.47a1.93,1.93,0,0,1-1.67-.07,2.24,2.24,0,0,1-1-1.22,2.46,2.46,0,0,1-.14-.81,2,2,0,0,1,.13-.78,2.16,2.16,0,0,1,.45-.69,2,2,0,0,1,.78-.49Z"/><path class="cls-2" d="M113.77,34.88a7.85,7.85,0,0,0,1.81-.38,4.2,4.2,0,0,0,1.41-.79,3.29,3.29,0,0,0,1.12-2.87,3,3,0,0,0-.48-1.42,3.09,3.09,0,0,0-1-1,4.44,4.44,0,0,0-1.45-.5,6.48,6.48,0,0,0-1.71-.05,11.76,11.76,0,0,0-1.57.24c-.54.12-1.07.25-1.57.4l-1.1.31-.67.21a3.86,3.86,0,0,1-.49.09,2.53,2.53,0,0,1-1.82-.48,2.15,2.15,0,0,1-.83-1.56c-.09-1.09.53-2,1.87-2.81a15.93,15.93,0,0,1,6.37-1.57,16.85,16.85,0,0,1,4.5.16,10.1,10.1,0,0,1,3.42,1.26,6.73,6.73,0,0,1,2.24,2.23,6.9,6.9,0,0,1,1,3,6.38,6.38,0,0,1-.2,2.28,6.91,6.91,0,0,1-.89,2,6.55,6.55,0,0,1-1.44,1.53,5.84,5.84,0,0,1-1.83.92v.07a7.23,7.23,0,0,1,2.43.59,5.93,5.93,0,0,1,3.1,3.25,8.68,8.68,0,0,1,.57,2.46,7.32,7.32,0,0,1-.53,3.69,7.1,7.1,0,0,1-2.09,2.71,10.52,10.52,0,0,1-3.31,1.75,19.27,19.27,0,0,1-4.21.84,12.86,12.86,0,0,1-1.54,0c-.55,0-1.11,0-1.69-.09a17.31,17.31,0,0,1-1.74-.24c-.58-.11-1.14-.24-1.67-.39a4.61,4.61,0,0,1-1.76-.87,2.14,2.14,0,0,1-.75-1.51,2.1,2.1,0,0,1,.1-.9,2.25,2.25,0,0,1,.45-.78,2.46,2.46,0,0,1,.76-.56,3.13,3.13,0,0,1,1-.28h.18l1,.2c.41.08.85.16,1.33.23s1,.13,1.5.17a9.38,9.38,0,0,0,1.59,0,8.21,8.21,0,0,0,1.8-.34,4.26,4.26,0,0,0,1.41-.72,2.77,2.77,0,0,0,.89-1.14,3.37,3.37,0,0,0,.22-1.63,3.43,3.43,0,0,0-1.59-2.77,6,6,0,0,0-3.84-.69l-1.37.12a2,2,0,0,1-1.6-.49,2.26,2.26,0,0,1-.67-1.45,2.47,2.47,0,0,1,.07-.81,1.94,1.94,0,0,1,.33-.73,2.26,2.26,0,0,1,.6-.55,2,2,0,0,1,.89-.27Z"/><path class="cls-2" d="M138.79,32.67a7.74,7.74,0,0,0,1.81-.37,4.22,4.22,0,0,0,1.41-.8,3.29,3.29,0,0,0,.9-1.22,3.49,3.49,0,0,0,.22-1.64,3.11,3.11,0,0,0-.47-1.43,3.3,3.3,0,0,0-1-1,4.16,4.16,0,0,0-1.45-.51,7.45,7.45,0,0,0-1.71,0,13.75,13.75,0,0,0-1.57.25c-.54.11-1.07.25-1.57.4l-1.1.31-.67.2a2,2,0,0,1-.49.09,2.45,2.45,0,0,1-1.82-.48,2.09,2.09,0,0,1-.82-1.55c-.1-1.1.52-2,1.86-2.82a20.13,20.13,0,0,1,10.87-1.4A9.89,9.89,0,0,1,146.57,22a6.64,6.64,0,0,1,2.24,2.23,6.86,6.86,0,0,1,1,3,6.42,6.42,0,0,1-.2,2.28,6.91,6.91,0,0,1-.89,2A6,6,0,0,1,147.25,33a5.44,5.44,0,0,1-1.83.92V34a6.89,6.89,0,0,1,2.43.59,6.07,6.07,0,0,1,1.86,1.31A6.14,6.14,0,0,1,151,37.83a8.36,8.36,0,0,1,.57,2.45,7,7,0,0,1-2.62,6.41,10.2,10.2,0,0,1-3.31,1.74,18.18,18.18,0,0,1-4.2.84c-.49,0-1,.06-1.55,0s-1.11,0-1.69-.1a17.31,17.31,0,0,1-1.74-.24c-.58-.11-1.13-.24-1.66-.39a4.32,4.32,0,0,1-1.77-.87,2.31,2.31,0,0,1-.65-2.41,2.2,2.2,0,0,1,.45-.77,2.34,2.34,0,0,1,.76-.57,2.9,2.9,0,0,1,1-.27l.17,0,1,.2c.4.08.84.16,1.32.23a13.93,13.93,0,0,0,1.51.17,9.26,9.26,0,0,0,1.58,0,8.85,8.85,0,0,0,1.8-.34,4.68,4.68,0,0,0,1.41-.72,2.87,2.87,0,0,0,.89-1.15,3.26,3.26,0,0,0,.22-1.63A3.46,3.46,0,0,0,143,37.66a6.12,6.12,0,0,0-3.85-.69l-1.37.12a1.89,1.89,0,0,1-1.59-.49,2.25,2.25,0,0,1-.68-1.44,2.56,2.56,0,0,1,.07-.82,2.16,2.16,0,0,1,.33-.72,2.11,2.11,0,0,1,.6-.55,2.07,2.07,0,0,1,.89-.27Z"/><path class="cls-2" d="M104.16,63.88a434.42,434.42,0,0,1,67.23-8.3c3-.14,6.06-3.38,1.42-3.17A457.43,457.43,0,0,0,102,61.18c-4.53.93-.79,3.31,2.19,2.7Z"/><path class="cls-2" d="M102.12,72.42A441.09,441.09,0,0,1,170.43,64c4.4-.2-.75-3.17-2.9-3.07a449.72,449.72,0,0,0-69.76,8.62c-3.49.71,2.56,3.27,4.35,2.91Z"/><rect class="cls-3" width="268.93" height="78.83"/></g></g></svg>