<?xml version="1.0" encoding="utf-8"?>
<!-- Generator: Adobe Illustrator 22.0.1, SVG Export Plug-In . SVG Version: 6.00 Build 0)  -->
<svg version="1.1" id="Layer_1" xmlns="http://www.w3.org/2000/svg" xmlns:xlink="http://www.w3.org/1999/xlink" x="0px" y="0px"
	 viewBox="0 0 268.9 78.8" style="enable-background:new 0 0 268.9 78.8;" xml:space="preserve">
<style type="text/css">
	.st0{fill:#3993BC;}
	.st1{fill:#C9902D;}
	.st2{fill:#CE9B42;}
	.st3{fill:#AD2832;stroke:#512320;stroke-width:1.89;stroke-miterlimit:10;}
	.st4{opacity:0.38;fill:#603C11;enable-background:new    ;}
	.st5{fill:#FEFAF4;}
	.st6{fill:#724617;}
	.st7{fill:#6B5641;}
	.st8{fill:#DB5B58;}
	.st9{fill:#F9F7E2;}
	.st10{fill:none;}
</style>
<title>quiz-food</title>
<g id="Layer_2_1_">
	<g id="Layer_1-2">
		<g>
			<path class="st0" d="M96.2,33.6c-0.7,0-1.5,0.2-2.1,0.6c-0.1,0.1-0.2,0.1-0.4,0.2v-5.1h-3v15.5h3v-6.5c0-0.3,0-0.5,0.1-0.6
				c0.2-0.7,0.8-1.3,1.8-1.3c0.4,0,1.6,0,1.6,2.2v6.2h3v-6.4C100.2,34.9,98.1,33.6,96.2,33.6z"/>
			<path class="st0" d="M106.6,33.6c-3.2,0-5.4,2.4-5.4,5.8c0,3.3,2.2,5.6,5.3,5.6c2.6,0,5.4-1.8,5.4-5.8
				C111.8,35.9,109.7,33.6,106.6,33.6z M106.5,42.4c-1.3,0-2.3-1.3-2.3-3.1c0-1.4,0.6-3.1,2.3-3.1c1.8,0,2.3,2,2.3,3.1
				C108.8,41.1,107.8,42.4,106.5,42.4z"/>
			<path class="st0" d="M122.5,39.2c-0.1,0.2-0.1,0.5-0.2,0.7c-0.1-0.3-0.2-0.5-0.2-0.8l-1.6-5.3H118l-1.7,5.4
				c-0.1,0.2-0.1,0.5-0.2,0.7c-0.1-0.2-0.1-0.5-0.2-0.7l-1.4-5.4h-3.1l3.3,10.9h2.5l1.7-5c0.1-0.3,0.2-0.6,0.3-0.9
				c0.1,0.3,0.2,0.6,0.3,0.9l1.6,5.1h2.5l3.5-10.9H124L122.5,39.2z"/>
			<path class="st0" d="M142.9,33.6c-1,0-1.8,0.2-2.5,0.8c-0.2,0.2-0.4,0.4-0.6,0.6c-0.7-0.9-1.7-1.4-2.8-1.4c-1,0-1.8,0.3-2.5,0.8
				l0-0.6h-2.8l0.1,0.7c0.1,0.7,0.1,1.5,0.1,2.6v7.7h3v-6.5c0-0.2,0-0.5,0.1-0.7c0.2-0.6,0.8-1.3,1.6-1.3c1.2,0,1.4,1.4,1.4,2v6.4h3
				v-6.6c0-0.2,0-0.5,0.1-0.7c0.2-0.6,0.7-1.2,1.5-1.2c0.4,0,1.5,0,1.5,2.3v6.1h3v-6.3C146.7,34.9,144.6,33.6,142.9,33.6z"/>
			<path class="st0" d="M157.6,41.5v-7.7h-3v6.6c0,0.2,0,0.5-0.1,0.7c-0.2,0.6-0.9,1.2-1.7,1.2c-0.5,0-1.5,0-1.5-2.4v-6h-3v6.3
				c0,4.5,3,4.9,4,4.9c1.2,0,2.1-0.4,2.7-0.9l0,0.7h2.8l-0.1-0.7C157.6,43.4,157.6,42.6,157.6,41.5z"/>
			<path class="st0" d="M164.4,36.3c0.9,0,1.4,0.2,1.7,0.4l0.7,0.4l0.8-2.6l-0.5-0.2c-0.5-0.3-1.6-0.6-2.7-0.6
				c-3.4,0-5.8,2.4-5.8,5.8c0,3.3,2.2,5.6,5.4,5.6c1.4,0,2.5-0.3,3.1-0.6l0.4-0.2l-0.6-2.5l-0.7,0.3c-0.5,0.2-1,0.4-1.9,0.4
				c-1.7,0-2.7-1.2-2.7-3C161.6,38,162.3,36.3,164.4,36.3z"/>
			<path class="st0" d="M173.7,33.6c-0.7,0-1.5,0.2-2.1,0.6c-0.1,0.1-0.2,0.1-0.4,0.2v-5.1h-3v15.5h3v-6.5c0-0.3,0-0.5,0.1-0.6
				c0.2-0.7,0.8-1.3,1.8-1.3c0.4,0,1.6,0,1.6,2.2v6.2h3v-6.4C177.7,34.9,175.6,33.6,173.7,33.6z"/>
			<path class="st0" d="M182.4,29.8c-1.2,0-2.5,0.4-3.2,0.9l-0.4,0.3l1,2.5l0.7-0.5c0.4-0.3,1-0.5,1.6-0.5c1.3,0,1.3,0.8,1.3,1.1
				c0,0.6-0.3,1.2-1.3,2.3c-1.1,1.3-1.5,2.6-1.4,3.9l0.1,1.1h2.8l0-1.2c-0.1-0.9,0.2-1.6,1-2.5c1.1-1.3,1.9-2.3,1.9-3.9
				C186.3,31.6,185.1,29.8,182.4,29.8z"/>
			<path class="st0" d="M182.1,41.2c-1,0-1.8,0.8-1.8,1.9c0,1.1,0.8,1.9,1.8,1.9c1.1,0,1.8-0.8,1.8-1.9
				C183.9,42,183.1,41.2,182.1,41.2z"/>
		</g>
		<path class="st1" d="M67.7,67.8l-38.5,0.2c-2.1-0.1-3.6-1.9-3.5-3.9l0.6-12.5l-0.6-22.3h45.5l-1.3,24.1l1.3,10.5
			C71.3,65.9,69.8,67.6,67.7,67.8z"/>
		<polygon class="st2" points="71.2,29.2 25.7,29.2 27.9,17.8 69.1,17.8 		"/>
		<path class="st1" d="M69.4,18.8H27.3c-0.5,0-0.9-0.4-0.9-0.9v-5.4c0-0.5,0.4-0.9,0.9-0.9h42.1c0.5,0,0.9,0.4,0.9,0.9v5.4
			C70.2,18.4,69.8,18.8,69.4,18.8z"/>
		<circle class="st3" cx="48.4" cy="41.7" r="8.5"/>
		<polygon class="st4" points="27.3,18.8 69.4,18.8 70,22.6 		"/>
		<path class="st5" d="M51.3,43.5c-0.4-0.3-0.7-0.7-0.8-1.1c-0.2-1-1.1-1.7-2.1-1.7c-1,0-1.8,0.7-2.1,1.6c-0.2,0.5-0.5,0.9-0.9,1.3
			c-0.4,0.3-0.7,0.9-0.7,1.4c0,1,0.9,1.9,1.9,1.9c0,0,0,0,0,0c0.1,0,0.3,0,0.4,0c0.9-0.2,1.9-0.2,2.8,0c0.1,0,0.3,0,0.4,0
			c1,0,1.9-0.8,1.9-1.9c0,0,0,0,0,0C52.1,44.5,51.8,43.9,51.3,43.5z"/>
		<ellipse transform="matrix(0.9423 -0.3346 0.3346 0.9423 -10.1158 17.7536)" class="st5" cx="46.5" cy="38.2" rx="1.2" ry="1.8"/>
		<ellipse transform="matrix(0.6682 -0.744 0.744 0.6682 -15.7781 46.1988)" class="st5" cx="43.9" cy="40.8" rx="1.2" ry="1.8"/>
		<ellipse transform="matrix(0.744 -0.6682 0.6682 0.744 -13.7182 45.772)" class="st5" cx="52.9" cy="40.8" rx="1.8" ry="1.2"/>
		<ellipse transform="matrix(0.3346 -0.9423 0.9423 0.3346 -2.5587 72.8482)" class="st5" cx="50.3" cy="38.2" rx="1.8" ry="1.2"/>
		<path class="st6" d="M56.4,56.5h0.7c0.7,0,1.3,0.6,1.3,1.3v0.7c0,0.7-0.6,1.3-1.3,1.3h-0.7c-0.7,0-1.3-0.6-1.3-1.3v-0.7
			C55.1,57,55.7,56.5,56.4,56.5z"/>
		<path class="st6" d="M59.7,48.5h0.7c0.7,0,1.3,0.6,1.3,1.3v0.7c0,0.7-0.6,1.3-1.3,1.3h-0.7c-0.7,0-1.3-0.6-1.3-1.3v-0.7
			C58.4,49.1,59,48.5,59.7,48.5z"/>
		<path class="st6" d="M47.8,58.7h0.7c0.7,0,1.3,0.6,1.3,1.3v0.7c0,0.7-0.6,1.3-1.3,1.3h-0.7c-0.7,0-1.3-0.6-1.3-1.3V60
			C46.5,59.2,47,58.7,47.8,58.7z"/>
		<path class="st6" d="M51.2,58.5l1.1-0.3c0.8-0.2,1.7,0.3,1.9,1.1l0.1,0.5c0.2,0.8-0.3,1.7-1.1,1.9L52.1,62
			c-0.8,0.2-1.7-0.3-1.9-1.1l-0.1-0.5C49.9,59.5,50.4,58.7,51.2,58.5z"/>
		<path class="st6" d="M42.7,59.6h0.7c0.7,0,1.3,0.6,1.3,1.3v0.7c0,0.7-0.6,1.3-1.3,1.3h-0.7c-0.7,0-1.3-0.6-1.3-1.3v-0.7
			C41.3,60.2,41.9,59.6,42.7,59.6z"/>
		<path class="st6" d="M38.4,59.4l0.7-0.1c0.7-0.1,1.4,0.3,1.5,1l0.1,0.7c0.1,0.7-0.3,1.4-1,1.5l-0.7,0.1c-0.7,0.1-1.4-0.3-1.5-1
			l-0.1-0.7C37.2,60.2,37.7,59.5,38.4,59.4z"/>
		<path class="st6" d="M43.5,54.2h0.7c0.7,0,1.3,0.6,1.3,1.3v0.7c0,0.7-0.6,1.3-1.3,1.3h-0.7c-0.7,0-1.3-0.6-1.3-1.3v-0.7
			C42.2,54.7,42.8,54.2,43.5,54.2z"/>
		<path class="st6" d="M34.8,55.6h0.7c0.7,0,1.3,0.6,1.3,1.3v0.7c0,0.7-0.6,1.3-1.3,1.3h-0.7c-0.7,0-1.3-0.6-1.3-1.3v-0.7
			C33.5,56.1,34.1,55.6,34.8,55.6z"/>
		<path class="st6" d="M53.8,53.1h0.7c0.7,0,1.3,0.6,1.3,1.3v0.7c0,0.7-0.6,1.3-1.3,1.3h-0.7c-0.7,0-1.3-0.6-1.3-1.3v-0.7
			C52.5,53.7,53.1,53.1,53.8,53.1z"/>
		<path class="st6" d="M61.2,58.1h0.7c0.7,0,1.3,0.6,1.3,1.3v0.7c0,0.7-0.6,1.3-1.3,1.3h-0.7c-0.7,0-1.3-0.6-1.3-1.3v-0.7
			C59.8,58.7,60.4,58.1,61.2,58.1z"/>
		<path class="st6" d="M43.3,57.9H44c0.7,0,1.3,0.6,1.3,1.3V60c0,0.7-0.6,1.3-1.3,1.3h-0.7c-0.7,0-1.3-0.6-1.3-1.3v-0.7
			C42,58.5,42.6,57.9,43.3,57.9z"/>
		<path class="st6" d="M45.2,56.5h0.7c0.7,0,1.3,0.6,1.3,1.3v0.7c0,0.7-0.6,1.3-1.3,1.3h-0.7c-0.7,0-1.3-0.6-1.3-1.3v-0.7
			C43.9,57,44.5,56.5,45.2,56.5z"/>
		<path class="st6" d="M50.1,57.9h0.7c0.7,0,1.3,0.6,1.3,1.3V60c0,0.7-0.6,1.3-1.3,1.3h-0.7c-0.7,0-1.3-0.6-1.3-1.3v-0.7
			C48.8,58.5,49.4,57.9,50.1,57.9z"/>
		<path class="st6" d="M55.5,58.7h0.7c0.7,0,1.3,0.6,1.3,1.3v0.7c0,0.7-0.6,1.3-1.3,1.3h-0.7c-0.7,0-1.3-0.6-1.3-1.3V60
			C54.2,59.2,54.7,58.7,55.5,58.7z"/>
		<path class="st6" d="M50.6,62.5l0.7-0.1c0.7-0.1,1.4,0.3,1.5,1l0.1,0.7c0.1,0.7-0.3,1.4-1,1.5l-0.7,0.1c-0.7,0.1-1.4-0.3-1.5-1
			L49.6,64C49.4,63.3,49.9,62.6,50.6,62.5z"/>
		<path class="st6" d="M57.6,59l0.7-0.3c0.7-0.3,1.4,0,1.8,0.6l0.3,0.7c0.3,0.7,0,1.4-0.6,1.8L59.1,62c-0.7,0.3-1.4,0-1.8-0.6
			L57,60.7C56.7,60.1,57,59.3,57.6,59z"/>
		<path class="st6" d="M63.6,62.7l0.7-0.3c0.7-0.3,1.4,0,1.8,0.6l0.3,0.7c0.3,0.7,0,1.4-0.6,1.8L65,65.7c-0.7,0.3-1.4,0-1.8-0.6
			L63,64.4C62.6,63.8,62.9,63,63.6,62.7z"/>
		<path class="st6" d="M56.6,60.3l0.7,0.1c0.7,0.1,1.2,0.8,1.1,1.5l-0.1,0.7c-0.1,0.7-0.8,1.2-1.5,1.1l-0.7-0.1
			c-0.7-0.1-1.2-0.8-1.1-1.5l0.1-0.7C55.2,60.7,55.9,60.2,56.6,60.3z"/>
		<path class="st6" d="M40.6,57.2h0.7c0.7,0,1.3,0.6,1.3,1.3v0.7c0,0.7-0.6,1.3-1.3,1.3h-0.7c-0.7,0-1.3-0.6-1.3-1.3v-0.7
			C39.3,57.8,39.9,57.2,40.6,57.2z"/>
		<path class="st6" d="M48,55.8h0.7c0.7,0,1.3,0.6,1.3,1.3v0.7c0,0.7-0.6,1.3-1.3,1.3H48c-0.7,0-1.3-0.6-1.3-1.3v-0.7
			C46.7,56.4,47.3,55.8,48,55.8z"/>
		<path class="st6" d="M33.5,48.6l0.6-0.4c0.6-0.4,1.4-0.1,1.8,0.5l0.4,0.6c0.4,0.6,0.1,1.4-0.5,1.8l-0.6,0.4
			c-0.6,0.4-1.4,0.1-1.8-0.5L33,50.4C32.7,49.8,32.9,49,33.5,48.6z"/>
		<polygon class="st4" points="69.9,53.3 31.7,51.5 71.1,62.8 		"/>
		<ellipse class="st7" cx="222.7" cy="33" rx="26.6" ry="2.3"/>
		<path class="st8" d="M249.3,33c0,1.2-11.9,2.3-26.6,2.3s-26.6-1-26.6-2.3l-4.4,18c0,1.2,14,4.2,31,4.2s30.4-3,30.4-4.2L249.3,33z"
			/>
		<path class="st9" d="M237.1,45.3L237.1,45.3c-0.3-0.2-0.4-0.7-0.1-1c0,0,0.1-0.1,0.1-0.1c1.5-1.2,1.8-3.3,0.6-4.9
			c-0.8-1-2-1.5-3.2-1.3c-1.1,0.2-2.1,0.9-2.6,1.9c-0.1,0.2-0.2,0.4-0.2,0.6c-0.3,1-1.1,1.7-2.1,1.7h-13.3c-1,0-1.9-0.7-2.2-1.7
			c-0.1-0.2-0.1-0.4-0.2-0.6c-0.5-1-1.5-1.8-2.6-1.9c-1.9-0.2-3.6,1.1-3.9,3c-0.2,1.2,0.3,2.4,1.3,3.2c0.3,0.2,0.3,0.7,0.1,1
			c0,0-0.1,0.1-0.1,0.1l0,0c-0.8,0.6-1.3,1.6-1.3,2.7c0,1.9,1.6,3.5,3.5,3.5c0.1,0,0.3,0,0.4,0c1.1-0.2,2.1-0.9,2.7-1.9
			c0.1-0.2,0.2-0.4,0.2-0.6c0.3-1,1.1-1.7,2.1-1.7h13.3c1,0,1.9,0.7,2.1,1.7c0.1,0.2,0.1,0.4,0.2,0.6c0.8,1.7,2.9,2.4,4.6,1.6
			c1.2-0.6,2-1.8,1.9-3.1C238.4,46.9,237.9,45.9,237.1,45.3z"/>
		<path class="st6" d="M225.4,17.4l0.9-0.1c0.9-0.1,1.7,0.6,1.7,1.5l0.1,0.9c0.1,0.9-0.6,1.7-1.5,1.7l-0.9,0.1
			c-0.9,0.1-1.7-0.6-1.7-1.5l-0.1-0.9C223.8,18.3,224.5,17.5,225.4,17.4z"/>
		<path class="st6" d="M215.2,22.4l0.9-0.1c0.9-0.1,1.7,0.6,1.7,1.5l0.1,0.9c0.1,0.9-0.6,1.7-1.5,1.7l-0.9,0.1
			c-0.9,0.1-1.7-0.6-1.7-1.5l-0.1-0.9C213.6,23.3,214.3,22.5,215.2,22.4z"/>
		<path class="st6" d="M221.4,23.7l0.9-0.1c0.9-0.1,1.7,0.6,1.7,1.5l0.1,0.9c0.1,0.9-0.6,1.7-1.5,1.7l-0.9,0.1
			c-0.9,0.1-1.7-0.6-1.7-1.5l-0.1-0.9C219.9,24.6,220.5,23.8,221.4,23.7z"/>
		<path class="st6" d="M229.6,25.9l0.9,0.1c0.9,0.1,1.6,0.8,1.5,1.7l-0.1,0.9c-0.1,0.9-0.8,1.6-1.7,1.5l-0.9-0.1
			c-0.9-0.1-1.6-0.8-1.5-1.7l0.1-0.9C228,26.6,228.7,25.9,229.6,25.9z"/>
		<rect y="0" class="st10" width="268.9" height="78.8"/>
	</g>
</g>
</svg>
