<svg xmlns="http://www.w3.org/2000/svg" viewBox="0 0 268.93 78.83"><defs><style>.cls-1{fill:#f6c16a;}.cls-2{fill:#ffda6f;}.cls-3{opacity:0.1;}.cls-4{fill:#507b9b;}.cls-5{fill:#79ad84;}.cls-6{fill:#51504c;}.cls-7{opacity:0.13;}.cls-8{opacity:0.27;}.cls-10,.cls-12,.cls-9{fill:none;}.cls-9{stroke:#878787;}.cls-10,.cls-9{stroke-linecap:round;stroke-linejoin:round;stroke-width:0.85px;}.cls-10{stroke:#b0b0b0;}.cls-11{fill:#3993bc;stroke:#3993bc;stroke-miterlimit:10;stroke-width:1.27px;}</style></defs><title>quiz-brush</title><g id="Layer_2" data-name="Layer 2"><g id="Layer_1-2" data-name="Layer 1"><path class="cls-1" d="M210.87,30.2s5.8,8.61,23-.74S250.15,45.73,249,48.72s-6.35,14-14.4,5.42c0,0-21.32,7.86-27.87,2.06s-6.54-17.77-3-22.07c0,0-.19,5,2.43,6A15,15,0,0,1,210.87,30.2Z"/><path class="cls-2" d="M229.32,37.66S235.11,46.27,235,48c0,0,1.48-8.34,4.57-2.15V42.1s2.42,3.77,3,3.63.68-5.38-4.17-10.5c0,0-3.63-1.34-3.63-.53s2,3.36,2,3.36L233,36.85,234,38.6Z"/><path class="cls-2" d="M210,52s7.42-7.25,9.17-7.44c0,0-8.48.06-3-4.11l-3.7.69s3.26-3.07,3-3.57-5.41.31-9.57,6c0,0-.66,3.82.13,3.67S209,44.6,209,44.6l-.51,3.92,1.52-1.37Z"/><g class="cls-3"><ellipse class="cls-4" cx="67.62" cy="60.15" rx="3.62" ry="1.77" transform="translate(-22.56 67.75) rotate(-46.47)"/><path class="cls-5" d="M70,58.49l-3.9,4.11a1.74,1.74,0,0,1-2.48,0L47.75,46,52.45,41,69.9,56A1.72,1.72,0,0,1,70,58.49Z"/><path class="cls-6" d="M26.86,30.49h6.7a.1.1,0,0,1,.1.1v1.16a.1.1,0,0,1-.1.1h-6.7a.68.68,0,0,1-.68-.68v0A.68.68,0,0,1,26.86,30.49Z" transform="translate(-13.28 31.4) rotate(-46.47)"/><path class="cls-6" d="M32.9,23.7h6.93a.06.06,0,0,1,.06.06v.56a.06.06,0,0,1-.06.06H32.9a.34.34,0,0,1-.34-.34v0A.34.34,0,0,1,32.9,23.7Z" transform="translate(78.6 14.32) rotate(133.53)"/><path class="cls-6" d="M34,24.73h6.93a.06.06,0,0,1,.06.06v.56a.06.06,0,0,1-.06.06H34a.34.34,0,0,1-.34-.34v0a.34.34,0,0,1,.34-.34Z" transform="translate(81.18 15.28) rotate(133.53)"/><path class="cls-6" d="M35.07,25.76H42a.06.06,0,0,1,.06.06v.56a.06.06,0,0,1-.06.06H35.07a.34.34,0,0,1-.34-.34v0a.34.34,0,0,1,.34-.34Z" transform="translate(83.76 16.23) rotate(133.53)"/><path class="cls-6" d="M36.16,26.79h6.93a.06.06,0,0,1,.06.06v.56a.06.06,0,0,1-.06.06H36.16a.34.34,0,0,1-.34-.34v0a.34.34,0,0,1,.34-.34Z" transform="translate(86.34 17.19) rotate(133.53)"/><path class="cls-6" d="M37.24,27.82h6.93a.06.06,0,0,1,.06.06v.56a.06.06,0,0,1-.06.06H37.24a.34.34,0,0,1-.34-.34v0a.34.34,0,0,1,.34-.34Z" transform="translate(88.92 18.14) rotate(133.53)"/><path class="cls-6" d="M38.33,28.85h6.93a.06.06,0,0,1,.06.06v.56a.06.06,0,0,1-.06.06H38.33a.34.34,0,0,1-.34-.34v0a.34.34,0,0,1,.34-.34Z" transform="translate(91.5 19.1) rotate(133.53)"/><path class="cls-6" d="M39.41,29.89h6.93a.06.06,0,0,1,.06.06v.56a.06.06,0,0,1-.06.06H39.41a.34.34,0,0,1-.34-.34v0A.34.34,0,0,1,39.41,29.89Z" transform="matrix(-0.69, 0.73, -0.73, -0.69, 94.08, 20.05)"/><path class="cls-6" d="M40.5,30.92h6.93a.06.06,0,0,1,.06.06v.56a.06.06,0,0,1-.06.06H40.5a.34.34,0,0,1-.34-.34v0A.34.34,0,0,1,40.5,30.92Z" transform="translate(96.67 21) rotate(133.53)"/><path class="cls-6" d="M41.59,31.95h6.93a.06.06,0,0,1,.06.06v.56a.06.06,0,0,1-.06.06H41.59a.34.34,0,0,1-.34-.34v0a.34.34,0,0,1,.34-.34Z" transform="translate(99.25 21.96) rotate(133.53)"/><path class="cls-6" d="M42.67,33H49.6a.06.06,0,0,1,.06.06v.56a.06.06,0,0,1-.06.06H42.67a.34.34,0,0,1-.34-.34v0A.34.34,0,0,1,42.67,33Z" transform="translate(101.83 22.91) rotate(133.53)"/><path class="cls-6" d="M43.76,34h6.93a.06.06,0,0,1,.06.06v.56a.06.06,0,0,1-.06.06H43.76a.34.34,0,0,1-.34-.34v0a.34.34,0,0,1,.34-.34Z" transform="translate(104.41 23.87) rotate(133.53)"/><path class="cls-6" d="M44.84,35h6.93a.06.06,0,0,1,.06.06v.56a.06.06,0,0,1-.06.06H44.84a.34.34,0,0,1-.34-.34v0a.34.34,0,0,1,.34-.34Z" transform="translate(106.99 24.82) rotate(133.53)"/><path class="cls-6" d="M45.93,36.07h6.93a.06.06,0,0,1,.06.06v.56a.06.06,0,0,1-.06.06H45.93a.34.34,0,0,1-.34-.34v0A.34.34,0,0,1,45.93,36.07Z" transform="translate(109.57 25.78) rotate(133.53)"/><path class="cls-6" d="M47,37.1h6.93a.06.06,0,0,1,.06.06v.56a.06.06,0,0,1-.06.06H47a.34.34,0,0,1-.34-.34v0A.34.34,0,0,1,47,37.1Z" transform="translate(112.15 26.73) rotate(133.53)"/><path class="cls-6" d="M29.1,32.62h6.7a.1.1,0,0,1,.1.1v1.16a.1.1,0,0,1-.1.1H29.1a.68.68,0,0,1-.68-.68v0a.68.68,0,0,1,.68-.68Z" transform="translate(-14.13 33.68) rotate(-46.47)"/><path class="cls-6" d="M31.34,34.75H38a.1.1,0,0,1,.1.1V36a.1.1,0,0,1-.1.1h-6.7a.68.68,0,0,1-.68-.68v0A.68.68,0,0,1,31.34,34.75Z" transform="translate(-14.97 35.97) rotate(-46.47)"/><path class="cls-6" d="M33.58,36.88h6.7a.1.1,0,0,1,.1.1v1.16a.1.1,0,0,1-.1.1h-6.7a.68.68,0,0,1-.68-.68v0A.68.68,0,0,1,33.58,36.88Z" transform="translate(-15.82 38.26) rotate(-46.47)"/><path class="cls-6" d="M35.82,39h6.7a.1.1,0,0,1,.1.1v1.16a.1.1,0,0,1-.1.1h-6.7a.68.68,0,0,1-.68-.68v0a.68.68,0,0,1,.68-.68Z" transform="translate(-16.67 40.55) rotate(-46.47)"/><path class="cls-6" d="M38.07,41.13h6.7a.1.1,0,0,1,.1.1v1.16a.1.1,0,0,1-.1.1h-6.7a.68.68,0,0,1-.68-.68v0A.68.68,0,0,1,38.07,41.13Z" transform="translate(-17.51 42.84) rotate(-46.47)"/><path class="cls-6" d="M40.31,43.26H47a.1.1,0,0,1,.1.1v1.16a.1.1,0,0,1-.1.1h-6.7a.68.68,0,0,1-.68-.68v0A.68.68,0,0,1,40.31,43.26Z" transform="translate(-18.36 45.13) rotate(-46.47)"/><rect class="cls-5" x="27.97" y="33.16" width="25.33" height="2.73" rx="1.36" ry="1.36" transform="translate(46.33 87.54) rotate(-136.47)"/><rect class="cls-4" x="45.59" y="42.24" width="8.89" height="2.41" rx="1.14" ry="1.14" transform="translate(-15.93 49.81) rotate(-46.47)"/></g><g class="cls-7"><ellipse class="cls-4" cx="49.74" cy="64.6" rx="1.77" ry="3.62" transform="translate(-23.72 99.95) rotate(-78.1)"/><path class="cls-5" d="M52.4,65.75l-5.55-1.17a1.73,1.73,0,0,1-1.33-2.09l5.87-22.24,6.67,1.4L54.45,64.37A1.73,1.73,0,0,1,52.4,65.75Z"/><path class="cls-6" d="M51.59,16.62h6.7a.1.1,0,0,1,.1.1v1.16a.1.1,0,0,1-.1.1h-6.7a.68.68,0,0,1-.68-.68v0A.68.68,0,0,1,51.59,16.62Z" transform="translate(4.74 -10.89) rotate(11.9)"/><path class="cls-6" d="M60.7,18.59h6.93a.06.06,0,0,1,.06.06v.56a.06.06,0,0,1-.06.06H60.7a.34.34,0,0,1-.34-.34v0A.34.34,0,0,1,60.7,18.59Z" transform="translate(122.78 50.65) rotate(-168.1)"/><path class="cls-6" d="M60.39,20.05h6.93a.06.06,0,0,1,.06.06v.56a.06.06,0,0,1-.06.06H60.39a.34.34,0,0,1-.34-.34v0A.34.34,0,0,1,60.39,20.05Z" transform="translate(121.86 53.48) rotate(-168.1)"/><path class="cls-6" d="M60.09,21.52H67a.06.06,0,0,1,.06.06v.56a.06.06,0,0,1-.06.06H60.09a.34.34,0,0,1-.34-.34v0a.34.34,0,0,1,.34-.34Z" transform="translate(120.95 56.32) rotate(-168.1)"/><path class="cls-6" d="M59.78,23H66.7a.06.06,0,0,1,.06.06v.56a.06.06,0,0,1-.06.06H59.78a.34.34,0,0,1-.34-.34v0A.34.34,0,0,1,59.78,23Z" transform="translate(120.04 59.15) rotate(-168.1)"/><path class="cls-6" d="M59.47,24.45h6.93a.06.06,0,0,1,.06.06v.56a.06.06,0,0,1-.06.06H59.47a.34.34,0,0,1-.34-.34v0A.34.34,0,0,1,59.47,24.45Z" transform="translate(119.12 61.99) rotate(-168.1)"/><path class="cls-6" d="M59.16,25.92h6.93a.06.06,0,0,1,.06.06v.56a.06.06,0,0,1-.06.06H59.16a.34.34,0,0,1-.34-.34v0a.34.34,0,0,1,.34-.34Z" transform="translate(118.21 64.82) rotate(-168.1)"/><path class="cls-6" d="M58.85,27.38h6.93a.06.06,0,0,1,.06.06V28a.06.06,0,0,1-.06.06H58.85a.34.34,0,0,1-.34-.34v0a.34.34,0,0,1,.34-.34Z" transform="translate(117.3 67.66) rotate(-168.1)"/><path class="cls-6" d="M58.54,28.85h6.93a.06.06,0,0,1,.06.06v.56a.06.06,0,0,1-.06.06H58.54a.34.34,0,0,1-.34-.34v0a.34.34,0,0,1,.34-.34Z" transform="translate(116.39 70.5) rotate(-168.1)"/><path class="cls-6" d="M58.23,30.31h6.93a.06.06,0,0,1,.06.06v.56a.06.06,0,0,1-.06.06H58.23a.34.34,0,0,1-.34-.34v0a.34.34,0,0,1,.34-.34Z" transform="translate(115.47 73.33) rotate(-168.1)"/><path class="cls-6" d="M57.92,31.78h6.93a.06.06,0,0,1,.06.06v.56a.06.06,0,0,1-.06.06H57.92a.34.34,0,0,1-.34-.34v0a.34.34,0,0,1,.34-.34Z" transform="translate(114.56 76.17) rotate(-168.1)"/><path class="cls-6" d="M57.62,33.24h6.93a.06.06,0,0,1,.06.06v.56a.06.06,0,0,1-.06.06H57.62a.34.34,0,0,1-.34-.34v0A.34.34,0,0,1,57.62,33.24Z" transform="translate(113.65 79) rotate(-168.1)"/><path class="cls-6" d="M57.31,34.71h6.93a.06.06,0,0,1,.06.06v.56a.06.06,0,0,1-.06.06H57.31A.34.34,0,0,1,57,35v0a.34.34,0,0,1,.34-.34Z" transform="translate(112.73 81.84) rotate(-168.1)"/><path class="cls-6" d="M57,36.17h6.93a.06.06,0,0,1,.06.06v.56a.06.06,0,0,1-.06.06H57a.34.34,0,0,1-.34-.34v0a.34.34,0,0,1,.34-.34Z" transform="translate(111.82 84.67) rotate(-168.1)"/><path class="cls-6" d="M56.69,37.64h6.93a.06.06,0,0,1,.06.06v.56a.06.06,0,0,1-.06.06H56.69a.34.34,0,0,1-.34-.34v0A.34.34,0,0,1,56.69,37.64Z" transform="translate(110.91 87.51) rotate(-168.1)"/><path class="cls-6" d="M51,19.65h6.7a.1.1,0,0,1,.1.1V20.9a.1.1,0,0,1-.1.1H51a.68.68,0,0,1-.68-.68v0a.68.68,0,0,1,.68-.68Z" transform="translate(5.35 -10.7) rotate(11.9)"/><path class="cls-6" d="M50.31,22.67H57a.1.1,0,0,1,.1.1v1.16a.1.1,0,0,1-.1.1h-6.7a.68.68,0,0,1-.68-.68v0a.68.68,0,0,1,.68-.68Z" transform="translate(5.96 -10.5) rotate(11.9)"/><path class="cls-6" d="M49.68,25.7h6.7a.1.1,0,0,1,.1.1V27a.1.1,0,0,1-.1.1h-6.7a.68.68,0,0,1-.68-.68v0a.68.68,0,0,1,.68-.68Z" transform="translate(6.57 -10.31) rotate(11.9)"/><path class="cls-6" d="M49,28.72h6.7a.1.1,0,0,1,.1.1V30a.1.1,0,0,1-.1.1H49a.68.68,0,0,1-.68-.68v0A.68.68,0,0,1,49,28.72Z" transform="translate(7.18 -10.11) rotate(11.9)"/><path class="cls-6" d="M48.4,31.75h6.7a.1.1,0,0,1,.1.1V33a.1.1,0,0,1-.1.1H48.4a.68.68,0,0,1-.68-.68v0A.68.68,0,0,1,48.4,31.75Z" transform="translate(7.79 -9.91) rotate(11.9)"/><path class="cls-6" d="M47.76,34.77h6.7a.1.1,0,0,1,.1.1V36a.1.1,0,0,1-.1.1h-6.7a.68.68,0,0,1-.68-.68v0A.68.68,0,0,1,47.76,34.77Z" transform="translate(8.4 -9.72) rotate(11.9)"/><rect class="cls-5" x="44.75" y="26.82" width="25.33" height="2.73" rx="1.36" ry="1.36" transform="translate(18 78.55) rotate(-78.1)"/><rect class="cls-4" x="50.3" y="39.67" width="8.89" height="2.41" rx="1.14" ry="1.14" transform="translate(9.6 -10.41) rotate(11.9)"/></g><g class="cls-8"><ellipse class="cls-4" cx="36.05" cy="61.33" rx="1.77" ry="3.62" transform="translate(-32.32 41.68) rotate(-43.52)"/><path class="cls-5" d="M37.58,63.78l-3.9-4.11a1.73,1.73,0,0,1,.08-2.47l17.46-15,4.7,4.95L40.05,63.82A1.73,1.73,0,0,1,37.58,63.78Z"/><path class="cls-6" d="M63.87,24.49h6.7a.1.1,0,0,1,.1.1v1.16a.1.1,0,0,1-.1.1h-6.7a.68.68,0,0,1-.68-.68v0A.68.68,0,0,1,63.87,24.49Z" transform="translate(39.09 -40.7) rotate(46.48)"/><path class="cls-6" d="M70.4,31.49h6.93a.06.06,0,0,1,.06.06v.56a.06.06,0,0,1-.06.06H70.4a.34.34,0,0,1-.34-.34v0a.34.34,0,0,1,.34-.34Z" transform="translate(101.42 107.21) rotate(-133.52)"/><path class="cls-6" d="M69.32,32.53h6.93a.06.06,0,0,1,.06.06v.56a.06.06,0,0,1-.06.06H69.32a.34.34,0,0,1-.34-.34v0a.34.34,0,0,1,.34-.34Z" transform="translate(98.84 108.17) rotate(-133.52)"/><path class="cls-6" d="M68.23,33.56h6.93a.06.06,0,0,1,.06.06v.56a.06.06,0,0,1-.06.06H68.23a.34.34,0,0,1-.34-.34v0A.34.34,0,0,1,68.23,33.56Z" transform="translate(96.25 109.12) rotate(-133.52)"/><path class="cls-6" d="M67.15,34.59h6.93a.06.06,0,0,1,.06.06v.56a.06.06,0,0,1-.06.06H67.15a.34.34,0,0,1-.34-.34v0a.34.34,0,0,1,.34-.34Z" transform="translate(93.67 110.08) rotate(-133.52)"/><path class="cls-6" d="M66.06,35.62H73a.06.06,0,0,1,.06.06v.56a.06.06,0,0,1-.06.06H66.06a.34.34,0,0,1-.34-.34v0a.34.34,0,0,1,.34-.34Z" transform="translate(91.09 111.03) rotate(-133.52)"/><path class="cls-6" d="M65,36.65H71.9a.06.06,0,0,1,.06.06v.56a.06.06,0,0,1-.06.06H65a.34.34,0,0,1-.34-.34v0A.34.34,0,0,1,65,36.65Z" transform="translate(88.51 111.98) rotate(-133.52)"/><path class="cls-6" d="M63.89,37.68h6.93a.06.06,0,0,1,.06.06v.56a.06.06,0,0,1-.06.06H63.89a.34.34,0,0,1-.34-.34v0A.34.34,0,0,1,63.89,37.68Z" transform="translate(85.93 112.94) rotate(-133.52)"/><path class="cls-6" d="M62.8,38.71h6.93a.06.06,0,0,1,.06.06v.56a.06.06,0,0,1-.06.06H62.8a.34.34,0,0,1-.34-.34v0a.34.34,0,0,1,.34-.34Z" transform="translate(83.35 113.89) rotate(-133.52)"/><path class="cls-6" d="M61.72,39.74h6.93a.06.06,0,0,1,.06.06v.56a.06.06,0,0,1-.06.06H61.72a.34.34,0,0,1-.34-.34v0A.34.34,0,0,1,61.72,39.74Z" transform="translate(80.76 114.85) rotate(-133.52)"/><path class="cls-6" d="M60.63,40.78h6.93a.06.06,0,0,1,.06.06v.56a.06.06,0,0,1-.06.06H60.63a.34.34,0,0,1-.34-.34v0A.34.34,0,0,1,60.63,40.78Z" transform="translate(78.18 115.8) rotate(-133.52)"/><path class="cls-6" d="M59.55,41.81h6.93a.06.06,0,0,1,.06.06v.56a.06.06,0,0,1-.06.06H59.55a.34.34,0,0,1-.34-.34v0a.34.34,0,0,1,.34-.34Z" transform="translate(75.6 116.75) rotate(-133.52)"/><path class="cls-6" d="M58.46,42.84h6.93a.06.06,0,0,1,.06.06v.56a.06.06,0,0,1-.06.06H58.46a.34.34,0,0,1-.34-.34v0a.34.34,0,0,1,.34-.34Z" transform="translate(73.02 117.71) rotate(-133.52)"/><path class="cls-6" d="M57.37,43.87H64.3a.06.06,0,0,1,.06.06v.56a.06.06,0,0,1-.06.06H57.37a.34.34,0,0,1-.34-.34v0a.34.34,0,0,1,.34-.34Z" transform="translate(70.44 118.66) rotate(-133.52)"/><path class="cls-6" d="M56.29,44.9h6.93a.06.06,0,0,1,.06.06v.56a.06.06,0,0,1-.06.06H56.29a.34.34,0,0,1-.34-.34v0A.34.34,0,0,1,56.29,44.9Z" transform="translate(67.86 119.62) rotate(-133.52)"/><path class="cls-6" d="M61.63,26.62h6.7a.1.1,0,0,1,.1.1v1.16a.1.1,0,0,1-.1.1h-6.7A.68.68,0,0,1,61,27.3v0A.68.68,0,0,1,61.63,26.62Z" transform="translate(39.94 -38.41) rotate(46.48)"/><path class="cls-6" d="M59.39,28.75h6.7a.1.1,0,0,1,.1.1V30a.1.1,0,0,1-.1.1h-6.7a.68.68,0,0,1-.68-.68v0A.68.68,0,0,1,59.39,28.75Z" transform="translate(40.78 -36.12) rotate(46.48)"/><path class="cls-6" d="M57.14,30.88h6.7a.1.1,0,0,1,.1.1v1.16a.1.1,0,0,1-.1.1h-6.7a.68.68,0,0,1-.68-.68v0a.68.68,0,0,1,.68-.68Z" transform="translate(41.63 -33.83) rotate(46.48)"/><path class="cls-6" d="M54.9,33h6.7a.1.1,0,0,1,.1.1v1.16a.1.1,0,0,1-.1.1H54.9a.68.68,0,0,1-.68-.68v0A.68.68,0,0,1,54.9,33Z" transform="translate(42.47 -31.54) rotate(46.48)"/><path class="cls-6" d="M52.66,35.14h6.7a.1.1,0,0,1,.1.1V36.4a.1.1,0,0,1-.1.1h-6.7a.68.68,0,0,1-.68-.68v0A.68.68,0,0,1,52.66,35.14Z" transform="translate(43.32 -29.25) rotate(46.48)"/><path class="cls-6" d="M50.42,37.27h6.7a.1.1,0,0,1,.1.1v1.16a.1.1,0,0,1-.1.1h-6.7a.68.68,0,0,1-.68-.68v0A.68.68,0,0,1,50.42,37.27Z" transform="translate(44.17 -26.96) rotate(46.48)"/><rect class="cls-5" x="50.36" y="34.34" width="25.33" height="2.73" rx="1.36" ry="1.36" transform="translate(-7.26 53.22) rotate(-43.52)"/><rect class="cls-4" x="49.18" y="43.42" width="8.89" height="2.41" rx="1.14" ry="1.14" transform="translate(49.06 -24.99) rotate(46.48)"/></g><ellipse class="cls-4" cx="51.51" cy="66.74" rx="3.62" ry="1.77"/><path class="cls-5" d="M54.34,67.31H48.68a1.73,1.73,0,0,1-1.74-1.76l1.16-23h6.82l1.15,23A1.72,1.72,0,0,1,54.34,67.31Z"/><path class="cls-6" d="M43.51,18.76h6.7a.1.1,0,0,1,.1.1V20a.1.1,0,0,1-.1.1h-6.7a.68.68,0,0,1-.68-.68v0a.68.68,0,0,1,.68-.68Z"/><path class="cls-6" d="M52.76,18.76h6.93a.06.06,0,0,1,.06.06v.56a.06.06,0,0,1-.06.06H52.76a.34.34,0,0,1-.34-.34v0A.34.34,0,0,1,52.76,18.76Z" transform="translate(112.16 38.22) rotate(-179.99)"/><path class="cls-6" d="M52.76,20.26h6.93a.06.06,0,0,1,.06.06v.56a.06.06,0,0,1-.06.06H52.76a.34.34,0,0,1-.34-.34v0a.34.34,0,0,1,.34-.34Z" transform="translate(112.16 41.21) rotate(-179.99)"/><path class="cls-6" d="M52.76,21.76h6.93a.06.06,0,0,1,.06.06v.56a.06.06,0,0,1-.06.06H52.76a.34.34,0,0,1-.34-.34v0A.34.34,0,0,1,52.76,21.76Z" transform="translate(112.16 44.21) rotate(-179.99)"/><path class="cls-6" d="M52.76,23.26h6.93a.06.06,0,0,1,.06.06v.56a.06.06,0,0,1-.06.06H52.76a.34.34,0,0,1-.34-.34v0A.34.34,0,0,1,52.76,23.26Z" transform="translate(112.16 47.2) rotate(-179.99)"/><path class="cls-6" d="M52.76,24.75h6.93a.06.06,0,0,1,.06.06v.56a.06.06,0,0,1-.06.06H52.76a.34.34,0,0,1-.34-.34v0a.34.34,0,0,1,.34-.34Z" transform="translate(112.16 50.2) rotate(-179.99)"/><path class="cls-6" d="M52.76,26.25h6.93a.06.06,0,0,1,.06.06v.56a.06.06,0,0,1-.06.06H52.76a.34.34,0,0,1-.34-.34v0a.34.34,0,0,1,.34-.34Z" transform="translate(112.16 53.19) rotate(-179.99)"/><path class="cls-6" d="M52.76,27.75h6.93a.06.06,0,0,1,.06.06v.56a.06.06,0,0,1-.06.06H52.76a.34.34,0,0,1-.34-.34v0a.34.34,0,0,1,.34-.34Z" transform="translate(112.16 56.19) rotate(-179.99)"/><path class="cls-6" d="M52.76,29.25h6.93a.06.06,0,0,1,.06.06v.56a.06.06,0,0,1-.06.06H52.76a.34.34,0,0,1-.34-.34v0a.34.34,0,0,1,.34-.34Z" transform="translate(112.15 59.18) rotate(-179.99)"/><path class="cls-6" d="M52.76,30.74h6.93a.06.06,0,0,1,.06.06v.56a.06.06,0,0,1-.06.06H52.76a.34.34,0,0,1-.34-.34v0a.34.34,0,0,1,.34-.34Z" transform="translate(112.15 62.18) rotate(-179.99)"/><path class="cls-6" d="M52.76,32.24h6.93a.06.06,0,0,1,.06.06v.56a.06.06,0,0,1-.06.06H52.76a.34.34,0,0,1-.34-.34v0a.34.34,0,0,1,.34-.34Z" transform="translate(112.15 65.17) rotate(-179.99)"/><path class="cls-6" d="M52.76,33.74h6.93a.06.06,0,0,1,.06.06v.56a.06.06,0,0,1-.06.06H52.76a.34.34,0,0,1-.34-.34v0a.34.34,0,0,1,.34-.34Z" transform="translate(112.15 68.17) rotate(-179.99)"/><path class="cls-6" d="M52.76,35.24h6.93a.06.06,0,0,1,.06.06v.56a.06.06,0,0,1-.06.06H52.76a.34.34,0,0,1-.34-.34v0a.34.34,0,0,1,.34-.34Z" transform="translate(112.15 71.16) rotate(-179.99)"/><path class="cls-6" d="M52.76,36.74h6.93a.06.06,0,0,1,.06.06v.56a.06.06,0,0,1-.06.06H52.76a.34.34,0,0,1-.34-.34v0a.34.34,0,0,1,.34-.34Z" transform="translate(112.15 74.16) rotate(-179.99)"/><path class="cls-6" d="M52.76,38.23h6.93a.06.06,0,0,1,.06.06v.56a.06.06,0,0,1-.06.06H52.76a.34.34,0,0,1-.34-.34v0A.34.34,0,0,1,52.76,38.23Z" transform="translate(112.15 77.15) rotate(-179.99)"/><path class="cls-6" d="M43.51,21.85h6.7a.1.1,0,0,1,.1.1v1.16a.1.1,0,0,1-.1.1h-6.7a.68.68,0,0,1-.68-.68v0a.68.68,0,0,1,.68-.68Z"/><path class="cls-6" d="M43.51,24.95h6.7a.1.1,0,0,1,.1.1V26.2a.1.1,0,0,1-.1.1h-6.7a.68.68,0,0,1-.68-.68v0a.68.68,0,0,1,.68-.68Z"/><path class="cls-6" d="M43.51,28h6.7a.1.1,0,0,1,.1.1V29.3a.1.1,0,0,1-.1.1h-6.7a.68.68,0,0,1-.68-.68v0A.68.68,0,0,1,43.51,28Z"/><path class="cls-6" d="M43.51,31.13h6.7a.1.1,0,0,1,.1.1v1.16a.1.1,0,0,1-.1.1h-6.7a.68.68,0,0,1-.68-.68v0A.68.68,0,0,1,43.51,31.13Z"/><path class="cls-6" d="M43.51,34.22h6.7a.1.1,0,0,1,.1.1v1.16a.1.1,0,0,1-.1.1h-6.7a.68.68,0,0,1-.68-.68v0A.68.68,0,0,1,43.51,34.22Z"/><path class="cls-6" d="M43.51,37.32h6.7a.1.1,0,0,1,.1.1v1.16a.1.1,0,0,1-.1.1h-6.7a.68.68,0,0,1-.68-.68v0a.68.68,0,0,1,.68-.68Z"/><rect class="cls-5" x="38.85" y="28.16" width="25.33" height="2.73" rx="1.36" ry="1.36" transform="translate(21.98 81.04) rotate(-89.99)"/><rect class="cls-4" x="47.07" y="41.28" width="8.89" height="2.41" rx="1.14" ry="1.14"/><path class="cls-9" d="M72,44.42c-.67,2.55-3.07,6.2-6.15,7.25"/><path class="cls-9" d="M74.58,43.94c-.21,2.62-1.93,6.64-4.77,8.22"/><path class="cls-10" d="M24.18,29.13c-.57,2.57-.1,6.91,2.15,9.25"/><path class="cls-10" d="M21.38,27.59c-.64,2.55-.3,6.91,1.88,9.32"/><path class="cls-11" d="M89.8,42.41c0-.66.08-1.64.08-2.5V28.21h1.74v6.08h0A3.61,3.61,0,0,1,95,32.51c2.4,0,4.1,2,4.08,4.94,0,3.46-2.18,5.17-4.34,5.17a3.46,3.46,0,0,1-3.24-1.81H91.4l-.08,1.6Zm1.82-3.88a3.3,3.3,0,0,0,.08.64,2.72,2.72,0,0,0,2.64,2.06c1.84,0,2.94-1.5,2.94-3.72,0-1.94-1-3.6-2.88-3.6a2.81,2.81,0,0,0-2.68,2.16,3.47,3.47,0,0,0-.1.72Z"/><path class="cls-11" d="M101.25,35.75c0-1.14,0-2.12-.08-3h1.54l.06,1.9h.08a2.9,2.9,0,0,1,2.68-2.12,1.9,1.9,0,0,1,.5.06v1.66a2.64,2.64,0,0,0-.6-.06,2.47,2.47,0,0,0-2.36,2.26,5,5,0,0,0-.08.82v5.16h-1.74Z"/><path class="cls-11" d="M115.88,39.77c0,1,0,1.88.08,2.64h-1.55l-.1-1.58h0a3.64,3.64,0,0,1-3.2,1.79c-1.52,0-3.34-.83-3.34-4.23V32.73h1.76v5.36c0,1.84.56,3.08,2.16,3.08a2.54,2.54,0,0,0,2.32-1.6,2.57,2.57,0,0,0,.16-.9V32.73h1.75Z"/><path class="cls-11" d="M118.56,40.61a4.61,4.61,0,0,0,2.32.7c1.28,0,1.88-.64,1.88-1.44s-.5-1.3-1.8-1.78c-1.74-.62-2.56-1.58-2.56-2.74,0-1.56,1.26-2.84,3.34-2.84a4.83,4.83,0,0,1,2.38.6l-.44,1.28a3.77,3.77,0,0,0-2-.56c-1,0-1.62.6-1.62,1.32s.58,1.16,1.84,1.64c1.68.64,2.54,1.48,2.54,2.92,0,1.7-1.32,2.9-3.62,2.9a5.52,5.52,0,0,1-2.72-.66Z"/><path class="cls-11" d="M126.71,28.21h1.76v6h0A3.27,3.27,0,0,1,129.77,33a3.62,3.62,0,0,1,1.8-.5c1.3,0,3.38.8,3.38,4.14v5.76h-1.76V36.85c0-1.56-.58-2.88-2.24-2.88a2.53,2.53,0,0,0-2.36,1.76,2.13,2.13,0,0,0-.12.84v5.84h-1.76Z"/><path class="cls-11" d="M144.16,30v2.78h2.52v1.34h-2.52v5.22c0,1.2.34,1.88,1.32,1.88a3.92,3.92,0,0,0,1-.12l.08,1.32a4.54,4.54,0,0,1-1.56.24,2.44,2.44,0,0,1-1.9-.74,3.59,3.59,0,0,1-.68-2.52V34.07h-1.5V32.73h1.5V30.41Z"/><path class="cls-11" d="M149.48,32.73l2.11,5.72c.22.64.46,1.4.62,2h0c.18-.58.38-1.32.62-2l1.92-5.68h1.86L154,39.63c-1.26,3.32-2.12,5-3.31,6a4.77,4.77,0,0,1-2.16,1.14l-.44-1.48a4.66,4.66,0,0,0,1.54-.86,5.26,5.26,0,0,0,1.47-1.95,1.12,1.12,0,0,0,.15-.42,1.35,1.35,0,0,0-.13-.46l-3.57-8.92Z"/><path class="cls-11" d="M158.25,35.89c0-1.24,0-2.24-.08-3.16h1.58l.08,1.66h0a3.81,3.81,0,0,1,3.44-1.88c2.33,0,4.09,2,4.09,4.92,0,3.48-2.12,5.19-4.39,5.19a3.39,3.39,0,0,1-3-1.51h0v5.25h-1.74ZM160,38.47a4,4,0,0,0,.08.72,2.72,2.72,0,0,0,2.64,2.06c1.86,0,2.93-1.52,2.93-3.74,0-1.94-1-3.6-2.87-3.6a2.81,2.81,0,0,0-2.66,2.18,2.85,2.85,0,0,0-.12.72Z"/><path class="cls-11" d="M170.6,37.89a3.1,3.1,0,0,0,3.32,3.36,6.36,6.36,0,0,0,2.68-.5l.3,1.26a7.84,7.84,0,0,1-3.22.6c-3,0-4.76-2-4.76-4.88s1.72-5.22,4.54-5.22c3.16,0,4,2.78,4,4.56a6.64,6.64,0,0,1-.06.82Zm5.16-1.26c0-1.12-.46-2.86-2.44-2.86-1.78,0-2.56,1.64-2.7,2.86Z"/><path class="cls-11" d="M181,38.59l0-.52a4.59,4.59,0,0,1,1.24-3.46,4.39,4.39,0,0,0,1.4-2.74c0-1-.64-1.7-1.9-1.72a3.55,3.55,0,0,0-2,.62l-.48-1.26a5.24,5.24,0,0,1,2.86-.8c2.3,0,3.34,1.42,3.34,2.94,0,1.36-.76,2.34-1.72,3.48a4,4,0,0,0-1.14,2.94l0,.52Zm-.44,2.8a1.18,1.18,0,0,1,1.2-1.26,1.25,1.25,0,1,1-1.2,1.26Z"/><rect class="cls-12" width="268.93" height="78.83"/></g></g></svg>