<?xml version="1.0" encoding="utf-8"?>
<!-- Generator: Adobe Illustrator 22.0.1, SVG Export Plug-In . SVG Version: 6.00 Build 0)  -->
<svg version="1.1" id="Layer_1" xmlns="http://www.w3.org/2000/svg" xmlns:xlink="http://www.w3.org/1999/xlink" x="0px" y="0px"
	 viewBox="0 0 268.9 78.8" style="enable-background:new 0 0 268.9 78.8;" xml:space="preserve">
<style type="text/css">
	.st0{fill:#891704;}
	.st1{fill:none;}
</style>
<title>quiz-100</title>
<g id="Layer_2_1_">
	<g id="Layer_1-2">
		<g>
			<path class="st0" d="M99.8,36.1c0.8,0,1.6-0.1,2.4-0.3c0.7-0.2,1.3-0.5,1.9-0.9c0.5-0.4,1-0.9,1.3-1.5c0.3-0.6,0.5-1.4,0.5-2.1
				c0-0.7-0.1-1.3-0.4-1.9c-0.3-0.5-0.7-1-1.2-1.4c-0.6-0.4-1.2-0.7-1.8-0.8c-0.7-0.2-1.5-0.3-2.2-0.3c-0.7,0-1.4,0-2.1,0.1
				c-0.7,0.1-1.5,0.2-2.1,0.3l-1.5,0.3L93.7,28c-0.2,0-0.4,0.1-0.6,0.1c-0.8,0-1.7-0.3-2.3-0.8c-0.6-0.5-0.9-1.3-0.9-2.1
				c0-1.4,0.9-2.6,2.7-3.4c2.7-1,5.6-1.4,8.5-1.3c2,0,3.9,0.2,5.8,0.7c1.5,0.4,3,1.1,4.3,2c1.1,0.8,2,1.9,2.6,3.1
				c0.6,1.3,0.9,2.7,0.9,4.1c0,1-0.2,2-0.5,2.9c-0.3,0.9-0.8,1.7-1.4,2.5c-0.6,0.7-1.3,1.3-2,1.8c-0.8,0.5-1.6,0.8-2.5,1l0,0.1
				c1.1,0.2,2.1,0.6,3.1,1.1c1.8,1,3.1,2.6,3.6,4.6c0.3,1.1,0.5,2.1,0.5,3.2c0,1.6-0.3,3.3-1.1,4.7c-0.7,1.3-1.8,2.4-3,3.3
				c-1.4,0.9-2.9,1.5-4.5,1.9c-1.8,0.4-3.7,0.6-5.5,0.6c-0.7,0-1.3,0-2-0.1c-0.7-0.1-1.4-0.2-2.2-0.3c-0.8-0.1-1.5-0.3-2.2-0.5
				c-0.7-0.3-1.4-0.4-2.1-0.7c-0.8-0.3-1.6-0.7-2.2-1.3c-0.6-0.6-0.9-1.3-0.8-2.1c0-0.4,0.1-0.8,0.2-1.2c0.2-0.4,0.4-0.7,0.7-0.9
				c0.3-0.3,0.7-0.5,1-0.6c0.5-0.1,0.9-0.2,1.4-0.2l0.2,0c0.4,0.1,0.8,0.2,1.3,0.4l1.7,0.4c0.6,0.2,1.3,0.3,1.9,0.4
				c0.7,0.1,1.4,0.2,2,0.2c0.8,0,1.6-0.1,2.4-0.2c0.7-0.1,1.3-0.4,1.9-0.7c0.6-0.4,1-0.8,1.3-1.4c0.3-0.6,0.5-1.4,0.5-2.1
				c0.1-1.5-0.6-2.9-1.8-3.8c-1.4-1-3.2-1.4-4.9-1.3l-1.8,0c-0.8,0-1.5-0.3-2-0.8c-0.5-0.5-0.7-1.2-0.7-1.9c0-0.4,0.1-0.7,0.2-1
				c0.1-0.3,0.3-0.6,0.5-0.9c0.2-0.3,0.5-0.5,0.8-0.6c0.4-0.2,0.8-0.3,1.2-0.2L99.8,36.1z"/>
			<path class="st0" d="M123.3,58.5c-0.2,0.6-0.5,1-1,1.3c-0.4,0.2-0.9,0.4-1.4,0.4c-0.3,0-0.6-0.1-0.9-0.2
				c-0.3-0.1-0.6-0.2-0.8-0.4c-0.3-0.2-0.5-0.5-0.6-0.7c-0.2-0.3-0.2-0.6-0.2-1c0-0.4,0.1-0.8,0.2-1.2l0.4-1.2
				c1.8-5.3,3.6-10.6,5.4-15.9c1.8-5.3,3.6-10.5,5.4-15.9c0.1-0.4,0.3-0.8,0.4-1.2c0.2-0.4,0.4-0.7,0.6-1c0.2-0.3,0.4-0.5,0.7-0.7
				c0.3-0.2,0.7-0.3,1-0.3c0.3,0,0.7,0.1,1,0.2c0.3,0.1,0.6,0.3,0.8,0.5c0.2,0.2,0.4,0.5,0.6,0.8c0.1,0.3,0.2,0.7,0.2,1.1
				c0,0.4-0.1,0.8-0.2,1.1c-0.1,0.4-0.3,0.8-0.4,1.2c-1.9,5.5-3.8,11.1-5.6,16.6C126.9,47.4,125,52.9,123.3,58.5z"/>
			<path class="st0" d="M149.3,36.2c0.8,0,1.6-0.1,2.4-0.3c0.7-0.2,1.3-0.5,1.9-0.9c1.2-0.8,1.8-2.2,1.8-3.6c0-0.7-0.1-1.3-0.4-1.9
				c-0.3-0.5-0.7-1-1.2-1.4c-0.6-0.4-1.2-0.7-1.8-0.8c-0.7-0.2-1.5-0.3-2.2-0.3c-0.7,0-1.4,0.1-2.1,0.1c-0.7,0.1-1.5,0.2-2.1,0.3
				l-1.5,0.3l-0.9,0.2c-0.2,0-0.4,0.1-0.6,0.1c-0.8,0-1.7-0.3-2.3-0.8c-0.6-0.5-0.9-1.3-0.9-2.1c0-1.4,0.9-2.6,2.8-3.4
				c2.7-1,5.6-1.4,8.4-1.3c2,0,3.9,0.2,5.8,0.7c1.5,0.4,3,1.1,4.3,2c1.1,0.8,2,1.9,2.6,3.1c0.6,1.3,0.9,2.6,0.9,4c0,1-0.2,2-0.5,2.9
				c-0.3,0.9-0.8,1.7-1.4,2.4c-0.6,0.7-1.3,1.3-2,1.8c-0.8,0.5-1.6,0.8-2.5,1l0,0.1c1.1,0.2,2.1,0.6,3.1,1.1
				c0.9,0.5,1.6,1.1,2.3,1.9c0.6,0.8,1.1,1.7,1.4,2.7c0.3,1.1,0.5,2.2,0.5,3.3c0,1.6-0.3,3.3-1.1,4.7c-0.7,1.3-1.8,2.4-3,3.3
				c-1.4,0.9-2.9,1.5-4.5,1.9c-1.8,0.4-3.7,0.6-5.5,0.6c-0.7,0-1.3,0-2-0.1c-0.7-0.1-1.4-0.2-2.2-0.3c-0.7-0.1-1.5-0.3-2.2-0.5
				c-0.7-0.2-1.4-0.5-2.1-0.8c-0.8-0.3-1.6-0.7-2.2-1.3c-0.5-0.5-0.8-1.3-0.8-2c0-0.4,0.1-0.8,0.2-1.2c0.2-0.4,0.4-0.7,0.7-1
				c0.3-0.3,0.7-0.5,1-0.6c0.4-0.2,0.9-0.2,1.4-0.2l0.2,0l1.4,0.4c0.5,0.2,1.1,0.3,1.7,0.5c0.6,0.2,1.3,0.3,1.9,0.4
				c0.7,0.1,1.4,0.2,2,0.2c0.8,0,1.6-0.1,2.4-0.2c0.7-0.1,1.3-0.4,1.9-0.8c0.5-0.3,1-0.8,1.3-1.4c0.3-0.6,0.5-1.4,0.5-2.1
				c0.1-1.5-0.6-2.9-1.7-3.8c-1.4-1-3.2-1.4-4.9-1.3l-1.8,0c-0.8,0-1.5-0.3-2-0.8c-0.5-0.5-0.7-1.2-0.7-1.9c0-0.4,0.1-0.7,0.2-1
				c0.1-0.3,0.3-0.6,0.5-0.9c0.2-0.3,0.5-0.5,0.8-0.6c0.4-0.2,0.8-0.3,1.2-0.2L149.3,36.2z"/>
		</g>
		<rect class="st1" width="268.9" height="78.8"/>
	</g>
</g>
</svg>
