<svg xmlns="http://www.w3.org/2000/svg" viewBox="0 0 268.93 78.83"><defs><style>.cls-1{font-size:19.98px;fill:#3993bc;stroke:#3993bc;stroke-width:1.27px;font-family:MyriadPro-Regular, Myriad Pro;}.cls-1,.cls-6{stroke-miterlimit:10;}.cls-2{letter-spacing:-0.01em;}.cls-3{letter-spacing:0em;}.cls-4{fill:#c9902d;}.cls-5{fill:#ce9b42;}.cls-6{fill:#ad2832;stroke:#512320;stroke-width:1.89px;}.cls-7{fill:#603c11;opacity:0.38;}.cls-8{fill:#fefaf4;}.cls-9{fill:#724617;}.cls-10{fill:#6b5641;}.cls-11{fill:#db5b58;}.cls-12{fill:#f9f7e2;}.cls-13{fill:none;}</style></defs><title>quiz-food</title><g id="Layer_2" data-name="Layer 2"><g id="Layer_1-2" data-name="Layer 1"><text class="cls-1" transform="translate(85.67 44.16)"><tspan xml:space="preserve"> h</tspan><tspan class="cls-2" x="15.33" y="0">o</tspan><tspan class="cls-3" x="26.16" y="0">w much?</tspan></text><path class="cls-4" d="M67.73,67.77l-38.5.17A3.75,3.75,0,0,1,25.69,64l.65-12.46-.65-22.35H71.23L69.92,53.33l1.31,10.5A3.75,3.75,0,0,1,67.73,67.77Z"/><polygon class="cls-5" points="71.23 29.19 25.69 29.19 27.87 17.83 69.09 17.83 71.23 29.19"/><rect class="cls-4" x="26.44" y="11.61" width="43.79" height="7.15" rx="0.87" ry="0.87" transform="translate(96.67 30.36) rotate(180)"/><circle class="cls-6" cx="48.39" cy="41.71" r="8.52"/><polygon class="cls-7" points="27.27 18.75 69.41 18.75 69.99 22.56 27.27 18.75"/><path class="cls-8" d="M51.27,43.54a2.1,2.1,0,0,1-.8-1.1,2.09,2.09,0,0,0-2.08-1.71,2.17,2.17,0,0,0-2.1,1.62,2.76,2.76,0,0,1-.88,1.27,1.83,1.83,0,0,0-.7,1.44,1.88,1.88,0,0,0,1.89,1.87,1.75,1.75,0,0,0,.4,0,6.8,6.8,0,0,1,2.77,0,1.75,1.75,0,0,0,.4,0,1.88,1.88,0,0,0,1.89-1.87A1.85,1.85,0,0,0,51.27,43.54Z"/><ellipse class="cls-8" cx="46.47" cy="38.24" rx="1.21" ry="1.79" transform="translate(-10.12 17.75) rotate(-19.55)"/><ellipse class="cls-8" cx="43.91" cy="40.79" rx="1.21" ry="1.79" transform="translate(-15.78 46.2) rotate(-48.07)"/><ellipse class="cls-8" cx="52.87" cy="40.79" rx="1.79" ry="1.21" transform="translate(-13.72 45.77) rotate(-41.93)"/><ellipse class="cls-8" cx="50.3" cy="38.24" rx="1.79" ry="1.21" transform="translate(-2.56 72.84) rotate(-70.45)"/><rect class="cls-9" x="55.07" y="56.46" width="3.35" height="3.35" rx="1.31" ry="1.31"/><rect class="cls-9" x="58.42" y="48.47" width="3.35" height="3.35" rx="1.31" ry="1.31"/><rect class="cls-9" x="46.45" y="58.66" width="3.35" height="3.35" rx="1.31" ry="1.31"/><rect class="cls-9" x="50.06" y="58.27" width="4.23" height="3.62" rx="1.53" ry="1.53" transform="translate(-13.06 14.52) rotate(-14.1)"/><rect class="cls-9" x="41.35" y="59.61" width="3.35" height="3.35" rx="1.31" ry="1.31"/><rect class="cls-9" x="37.42" y="59.28" width="3.35" height="3.35" rx="1.31" ry="1.31" transform="translate(-11.48 9.13) rotate(-11.62)"/><rect class="cls-9" x="42.19" y="54.15" width="3.35" height="3.35" rx="1.31" ry="1.31"/><rect class="cls-9" x="33.5" y="55.55" width="3.35" height="3.35" rx="1.31" ry="1.31"/><rect class="cls-9" x="52.48" y="53.11" width="3.35" height="3.35" rx="1.31" ry="1.31"/><rect class="cls-9" x="59.85" y="58.13" width="3.35" height="3.35" rx="1.31" ry="1.31"/><rect class="cls-9" x="41.97" y="57.94" width="3.35" height="3.35" rx="1.31" ry="1.31"/><rect class="cls-9" x="43.87" y="56.46" width="3.35" height="3.35" rx="1.31" ry="1.31"/><rect class="cls-9" x="48.82" y="57.94" width="3.35" height="3.35" rx="1.31" ry="1.31"/><rect class="cls-9" x="54.16" y="58.66" width="3.35" height="3.35" rx="1.31" ry="1.31"/><rect class="cls-9" x="49.61" y="62.36" width="3.35" height="3.35" rx="1.31" ry="1.31" transform="translate(-11.85 11.65) rotate(-11.62)"/><rect class="cls-9" x="57.01" y="58.66" width="3.35" height="3.35" rx="1.31" ry="1.31" transform="translate(-20.45 31.68) rotate(-25.89)"/><rect class="cls-9" x="62.94" y="62.36" width="3.35" height="3.35" rx="1.31" ry="1.31" transform="translate(-21.47 34.64) rotate(-25.89)"/><rect class="cls-9" x="55.07" y="60.34" width="3.35" height="3.35" rx="1.31" ry="1.31" transform="translate(9.63 -7.6) rotate(8.37)"/><rect class="cls-9" x="39.31" y="57.23" width="3.35" height="3.35" rx="1.31" ry="1.31"/><rect class="cls-9" x="46.69" y="55.82" width="3.35" height="3.35" rx="1.31" ry="1.31"/><rect class="cls-9" x="32.85" y="48.01" width="3.35" height="3.35" rx="1.31" ry="1.31" transform="matrix(0.87, -0.5, 0.5, 0.87, -20.22, 23.92)"/><polygon class="cls-7" points="69.92 53.33 31.67 51.54 71.1 62.77 69.92 53.33"/><ellipse class="cls-10" cx="222.73" cy="33.02" rx="26.55" ry="2.27"/><path class="cls-11" d="M249.28,33c0,1.25-11.89,2.27-26.55,2.27s-26.55-1-26.55-2.27L191.76,51c0,1.25,14,4.23,31,4.23s30.42-3,30.42-4.23Z"/><path class="cls-12" d="M237.07,45.25h0a.69.69,0,0,1,0-1.09A3.46,3.46,0,0,0,234.48,38a3.48,3.48,0,0,0-2.65,1.92,3.75,3.75,0,0,0-.24.6,2.26,2.26,0,0,1-2.14,1.67H216.19A2.26,2.26,0,0,1,214,40.53a3,3,0,0,0-.23-.6A3.51,3.51,0,0,0,211.15,38a3.45,3.45,0,0,0-2.57,6.14.7.7,0,0,1,0,1.09h0a3.41,3.41,0,0,0-1.31,2.69,3.46,3.46,0,0,0,3.89,3.43,3.51,3.51,0,0,0,2.66-1.92,3,3,0,0,0,.23-.6,2.26,2.26,0,0,1,2.15-1.67h13.26a2.26,2.26,0,0,1,2.14,1.67,3.75,3.75,0,0,0,.24.6,3.44,3.44,0,0,0,6.54-1.51A3.43,3.43,0,0,0,237.07,45.25Z"/><rect class="cls-9" x="223.95" y="17.37" width="4.12" height="4.12" rx="1.61" ry="1.61" transform="translate(-0.83 19.16) rotate(-4.84)"/><rect class="cls-9" x="213.74" y="22.38" width="4.12" height="4.12" rx="1.61" ry="1.61" transform="translate(-1.29 18.31) rotate(-4.84)"/><rect class="cls-9" x="219.96" y="23.68" width="4.12" height="4.12" rx="1.61" ry="1.61" transform="translate(-1.38 18.84) rotate(-4.84)"/><rect class="cls-9" x="227.88" y="25.97" width="4.12" height="4.12" rx="1.61" ry="1.61" transform="translate(2.16 -14.08) rotate(3.52)"/><rect class="cls-13" width="268.93" height="78.83"/></g></g></svg>