<?xml version="1.0" encoding="utf-8"?>
<!-- Generator: Adobe Illustrator 22.0.1, SVG Export Plug-In . SVG Version: 6.00 Build 0)  -->
<svg version="1.1" id="Layer_1" xmlns="http://www.w3.org/2000/svg" xmlns:xlink="http://www.w3.org/1999/xlink" x="0px" y="0px"
	 viewBox="0 0 98.3 167.6" style="enable-background:new 0 0 98.3 167.6;" xml:space="preserve">
<style type="text/css">
	.st0{fill:#497799;}
	.st1{fill:#6E92AE;}
	.st2{fill:#AAC0D0;stroke:#35688E;stroke-width:1.23;stroke-miterlimit:10;}
</style>
<title>scissors</title>
<g id="Layer_2_1_">
	<g id="Layer_1-2">
		<path class="st0" d="M95.4,161.6c-3.6-0.1-8.9-3.2-12.3-7c5.6-7.8,3.7-18.7-4.1-24.3c-2.9-2.1-6.5-3.2-10.1-3.2h-0.3
			c-5.1-5.7-10.2-19.9-17.7-38.2L15.9,0l19.3,91.2c10.5,1.5,22,19.4,22.1,40.4c-7.2,6.4-7.8,17.4-1.4,24.6c5.9,6.6,15.7,7.7,23,2.7
			c4,4.4,10.5,8.6,16.4,8.8h0.1c1.7,0,3-1.3,3-3C98.4,163,97.1,161.6,95.4,161.6z M69.1,155.3c-5.9,0-10.8-4.8-10.8-10.8
			s4.8-10.8,10.8-10.8s10.8,4.8,10.8,10.8c0,0,0,0,0,0C79.9,150.4,75.1,155.2,69.1,155.3z"/>
		<path class="st1" d="M35.5,88.9c-7.5,18.3-12.6,32.5-17.7,38.2h-0.4c-9.7,0-17.5,7.8-17.5,17.4s7.8,17.5,17.4,17.5
			c9.7,0,17.5-7.8,17.5-17.4c0-5-2.1-9.7-5.8-13.1c0-18.9,9.4-35.3,18.9-39.5c2-0.8,3.5-2.6,4-4.8L70.4,0L35.5,88.9z M17.5,155.3
			c-5.9,0-10.8-4.8-10.8-10.7c0-5.9,4.8-10.8,10.7-10.8s10.8,4.8,10.8,10.7c0,0,0,0,0,0C28.2,150.4,23.4,155.3,17.5,155.3
			L17.5,155.3z"/>
		<circle class="st2" cx="43.6" cy="86.3" r="4"/>
	</g>
</g>
</svg>
