<svg xmlns="http://www.w3.org/2000/svg" viewBox="0 0 416.45 364.54"><defs><style>.cls-1{fill:#fff;}.cls-2{fill:#eee4d7;}.cls-3{fill:#e8b951;}.cls-4{fill:#f9e0c4;}.cls-5{fill:#e7b950;}.cls-6{fill:#0f1110;}.cls-7{fill:#f9ede4;}.cls-8{fill:#342c2b;}.cls-9{fill:#cb6853;}.cls-10{fill:none;stroke:#342c2b;stroke-linecap:round;stroke-linejoin:round;stroke-width:3.29px;}.cls-11{fill:#b98d1c;}</style></defs><title>shibaRun</title><g id="Layer_2" data-name="Layer 2"><g id="Icon"><path class="cls-1" d="M379.58,255.78c0-5.1,4.92-7.95,14.16-4.65s24.33,11.41,22.57,17.09c-1.35,4.34-5.4,9-24.44,1.35S379.58,255.78,379.58,255.78Z"/><path class="cls-2" d="M268.61,317.6c10.85,6.07,27.64,6.16,51.62-5.27l-34.18-12.64Z"/><path class="cls-3" d="M212.84,74.82c8.52,30.28.91,50.13.91,50.13l-46-38.1S189.3,70.91,202.41,65.7C209.38,62.93,210.84,67.71,212.84,74.82Z"/><path class="cls-4" d="M203.62,79.43c2.74,14.43.66,33.06.66,33.06L175.3,90S191,77.82,198.56,74.82C202.56,73.23,202.82,75.27,203.62,79.43Z"/><path class="cls-3" d="M85.43,74.82C76.91,105.1,84.52,125,84.52,125l46-38.1S109,70.91,95.86,65.7C88.89,62.93,87.43,67.71,85.43,74.82Z"/><path class="cls-4" d="M94.65,79.43C91.9,93.86,94,112.49,94,112.49L123,90S107.24,77.82,99.71,74.82C95.71,73.23,95.45,75.27,94.65,79.43Z"/><path class="cls-5" d="M221.15,152.13c-1.66-33.18-32.24-70.43-72-70.43s-70.77,35.63-73.89,70.51c-1.18,13.19-.82,25,2.88,34.77,7.1,18.83,26.52,30.33,71,30.33,42.4,0,61.3-11.76,68.48-31.6C221,176.23,221.8,164.91,221.15,152.13Z"/><path class="cls-1" d="M159.12,122.32c.56,3.24,4.66,2.81,9.4,2s8.13-4,7.58-7.26-4.86-5.22-9.59-4.45S158.57,119.09,159.12,122.32Z"/><path class="cls-1" d="M136.88,122.32c-.56,3.24-4.66,2.81-9.4,2s-8.13-4-7.57-7.26,4.85-5.22,9.59-4.45S137.44,119.09,136.88,122.32Z"/><path class="cls-6" d="M163.59,137.82c1.14-7.66,9.26-15.67,20.81-6.85C182.32,143.34,170.46,144.26,163.59,137.82Z"/><ellipse class="cls-1" cx="171.86" cy="131.63" rx="1.79" ry="1.75"/><path class="cls-6" d="M132.41,137.82c-1.14-7.66-9.26-15.67-20.81-6.85C113.68,143.34,125.55,144.26,132.41,137.82Z"/><ellipse class="cls-1" cx="124.14" cy="131.63" rx="1.79" ry="1.75"/><path class="cls-5" d="M80,179.72c0,10.84,4,29.16-3.2,36.94s-13,41.51-18,60.85-18,24.73-25.18,29.68S37.5,340,57.38,332.37s42-20.24,50.72-35.53c3.5,18,43.8,40.92,55.49,43.17s68.35,16.19,122.31-37.32c18.89,12.14,39.57,28.78,55.76,17.54,12.58-8.74,39.35-34,50.36-45.87,3.52-3.81,3.26-15-3.9-18.46-12.26-6-20.68-4.09-28.92-2.67,10.79-35.92-.68-71.2-50.27-78.93,74.64-6.38,98.23-116.68,35.88-159.24S244.08,31.24,252.48,55.23s32,36.76,54.78,26.47c.9,10.77,16.86,57.76-33.2,83.24C245,161.79,223.4,166,219.5,168.16s-60.95,47-70.34,48.5-48.07-30.43-48.07-30.43Z"/><path class="cls-7" d="M221.36,168.16s-.16-9.22-1.11-13c-2-7.85-17.38-13.84-34.74-7.66-20,7.11-15-9.19-37.49-9.19s-17.49,16.3-37.48,9.19c-17.36-6.18-27.22,3.16-31.63,10.63-8,13.48.18,34.7,2.48,39.52C67.54,221,74.28,287.25,128.63,321.36c15.8-13.31,27.15-20.06,39-20.32-11.36-7.42-14.42-12.79-15.26-17.09C159,283.35,234,220.43,221.36,168.16Z"/><path class="cls-8" d="M134.66,152.83c0-7,5.82-8.11,13-8.11s13,1.11,13,8.11-8.06,11.87-13,11.87C142.49,164.7,134.66,159.83,134.66,152.83Z"/><path class="cls-9" d="M147.66,195c-7,0-12.1-5.24-11.89-10.39a75.44,75.44,0,0,1,1.54-10.15c4.27-1.17,10.35-7.25,10.35-7.25s4.78,5.59,10.36,7.42a43.45,43.45,0,0,1,1.54,10C159.56,190,154.43,195,147.66,195Z"/><path class="cls-10" d="M147.66,156.59c0,6.77,0,13.46-8,17.55-6.65,3.39-19.12,1.82-20.15-7.72"/><path class="cls-10" d="M147.66,156.59c0,6.77-.28,14,8,17.55,12.76,5.48,19.29-1.94,20.15-7.72"/><path class="cls-1" d="M28.7,308.39c4.38.29,14.71-7.4,16.56-9,12.87,0,37.27,14.42,31.19,24.3-4.37,7.08-14.35,15.55-31.89,19.14-15.91,3.52-57.23-14.36-40.74-31.9C6.59,308,18.79,307.71,28.7,308.39Z"/><path class="cls-1" d="M139.64,312.66c-1.9,1.18-28.26,22.35-40.55,31-10.79,14.39,15.93,29,41.43,15.52,21.89-11.55,30.21-25.11,30.21-25.11C172.76,331.19,177.71,309.37,139.64,312.66Z"/><path class="cls-11" d="M359.2,253.23a87.05,87.05,0,0,1-8.55,14.68c6-7,16-14.25,22.87-16.05C371.2,251.55,361.31,251.92,359.2,253.23Z"/></g></g></svg>