<svg xmlns="http://www.w3.org/2000/svg" viewBox="0 0 180.52 318.15"><defs><style>.cls-1{fill:#e7b950;}.cls-2{fill:#f9ede4;}.cls-3{fill:#e8b951;}.cls-4{fill:#f9e0c4;}.cls-5{fill:#fff;}.cls-6{fill:#342c2b;}.cls-7{fill:none;stroke:#342c2b;stroke-linecap:round;stroke-linejoin:round;stroke-width:2.44px;}.cls-8{fill:#0f1110;}</style></defs><title>shibaStand</title><g id="Layer_2" data-name="Layer 2"><g id="Icon"><path class="cls-1" d="M167.68,261.16c-2.05-22-15.92-33.8-28.29-36.46,0,0-23.59-5.31-48.83-3.2-25.24-2.11-48.82,3.2-48.82,3.2-12.42,2.66-26.29,14.42-28.3,36.46s1,50.33,2.36,56H165.33C166.68,311.54,169.73,283.19,167.68,261.16Z"/><path class="cls-2" d="M161.42,310.68c0-42.26-24.29-77.51-56.59-85.68-4.6-1.15,2.46-27.54-18-26.39-14.18.8-7.47,25.44-12.77,27-31.15,9.22-54.29,43.77-54.29,85,0,2.21.1,4.36.2,6.51H161.22C161.32,315,161.42,312.89,161.42,310.68Z"/><path class="cls-3" d="M79.5,3.92C94,17.64,99.88,30.86,99.88,30.86L57.76,27.55S64.37,10.18,70,2.26C73-1.94,75.69.36,79.5,3.92Z"/><path class="cls-4" d="M77.79,10.38c7,7.61,12.47,18.07,12.47,18.07L65,25.55s4.06-11.62,7.36-16.13C74.09,7,75.79,8.17,77.79,10.38Z"/><path class="cls-3" d="M4.73,75C16.9,90.8,29.47,98,29.47,98l1-42.21S12.44,60.6,4,65.46C-.43,68.06,1.58,70.92,4.73,75Z"/><path class="cls-4" d="M11.29,74C18.15,81.73,28,88.24,28,88.24l-.35-25.38s-12,2.9-16.78,5.65C8.34,70,9.34,71.82,11.29,74Z"/><path class="cls-1" d="M50.15,312.24s14.47,2.25,21.33.45c2.06-5.41,5.61-68.56,7.61-78.47s24.24-5.81,24.39-.85c.7,18.92,6.76,77.66,8.36,81.12h19.83c1.36-3.61,1.81-5.56,18-91.59,20.73-109.87-11.62-142.52-17-158.84-2.36-7.16-7.21-14.22-13.47-21.53C102.93,23.6,68,15.23,45,33.16S17.7,91,39.83,121.45C18.7,163.16,50.15,312.24,50.15,312.24Z"/><path class="cls-5" d="M139.94,113.88c-5.76-19.63-1.51-36.75-7.26-47.22A52,52,0,0,0,117.3,49.24c-5-3.46-13.57-4.86-20.78,6.61-8.26,13.22-12.92,1.3-25.94,11.41S68,84.84,53.15,89.6c-12.91,4.15-13.32,14.32-10.76,20.33,2,4.55,5.61,6.71,9,11.47A23,23,0,0,0,48,127c-3.31,7.52-14.32,70,36.5,108.17a12.46,12.46,0,0,0,14.12.4C153.21,201.57,145.45,132.76,139.94,113.88Z"/><path class="cls-5" d="M68.38,48.23c2,1.81,4.25-.45,6.81-3.25s3-6.51,1.1-8.26-5.61-1-8.16,1.8S66.43,46.48,68.38,48.23Z"/><path class="cls-5" d="M53.51,60.4c1.25,2.31-1.51,4.06-4.81,5.81s-7.06,1.35-8.31-.95.4-5.66,3.75-7.46S52.25,58.05,53.51,60.4Z"/><path class="cls-6" d="M71.33,83.84c-3.25-4.16-.4-7.46,3.76-10.67s8-5.21,11.27-1S87.16,82.79,84.3,85,74.54,88,71.33,83.84Z"/><path class="cls-7" d="M80.6,80.23c3.15,4,6.26,8,3.5,14-2.3,5-8.11,9-12,7.16"/><path class="cls-7" d="M80.6,80.23c3.15,4,6.21,8,12.77,6.81,5.4-1,10.66-5.66,9.86-9.86"/><path class="cls-8" d="M77.74,58c-2.9-5.06-1.9-13.47,8.87-13.42C91.11,52.84,84.7,58.7,77.74,58Z"/><circle class="cls-5" cx="79.65" cy="50.59" r="1.3"/><path class="cls-8" d="M59.71,72C55.51,68,47.1,66.91,44.49,77.33,51.45,83.74,58.71,78.93,59.71,72Z"/><circle class="cls-5" cx="52.05" cy="72.07" r="1.3"/><path class="cls-5" d="M20.2,296.41c-9.51,0-17.57,6.91-20.08,16.28a3.56,3.56,0,0,0,3.41,4.5H36.88a3.56,3.56,0,0,0,3.41-4.5C37.78,303.32,29.77,296.41,20.2,296.41Z"/><path class="cls-5" d="M62.87,301.77c-7.51,0-13.82,5.41-15.77,12.82a2.79,2.79,0,0,0,2.65,3.56H76a2.77,2.77,0,0,0,2.65-3.56C76.69,307.18,70.38,301.77,62.87,301.77Z"/><path class="cls-5" d="M121.51,301.77c-7.51,0-13.82,5.41-15.77,12.82a2.79,2.79,0,0,0,2.65,3.56h26.24a2.77,2.77,0,0,0,2.65-3.56C135.33,307.18,129,301.77,121.51,301.77Z"/><path class="cls-5" d="M160.32,296.41c-9.52,0-17.58,6.91-20.08,16.28a3.55,3.55,0,0,0,3.4,4.5H177a3.56,3.56,0,0,0,3.41-4.5C177.85,303.32,169.83,296.41,160.32,296.41Z"/></g></g></svg>