<svg xmlns="http://www.w3.org/2000/svg" viewBox="0 0 180.54 265.09"><defs><style>.cls-1{fill:#e7b950;}.cls-2{fill:#f9ede4;}.cls-3{fill:#fff;}</style></defs><title>shibaBody_1</title><g id="Layer_2" data-name="Layer 2"><g id="Layer_1-2" data-name="Layer 1"><path class="cls-1" d="M167.69,208.1c-2.05-22-15.92-33.8-28.29-36.46,0,0-23.59-5.31-48.83-3.2-25.24-2.11-48.82,3.2-48.82,3.2-12.42,2.66-26.29,14.42-28.3,36.46s1,50.33,2.36,56H165.34C166.69,258.48,169.74,230.13,167.69,208.1Z"/><path class="cls-2" d="M161.43,257.62c0-42.26-24.29-77.51-56.59-85.68-4.6-1.15,2.46-27.54-18-26.39-14.18.8-7.47,25.44-12.77,27-31.15,9.22-54.29,43.77-54.29,85,0,2.21.1,4.36.2,6.51H161.23C161.33,261.94,161.43,259.83,161.43,257.62Z"/><path class="cls-3" d="M160.33,243.35c-9.52,0-17.58,6.91-20.08,16.28a3.54,3.54,0,0,0,2.47,4.37,3.22,3.22,0,0,0,.93.13H177a3.58,3.58,0,0,0,3.41-4.5C177.86,250.26,169.84,243.35,160.33,243.35Z"/><path class="cls-1" d="M135.84,18.08c-9-18.66-33.7-23.33-58-11.89-25.25,11.89-28.5,41.25-38,62.2C18.71,110.1,50.16,259.18,50.16,259.18s14.47,2.25,21.33.45c2.06-5.41,5.61-68.56,7.61-78.47a6,6,0,0,1,1.1-2.47c-33-27.58-36.84-65.86-35.21-87.92l57-1.66,40.8-13.39c3.27,27,.6,75.42-39.57,103.73a2,2,0,0,1,.25.86c.7,18.92,6.76,77.66,8.36,81.12h19.83c1.36-3.61,1.81-5.56,18-91.59C167.79,73.84,145.38,36.79,135.84,18.08Z"/><path class="cls-3" d="M140,60.82a82.94,82.94,0,0,1-2.85-15.1c-2.85-15.11-22.71-22.83-47.76-13C60.17,44.11,47.8,74.46,47.8,74.46c-3.41,9.17-12.54,66.64,32.4,104.23q2.07,1.74,4.31,3.42a12.44,12.44,0,0,0,14.12.4c1.59-1,3.12-2,4.61-3.06C152.76,144.54,145.3,79.15,140,60.82Z"/><path class="cls-3" d="M62.88,248.71c-7.51,0-13.82,5.41-15.77,12.82A2.8,2.8,0,0,0,49,265a3.07,3.07,0,0,0,.74.1H76a2.75,2.75,0,0,0,2.76-2.77,3,3,0,0,0-.11-.79C76.7,254.12,70.39,248.71,62.88,248.71Z"/><path class="cls-3" d="M121.52,248.71c-7.51,0-13.82,5.41-15.77,12.82a2.8,2.8,0,0,0,1.91,3.46,3.07,3.07,0,0,0,.74.1h26.24a2.75,2.75,0,0,0,2.76-2.77,3,3,0,0,0-.11-.79C135.34,254.12,129,248.71,121.52,248.71Z"/><path class="cls-3" d="M20.21,243.35c-9.51,0-17.57,6.91-20.08,16.28a3.54,3.54,0,0,0,3.41,4.5H36.89a3.58,3.58,0,0,0,3.41-4.5C37.79,250.26,29.78,243.35,20.21,243.35Z"/></g></g></svg>