<svg xmlns="http://www.w3.org/2000/svg" viewBox="0 0 135.71 162.19"><defs><style>.cls-1{fill:#e8b951;}.cls-2{fill:#f9e0c4;}.cls-3{fill:#e7b950;}.cls-4{fill:#fff;}.cls-5{fill:#342c2b;}.cls-6{fill:none;stroke:#342c2b;stroke-linecap:round;stroke-linejoin:round;stroke-width:2.8px;}.cls-7{fill:#0f1110;}.cls-8{isolation:isolate;}</style></defs><title>shibaIcon</title><g id="Layer_2" data-name="Layer 2"><g id="Icon"><path class="cls-1" d="M111.4,6.82c6.18,19.34,5,34,5,34L80.46,17.22S94.88,5,103.77.73C108.5-1.56,109.77,1.81,111.4,6.82Z"/><path class="cls-2" d="M106.72,11.74C109.2,21.94,109,34,109,34L87.9,19s9.32-8.33,14.47-10.76C105.08,7,106,8.79,106.72,11.74Z"/><path class="cls-1" d="M24.88,6.82c-6.18,19.34-5,34-5,34L55.83,17.22S41.41,5,32.51.73C27.73-1.56,26.47,1.81,24.88,6.82Z"/><path class="cls-2" d="M29.51,11.74C27,21.94,27.27,34,27.27,34L48.34,19S39,10.66,33.87,8.23C31.15,7,30.22,8.79,29.51,11.74Z"/><path class="cls-3" d="M129.71,74.57c-1.4-28.65-27.11-60.82-60.59-60.82S9.57,44.51,7,74.67C6,86,6.24,96.2,9.38,104.68c6,16.24,22.33,26.17,59.74,26.17,35.68,0,51.6-10.16,57.59-27.3C129.62,95.41,130.27,85.62,129.71,74.57Z"/><path class="cls-4" d="M77.55,44c.47,2.81,3.94,2.44,7.92,1.73s6.83-3.46,6.36-6.27-4.07-4.5-8-3.84S77.08,41.19,77.55,44Z"/><path class="cls-4" d="M58.82,44c-.46,2.81-3.93,2.44-7.91,1.73s-6.83-3.46-6.37-6.27,4.08-4.5,8.06-3.84S59.29,41.19,58.82,44Z"/><path class="cls-4" d="M123.2,79.3c-1.68-6.79-8.89-14-23.5-8.66-16.81,6.13-12.6-7.91-31.56-7.91s-14.7,14.09-31.56,7.91C22,65.3,14.39,74.2,12.47,81.45c-2.06,7.78,2.34,13.54-1.59,26.36,7.07,14.1,23.64,22.57,58.2,22.57,32.87,0,49-8.61,56-23.41C121.19,94.1,125.17,87.17,123.2,79.3Z"/><path class="cls-5" d="M57.23,78.18c0-6,4.92-7,11-7s11,1,11,7-6.78,10.25-11,10.25C63.83,88.43,57.23,84.22,57.23,78.18Z"/><path class="cls-6" d="M68.19,81.45c0,5.86,0,11.62-6.74,15.17-5.62,2.91-13.63,2.39-15.92-2"/><path class="cls-6" d="M68.19,81.45c0,5.86,0,11.62,6.74,15.17,5.62,2.91,13.63,2.39,15.92-2"/><path class="cls-7" d="M81.3,59.31c.93-6.6,7.77-13.53,17.51-5.9C97.08,64.08,87.06,64.88,81.3,59.31Z"/><circle class="cls-4" cx="88.27" cy="53.97" r="1.5"/><path class="cls-7" d="M55.08,59.31c-.94-6.6-7.77-13.53-17.51-5.9C39.3,64.08,49.27,64.88,55.08,59.31Z"/><circle class="cls-4" cx="48.1" cy="53.97" r="1.5"/><g class="cls-8"><path class="cls-4" d="M4.67,148.25a1.41,1.41,0,0,0,.4,1,3.47,3.47,0,0,0,1,.72,10.7,10.7,0,0,0,1.46.53l1.65.46a24.07,24.07,0,0,1,2.42.86,7.4,7.4,0,0,1,1.86,1.08,4.42,4.42,0,0,1,1.2,1.49,4.66,4.66,0,0,1,.42,2.07,5.23,5.23,0,0,1-.53,2.37,4.8,4.8,0,0,1-1.5,1.8,7.06,7.06,0,0,1-2.37,1.14,11.52,11.52,0,0,1-3.12.4,15.53,15.53,0,0,1-1.8-.11,16,16,0,0,1-1.75-.31,11.7,11.7,0,0,1-1.58-.49,6.85,6.85,0,0,1-1.3-.65,3.4,3.4,0,0,1-.87-.8A1.55,1.55,0,0,1,0,158.9a1.46,1.46,0,0,1,.13-.61,2.2,2.2,0,0,1,.34-.55,1.79,1.79,0,0,1,.47-.4,1,1,0,0,1,.51-.15,1.36,1.36,0,0,1,.44.08l.43.18.45.23a3.81,3.81,0,0,0,.5.23,15.15,15.15,0,0,0,1.95.7,8,8,0,0,0,2.26.32,5.84,5.84,0,0,0,1.21-.12,3.26,3.26,0,0,0,1-.37,1.91,1.91,0,0,0,.69-.63,1.92,1.92,0,0,0,.1-1.69,1.91,1.91,0,0,0-.42-.57,3.15,3.15,0,0,0-.61-.43c-.24-.12-.49-.22-.75-.32l-.56-.2-.32-.1-.32-.11-.66-.19-.36-.09L6.22,154,6,153.93l-.26-.09-1.18-.42a13.1,13.1,0,0,1-2-.87,5.14,5.14,0,0,1-1.34-1,3.69,3.69,0,0,1-.76-1.28,5.41,5.41,0,0,1-.24-1.68,4.91,4.91,0,0,1,.52-2.28,4.87,4.87,0,0,1,1.5-1.73,7.17,7.17,0,0,1,2.36-1.11,11.61,11.61,0,0,1,3.13-.39c.41,0,.87,0,1.37.08s1,.14,1.48.25a11.23,11.23,0,0,1,1.43.42,6.2,6.2,0,0,1,1.21.6,3.09,3.09,0,0,1,.85.79,1.64,1.64,0,0,1,.32,1,1.4,1.4,0,0,1-.12.58,1.6,1.6,0,0,1-.32.45,1.49,1.49,0,0,1-.47.29,1.36,1.36,0,0,1-.56.11,1.46,1.46,0,0,1-.69-.16c-.4-.2-.76-.38-1.1-.52a8.2,8.2,0,0,0-1-.35,7,7,0,0,0-1-.2,10.68,10.68,0,0,0-1.18-.06,6.75,6.75,0,0,0-1.19.1,4,4,0,0,0-1,.34,2.22,2.22,0,0,0-.74.6A1.39,1.39,0,0,0,4.67,148.25Z"/><path class="cls-4" d="M29.15,145.93a2.58,2.58,0,0,1,.18-1,2.72,2.72,0,0,1,.51-.77,2.25,2.25,0,0,1,.73-.53,2.3,2.3,0,0,1,1.83,0,2.4,2.4,0,0,1,.74.53,2.49,2.49,0,0,1,.5.77,2.58,2.58,0,0,1,.18,1v13.36a2.49,2.49,0,0,1-.18,1,2.43,2.43,0,0,1-.5.78,2.4,2.4,0,0,1-.74.53,2.42,2.42,0,0,1-1.83,0,2.25,2.25,0,0,1-.73-.53,2.43,2.43,0,0,1-.5-.78,2.49,2.49,0,0,1-.18-1V154.1H22.67v5.19a2.49,2.49,0,0,1-.18,1,2.41,2.41,0,0,1-1.25,1.31,2.24,2.24,0,0,1-2.56-.53,2.58,2.58,0,0,1-.49-.78,2.49,2.49,0,0,1-.18-1V145.93a2.58,2.58,0,0,1,.18-1,2.66,2.66,0,0,1,.49-.77,2.26,2.26,0,0,1,2.56-.53,2.44,2.44,0,0,1,.75.53,2.49,2.49,0,0,1,.5.77,2.58,2.58,0,0,1,.18,1v4.59h6.48Z"/><path class="cls-4" d="M42.36,159.29a2.49,2.49,0,0,1-.18,1,2.43,2.43,0,0,1-.5.78,2.33,2.33,0,0,1-.75.53,2.27,2.27,0,0,1-.91.18,2.31,2.31,0,0,1-.91-.18,2.14,2.14,0,0,1-.73-.53,2.43,2.43,0,0,1-.5-.78,2.49,2.49,0,0,1-.18-1V145.93a2.58,2.58,0,0,1,.18-1,2.49,2.49,0,0,1,.5-.77,2.14,2.14,0,0,1,.73-.53,2.32,2.32,0,0,1,.91-.19,2.28,2.28,0,0,1,.91.19,2.33,2.33,0,0,1,.75.53,2.49,2.49,0,0,1,.5.77,2.58,2.58,0,0,1,.18,1Z"/><path class="cls-4" d="M46.27,145.7a1.94,1.94,0,0,1,.88-1.7,3.08,3.08,0,0,1,.92-.39,5,5,0,0,1,1.12-.12h3.9l1.76,0a14.73,14.73,0,0,1,1.77.17,9.39,9.39,0,0,1,1.64.43,4.28,4.28,0,0,1,1.34.79,3.61,3.61,0,0,1,.92,1.29,4.75,4.75,0,0,1,.34,1.88,4.24,4.24,0,0,1-.25,1.42,4.15,4.15,0,0,1-.72,1.24,4.4,4.4,0,0,1-1.11.94,4,4,0,0,1-1.42.52v.05a5.69,5.69,0,0,1,1.71.52,4.62,4.62,0,0,1,1.28,1,4,4,0,0,1,.82,1.34,4.32,4.32,0,0,1,.29,1.62,4.7,4.7,0,0,1-.38,1.87,4.47,4.47,0,0,1-1.15,1.61,5.93,5.93,0,0,1-2,1.14,8.38,8.38,0,0,1-2.85.43H49.19a5.91,5.91,0,0,1-1.26-.11,1.84,1.84,0,0,1-.91-.46,2.17,2.17,0,0,1-.56-1,5.88,5.88,0,0,1-.19-1.68Zm4.44.6v5h1.8a9.26,9.26,0,0,0,1.54-.12,3.58,3.58,0,0,0,1.22-.4,2.09,2.09,0,0,0,.8-.79,2.5,2.5,0,0,0,.29-1.26,2.39,2.39,0,0,0-.29-1.24,1.93,1.93,0,0,0-.77-.73,3.32,3.32,0,0,0-1.14-.36,10.21,10.21,0,0,0-1.39-.1Zm0,12.63H52.8a13.23,13.23,0,0,0,1.77-.1,3.45,3.45,0,0,0,1.28-.4,2,2,0,0,0,.78-.84,3.1,3.1,0,0,0,.27-1.39,2.53,2.53,0,0,0-.3-1.3,2.19,2.19,0,0,0-.86-.79,3.85,3.85,0,0,0-1.33-.41,11.5,11.5,0,0,0-1.74-.12h-2Z"/><path class="cls-4" d="M79.83,157.94l.19.47c.07.16.13.32.19.49a3.32,3.32,0,0,1,.14.49,1.64,1.64,0,0,1,.06.42,1.94,1.94,0,0,1-.17.82,1.85,1.85,0,0,1-.46.61,2.18,2.18,0,0,1-.67.37,2.45,2.45,0,0,1-.81.13,2.32,2.32,0,0,1-.84-.13,1.71,1.71,0,0,1-.63-.44,3,3,0,0,1-.51-.79c-.16-.32-.32-.72-.5-1.19l-.6-1.59H68.1l-.52,1.59a10.56,10.56,0,0,1-.45,1.21,3.09,3.09,0,0,1-.52.79,1.73,1.73,0,0,1-.65.42,2.45,2.45,0,0,1-.85.13,2.37,2.37,0,0,1-.81-.13,2.23,2.23,0,0,1-.68-.37,1.83,1.83,0,0,1-.45-.61,1.8,1.8,0,0,1-.17-.82,1.6,1.6,0,0,1,0-.42c0-.16.09-.32.15-.49s.12-.33.19-.49.13-.32.18-.47L67,148.79c.31-.85.62-1.61.91-2.27a8.54,8.54,0,0,1,.95-1.66,3.52,3.52,0,0,1,1.2-1,3.65,3.65,0,0,1,1.65-.34,4,4,0,0,1,1.55.27,3,3,0,0,1,1.16.89,7.39,7.39,0,0,1,1,1.64c.31.68.65,1.51,1,2.5Zm-8.2-11L68.87,155h5.58l-2.75-8.09Z"/><path class="cls-4" d="M96.06,159.29a2.49,2.49,0,0,1-.18,1,2.43,2.43,0,0,1-.5.78,2.29,2.29,0,0,1-.74.53,2.31,2.31,0,0,1-.91.18,2.36,2.36,0,0,1-.92-.18,2.25,2.25,0,0,1-.73-.53,2.43,2.43,0,0,1-.5-.78,2.49,2.49,0,0,1-.18-1V145.93a2.58,2.58,0,0,1,.18-1,2.49,2.49,0,0,1,.5-.77,2.25,2.25,0,0,1,.73-.53,2.37,2.37,0,0,1,.92-.19,2.32,2.32,0,0,1,.91.19,2.29,2.29,0,0,1,.74.53,2.49,2.49,0,0,1,.5.77,2.58,2.58,0,0,1,.18,1Z"/><path class="cls-4" d="M103.82,159.77a1.92,1.92,0,0,1-.15.77,2.13,2.13,0,0,1-.43.63,2.31,2.31,0,0,1-.63.42,2.08,2.08,0,0,1-1.55,0,2.26,2.26,0,0,1-.62-.42,2.08,2.08,0,0,1-.41-.63,1.92,1.92,0,0,1-.15-.77V146a3,3,0,0,1,.18-1.09,2.34,2.34,0,0,1,.49-.81,2,2,0,0,1,.72-.5,2.39,2.39,0,0,1,.89-.17,2.18,2.18,0,0,1,.79.16,3.9,3.9,0,0,1,.74.42,4.92,4.92,0,0,1,.67.63,7.94,7.94,0,0,1,.63.76l7.42,10.06V145.45a2,2,0,0,1,.57-1.4,2.12,2.12,0,0,1,.62-.42,2,2,0,0,1,1.55,0,2.26,2.26,0,0,1,.62.42,2.31,2.31,0,0,1,.42.63,1.93,1.93,0,0,1,.16.77v12.8a11.45,11.45,0,0,1-.08,1.33,3.35,3.35,0,0,1-.31,1.11,2,2,0,0,1-.68.77,2.13,2.13,0,0,1-1.17.28,2,2,0,0,1-.76-.15,2.9,2.9,0,0,1-.72-.41,5.47,5.47,0,0,1-.67-.62c-.22-.24-.43-.5-.64-.78l-7.5-10.18Z"/><path class="cls-4" d="M131.05,145.93a2.58,2.58,0,0,1,.18-1,2.49,2.49,0,0,1,.5-.77,2.14,2.14,0,0,1,.73-.53,2.32,2.32,0,0,1,.91-.19,2.28,2.28,0,0,1,.91.19,2.44,2.44,0,0,1,.75.53,2.49,2.49,0,0,1,.5.77,2.58,2.58,0,0,1,.18,1v9.63a6.76,6.76,0,0,1-.58,2.9,5.7,5.7,0,0,1-1.64,2.06,7.12,7.12,0,0,1-2.49,1.25,11.36,11.36,0,0,1-3.17.42,11.58,11.58,0,0,1-3.14-.41,7.26,7.26,0,0,1-2.49-1.23,5.54,5.54,0,0,1-1.64-2.06,6.84,6.84,0,0,1-.59-2.93v-9.63a2.58,2.58,0,0,1,.18-1,2.49,2.49,0,0,1,.5-.77,2.25,2.25,0,0,1,.73-.53,2.3,2.3,0,0,1,1.83,0,2.4,2.4,0,0,1,.74.53,2.49,2.49,0,0,1,.5.77,2.58,2.58,0,0,1,.18,1l0,9.55a4,4,0,0,0,.27,1.56,3.12,3.12,0,0,0,.73,1.07,2.84,2.84,0,0,0,1,.62,3.64,3.64,0,0,0,1.17.2,3.6,3.6,0,0,0,1.17-.2,3,3,0,0,0,1-.62,3.12,3.12,0,0,0,.73-1.07,3.84,3.84,0,0,0,.29-1.56Z"/></g></g></g></svg>