<svg xmlns="http://www.w3.org/2000/svg" viewBox="0 0 136.43 140.16"><defs><style>.cls-1{fill:#e8b951;}.cls-2{fill:#f9e0c4;}.cls-3{fill:#e7b950;}.cls-4{fill:#fff;}.cls-5{fill:#342c2b;}.cls-6{fill:none;stroke:#342c2b;stroke-linecap:round;stroke-linejoin:round;stroke-width:2.44px;}.cls-7{fill:#0f1110;}</style></defs><title>shibaHead</title><g id="Layer_2" data-name="Layer 2"><g id="Layer_2-2" data-name="Layer 2"><path class="cls-1" d="M78.07,3.92c14.5,13.72,20.38,26.94,20.38,26.94L56.33,27.55S62.94,10.18,68.57,2.26C71.57-1.94,74.26.36,78.07,3.92Z"/><path class="cls-2" d="M76.36,10.38c7,7.61,12.47,18.07,12.47,18.07l-25.26-2.9s4.06-11.62,7.36-16.13C72.66,7,74.36,8.17,76.36,10.38Z"/><path class="cls-1" d="M3.3,75C15.47,90.8,28,98,28,98l1-42.21S11,60.6,2.57,65.46C-1.86,68.06.15,70.92,3.3,75Z"/><path class="cls-2" d="M9.86,74c6.86,7.73,16.71,14.24,16.71,14.24l-.35-25.38s-12,2.9-16.78,5.65C6.91,70,7.91,71.82,9.86,74Z"/><path class="cls-3" d="M46.57,127A22.88,22.88,0,0,1,50,121.4c-3.39-4.76-7-6.92-9-11.47-2.56-6-2.15-16.18,10.76-20.33,14.85-4.76,4.41-12.23,17.43-22.34s17.68,1.81,25.94-11.41c7.21-11.47,15.78-10.07,20.78-6.61a52.09,52.09,0,0,1,15.38,17.42c4.21,7.67,3.06,18.92,4.41,32.11,1.29-7.71,1-16.8-1.26-27.63a52.65,52.65,0,0,1-3.16-7.08c-2.36-7.16-7.21-14.22-13.47-21.53-16.27-18.93-51.2-27.3-74.2-9.37S16.27,91,38.4,121.45a68.56,68.56,0,0,0,8,6.06Q46.47,127.23,46.57,127Z"/><path class="cls-4" d="M115.87,49.24c-5-3.46-13.57-4.86-20.78,6.61-8.26,13.22-12.92,1.3-25.94,11.41S66.57,84.84,51.72,89.6c-12.91,4.15-13,15-11.32,21.27A87.66,87.66,0,0,0,46.57,127c.07.14-.14.32-.21.51,12.77,8.5,39.09,21.16,65.79,4.49,11.52-7.19,20.83-17.24,23.51-33.23-1.35-13.19-.2-24.44-4.41-32.11A52.09,52.09,0,0,0,115.87,49.24Z"/><path class="cls-4" d="M67,48.23C69,50,71.2,47.78,73.76,45s3-6.51,1.1-8.26-5.61-1-8.16,1.8S65,46.48,67,48.23Z"/><path class="cls-4" d="M52.08,60.4c1.25,2.31-1.51,4.06-4.81,5.81s-7.06,1.35-8.31-.95.4-5.66,3.75-7.46S50.82,58.05,52.08,60.4Z"/><path class="cls-5" d="M69.9,83.84c-3.25-4.16-.4-7.46,3.76-10.67s8-5.21,11.27-1,.8,10.62-2.06,12.83S73.11,88,69.9,83.84Z"/><path class="cls-6" d="M79.17,80.23c3.15,4,6.26,8,3.5,14-2.3,5-8.11,9-12,7.16"/><path class="cls-6" d="M79.17,80.23c3.15,4,6.21,8,12.77,6.81,5.4-1,10.66-5.66,9.86-9.86"/><path class="cls-7" d="M76.31,58c-2.9-5.06-1.9-13.47,8.87-13.42C89.68,52.84,83.27,58.7,76.31,58Z"/><circle class="cls-4" cx="78.22" cy="50.59" r="1.3"/><path class="cls-7" d="M58.28,72c-4.2-4-12.61-5.09-15.22,5.33C50,83.74,57.28,78.93,58.28,72Z"/><circle class="cls-4" cx="50.62" cy="72.07" r="1.3"/></g></g></svg>