<?xml version="1.0" encoding="utf-8"?>
<!-- Generator: Adobe Illustrator 22.1.0, SVG Export Plug-In . SVG Version: 6.00 Build 0)  -->
<svg version="1.1" xmlns="http://www.w3.org/2000/svg" xmlns:xlink="http://www.w3.org/1999/xlink" x="0px" y="0px"
	 viewBox="0 0 180.5 318.1" style="enable-background:new 0 0 180.5 318.1;" xml:space="preserve">
<style type="text/css">
	.st0{fill:#E7B950;}
	.st1{fill:#F9EDE4;}
	.st2{fill:#E8B951;}
	.st3{fill:#F9E0C4;}
	.st4{fill:#FFFFFF;}
	.st5{fill:#342C2B;}
	.st6{fill:none;stroke:#342C2B;stroke-width:2.44;stroke-linecap:round;stroke-linejoin:round;}
	.st7{fill:#0F1110;}
</style>
<g id="Layer_1">
	<title>shibaStand</title>
	<g id="Layer_2_1_">
		<g id="Icon">
			<path class="st0" d="M167.7,261.2c-2.1-22-15.9-33.8-28.3-36.5c0,0-23.6-5.3-48.8-3.2c-25.2-2.1-48.8,3.2-48.8,3.2
				c-12.4,2.7-26.3,14.4-28.3,36.5s1,50.3,2.4,56h149.5C166.7,311.5,169.7,283.2,167.7,261.2z"/>
			<path class="st1" d="M161.4,310.7c0-42.3-24.3-77.5-56.6-85.7c-4.6-1.1,2.5-27.5-18-26.4c-14.2,0.8-7.5,25.4-12.8,27
				c-31.2,9.2-54.3,43.8-54.3,85c0,2.2,0.1,4.4,0.2,6.5h141.2C161.3,315,161.4,312.9,161.4,310.7z"/>
			<path class="st2" d="M79.5,3.9C94,17.6,99.9,30.9,99.9,30.9l-42.1-3.3c0,0,6.6-17.4,12.2-25.3C73-1.9,75.7,0.4,79.5,3.9z"/>
			<path class="st3" d="M77.8,10.4c7,7.6,12.5,18.1,12.5,18.1L65,25.5c0,0,4.1-11.6,7.4-16.1C74.1,7,75.8,8.2,77.8,10.4z"/>
			<path class="st2" d="M4.7,75c12.2,15.8,24.7,23,24.7,23l1-42.2c0,0-18,4.8-26.5,9.7C-0.4,68.1,1.6,70.9,4.7,75z"/>
			<path class="st3" d="M11.3,74C18.1,81.7,28,88.2,28,88.2l-0.4-25.4c0,0-12,2.9-16.8,5.7C8.3,70,9.3,71.8,11.3,74z"/>
			<path class="st0" d="M50.2,312.2c0,0,14.5,2.2,21.3,0.5c2.1-5.4,5.6-68.6,7.6-78.5s24.2-5.8,24.4-0.9c0.7,18.9,6.8,77.7,8.4,81.1
				h19.8c1.4-3.6,1.8-5.6,18-91.6c20.7-109.9-11.6-142.5-17-158.8c-2.4-7.2-7.2-14.2-13.5-21.5C102.9,23.6,68,15.2,45,33.2
				S17.7,91,39.8,121.4C18.7,163.2,50.2,312.2,50.2,312.2z"/>
			<path class="st4" d="M139.9,113.9c-5.8-19.6-1.5-36.8-7.3-47.2c-3.7-6.9-9-12.8-15.4-17.4c-5-3.5-13.6-4.9-20.8,6.6
				c-8.3,13.2-12.9,1.3-25.9,11.4S68,84.8,53.2,89.6c-12.9,4.2-13.3,14.3-10.8,20.3c2,4.6,5.6,6.7,9,11.5c-1.4,1.7-2.5,3.6-3.4,5.6
				c-3.3,7.5-14.3,70,36.5,108.2c4.2,3,9.8,3.2,14.1,0.4C153.2,201.6,145.4,132.8,139.9,113.9z"/>
			<path class="st4" d="M68.4,48.2c2,1.8,4.2-0.5,6.8-3.2s3-6.5,1.1-8.3s-5.6-1-8.2,1.8S66.4,46.5,68.4,48.2z"/>
			<path class="st4" d="M53.5,60.4c1.2,2.3-1.5,4.1-4.8,5.8s-7.1,1.3-8.3-0.9s0.4-5.7,3.8-7.5S52.2,58,53.5,60.4z"/>
			<path class="st5" d="M71.3,83.8c-3.2-4.2-0.4-7.5,3.8-10.7s8-5.2,11.3-1s0.8,10.6-2.1,12.8S74.5,88,71.3,83.8z"/>
			<path class="st6" d="M80.6,80.2c3.2,4,6.3,8,3.5,14c-2.3,5-8.1,9-12,7.2"/>
			<path class="st6" d="M80.6,80.2c3.2,4,6.2,8,12.8,6.8c5.4-1,10.7-5.7,9.9-9.9"/>
			<path class="st7" d="M77.7,58c-2.9-5.1-1.9-13.5,8.9-13.4C91.1,52.8,84.7,58.7,77.7,58z"/>
			<circle class="st4" cx="79.7" cy="50.6" r="1.3"/>
			<path class="st7" d="M59.7,72c-4.2-4-12.6-5.1-15.2,5.3C51.5,83.7,58.7,78.9,59.7,72z"/>
			<circle class="st4" cx="52" cy="72.1" r="1.3"/>
			<path class="st4" d="M20.2,296.4c-9.5,0-17.6,6.9-20.1,16.3c-0.5,1.9,0.6,3.9,2.5,4.4c0.3,0.1,0.6,0.1,0.9,0.1h33.3
				c2,0,3.5-1.6,3.5-3.6c0-0.3,0-0.6-0.1-0.9C37.8,303.3,29.8,296.4,20.2,296.4z"/>
			<path class="st4" d="M62.9,301.8c-7.5,0-13.8,5.4-15.8,12.8c-0.4,1.5,0.4,3,1.9,3.5c0.2,0.1,0.5,0.1,0.7,0.1H76
				c1.5,0,2.8-1.2,2.8-2.8c0-0.3,0-0.5-0.1-0.8C76.7,307.2,70.4,301.8,62.9,301.8z"/>
			<path class="st4" d="M121.5,301.8c-7.5,0-13.8,5.4-15.8,12.8c-0.4,1.5,0.4,3,1.9,3.5c0.2,0.1,0.5,0.1,0.7,0.1h26.2
				c1.5,0,2.8-1.2,2.8-2.8c0-0.3,0-0.5-0.1-0.8C135.3,307.2,129,301.8,121.5,301.8z"/>
			<path class="st4" d="M160.3,296.4c-9.5,0-17.6,6.9-20.1,16.3c-0.5,1.9,0.6,3.8,2.5,4.4c0.3,0.1,0.6,0.1,0.9,0.1H177
				c2,0,3.5-1.6,3.5-3.6c0-0.3,0-0.6-0.1-0.9C177.9,303.3,169.8,296.4,160.3,296.4z"/>
		</g>
	</g>
	<g>
		<path class="st0" d="M353.3,261.2c-2-22-15.9-33.8-28.3-36.5c0,0-23.6-5.3-48.8-3.2c-25.2-2.1-48.8,3.2-48.8,3.2
			c-12.4,2.7-26.3,14.4-28.3,36.5c-2,22,1,50.3,2.4,56H351C352.3,311.5,355.4,283.2,353.3,261.2z"/>
		<path class="st1" d="M347.1,310.7c0-42.3-24.3-77.5-56.6-85.7c-4.6-1.1,2.5-27.5-18-26.4c-14.2,0.8-7.5,25.4-12.8,27
			c-31.1,9.2-54.3,43.8-54.3,85c0,2.2,0.1,4.4,0.2,6.5h141.2C347,315,347.1,312.9,347.1,310.7z"/>
		<path class="st4" d="M346,296.4c-9.5,0-17.6,6.9-20.1,16.3c-0.5,1.9,0.6,3.8,2.5,4.4c0.3,0.1,0.6,0.1,0.9,0.1h33.4
			c2,0,3.5-1.6,3.5-3.6c0-0.3,0-0.6-0.1-0.9C363.5,303.3,355.5,296.4,346,296.4z"/>
		<path class="st0" d="M321.5,71.1c-9-18.7-33.7-23.3-58-11.9c-25.2,11.9-28.5,41.2-38,62.2c-21.1,41.7,10.3,190.8,10.3,190.8
			s14.5,2.2,21.3,0.5c2.1-5.4,5.6-68.6,7.6-78.5c0.2-0.9,0.6-1.8,1.1-2.5c-33-27.6-36.8-65.9-35.2-87.9l57-1.7l40.8-13.4
			c3.3,27,0.6,75.4-39.6,103.7c0.2,0.3,0.2,0.6,0.3,0.9c0.7,18.9,6.8,77.7,8.4,81.1h19.8c1.4-3.6,1.8-5.6,18-91.6
			C353.5,126.9,331,89.8,321.5,71.1z"/>
		<path class="st4" d="M325.6,113.9c-1.5-5.2-2.4-10.3-2.9-15.1c-2.9-15.1-22.7-22.8-47.8-13c-29.2,11.4-41.5,41.8-41.5,41.8
			c-3.4,9.2-12.5,66.6,32.4,104.2c1.4,1.2,2.8,2.3,4.3,3.4c4.2,3,9.8,3.2,14.1,0.4c1.6-1,3.1-2,4.6-3.1
			C338.4,197.6,331,132.2,325.6,113.9z"/>
		<path class="st4" d="M248.5,301.8c-7.5,0-13.8,5.4-15.8,12.8c-0.4,1.5,0.4,3,1.9,3.5c0.2,0.1,0.5,0.1,0.7,0.1h26.2
			c1.5,0,2.8-1.2,2.8-2.8c0-0.3,0-0.5-0.1-0.8C262.4,307.2,256,301.8,248.5,301.8z"/>
		<path class="st4" d="M307.2,301.8c-7.5,0-13.8,5.4-15.8,12.8c-0.4,1.5,0.4,3,1.9,3.5c0.2,0.1,0.5,0.1,0.7,0.1h26.2
			c1.5,0,2.8-1.2,2.8-2.8c0-0.3,0-0.5-0.1-0.8C321,307.2,314.7,301.8,307.2,301.8z"/>
		<path class="st4" d="M205.9,296.4c-9.5,0-17.6,6.9-20.1,16.3c-0.5,1.9,0.6,3.9,2.5,4.4c0.3,0.1,0.6,0.1,0.9,0.1h33.3
			c2,0,3.5-1.6,3.5-3.6c0-0.3,0-0.6-0.1-0.9C223.4,303.3,215.4,296.4,205.9,296.4z"/>
	</g>
</g>
<g id="Layer_2">
	<g>
		<g>
			<g>
				<path class="st2" d="M265.2,3.9c14.5,13.7,20.4,26.9,20.4,26.9l-42.1-3.3c0,0,6.6-17.4,12.2-25.3C258.7-1.9,261.4,0.4,265.2,3.9
					z"/>
				<path class="st3" d="M263.5,10.4c7,7.6,12.5,18.1,12.5,18.1l-25.3-2.9c0,0,4.1-11.6,7.4-16.1C259.8,7,261.5,8.2,263.5,10.4z"/>
				<path class="st2" d="M190.4,75c12.2,15.8,24.7,23,24.7,23l1-42.2c0,0-18,4.8-26.5,9.7C185.2,68.1,187.2,70.9,190.4,75z"/>
				<path class="st3" d="M197,74c6.9,7.7,16.7,14.2,16.7,14.2l-0.4-25.4c0,0-12,2.9-16.8,5.7C194,70,195,71.8,197,74z"/>
				<path class="st0" d="M233.7,127c0.9-2,2-3.9,3.4-5.6c-3.4-4.8-7-6.9-9-11.5c-2.6-6-2.1-16.2,10.8-20.3
					c14.9-4.8,4.4-12.2,17.4-22.3c13-10.1,17.7,1.8,25.9-11.4c7.2-11.5,15.8-10.1,20.8-6.6c6.4,4.6,11.6,10.5,15.4,17.4
					c4.2,7.7,3.1,18.9,4.4,32.1c1.3-7.7,1-16.8-1.3-27.6c-1.4-2.7-2.5-5-3.2-7.1c-2.4-7.2-7.2-14.2-13.5-21.5
					c-16.3-18.9-51.2-27.3-74.2-9.4s-27.3,57.8-5.2,88.3c0,0,2.9,2.7,8,6.1C233.5,127.3,233.6,127.1,233.7,127z"/>
				<path class="st4" d="M303,49.2c-5-3.5-13.6-4.9-20.8,6.6c-8.3,13.2-12.9,1.3-25.9,11.4c-13,10.1-2.6,17.6-17.4,22.3
					c-12.9,4.1-13,15-11.3,21.3c1.5,5.5,3.8,11.5,6.2,16.1c0.1,0.1-0.1,0.3-0.2,0.5c12.8,8.5,39.1,21.2,65.8,4.5
					c11.5-7.2,20.8-17.2,23.5-33.2c-1.3-13.2-0.2-24.4-4.4-32.1C314.6,59.8,309.3,53.8,303,49.2z"/>
			</g>
			<path class="st4" d="M254,48.2c2,1.8,4.2-0.5,6.8-3.2s3-6.5,1.1-8.3s-5.6-1-8.2,1.8C251.2,41.3,252.1,46.5,254,48.2z"/>
			<path class="st4" d="M239.2,60.4c1.2,2.3-1.5,4.1-4.8,5.8s-7.1,1.3-8.3-0.9s0.4-5.7,3.8-7.5C233.2,56,237.9,58,239.2,60.4z"/>
			<path class="st5" d="M257,83.8c-3.2-4.2-0.4-7.5,3.8-10.7s8-5.2,11.3-1s0.8,10.6-2.1,12.8C267.1,87.2,260.2,88,257,83.8z"/>
			<path class="st6" d="M266.3,80.2c3.1,4,6.3,8,3.5,14c-2.3,5-8.1,9-12,7.2"/>
			<path class="st6" d="M266.3,80.2c3.1,4,6.2,8,12.8,6.8c5.4-1,10.7-5.7,9.9-9.9"/>
			<path class="st7" d="M263.4,58c-2.9-5.1-1.9-13.5,8.9-13.4C276.8,52.8,270.4,58.7,263.4,58z"/>
			<circle class="st4" cx="265.3" cy="50.6" r="1.3"/>
			<path class="st7" d="M245.4,72c-4.2-4-12.6-5.1-15.2,5.3C237.1,83.7,244.4,78.9,245.4,72z"/>
			<circle class="st4" cx="237.7" cy="72.1" r="1.3"/>
		</g>
	</g>
</g>
</svg>
