<svg xmlns="http://www.w3.org/2000/svg" viewBox="0 0 268.72 109.16"><defs><style>.cls-1{isolation:isolate;}.cls-2{fill:#79ad84;}.cls-3{fill:#3993bc;}</style></defs><title>shiba-activity</title><g id="Layer_2" data-name="Layer 2"><g id="Layer_1-2" data-name="Layer 1"><g class="cls-1"><path d="M47.48,8.09c0,.08.07.16.1.25s.07.18.1.27a1.38,1.38,0,0,1,.08.27,1,1,0,0,1,0,.23,1,1,0,0,1-.09.44.9.9,0,0,1-.25.33,1.07,1.07,0,0,1-.36.21,1.62,1.62,0,0,1-.44.07,1.22,1.22,0,0,1-.46-.08.88.88,0,0,1-.34-.24,1.71,1.71,0,0,1-.28-.42,5.35,5.35,0,0,1-.27-.65L45,7.9H41.1l-.28.87a4.39,4.39,0,0,1-.25.66,1.53,1.53,0,0,1-.28.42.92.92,0,0,1-.35.24,1.51,1.51,0,0,1-.91,0,1.07,1.07,0,0,1-.36-.21.9.9,0,0,1-.25-.33,1,1,0,0,1-.09-.44,1,1,0,0,1,0-.23,1.38,1.38,0,0,1,.08-.27c0-.09.06-.18.1-.27s.07-.17.1-.25l1.84-5c.17-.47.34-.88.5-1.24a4.44,4.44,0,0,1,.51-.9,1.94,1.94,0,0,1,.66-.56A1.86,1.86,0,0,1,43,.23a2.1,2.1,0,0,1,.84.15,1.55,1.55,0,0,1,.63.49,3.8,3.8,0,0,1,.54.89c.16.37.35.82.56,1.36ZM43,2.1l-1.5,4.39h3L43.06,2.1Z"/><path d="M48.29,5.28a6.48,6.48,0,0,1,.37-2.23,4.74,4.74,0,0,1,1-1.66,4.47,4.47,0,0,1,1.56-1,5.38,5.38,0,0,1,2-.36,9.26,9.26,0,0,1,1.49.11,4,4,0,0,1,1,.29,1.74,1.74,0,0,1,.63.43.89.89,0,0,1,.2.55.78.78,0,0,1-.08.35.72.72,0,0,1-.22.24.87.87,0,0,1-.29.14,1.24,1.24,0,0,1-.33,0h-.19a.58.58,0,0,1-.19,0L54.8,2l-.47-.12-.46-.08a3.59,3.59,0,0,0-.47,0,2.86,2.86,0,0,0-1,.16,1.81,1.81,0,0,0-.79.54,2.84,2.84,0,0,0-.53,1.06,6.18,6.18,0,0,0-.19,1.7,5.66,5.66,0,0,0,.16,1.42,3.18,3.18,0,0,0,.46,1.07,2.12,2.12,0,0,0,.78.68,2.37,2.37,0,0,0,1.09.24,2.46,2.46,0,0,0,.53-.06,4.17,4.17,0,0,0,.56-.14c.19,0,.39-.12.58-.19l.6-.22a.62.62,0,0,1,.21,0,.68.68,0,0,1,.32.07.81.81,0,0,1,.24.17.76.76,0,0,1,.16.26,1,1,0,0,1,0,.31.81.81,0,0,1-.17.49,1.9,1.9,0,0,1-.47.4,4.06,4.06,0,0,1-.66.31,6.08,6.08,0,0,1-.76.22,7.64,7.64,0,0,1-.79.13,6.72,6.72,0,0,1-.73.05,5.08,5.08,0,0,1-1.89-.34,4.44,4.44,0,0,1-1.52-1,4.85,4.85,0,0,1-1-1.61A6.11,6.11,0,0,1,48.29,5.28Z"/><path d="M58.81,2A1,1,0,0,1,58.44,2a.89.89,0,0,1-.31-.19,1.06,1.06,0,0,1-.22-.29.81.81,0,0,1-.07-.35.84.84,0,0,1,.07-.35,1.06,1.06,0,0,1,.22-.29A1.08,1.08,0,0,1,58.44.3a.94.94,0,0,1,.37-.07h6.24a1,1,0,0,1,.38.07,1.08,1.08,0,0,1,.31.19A.86.86,0,0,1,66,.78a.72.72,0,0,1,.08.35.69.69,0,0,1-.08.35.86.86,0,0,1-.21.29.89.89,0,0,1-.31.19,1,1,0,0,1-.38.08H63.22V8.83a1.3,1.3,0,0,1-.1.52,1.17,1.17,0,0,1-.27.42,1.41,1.41,0,0,1-.4.29,1.39,1.39,0,0,1-.5.1,1.3,1.3,0,0,1-.49-.1,1.18,1.18,0,0,1-.4-.29,1.17,1.17,0,0,1-.27-.42,1.3,1.3,0,0,1-.1-.52V2Z"/><path d="M69.8,8.83a1.3,1.3,0,0,1-.1.52,1.51,1.51,0,0,1-.27.42,1.33,1.33,0,0,1-.41.29,1.3,1.3,0,0,1-.49.1,1.35,1.35,0,0,1-.5-.1,1.41,1.41,0,0,1-.4-.29,1.36,1.36,0,0,1-.37-.94V1.56a1.46,1.46,0,0,1,.1-.52,1.43,1.43,0,0,1,.27-.43A1.38,1.38,0,0,1,68,.33a1.18,1.18,0,0,1,.5-.1,1.13,1.13,0,0,1,.49.1,1.3,1.3,0,0,1,.41.28A1.43,1.43,0,0,1,69.7,1a1.27,1.27,0,0,1,.1.52Z"/><path d="M75.77,8.31h0l2.07-7a1.76,1.76,0,0,1,.22-.5,1.75,1.75,0,0,1,.32-.34A1.53,1.53,0,0,1,78.79.3a1.07,1.07,0,0,1,.39-.07,1.22,1.22,0,0,1,.38.07,1,1,0,0,1,.32.21,1,1,0,0,1,.22.34,1.21,1.21,0,0,1,.08.48,2,2,0,0,1-.11.65L78.3,7.47c-.15.46-.3.86-.44,1.19a3.31,3.31,0,0,1-.48.84,1.61,1.61,0,0,1-.66.5,2.58,2.58,0,0,1-1,.16A2.77,2.77,0,0,1,74.9,10a1.51,1.51,0,0,1-.63-.4,2.92,2.92,0,0,1-.49-.77q-.21-.48-.45-1.2L71.42,1.89a2.5,2.5,0,0,1-.07-.26,1.93,1.93,0,0,1,0-.24,1.19,1.19,0,0,1,.09-.47,1,1,0,0,1,.25-.37A1.21,1.21,0,0,1,72,.31a1.25,1.25,0,0,1,.42-.08,1,1,0,0,1,.37.07,1.07,1.07,0,0,1,.36.2,1.49,1.49,0,0,1,.3.35,2.09,2.09,0,0,1,.23.52Z"/><path d="M84.43,8.83a1.36,1.36,0,0,1-.37.94,1.46,1.46,0,0,1-.41.29,1.28,1.28,0,0,1-1,0,1.28,1.28,0,0,1-.4-.29A1.51,1.51,0,0,1,82,9.35a1.3,1.3,0,0,1-.1-.52V1.56A1.27,1.27,0,0,1,82,1a1.43,1.43,0,0,1,.27-.43,1.26,1.26,0,0,1,.4-.28,1.18,1.18,0,0,1,.5-.1,1.16,1.16,0,0,1,.49.1,1.42,1.42,0,0,1,.41.28,1.43,1.43,0,0,1,.27.43,1.46,1.46,0,0,1,.1.52Z"/><path d="M86.42,2A1,1,0,0,1,86,2a.89.89,0,0,1-.31-.19.86.86,0,0,1-.21-.29.82.82,0,0,1-.08-.35.85.85,0,0,1,.08-.35.86.86,0,0,1,.21-.29A1.08,1.08,0,0,1,86,.3a1,1,0,0,1,.38-.07h6.24A.9.9,0,0,1,93,.3a1.13,1.13,0,0,1,.32.19,1.27,1.27,0,0,1,.21.29.85.85,0,0,1,.08.35.82.82,0,0,1-.08.35,1.27,1.27,0,0,1-.21.29A.94.94,0,0,1,93,2a.91.91,0,0,1-.37.08H90.83V8.83a1.5,1.5,0,0,1-.1.52,1.34,1.34,0,0,1-.28.42,1.28,1.28,0,0,1-.4.29,1.28,1.28,0,0,1-1,0,1.28,1.28,0,0,1-.4-.29,1.51,1.51,0,0,1-.27-.42,1.3,1.3,0,0,1-.1-.52V2Z"/><path d="M99.82,8.83a1.78,1.78,0,0,1-.11.52,1.34,1.34,0,0,1-.28.42,1.41,1.41,0,0,1-.4.29,1.3,1.3,0,0,1-1,0,1.41,1.41,0,0,1-.4-.29,1.51,1.51,0,0,1-.27-.42,1.5,1.5,0,0,1-.09-.52V6.36L94.76,2.17a1.56,1.56,0,0,1-.19-.42,1.74,1.74,0,0,1,0-.39A1.14,1.14,0,0,1,94.61.9a1,1,0,0,1,.25-.36,1,1,0,0,1,.35-.23,1,1,0,0,1,.42-.08,1.21,1.21,0,0,1,.66.2,1.54,1.54,0,0,1,.55.68l1.8,3.57h0l1.87-3.6a1.57,1.57,0,0,1,.55-.65,1.2,1.2,0,0,1,.63-.2.94.94,0,0,1,.37.07,1,1,0,0,1,.3.19.81.81,0,0,1,.21.3,1,1,0,0,1,.07.39,1.57,1.57,0,0,1,0,.37,1.51,1.51,0,0,1-.19.41L99.82,6.32Z"/><path d="M118.61,2.62,117.52,5.3c-.14.33-.27.66-.4,1s-.24.61-.34.86-.19.45-.25.61l-.09.22q-.15.34-.3.66a2.52,2.52,0,0,1-.37.55,1.64,1.64,0,0,1-.46.38,1.25,1.25,0,0,1-.59.14,1.13,1.13,0,0,1-.54-.11,1.18,1.18,0,0,1-.43-.32,2.67,2.67,0,0,1-.37-.54c-.11-.21-.22-.47-.34-.75l-2.15-5.33V9.17a1.09,1.09,0,0,1-.08.39,1,1,0,0,1-.21.32,1.55,1.55,0,0,1-.33.21,1,1,0,0,1-.39.08,1,1,0,0,1-.38-.08,1.27,1.27,0,0,1-.32-.21,1,1,0,0,1-.21-.32.91.91,0,0,1-.08-.39V2.86A9.06,9.06,0,0,1,109,1.77a2.25,2.25,0,0,1,.25-.83,1.39,1.39,0,0,1,.52-.53,2,2,0,0,1,.9-.18,1.67,1.67,0,0,1,.69.13,1.6,1.6,0,0,1,.55.44,4.32,4.32,0,0,1,.5.79c.16.33.34.72.53,1.18l1.83,4.41h0l1.85-4.41c.16-.39.32-.75.48-1.06a4.24,4.24,0,0,1,.5-.8,2.11,2.11,0,0,1,.58-.51,1.53,1.53,0,0,1,.72-.17,2,2,0,0,1,.76.13,1.15,1.15,0,0,1,.54.41,2,2,0,0,1,.31.74,5,5,0,0,1,.1,1.1V9.17a1.09,1.09,0,0,1-.08.39,1,1,0,0,1-.21.32,1.48,1.48,0,0,1-.32.21,1.09,1.09,0,0,1-.39.08,1,1,0,0,1-.39-.08,1.27,1.27,0,0,1-.32-.21,1,1,0,0,1-.21-.32.91.91,0,0,1-.08-.39Z"/><path d="M125.39,8.83a1.3,1.3,0,0,1-.1.52,1.51,1.51,0,0,1-.27.42,1.22,1.22,0,0,1-.9.39,1.35,1.35,0,0,1-.5-.1,1.41,1.41,0,0,1-.4-.29,1.36,1.36,0,0,1-.37-.94V1.56A1.46,1.46,0,0,1,123,1a1.43,1.43,0,0,1,.27-.43,1.38,1.38,0,0,1,.4-.28,1.18,1.18,0,0,1,.5-.1,1.16,1.16,0,0,1,.49.1,1.3,1.3,0,0,1,.41.28,1.43,1.43,0,0,1,.27.43,1.27,1.27,0,0,1,.1.52Z"/><path d="M129.61,9.08a1,1,0,0,1-.09.43,1.09,1.09,0,0,1-.23.33,1,1,0,0,1-.34.23,1,1,0,0,1-.84,0,.89.89,0,0,1-.34-.23,1.09,1.09,0,0,1-.23-.33,1.18,1.18,0,0,1-.08-.43V1.62a1.55,1.55,0,0,1,.1-.59,1.09,1.09,0,0,1,.27-.44,1.05,1.05,0,0,1,.39-.27,1.28,1.28,0,0,1,.48-.09,1.06,1.06,0,0,1,.43.08,1.8,1.8,0,0,1,.4.23,2.92,2.92,0,0,1,.37.34c.12.13.23.27.34.41l4,5.47V1.3a1,1,0,0,1,.08-.42,1.11,1.11,0,0,1,.22-.34,1.13,1.13,0,0,1,.34-.23,1.14,1.14,0,0,1,.84,0,1.13,1.13,0,0,1,.34.23,1.13,1.13,0,0,1,.23.34,1,1,0,0,1,.09.42v7a5.55,5.55,0,0,1,0,.72,1.56,1.56,0,0,1-.17.6,1,1,0,0,1-.37.42,1.09,1.09,0,0,1-.63.16,1.25,1.25,0,0,1-.42-.08,1.68,1.68,0,0,1-.38-.23,2.92,2.92,0,0,1-.37-.34,4.87,4.87,0,0,1-.35-.42l-4.07-5.54Z"/><path d="M144.41,1.56a1.27,1.27,0,0,1,.1-.52,1.12,1.12,0,0,1,.27-.43,1.15,1.15,0,0,1,.4-.28,1.13,1.13,0,0,1,.49-.1,1.21,1.21,0,0,1,.5.1,1.38,1.38,0,0,1,.4.28,1.12,1.12,0,0,1,.27.43,1.27,1.27,0,0,1,.1.52V6.79a3.54,3.54,0,0,1-.32,1.58,3.15,3.15,0,0,1-.88,1.13,3.93,3.93,0,0,1-1.36.67,6.27,6.27,0,0,1-1.72.23,6.56,6.56,0,0,1-1.71-.22,4.07,4.07,0,0,1-1.35-.67,3.06,3.06,0,0,1-.89-1.12,3.6,3.6,0,0,1-.33-1.6V1.56a1.46,1.46,0,0,1,.1-.52,1.43,1.43,0,0,1,.27-.43,1.38,1.38,0,0,1,.4-.28,1.21,1.21,0,0,1,.5-.1,1.13,1.13,0,0,1,.49.1,1.3,1.3,0,0,1,.41.28,1.43,1.43,0,0,1,.27.43,1.27,1.27,0,0,1,.1.52V6.75a2.19,2.19,0,0,0,.15.85,1.64,1.64,0,0,0,.39.58,1.74,1.74,0,0,0,.55.34,1.92,1.92,0,0,0,1.28,0,1.74,1.74,0,0,0,.55-.34,1.54,1.54,0,0,0,.4-.58,2.18,2.18,0,0,0,.16-.85Z"/><path d="M148.58,2a1,1,0,0,1-.37-.08.81.81,0,0,1-.31-.19,1.06,1.06,0,0,1-.22-.29.81.81,0,0,1-.07-.35.84.84,0,0,1,.07-.35,1.06,1.06,0,0,1,.22-.29,1,1,0,0,1,.31-.19.94.94,0,0,1,.37-.07h6.24a1,1,0,0,1,.38.07,1.08,1.08,0,0,1,.31.19.86.86,0,0,1,.21.29.72.72,0,0,1,.08.35.69.69,0,0,1-.08.35.86.86,0,0,1-.21.29.89.89,0,0,1-.31.19,1,1,0,0,1-.38.08H153V8.83a1.3,1.3,0,0,1-.1.52,1.17,1.17,0,0,1-.27.42,1.41,1.41,0,0,1-.4.29,1.39,1.39,0,0,1-.5.1,1.3,1.3,0,0,1-.49-.1,1.18,1.18,0,0,1-.4-.29,1.17,1.17,0,0,1-.27-.42,1.3,1.3,0,0,1-.1-.52V2Z"/><path d="M158.23,10.16a1.1,1.1,0,0,1-.59-.15,1.22,1.22,0,0,1-.38-.37,1.65,1.65,0,0,1-.2-.51,2.93,2.93,0,0,1-.06-.58V2a4.07,4.07,0,0,1,.05-.72,1.21,1.21,0,0,1,.21-.57,1.09,1.09,0,0,1,.48-.38,2.16,2.16,0,0,1,.84-.14H163a1.22,1.22,0,0,1,.38.07,1.21,1.21,0,0,1,.3.2.8.8,0,0,1,.2.28.82.82,0,0,1,.08.35.77.77,0,0,1-.08.34.8.8,0,0,1-.2.28,1,1,0,0,1-.3.19A1,1,0,0,1,163,2h-3.52V4.22h3.22a1.16,1.16,0,0,1,.37.07,1,1,0,0,1,.3.19,1,1,0,0,1,.21.29.8.8,0,0,1,.07.34.81.81,0,0,1-.07.35.83.83,0,0,1-.21.28,1,1,0,0,1-.3.19,1.16,1.16,0,0,1-.37.07h-3.22V8.39h3.69a.81.81,0,0,1,.35.07.9.9,0,0,1,.47.47.81.81,0,0,1,.07.35.8.8,0,0,1-.07.34.77.77,0,0,1-.19.28.92.92,0,0,1-.28.19.81.81,0,0,1-.35.07Z"/><path d="M167.79,2.82a.76.76,0,0,0,.22.56,2,2,0,0,0,.57.39,5,5,0,0,0,.8.28l.89.26a12.56,12.56,0,0,1,1.32.46,4.26,4.26,0,0,1,1,.59,2.4,2.4,0,0,1,.65.81,2.57,2.57,0,0,1,.23,1.12,3.06,3.06,0,0,1-.28,1.3,2.82,2.82,0,0,1-.82,1,3.87,3.87,0,0,1-1.29.62,5.94,5.94,0,0,1-1.7.22,8.18,8.18,0,0,1-1-.06,7.55,7.55,0,0,1-.95-.17,7.2,7.2,0,0,1-.86-.26,4.15,4.15,0,0,1-.7-.36,1.8,1.8,0,0,1-.47-.43.82.82,0,0,1-.17-.51.78.78,0,0,1,.07-.33,1.49,1.49,0,0,1,.18-.3.86.86,0,0,1,.26-.21.48.48,0,0,1,.27-.09,1,1,0,0,1,.24,0l.24.1.24.13.27.12a9.9,9.9,0,0,0,1.06.39,4.57,4.57,0,0,0,1.23.17,2.73,2.73,0,0,0,.66-.07,1.79,1.79,0,0,0,.55-.2A.94.94,0,0,0,170.9,8a.93.93,0,0,0,.14-.51A1.07,1.07,0,0,0,171,7.1a1,1,0,0,0-.23-.31,1.3,1.3,0,0,0-.33-.23,3,3,0,0,0-.41-.18l-.3-.1-.18-.06-.17-.06-.36-.1-.2,0-.14,0-.13,0-.14,0-.65-.23a6.68,6.68,0,0,1-1.06-.47,2.85,2.85,0,0,1-.73-.55,2.15,2.15,0,0,1-.41-.7,2.88,2.88,0,0,1-.13-.92,2.65,2.65,0,0,1,.28-1.23,2.73,2.73,0,0,1,.81-.95,4,4,0,0,1,1.29-.6,6.33,6.33,0,0,1,1.7-.21,6.7,6.7,0,0,1,.74,0,7.62,7.62,0,0,1,.81.14,4.6,4.6,0,0,1,.77.23,3.38,3.38,0,0,1,.66.32,1.79,1.79,0,0,1,.47.43.94.94,0,0,1,.17.54A.67.67,0,0,1,173,2a.74.74,0,0,1-.17.25,1,1,0,0,1-.26.16.73.73,0,0,1-.3.05.81.81,0,0,1-.38-.08,6.1,6.1,0,0,0-.59-.28,4.61,4.61,0,0,0-.55-.2,5.22,5.22,0,0,0-.57-.11,6.25,6.25,0,0,0-.64,0,3.39,3.39,0,0,0-.64.06,2.24,2.24,0,0,0-.57.18,1.2,1.2,0,0,0-.4.33A.71.71,0,0,0,167.79,2.82Z"/><path d="M182,8.83a1.3,1.3,0,0,1-.1.52,1.34,1.34,0,0,1-.28.42,1.28,1.28,0,0,1-.4.29,1.28,1.28,0,0,1-1,0,1.18,1.18,0,0,1-.4-.29,1.17,1.17,0,0,1-.27-.42,1.3,1.3,0,0,1-.1-.52V2.11a5.74,5.74,0,0,1,0-.74,1.44,1.44,0,0,1,.22-.6,1.1,1.1,0,0,1,.49-.4,2.16,2.16,0,0,1,.88-.14h2.47a8.24,8.24,0,0,1,1.51.13,3.68,3.68,0,0,1,1.29.48,2.59,2.59,0,0,1,.89.94,3,3,0,0,1,.34,1.51,3,3,0,0,1-.29,1.36,2.54,2.54,0,0,1-.82,1,3.49,3.49,0,0,1-1.28.57,6.42,6.42,0,0,1-1.64.19H182Zm1.15-4a3.94,3.94,0,0,0,.8-.08,1.65,1.65,0,0,0,.62-.25,1.2,1.2,0,0,0,.4-.46,1.83,1.83,0,0,0,.14-.77,1.64,1.64,0,0,0-.14-.76,1.24,1.24,0,0,0-.37-.45,1.74,1.74,0,0,0-.59-.24,3.36,3.36,0,0,0-.74-.08H182V4.85Z"/><path d="M190.24,10.16a1.1,1.1,0,0,1-1-.52,1.45,1.45,0,0,1-.21-.51,2.93,2.93,0,0,1-.06-.58V2a5.31,5.31,0,0,1,.05-.72,1.21,1.21,0,0,1,.21-.57,1.09,1.09,0,0,1,.48-.38,2.18,2.18,0,0,1,.85-.14H195a1.16,1.16,0,0,1,.37.07,1,1,0,0,1,.3.2.83.83,0,0,1,.21.28.81.81,0,0,1,.07.35.77.77,0,0,1-.07.34.83.83,0,0,1-.21.28.85.85,0,0,1-.3.19A.94.94,0,0,1,195,2h-3.53V4.22h3.22a1.16,1.16,0,0,1,.37.07.91.91,0,0,1,.3.19,1,1,0,0,1,.21.29.8.8,0,0,1,.07.34.81.81,0,0,1-.07.35.83.83,0,0,1-.21.28.91.91,0,0,1-.3.19,1.16,1.16,0,0,1-.37.07h-3.22V8.39h3.7a.8.8,0,0,1,.34.07.91.91,0,0,1,.29.19.92.92,0,0,1,.19.28,1,1,0,0,1,.06.35,1,1,0,0,1-.06.34.92.92,0,0,1-.19.28,1.12,1.12,0,0,1-.29.19.8.8,0,0,1-.34.07Z"/><path d="M200.25,8.83a1.3,1.3,0,0,1-.1.52,1.51,1.51,0,0,1-.27.42,1.33,1.33,0,0,1-.41.29,1.3,1.3,0,0,1-.49.1,1.35,1.35,0,0,1-.5-.1,1.41,1.41,0,0,1-.4-.29,1.36,1.36,0,0,1-.37-.94V1.48a1.09,1.09,0,0,1,.13-.55,1.16,1.16,0,0,1,.34-.39,1.72,1.72,0,0,1,.49-.24,2.35,2.35,0,0,1,.6-.07H202a11.45,11.45,0,0,1,1.46.09A3.85,3.85,0,0,1,204.7.7a2.12,2.12,0,0,1,.84.76,2.18,2.18,0,0,1,.32,1.26,3,3,0,0,1-.11.8,2,2,0,0,1-.38.69,2.31,2.31,0,0,1-.68.52,3.39,3.39,0,0,1-1,.31v0a4.25,4.25,0,0,1,.75.16,1.9,1.9,0,0,1,.53.28,1.57,1.57,0,0,1,.35.42,2.34,2.34,0,0,1,.23.58,5.07,5.07,0,0,1,.14.77c0,.28.07.6.11,1,0,.1,0,.2,0,.3v.27a2.92,2.92,0,0,1,0,.54,1.13,1.13,0,0,1-.19.43.9.9,0,0,1-.38.27,1.53,1.53,0,0,1-.61.1A1,1,0,0,1,204,10a1.13,1.13,0,0,1-.37-.43,2.23,2.23,0,0,1-.23-.63,5.61,5.61,0,0,1-.13-.77c-.05-.39-.09-.73-.14-1a1.77,1.77,0,0,0-.23-.65.84.84,0,0,0-.45-.35,2.41,2.41,0,0,0-.79-.1h-1.39Zm1.05-4.35a6.12,6.12,0,0,0,.74,0,2.27,2.27,0,0,0,.67-.18,1.27,1.27,0,0,0,.48-.41,1.32,1.32,0,0,0,.18-.73,1.5,1.5,0,0,0-.17-.78,1.06,1.06,0,0,0-.48-.38,1.94,1.94,0,0,0-.68-.17c-.25,0-.52,0-.8,0h-1V4.48Z"/><path d="M213.33,10.16a1.19,1.19,0,0,1-.62-.15,1,1,0,0,1-.38-.4,1.62,1.62,0,0,1-.2-.56,3.28,3.28,0,0,1,0-.63V2a3.05,3.05,0,0,1,.08-.79,1.17,1.17,0,0,1,.3-.55A1.22,1.22,0,0,1,213,.33a3.22,3.22,0,0,1,.82-.1h1.7a6.21,6.21,0,0,1,4.21,1.24,4.74,4.74,0,0,1,1.43,3.79,5.58,5.58,0,0,1-.39,2.18A4,4,0,0,1,219.65,9a4.42,4.42,0,0,1-1.72.9,7.74,7.74,0,0,1-2.22.3Zm1.25-1.53h.93a4.39,4.39,0,0,0,1.34-.18,1.92,1.92,0,0,0,.93-.61,2.84,2.84,0,0,0,.54-1.07,5.93,5.93,0,0,0,.17-1.57,4,4,0,0,0-.71-2.58,2.75,2.75,0,0,0-2.2-.84h-1Z"/><path d="M230.66,8.09l.1.25.1.27a2.76,2.76,0,0,1,.08.27,1,1,0,0,1,0,.23,1,1,0,0,1-.09.44,1,1,0,0,1-.25.33,1.23,1.23,0,0,1-.37.21,1.56,1.56,0,0,1-.44.07,1.26,1.26,0,0,1-.46-.08,1,1,0,0,1-.34-.24,2,2,0,0,1-.28-.42c-.08-.18-.17-.39-.27-.65l-.32-.87h-3.87l-.28.87a5.83,5.83,0,0,1-.25.66,1.8,1.8,0,0,1-.28.42,1,1,0,0,1-.35.24,1.66,1.66,0,0,1-.47.07,1.62,1.62,0,0,1-.44-.07,1.23,1.23,0,0,1-.37-.21,1.2,1.2,0,0,1-.25-.33,1,1,0,0,1-.09-.44,1,1,0,0,1,0-.23,2.76,2.76,0,0,1,.08-.27l.1-.27c0-.09.07-.17.11-.25l1.84-5c.17-.47.33-.88.49-1.24a4.45,4.45,0,0,1,.52-.9,2,2,0,0,1,.65-.56,1.93,1.93,0,0,1,.9-.19,2.1,2.1,0,0,1,.84.15,1.69,1.69,0,0,1,.63.49,3.8,3.8,0,0,1,.53.89c.17.37.36.82.56,1.36Zm-4.46-6-1.51,4.39h3l-1.5-4.39Z"/><path d="M236.1,8.83a1.51,1.51,0,0,1-.11.52,1.34,1.34,0,0,1-.28.42,1.41,1.41,0,0,1-.4.29,1.39,1.39,0,0,1-.5.1,1.3,1.3,0,0,1-.49-.1,1.18,1.18,0,0,1-.4-.29,1.17,1.17,0,0,1-.27-.42,1.3,1.3,0,0,1-.1-.52V6.36L231,2.17a1.56,1.56,0,0,1-.19-.42,1.74,1.74,0,0,1,0-.39,1.14,1.14,0,0,1,.09-.46,1,1,0,0,1,.25-.36,1,1,0,0,1,.35-.23,1,1,0,0,1,.42-.08,1.21,1.21,0,0,1,.66.2,1.54,1.54,0,0,1,.55.68l1.8,3.57h0l1.87-3.6a1.65,1.65,0,0,1,.55-.65,1.2,1.2,0,0,1,.63-.2.94.94,0,0,1,.37.07.91.91,0,0,1,.3.19.81.81,0,0,1,.21.3,1,1,0,0,1,.07.39,1.18,1.18,0,0,1,0,.37,1.51,1.51,0,0,1-.19.41L236.1,6.32Z"/></g><g class="cls-1"><path d="M6.32,109.16l-.62-2H2.58l-.62,2H0l3-8.6H5.24l3,8.6ZM5.27,105.6c-.58-1.85-.9-2.89-1-3.13s-.13-.44-.16-.58c-.13.5-.5,1.74-1.1,3.71Z"/><path d="M13,109.16l-2.06-6.72h-.05c.07,1.37.11,2.28.11,2.74v4H9.36V100.6h2.47l2,6.55h0L16,100.6h2.48v8.56h-1.7v-4c0-.19,0-.41,0-.66s0-.92.08-2h-.05l-2.21,6.7Z"/></g><g class="cls-1"><path d="M134.93,103.27a2.58,2.58,0,0,1-.86,2.11,3.71,3.71,0,0,1-2.46.74h-.78v3H129V100.6h2.73a3.62,3.62,0,0,1,2.37.67A2.45,2.45,0,0,1,134.93,103.27Zm-4.1,1.36h.6a2,2,0,0,0,1.25-.33,1.15,1.15,0,0,0,.42-1,1.19,1.19,0,0,0-.35-.94,1.65,1.65,0,0,0-1.09-.3h-.83Z"/><path d="M140.18,109.16l-2.07-6.72h-.05c.08,1.37.11,2.28.11,2.74v4h-1.62V100.6H139l2,6.55h0l2.15-6.55h2.47v8.56H144v-4.71c0-.25,0-.92.08-2h0l-2.21,6.7Z"/></g><rect class="cls-2" x="8.81" y="75.03" width="3.31" height="20.58" rx="1.65" ry="1.65"/><rect class="cls-2" x="19.6" y="84.7" width="3.12" height="10.29" rx="1.56" ry="1.56"/><rect class="cls-2" x="30.3" y="89.48" width="3.12" height="5.51" rx="1.56" ry="1.56"/><rect class="cls-2" x="41" y="89.48" width="3.12" height="5.51" rx="1.56" ry="1.56"/><rect class="cls-2" x="51.7" y="77.35" width="3.12" height="17.64" rx="1.56" ry="1.56"/><rect class="cls-2" x="62.41" y="80.11" width="3.12" height="14.89" rx="1.56" ry="1.56"/><rect class="cls-2" x="73.2" y="80.11" width="2.94" height="14.7" rx="1.47" ry="1.47"/><rect class="cls-2" x="83.9" y="40.51" width="2.94" height="54.29" rx="1.47" ry="1.47"/><rect class="cls-2" x="94.6" y="40.51" width="2.94" height="54.29" rx="1.47" ry="1.47"/><rect class="cls-2" x="105.35" y="58.65" width="2.85" height="36.27" rx="1.42" ry="1.42"/><rect class="cls-2" x="116.05" y="59.36" width="2.85" height="35.56" rx="1.41" ry="1.41"/><rect class="cls-2" x="126.75" y="67.19" width="2.85" height="27.74" rx="1.42" ry="1.42"/><rect class="cls-2" x="137.46" y="86.47" width="2.85" height="8.46" rx="1.42" ry="1.42"/><rect class="cls-2" x="148.16" y="89.95" width="2.85" height="4.98" rx="1.42" ry="1.42"/><rect class="cls-2" x="158.86" y="89.95" width="2.85" height="4.98" rx="1.42" ry="1.42"/><rect class="cls-2" x="169.56" y="67.97" width="2.85" height="26.96" rx="1.42" ry="1.42"/><rect class="cls-2" x="180.26" y="50.12" width="2.85" height="44.8" rx="1.42" ry="1.42"/><rect class="cls-2" x="190.61" y="73.71" width="2.85" height="21.21" rx="1.42" ry="1.42"/><rect class="cls-2" x="201.31" y="68.45" width="2.85" height="26.48" rx="1.42" ry="1.42"/><rect class="cls-2" x="212.37" y="89.24" width="2.85" height="5.69" rx="1.42" ry="1.42"/><rect class="cls-2" x="223.07" y="86.91" width="2.85" height="8.01" rx="1.42" ry="1.42"/><rect class="cls-2" x="233.77" y="78.06" width="2.85" height="16.86" rx="1.42" ry="1.42"/><rect class="cls-2" x="244.47" y="84.35" width="2.85" height="10.58" rx="1.42" ry="1.42"/><rect class="cls-2" x="255.17" y="89.76" width="2.85" height="5.17" rx="1.42" ry="1.42"/><rect class="cls-2" x="265.87" y="89.76" width="2.85" height="5.17" rx="1.42" ry="1.42"/><path class="cls-3" d="M94.31,28.37a7.56,7.56,0,0,1,.56-3.15,3.66,3.66,0,0,1,1.63-1.77,5.72,5.72,0,0,1,2.67-.58,9.74,9.74,0,0,1,1.32.11v2a7.35,7.35,0,0,0-1.37-.12,2.74,2.74,0,0,0-1.88.56,2.45,2.45,0,0,0-.67,1.8h.08a1.92,1.92,0,0,1,1.83-1.08,2.35,2.35,0,0,1,1.92.8,3.27,3.27,0,0,1,.68,2.21,3.3,3.3,0,0,1-.86,2.42,3.66,3.66,0,0,1-5-.18A4.4,4.4,0,0,1,94.31,28.37Zm3.44,2.06a.81.81,0,0,0,.65-.3,1.47,1.47,0,0,0,.25-1c0-.76-.29-1.13-.87-1.13a.89.89,0,0,0-.7.29,1,1,0,0,0-.27.71,1.73,1.73,0,0,0,.26,1A.78.78,0,0,0,97.75,30.43Z"/><path class="cls-3" d="M108.64,27.66a6.25,6.25,0,0,1-.82,3.61,2.92,2.92,0,0,1-2.53,1.15,2.88,2.88,0,0,1-2.51-1.2,6.2,6.2,0,0,1-.84-3.56,6.32,6.32,0,0,1,.83-3.63,3.26,3.26,0,0,1,5,0A6.25,6.25,0,0,1,108.64,27.66Zm-4.2,0a8.13,8.13,0,0,0,.19,2.17c.13.39.35.59.66.59s.54-.21.67-.61a8.61,8.61,0,0,0,.19-2.15,8.08,8.08,0,0,0-.2-2.16c-.13-.41-.35-.62-.66-.62s-.53.2-.66.6A8.16,8.16,0,0,0,104.44,27.66Z"/><path class="cls-3" d="M122.16,32.29V28.38a2.3,2.3,0,0,0-.2-1.1.66.66,0,0,0-.63-.36.87.87,0,0,0-.83.49,3.26,3.26,0,0,0-.27,1.53v3.35h-2.49V28.38a2.44,2.44,0,0,0-.19-1.1.65.65,0,0,0-.62-.36.89.89,0,0,0-.85.52,4.12,4.12,0,0,0-.26,1.7v3.15h-2.48V25.1h1.87l.31.89h.14a1.86,1.86,0,0,1,.83-.76,2.89,2.89,0,0,1,1.24-.26,2.41,2.41,0,0,1,2.18,1h.2a2,2,0,0,1,.85-.7,2.76,2.76,0,0,1,1.19-.25,2.5,2.5,0,0,1,1.89.65,2.87,2.87,0,0,1,.61,2v4.68Z"/><path class="cls-3" d="M126.28,23.31a1.06,1.06,0,0,1,.32-.84,2,2,0,0,1,2,0,1.06,1.06,0,0,1,.32.83c0,.72-.45,1.09-1.33,1.09S126.28,24,126.28,23.31Zm2.55,9h-2.48V25.1h2.48Z"/><path class="cls-3" d="M135.1,32.29V28.37a2.4,2.4,0,0,0-.2-1.09.71.71,0,0,0-.67-.36,1,1,0,0,0-.91.5,3.88,3.88,0,0,0-.28,1.72v3.15h-2.48V25.1h1.88l.31.89h.14a2,2,0,0,1,.88-.77,3.13,3.13,0,0,1,1.29-.25,2.45,2.45,0,0,1,1.86.69,2.71,2.71,0,0,1,.66,1.95v4.68Z"/><path class="cls-3" d="M144.39,32.29l-.31-.9h-.14a2,2,0,0,1-.87.76,2.93,2.93,0,0,1-1.3.27,2.44,2.44,0,0,1-1.85-.69,2.71,2.71,0,0,1-.66-1.95V25.1h2.48V29a2.26,2.26,0,0,0,.2,1.06.69.69,0,0,0,.66.36,1,1,0,0,0,.91-.5,3.9,3.9,0,0,0,.27-1.7V25.1h2.49v7.19Z"/><path class="cls-3" d="M151.5,30.45a3.74,3.74,0,0,0,1.2-.24V32a4.37,4.37,0,0,1-.95.31,5.56,5.56,0,0,1-1.07.1,2.32,2.32,0,0,1-1.8-.62,2.72,2.72,0,0,1-.55-1.88V27h-.87V26l1.1-.78.65-1.51h1.62V25.1h1.77V27h-1.77v2.79C150.83,30.22,151.06,30.45,151.5,30.45Z"/><path class="cls-3" d="M157.43,32.42a3.84,3.84,0,0,1-2.79-1,3.6,3.6,0,0,1-1-2.72,4,4,0,0,1,.92-2.8,3.43,3.43,0,0,1,2.63-1,3.47,3.47,0,0,1,2.51.85,3.21,3.21,0,0,1,.88,2.44v1.1h-4.43a1.21,1.21,0,0,0,.44.95,1.69,1.69,0,0,0,1.13.34,5.54,5.54,0,0,0,1.2-.12,6.17,6.17,0,0,0,1.19-.43v1.79a4.49,4.49,0,0,1-1.2.41A8,8,0,0,1,157.43,32.42Zm-.14-5.76a1.05,1.05,0,0,0-.74.27,1.34,1.34,0,0,0-.34.87h2.13A1.23,1.23,0,0,0,158,27,1,1,0,0,0,157.29,26.66Z"/><path class="cls-3" d="M167.55,30.08a2,2,0,0,1-.79,1.75,3.73,3.73,0,0,1-2.26.59,9.44,9.44,0,0,1-1.39-.09,5.63,5.63,0,0,1-1.2-.32V30a7.16,7.16,0,0,0,1.26.42,5.33,5.33,0,0,0,1.23.16c.54,0,.81-.12.81-.37a.43.43,0,0,0-.23-.34,10.08,10.08,0,0,0-1.31-.58,3.18,3.18,0,0,1-1.38-.92,2.1,2.1,0,0,1-.39-1.31,1.8,1.8,0,0,1,.77-1.56,3.73,3.73,0,0,1,2.19-.56,5.64,5.64,0,0,1,1.33.15,8.48,8.48,0,0,1,1.3.46l-.67,1.6a6.87,6.87,0,0,0-1-.38,3.62,3.62,0,0,0-.9-.15c-.4,0-.61.09-.61.29a.37.37,0,0,0,.22.32c.14.08.55.26,1.22.53a4.73,4.73,0,0,1,1.13.61,1.84,1.84,0,0,1,.55.7A2.57,2.57,0,0,1,167.55,30.08Z"/></g></g></svg>