<svg xmlns="http://www.w3.org/2000/svg" viewBox="0 0 138.64 170.84"><defs><style>.cls-1{fill:#e8b951;}.cls-2{fill:#f9e0c4;}.cls-3{fill:#e7b950;}.cls-4,.cls-8{fill:#fff;}.cls-5{fill:#342c2b;}.cls-6{fill:none;stroke:#342c2b;stroke-linecap:round;stroke-linejoin:round;stroke-width:2.8px;}.cls-7{fill:#0f1110;}.cls-8{isolation:isolate;font-size:25.75px;font-family:Nunito-Bold, Nunito;font-weight:700;}.cls-9{letter-spacing:-0.02em;}</style></defs><title>shibaIcon</title><g id="Layer_2" data-name="Layer 2"><g id="Icon"><path class="cls-1" d="M112.54,6.82c6.18,19.34,5,34,5,34L81.59,17.22S96,5,104.9.73C109.63-1.56,110.9,1.81,112.54,6.82Z"/><path class="cls-2" d="M107.85,11.74C110.34,21.94,110.1,34,110.1,34L89,19s9.32-8.33,14.47-10.76C106.21,7,107.15,8.79,107.85,11.74Z"/><path class="cls-1" d="M26,6.82c-6.18,19.34-5,34-5,34L57,17.22S42.54,5,33.64.73C28.87-1.56,27.6,1.81,26,6.82Z"/><path class="cls-2" d="M30.65,11.74C28.16,21.94,28.4,34,28.4,34L49.47,19S40.15,10.66,35,8.23C32.28,7,31.35,8.79,30.65,11.74Z"/><path class="cls-3" d="M130.84,74.57c-1.4-28.65-27.11-60.82-60.58-60.82S10.7,44.51,8.08,74.67c-1,11.37-.7,21.53,2.43,30,6,16.24,22.34,26.17,59.75,26.17,35.67,0,51.59-10.16,57.59-27.3C130.75,95.41,131.4,85.62,130.84,74.57Z"/><path class="cls-4" d="M78.68,44c.47,2.81,3.94,2.44,7.92,1.73s6.83-3.46,6.36-6.27-4.07-4.5-8-3.84S78.22,41.19,78.68,44Z"/><path class="cls-4" d="M60,44C59.49,46.76,56,46.39,52,45.68s-6.83-3.46-6.36-6.27,4.07-4.5,8-3.84S60.42,41.19,60,44Z"/><path class="cls-4" d="M124.33,79.3c-1.68-6.79-8.89-14-23.5-8.66C84,76.77,88.24,62.73,69.27,62.73s-14.7,14.09-31.55,7.91C23.11,65.3,15.52,74.2,13.6,81.45,11.54,89.23,15.94,95,12,107.81c7.07,14.1,23.65,22.57,58.2,22.57,32.87,0,49-8.61,56-23.41C122.32,94.1,126.3,87.17,124.33,79.3Z"/><path class="cls-5" d="M58.36,78.18c0-6,4.92-7,11-7s11,1,11,7-6.79,10.25-11,10.25C65,88.43,58.36,84.22,58.36,78.18Z"/><path class="cls-6" d="M69.32,81.45c0,5.86.05,11.62-6.74,15.17C57,99.53,49,99,46.66,94.66"/><path class="cls-6" d="M69.32,81.45c0,5.86,0,11.62,6.74,15.17,5.62,2.91,13.63,2.39,15.92-2"/><path class="cls-7" d="M82.43,59.31c.94-6.6,7.77-13.53,17.51-5.9C98.21,64.08,88.19,64.88,82.43,59.31Z"/><circle class="cls-4" cx="89.41" cy="53.97" r="1.5"/><path class="cls-7" d="M56.21,59.31c-.94-6.6-7.77-13.53-17.51-5.9C40.43,64.08,50.4,64.88,56.21,59.31Z"/><circle class="cls-4" cx="49.23" cy="53.97" r="1.5"/><text class="cls-8" transform="translate(0 161.74)">SHI<tspan class="cls-9" x="45.49" y="0">B</tspan><tspan x="63.45" y="0">A INU</tspan></text></g></g></svg>