<?xml version="1.0" encoding="utf-8"?>
<!-- Generator: Adobe Illustrator 22.0.1, SVG Export Plug-In . SVG Version: 6.00 Build 0)  -->
<svg version="1.1" id="Layer_1" xmlns="http://www.w3.org/2000/svg" xmlns:xlink="http://www.w3.org/1999/xlink" x="0px" y="0px"
	 viewBox="0 0 95.9 166.5" style="enable-background:new 0 0 95.9 166.5;" xml:space="preserve">
<style type="text/css">
	.st0{fill:#808080;}
	.st1{fill:#8F8F8F;}
	.st2{fill:#A1A1A1;}
	.st3{fill:#5C5C5C;}
</style>
<title>slicker-brush</title>
<g id="Layer_2_1_">
	<g id="FRISBEE">
		<ellipse class="st0" cx="48.1" cy="162.9" rx="7.6" ry="3.6"/>
		<polygon class="st1" points="56.8,68.5 39.3,68.5 42.1,55.5 54.1,55.5 		"/>
		<path class="st2" d="M7.2,0h81.6c3.9,0,7.2,3.2,7.2,7.2v43.2c0,3.9-3.2,7.2-7.2,7.2H7.2c-3.9,0-7.2-3.2-7.2-7.2V7.2
			C0,3.2,3.2,0,7.2,0z"/>
		<path class="st0" d="M9.7,4.6h76.6c2.5,0,4.4,2,4.4,4.4v39.4c0,2.5-2,4.4-4.4,4.4H9.7c-2.5,0-4.4-2-4.4-4.4V9.1
			C5.3,6.6,7.2,4.6,9.7,4.6z"/>
		<path class="st1" d="M39.3,67.6h17.5l0,0v92.9c0,1.7-1.3,3-3,3H42.4c-1.7,0-3-1.3-3-3L39.3,67.6L39.3,67.6z"/>
		<path class="st0" d="M39.4,66.4h17.4c2.3,0,4.2,1.9,4.2,4.2v0c0,2.3-1.9,4.2-4.2,4.2H39.4c-2.3,0-4.2-1.9-4.2-4.2v0
			C35.2,68.3,37.1,66.4,39.4,66.4z"/>
		<circle class="st0" cx="8.6" cy="9.6" r="1.4"/>
		<circle class="st3" cx="12.3" cy="9.6" r="1.4"/>
		<circle class="st3" cx="15.9" cy="9.6" r="1.4"/>
		<circle class="st3" cx="19.5" cy="9.6" r="1.4"/>
		<circle class="st3" cx="23.2" cy="9.6" r="1.4"/>
		<circle class="st3" cx="26.8" cy="9.6" r="1.4"/>
		<circle class="st3" cx="30.4" cy="9.6" r="1.4"/>
		<circle class="st3" cx="34" cy="9.6" r="1.4"/>
		<circle class="st3" cx="37.7" cy="9.7" r="1.4"/>
		<circle class="st3" cx="41.3" cy="9.7" r="1.4"/>
		<circle class="st3" cx="44.9" cy="9.7" r="1.4"/>
		<circle class="st3" cx="48.5" cy="9.7" r="1.4"/>
		<circle class="st3" cx="52.2" cy="9.7" r="1.4"/>
		<circle class="st3" cx="55.8" cy="9.7" r="1.4"/>
		<circle class="st3" cx="59.4" cy="9.7" r="1.4"/>
		<circle class="st3" cx="63" cy="9.7" r="1.4"/>
		<circle class="st3" cx="66.7" cy="9.7" r="1.4"/>
		<circle class="st3" cx="70.3" cy="9.7" r="1.4"/>
		<circle class="st3" cx="73.9" cy="9.7" r="1.4"/>
		<circle class="st3" cx="77.6" cy="9.7" r="1.4"/>
		<circle class="st3" cx="81.2" cy="9.7" r="1.4"/>
		<circle class="st3" cx="84.8" cy="9.7" r="1.4"/>
		<circle class="st3" cx="11.4" cy="13.6" r="1.4"/>
		<circle class="st3" cx="15" cy="13.6" r="1.4"/>
		<circle class="st3" cx="18.6" cy="13.6" r="1.4"/>
		<circle class="st3" cx="22.3" cy="13.6" r="1.4"/>
		<circle class="st3" cx="25.9" cy="13.6" r="1.4"/>
		<circle class="st3" cx="29.5" cy="13.6" r="1.4"/>
		<circle class="st3" cx="33.2" cy="13.6" r="1.4"/>
		<circle class="st3" cx="36.8" cy="13.6" r="1.4"/>
		<circle class="st3" cx="40.4" cy="13.6" r="1.4"/>
		<circle class="st3" cx="44" cy="13.6" r="1.4"/>
		<circle class="st3" cx="47.7" cy="13.6" r="1.4"/>
		<circle class="st3" cx="51.3" cy="13.6" r="1.4"/>
		<circle class="st3" cx="54.9" cy="13.6" r="1.4"/>
		<circle class="st3" cx="58.5" cy="13.6" r="1.4"/>
		<circle class="st3" cx="62.2" cy="13.6" r="1.4"/>
		<circle class="st3" cx="65.8" cy="13.6" r="1.4"/>
		<circle class="st3" cx="69.4" cy="13.6" r="1.4"/>
		<circle class="st3" cx="73.1" cy="13.6" r="1.4"/>
		<circle class="st3" cx="76.7" cy="13.6" r="1.4"/>
		<circle class="st3" cx="80.3" cy="13.6" r="1.4"/>
		<circle class="st3" cx="83.9" cy="13.6" r="1.4"/>
		<circle class="st3" cx="87.6" cy="13.6" r="1.4"/>
		<circle class="st0" cx="8.6" cy="17.5" r="1.4"/>
		<circle class="st3" cx="12.3" cy="17.5" r="1.4"/>
		<circle class="st3" cx="15.9" cy="17.5" r="1.4"/>
		<circle class="st3" cx="19.5" cy="17.5" r="1.4"/>
		<circle class="st3" cx="23.2" cy="17.5" r="1.4"/>
		<circle class="st3" cx="26.8" cy="17.5" r="1.4"/>
		<circle class="st3" cx="30.4" cy="17.5" r="1.4"/>
		<circle class="st3" cx="34" cy="17.5" r="1.4"/>
		<circle class="st3" cx="37.7" cy="17.5" r="1.4"/>
		<circle class="st3" cx="41.3" cy="17.5" r="1.4"/>
		<circle class="st3" cx="44.9" cy="17.5" r="1.4"/>
		<circle class="st3" cx="48.5" cy="17.5" r="1.4"/>
		<circle class="st3" cx="52.2" cy="17.5" r="1.4"/>
		<circle class="st3" cx="55.8" cy="17.5" r="1.4"/>
		<circle class="st3" cx="59.4" cy="17.6" r="1.4"/>
		<circle class="st3" cx="63" cy="17.6" r="1.4"/>
		<circle class="st3" cx="66.7" cy="17.6" r="1.4"/>
		<circle class="st3" cx="70.3" cy="17.6" r="1.4"/>
		<circle class="st3" cx="73.9" cy="17.6" r="1.4"/>
		<circle class="st3" cx="77.6" cy="17.6" r="1.4"/>
		<circle class="st3" cx="81.2" cy="17.6" r="1.4"/>
		<circle class="st3" cx="84.8" cy="17.6" r="1.4"/>
		<circle class="st0" cx="8.6" cy="25.4" r="1.4"/>
		<circle class="st3" cx="12.3" cy="25.4" r="1.4"/>
		<circle class="st3" cx="15.9" cy="25.4" r="1.4"/>
		<circle class="st3" cx="19.5" cy="25.4" r="1.4"/>
		<circle class="st3" cx="23.2" cy="25.4" r="1.4"/>
		<circle class="st3" cx="26.8" cy="25.4" r="1.4"/>
		<circle class="st3" cx="30.4" cy="25.4" r="1.4"/>
		<circle class="st3" cx="34" cy="25.4" r="1.4"/>
		<circle class="st3" cx="37.7" cy="25.4" r="1.4"/>
		<circle class="st3" cx="41.3" cy="25.4" r="1.4"/>
		<circle class="st3" cx="44.9" cy="25.4" r="1.4"/>
		<circle class="st3" cx="48.5" cy="25.4" r="1.4"/>
		<circle class="st3" cx="52.2" cy="25.4" r="1.4"/>
		<circle class="st3" cx="55.8" cy="25.4" r="1.4"/>
		<circle class="st3" cx="59.4" cy="25.4" r="1.4"/>
		<circle class="st3" cx="63" cy="25.4" r="1.4"/>
		<circle class="st3" cx="66.7" cy="25.4" r="1.4"/>
		<circle class="st3" cx="70.3" cy="25.4" r="1.4"/>
		<circle class="st3" cx="73.9" cy="25.4" r="1.4"/>
		<circle class="st3" cx="77.6" cy="25.4" r="1.4"/>
		<circle class="st3" cx="81.2" cy="25.5" r="1.4"/>
		<circle class="st3" cx="84.8" cy="25.5" r="1.4"/>
		<circle class="st0" cx="8.6" cy="33.3" r="1.4"/>
		<circle class="st3" cx="12.3" cy="33.3" r="1.4"/>
		<circle class="st3" cx="15.9" cy="33.3" r="1.4"/>
		<circle class="st3" cx="19.5" cy="33.3" r="1.4"/>
		<circle class="st3" cx="23.2" cy="33.3" r="1.4"/>
		<circle class="st3" cx="26.8" cy="33.3" r="1.4"/>
		<circle class="st3" cx="30.4" cy="33.3" r="1.4"/>
		<circle class="st3" cx="34" cy="33.3" r="1.4"/>
		<circle class="st3" cx="37.7" cy="33.3" r="1.4"/>
		<circle class="st3" cx="41.3" cy="33.3" r="1.4"/>
		<circle class="st3" cx="44.9" cy="33.3" r="1.4"/>
		<circle class="st3" cx="48.5" cy="33.3" r="1.4"/>
		<circle class="st3" cx="52.2" cy="33.3" r="1.4"/>
		<circle class="st3" cx="55.8" cy="33.3" r="1.4"/>
		<circle class="st3" cx="59.4" cy="33.3" r="1.4"/>
		<circle class="st3" cx="63" cy="33.3" r="1.4"/>
		<circle class="st3" cx="66.7" cy="33.3" r="1.4"/>
		<circle class="st3" cx="70.3" cy="33.3" r="1.4"/>
		<circle class="st3" cx="73.9" cy="33.3" r="1.4"/>
		<circle class="st3" cx="77.6" cy="33.3" r="1.4"/>
		<circle class="st3" cx="81.2" cy="33.3" r="1.4"/>
		<circle class="st3" cx="84.8" cy="33.3" r="1.4"/>
		<circle class="st0" cx="8.6" cy="41.1" r="1.4"/>
		<circle class="st3" cx="12.3" cy="41.1" r="1.4"/>
		<circle class="st3" cx="15.9" cy="41.1" r="1.4"/>
		<circle class="st3" cx="19.5" cy="41.1" r="1.4"/>
		<circle class="st3" cx="23.2" cy="41.1" r="1.4"/>
		<circle class="st3" cx="26.8" cy="41.1" r="1.4"/>
		<circle class="st3" cx="30.4" cy="41.2" r="1.4"/>
		<circle class="st3" cx="34" cy="41.2" r="1.4"/>
		<circle class="st3" cx="37.7" cy="41.2" r="1.4"/>
		<circle class="st3" cx="41.3" cy="41.2" r="1.4"/>
		<circle class="st3" cx="44.9" cy="41.2" r="1.4"/>
		<circle class="st3" cx="48.5" cy="41.2" r="1.4"/>
		<circle class="st3" cx="52.2" cy="41.2" r="1.4"/>
		<circle class="st3" cx="55.8" cy="41.2" r="1.4"/>
		<circle class="st3" cx="59.4" cy="41.2" r="1.4"/>
		<circle class="st3" cx="63" cy="41.2" r="1.4"/>
		<circle class="st3" cx="66.7" cy="41.2" r="1.4"/>
		<circle class="st3" cx="70.3" cy="41.2" r="1.4"/>
		<circle class="st3" cx="73.9" cy="41.2" r="1.4"/>
		<circle class="st3" cx="77.6" cy="41.2" r="1.4"/>
		<circle class="st3" cx="81.2" cy="41.2" r="1.4"/>
		<circle class="st3" cx="84.8" cy="41.2" r="1.4"/>
		<circle class="st0" cx="8.6" cy="49" r="1.4"/>
		<circle class="st3" cx="12.3" cy="49" r="1.4"/>
		<circle class="st3" cx="15.9" cy="49" r="1.4"/>
		<circle class="st3" cx="19.5" cy="49" r="1.4"/>
		<circle class="st3" cx="23.2" cy="49" r="1.4"/>
		<circle class="st3" cx="26.8" cy="49" r="1.4"/>
		<circle class="st3" cx="30.4" cy="49" r="1.4"/>
		<circle class="st3" cx="34" cy="49" r="1.4"/>
		<circle class="st3" cx="37.7" cy="49" r="1.4"/>
		<circle class="st3" cx="41.3" cy="49" r="1.4"/>
		<circle class="st3" cx="44.9" cy="49" r="1.4"/>
		<circle class="st3" cx="48.5" cy="49" r="1.4"/>
		<circle class="st3" cx="52.2" cy="49.1" r="1.4"/>
		<circle class="st3" cx="55.8" cy="49.1" r="1.4"/>
		<circle class="st3" cx="59.4" cy="49.1" r="1.4"/>
		<circle class="st3" cx="63" cy="49.1" r="1.4"/>
		<circle class="st3" cx="66.7" cy="49.1" r="1.4"/>
		<circle class="st3" cx="70.3" cy="49.1" r="1.4"/>
		<circle class="st3" cx="73.9" cy="49.1" r="1.4"/>
		<circle class="st3" cx="77.6" cy="49.1" r="1.4"/>
		<circle class="st3" cx="81.2" cy="49.1" r="1.4"/>
		<circle class="st3" cx="84.8" cy="49.1" r="1.4"/>
		<circle class="st3" cx="11.4" cy="21.4" r="1.4"/>
		<circle class="st3" cx="15" cy="21.4" r="1.4"/>
		<circle class="st3" cx="18.6" cy="21.4" r="1.4"/>
		<circle class="st3" cx="22.3" cy="21.4" r="1.4"/>
		<circle class="st3" cx="25.9" cy="21.5" r="1.4"/>
		<circle class="st3" cx="29.5" cy="21.5" r="1.4"/>
		<circle class="st3" cx="33.2" cy="21.5" r="1.4"/>
		<circle class="st3" cx="36.8" cy="21.5" r="1.4"/>
		<circle class="st3" cx="40.4" cy="21.5" r="1.4"/>
		<circle class="st3" cx="44" cy="21.5" r="1.4"/>
		<circle class="st3" cx="47.7" cy="21.5" r="1.4"/>
		<circle class="st3" cx="51.3" cy="21.5" r="1.4"/>
		<circle class="st3" cx="54.9" cy="21.5" r="1.4"/>
		<circle class="st3" cx="58.5" cy="21.5" r="1.4"/>
		<circle class="st3" cx="62.2" cy="21.5" r="1.4"/>
		<circle class="st3" cx="65.8" cy="21.5" r="1.4"/>
		<circle class="st3" cx="69.4" cy="21.5" r="1.4"/>
		<circle class="st3" cx="73.1" cy="21.5" r="1.4"/>
		<circle class="st3" cx="76.7" cy="21.5" r="1.4"/>
		<circle class="st3" cx="80.3" cy="21.5" r="1.4"/>
		<circle class="st3" cx="83.9" cy="21.5" r="1.4"/>
		<circle class="st3" cx="87.6" cy="21.5" r="1.4"/>
		<circle class="st3" cx="11.4" cy="29.3" r="1.4"/>
		<circle class="st3" cx="15" cy="29.3" r="1.4"/>
		<circle class="st3" cx="18.6" cy="29.3" r="1.4"/>
		<circle class="st3" cx="22.3" cy="29.3" r="1.4"/>
		<circle class="st3" cx="25.9" cy="29.3" r="1.4"/>
		<circle class="st3" cx="29.5" cy="29.3" r="1.4"/>
		<circle class="st3" cx="33.2" cy="29.3" r="1.4"/>
		<circle class="st3" cx="36.8" cy="29.3" r="1.4"/>
		<circle class="st3" cx="40.4" cy="29.3" r="1.4"/>
		<circle class="st3" cx="44" cy="29.3" r="1.4"/>
		<circle class="st3" cx="47.7" cy="29.4" r="1.4"/>
		<circle class="st3" cx="51.3" cy="29.4" r="1.4"/>
		<circle class="st3" cx="54.9" cy="29.4" r="1.4"/>
		<circle class="st3" cx="58.5" cy="29.4" r="1.4"/>
		<circle class="st3" cx="62.2" cy="29.4" r="1.4"/>
		<circle class="st3" cx="65.8" cy="29.4" r="1.4"/>
		<circle class="st3" cx="69.4" cy="29.4" r="1.4"/>
		<circle class="st3" cx="73.1" cy="29.4" r="1.4"/>
		<circle class="st3" cx="76.7" cy="29.4" r="1.4"/>
		<circle class="st3" cx="80.3" cy="29.4" r="1.4"/>
		<circle class="st3" cx="83.9" cy="29.4" r="1.4"/>
		<circle class="st3" cx="87.6" cy="29.4" r="1.4"/>
		<circle class="st3" cx="11.4" cy="37.2" r="1.4"/>
		<circle class="st3" cx="15" cy="37.2" r="1.4"/>
		<circle class="st3" cx="18.6" cy="37.2" r="1.4"/>
		<circle class="st3" cx="22.3" cy="37.2" r="1.4"/>
		<circle class="st3" cx="25.9" cy="37.2" r="1.4"/>
		<circle class="st3" cx="29.5" cy="37.2" r="1.4"/>
		<circle class="st3" cx="33.2" cy="37.2" r="1.4"/>
		<circle class="st3" cx="36.8" cy="37.2" r="1.4"/>
		<circle class="st3" cx="40.4" cy="37.2" r="1.4"/>
		<circle class="st3" cx="44" cy="37.2" r="1.4"/>
		<circle class="st3" cx="47.7" cy="37.2" r="1.4"/>
		<circle class="st3" cx="51.3" cy="37.2" r="1.4"/>
		<circle class="st3" cx="54.9" cy="37.2" r="1.4"/>
		<circle class="st3" cx="58.5" cy="37.2" r="1.4"/>
		<circle class="st3" cx="62.2" cy="37.2" r="1.4"/>
		<circle class="st3" cx="65.8" cy="37.2" r="1.4"/>
		<circle class="st3" cx="69.4" cy="37.3" r="1.4"/>
		<circle class="st3" cx="73.1" cy="37.3" r="1.4"/>
		<circle class="st3" cx="76.7" cy="37.3" r="1.4"/>
		<circle class="st3" cx="80.3" cy="37.3" r="1.4"/>
		<circle class="st3" cx="83.9" cy="37.3" r="1.4"/>
		<circle class="st3" cx="87.6" cy="37.3" r="1.4"/>
		<circle class="st3" cx="11.4" cy="45.1" r="1.4"/>
		<circle class="st3" cx="15" cy="45.1" r="1.4"/>
		<circle class="st3" cx="18.6" cy="45.1" r="1.4"/>
		<circle class="st3" cx="22.3" cy="45.1" r="1.4"/>
		<circle class="st3" cx="25.9" cy="45.1" r="1.4"/>
		<circle class="st3" cx="29.5" cy="45.1" r="1.4"/>
		<circle class="st3" cx="33.2" cy="45.1" r="1.4"/>
		<circle class="st3" cx="36.8" cy="45.1" r="1.4"/>
		<circle class="st3" cx="40.4" cy="45.1" r="1.4"/>
		<circle class="st3" cx="44" cy="45.1" r="1.4"/>
		<circle class="st3" cx="47.7" cy="45.1" r="1.4"/>
		<circle class="st3" cx="51.3" cy="45.1" r="1.4"/>
		<circle class="st3" cx="54.9" cy="45.1" r="1.4"/>
		<circle class="st3" cx="58.5" cy="45.1" r="1.4"/>
		<circle class="st3" cx="62.2" cy="45.1" r="1.4"/>
		<circle class="st3" cx="65.8" cy="45.1" r="1.4"/>
		<circle class="st3" cx="69.4" cy="45.1" r="1.4"/>
		<circle class="st3" cx="73.1" cy="45.1" r="1.4"/>
		<circle class="st3" cx="76.7" cy="45.1" r="1.4"/>
		<circle class="st3" cx="80.3" cy="45.1" r="1.4"/>
		<circle class="st3" cx="83.9" cy="45.1" r="1.4"/>
		<circle class="st3" cx="87.6" cy="45.1" r="1.4"/>
	</g>
</g>
</svg>
