<svg xmlns="http://www.w3.org/2000/svg" viewBox="0 0 95.95 166.48"><defs><style>.cls-1{fill:#507b9b;}.cls-2{fill:#727070;}.cls-3{fill:#79ad84;}.cls-4{fill:#65936d;}</style></defs><title>slicker-brush</title><g id="Layer_2" data-name="Layer 2"><g id="FRISBEE"><ellipse class="cls-1" cx="48.08" cy="162.87" rx="7.63" ry="3.6"/><polygon class="cls-2" points="56.81 68.53 39.34 68.53 42.06 55.47 54.09 55.47 56.81 68.53"/><rect class="cls-3" width="95.95" height="57.51" rx="7.15" ry="7.15"/><rect class="cls-4" x="5.26" y="4.62" width="85.43" height="48.27" rx="4.44" ry="4.44"/><path class="cls-3" d="M39.34,67.61H56.81a0,0,0,0,1,0,0V160.5a3,3,0,0,1-3,3H42.37a3,3,0,0,1-3-3V67.61A0,0,0,0,1,39.34,67.61Z"/><rect class="cls-1" x="35.15" y="66.37" width="25.86" height="8.51" rx="4.25" ry="4.25"/><circle class="cls-2" cx="8.65" cy="9.62" r="1.38"/><circle class="cls-2" cx="12.27" cy="9.62" r="1.38"/><circle class="cls-2" cx="15.9" cy="9.62" r="1.38"/><circle class="cls-2" cx="19.53" cy="9.63" r="1.38"/><circle class="cls-2" cx="23.16" cy="9.63" r="1.38"/><circle class="cls-2" cx="26.78" cy="9.63" r="1.38"/><circle class="cls-2" cx="30.41" cy="9.64" r="1.38"/><circle class="cls-2" cx="34.04" cy="9.64" r="1.38"/><circle class="cls-2" cx="37.66" cy="9.65" r="1.38"/><circle class="cls-2" cx="41.29" cy="9.65" r="1.38"/><circle class="cls-2" cx="44.92" cy="9.65" r="1.38"/><circle class="cls-2" cx="48.54" cy="9.66" r="1.38"/><circle class="cls-2" cx="52.17" cy="9.66" r="1.38"/><circle class="cls-2" cx="55.8" cy="9.66" r="1.38"/><circle class="cls-2" cx="59.43" cy="9.67" r="1.38"/><circle class="cls-2" cx="63.05" cy="9.67" r="1.38"/><circle class="cls-2" cx="66.68" cy="9.68" r="1.38"/><circle class="cls-2" cx="70.31" cy="9.68" r="1.38"/><circle class="cls-2" cx="73.93" cy="9.68" r="1.38"/><circle class="cls-2" cx="77.56" cy="9.69" r="1.38"/><circle class="cls-2" cx="81.19" cy="9.69" r="1.38"/><circle class="cls-2" cx="84.81" cy="9.69" r="1.38"/><circle class="cls-2" cx="11.4" cy="13.55" r="1.38"/><circle class="cls-2" cx="15.02" cy="13.56" r="1.38"/><circle class="cls-2" cx="18.65" cy="13.56" r="1.38"/><circle class="cls-2" cx="22.28" cy="13.57" r="1.38"/><circle class="cls-2" cx="25.91" cy="13.57" r="1.38"/><circle class="cls-2" cx="29.53" cy="13.57" r="1.38"/><circle class="cls-2" cx="33.16" cy="13.58" r="1.38"/><circle class="cls-2" cx="36.79" cy="13.58" r="1.38"/><circle class="cls-2" cx="40.41" cy="13.58" r="1.38"/><circle class="cls-2" cx="44.04" cy="13.59" r="1.38"/><circle class="cls-2" cx="47.67" cy="13.59" r="1.38"/><circle class="cls-2" cx="51.29" cy="13.6" r="1.38"/><circle class="cls-2" cx="54.92" cy="13.6" r="1.38"/><circle class="cls-2" cx="58.55" cy="13.6" r="1.38"/><circle class="cls-2" cx="62.18" cy="13.61" r="1.38"/><circle class="cls-2" cx="65.8" cy="13.61" r="1.38"/><circle class="cls-2" cx="69.43" cy="13.61" r="1.38"/><circle class="cls-2" cx="73.06" cy="13.62" r="1.38"/><circle class="cls-2" cx="76.68" cy="13.62" r="1.38"/><circle class="cls-2" cx="80.31" cy="13.63" r="1.38"/><circle class="cls-2" cx="83.94" cy="13.63" r="1.38"/><circle class="cls-2" cx="87.56" cy="13.63" r="1.38"/><circle class="cls-2" cx="8.65" cy="17.49" r="1.38"/><circle class="cls-2" cx="12.27" cy="17.5" r="1.38"/><circle class="cls-2" cx="15.9" cy="17.5" r="1.38"/><circle class="cls-2" cx="19.53" cy="17.5" r="1.38"/><circle class="cls-2" cx="23.16" cy="17.51" r="1.38"/><circle class="cls-2" cx="26.78" cy="17.51" r="1.38"/><circle class="cls-2" cx="30.41" cy="17.52" r="1.38"/><circle class="cls-2" cx="34.04" cy="17.52" r="1.38"/><circle class="cls-2" cx="37.66" cy="17.52" r="1.38"/><circle class="cls-2" cx="41.29" cy="17.53" r="1.38"/><circle class="cls-2" cx="44.92" cy="17.53" r="1.38"/><circle class="cls-2" cx="48.54" cy="17.53" r="1.38"/><circle class="cls-2" cx="52.17" cy="17.54" r="1.38"/><circle class="cls-2" cx="55.8" cy="17.54" r="1.38"/><circle class="cls-2" cx="59.43" cy="17.55" r="1.38"/><circle class="cls-2" cx="63.05" cy="17.55" r="1.38"/><circle class="cls-2" cx="66.68" cy="17.55" r="1.38"/><circle class="cls-2" cx="70.31" cy="17.56" r="1.38"/><circle class="cls-2" cx="73.93" cy="17.56" r="1.38"/><circle class="cls-2" cx="77.56" cy="17.56" r="1.38"/><circle class="cls-2" cx="81.19" cy="17.57" r="1.38"/><circle class="cls-2" cx="84.81" cy="17.57" r="1.38"/><circle class="cls-2" cx="8.65" cy="25.37" r="1.38"/><circle class="cls-2" cx="12.27" cy="25.37" r="1.38"/><circle class="cls-2" cx="15.9" cy="25.38" r="1.38"/><circle class="cls-2" cx="19.53" cy="25.38" r="1.38"/><circle class="cls-2" cx="23.16" cy="25.39" r="1.38"/><circle class="cls-2" cx="26.78" cy="25.39" r="1.38"/><circle class="cls-2" cx="30.41" cy="25.39" r="1.38"/><circle class="cls-2" cx="34.04" cy="25.4" r="1.38"/><circle class="cls-2" cx="37.66" cy="25.4" r="1.38"/><circle class="cls-2" cx="41.29" cy="25.4" r="1.38"/><circle class="cls-2" cx="44.92" cy="25.41" r="1.38"/><circle class="cls-2" cx="48.54" cy="25.41" r="1.38"/><circle class="cls-2" cx="52.17" cy="25.42" r="1.38"/><circle class="cls-2" cx="55.8" cy="25.42" r="1.38"/><circle class="cls-2" cx="59.43" cy="25.42" r="1.38"/><circle class="cls-2" cx="63.05" cy="25.43" r="1.38"/><circle class="cls-2" cx="66.68" cy="25.43" r="1.38"/><circle class="cls-2" cx="70.31" cy="25.43" r="1.38"/><circle class="cls-2" cx="73.93" cy="25.44" r="1.38"/><circle class="cls-2" cx="77.56" cy="25.44" r="1.38"/><circle class="cls-2" cx="81.19" cy="25.45" r="1.38"/><circle class="cls-2" cx="84.81" cy="25.45" r="1.38"/><circle class="cls-2" cx="8.65" cy="33.25" r="1.38"/><circle class="cls-2" cx="12.27" cy="33.25" r="1.38"/><circle class="cls-2" cx="15.9" cy="33.25" r="1.38"/><circle class="cls-2" cx="19.53" cy="33.26" r="1.38"/><circle class="cls-2" cx="23.16" cy="33.26" r="1.38"/><circle class="cls-2" cx="26.78" cy="33.27" r="1.38"/><circle class="cls-2" cx="30.41" cy="33.27" r="1.38"/><circle class="cls-2" cx="34.04" cy="33.27" r="1.38"/><circle class="cls-2" cx="37.66" cy="33.28" r="1.38"/><circle class="cls-2" cx="41.29" cy="33.28" r="1.38"/><circle class="cls-2" cx="44.92" cy="33.28" r="1.38"/><circle class="cls-2" cx="48.54" cy="33.29" r="1.38"/><circle class="cls-2" cx="52.17" cy="33.29" r="1.38"/><circle class="cls-2" cx="55.8" cy="33.3" r="1.38"/><circle class="cls-2" cx="59.43" cy="33.3" r="1.38"/><circle class="cls-2" cx="63.05" cy="33.3" r="1.38"/><circle class="cls-2" cx="66.68" cy="33.31" r="1.38"/><circle class="cls-2" cx="70.31" cy="33.31" r="1.38"/><circle class="cls-2" cx="73.93" cy="33.31" r="1.38"/><circle class="cls-2" cx="77.56" cy="33.32" r="1.38"/><circle class="cls-2" cx="81.19" cy="33.32" r="1.38"/><circle class="cls-2" cx="84.81" cy="33.33" r="1.38"/><circle class="cls-2" cx="8.65" cy="41.12" r="1.38"/><circle class="cls-2" cx="12.27" cy="41.13" r="1.38"/><circle class="cls-2" cx="15.9" cy="41.13" r="1.38"/><circle class="cls-2" cx="19.53" cy="41.14" r="1.38"/><circle class="cls-2" cx="23.16" cy="41.14" r="1.38"/><circle class="cls-2" cx="26.78" cy="41.14" r="1.38"/><circle class="cls-2" cx="30.41" cy="41.15" r="1.38"/><circle class="cls-2" cx="34.04" cy="41.15" r="1.38"/><circle class="cls-2" cx="37.66" cy="41.15" r="1.38"/><circle class="cls-2" cx="41.29" cy="41.16" r="1.38"/><circle class="cls-2" cx="44.92" cy="41.16" r="1.38"/><circle class="cls-2" cx="48.54" cy="41.17" r="1.38"/><circle class="cls-2" cx="52.17" cy="41.17" r="1.38"/><circle class="cls-2" cx="55.8" cy="41.17" r="1.38"/><circle class="cls-2" cx="59.43" cy="41.18" r="1.38"/><circle class="cls-2" cx="63.05" cy="41.18" r="1.38"/><circle class="cls-2" cx="66.68" cy="41.18" r="1.38"/><circle class="cls-2" cx="70.31" cy="41.19" r="1.38"/><circle class="cls-2" cx="73.93" cy="41.19" r="1.38"/><circle class="cls-2" cx="77.56" cy="41.2" r="1.38"/><circle class="cls-2" cx="81.19" cy="41.2" r="1.38"/><circle class="cls-2" cx="84.81" cy="41.2" r="1.38"/><circle class="cls-2" cx="8.65" cy="49" r="1.38"/><circle class="cls-2" cx="12.27" cy="49.01" r="1.38"/><circle class="cls-2" cx="15.9" cy="49.01" r="1.38"/><circle class="cls-2" cx="19.53" cy="49.01" r="1.38"/><circle class="cls-2" cx="23.16" cy="49.02" r="1.38"/><circle class="cls-2" cx="26.78" cy="49.02" r="1.38"/><circle class="cls-2" cx="30.41" cy="49.02" r="1.38"/><circle class="cls-2" cx="34.04" cy="49.03" r="1.38"/><circle class="cls-2" cx="37.66" cy="49.03" r="1.38"/><circle class="cls-2" cx="41.29" cy="49.04" r="1.38"/><circle class="cls-2" cx="44.92" cy="49.04" r="1.38"/><circle class="cls-2" cx="48.54" cy="49.04" r="1.38"/><circle class="cls-2" cx="52.17" cy="49.05" r="1.38"/><circle class="cls-2" cx="55.8" cy="49.05" r="1.38"/><circle class="cls-2" cx="59.43" cy="49.05" r="1.38"/><circle class="cls-2" cx="63.05" cy="49.06" r="1.38"/><circle class="cls-2" cx="66.68" cy="49.06" r="1.38"/><circle class="cls-2" cx="70.31" cy="49.07" r="1.38"/><circle class="cls-2" cx="73.93" cy="49.07" r="1.38"/><circle class="cls-2" cx="77.56" cy="49.07" r="1.38"/><circle class="cls-2" cx="81.19" cy="49.08" r="1.38"/><circle class="cls-2" cx="84.81" cy="49.08" r="1.38"/><circle class="cls-2" cx="11.4" cy="21.43" r="1.38"/><circle class="cls-2" cx="15.02" cy="21.44" r="1.38"/><circle class="cls-2" cx="18.65" cy="21.44" r="1.38"/><circle class="cls-2" cx="22.28" cy="21.44" r="1.38"/><circle class="cls-2" cx="25.91" cy="21.45" r="1.38"/><circle class="cls-2" cx="29.53" cy="21.45" r="1.38"/><circle class="cls-2" cx="33.16" cy="21.45" r="1.38"/><circle class="cls-2" cx="36.79" cy="21.46" r="1.38"/><circle class="cls-2" cx="40.41" cy="21.46" r="1.38"/><circle class="cls-2" cx="44.04" cy="21.47" r="1.38"/><circle class="cls-2" cx="47.67" cy="21.47" r="1.38"/><circle class="cls-2" cx="51.29" cy="21.47" r="1.38"/><circle class="cls-2" cx="54.92" cy="21.48" r="1.38"/><circle class="cls-2" cx="58.55" cy="21.48" r="1.38"/><circle class="cls-2" cx="62.18" cy="21.48" r="1.38"/><circle class="cls-2" cx="65.8" cy="21.49" r="1.38"/><circle class="cls-2" cx="69.43" cy="21.49" r="1.38"/><circle class="cls-2" cx="73.06" cy="21.5" r="1.38"/><circle class="cls-2" cx="76.68" cy="21.5" r="1.38"/><circle class="cls-2" cx="80.31" cy="21.5" r="1.38"/><circle class="cls-2" cx="83.94" cy="21.51" r="1.38"/><circle class="cls-2" cx="87.56" cy="21.51" r="1.38"/><circle class="cls-2" cx="11.4" cy="29.31" r="1.38"/><circle class="cls-2" cx="15.02" cy="29.31" r="1.38"/><circle class="cls-2" cx="18.65" cy="29.32" r="1.38"/><circle class="cls-2" cx="22.28" cy="29.32" r="1.38"/><circle class="cls-2" cx="25.91" cy="29.32" r="1.38"/><circle class="cls-2" cx="29.53" cy="29.33" r="1.38"/><circle class="cls-2" cx="33.16" cy="29.33" r="1.38"/><circle class="cls-2" cx="36.79" cy="29.34" r="1.38"/><circle class="cls-2" cx="40.41" cy="29.34" r="1.38"/><circle class="cls-2" cx="44.04" cy="29.34" r="1.38"/><circle class="cls-2" cx="47.67" cy="29.35" r="1.38"/><circle class="cls-2" cx="51.29" cy="29.35" r="1.38"/><circle class="cls-2" cx="54.92" cy="29.35" r="1.38"/><circle class="cls-2" cx="58.55" cy="29.36" r="1.38"/><circle class="cls-2" cx="62.18" cy="29.36" r="1.38"/><circle class="cls-2" cx="65.8" cy="29.37" r="1.38"/><circle class="cls-2" cx="69.43" cy="29.37" r="1.38"/><circle class="cls-2" cx="73.06" cy="29.37" r="1.38"/><circle class="cls-2" cx="76.68" cy="29.38" r="1.38"/><circle class="cls-2" cx="80.31" cy="29.38" r="1.38"/><circle class="cls-2" cx="83.94" cy="29.38" r="1.38"/><circle class="cls-2" cx="87.56" cy="29.39" r="1.38"/><circle class="cls-2" cx="11.4" cy="37.19" r="1.38"/><circle class="cls-2" cx="15.02" cy="37.19" r="1.38"/><circle class="cls-2" cx="18.65" cy="37.19" r="1.38"/><circle class="cls-2" cx="22.28" cy="37.2" r="1.38"/><circle class="cls-2" cx="25.91" cy="37.2" r="1.38"/><circle class="cls-2" cx="29.53" cy="37.2" r="1.38"/><circle class="cls-2" cx="33.16" cy="37.21" r="1.38"/><circle class="cls-2" cx="36.79" cy="37.21" r="1.38"/><circle class="cls-2" cx="40.41" cy="37.22" r="1.38"/><circle class="cls-2" cx="44.04" cy="37.22" r="1.38"/><circle class="cls-2" cx="47.67" cy="37.22" r="1.38"/><circle class="cls-2" cx="51.29" cy="37.23" r="1.38"/><circle class="cls-2" cx="54.92" cy="37.23" r="1.38"/><circle class="cls-2" cx="58.55" cy="37.23" r="1.38"/><circle class="cls-2" cx="62.18" cy="37.24" r="1.38"/><circle class="cls-2" cx="65.8" cy="37.24" r="1.38"/><circle class="cls-2" cx="69.43" cy="37.25" r="1.38"/><circle class="cls-2" cx="73.06" cy="37.25" r="1.38"/><circle class="cls-2" cx="76.68" cy="37.25" r="1.38"/><circle class="cls-2" cx="80.31" cy="37.26" r="1.38"/><circle class="cls-2" cx="83.94" cy="37.26" r="1.38"/><circle class="cls-2" cx="87.56" cy="37.26" r="1.38"/><circle class="cls-2" cx="11.4" cy="45.06" r="1.38"/><circle class="cls-2" cx="15.02" cy="45.07" r="1.38"/><circle class="cls-2" cx="18.65" cy="45.07" r="1.38"/><circle class="cls-2" cx="22.28" cy="45.07" r="1.38"/><circle class="cls-2" cx="25.91" cy="45.08" r="1.38"/><circle class="cls-2" cx="29.53" cy="45.08" r="1.38"/><circle class="cls-2" cx="33.16" cy="45.09" r="1.38"/><circle class="cls-2" cx="36.79" cy="45.09" r="1.38"/><circle class="cls-2" cx="40.41" cy="45.09" r="1.38"/><circle class="cls-2" cx="44.04" cy="45.1" r="1.38"/><circle class="cls-2" cx="47.67" cy="45.1" r="1.38"/><circle class="cls-2" cx="51.29" cy="45.1" r="1.38"/><circle class="cls-2" cx="54.92" cy="45.11" r="1.38"/><circle class="cls-2" cx="58.55" cy="45.11" r="1.38"/><circle class="cls-2" cx="62.18" cy="45.12" r="1.38"/><circle class="cls-2" cx="65.8" cy="45.12" r="1.38"/><circle class="cls-2" cx="69.43" cy="45.12" r="1.38"/><circle class="cls-2" cx="73.06" cy="45.13" r="1.38"/><circle class="cls-2" cx="76.68" cy="45.13" r="1.38"/><circle class="cls-2" cx="80.31" cy="45.13" r="1.38"/><circle class="cls-2" cx="83.94" cy="45.14" r="1.38"/><circle class="cls-2" cx="87.56" cy="45.14" r="1.38"/></g></g></svg>