<?xml version="1.0" encoding="utf-8"?>
<!-- Generator: Adobe Illustrator 22.0.1, SVG Export Plug-In . SVG Version: 6.00 Build 0)  -->
<svg version="1.1" id="Layer_1" xmlns="http://www.w3.org/2000/svg" xmlns:xlink="http://www.w3.org/1999/xlink" x="0px" y="0px"
	 viewBox="0 0 157.2 57.2" style="enable-background:new 0 0 157.2 57.2;" xml:space="preserve">
<style type="text/css">
	.st0{fill:#88B337;}
	.st1{fill:#6B962A;}
	.st2{fill:#FFFFFF;}
	.st3{fill:#FDB62F;}
	.st4{fill:#FEC9A3;}
	.st5{fill:#F7BB8F;}
	.st6{fill:#4398D1;}
	.st7{fill:#3E8CC7;}
	.st8{fill:#D9D9D9;}
	.st9{fill:#E27D7D;}
	.st10{font-family:'OpenSans-Bold';}
	.st11{font-size:26px;}
</style>
<title>mediumDog</title>
<g id="Layer_2_1_">
	<g id="text">
		<path class="st0" d="M47.3,37.1c0-0.4-0.1-0.9-0.3-1.2l-2.2-3.5c-0.3-0.5-0.4-1.1-0.4-1.8V19.7c0-7.1-5.7-12.8-12.8-12.8
			c0,0,0,0,0,0h-5.9c-7.1,0-12.8,5.7-12.8,12.8v10.9c0,0.6-0.1,1.2-0.4,1.8l-2.2,3.5c-0.2,0.4-0.3,0.8-0.3,1.2l0,0
			c0,1.3,1,2.3,2.3,2.3H45C46.3,39.5,47.3,38.4,47.3,37.1C47.3,37.1,47.3,37.1,47.3,37.1z"/>
		<polygon class="st0" points="31.5,6.9 36.5,0 20.7,0 25.6,6.9 25.6,8.9 31.5,8.9 		"/>
		<path class="st1" d="M47,35.9l-2.2-3.5c-0.3-0.5-0.4-1.1-0.4-1.8V19.7c0-2.9-0.9-5.6-2.7-7.9C39,26.3,29.8,34.7,21.1,39.4H45
			c1.3,0,2.3-1,2.4-2.2C47.4,36.7,47.2,36.3,47,35.9z"/>
		<path class="st2" d="M33.5,21.7v-0.6c0-1.8-1.5-3.3-3.3-3.3h-0.6v-2h-2v2H27c-1.8,0-3.3,1.4-3.3,3.3c0,1.4,0.9,2.7,2.2,3.1
			l1.8,0.7v3.8H27c-0.7,0-1.3-0.6-1.4-1.3l0,0v-0.6h-2v0.6c0,1.8,1.5,3.3,3.3,3.3c0,0,0,0,0,0h3.2c1.8,0,3.3-1.5,3.3-3.3
			c0-1.4-0.9-2.6-2.1-3.1l-1.8-0.7v-3.8h0.6c0.7,0,1.3,0.6,1.3,1.3l0,0l0,0v0.6L33.5,21.7z M30.7,26c0.5,0.2,0.9,0.7,0.9,1.3
			c0,0.7-0.6,1.3-1.3,1.3l0,0h-0.6v-3L30.7,26z M27.6,22.8l-1.1-0.4c-0.7-0.3-1-1.1-0.7-1.8c0.2-0.5,0.7-0.8,1.2-0.8h0.6L27.6,22.8z
			"/>
		<path class="st3" d="M48.3,9.9L48.3,9.9c-0.3-2-1.9-3.6-3.9-3.9l0,0C46.4,5.6,48,4,48.3,2l0,0c0.3,2,1.9,3.7,4,4l0,0
			C50.3,6.3,48.7,7.9,48.3,9.9z"/>
		<path class="st3" d="M3.9,29.6L3.9,29.6C3.6,27.6,2,26,0,25.6l0,0c2-0.3,3.6-1.9,3.9-4l0,0c0.3,2,2,3.6,4,4l0,0
			C5.9,26,4.3,27.5,3.9,29.6z"/>
		<path class="st4" d="M56.8,34.4c-0.8-1.3-2.5-1.8-3.9-1.1l-14,6c-0.2,0.1-0.5,0.2-0.8,0.2H20.7c-1.1,0.2-2.1-0.6-2.3-1.7
			c-0.2-1.1,0.6-2.1,1.7-2.3c0.2,0,0.4,0,0.6,0h7.9c3.3,0,5.9-2.6,5.9-5.9c0,0,0,0,0,0H18.1c-2.7,0-5.3,1.2-7,3.4l-6.2,7.4l7,12.8
			l26.8-6.4c1.1-0.3,2.2-0.7,3.3-1.2l13.8-7.1C57.2,37.6,57.6,35.8,56.8,34.4z"/>
		<path class="st5" d="M9.7,49.1l2.2,4.1l26.8-6.4c1.2-0.3,2.3-0.7,3.3-1.2l7.5-3.8C37.1,45.5,20.6,47.8,9.7,49.1z"/>
		<polygon class="st6" points="0,39.4 0,57.2 12.8,57.2 15.8,54.2 3.9,36.5 		"/>
		<path class="st7" d="M0,57.2h12.8l3-3L13.6,51c-4.4,1.8-9,3.1-13.6,4V57.2z"/>
		<circle class="st8" cx="8.9" cy="52.3" r="2"/>
		<text transform="matrix(1 0 0 1 68.66 32.58)" class="st9 st10 st11">$1,001</text>
	</g>
</g>
</svg>
