<svg xmlns="http://www.w3.org/2000/svg" viewBox="0 0 124.29 124.29"><defs><style>.cls-1{fill:#7d995f;}</style></defs><title>toys</title><g id="Layer_2" data-name="Layer 2"><g id="Icon"><path class="cls-1" d="M4.65,85.68A54.27,54.27,0,0,0,38.9,54.13a54.3,54.3,0,0,0-3.69-48A62.13,62.13,0,0,0,4.65,85.68Z"/><path class="cls-1" d="M79.82,70.61a59.25,59.25,0,0,1,38.58-34.8A62.08,62.08,0,0,0,39.83,4.17,59.2,59.2,0,0,1,43.53,56,59.2,59.2,0,0,1,6.75,90.25,62.09,62.09,0,0,0,82.61,120.8,59.21,59.21,0,0,1,79.82,70.61Z"/><path class="cls-1" d="M84.46,72.47A54.24,54.24,0,0,0,87.29,119a62.11,62.11,0,0,0,33.07-78.51A54.29,54.29,0,0,0,84.46,72.47Z"/></g></g></svg>