<svg xmlns="http://www.w3.org/2000/svg" viewBox="0 0 268.93 111.12"><defs><style>.cls-1{isolation:isolate;}.cls-2{fill:#3993bc;}.cls-3,.cls-4,.cls-5{fill:none;}.cls-3{stroke:#484546;stroke-miterlimit:10;stroke-width:0.91px;}.cls-4{stroke:#79ad84;stroke-linecap:round;stroke-linejoin:round;stroke-width:2.95px;}</style></defs><title>walk-shiba</title><g id="Layer_2" data-name="Layer 2"><g id="Layer_1-2" data-name="Layer 1"><g class="cls-1"><path d="M47.35,4.25,45.9,9.9a6.75,6.75,0,0,1-.27.83,2.5,2.5,0,0,1-.38.62,1.45,1.45,0,0,1-.55.4,2.07,2.07,0,0,1-.79.14,1.48,1.48,0,0,1-1.12-.43,2.93,2.93,0,0,1-.64-1.35l-1.63-6.6a1.57,1.57,0,0,1-.05-.37,1.3,1.3,0,0,1,.09-.49,1.17,1.17,0,0,1,.6-.61A1.15,1.15,0,0,1,41.57,2a.92.92,0,0,1,.36.07,1,1,0,0,1,.33.21,1.36,1.36,0,0,1,.27.37,2.27,2.27,0,0,1,.19.54l1.37,6.49,1.48-5.7c.06-.25.14-.5.22-.74a2.88,2.88,0,0,1,.33-.63,1.65,1.65,0,0,1,.5-.45A1.42,1.42,0,0,1,47.34,2a1.48,1.48,0,0,1,.65.13,1.41,1.41,0,0,1,.49.39,2.33,2.33,0,0,1,.38.62,6.88,6.88,0,0,1,.28.84c.26.95.52,1.9.77,2.85l.75,2.84L52,3.07a1.66,1.66,0,0,1,.18-.49,1.46,1.46,0,0,1,.29-.35A1.1,1.1,0,0,1,52.86,2,1,1,0,0,1,53.24,2a.94.94,0,0,1,.37.07.85.85,0,0,1,.32.21,1.17,1.17,0,0,1,.22.34,1.13,1.13,0,0,1,.09.47,2,2,0,0,1-.06.46L52.61,9.87a5.92,5.92,0,0,1-.26.81,2.32,2.32,0,0,1-.36.64,1.61,1.61,0,0,1-.52.42,1.68,1.68,0,0,1-.74.15,1.79,1.79,0,0,1-.73-.14,1.34,1.34,0,0,1-.54-.41,2.34,2.34,0,0,1-.4-.7,7.32,7.32,0,0,1-.33-1Z"/><path d="M63.46,9.82c0,.08.06.17.1.26a1.69,1.69,0,0,1,.1.27,1.29,1.29,0,0,1,.08.26,1,1,0,0,1,0,.23,1,1,0,0,1-.09.44.76.76,0,0,1-.25.33,1.17,1.17,0,0,1-.36.21,1.33,1.33,0,0,1-.45.07,1.47,1.47,0,0,1-.45-.07.88.88,0,0,1-.34-.24,1.78,1.78,0,0,1-.28-.43,5.35,5.35,0,0,1-.27-.65L61,9.63H57.08l-.28.87a4.39,4.39,0,0,1-.25.66,1.6,1.6,0,0,1-.28.43,1,1,0,0,1-.35.23,1.33,1.33,0,0,1-.47.07,1.31,1.31,0,0,1-.44-.07,1.07,1.07,0,0,1-.36-.21.76.76,0,0,1-.25-.33,1,1,0,0,1-.09-.44,1,1,0,0,1,0-.23,2.5,2.5,0,0,1,.07-.26c0-.1.07-.19.11-.27s.07-.18.1-.26l1.84-5c.17-.47.34-.88.49-1.24a5.34,5.34,0,0,1,.52-.9,1.94,1.94,0,0,1,.66-.56A2,2,0,0,1,59,2a2.1,2.1,0,0,1,.84.15,1.55,1.55,0,0,1,.63.49,3.8,3.8,0,0,1,.54.89c.16.37.35.82.56,1.36ZM59,3.83l-1.5,4.4h3L59,3.83Z"/><path d="M71.22,10.07a1,1,0,0,1,.35.07,1,1,0,0,1,.49.49.91.91,0,0,1,0,.7,1,1,0,0,1-.2.29.88.88,0,0,1-.64.27H66.54a1.08,1.08,0,0,1-.62-.16,1.21,1.21,0,0,1-.39-.42,1.94,1.94,0,0,1-.21-.6,3.93,3.93,0,0,1-.06-.69V3.29a1.46,1.46,0,0,1,.1-.52,1.57,1.57,0,0,1,.27-.43,1.38,1.38,0,0,1,.4-.28,1.21,1.21,0,0,1,.5-.1,1.13,1.13,0,0,1,.49.1,1.3,1.3,0,0,1,.41.28,1.57,1.57,0,0,1,.27.43,1.27,1.27,0,0,1,.1.52v6.78Z"/><path d="M76,6.32l2.65-3.47a3.72,3.72,0,0,1,.59-.64A1,1,0,0,1,79.9,2a1.25,1.25,0,0,1,.42.08,1.43,1.43,0,0,1,.37.23A1.23,1.23,0,0,1,81,2.6a.87.87,0,0,1,.1.42A.74.74,0,0,1,81,3.3a2.1,2.1,0,0,1-.15.3c-.06.09-.13.19-.21.29l-.23.28L78.35,6.55l2.38,3,.24.3.21.32a3,3,0,0,1,.15.32.66.66,0,0,1,.07.3.88.88,0,0,1-.11.42,1.09,1.09,0,0,1-.28.36,1.36,1.36,0,0,1-.38.24,1.14,1.14,0,0,1-.43.09,1,1,0,0,1-.46-.11,2.07,2.07,0,0,1-.4-.28,3.22,3.22,0,0,1-.35-.38l-.3-.4L76,7.08l0,3.48a1.5,1.5,0,0,1-.1.52,1.34,1.34,0,0,1-.28.42,1.28,1.28,0,0,1-.4.29,1.16,1.16,0,0,1-.49.1,1.18,1.18,0,0,1-.5-.1,1.28,1.28,0,0,1-.4-.29,1.51,1.51,0,0,1-.27-.42,1.3,1.3,0,0,1-.1-.52V3.29a1.27,1.27,0,0,1,.1-.52,1.57,1.57,0,0,1,.27-.43,1.26,1.26,0,0,1,.4-.28,1.18,1.18,0,0,1,.5-.1,1.15,1.15,0,0,1,.48.1,1.3,1.3,0,0,1,.41.28,1.36,1.36,0,0,1,.27.43,1.27,1.27,0,0,1,.11.52Z"/><path d="M97.65,4.35,96.56,7l-.4,1-.34.86c-.11.25-.19.45-.25.61l-.09.22c-.1.24-.2.46-.31.67a2.38,2.38,0,0,1-.36.55,1.78,1.78,0,0,1-.46.37,1.15,1.15,0,0,1-.59.14,1.27,1.27,0,0,1-.54-.1,1.31,1.31,0,0,1-.43-.32,3.09,3.09,0,0,1-.37-.55,6.82,6.82,0,0,1-.34-.75L89.93,4.38V10.9a1,1,0,0,1-.08.39.87.87,0,0,1-.22.32,1,1,0,0,1-.32.21,1,1,0,0,1-.39.08,1.09,1.09,0,0,1-.39-.08,1,1,0,0,1-.31-.21,1.21,1.21,0,0,1-.22-.32,1,1,0,0,1-.08-.39V4.59A8.64,8.64,0,0,1,88,3.51a2.14,2.14,0,0,1,.25-.83,1.27,1.27,0,0,1,.52-.53A1.81,1.81,0,0,1,89.65,2a1.68,1.68,0,0,1,.7.13,1.72,1.72,0,0,1,.55.44,4.32,4.32,0,0,1,.5.79c.16.33.34.72.53,1.18l1.83,4.41h0L95.66,4.5c.16-.39.32-.74.48-1.06a4.59,4.59,0,0,1,.5-.8,1.91,1.91,0,0,1,.58-.5A1.43,1.43,0,0,1,97.94,2a2,2,0,0,1,.76.13,1.08,1.08,0,0,1,.53.41,2.07,2.07,0,0,1,.32.75,5.55,5.55,0,0,1,.1,1.09V10.9a1,1,0,0,1-.08.39.87.87,0,0,1-.22.32,1,1,0,0,1-.32.21,1,1,0,0,1-.39.08,1.09,1.09,0,0,1-.39-.08,1,1,0,0,1-.31-.21,1.21,1.21,0,0,1-.22-.32,1,1,0,0,1-.07-.39Z"/><path d="M104.43,10.56a1.5,1.5,0,0,1-.1.52,1.34,1.34,0,0,1-.28.42,1.28,1.28,0,0,1-.4.29,1.16,1.16,0,0,1-.49.1,1.18,1.18,0,0,1-.5-.1,1.28,1.28,0,0,1-.4-.29,1.51,1.51,0,0,1-.27-.42,1.3,1.3,0,0,1-.1-.52V3.29a1.27,1.27,0,0,1,.1-.52,1.57,1.57,0,0,1,.27-.43,1.26,1.26,0,0,1,.4-.28,1.18,1.18,0,0,1,.5-.1,1.16,1.16,0,0,1,.49.1,1.26,1.26,0,0,1,.4.28,1.39,1.39,0,0,1,.28.43,1.46,1.46,0,0,1,.1.52Z"/><path d="M112.51,10.07a1,1,0,0,1,.35.07,1,1,0,0,1,.29.2.81.81,0,0,1,.19.29.81.81,0,0,1,0,.7.81.81,0,0,1-.19.29.88.88,0,0,1-.64.27h-4.69a1.07,1.07,0,0,1-.61-.16,1.12,1.12,0,0,1-.39-.42,1.94,1.94,0,0,1-.21-.6,3.93,3.93,0,0,1-.06-.69V3.29a1.46,1.46,0,0,1,.1-.52,1.57,1.57,0,0,1,.27-.43,1.38,1.38,0,0,1,.4-.28,1.18,1.18,0,0,1,.5-.1,1.13,1.13,0,0,1,.49.1,1.3,1.3,0,0,1,.41.28,1.57,1.57,0,0,1,.27.43,1.27,1.27,0,0,1,.1.52v6.78Z"/><path d="M116,11.89a1.2,1.2,0,0,1-.59-.14,1.12,1.12,0,0,1-.37-.38,1.45,1.45,0,0,1-.21-.51,2.78,2.78,0,0,1-.06-.58V3.77a5.31,5.31,0,0,1,0-.72,1.3,1.3,0,0,1,.21-.57,1.09,1.09,0,0,1,.48-.38,2.16,2.16,0,0,1,.84-.14h4.39a1,1,0,0,1,.68.27.83.83,0,0,1,.21.28.84.84,0,0,1,.07.35.77.77,0,0,1-.07.34.86.86,0,0,1-.21.29.92.92,0,0,1-.3.18,1,1,0,0,1-.38.07H117.2V6h3.22a.94.94,0,0,1,.37.07.73.73,0,0,1,.3.19.83.83,0,0,1,.21.28.81.81,0,0,1,.07.35.8.8,0,0,1-.07.34.83.83,0,0,1-.21.28,1,1,0,0,1-.3.19,1.16,1.16,0,0,1-.37.07H117.2v2.39h3.69a.81.81,0,0,1,.35.07.77.77,0,0,1,.28.19.73.73,0,0,1,.19.28.84.84,0,0,1,.07.35.77.77,0,0,1-.07.34.67.67,0,0,1-.19.28.77.77,0,0,1-.28.19.81.81,0,0,1-.35.07Z"/><path d="M131.91,9.82c0,.08.07.17.11.26s.07.17.1.27a2.58,2.58,0,0,1,.08.26,1,1,0,0,1,0,.23,1,1,0,0,1-.09.44,1,1,0,0,1-.25.33,1.23,1.23,0,0,1-.37.21,1.31,1.31,0,0,1-.44.07,1.53,1.53,0,0,1-.46-.07.88.88,0,0,1-.34-.24,2.13,2.13,0,0,1-.28-.43c-.08-.18-.17-.39-.27-.65l-.32-.87h-3.87l-.28.87c-.09.26-.17.48-.25.66a1.88,1.88,0,0,1-.28.43,1.05,1.05,0,0,1-.36.23,1.48,1.48,0,0,1-.9,0,1.23,1.23,0,0,1-.37-.21.85.85,0,0,1-.25-.33,1,1,0,0,1-.09-.44,1,1,0,0,1,0-.23,2.58,2.58,0,0,1,.08-.26c0-.1.07-.19.1-.27s.07-.18.11-.26l1.83-5c.18-.47.34-.88.5-1.24a4.74,4.74,0,0,1,.52-.9,2,2,0,0,1,.65-.56,2.06,2.06,0,0,1,.9-.19,2.1,2.1,0,0,1,.84.15,1.69,1.69,0,0,1,.63.49,4.17,4.17,0,0,1,.53.89c.17.37.36.82.56,1.36Zm-4.45-6L126,8.23h3l-1.5-4.4Z"/><path d="M141.18,6.54a1.06,1.06,0,0,1,.43.08.51.51,0,0,1,.26.22.9.9,0,0,1,.12.36,3.89,3.89,0,0,1,0,.51v2a5.48,5.48,0,0,1-.07.9,1.37,1.37,0,0,1-.27.61,1.39,1.39,0,0,1-.56.4,4.2,4.2,0,0,1-.93.23l-.53.09-.57.08-.58.06-.53,0a7,7,0,0,1-2.17-.31,4.49,4.49,0,0,1-1.65-1,4.37,4.37,0,0,1-1-1.62,6.77,6.77,0,0,1-.36-2.32,6.42,6.42,0,0,1,.31-2A4.52,4.52,0,0,1,134,3.26a4.64,4.64,0,0,1,1.62-1.12A6.14,6.14,0,0,1,138,1.73a8.3,8.3,0,0,1,.87.05c.29,0,.57.07.83.12s.52.11.77.18a5.22,5.22,0,0,1,.67.24,1,1,0,0,1,.46.35.85.85,0,0,1,.15.48.81.81,0,0,1-.26.65,1,1,0,0,1-.64.22,2.37,2.37,0,0,1-.51-.08l-.67-.18c-.24-.07-.48-.13-.73-.18a3.56,3.56,0,0,0-.68-.08,3,3,0,0,0-1.29.25,2.16,2.16,0,0,0-.88.7,3,3,0,0,0-.5,1.11A6.64,6.64,0,0,0,135.39,7a7.49,7.49,0,0,0,.14,1.54,2.79,2.79,0,0,0,.45,1,1.81,1.81,0,0,0,.79.57,3.33,3.33,0,0,0,1.16.18l.82,0a5.27,5.27,0,0,0,.81-.12V8h-.92a1.61,1.61,0,0,1-.39,0,.77.77,0,0,1-.31-.12.58.58,0,0,1-.21-.23.79.79,0,0,1,.13-.85.88.88,0,0,1,.64-.2h2.68Z"/><path d="M145.21,11.89a1.13,1.13,0,0,1-.58-.14,1.06,1.06,0,0,1-.38-.38,1.45,1.45,0,0,1-.21-.51,2.78,2.78,0,0,1-.06-.58V3.77a5.31,5.31,0,0,1,.05-.72,1.3,1.3,0,0,1,.21-.57,1.09,1.09,0,0,1,.48-.38,2.18,2.18,0,0,1,.85-.14H150a1,1,0,0,1,.68.27.83.83,0,0,1,.21.28.84.84,0,0,1,.07.35.77.77,0,0,1-.07.34.86.86,0,0,1-.21.29.92.92,0,0,1-.3.18,1,1,0,0,1-.38.07h-3.52V6h3.22A.94.94,0,0,1,150,6a.67.67,0,0,1,.3.19.83.83,0,0,1,.21.28.81.81,0,0,1,.07.35.8.8,0,0,1-.07.34.83.83,0,0,1-.21.28.91.91,0,0,1-.3.19,1.16,1.16,0,0,1-.37.07h-3.22v2.39h3.69a.81.81,0,0,1,.35.07.77.77,0,0,1,.28.19.9.9,0,0,1,.2.28A1,1,0,0,1,151,11a.93.93,0,0,1-.06.34.8.8,0,0,1-.2.28.77.77,0,0,1-.28.19.81.81,0,0,1-.35.07Z"/><path d="M159.64,10.56a1.3,1.3,0,0,1-.1.52,1.34,1.34,0,0,1-.28.42,1.41,1.41,0,0,1-.4.29,1.21,1.21,0,0,1-.5.1,1.13,1.13,0,0,1-.49-.1,1.18,1.18,0,0,1-.4-.29,1.17,1.17,0,0,1-.27-.42,1.3,1.3,0,0,1-.1-.52V3.84a4.38,4.38,0,0,1,.05-.74,1.44,1.44,0,0,1,.22-.6,1.08,1.08,0,0,1,.49-.39,2.14,2.14,0,0,1,.88-.15h2.47a8.32,8.32,0,0,1,1.51.13,3.89,3.89,0,0,1,1.29.49,2.52,2.52,0,0,1,.89.94,2.92,2.92,0,0,1,.34,1.5A3,3,0,0,1,165,6.38a2.63,2.63,0,0,1-.82,1,3.68,3.68,0,0,1-1.28.58,6.92,6.92,0,0,1-1.64.18h-1.57Zm1.15-4a3.94,3.94,0,0,0,.8-.08,1.65,1.65,0,0,0,.62-.25,1.2,1.2,0,0,0,.4-.46,1.83,1.83,0,0,0,.14-.77,1.57,1.57,0,0,0-.14-.75,1,1,0,0,0-.38-.45,1.46,1.46,0,0,0-.58-.25,3.38,3.38,0,0,0-.74-.07h-1.27V6.58Z"/><path d="M167.85,11.89a1.13,1.13,0,0,1-.58-.14,1.06,1.06,0,0,1-.38-.38,1.45,1.45,0,0,1-.21-.51,2.78,2.78,0,0,1-.06-.58V3.77a5.31,5.31,0,0,1,0-.72,1.3,1.3,0,0,1,.21-.57,1.09,1.09,0,0,1,.48-.38,2.18,2.18,0,0,1,.85-.14h4.38a1,1,0,0,1,.68.27.83.83,0,0,1,.21.28.84.84,0,0,1,.07.35.77.77,0,0,1-.07.34.86.86,0,0,1-.21.29.92.92,0,0,1-.3.18,1,1,0,0,1-.38.07h-3.52V6h3.22a.94.94,0,0,1,.37.07.67.67,0,0,1,.3.19.83.83,0,0,1,.21.28.81.81,0,0,1,.07.35.8.8,0,0,1-.07.34.83.83,0,0,1-.21.28.91.91,0,0,1-.3.19,1.16,1.16,0,0,1-.37.07h-3.22v2.39h3.7a.8.8,0,0,1,.34.07.77.77,0,0,1,.28.19.9.9,0,0,1,.2.28,1,1,0,0,1,.06.35.93.93,0,0,1-.06.34.8.8,0,0,1-.2.28.77.77,0,0,1-.28.19.8.8,0,0,1-.34.07Z"/><path d="M177.86,10.56a1.3,1.3,0,0,1-.1.52,1.51,1.51,0,0,1-.27.42,1.33,1.33,0,0,1-.41.29,1.16,1.16,0,0,1-.49.1,1.18,1.18,0,0,1-.5-.1,1.41,1.41,0,0,1-.4-.29,1.36,1.36,0,0,1-.37-.94V3.22a1.07,1.07,0,0,1,.13-.55,1.19,1.19,0,0,1,.34-.4,1.48,1.48,0,0,1,.49-.23,2,2,0,0,1,.6-.08h2.74a9.85,9.85,0,0,1,1.46.1,3.85,3.85,0,0,1,1.23.37,2.12,2.12,0,0,1,.84.76,2.26,2.26,0,0,1,.32,1.26,2.69,2.69,0,0,1-.12.81,1.81,1.81,0,0,1-.37.68,2.15,2.15,0,0,1-.68.52,3.68,3.68,0,0,1-1,.32v0A4.25,4.25,0,0,1,182,7a1.91,1.91,0,0,1,.53.29,1.31,1.31,0,0,1,.35.42,2.42,2.42,0,0,1,.23.58,4.71,4.71,0,0,1,.14.76c0,.28.07.61.1,1l0,.29v.27a2.92,2.92,0,0,1-.05.54,1.13,1.13,0,0,1-.19.43.88.88,0,0,1-.38.27,1.55,1.55,0,0,1-.62.1,1.05,1.05,0,0,1-.57-.15,1.32,1.32,0,0,1-.38-.43,2.41,2.41,0,0,1-.22-.64,5.61,5.61,0,0,1-.13-.77c-.05-.39-.09-.72-.14-1a1.77,1.77,0,0,0-.23-.65A.84.84,0,0,0,180,7.9a2.71,2.71,0,0,0-.79-.1h-1.39Zm1-4.34a6.13,6.13,0,0,0,.74,0,2.27,2.27,0,0,0,.67-.18,1.35,1.35,0,0,0,.48-.41,1.28,1.28,0,0,0,.18-.72,1.36,1.36,0,0,0-.18-.78,1,1,0,0,0-.47-.39,1.94,1.94,0,0,0-.68-.16c-.25,0-.52,0-.8,0h-1V6.22Z"/><path d="M194.94,4.25,193.49,9.9a6.75,6.75,0,0,1-.27.83,2.24,2.24,0,0,1-.38.62,1.37,1.37,0,0,1-.55.4,2,2,0,0,1-.78.14,1.46,1.46,0,0,1-1.12-.43,2.93,2.93,0,0,1-.64-1.35l-1.64-6.6a1.57,1.57,0,0,1-.05-.37,1.3,1.3,0,0,1,.1-.49,1.18,1.18,0,0,1,.24-.37,1.36,1.36,0,0,1,.35-.24,1.19,1.19,0,0,1,.41-.08.92.92,0,0,1,.36.07.84.84,0,0,1,.33.21,1.38,1.38,0,0,1,.28.37,2.28,2.28,0,0,1,.18.54l1.38,6.49,1.47-5.7c.07-.25.14-.5.23-.74a2.88,2.88,0,0,1,.33-.63,1.51,1.51,0,0,1,.49-.45,1.47,1.47,0,0,1,.72-.16,1.41,1.41,0,0,1,1.15.52,2.31,2.31,0,0,1,.37.62,6.83,6.83,0,0,1,.29.84c.26.95.51,1.9.76,2.85s.5,1.89.76,2.84l1.36-6.56a1.67,1.67,0,0,1,.19-.49,1.26,1.26,0,0,1,.29-.35,1,1,0,0,1,.35-.21,1.06,1.06,0,0,1,.38-.07,1,1,0,0,1,.38.07.81.81,0,0,1,.31.21,1,1,0,0,1,.23.34,1.32,1.32,0,0,1,.08.47,2,2,0,0,1-.06.46L200.2,9.87a5.92,5.92,0,0,1-.25.81,2.34,2.34,0,0,1-.37.64,1.51,1.51,0,0,1-.52.42,1.64,1.64,0,0,1-.73.15,1.84,1.84,0,0,1-.74-.14,1.49,1.49,0,0,1-.54-.41,2.57,2.57,0,0,1-.4-.7,9.15,9.15,0,0,1-.32-1Z"/><path d="M204.36,11.89a1.13,1.13,0,0,1-.58-.14,1.06,1.06,0,0,1-.38-.38,1.45,1.45,0,0,1-.21-.51,2.78,2.78,0,0,1-.06-.58V3.77a5.31,5.31,0,0,1,.05-.72,1.3,1.3,0,0,1,.21-.57,1.09,1.09,0,0,1,.48-.38,2.18,2.18,0,0,1,.85-.14h4.39a1,1,0,0,1,.37.08.85.85,0,0,1,.3.19.83.83,0,0,1,.21.28.84.84,0,0,1,.07.35.77.77,0,0,1-.07.34.86.86,0,0,1-.21.29.83.83,0,0,1-.3.18.94.94,0,0,1-.37.07h-3.53V6h3.22a.94.94,0,0,1,.37.07.67.67,0,0,1,.3.19.83.83,0,0,1,.21.28.81.81,0,0,1,.07.35.8.8,0,0,1-.07.34.83.83,0,0,1-.21.28.91.91,0,0,1-.3.19,1.16,1.16,0,0,1-.37.07h-3.22v2.39h3.7a.8.8,0,0,1,.34.07.91.91,0,0,1,.29.19,1.07,1.07,0,0,1,.19.28,1,1,0,0,1,.06.35.93.93,0,0,1-.06.34.92.92,0,0,1-.19.28.91.91,0,0,1-.29.19.8.8,0,0,1-.34.07Z"/><path d="M213.06,11.89a1.17,1.17,0,0,1-.59-.14,1.15,1.15,0,0,1-.38-.38,1.65,1.65,0,0,1-.2-.51,2.78,2.78,0,0,1-.06-.58V3.77a5.39,5.39,0,0,1,0-.72,1.45,1.45,0,0,1,.22-.57,1.06,1.06,0,0,1,.47-.38,2.21,2.21,0,0,1,.85-.14h4.39a.91.91,0,0,1,.37.08.89.89,0,0,1,.31.19,1,1,0,0,1,.2.28.85.85,0,0,1,.08.35.77.77,0,0,1-.08.34,1,1,0,0,1-.2.29.87.87,0,0,1-.31.18.9.9,0,0,1-.37.07h-3.52V6h3.21a1,1,0,0,1,.38.07.91.91,0,0,1,.5.47.69.69,0,0,1,.08.35.68.68,0,0,1-.08.34.8.8,0,0,1-.2.28,1,1,0,0,1-.68.26h-3.21v2.39H218a.84.84,0,0,1,.35.07.9.9,0,0,1,.47.47.84.84,0,0,1,.07.35.88.88,0,0,1-.26.62.87.87,0,0,1-.28.19.84.84,0,0,1-.35.07Z"/><path d="M223.06,6.32l2.65-3.47a4.17,4.17,0,0,1,.59-.64A1,1,0,0,1,227,2a1.25,1.25,0,0,1,.42.08,1.43,1.43,0,0,1,.37.23.93.93,0,0,1,.26.33.88.88,0,0,1,.11.42.61.61,0,0,1-.07.28,2.1,2.1,0,0,1-.15.3c-.06.09-.13.19-.21.29l-.23.28-2,2.38,2.37,3c.08.09.16.2.24.3l.21.32a3.18,3.18,0,0,1,.16.32.8.8,0,0,1,.06.3.88.88,0,0,1-.11.42,1.22,1.22,0,0,1-.27.36,1.58,1.58,0,0,1-.39.24,1.11,1.11,0,0,1-.43.09,1,1,0,0,1-.46-.11,2.07,2.07,0,0,1-.4-.28,2.49,2.49,0,0,1-.34-.38c-.11-.13-.21-.27-.31-.4l-2.69-3.64,0,3.48a1.36,1.36,0,0,1-.37.94,1.46,1.46,0,0,1-.41.29,1.16,1.16,0,0,1-.49.1,1.18,1.18,0,0,1-.5-.1,1.28,1.28,0,0,1-.4-.29,1.36,1.36,0,0,1-.37-.94V3.29a1.46,1.46,0,0,1,.1-.52,1.57,1.57,0,0,1,.27-.43,1.26,1.26,0,0,1,.4-.28,1.18,1.18,0,0,1,.5-.1,1.12,1.12,0,0,1,.48.1,1.3,1.3,0,0,1,.41.28,1.6,1.6,0,0,1,.28.43,1.46,1.46,0,0,1,.1.52Z"/></g><g class="cls-1"><path class="cls-2" d="M113.91,24.31a3.84,3.84,0,0,1,2.32.65,2.11,2.11,0,0,1,.88,1.76,2.26,2.26,0,0,1-.43,1.37,3.59,3.59,0,0,1-1.36,1.07,5,5,0,0,1,1.61,1.25,2.46,2.46,0,0,1-.48,3.41,4,4,0,0,1-2.54.75,4.17,4.17,0,0,1-2.57-.7,2.29,2.29,0,0,1-.94-2,2.58,2.58,0,0,1,.46-1.52,3.8,3.8,0,0,1,1.46-1.17,3.87,3.87,0,0,1-1.24-1.15,2.54,2.54,0,0,1-.37-1.35A2.09,2.09,0,0,1,111.6,25,3.77,3.77,0,0,1,113.91,24.31Zm-1.55,7.47a1.08,1.08,0,0,0,.41.91,2.12,2.12,0,0,0,2.29,0,1.11,1.11,0,0,0,.39-.89,1.25,1.25,0,0,0-.38-.86,5.2,5.2,0,0,0-1.26-.85C112.84,30.53,112.36,31.09,112.36,31.78Zm1.54-5.92a1.33,1.33,0,0,0-.87.27.94.94,0,0,0-.33.74,1.17,1.17,0,0,0,.26.74,2.9,2.9,0,0,0,1,.67,2.67,2.67,0,0,0,.94-.65,1.16,1.16,0,0,0,.27-.76.92.92,0,0,0-.34-.74A1.38,1.38,0,0,0,113.9,25.86Z"/><path class="cls-2" d="M129.47,34.44h-2.08V30a2.21,2.21,0,0,0-.28-1.24,1,1,0,0,0-.87-.41,1.26,1.26,0,0,0-1.16.58,3.92,3.92,0,0,0-.36,1.94v3.6h-2.09V26.79h1.59l.28,1h.12a2.08,2.08,0,0,1,.89-.82,2.86,2.86,0,0,1,1.33-.3,2.4,2.4,0,0,1,2.33,1.12h.18a2.1,2.1,0,0,1,.91-.83,3.08,3.08,0,0,1,1.35-.29,2.63,2.63,0,0,1,2,.67,2.88,2.88,0,0,1,.67,2.13v5h-2.09V30a2.3,2.3,0,0,0-.28-1.24,1,1,0,0,0-.87-.41,1.32,1.32,0,0,0-1.15.54,3.16,3.16,0,0,0-.38,1.74Z"/><path class="cls-2" d="M136.29,24.82c0-.68.38-1,1.13-1s1.14.34,1.14,1a1,1,0,0,1-.29.75,1.17,1.17,0,0,1-.85.27C136.67,25.84,136.29,25.5,136.29,24.82Zm2.17,9.62h-2.08V26.79h2.08Z"/><path class="cls-2" d="M142.74,34.44h-2.09V23.8h2.09Z"/><path class="cls-2" d="M148.38,34.57a3.93,3.93,0,0,1-2.88-1,3.83,3.83,0,0,1-1-2.88,4.24,4.24,0,0,1,1-3,3.9,3.9,0,0,1,5.18-.13,3.51,3.51,0,0,1,.9,2.55v1h-4.93a2,2,0,0,0,.53,1.39,1.85,1.85,0,0,0,1.38.5,6,6,0,0,0,1.3-.14,6.94,6.94,0,0,0,1.29-.46V34a5.24,5.24,0,0,1-1.17.41A7.35,7.35,0,0,1,148.38,34.57Zm-.29-6.44a1.33,1.33,0,0,0-1,.42,1.92,1.92,0,0,0-.43,1.2h2.92a1.75,1.75,0,0,0-.4-1.2A1.36,1.36,0,0,0,148.09,28.13Z"/><path class="cls-2" d="M158.53,32.17a2.12,2.12,0,0,1-.82,1.79,4,4,0,0,1-2.44.61,8.32,8.32,0,0,1-1.43-.11,6.13,6.13,0,0,1-1.1-.33V32.4a6.71,6.71,0,0,0,1.31.46,5,5,0,0,0,1.28.19q1.14,0,1.14-.66a.55.55,0,0,0-.15-.4,2.41,2.41,0,0,0-.52-.35q-.37-.2-1-.45a6.31,6.31,0,0,1-1.29-.69,1.84,1.84,0,0,1-.6-.72,2.29,2.29,0,0,1-.19-1,1.79,1.79,0,0,1,.79-1.57,3.79,3.79,0,0,1,2.24-.56,6.34,6.34,0,0,1,2.68.6l-.62,1.5c-.39-.16-.75-.29-1.08-.4a3.51,3.51,0,0,0-1-.16c-.61,0-.92.17-.92.5a.59.59,0,0,0,.3.49,7.88,7.88,0,0,0,1.3.61,6,6,0,0,1,1.31.67,1.94,1.94,0,0,1,.62.73A2.25,2.25,0,0,1,158.53,32.17Z"/></g><line class="cls-3" x1="5.52" y1="90.1" x2="263.89" y2="90.1"/><g class="cls-1"><path d="M51.08,107.65,49,100.93H49c.08,1.37.12,2.28.12,2.74v4H47.45V99.08h2.47l2,6.55h0l2.15-6.55h2.47v8.57H54.92V103.6c0-.2,0-.42,0-.67s0-.91.07-2h0l-2.21,6.71Z"/></g><g class="cls-1"><path d="M94.51,107.91H92.69v-7H90.36V99.35h6.47v1.51H94.51Z"/></g><g class="cls-1"><path d="M138.79,108.17h-2.07l-1.16-4.5c-.05-.16-.12-.49-.22-1a8.12,8.12,0,0,1-.18-1c0,.21-.08.55-.18,1s-.16.8-.21,1l-1.16,4.48h-2.06l-2.19-8.56h1.79l1.1,4.67c.19.87.33,1.62.41,2.25,0-.22.08-.57.16-1s.17-.83.24-1.08l1.25-4.8H136l1.24,4.8c.06.21.13.54.21,1s.14.82.19,1.14c0-.31.1-.69.18-1.14s.17-.82.24-1.11l1.09-4.67H141Z"/></g><g class="cls-1"><path d="M174,106.88h-1.82V99.82h-2.33V98.31h6.47v1.51H174Z"/><path d="M183.58,106.88h-1.79v-3.83c0-.94-.35-1.42-1-1.42a1.21,1.21,0,0,0-1.09.51,3.16,3.16,0,0,0-.33,1.66v3.08h-1.79V97.76h1.79v1.86c0,.14,0,.48,0,1l0,.52h.09a2.07,2.07,0,0,1,1.9-1,2.33,2.33,0,0,1,1.75.62,2.48,2.48,0,0,1,.6,1.79Z"/></g><g class="cls-1"><path d="M217.63,107.13h-1.79V98.56h4.91v1.49h-3.12v2.21h2.91v1.48h-2.91Z"/></g><g class="cls-1"><path d="M256.38,104.49a2.24,2.24,0,0,1-.83,1.83,3.67,3.67,0,0,1-2.33.66,5.48,5.48,0,0,1-2.42-.51v-1.69a10.5,10.5,0,0,0,1.47.55,4.52,4.52,0,0,0,1.1.15,1.57,1.57,0,0,0,.91-.22.8.8,0,0,0,.32-.68.77.77,0,0,0-.14-.45,1.52,1.52,0,0,0-.41-.38,11.44,11.44,0,0,0-1.11-.58,5.11,5.11,0,0,1-1.18-.71,2.82,2.82,0,0,1-.63-.79,2.32,2.32,0,0,1-.23-1,2.22,2.22,0,0,1,.77-1.79,3.15,3.15,0,0,1,2.13-.65,4.81,4.81,0,0,1,1.27.16,8,8,0,0,1,1.27.44l-.58,1.41a11.16,11.16,0,0,0-1.14-.39,3.85,3.85,0,0,0-.88-.11,1.17,1.17,0,0,0-.79.24.81.81,0,0,0-.28.63.82.82,0,0,0,.11.42,1.49,1.49,0,0,0,.36.34,11.82,11.82,0,0,0,1.15.6,4.66,4.66,0,0,1,1.65,1.15A2.31,2.31,0,0,1,256.38,104.49Z"/><path d="M262,106.87l-.34-.89h-.05a2.52,2.52,0,0,1-.93.78,2.9,2.9,0,0,1-1.24.22,2.05,2.05,0,0,1-1.49-.53,2.09,2.09,0,0,1-.54-1.54,1.72,1.72,0,0,1,.73-1.54,4.28,4.28,0,0,1,2.2-.55l1.14,0v-.29a.89.89,0,0,0-1-1,4.57,4.57,0,0,0-1.85.47l-.59-1.21a5.37,5.37,0,0,1,2.51-.59,3.08,3.08,0,0,1,2,.58,2.1,2.1,0,0,1,.7,1.74v4.37Zm-.52-3-.69,0a2.08,2.08,0,0,0-1.16.28.86.86,0,0,0-.38.78c0,.51.28.76.86.76a1.38,1.38,0,0,0,1-.36,1.28,1.28,0,0,0,.37-.95Z"/><path d="M267.8,105.56a4.08,4.08,0,0,0,1.13-.2v1.33a4.19,4.19,0,0,1-1.64.29,2,2,0,0,1-1.56-.54,2.33,2.33,0,0,1-.49-1.62v-3.16h-.86v-.76l1-.6.51-1.38H267v1.4h1.84v1.34H267v3.16a.68.68,0,0,0,.22.56A.84.84,0,0,0,267.8,105.56Z"/></g><g class="cls-1"><path d="M5.58,105a2.19,2.19,0,0,1-.83,1.83,3.6,3.6,0,0,1-2.32.67A5.36,5.36,0,0,1,0,107v-1.68a11.67,11.67,0,0,0,1.47.54,4.12,4.12,0,0,0,1.1.16,1.57,1.57,0,0,0,.91-.23.76.76,0,0,0,.32-.68.71.71,0,0,0-.14-.45,1.7,1.7,0,0,0-.41-.38,11.44,11.44,0,0,0-1.11-.58A5.37,5.37,0,0,1,1,103a2.86,2.86,0,0,1-.63-.8,2.32,2.32,0,0,1-.23-1,2.24,2.24,0,0,1,.77-1.79A3.21,3.21,0,0,1,3,98.7a4.75,4.75,0,0,1,1.27.16,8.09,8.09,0,0,1,1.27.45L5,100.72a9.45,9.45,0,0,0-1.14-.4,3.85,3.85,0,0,0-.88-.11,1.17,1.17,0,0,0-.79.24.8.8,0,0,0-.27.63.73.73,0,0,0,.11.42,1.28,1.28,0,0,0,.35.35,11.82,11.82,0,0,0,1.15.6,4.54,4.54,0,0,1,1.65,1.15A2.2,2.2,0,0,1,5.58,105Z"/><path d="M11.64,107.39l-.24-.84h-.1a1.87,1.87,0,0,1-.81.71,2.71,2.71,0,0,1-1.2.25,2.29,2.29,0,0,1-1.74-.62A2.48,2.48,0,0,1,7,105.11v-4.27H8.75v3.83A1.82,1.82,0,0,0,9,105.73a.91.91,0,0,0,.8.35,1.21,1.21,0,0,0,1.09-.5,3.11,3.11,0,0,0,.33-1.66v-3.08H13v6.55Z"/><path d="M20.93,107.39H19.14v-3.82a1.84,1.84,0,0,0-.25-1.07.92.92,0,0,0-.8-.35,1.21,1.21,0,0,0-1.09.5,3.13,3.13,0,0,0-.33,1.66v3.08H14.88v-6.55h1.37l.24.84h.1a1.85,1.85,0,0,1,.82-.72,2.84,2.84,0,0,1,1.19-.24,2.27,2.27,0,0,1,1.74.62,2.48,2.48,0,0,1,.59,1.78Z"/></g><polyline class="cls-4" points="2.79 65.41 53.63 80.4 95.5 70.23 139.99 50.13 176.4 70.25 223.91 60.91 264.9 17.35"/><rect class="cls-5" width="268.93" height="111.12"/></g></g></svg>