<svg xmlns="http://www.w3.org/2000/svg" viewBox="0 0 310.21 109.91"><defs><style>.cls-1{isolation:isolate;}.cls-2{fill:#3993bc;}.cls-3,.cls-4{fill:none;}.cls-3{stroke:#484546;stroke-miterlimit:10;stroke-width:0.99px;}.cls-4{stroke:#79ad84;stroke-linecap:round;stroke-linejoin:round;stroke-width:3.12px;}</style></defs><title>walk-shiba</title><g id="Layer_2" data-name="Layer 2"><g id="Layer_1-2" data-name="Layer 1"><g class="cls-1"><path d="M74.34,2.52,72.9,8.17a7.36,7.36,0,0,1-.27.83,2.5,2.5,0,0,1-.38.62,1.69,1.69,0,0,1-.55.4,2.07,2.07,0,0,1-.79.14,1.47,1.47,0,0,1-1.12-.44,2.93,2.93,0,0,1-.64-1.35L67.52,1.78a1.22,1.22,0,0,1,0-.37,1.3,1.3,0,0,1,.09-.49,1.05,1.05,0,0,1,.25-.37,1.21,1.21,0,0,1,.35-.24,1,1,0,0,1,.41-.08,1,1,0,0,1,.35.06,1.16,1.16,0,0,1,.34.22,1.22,1.22,0,0,1,.27.37,2.27,2.27,0,0,1,.19.54l1.37,6.49,1.48-5.7c.06-.25.14-.5.22-.74a2.67,2.67,0,0,1,.33-.63,1.5,1.5,0,0,1,.49-.45,1.49,1.49,0,0,1,.73-.16A1.51,1.51,0,0,1,75,.36a1.51,1.51,0,0,1,.49.39,2.18,2.18,0,0,1,.38.62,5.89,5.89,0,0,1,.28.84c.26,1,.52,1.9.76,2.84s.5,1.9.76,2.85L79,1.33a1.78,1.78,0,0,1,.18-.49A1.37,1.37,0,0,1,79.5.5a1,1,0,0,1,.35-.21,1.07,1.07,0,0,1,.39-.07,1,1,0,0,1,.37.07.75.75,0,0,1,.32.21,1.05,1.05,0,0,1,.22.34,1.13,1.13,0,0,1,.09.47,1.9,1.9,0,0,1-.07.45L79.61,8.13a5.65,5.65,0,0,1-.26.82,2.81,2.81,0,0,1-.36.64,1.54,1.54,0,0,1-.53.42,1.61,1.61,0,0,1-.73.15A1.79,1.79,0,0,1,77,10a1.44,1.44,0,0,1-.54-.41,2.75,2.75,0,0,1-.41-.7,9.92,9.92,0,0,1-.32-1Z"/><path d="M90.46,8.09c0,.08.06.16.1.25s.07.18.1.27a2.76,2.76,0,0,1,.08.27,1,1,0,0,1,0,.23,1,1,0,0,1-.09.44,1,1,0,0,1-.25.33,1.23,1.23,0,0,1-.37.21,1.56,1.56,0,0,1-.44.07,1.21,1.21,0,0,1-.45-.08.92.92,0,0,1-.35-.24,1.69,1.69,0,0,1-.27-.42,5.35,5.35,0,0,1-.27-.65L88,7.9H84.08l-.28.87a5.83,5.83,0,0,1-.25.66,1.8,1.8,0,0,1-.28.42.92.92,0,0,1-.35.24,1.66,1.66,0,0,1-.47.07,1.62,1.62,0,0,1-.44-.07,1.07,1.07,0,0,1-.36-.21.9.9,0,0,1-.25-.33.92.92,0,0,1-.1-.44,1,1,0,0,1,0-.23,2.76,2.76,0,0,1,.08-.27c0-.09.07-.18.11-.27s.07-.17.1-.25l1.84-5c.17-.47.34-.88.49-1.24a4.45,4.45,0,0,1,.52-.9,2,2,0,0,1,.65-.56A1.93,1.93,0,0,1,86,.23a2.1,2.1,0,0,1,.84.15,1.69,1.69,0,0,1,.63.49,3.8,3.8,0,0,1,.53.89c.17.37.36.82.56,1.36ZM86,2.1,84.5,6.49h3L86,2.1Z"/><path d="M98.22,8.34a.88.88,0,0,1,.64.27.81.81,0,0,1,.19.29.91.91,0,0,1,0,.7.81.81,0,0,1-.19.29,1,1,0,0,1-.29.2,1,1,0,0,1-.35.07H93.53a1.15,1.15,0,0,1-.61-.16,1.18,1.18,0,0,1-.4-.43,2,2,0,0,1-.2-.59,4,4,0,0,1-.06-.69V1.56a1.27,1.27,0,0,1,.1-.52,1.43,1.43,0,0,1,.27-.43A1.26,1.26,0,0,1,93,.33a1.18,1.18,0,0,1,.5-.1,1.16,1.16,0,0,1,.49.1,1.42,1.42,0,0,1,.41.28A1.43,1.43,0,0,1,94.7,1a1.46,1.46,0,0,1,.1.52V8.34Z"/><path d="M103,4.59l2.65-3.47a4.15,4.15,0,0,1,.58-.64,1,1,0,0,1,.67-.25,1.15,1.15,0,0,1,.41.08,1.25,1.25,0,0,1,.37.22,1.27,1.27,0,0,1,.27.34.84.84,0,0,1,.1.42.74.74,0,0,1-.06.28,2,2,0,0,1-.15.29,2.73,2.73,0,0,1-.21.3l-.23.27-2.05,2.39,2.38,3a2.37,2.37,0,0,1,.23.3l.22.32a2.3,2.3,0,0,1,.15.32.79.79,0,0,1,.06.29.91.91,0,0,1-.1.43,1.21,1.21,0,0,1-.28.36,1.36,1.36,0,0,1-.38.24,1.14,1.14,0,0,1-.43.09,1,1,0,0,1-.46-.11,2.07,2.07,0,0,1-.4-.28,3.15,3.15,0,0,1-.35-.38c-.11-.13-.21-.27-.3-.4L103,5.35V8.83a1.5,1.5,0,0,1-.09.52,1.34,1.34,0,0,1-.28.42,1.28,1.28,0,0,1-.4.29,1.28,1.28,0,0,1-1,0,1.18,1.18,0,0,1-.4-.29,1.17,1.17,0,0,1-.27-.42,1.3,1.3,0,0,1-.1-.52V1.56a1.27,1.27,0,0,1,.1-.52,1.12,1.12,0,0,1,.27-.43,1.22,1.22,0,0,1,.89-.38,1.19,1.19,0,0,1,.49.1,1.42,1.42,0,0,1,.41.28,1.43,1.43,0,0,1,.27.43,1.27,1.27,0,0,1,.1.52Z"/><path d="M124.64,2.62,123.56,5.3c-.14.33-.27.66-.4,1s-.24.61-.35.86l-.24.61-.09.22c-.1.23-.2.45-.31.66a2.49,2.49,0,0,1-.36.55,1.64,1.64,0,0,1-.46.38,1.3,1.3,0,0,1-.6.14,1.19,1.19,0,0,1-.54-.11,1.24,1.24,0,0,1-.42-.32,2.32,2.32,0,0,1-.37-.54,7.8,7.8,0,0,1-.34-.75l-2.15-5.33V9.17a1.09,1.09,0,0,1-.08.39,1.21,1.21,0,0,1-.22.32,1.48,1.48,0,0,1-.32.21,1,1,0,0,1-.78,0,1.48,1.48,0,0,1-.32-.21,1,1,0,0,1-.21-.32,1.09,1.09,0,0,1-.08-.39V2.86A9.06,9.06,0,0,1,115,1.77a2.7,2.7,0,0,1,.25-.83,1.42,1.42,0,0,1,.53-.53,1.9,1.9,0,0,1,.89-.18,1.68,1.68,0,0,1,.7.13,1.69,1.69,0,0,1,.55.44,4.32,4.32,0,0,1,.5.79c.16.33.34.72.53,1.18l1.82,4.41h.06l1.84-4.41c.17-.39.33-.75.49-1.06a3.79,3.79,0,0,1,.5-.8,2.11,2.11,0,0,1,.58-.51,1.53,1.53,0,0,1,.72-.17,2,2,0,0,1,.76.13,1.13,1.13,0,0,1,.53.41,1.86,1.86,0,0,1,.31.74,5,5,0,0,1,.11,1.1V9.17a1.09,1.09,0,0,1-.08.39,1,1,0,0,1-.22.32,1.48,1.48,0,0,1-.32.21,1,1,0,0,1-.39.08,1,1,0,0,1-.39-.08,1.48,1.48,0,0,1-.32-.21,1.18,1.18,0,0,1-.21-.32,1.09,1.09,0,0,1-.08-.39Z"/><path d="M131.42,8.83a1.5,1.5,0,0,1-.09.52,1.34,1.34,0,0,1-.28.42,1.28,1.28,0,0,1-.4.29,1.28,1.28,0,0,1-1,0,1.18,1.18,0,0,1-.4-.29,1.17,1.17,0,0,1-.27-.42,1.3,1.3,0,0,1-.1-.52V1.56A1.27,1.27,0,0,1,129,1a1.12,1.12,0,0,1,.27-.43,1.22,1.22,0,0,1,.89-.38,1.18,1.18,0,0,1,.5.1,1.26,1.26,0,0,1,.4.28,1.28,1.28,0,0,1,.28.43,1.46,1.46,0,0,1,.09.52Z"/><path d="M139.5,8.34a.86.86,0,0,1,.36.07.84.84,0,0,1,.29.2,1,1,0,0,1,.19.29.91.91,0,0,1,0,.7,1,1,0,0,1-.19.29,1,1,0,0,1-.29.2,1,1,0,0,1-.36.07h-4.68a1.15,1.15,0,0,1-.61-.16,1.18,1.18,0,0,1-.4-.43,2,2,0,0,1-.2-.59,4,4,0,0,1-.06-.69V1.56a1.27,1.27,0,0,1,.1-.52,1.43,1.43,0,0,1,.27-.43,1.26,1.26,0,0,1,.4-.28,1.18,1.18,0,0,1,.5-.1,1.16,1.16,0,0,1,.49.1,1.26,1.26,0,0,1,.4.28A1.28,1.28,0,0,1,136,1a1.46,1.46,0,0,1,.1.52V8.34Z"/><path d="M143,10.16a1.1,1.1,0,0,1-.59-.15,1.22,1.22,0,0,1-.38-.37,1.65,1.65,0,0,1-.2-.51,2.93,2.93,0,0,1-.06-.58V2a5.39,5.39,0,0,1,0-.72A1.34,1.34,0,0,1,142,.75a1.09,1.09,0,0,1,.48-.38,2.12,2.12,0,0,1,.84-.14h4.39a1.11,1.11,0,0,1,.37.07,1.1,1.1,0,0,1,.31.2,1,1,0,0,1,.2.28.82.82,0,0,1,.08.35.77.77,0,0,1-.08.34,1,1,0,0,1-.2.28.89.89,0,0,1-.31.19.9.9,0,0,1-.37.07H144.2V4.22h3.21a1,1,0,0,1,.68.26,1,1,0,0,1,.21.29.8.8,0,0,1,.07.34.81.81,0,0,1-.07.35.83.83,0,0,1-.21.28,1,1,0,0,1-.68.26H144.2V8.39h3.69a.81.81,0,0,1,.35.07.87.87,0,0,1,.28.19.77.77,0,0,1,.19.28.81.81,0,0,1,.07.35.8.8,0,0,1-.07.34.77.77,0,0,1-.19.28,1.07,1.07,0,0,1-.28.19.81.81,0,0,1-.35.07Z"/><path d="M158.91,8.09c0,.08.07.16.1.25s.08.18.11.27a2.76,2.76,0,0,1,.08.27,1,1,0,0,1,0,.23.92.92,0,0,1-.1.44.9.9,0,0,1-.25.33,1.07,1.07,0,0,1-.36.21,1.62,1.62,0,0,1-.44.07,1.26,1.26,0,0,1-.46-.08.88.88,0,0,1-.34-.24,2,2,0,0,1-.28-.42c-.08-.18-.17-.39-.27-.65l-.33-.87h-3.87l-.28.87a4.39,4.39,0,0,1-.25.66,1.34,1.34,0,0,1-.28.42.92.92,0,0,1-.35.24,1.59,1.59,0,0,1-.46.07,1.56,1.56,0,0,1-.44-.07,1.23,1.23,0,0,1-.37-.21,1,1,0,0,1-.25-.33,1,1,0,0,1-.09-.44,1,1,0,0,1,0-.23,2.76,2.76,0,0,1,.08-.27c0-.09.06-.18.1-.27l.1-.25,1.84-5c.18-.47.34-.88.5-1.24a4,4,0,0,1,.52-.9,1.79,1.79,0,0,1,1.55-.75,2.17,2.17,0,0,1,.84.15,1.69,1.69,0,0,1,.63.49,4.17,4.17,0,0,1,.53.89c.17.37.35.82.56,1.36Zm-4.45-6L153,6.49h3l-1.5-4.39Z"/><path d="M168.17,4.81a1.31,1.31,0,0,1,.44.07.56.56,0,0,1,.26.22,1.16,1.16,0,0,1,.11.37,2.47,2.47,0,0,1,0,.5V8a4.47,4.47,0,0,1-.08.9,1.22,1.22,0,0,1-.27.61,1.29,1.29,0,0,1-.55.4,4.77,4.77,0,0,1-.94.23l-.52.09-.57.08-.58,0-.53,0a7.34,7.34,0,0,1-2.17-.31,4.49,4.49,0,0,1-1.65-.95,4.37,4.37,0,0,1-1-1.62,6.77,6.77,0,0,1-.36-2.32,6.38,6.38,0,0,1,.31-2A4.4,4.4,0,0,1,162.63.41,6.1,6.1,0,0,1,165,0a8.44,8.44,0,0,1,.87,0c.29,0,.56.07.83.12s.52.12.77.19a5.84,5.84,0,0,1,.67.24,1,1,0,0,1,.46.35.85.85,0,0,1,.15.48.79.79,0,0,1-.26.64,1,1,0,0,1-.64.22,2.26,2.26,0,0,1-.51-.07L166.63,2c-.24-.07-.49-.13-.73-.18a3.57,3.57,0,0,0-.69-.08,3.08,3.08,0,0,0-1.28.24,2.25,2.25,0,0,0-.88.7,3,3,0,0,0-.5,1.12,6.08,6.08,0,0,0-.16,1.47,7.6,7.6,0,0,0,.14,1.55,2.5,2.5,0,0,0,.45,1,1.76,1.76,0,0,0,.79.57,3.33,3.33,0,0,0,1.16.18c.27,0,.55,0,.82,0a3.51,3.51,0,0,0,.8-.12V6.25h-.91a1.61,1.61,0,0,1-.39,0,1,1,0,0,1-.31-.12.58.58,0,0,1-.21-.23.71.71,0,0,1-.08-.34.7.7,0,0,1,.21-.52.91.91,0,0,1,.64-.19h2.67Z"/><path d="M172.21,10.16a1.1,1.1,0,0,1-.59-.15,1.22,1.22,0,0,1-.38-.37,1.65,1.65,0,0,1-.2-.51,2.93,2.93,0,0,1-.06-.58V2a4.07,4.07,0,0,1,.05-.72,1.21,1.21,0,0,1,.21-.57,1.09,1.09,0,0,1,.48-.38,2.16,2.16,0,0,1,.84-.14H177a1.11,1.11,0,0,1,.37.07,1.1,1.1,0,0,1,.31.2.8.8,0,0,1,.2.28.82.82,0,0,1,.08.35.77.77,0,0,1-.08.34.8.8,0,0,1-.2.28.89.89,0,0,1-.31.19A.9.9,0,0,1,177,2h-3.52V4.22h3.21a1,1,0,0,1,.68.26,1,1,0,0,1,.21.29.8.8,0,0,1,.07.34.81.81,0,0,1-.07.35.83.83,0,0,1-.21.28,1,1,0,0,1-.68.26h-3.21V8.39h3.69a.81.81,0,0,1,.35.07.9.9,0,0,1,.47.47.81.81,0,0,1,.07.35.8.8,0,0,1-.07.34.77.77,0,0,1-.19.28.92.92,0,0,1-.28.19.81.81,0,0,1-.35.07Z"/><path d="M186.64,8.83a1.5,1.5,0,0,1-.1.52,1.34,1.34,0,0,1-.28.42,1.41,1.41,0,0,1-.4.29,1.3,1.3,0,0,1-1,0,1.41,1.41,0,0,1-.4-.29,1.51,1.51,0,0,1-.27-.42,1.5,1.5,0,0,1-.09-.52V2.11a4.38,4.38,0,0,1,.05-.74,1.31,1.31,0,0,1,.22-.6,1.1,1.1,0,0,1,.49-.4,2.13,2.13,0,0,1,.88-.14h2.46a8.35,8.35,0,0,1,1.52.13A3.83,3.83,0,0,1,191,.84a2.59,2.59,0,0,1,.89.94,3,3,0,0,1,.34,1.51A3,3,0,0,1,192,4.65a2.63,2.63,0,0,1-.82,1,3.57,3.57,0,0,1-1.28.57,6.5,6.5,0,0,1-1.65.19h-1.56Zm1.15-4a3.94,3.94,0,0,0,.8-.08,1.72,1.72,0,0,0,.62-.25,1.2,1.2,0,0,0,.4-.46,1.83,1.83,0,0,0,.14-.77,1.78,1.78,0,0,0-.14-.76,1.27,1.27,0,0,0-.38-.45,1.61,1.61,0,0,0-.58-.24,3.38,3.38,0,0,0-.75-.08h-1.26V4.85Z"/><path d="M194.85,10.16a1.1,1.1,0,0,1-.59-.15,1.22,1.22,0,0,1-.38-.37,1.65,1.65,0,0,1-.2-.51,2.93,2.93,0,0,1-.06-.58V2a4.07,4.07,0,0,1,0-.72,1.21,1.21,0,0,1,.21-.57,1.09,1.09,0,0,1,.48-.38,2.16,2.16,0,0,1,.84-.14h4.39A1.17,1.17,0,0,1,200,.3a1.21,1.21,0,0,1,.3.2.8.8,0,0,1,.2.28.82.82,0,0,1,.08.35.77.77,0,0,1-.08.34.8.8,0,0,1-.2.28,1,1,0,0,1-.68.26h-3.52V4.22h3.22a1.16,1.16,0,0,1,.37.07,1,1,0,0,1,.3.19,1,1,0,0,1,.21.29.8.8,0,0,1,.07.34.81.81,0,0,1-.07.35.83.83,0,0,1-.21.28,1,1,0,0,1-.3.19,1.16,1.16,0,0,1-.37.07h-3.22V8.39h3.69a.81.81,0,0,1,.35.07.9.9,0,0,1,.47.47.81.81,0,0,1,.07.35.8.8,0,0,1-.07.34.77.77,0,0,1-.19.28.92.92,0,0,1-.28.19.81.81,0,0,1-.35.07Z"/><path d="M204.86,8.83a1.5,1.5,0,0,1-.1.52,1.34,1.34,0,0,1-.28.42,1.28,1.28,0,0,1-.4.29,1.28,1.28,0,0,1-1,0,1.28,1.28,0,0,1-.4-.29,1.51,1.51,0,0,1-.27-.42,1.3,1.3,0,0,1-.1-.52V1.48a1.09,1.09,0,0,1,.13-.55,1.06,1.06,0,0,1,.34-.39,1.72,1.72,0,0,1,.49-.24,2.35,2.35,0,0,1,.6-.07h2.74a11.45,11.45,0,0,1,1.46.09A3.72,3.72,0,0,1,209.3.7a2.09,2.09,0,0,1,.85.76,2.26,2.26,0,0,1,.32,1.26,2.63,2.63,0,0,1-.12.8,2,2,0,0,1-.37.69,2.45,2.45,0,0,1-.68.52,3.48,3.48,0,0,1-1,.31v0a4.25,4.25,0,0,1,.75.16,2,2,0,0,1,.53.28,1.57,1.57,0,0,1,.35.42,2.81,2.81,0,0,1,.23.58,6.7,6.7,0,0,1,.14.77c0,.28.07.6.1,1,0,.1,0,.2,0,.3a2.44,2.44,0,0,1,0,.27,2.92,2.92,0,0,1-.05.54,1,1,0,0,1-.2.43.87.87,0,0,1-.37.27,1.58,1.58,0,0,1-.62.1,1,1,0,0,1-.57-.16,1.15,1.15,0,0,1-.38-.43,2.58,2.58,0,0,1-.23-.63c0-.24-.09-.49-.12-.77s-.09-.73-.14-1a2,2,0,0,0-.23-.65.92.92,0,0,0-.45-.35,2.44,2.44,0,0,0-.8-.1h-1.38Zm1-4.35a6.12,6.12,0,0,0,.74,0,2.21,2.21,0,0,0,.66-.18,1.3,1.3,0,0,0,.49-.41,1.32,1.32,0,0,0,.18-.73,1.41,1.41,0,0,0-.18-.78,1,1,0,0,0-.47-.38,1.94,1.94,0,0,0-.68-.17c-.26,0-.52,0-.8,0h-1V4.48Z"/><path d="M221.94,2.52l-1.45,5.65a7.36,7.36,0,0,1-.27.83,2.24,2.24,0,0,1-.38.62,1.59,1.59,0,0,1-.55.4,2.05,2.05,0,0,1-.78.14,1.49,1.49,0,0,1-1.13-.44,3,3,0,0,1-.64-1.35l-1.63-6.59a1.64,1.64,0,0,1-.05-.37,1.3,1.3,0,0,1,.09-.49,1.41,1.41,0,0,1,.25-.37,1.21,1.21,0,0,1,.35-.24,1,1,0,0,1,.41-.08,1.13,1.13,0,0,1,.36.06,1,1,0,0,1,.33.22,1.22,1.22,0,0,1,.27.37,1.9,1.9,0,0,1,.19.54l1.38,6.49,1.47-5.7c.07-.25.14-.5.23-.74a2.1,2.1,0,0,1,.33-.63,1.41,1.41,0,0,1,.49-.45,1.7,1.7,0,0,1,1.37,0,1.54,1.54,0,0,1,.5.39,2.17,2.17,0,0,1,.37.62,5.84,5.84,0,0,1,.29.84c.26,1,.51,1.9.76,2.84l.75,2.85,1.37-6.57a1.52,1.52,0,0,1,.19-.49,1.34,1.34,0,0,1,.28-.34,1,1,0,0,1,.36-.21,1,1,0,0,1,.38-.07.94.94,0,0,1,.37.07.69.69,0,0,1,.32.21.91.91,0,0,1,.22.34,1.13,1.13,0,0,1,.09.47,1.86,1.86,0,0,1-.06.45L227.2,8.13A7.26,7.26,0,0,1,227,9a2.5,2.5,0,0,1-.37.64,1.51,1.51,0,0,1-.52.42,1.65,1.65,0,0,1-.74.15,1.83,1.83,0,0,1-.73-.14,1.62,1.62,0,0,1-.54-.41,2.74,2.74,0,0,1-.4-.7,7.89,7.89,0,0,1-.32-1Z"/><path d="M231.36,10.16a1.07,1.07,0,0,1-1-.52,1.45,1.45,0,0,1-.21-.51,2.93,2.93,0,0,1-.06-.58V2a5.31,5.31,0,0,1,.05-.72,1.21,1.21,0,0,1,.21-.57,1.09,1.09,0,0,1,.48-.38,2.16,2.16,0,0,1,.84-.14h4.39a1.17,1.17,0,0,1,.38.07,1.21,1.21,0,0,1,.3.2.83.83,0,0,1,.21.28.81.81,0,0,1,.07.35.77.77,0,0,1-.07.34.83.83,0,0,1-.21.28,1,1,0,0,1-.68.26h-3.52V4.22h3.22a1.16,1.16,0,0,1,.37.07,1,1,0,0,1,.3.19,1,1,0,0,1,.21.29.8.8,0,0,1,.07.34.81.81,0,0,1-.07.35.83.83,0,0,1-.21.28,1,1,0,0,1-.3.19,1.16,1.16,0,0,1-.37.07h-3.22V8.39h3.69a.81.81,0,0,1,.35.07.77.77,0,0,1,.28.19.67.67,0,0,1,.19.28.81.81,0,0,1,.07.35.8.8,0,0,1-.07.34.67.67,0,0,1-.19.28.92.92,0,0,1-.28.19.81.81,0,0,1-.35.07Z"/><path d="M240.05,10.16a1.06,1.06,0,0,1-.58-.15,1.12,1.12,0,0,1-.38-.37,1.65,1.65,0,0,1-.2-.51,2.36,2.36,0,0,1-.07-.58V2a5.31,5.31,0,0,1,.05-.72,1.21,1.21,0,0,1,.21-.57,1.09,1.09,0,0,1,.48-.38,2.18,2.18,0,0,1,.85-.14h4.39a1.11,1.11,0,0,1,.37.07,1.1,1.1,0,0,1,.31.2,1,1,0,0,1,.2.28.82.82,0,0,1,.08.35.77.77,0,0,1-.08.34,1,1,0,0,1-.2.28.89.89,0,0,1-.31.19.9.9,0,0,1-.37.07h-3.52V4.22h3.21a1.11,1.11,0,0,1,.37.07,1.08,1.08,0,0,1,.31.19,1.15,1.15,0,0,1,.2.29.81.81,0,0,1,.08.34.82.82,0,0,1-.08.35,1,1,0,0,1-.2.28,1.08,1.08,0,0,1-.31.19,1.11,1.11,0,0,1-.37.07h-3.21V8.39H245a.77.77,0,0,1,.34.07.81.81,0,0,1,.29.19.92.92,0,0,1,.19.28.81.81,0,0,1,.07.35.8.8,0,0,1-.07.34.92.92,0,0,1-.19.28,1,1,0,0,1-.29.19.77.77,0,0,1-.34.07Z"/><path d="M250.06,4.59l2.65-3.47a3.72,3.72,0,0,1,.59-.64A1,1,0,0,1,254,.23a1.25,1.25,0,0,1,.42.08,1.39,1.39,0,0,1,.37.22,1.46,1.46,0,0,1,.26.34.84.84,0,0,1,.1.42.74.74,0,0,1-.06.28,2,2,0,0,1-.15.29,2.73,2.73,0,0,1-.21.3l-.23.27-2.05,2.39,2.38,3q.12.14.24.3l.21.32a2.3,2.3,0,0,1,.15.32.65.65,0,0,1,.07.29.92.92,0,0,1-.11.43,1.21,1.21,0,0,1-.28.36,1.36,1.36,0,0,1-.38.24,1.14,1.14,0,0,1-.43.09,1,1,0,0,1-.46-.11,2.07,2.07,0,0,1-.4-.28,4.26,4.26,0,0,1-.35-.38l-.3-.4-2.69-3.64,0,3.48a1.5,1.5,0,0,1-.1.52,1.34,1.34,0,0,1-.28.42,1.28,1.28,0,0,1-.4.29,1.28,1.28,0,0,1-1,0,1.28,1.28,0,0,1-.4-.29,1.51,1.51,0,0,1-.27-.42,1.3,1.3,0,0,1-.1-.52V1.56a1.27,1.27,0,0,1,.1-.52,1.43,1.43,0,0,1,.27-.43,1.26,1.26,0,0,1,.4-.28,1.25,1.25,0,0,1,1,0,1.42,1.42,0,0,1,.41.28A1.26,1.26,0,0,1,250,1a1.27,1.27,0,0,1,.11.52Z"/></g><g class="cls-1"><path class="cls-2" d="M141.23,22.58a3.79,3.79,0,0,1,2.31.65,2.07,2.07,0,0,1,.88,1.76,2.34,2.34,0,0,1-.42,1.37,3.74,3.74,0,0,1-1.37,1.07,4.81,4.81,0,0,1,1.61,1.25,2.32,2.32,0,0,1,.49,1.43,2.39,2.39,0,0,1-1,2,4,4,0,0,1-2.54.75,4.23,4.23,0,0,1-2.58-.7,2.31,2.31,0,0,1-.93-2,2.64,2.64,0,0,1,.45-1.52,3.88,3.88,0,0,1,1.46-1.17,3.72,3.72,0,0,1-1.23-1.15A2.55,2.55,0,0,1,138,25a2.07,2.07,0,0,1,.89-1.74A3.82,3.82,0,0,1,141.23,22.58ZM139.67,30a1.12,1.12,0,0,0,.41.92,1.76,1.76,0,0,0,1.12.33,1.73,1.73,0,0,0,1.18-.34,1.12,1.12,0,0,0,.39-.89,1.22,1.22,0,0,0-.39-.86,4.67,4.67,0,0,0-1.25-.85C140.16,28.79,139.67,29.36,139.67,30Zm1.55-5.92a1.33,1.33,0,0,0-.87.28.9.9,0,0,0-.34.74,1.13,1.13,0,0,0,.27.74,2.8,2.8,0,0,0,.95.66,2.67,2.67,0,0,0,.94-.64,1.15,1.15,0,0,0,.26-.76.89.89,0,0,0-.34-.74A1.32,1.32,0,0,0,141.22,24.12Z"/><path class="cls-2" d="M156.79,32.7H154.7V28.24a2.28,2.28,0,0,0-.27-1.24,1,1,0,0,0-.87-.42,1.28,1.28,0,0,0-1.17.59,3.89,3.89,0,0,0-.36,1.94V32.7H150V25.06h1.59l.28,1h.12a2.14,2.14,0,0,1,.88-.83,3,3,0,0,1,1.34-.29A2.39,2.39,0,0,1,156.48,26h.19a2,2,0,0,1,.9-.83,3,3,0,0,1,1.35-.29,2.7,2.7,0,0,1,2,.66,3,3,0,0,1,.66,2.14v5h-2.09V28.24a2.28,2.28,0,0,0-.27-1.24,1,1,0,0,0-.88-.42,1.3,1.3,0,0,0-1.14.55,3.16,3.16,0,0,0-.38,1.74Z"/><path class="cls-2" d="M163.6,23.08c0-.67.38-1,1.14-1s1.13.34,1.13,1a1,1,0,0,1-.28.76,1.19,1.19,0,0,1-.85.27C164,24.11,163.6,23.77,163.6,23.08Zm2.18,9.62h-2.09V25.06h2.09Z"/><path class="cls-2" d="M170.05,32.7H168V22.07h2.08Z"/><path class="cls-2" d="M175.7,32.84a4,4,0,0,1-2.89-1,3.86,3.86,0,0,1-1-2.88,4.24,4.24,0,0,1,1-3,3.43,3.43,0,0,1,2.66-1,3.34,3.34,0,0,1,2.52.92,3.5,3.5,0,0,1,.9,2.55v1h-4.92a2,2,0,0,0,.52,1.39,1.87,1.87,0,0,0,1.38.5,5.53,5.53,0,0,0,1.31-.15,6,6,0,0,0,1.28-.45V32.3a5,5,0,0,1-1.16.41A8.2,8.2,0,0,1,175.7,32.84Zm-.3-6.44a1.34,1.34,0,0,0-1,.42,2,2,0,0,0-.43,1.19h2.93a1.74,1.74,0,0,0-.4-1.19A1.37,1.37,0,0,0,175.4,26.4Z"/><path class="cls-2" d="M185.84,30.43a2.1,2.1,0,0,1-.81,1.79,4.06,4.06,0,0,1-2.45.62,8.19,8.19,0,0,1-1.42-.11,6.13,6.13,0,0,1-1.1-.33V30.67a6.49,6.49,0,0,0,1.31.46,5.43,5.43,0,0,0,1.28.19c.76,0,1.13-.22,1.13-.66a.55.55,0,0,0-.15-.4,2.17,2.17,0,0,0-.52-.35c-.24-.13-.57-.28-1-.45a6.44,6.44,0,0,1-1.3-.69,2,2,0,0,1-.6-.72,2.45,2.45,0,0,1-.18-1,1.84,1.84,0,0,1,.78-1.58,3.88,3.88,0,0,1,2.24-.55,6.38,6.38,0,0,1,2.69.6l-.63,1.5a11.23,11.23,0,0,0-1.07-.4,3.2,3.2,0,0,0-1-.16c-.62,0-.92.17-.92.5a.6.6,0,0,0,.29.49,8.38,8.38,0,0,0,1.31.6,6.64,6.64,0,0,1,1.31.68,1.91,1.91,0,0,1,.61.73A2.1,2.1,0,0,1,185.84,30.43Z"/></g><line class="cls-3" y1="91.88" x2="310.21" y2="91.88"/><g class="cls-1"><path d="M61.86,109.39l-2.06-6.72h0c.07,1.37.11,2.28.11,2.74v4H58.23v-8.56h2.48l2,6.55h0l2.15-6.55h2.47v8.56H65.7v-4c0-.19,0-.41,0-.66s0-.92.08-2h-.06l-2.21,6.71Z"/></g><g class="cls-1"><path d="M110.68,109.65h-1.81V102.6h-2.33v-1.51H113v1.51h-2.33Z"/></g><g class="cls-1"><path d="M160.36,109.91h-2.07l-1.16-4.5c0-.16-.12-.49-.22-1a8.12,8.12,0,0,1-.18-1,9.7,9.7,0,0,1-.18,1c-.09.47-.16.8-.21,1l-1.16,4.49h-2.06l-2.19-8.57h1.79l1.1,4.68c.19.86.33,1.61.41,2.24,0-.22.08-.56.16-1s.17-.83.24-1.09l1.25-4.8h1.72l1.24,4.8q.09.33.21,1c.08.44.14.82.19,1.13q.06-.45.18-1.14c.09-.45.17-.82.24-1.1l1.09-4.68h1.79Z"/></g><g class="cls-1"><path d="M200.66,108.61h-1.81v-7h-2.33v-1.51H203v1.51h-2.33Z"/><path d="M210.21,108.61h-1.78v-3.82c0-1-.36-1.42-1.06-1.42a1.19,1.19,0,0,0-1.08.51,3,3,0,0,0-.34,1.65v3.08h-1.78V99.5H206v1.85c0,.15,0,.49,0,1l0,.53H206a2.08,2.08,0,0,1,1.9-1,2.36,2.36,0,0,1,1.76.62,2.51,2.51,0,0,1,.59,1.78Z"/></g><g class="cls-1"><path d="M250.23,108.87h-1.79v-8.56h4.91v1.49h-3.12V104h2.91v1.49h-2.91Z"/></g><g class="cls-1"><path d="M294.22,106a2.21,2.21,0,0,1-.83,1.82,3.61,3.61,0,0,1-2.33.67,5.48,5.48,0,0,1-2.42-.51v-1.69a9.19,9.19,0,0,0,1.47.54,4.11,4.11,0,0,0,1.09.16,1.51,1.51,0,0,0,.92-.23.78.78,0,0,0,.32-.68.77.77,0,0,0-.14-.44,1.52,1.52,0,0,0-.41-.38,10.46,10.46,0,0,0-1.11-.58,5.11,5.11,0,0,1-1.18-.71,2.82,2.82,0,0,1-.63-.79,2.33,2.33,0,0,1-.23-1.06,2.19,2.19,0,0,1,.77-1.78,3.15,3.15,0,0,1,2.13-.65,5.26,5.26,0,0,1,1.27.15,9.26,9.26,0,0,1,1.27.45l-.59,1.41a7.3,7.3,0,0,0-1.13-.39,3.37,3.37,0,0,0-.88-.11,1.17,1.17,0,0,0-.79.24.77.77,0,0,0-.28.62.79.79,0,0,0,.11.42,1.34,1.34,0,0,0,.36.35,10.66,10.66,0,0,0,1.15.6,4.66,4.66,0,0,1,1.65,1.15A2.31,2.31,0,0,1,294.22,106Z"/><path d="M299.79,108.36l-.34-.9h-.05a2.55,2.55,0,0,1-.93.79,2.93,2.93,0,0,1-1.24.22,2,2,0,0,1-1.49-.54,2.07,2.07,0,0,1-.54-1.53,1.72,1.72,0,0,1,.73-1.54,4.28,4.28,0,0,1,2.2-.55l1.14,0V104a.9.9,0,0,0-1-1,4.61,4.61,0,0,0-1.85.48l-.59-1.21a5.37,5.37,0,0,1,2.51-.59,3.14,3.14,0,0,1,2,.57A2.14,2.14,0,0,1,301,104v4.37Zm-.52-3-.69,0a2.26,2.26,0,0,0-1.16.28.9.9,0,0,0-.39.79c0,.5.29.76.87.76a1.34,1.34,0,0,0,1-.36,1.27,1.27,0,0,0,.38-1Z"/><path d="M305.64,107.05a3.85,3.85,0,0,0,1.13-.21v1.33a4,4,0,0,1-1.64.3,2,2,0,0,1-1.57-.54,2.39,2.39,0,0,1-.48-1.63v-3.15h-.86v-.76l1-.6.52-1.38h1.14v1.39h1.84v1.35h-1.84v3.15a.68.68,0,0,0,.22.57A.84.84,0,0,0,305.64,107.05Z"/></g><g class="cls-1"><path d="M10.79,106.75a2.19,2.19,0,0,1-.83,1.83,3.6,3.6,0,0,1-2.32.67,5.36,5.36,0,0,1-2.43-.52v-1.68a10.28,10.28,0,0,0,1.47.54,4.17,4.17,0,0,0,1.1.16,1.55,1.55,0,0,0,.91-.23.76.76,0,0,0,.32-.68.71.71,0,0,0-.14-.45,1.5,1.5,0,0,0-.41-.37,8.13,8.13,0,0,0-1.11-.58,5.76,5.76,0,0,1-1.18-.71,2.82,2.82,0,0,1-.63-.79,2.39,2.39,0,0,1-.23-1.06,2.24,2.24,0,0,1,.77-1.79,3.21,3.21,0,0,1,2.13-.65,5.34,5.34,0,0,1,1.28.16,9.64,9.64,0,0,1,1.26.45l-.58,1.41A7.74,7.74,0,0,0,9,102.07a3.32,3.32,0,0,0-.88-.11,1.17,1.17,0,0,0-.79.24.78.78,0,0,0-.27.62.73.73,0,0,0,.11.42,1.16,1.16,0,0,0,.35.35,11.82,11.82,0,0,0,1.15.6,4.54,4.54,0,0,1,1.65,1.15A2.22,2.22,0,0,1,10.79,106.75Z"/><path d="M16.85,109.13l-.24-.84h-.1a1.87,1.87,0,0,1-.81.71,2.71,2.71,0,0,1-1.2.25,2.29,2.29,0,0,1-1.74-.62,2.48,2.48,0,0,1-.59-1.78v-4.27H14v3.83a1.8,1.8,0,0,0,.25,1.06.92.92,0,0,0,.8.36,1.22,1.22,0,0,0,1.09-.5,3.17,3.17,0,0,0,.33-1.67v-3.08h1.79v6.55Z"/><path d="M26.14,109.13H24.35v-3.82a1.84,1.84,0,0,0-.25-1.07.92.92,0,0,0-.8-.35,1.23,1.23,0,0,0-1.09.5,3.13,3.13,0,0,0-.33,1.66v3.08H20.09v-6.55h1.37l.24.84h.1a1.85,1.85,0,0,1,.82-.72,2.84,2.84,0,0,1,1.19-.24,2.31,2.31,0,0,1,1.74.62,2.48,2.48,0,0,1,.59,1.78Z"/></g><polyline class="cls-4" points="5.62 67.96 62.55 82.95 109.44 72.79 159.26 52.68 200.04 72.8 253.23 63.47 299.13 19.91"/></g></g></svg>