<svg xmlns="http://www.w3.org/2000/svg" viewBox="0 0 310.21 109.91"><defs><style>.cls-1{isolation:isolate;}.cls-2{fill:#3993bc;}.cls-3,.cls-4{fill:none;}.cls-3{stroke:#484546;stroke-miterlimit:10;stroke-width:0.99px;}.cls-4{stroke:#79ad84;stroke-linecap:round;stroke-linejoin:round;stroke-width:3.12px;}</style></defs><title>walk-pug</title><g id="Layer_2" data-name="Layer 2"><g id="Layer_1-2" data-name="Layer 1"><g class="cls-1"><path d="M75.23,2.52,73.78,8.17a4.75,4.75,0,0,1-.27.83,2.24,2.24,0,0,1-.38.62,1.59,1.59,0,0,1-.55.4,2,2,0,0,1-.78.14,1.47,1.47,0,0,1-1.12-.44A2.93,2.93,0,0,1,70,8.37L68.4,1.78a1.64,1.64,0,0,1-.05-.37,1.3,1.3,0,0,1,.1-.49,1.18,1.18,0,0,1,.24-.37,1.26,1.26,0,0,1,.36-.24.94.94,0,0,1,.41-.08,1.12,1.12,0,0,1,.35.06,1,1,0,0,1,.33.22,1.09,1.09,0,0,1,.28.37,1.9,1.9,0,0,1,.18.54L72,7.91l1.47-5.7c.07-.25.14-.5.23-.74A2.67,2.67,0,0,1,74,.84,1.41,1.41,0,0,1,74.5.39a1.49,1.49,0,0,1,.73-.16,1.41,1.41,0,0,1,1.14.52,2.17,2.17,0,0,1,.37.62,5.84,5.84,0,0,1,.29.84c.26,1,.51,1.9.76,2.84s.5,1.9.76,2.85l1.36-6.57A2.17,2.17,0,0,1,80.1.84,1.37,1.37,0,0,1,80.39.5a.91.91,0,0,1,.35-.21,1.06,1.06,0,0,1,.38-.07,1,1,0,0,1,.38.07.72.72,0,0,1,.31.21A.93.93,0,0,1,82,.84a1.32,1.32,0,0,1,.08.47,1.86,1.86,0,0,1-.06.45L80.5,8.13a7.21,7.21,0,0,1-.26.82,2.5,2.5,0,0,1-.37.64,1.51,1.51,0,0,1-.52.42,1.64,1.64,0,0,1-.73.15,1.84,1.84,0,0,1-.74-.14,1.62,1.62,0,0,1-.54-.41,2.74,2.74,0,0,1-.4-.7,9.92,9.92,0,0,1-.32-1Z"/><path d="M91.34,8.09c0,.08.07.16.11.25l.1.27a2.76,2.76,0,0,1,.08.27,1,1,0,0,1,0,.23,1,1,0,0,1-.09.44,1.2,1.2,0,0,1-.25.33,1.23,1.23,0,0,1-.37.21,1.56,1.56,0,0,1-.44.07,1.26,1.26,0,0,1-.46-.08.88.88,0,0,1-.34-.24,2,2,0,0,1-.28-.42c-.08-.18-.17-.39-.27-.65l-.32-.87H85l-.28.87c-.09.26-.17.48-.25.66a1.8,1.8,0,0,1-.28.42,1,1,0,0,1-.36.24,1.53,1.53,0,0,1-.46.07,1.56,1.56,0,0,1-.44-.07,1.23,1.23,0,0,1-.37-.21,1,1,0,0,1-.25-.33,1,1,0,0,1-.09-.44,1,1,0,0,1,0-.23,2.76,2.76,0,0,1,.08-.27l.1-.27c0-.09.07-.17.11-.25l1.83-5c.18-.47.34-.88.5-1.24a4.45,4.45,0,0,1,.52-.9A2,2,0,0,1,86,.42a1.93,1.93,0,0,1,.9-.19,2.1,2.1,0,0,1,.84.15,1.69,1.69,0,0,1,.63.49,4.17,4.17,0,0,1,.53.89c.17.37.36.82.56,1.36Zm-4.45-6L85.38,6.49h3L86.92,2.1Z"/><path d="M99.1,8.34a.89.89,0,0,1,.36.07.94.94,0,0,1,.29.2,1,1,0,0,1,.19.29.91.91,0,0,1,0,.7,1,1,0,0,1-.19.29,1.15,1.15,0,0,1-.29.2,1.1,1.1,0,0,1-.36.07H94.42a1.13,1.13,0,0,1-.61-.16,1.18,1.18,0,0,1-.4-.43,1.79,1.79,0,0,1-.2-.59,4,4,0,0,1-.06-.69V1.56a1.27,1.27,0,0,1,.1-.52,1.12,1.12,0,0,1,.27-.43,1.26,1.26,0,0,1,.4-.28,1.16,1.16,0,0,1,.49-.1,1.18,1.18,0,0,1,.5.1,1.26,1.26,0,0,1,.4.28,1.28,1.28,0,0,1,.28.43,1.46,1.46,0,0,1,.1.52V8.34Z"/><path d="M103.89,4.59l2.64-3.47a4.17,4.17,0,0,1,.59-.64,1,1,0,0,1,.66-.25,1.2,1.2,0,0,1,.42.08,1.25,1.25,0,0,1,.37.22,1.27,1.27,0,0,1,.27.34.84.84,0,0,1,.1.42.74.74,0,0,1-.06.28,1.4,1.4,0,0,1-.16.29,2.73,2.73,0,0,1-.21.3c-.08.09-.15.19-.23.27l-2,2.39,2.38,3c.08.09.15.19.23.3s.15.22.21.32a1.59,1.59,0,0,1,.16.32.79.79,0,0,1,.06.29.91.91,0,0,1-.1.43,1.65,1.65,0,0,1-.28.36,1.28,1.28,0,0,1-.39.24,1.06,1.06,0,0,1-.42.09,1,1,0,0,1-.46-.11,1.8,1.8,0,0,1-.4-.28,3.15,3.15,0,0,1-.35-.38c-.11-.13-.21-.27-.31-.4l-2.68-3.64V8.83a1.3,1.3,0,0,1-.1.52,1.17,1.17,0,0,1-.27.42,1.41,1.41,0,0,1-.4.29,1.3,1.3,0,0,1-1,0,1.41,1.41,0,0,1-.4-.29,1.51,1.51,0,0,1-.27-.42,1.5,1.5,0,0,1-.09-.52V1.56a1.46,1.46,0,0,1,.09-.52,1.43,1.43,0,0,1,.27-.43,1.38,1.38,0,0,1,.4-.28,1.21,1.21,0,0,1,.5-.1,1.19,1.19,0,0,1,.49.1,1.26,1.26,0,0,1,.4.28,1.28,1.28,0,0,1,.28.43,1.27,1.27,0,0,1,.1.52Z"/><path d="M125.53,2.62c-.4,1-.77,1.89-1.09,2.68-.13.33-.27.66-.39,1l-.35.86c-.1.25-.18.45-.25.61l-.09.22a6.62,6.62,0,0,1-.3.66,2.52,2.52,0,0,1-.37.55,1.51,1.51,0,0,1-.46.38,1.25,1.25,0,0,1-.59.14,1.19,1.19,0,0,1-.54-.11,1.27,1.27,0,0,1-.43-.32,2.3,2.3,0,0,1-.36-.54A5.94,5.94,0,0,1,120,8l-2.16-5.33V9.17a.91.91,0,0,1-.08.39,1,1,0,0,1-.21.32,1.48,1.48,0,0,1-.32.21,1.09,1.09,0,0,1-.39.08,1,1,0,0,1-.39-.08,1.48,1.48,0,0,1-.32-.21,1,1,0,0,1-.21-.32,1.09,1.09,0,0,1-.08-.39V2.86a9.06,9.06,0,0,1,.06-1.09,2.45,2.45,0,0,1,.25-.83,1.42,1.42,0,0,1,.53-.53,1.87,1.87,0,0,1,.89-.18,1.63,1.63,0,0,1,.69.13,1.63,1.63,0,0,1,.56.44,4.94,4.94,0,0,1,.5.79c.16.33.33.72.53,1.18l1.82,4.41h.06l1.84-4.41c.17-.39.33-.75.48-1.06a4.25,4.25,0,0,1,.51-.8,2,2,0,0,1,.58-.51,1.52,1.52,0,0,1,.71-.17,2,2,0,0,1,.77.13,1.18,1.18,0,0,1,.53.41,2,2,0,0,1,.31.74,5,5,0,0,1,.1,1.1V9.17a1.07,1.07,0,0,1-.07.39,1.21,1.21,0,0,1-.22.32,1.48,1.48,0,0,1-.32.21,1,1,0,0,1-.78,0,1.48,1.48,0,0,1-.32-.21,1,1,0,0,1-.21-.32,1.09,1.09,0,0,1-.08-.39Z"/><path d="M132.31,8.83a1.3,1.3,0,0,1-.1.52,1.17,1.17,0,0,1-.27.42,1.41,1.41,0,0,1-.4.29,1.3,1.3,0,0,1-1,0,1.24,1.24,0,0,1-.39-.29,1.17,1.17,0,0,1-.27-.42,1.3,1.3,0,0,1-.1-.52V1.56a1.27,1.27,0,0,1,.1-.52,1.12,1.12,0,0,1,.27-.43,1.25,1.25,0,0,1,1.39-.28,1.38,1.38,0,0,1,.4.28,1.12,1.12,0,0,1,.27.43,1.27,1.27,0,0,1,.1.52Z"/><path d="M140.39,8.34a.81.81,0,0,1,.35.07.75.75,0,0,1,.29.2.89.89,0,0,1,0,1.28.88.88,0,0,1-.29.2,1,1,0,0,1-.35.07h-4.68a1.19,1.19,0,0,1-.62-.16,1.24,1.24,0,0,1-.39-.43,1.59,1.59,0,0,1-.2-.59,4,4,0,0,1-.06-.69V1.56a1.27,1.27,0,0,1,.1-.52,1.12,1.12,0,0,1,.27-.43,1.15,1.15,0,0,1,.4-.28,1.13,1.13,0,0,1,.49-.1,1.18,1.18,0,0,1,.5.1,1.26,1.26,0,0,1,.4.28,1.28,1.28,0,0,1,.28.43,1.46,1.46,0,0,1,.09.52V8.34Z"/><path d="M143.86,10.16a1.06,1.06,0,0,1-.58-.15,1.12,1.12,0,0,1-.38-.37,1.65,1.65,0,0,1-.2-.51,2.36,2.36,0,0,1-.07-.58V2a5.31,5.31,0,0,1,.05-.72,1.21,1.21,0,0,1,.21-.57,1.09,1.09,0,0,1,.48-.38,2.18,2.18,0,0,1,.85-.14h4.39A1.11,1.11,0,0,1,149,.3a1.1,1.1,0,0,1,.31.2,1,1,0,0,1,.2.28.82.82,0,0,1,.08.35.77.77,0,0,1-.08.34,1,1,0,0,1-.2.28.89.89,0,0,1-.31.19.9.9,0,0,1-.37.07h-3.52V4.22h3.21a1.11,1.11,0,0,1,.37.07,1.08,1.08,0,0,1,.31.19,1.15,1.15,0,0,1,.2.29.81.81,0,0,1,.08.34.82.82,0,0,1-.08.35,1,1,0,0,1-.2.28,1.08,1.08,0,0,1-.31.19,1.11,1.11,0,0,1-.37.07h-3.21V8.39h3.69a.84.84,0,0,1,.35.07.87.87,0,0,1,.28.19.92.92,0,0,1,.19.28.81.81,0,0,1,.07.35.8.8,0,0,1-.07.34.92.92,0,0,1-.19.28,1.07,1.07,0,0,1-.28.19.84.84,0,0,1-.35.07Z"/><path d="M159.8,8.09c0,.08.07.16.1.25s.07.18.1.27a1.38,1.38,0,0,1,.08.27,1,1,0,0,1,0,.23,1,1,0,0,1-.09.44.9.9,0,0,1-.25.33,1.07,1.07,0,0,1-.36.21,1.62,1.62,0,0,1-.44.07,1.22,1.22,0,0,1-.46-.08.88.88,0,0,1-.34-.24,1.71,1.71,0,0,1-.28-.42,5.35,5.35,0,0,1-.27-.65l-.33-.87h-3.87l-.28.87a4.39,4.39,0,0,1-.25.66,1.53,1.53,0,0,1-.28.42.92.92,0,0,1-.35.24,1.51,1.51,0,0,1-.91,0,1.07,1.07,0,0,1-.36-.21.9.9,0,0,1-.25-.33,1,1,0,0,1-.09-.44,1,1,0,0,1,0-.23,1.38,1.38,0,0,1,.08-.27c0-.09.06-.18.1-.27s.07-.17.1-.25l1.84-5c.17-.47.34-.88.49-1.24a5,5,0,0,1,.52-.9,1.94,1.94,0,0,1,.66-.56,1.86,1.86,0,0,1,.89-.19,2.1,2.1,0,0,1,.84.15,1.55,1.55,0,0,1,.63.49,3.8,3.8,0,0,1,.54.89c.16.37.35.82.56,1.36Zm-4.46-6-1.5,4.39h3L155.38,2.1Z"/><path d="M169.06,4.81a1.35,1.35,0,0,1,.44.07.54.54,0,0,1,.25.22,1,1,0,0,1,.12.37,3.63,3.63,0,0,1,0,.5V8a4.56,4.56,0,0,1-.07.9,1.42,1.42,0,0,1-.27.61,1.32,1.32,0,0,1-.56.4,4.84,4.84,0,0,1-.93.23l-.53.09-.57.08-.57,0-.53,0a7.29,7.29,0,0,1-2.17-.31,4.34,4.34,0,0,1-1.65-.95A4.14,4.14,0,0,1,161,7.52a6.76,6.76,0,0,1-.37-2.32,6.67,6.67,0,0,1,.31-2,4.66,4.66,0,0,1,.95-1.65A4.47,4.47,0,0,1,163.52.41,6.07,6.07,0,0,1,165.85,0a8.44,8.44,0,0,1,.87,0c.28,0,.56.07.83.12s.52.12.76.19a5.39,5.39,0,0,1,.68.24,1,1,0,0,1,.45.35.86.86,0,0,1,.16.48.79.79,0,0,1-.26.64,1,1,0,0,1-.65.22,2.25,2.25,0,0,1-.5-.07L167.51,2c-.24-.07-.48-.13-.73-.18a3.47,3.47,0,0,0-.68-.08,3.16,3.16,0,0,0-1.29.24,2.22,2.22,0,0,0-.87.7,3,3,0,0,0-.5,1.12,6.08,6.08,0,0,0-.16,1.47,7.6,7.6,0,0,0,.14,1.55,2.5,2.5,0,0,0,.45,1,1.7,1.7,0,0,0,.79.57,3.27,3.27,0,0,0,1.15.18c.28,0,.55,0,.83,0a3.6,3.6,0,0,0,.8-.12V6.25h-.91a1.51,1.51,0,0,1-.39,0,.87.87,0,0,1-.31-.12.58.58,0,0,1-.21-.23.71.71,0,0,1-.08-.34.7.7,0,0,1,.21-.52.91.91,0,0,1,.64-.19h2.67Z"/><path d="M173.1,10.16a1.08,1.08,0,0,1-.59-.15,1.12,1.12,0,0,1-.38-.37,1.65,1.65,0,0,1-.2-.51,3,3,0,0,1-.07-.58V2a5.31,5.31,0,0,1,0-.72,1.33,1.33,0,0,1,.21-.57,1.09,1.09,0,0,1,.48-.38,2.21,2.21,0,0,1,.85-.14h4.39a1.11,1.11,0,0,1,.37.07,1.1,1.1,0,0,1,.31.2,1,1,0,0,1,.2.28.82.82,0,0,1,.08.35.77.77,0,0,1-.08.34,1,1,0,0,1-.2.28.89.89,0,0,1-.31.19.9.9,0,0,1-.37.07h-3.52V4.22h3.21a1.11,1.11,0,0,1,.37.07,1.08,1.08,0,0,1,.31.19,1.15,1.15,0,0,1,.2.29.81.81,0,0,1,.08.34.82.82,0,0,1-.08.35,1,1,0,0,1-.2.28,1.08,1.08,0,0,1-.31.19,1.11,1.11,0,0,1-.37.07h-3.21V8.39H178a.84.84,0,0,1,.35.07.87.87,0,0,1,.28.19.77.77,0,0,1,.19.28.81.81,0,0,1,.07.35.8.8,0,0,1-.07.34.77.77,0,0,1-.19.28,1.07,1.07,0,0,1-.28.19.84.84,0,0,1-.35.07Z"/><path d="M187.53,8.83a1.31,1.31,0,0,1-.11.52,1.51,1.51,0,0,1-.27.42,1.33,1.33,0,0,1-.41.29,1.3,1.3,0,0,1-.49.1,1.35,1.35,0,0,1-.5-.1,1.41,1.41,0,0,1-.4-.29,1.36,1.36,0,0,1-.37-.94V2.11a5.74,5.74,0,0,1,.05-.74,1.59,1.59,0,0,1,.22-.6,1.13,1.13,0,0,1,.5-.4,2.08,2.08,0,0,1,.87-.14h2.47a8.35,8.35,0,0,1,1.52.13,3.7,3.7,0,0,1,1.28.48,2.54,2.54,0,0,1,.9.94,3.1,3.1,0,0,1,.33,1.51,2.9,2.9,0,0,1-.29,1.36,2.45,2.45,0,0,1-.82,1,3.44,3.44,0,0,1-1.27.57,6.56,6.56,0,0,1-1.65.19h-1.56Zm1.14-4a3.87,3.87,0,0,0,.8-.08,1.58,1.58,0,0,0,.62-.25,1.12,1.12,0,0,0,.4-.46,1.67,1.67,0,0,0,.15-.77,1.78,1.78,0,0,0-.14-.76,1.27,1.27,0,0,0-.38-.45,1.69,1.69,0,0,0-.58-.24,3.52,3.52,0,0,0-.75-.08h-1.26V4.85Z"/><path d="M195.74,10.16a1.08,1.08,0,0,1-.59-.15,1.12,1.12,0,0,1-.38-.37,1.65,1.65,0,0,1-.2-.51,2.93,2.93,0,0,1-.06-.58V2a5.39,5.39,0,0,1,0-.72,1.22,1.22,0,0,1,.22-.57,1,1,0,0,1,.47-.38,2.21,2.21,0,0,1,.85-.14h4.39a1.11,1.11,0,0,1,.37.07,1.1,1.1,0,0,1,.31.2,1,1,0,0,1,.2.28.82.82,0,0,1,.08.35.77.77,0,0,1-.08.34,1,1,0,0,1-.2.28.89.89,0,0,1-.31.19.9.9,0,0,1-.37.07H197V4.22h3.21a1.11,1.11,0,0,1,.37.07,1.08,1.08,0,0,1,.31.19.94.94,0,0,1,.2.29.81.81,0,0,1,.08.34.82.82,0,0,1-.08.35.8.8,0,0,1-.2.28,1.08,1.08,0,0,1-.31.19,1.11,1.11,0,0,1-.37.07H197V8.39h3.69a.84.84,0,0,1,.35.07.87.87,0,0,1,.28.19.77.77,0,0,1,.19.28.81.81,0,0,1,.07.35.8.8,0,0,1-.07.34.77.77,0,0,1-.19.28,1.07,1.07,0,0,1-.28.19.84.84,0,0,1-.35.07Z"/><path d="M205.74,8.83a1.3,1.3,0,0,1-.1.52,1.17,1.17,0,0,1-.27.42,1.41,1.41,0,0,1-.4.29,1.39,1.39,0,0,1-.5.1,1.3,1.3,0,0,1-.49-.1,1.18,1.18,0,0,1-.4-.29,1.17,1.17,0,0,1-.27-.42,1.3,1.3,0,0,1-.1-.52V1.48a1.2,1.2,0,0,1,.12-.55,1.28,1.28,0,0,1,.34-.39,1.79,1.79,0,0,1,.5-.24,2.35,2.35,0,0,1,.6-.07h2.74A11.29,11.29,0,0,1,209,.32a3.7,3.7,0,0,1,1.23.38,2.15,2.15,0,0,1,.85.76,2.26,2.26,0,0,1,.32,1.26,2.63,2.63,0,0,1-.12.8,1.87,1.87,0,0,1-.38.69,2.31,2.31,0,0,1-.68.52,3.39,3.39,0,0,1-1,.31v0a3.88,3.88,0,0,1,.75.16,1.77,1.77,0,0,1,.53.28,1.44,1.44,0,0,1,.36.42,2.33,2.33,0,0,1,.22.58,6.58,6.58,0,0,1,.15.77c0,.28.07.6.1,1,0,.1,0,.2,0,.3a2.44,2.44,0,0,1,0,.27,2.23,2.23,0,0,1-.06.54,1,1,0,0,1-.19.43.87.87,0,0,1-.37.27,1.58,1.58,0,0,1-.62.1.94.94,0,0,1-.57-.16,1.15,1.15,0,0,1-.38-.43,2.23,2.23,0,0,1-.23-.63c-.05-.24-.09-.49-.13-.77s-.09-.73-.14-1a1.77,1.77,0,0,0-.22-.65.92.92,0,0,0-.45-.35,2.48,2.48,0,0,0-.8-.1h-1.39Zm1.06-4.35a6,6,0,0,0,.73,0,2.27,2.27,0,0,0,.67-.18,1.2,1.2,0,0,0,.48-.41,1.24,1.24,0,0,0,.19-.73,1.41,1.41,0,0,0-.18-.78,1.09,1.09,0,0,0-.47-.38,2,2,0,0,0-.68-.17q-.39,0-.81,0h-1V4.48Z"/><path d="M222.83,2.52l-1.45,5.65a7.36,7.36,0,0,1-.27.83,2.5,2.5,0,0,1-.38.62,1.69,1.69,0,0,1-.55.4,2.05,2.05,0,0,1-.78.14,1.49,1.49,0,0,1-1.13-.44,2.93,2.93,0,0,1-.64-1.35L216,1.78a1.64,1.64,0,0,1-.05-.37A1.3,1.3,0,0,1,216,.92a1.21,1.21,0,0,1,.25-.37,1.21,1.21,0,0,1,.35-.24,1,1,0,0,1,.41-.08,1.13,1.13,0,0,1,.36.06,1.26,1.26,0,0,1,.33.22,1.22,1.22,0,0,1,.27.37,2.27,2.27,0,0,1,.19.54l1.37,6.49,1.48-5.7c.06-.25.14-.5.22-.74a2.67,2.67,0,0,1,.33-.63,1.53,1.53,0,0,1,.5-.45,1.42,1.42,0,0,1,.72-.16,1.48,1.48,0,0,1,.65.13,1.41,1.41,0,0,1,.49.39,2.18,2.18,0,0,1,.38.62,5.89,5.89,0,0,1,.28.84c.26,1,.52,1.9.77,2.84l.75,2.85,1.37-6.57a1.78,1.78,0,0,1,.18-.49A1.62,1.62,0,0,1,228,.5a1,1,0,0,1,.36-.21,1,1,0,0,1,.38-.07.94.94,0,0,1,.37.07.75.75,0,0,1,.32.21,1.05,1.05,0,0,1,.22.34,1.13,1.13,0,0,1,.09.47,1.86,1.86,0,0,1-.06.45l-1.57,6.37a5.65,5.65,0,0,1-.26.82,2.47,2.47,0,0,1-.36.64A1.61,1.61,0,0,1,227,10a1.68,1.68,0,0,1-.74.15,1.79,1.79,0,0,1-.73-.14,1.44,1.44,0,0,1-.54-.41,2.47,2.47,0,0,1-.4-.7,7.82,7.82,0,0,1-.33-1Z"/><path d="M232.25,10.16a1.08,1.08,0,0,1-.59-.15,1.12,1.12,0,0,1-.38-.37,1.65,1.65,0,0,1-.2-.51,2.93,2.93,0,0,1-.06-.58V2a5.39,5.39,0,0,1,0-.72,1.34,1.34,0,0,1,.22-.57,1.06,1.06,0,0,1,.47-.38,2.21,2.21,0,0,1,.85-.14H237a1.11,1.11,0,0,1,.37.07,1.1,1.1,0,0,1,.31.2,1,1,0,0,1,.2.28.82.82,0,0,1,.08.35.77.77,0,0,1-.08.34,1,1,0,0,1-.2.28.89.89,0,0,1-.31.19A.9.9,0,0,1,237,2h-3.52V4.22h3.21a1,1,0,0,1,.68.26.94.94,0,0,1,.2.29.68.68,0,0,1,.08.34.69.69,0,0,1-.08.35.8.8,0,0,1-.2.28,1,1,0,0,1-.68.26h-3.21V8.39h3.69a.84.84,0,0,1,.35.07.87.87,0,0,1,.28.19.77.77,0,0,1,.19.28.81.81,0,0,1,.07.35.8.8,0,0,1-.07.34.77.77,0,0,1-.19.28,1.07,1.07,0,0,1-.28.19.84.84,0,0,1-.35.07Z"/><path d="M240.94,10.16a1.1,1.1,0,0,1-1-.52,1.45,1.45,0,0,1-.21-.51,2.93,2.93,0,0,1-.06-.58V2a5.31,5.31,0,0,1,0-.72A1.21,1.21,0,0,1,240,.75a1.09,1.09,0,0,1,.48-.38,2.18,2.18,0,0,1,.85-.14h4.39a1.16,1.16,0,0,1,.37.07,1,1,0,0,1,.3.2.83.83,0,0,1,.21.28.81.81,0,0,1,.07.35.77.77,0,0,1-.07.34.83.83,0,0,1-.21.28.85.85,0,0,1-.3.19.94.94,0,0,1-.37.07h-3.52V4.22h3.21a1.16,1.16,0,0,1,.37.07,1.08,1.08,0,0,1,.31.19,1.15,1.15,0,0,1,.2.29.81.81,0,0,1,.08.34.82.82,0,0,1-.08.35,1,1,0,0,1-.2.28,1.08,1.08,0,0,1-.31.19,1.16,1.16,0,0,1-.37.07h-3.21V8.39h3.69a.77.77,0,0,1,.34.07.91.91,0,0,1,.29.19.92.92,0,0,1,.19.28.89.89,0,0,1,0,.69.92.92,0,0,1-.19.28,1.12,1.12,0,0,1-.29.19.77.77,0,0,1-.34.07Z"/><path d="M251,4.59l2.65-3.47a4.15,4.15,0,0,1,.58-.64,1,1,0,0,1,.67-.25,1.15,1.15,0,0,1,.41.08,1.25,1.25,0,0,1,.37.22,1.27,1.27,0,0,1,.27.34.84.84,0,0,1,.1.42.74.74,0,0,1-.06.28,2,2,0,0,1-.15.29l-.22.3-.22.27-2,2.39,2.38,3c.08.09.15.19.23.3s.15.22.21.32a1.59,1.59,0,0,1,.16.32.79.79,0,0,1,.06.29.91.91,0,0,1-.1.43,1.4,1.4,0,0,1-.28.36,1.28,1.28,0,0,1-.39.24,1.06,1.06,0,0,1-.42.09,1,1,0,0,1-.46-.11,1.8,1.8,0,0,1-.4-.28,3.15,3.15,0,0,1-.35-.38c-.11-.13-.21-.27-.3-.4L251,5.35V8.83a1.3,1.3,0,0,1-.1.52,1.17,1.17,0,0,1-.27.42,1.41,1.41,0,0,1-.4.29,1.39,1.39,0,0,1-.5.1,1.3,1.3,0,0,1-.49-.1,1.18,1.18,0,0,1-.4-.29,1.17,1.17,0,0,1-.27-.42,1.3,1.3,0,0,1-.1-.52V1.56a1.27,1.27,0,0,1,.1-.52,1.12,1.12,0,0,1,.27-.43,1.15,1.15,0,0,1,.4-.28,1.13,1.13,0,0,1,.49-.1,1.19,1.19,0,0,1,.49.1,1.26,1.26,0,0,1,.4.28,1.28,1.28,0,0,1,.28.43,1.27,1.27,0,0,1,.1.52Z"/></g><g class="cls-1"><path class="cls-2" d="M142.31,26.32a3.24,3.24,0,0,1,2.31.81,2.93,2.93,0,0,1,.85,2.23,3.25,3.25,0,0,1-1,2.58,4.35,4.35,0,0,1-2.95.9,5.77,5.77,0,0,1-2.69-.54V30.47a5.09,5.09,0,0,0,1.25.47,5.66,5.66,0,0,0,1.36.18c1.29,0,1.94-.53,1.94-1.58s-.67-1.51-2-1.51a4.64,4.64,0,0,0-.8.07c-.3,0-.53.1-.72.15L139,27.8l.38-5.09h5.42V24.5h-3.57l-.18,2,.24-.05A4.92,4.92,0,0,1,142.31,26.32Z"/><path class="cls-2" d="M157.68,32.7h-2.09V28.24a2.19,2.19,0,0,0-.28-1.24,1,1,0,0,0-.87-.42,1.27,1.27,0,0,0-1.16.59,3.89,3.89,0,0,0-.36,1.94V32.7h-2.09V25.06h1.6l.28,1h.11a2.17,2.17,0,0,1,.89-.83,2.86,2.86,0,0,1,1.33-.29A2.4,2.4,0,0,1,157.37,26h.18a2.1,2.1,0,0,1,.91-.83,3,3,0,0,1,1.35-.29,2.67,2.67,0,0,1,2,.66,2.92,2.92,0,0,1,.67,2.14v5h-2.09V28.24a2.19,2.19,0,0,0-.28-1.24,1,1,0,0,0-.87-.42,1.3,1.3,0,0,0-1.14.55,3.05,3.05,0,0,0-.38,1.74Z"/><path class="cls-2" d="M164.49,23.08c0-.67.38-1,1.14-1s1.13.34,1.13,1a1,1,0,0,1-.28.76,1.2,1.2,0,0,1-.85.27C164.87,24.11,164.49,23.77,164.49,23.08Zm2.18,9.62h-2.09V25.06h2.09Z"/><path class="cls-2" d="M170.94,32.7h-2.09V22.07h2.09Z"/><path class="cls-2" d="M176.58,32.84a3.93,3.93,0,0,1-2.88-1,3.86,3.86,0,0,1-1-2.88,4.24,4.24,0,0,1,1-3,3.43,3.43,0,0,1,2.66-1,3.34,3.34,0,0,1,2.52.92,3.48,3.48,0,0,1,.9,2.55v1h-4.93a2,2,0,0,0,.53,1.39,1.87,1.87,0,0,0,1.38.5,5.53,5.53,0,0,0,1.31-.15,6.15,6.15,0,0,0,1.28-.45V32.3a4.91,4.91,0,0,1-1.17.41A8,8,0,0,1,176.58,32.84Zm-.29-6.44a1.33,1.33,0,0,0-1,.42,2,2,0,0,0-.43,1.19h2.93a1.74,1.74,0,0,0-.41-1.19A1.36,1.36,0,0,0,176.29,26.4Z"/><path class="cls-2" d="M186.73,30.43a2.08,2.08,0,0,1-.82,1.79,4,4,0,0,1-2.44.62,8.11,8.11,0,0,1-1.42-.11,5.24,5.24,0,0,1-1.1-.34V30.67a7.05,7.05,0,0,0,1.3.46,5.52,5.52,0,0,0,1.29.18c.75,0,1.13-.21,1.13-.65a.54.54,0,0,0-.15-.4,2.17,2.17,0,0,0-.52-.35c-.24-.13-.57-.28-1-.45a6.44,6.44,0,0,1-1.3-.69,2,2,0,0,1-.6-.72,2.29,2.29,0,0,1-.19-1,1.84,1.84,0,0,1,.79-1.58,3.86,3.86,0,0,1,2.24-.55,6.38,6.38,0,0,1,2.69.6L186,27a10.43,10.43,0,0,0-1.08-.4,3.18,3.18,0,0,0-1-.16c-.62,0-.93.17-.93.5a.59.59,0,0,0,.3.49,8.12,8.12,0,0,0,1.3.6,6,6,0,0,1,1.32.68,2,2,0,0,1,.61.73A2.21,2.21,0,0,1,186.73,30.43Z"/></g><line class="cls-3" y1="91.88" x2="310.21" y2="91.88"/><g class="cls-1"><path d="M62.75,109.39l-2.06-6.72h-.06c.08,1.37.11,2.28.11,2.74v4H59.12v-8.56h2.47l2,6.55h0l2.15-6.55h2.47v8.56H66.59v-4.71c0-.25,0-.92.08-2h0l-2.21,6.71Z"/></g><g class="cls-1"><path d="M111.57,109.65h-1.82V102.6h-2.32v-1.51h6.47v1.51h-2.33Z"/></g><g class="cls-1"><path d="M161.24,109.91h-2.07l-1.16-4.5c0-.16-.11-.49-.22-1a9.66,9.66,0,0,1-.17-1c0,.21-.09.55-.18,1s-.17.8-.22,1l-1.15,4.49H154l-2.19-8.57h1.79L154.7,106c.2.86.33,1.61.42,2.24,0-.22.08-.56.16-1a9,9,0,0,1,.24-1.09l1.25-4.8h1.71l1.25,4.8c.06.22.12.55.21,1s.14.82.18,1.13c0-.3.11-.68.19-1.14s.17-.82.24-1.1l1.09-4.68h1.78Z"/></g><g class="cls-1"><path d="M201.55,108.61h-1.82v-7h-2.32v-1.51h6.47v1.51h-2.33Z"/><path d="M211.1,108.61h-1.79v-3.82c0-1-.35-1.42-1.05-1.42a1.22,1.22,0,0,0-1.09.51,3.14,3.14,0,0,0-.33,1.65v3.08h-1.79V99.5h1.79v1.85c0,.15,0,.49,0,1l0,.53h.09a2.07,2.07,0,0,1,1.9-1,2.33,2.33,0,0,1,1.75.62,2.47,2.47,0,0,1,.6,1.78Z"/></g><g class="cls-1"><path d="M251.12,108.87h-1.79v-8.56h4.91v1.49h-3.12V104H254v1.49h-2.9Z"/></g><g class="cls-1"><path d="M295.11,106a2.19,2.19,0,0,1-.84,1.82,3.58,3.58,0,0,1-2.32.67,5.56,5.56,0,0,1-2.43-.51v-1.69a9.19,9.19,0,0,0,1.47.54,4.17,4.17,0,0,0,1.1.16,1.53,1.53,0,0,0,.92-.23.78.78,0,0,0,.32-.68.77.77,0,0,0-.14-.44,1.58,1.58,0,0,0-.42-.38,9.5,9.5,0,0,0-1.11-.58,5.24,5.24,0,0,1-1.17-.71,2.5,2.5,0,0,1-.63-.79,2.45,2.45,0,0,1,.53-2.84,3.19,3.19,0,0,1,2.13-.65,5.34,5.34,0,0,1,1.28.15,9.75,9.75,0,0,1,1.27.45l-.59,1.41a7.68,7.68,0,0,0-1.13-.39,3.42,3.42,0,0,0-.88-.11,1.19,1.19,0,0,0-.8.24.85.85,0,0,0-.16,1,1.1,1.1,0,0,0,.36.35,10.66,10.66,0,0,0,1.15.6,4.51,4.51,0,0,1,1.64,1.15A2.25,2.25,0,0,1,295.11,106Z"/><path d="M300.68,108.36l-.35-.9h0a2.55,2.55,0,0,1-.93.79,3,3,0,0,1-1.25.22,2,2,0,0,1-1.48-.54,2.07,2.07,0,0,1-.54-1.53,1.72,1.72,0,0,1,.73-1.54,4.26,4.26,0,0,1,2.2-.55l1.13,0V104a.9.9,0,0,0-1-1,4.61,4.61,0,0,0-1.84.48l-.59-1.21a5.36,5.36,0,0,1,2.5-.59,3.17,3.17,0,0,1,2,.57,2.17,2.17,0,0,1,.7,1.75v4.37Zm-.53-3-.69,0a2.29,2.29,0,0,0-1.16.28.91.91,0,0,0-.38.79c0,.5.29.76.87.76a1.37,1.37,0,0,0,1-.36,1.26,1.26,0,0,0,.37-1Z"/><path d="M306.53,107.05a3.74,3.74,0,0,0,1.12-.21v1.33a4,4,0,0,1-1.64.3,2,2,0,0,1-1.56-.54,2.39,2.39,0,0,1-.49-1.63v-3.15h-.85v-.76l1-.6.52-1.38h1.14v1.39h1.83v1.35h-1.83v3.15a.71.71,0,0,0,.21.57A.86.86,0,0,0,306.53,107.05Z"/></g><g class="cls-1"><path d="M11.68,106.75a2.22,2.22,0,0,1-.83,1.83,3.61,3.61,0,0,1-2.33.67,5.35,5.35,0,0,1-2.42-.52v-1.68a10.28,10.28,0,0,0,1.47.54,4.11,4.11,0,0,0,1.09.16,1.58,1.58,0,0,0,.92-.23.79.79,0,0,0,.32-.68.77.77,0,0,0-.14-.45,1.5,1.5,0,0,0-.41-.37,8.82,8.82,0,0,0-1.11-.58,5.49,5.49,0,0,1-1.18-.71,2.82,2.82,0,0,1-.63-.79,2.39,2.39,0,0,1-.23-1.06A2.21,2.21,0,0,1,7,101.09a3.21,3.21,0,0,1,2.13-.65,5.26,5.26,0,0,1,1.27.16,9.26,9.26,0,0,1,1.27.45l-.59,1.41a7.3,7.3,0,0,0-1.13-.39A3.37,3.37,0,0,0,9,102a1.17,1.17,0,0,0-.79.24.76.76,0,0,0-.28.62.82.82,0,0,0,.11.42,1.34,1.34,0,0,0,.36.35,10.66,10.66,0,0,0,1.15.6,4.54,4.54,0,0,1,1.65,1.15A2.28,2.28,0,0,1,11.68,106.75Z"/><path d="M17.73,109.13l-.24-.84H17.4a1.87,1.87,0,0,1-.81.71,2.79,2.79,0,0,1-1.21.25,2.32,2.32,0,0,1-1.74-.62,2.48,2.48,0,0,1-.58-1.78v-4.27h1.79v3.83a1.8,1.8,0,0,0,.25,1.06.91.91,0,0,0,.8.36,1.2,1.2,0,0,0,1.08-.5,3.06,3.06,0,0,0,.34-1.67v-3.08h1.79v6.55Z"/><path d="M27,109.13H25.24v-3.82a1.84,1.84,0,0,0-.25-1.07.94.94,0,0,0-.8-.35,1.22,1.22,0,0,0-1.09.5,3.13,3.13,0,0,0-.33,1.66v3.08H21v-6.55h1.37l.24.84h.1a1.8,1.8,0,0,1,.82-.72,2.84,2.84,0,0,1,1.19-.24,2.32,2.32,0,0,1,1.74.62,2.48,2.48,0,0,1,.59,1.78Z"/></g><polyline class="cls-4" points="6.51 67.96 63.44 77.07 110.32 72.79 156.26 47.62 200.92 72.8 254.12 58.51 300.02 19.91"/></g></g></svg>