<svg xmlns="http://www.w3.org/2000/svg" viewBox="0 0 95.84 118.65"><defs><style>.cls-1{fill:#c7cac7;}.cls-2{fill:#e7eced;}.cls-3{fill:#4c4c4f;}.cls-4{fill:#546a79;}</style></defs><title>locked</title><g id="Layer_2" data-name="Layer 2"><g id="Layer_6" data-name="Layer 6"><path class="cls-1" d="M81.62,118.65H14.21A14.21,14.21,0,0,1,0,104.44V59.85A14.21,14.21,0,0,1,14.21,45.64H81.62A14.22,14.22,0,0,1,95.84,59.85v44.59A14.22,14.22,0,0,1,81.62,118.65Z"/><path class="cls-2" d="M81.62,45.64H47.92v73h33.7a14.22,14.22,0,0,0,14.22-14.21V59.85A14.22,14.22,0,0,0,81.62,45.64Z"/><path class="cls-3" d="M47.92,91.27h0a6.86,6.86,0,0,1-6.85-6.84V70.74a6.87,6.87,0,0,1,6.85-6.85h0a6.86,6.86,0,0,1,6.84,6.85V84.43A6.86,6.86,0,0,1,47.92,91.27Z"/><path class="cls-4" d="M14.21,45.64h8.61V30.8c0-11.95,11.26-21.67,25.1-21.67S73,18.85,73,30.8V45.64h8.6l.53,0V30.8C82.15,13.86,66.74,0,47.92,0S13.69,13.86,13.69,30.8V45.66Z"/></g></g></svg>