<svg xmlns="http://www.w3.org/2000/svg" viewBox="0 0 156.07 168.39"><defs><style>.cls-1{isolation:isolate;}.cls-2{fill:#f6e7cf;}.cls-3{mix-blend-mode:multiply;}.cls-4{fill:#231f20;}.cls-5{fill:#0f1110;}.cls-6{fill:#fff;}.cls-7{fill:none;}</style></defs><title>pugIcon</title><g class="cls-1"><g id="Layer_2" data-name="Layer 2"><g id="Icon"><path class="cls-2" d="M77.78,12.35c38.19,0,48.45,12.86,55.84,40.44q.74,2.73,1.26,5.35a64.94,64.94,0,0,1-20.19,60.69l-.25.23a1,1,0,0,1-.61.23h0a.89.89,0,0,1-.89-.94C113.88,103,97.11,80.7,89.71,74.49c-1.63-1.37-3-2.67-4.26-3.9a11,11,0,0,0-15.61,0c-1.22,1.23-2.63,2.53-4.26,3.9C58.19,80.7,41.42,103,42.36,118.35a.9.9,0,0,1-.9.94h0a.93.93,0,0,1-.6-.23l-.94-.86A63.84,63.84,0,0,1,19.79,61.67a85.69,85.69,0,0,1,1.88-8.88C29.05,25.27,42.32,12.35,77.78,12.35Z"/><g class="cls-3"><path class="cls-2" d="M77.65,70.75a1,1,0,0,1-1.05-1V38.43a1,1,0,1,1,2.09,0V69.7A1,1,0,0,1,77.65,70.75Z"/></g><path class="cls-4" d="M54.45,61.75a14.4,14.4,0,0,0,1.61,3.81,9.22,9.22,0,0,1-1.19,10.86,86,86,0,0,0-7,8.74,9.16,9.16,0,0,1-15.84-1.47c-1.26-2.77-2.54-5.46-3.71-7.72a9.2,9.2,0,0,1,1.23-10.25,44.57,44.57,0,0,1,11.54-9.64A9.14,9.14,0,0,1,54.45,61.75Z"/><path class="cls-5" d="M76.06,105.24C72.8,107,65.62,112.3,60.78,126.43c-1.1,3.2,2.18,6.27,5.15,4.7l.31-.18A3.65,3.65,0,0,1,70,131a11.75,11.75,0,0,0,7.27,1.79,4,4,0,0,1,1.09,0A11.73,11.73,0,0,0,85.59,131a3.65,3.65,0,0,1,3.72,0l.32.18c3,1.57,6.24-1.5,5.15-4.7-4.85-14.13-12-19.43-15.29-21.19A3.6,3.6,0,0,0,76.06,105.24Z"/><path class="cls-4" d="M85,70.13c-4.57-3.54-9.14-4.31-14.69,0C53.66,83,30.52,117.79,48.7,129.67a7.94,7.94,0,0,0,2.67,1.09,10.16,10.16,0,0,0,11.83-6.61A43.23,43.23,0,0,1,69.67,112a10.24,10.24,0,0,1,16,0,43.54,43.54,0,0,1,6.48,12.16,10.16,10.16,0,0,0,11.82,6.61,7.94,7.94,0,0,0,2.68-1.09C124.77,117.79,104,84.86,85,70.13Z"/><g class="cls-3"><path class="cls-2" d="M46.73,129.19a1.05,1.05,0,0,1-.78-.34C36.48,118.33,35.73,105.6,43.72,91,48.1,83,55,74.73,64.26,66.36A10.29,10.29,0,0,0,67.68,56a15.39,15.39,0,0,0-2.34-5.33,1.05,1.05,0,0,1,.22-1.47,1,1,0,0,1,1.46.22c.08.1,7.59,10.44-1.35,18.54C50.9,81.28,28.9,106.79,47.51,127.44a1.05,1.05,0,0,1-.78,1.75Z"/></g><path class="cls-6" d="M51.07,71.66a8.75,8.75,0,1,0-8.75,8.75A8.75,8.75,0,0,0,51.07,71.66Z"/><path class="cls-5" d="M49.36,71.66a7,7,0,1,0-7,7A7,7,0,0,0,49.36,71.66Z"/><path class="cls-5" d="M69.65,84.75c-.2,2.67,3.72,3.23,4.16.6a7.19,7.19,0,0,0,.11-1.11s.31-5.1-2.79-3.83C69.35,81.14,69.77,83.07,69.65,84.75Z"/><g class="cls-3"><path class="cls-2" d="M108.56,129.19a1,1,0,0,1-.7-.27,1.05,1.05,0,0,1-.08-1.48c18.61-20.64-3.38-46.16-18.15-59.53-8.95-8.1-1.43-18.44-1.36-18.54A1,1,0,1,1,90,50.62c-.28.38-6.43,8.93,1.08,15.74C100.28,74.73,107.19,83,111.57,91c8,14.59,7.25,27.32-2.23,37.84A1,1,0,0,1,108.56,129.19Z"/></g><path class="cls-4" d="M100,61.56a14.36,14.36,0,0,1-1.6,3.81,9.2,9.2,0,0,0,1.19,10.86,89.13,89.13,0,0,1,7,8.75,9.16,9.16,0,0,0,15.84-1.47c1.26-2.78,2.53-5.46,3.71-7.73a9.18,9.18,0,0,0-1.23-10.24,44.39,44.39,0,0,0-11.54-9.65A9.17,9.17,0,0,0,100,61.56Z"/><path class="cls-6" d="M104.23,71.66A8.75,8.75,0,1,1,113,80.41,8.75,8.75,0,0,1,104.23,71.66Z"/><circle class="cls-5" cx="112.98" cy="71.66" r="7.04"/><path class="cls-5" d="M85.65,84.75c.19,2.67-3.73,3.23-4.17.6a7.26,7.26,0,0,1-.1-1.11s-.32-5.1,2.78-3.83C85.94,81.14,85.52,83.07,85.65,84.75Z"/><path class="cls-4" d="M24.49,52.79c6.58-24.55,17.83-31.65,27.09-37,1.56-1.06-.07-7.31-18,6a79.35,79.35,0,0,1-15.14,6.29s-18.17,3-17.71,17c0,0,3,16.69,8.41,28.56,0,0,1.84,7.83,6.5,6.77S21.9,67.74,21.9,67.74l.21-2.26A81.53,81.53,0,0,1,24.49,52.79Z"/><path class="cls-4" d="M131.59,52.59C125,28,113.76,20.94,104.5,15.63c-1.57-1.06.06-7.31,18,6a79.35,79.35,0,0,0,15.14,6.29s18.18,3,17.71,17c0,0-3,16.7-8.41,28.57,0,0-1.84,7.83-6.5,6.77s-6.27-12.67-6.27-12.67L134,65.28A82.64,82.64,0,0,0,131.59,52.59Z"/><path class="cls-6" d="M43.24,69.7a2,2,0,1,1-2-2A2,2,0,0,1,43.24,69.7Z"/><path class="cls-6" d="M112.06,69.7a2,2,0,1,0,2-2A2,2,0,0,0,112.06,69.7Z"/><g class="cls-3"><path class="cls-2" d="M36.88,52.9a1.07,1.07,0,0,1-.83-.4A1,1,0,0,1,36.24,51C54,37.27,59.87,41.61,60.49,42.15a1,1,0,0,1-1.37,1.59c-.14-.1-5.37-3.64-21.6,8.94A1,1,0,0,1,36.88,52.9Z"/></g><g class="cls-3"><path class="cls-2" d="M118.42,52.9a1.06,1.06,0,0,1-.65-.22c-16.37-12.69-21.55-9-21.6-8.94a1,1,0,0,1-1.47-.1,1.06,1.06,0,0,1,.11-1.49c.61-.54,6.49-4.89,24.25,8.88a1,1,0,0,1,.18,1.47A1,1,0,0,1,118.42,52.9Z"/></g><path class="cls-6" d="M56.08,164.92a2.53,2.53,0,0,1-.19,1,2.82,2.82,0,0,1-.51.79,2.59,2.59,0,0,1-.75.52,2.3,2.3,0,0,1-1.83,0,2.42,2.42,0,0,1-.74-.52,2.59,2.59,0,0,1-.5-.79,2.52,2.52,0,0,1-.18-1V152.51a9.81,9.81,0,0,1,.09-1.36,2.74,2.74,0,0,1,.41-1.1,2.06,2.06,0,0,1,.91-.74,4,4,0,0,1,1.62-.27H59a14.93,14.93,0,0,1,2.79.25,6.84,6.84,0,0,1,2.38.89,4.71,4.71,0,0,1,1.66,1.74,5.59,5.59,0,0,1,.62,2.77,5.51,5.51,0,0,1-.54,2.52A4.91,4.91,0,0,1,64.36,159,6.76,6.76,0,0,1,62,160a12.5,12.5,0,0,1-3,.35H56.08Zm2.12-7.35a6.67,6.67,0,0,0,1.47-.14,3.05,3.05,0,0,0,1.15-.46,2.16,2.16,0,0,0,.73-.85,4,4,0,0,0,0-2.82,2.18,2.18,0,0,0-.7-.83,2.93,2.93,0,0,0-1.08-.45,5.86,5.86,0,0,0-1.38-.14H56.08v5.69Z"/><path class="cls-6" d="M80,151.5a2.58,2.58,0,0,1,.18-1,2.61,2.61,0,0,1,.5-.78,2.26,2.26,0,0,1,.74-.52,2.3,2.3,0,0,1,1.83,0,2.35,2.35,0,0,1,1.25,1.3,2.58,2.58,0,0,1,.18,1v9.67a6.78,6.78,0,0,1-.58,2.91,5.77,5.77,0,0,1-1.64,2.08,7.39,7.39,0,0,1-2.51,1.25,11.83,11.83,0,0,1-3.18.41,11.22,11.22,0,0,1-3.15-.41,7.13,7.13,0,0,1-2.5-1.23,5.79,5.79,0,0,1-1.65-2.07,6.85,6.85,0,0,1-.59-2.94V151.5a2.58,2.58,0,0,1,.18-1,2.43,2.43,0,0,1,.5-.78,2.26,2.26,0,0,1,.74-.52,2.3,2.3,0,0,1,1.83,0,2.26,2.26,0,0,1,.74.52,2.29,2.29,0,0,1,.51.78,2.58,2.58,0,0,1,.18,1l0,9.59a4.12,4.12,0,0,0,.27,1.57,3.12,3.12,0,0,0,.73,1.07,2.83,2.83,0,0,0,1,.62,3.35,3.35,0,0,0,1.17.2,3.4,3.4,0,0,0,1.18-.2,2.87,2.87,0,0,0,1-.62,3.14,3.14,0,0,0,.74-1.07,3.93,3.93,0,0,0,.28-1.57Z"/><path class="cls-6" d="M103.14,157.51a2,2,0,0,1,.8.13,1,1,0,0,1,.47.4,1.88,1.88,0,0,1,.23.68,8.41,8.41,0,0,1,0,.93v3.77a8.73,8.73,0,0,1-.13,1.66,2.66,2.66,0,0,1-.5,1.13,2.5,2.5,0,0,1-1,.72,7.89,7.89,0,0,1-1.72.44l-1,.16-1.06.14-1.06.11c-.35,0-.67,0-1,0a13.1,13.1,0,0,1-4-.57,8,8,0,0,1-3-1.76,7.64,7.64,0,0,1-1.94-3,12.22,12.22,0,0,1-.68-4.27,11.66,11.66,0,0,1,.58-3.73,8.44,8.44,0,0,1,1.75-3.06,8.23,8.23,0,0,1,3-2.06,11.07,11.07,0,0,1,4.31-.76c.53,0,1.07,0,1.6.08s1,.13,1.53.22,1,.21,1.42.34.86.29,1.24.45a1.85,1.85,0,0,1,.85.65,1.58,1.58,0,0,1,.27.89,1.45,1.45,0,0,1-.48,1.18,1.76,1.76,0,0,1-1.18.41,4,4,0,0,1-.94-.15c-.38-.1-.8-.2-1.24-.33s-.89-.23-1.35-.32a6,6,0,0,0-1.26-.15,5.74,5.74,0,0,0-2.38.45,4.12,4.12,0,0,0-1.62,1.29,5.56,5.56,0,0,0-.92,2.06,12,12,0,0,0-.29,2.73,13.41,13.41,0,0,0,.26,2.84,4.75,4.75,0,0,0,.82,1.9A3.17,3.17,0,0,0,95,164.22a6.21,6.21,0,0,0,2.14.33c.51,0,1,0,1.52,0a8.11,8.11,0,0,0,1.49-.22v-4.13H98.46a3.14,3.14,0,0,1-.72-.07,1.76,1.76,0,0,1-.58-.23,1.07,1.07,0,0,1-.38-.41,1.43,1.43,0,0,1,.24-1.59,1.68,1.68,0,0,1,1.18-.36h4.94Z"/><rect class="cls-7" width="156.07" height="168.39"/></g></g></g></svg>