<svg xmlns="http://www.w3.org/2000/svg" viewBox="0 0 156.07 168.39"><defs><style>.cls-1{fill:#e8b951;}.cls-2{fill:#f9e0c4;}.cls-3{fill:#e7b950;}.cls-4{fill:#fff;}.cls-5{fill:#342c2b;}.cls-6,.cls-9{fill:none;}.cls-6{stroke:#342c2b;stroke-linecap:round;stroke-linejoin:round;stroke-width:2.8px;}.cls-7{fill:#0f1110;}.cls-8{isolation:isolate;}</style></defs><title>shibaIcon</title><g id="Layer_2" data-name="Layer 2"><g id="Icon"><path class="cls-1" d="M121.51,12.46c6.18,19.33,5,34,5,34L90.56,22.85S105,10.58,113.88,6.37C118.61,4.08,119.87,7.45,121.51,12.46Z"/><path class="cls-2" d="M116.83,17.37c2.48,10.21,2.25,22.24,2.25,22.24L98,24.63s9.32-8.33,14.47-10.77C115.19,12.6,116.13,14.42,116.83,17.37Z"/><path class="cls-1" d="M35,12.46c-6.18,19.33-5,34-5,34l35.92-23.6S51.51,10.58,42.62,6.37C37.84,4.08,36.58,7.45,35,12.46Z"/><path class="cls-2" d="M39.62,17.37c-2.48,10.21-2.25,22.24-2.25,22.24l21.07-15S49.13,16.3,44,13.86C41.26,12.6,40.32,14.42,39.62,17.37Z"/><path class="cls-3" d="M139.82,80.21c-1.41-28.66-27.11-60.82-60.59-60.82S19.68,50.15,17.05,80.3c-1,11.38-.7,21.54,2.44,30,6,16.25,22.33,26.18,59.74,26.18,35.68,0,51.6-10.16,57.59-27.3C139.73,101,140.38,91.26,139.82,80.21Z"/><path class="cls-4" d="M87.66,49.59c.47,2.81,3.93,2.43,7.91,1.73s6.84-3.47,6.37-6.28-4.07-4.49-8-3.83S87.19,46.82,87.66,49.59Z"/><path class="cls-4" d="M68.93,49.59C68.46,52.4,65,52,61,51.32S54.18,47.85,54.65,45s4.07-4.49,8.05-3.83S69.4,46.82,68.93,49.59Z"/><path class="cls-4" d="M133.31,84.94c-1.68-6.79-8.9-14-23.5-8.67C93,82.41,97.21,68.36,78.25,68.36s-14.7,14.09-31.56,7.91C32.08,70.94,24.5,79.83,22.58,87.09c-2.06,7.77,2.34,13.53-1.59,26.36C28.06,127.54,44.63,136,79.19,136c32.86,0,49-8.62,56-23.41C131.3,99.73,135.28,92.8,133.31,84.94Z"/><path class="cls-5" d="M67.34,83.81c0-6,4.92-7,11-7s11,1,11,7-6.79,10.26-11,10.26C73.94,94.07,67.34,89.85,67.34,83.81Z"/><path class="cls-6" d="M78.3,87.09c0,5.85,0,11.61-6.75,15.17-5.61,2.9-13.62,2.39-15.92-2"/><path class="cls-6" d="M78.3,87.09c0,5.85,0,11.61,6.74,15.17,5.62,2.9,13.62,2.39,15.92-2"/><path class="cls-7" d="M91.41,64.94c.93-6.6,7.77-13.53,17.51-5.9C107.18,69.72,97.16,70.52,91.41,64.94Z"/><circle class="cls-4" cx="98.38" cy="59.61" r="1.5"/><path class="cls-7" d="M65.19,64.94c-.94-6.6-7.78-13.53-17.52-5.9C49.41,69.72,59.38,70.52,65.19,64.94Z"/><circle class="cls-4" cx="58.21" cy="59.61" r="1.5"/><g class="cls-8"><path class="cls-4" d="M14.77,153.89a1.42,1.42,0,0,0,.41,1,3.39,3.39,0,0,0,1.05.71,9.14,9.14,0,0,0,1.46.53l1.65.47c.89.27,1.69.55,2.42.85a7.58,7.58,0,0,1,1.86,1.08A4.49,4.49,0,0,1,24.81,160a4.72,4.72,0,0,1,.42,2.07,5.3,5.3,0,0,1-.52,2.38,5.17,5.17,0,0,1-1.5,1.8,7.05,7.05,0,0,1-2.37,1.13,11.21,11.21,0,0,1-3.13.4,16.47,16.47,0,0,1-3.54-.41,14.1,14.1,0,0,1-1.59-.49,7.75,7.75,0,0,1-1.29-.66,3.23,3.23,0,0,1-.87-.8,1.52,1.52,0,0,1-.31-.92,1.5,1.5,0,0,1,.13-.62,2.15,2.15,0,0,1,.34-.54A1.72,1.72,0,0,1,11,163a1.06,1.06,0,0,1,.51-.15,1.31,1.31,0,0,1,.44.07,4.17,4.17,0,0,1,.44.19l.45.23c.16.08.32.16.5.23a14.63,14.63,0,0,0,1.95.7,8,8,0,0,0,2.26.31,5.84,5.84,0,0,0,1.21-.12,3.64,3.64,0,0,0,1-.36,1.82,1.82,0,0,0,.68-.64,1.8,1.8,0,0,0-.31-2.25,2.53,2.53,0,0,0-.62-.43,5.5,5.5,0,0,0-.74-.32l-.56-.2-.32-.11-.33-.1-.65-.19-.36-.1-.27-.09-.24-.08-.26-.1-1.18-.41a13.69,13.69,0,0,1-2-.87,5.14,5.14,0,0,1-1.34-1,3.83,3.83,0,0,1-.76-1.29,5.32,5.32,0,0,1-.24-1.68,4.86,4.86,0,0,1,.52-2.27,5,5,0,0,1,1.49-1.74,7.21,7.21,0,0,1,2.37-1.1,11.53,11.53,0,0,1,3.12-.39,11.24,11.24,0,0,1,1.37.08,12.83,12.83,0,0,1,1.49.24,10.62,10.62,0,0,1,1.42.42,6.61,6.61,0,0,1,1.22.61,3.38,3.38,0,0,1,.85.78,1.66,1.66,0,0,1,.32,1,1.37,1.37,0,0,1-.12.58,1.52,1.52,0,0,1-.32.46,1.61,1.61,0,0,1-.47.29,1.55,1.55,0,0,1-.56.11,1.48,1.48,0,0,1-.7-.17c-.39-.2-.76-.37-1.1-.51a8.07,8.07,0,0,0-1-.35,5.86,5.86,0,0,0-1-.2A8.61,8.61,0,0,0,18,152a6.75,6.75,0,0,0-1.19.11,3.53,3.53,0,0,0-1,.34,1.92,1.92,0,0,0-.74.6A1.4,1.4,0,0,0,14.77,153.89Z"/><path class="cls-4" d="M39.25,151.56a2.57,2.57,0,0,1,.19-1,2.63,2.63,0,0,1,.51-.78,2.22,2.22,0,0,1,.73-.52,2.15,2.15,0,0,1,.91-.19,2.12,2.12,0,0,1,.91.19,2.3,2.3,0,0,1,.75.52,2.43,2.43,0,0,1,.5.78,2.56,2.56,0,0,1,.18,1v13.37a2.56,2.56,0,0,1-.18,1,2.43,2.43,0,0,1-.5.78,2.3,2.3,0,0,1-.75.52,2.12,2.12,0,0,1-.91.19,2.15,2.15,0,0,1-.91-.19,2.22,2.22,0,0,1-.73-.52,2.43,2.43,0,0,1-.5-.78,2.56,2.56,0,0,1-.18-1l0-5.19H32.78v5.19a2.56,2.56,0,0,1-.18,1,2.45,2.45,0,0,1-.51.78,2.26,2.26,0,0,1-.74.52,2.27,2.27,0,0,1-1.82,0,2.26,2.26,0,0,1-.74-.52,2.61,2.61,0,0,1-.68-1.74V151.56a2.61,2.61,0,0,1,.68-1.74,2.26,2.26,0,0,1,.74-.52,2.27,2.27,0,0,1,1.82,0,2.26,2.26,0,0,1,.74.52,2.45,2.45,0,0,1,.51.78,2.56,2.56,0,0,1,.18,1v4.59h6.47Z"/><path class="cls-4" d="M52.47,164.93a2.56,2.56,0,0,1-.18,1,2.29,2.29,0,0,1-.51.78,2.26,2.26,0,0,1-.74.52,2.27,2.27,0,0,1-1.82,0,2.26,2.26,0,0,1-.74-.52,2.4,2.4,0,0,1-.49-.78,2.57,2.57,0,0,1-.19-1V151.56a2.57,2.57,0,0,1,.19-1,2.4,2.4,0,0,1,.49-.78,2.26,2.26,0,0,1,.74-.52,2.27,2.27,0,0,1,1.82,0,2.26,2.26,0,0,1,.74.52,2.29,2.29,0,0,1,.51.78,2.56,2.56,0,0,1,.18,1Z"/><path class="cls-4" d="M56.38,151.34a2.05,2.05,0,0,1,.24-1,2,2,0,0,1,.63-.68,2.77,2.77,0,0,1,.93-.39,4.47,4.47,0,0,1,1.12-.13h3.9l1.76,0a14.74,14.74,0,0,1,1.77.18,9,9,0,0,1,1.63.43,4.33,4.33,0,0,1,1.35.79,3.79,3.79,0,0,1,.92,1.28,4.82,4.82,0,0,1,.34,1.88,4.07,4.07,0,0,1-.26,1.43,3.92,3.92,0,0,1-.71,1.24,4.4,4.4,0,0,1-1.11.94,4.47,4.47,0,0,1-1.42.52v0a5.28,5.28,0,0,1,1.7.52,4.35,4.35,0,0,1,1.29,1,4.23,4.23,0,0,1,.82,1.33,4.62,4.62,0,0,1,.29,1.63,4.83,4.83,0,0,1-.38,1.86A4.42,4.42,0,0,1,70,165.81a5.93,5.93,0,0,1-2,1.14,8.42,8.42,0,0,1-2.85.43H59.3a6.64,6.64,0,0,1-1.26-.11,1.92,1.92,0,0,1-.91-.46,2.08,2.08,0,0,1-.56-1,5.93,5.93,0,0,1-.19-1.68Zm4.44.6v5h1.8a10.62,10.62,0,0,0,1.54-.11,3.81,3.81,0,0,0,1.22-.4,2.24,2.24,0,0,0,.8-.79,2.5,2.5,0,0,0,.28-1.26,2.37,2.37,0,0,0-.28-1.24,2,2,0,0,0-.77-.74,3.79,3.79,0,0,0-1.15-.36,10,10,0,0,0-1.38-.09Zm0,12.62h2.09a13.23,13.23,0,0,0,1.77-.1,3.27,3.27,0,0,0,1.28-.4,2,2,0,0,0,.78-.83,3.11,3.11,0,0,0,.26-1.39,2.53,2.53,0,0,0-.3-1.3,2.12,2.12,0,0,0-.85-.8,4.08,4.08,0,0,0-1.33-.41,13.07,13.07,0,0,0-1.74-.11h-2Z"/><path class="cls-4" d="M89.94,163.57c.06.15.12.31.19.47s.13.33.19.5.1.33.14.48a1.76,1.76,0,0,1,.06.42,2,2,0,0,1-.17.83,1.72,1.72,0,0,1-.46.6,2.2,2.2,0,0,1-.67.38,2.45,2.45,0,0,1-.81.13,2.4,2.4,0,0,1-.85-.14,1.76,1.76,0,0,1-.63-.44,3.18,3.18,0,0,1-.5-.78,12.27,12.27,0,0,1-.5-1.19l-.6-1.6H78.21l-.52,1.6a8.22,8.22,0,0,1-.46,1.2,2.84,2.84,0,0,1-.51.79,1.72,1.72,0,0,1-.65.43,2.75,2.75,0,0,1-1.67,0,2.2,2.2,0,0,1-.67-.38,1.85,1.85,0,0,1-.46-.6,2,2,0,0,1-.17-.83,1.76,1.76,0,0,1,.06-.42c0-.15.09-.31.14-.48s.13-.33.19-.5.13-.32.19-.47l3.38-9.14c.32-.86.63-1.61.92-2.27a8.15,8.15,0,0,1,1-1.67,3.33,3.33,0,0,1,2.85-1.37,4,4,0,0,1,1.55.27,3,3,0,0,1,1.15.9,7,7,0,0,1,1,1.64c.31.68.66,1.51,1,2.5Zm-8.2-11L79,160.64h5.58l-2.76-8.08Z"/><path class="cls-4" d="M106.17,164.93a2.56,2.56,0,0,1-.18,1,2.43,2.43,0,0,1-.5.78,2.37,2.37,0,0,1-.74.52,2.2,2.2,0,0,1-.92.19,2.15,2.15,0,0,1-.91-.19,2.22,2.22,0,0,1-.73-.52,2.43,2.43,0,0,1-.5-.78,2.56,2.56,0,0,1-.18-1V151.56a2.56,2.56,0,0,1,.18-1,2.43,2.43,0,0,1,.5-.78,2.22,2.22,0,0,1,.73-.52,2.15,2.15,0,0,1,.91-.19,2.2,2.2,0,0,1,.92.19,2.37,2.37,0,0,1,.74.52,2.43,2.43,0,0,1,.5.78,2.56,2.56,0,0,1,.18,1Z"/><path class="cls-4" d="M113.93,165.41a1.83,1.83,0,0,1-.16.77,1.79,1.79,0,0,1-.42.62,1.93,1.93,0,0,1-.63.42,2,2,0,0,1-1.55,0,1.89,1.89,0,0,1-.62-.42,1.79,1.79,0,0,1-.42-.62,2,2,0,0,1-.15-.77V151.68a2.92,2.92,0,0,1,.19-1.1,2.21,2.21,0,0,1,.49-.8,1.91,1.91,0,0,1,.72-.5,2.39,2.39,0,0,1,.89-.17,2,2,0,0,1,.79.16,3,3,0,0,1,.73.42,4.34,4.34,0,0,1,.68.62,9.41,9.41,0,0,1,.63.76l7.42,10.06v-10a2,2,0,0,1,.15-.77,1.9,1.9,0,0,1,1-1,1.8,1.8,0,0,1,.77-.16,1.77,1.77,0,0,1,.77.16,1.93,1.93,0,0,1,.63.42,2.12,2.12,0,0,1,.42.62,2,2,0,0,1,.16.77v12.81a11.14,11.14,0,0,1-.08,1.32,3.53,3.53,0,0,1-.31,1.11,2,2,0,0,1-.68.77,2.16,2.16,0,0,1-1.17.29,2,2,0,0,1-.76-.15,3.25,3.25,0,0,1-.72-.41,4.92,4.92,0,0,1-.67-.63,8.17,8.17,0,0,1-.64-.77l-7.5-10.19Z"/><path class="cls-4" d="M141.15,151.56a2.61,2.61,0,0,1,.68-1.74,2.26,2.26,0,0,1,.74-.52,2.27,2.27,0,0,1,1.82,0,2.26,2.26,0,0,1,.74.52,2.29,2.29,0,0,1,.51.78,2.56,2.56,0,0,1,.18,1v9.63a6.7,6.7,0,0,1-.59,2.9,5.63,5.63,0,0,1-1.63,2.07,7.25,7.25,0,0,1-2.5,1.25,11.7,11.7,0,0,1-3.17.41,11.51,11.51,0,0,1-3.13-.41,7.24,7.24,0,0,1-2.49-1.22,5.65,5.65,0,0,1-1.64-2.07,6.66,6.66,0,0,1-.59-2.93v-9.63a2.56,2.56,0,0,1,.18-1,2.43,2.43,0,0,1,.5-.78,2.12,2.12,0,0,1,.73-.52,2.15,2.15,0,0,1,.91-.19,2.12,2.12,0,0,1,.91.19,2.35,2.35,0,0,1,1.25,1.3,2.56,2.56,0,0,1,.18,1v9.56a4.1,4.1,0,0,0,.28,1.56,3.2,3.2,0,0,0,.72,1.07,3,3,0,0,0,1,.61,3.52,3.52,0,0,0,2.34,0,3.09,3.09,0,0,0,1-.61,3.22,3.22,0,0,0,.73-1.07,3.92,3.92,0,0,0,.28-1.56Z"/></g><rect class="cls-9" width="156.07" height="168.39"/></g></g></svg>