<svg xmlns="http://www.w3.org/2000/svg" viewBox="0 0 156.07 168.39"><defs><style>.cls-1{fill:#c9793d;}.cls-2{fill:#fff;}.cls-3,.cls-6{fill:none;}.cls-3{stroke:#342c2b;stroke-linecap:round;stroke-linejoin:round;stroke-width:1.86px;}.cls-4{fill:#0f1110;}.cls-5{fill:#603813;}</style></defs><title>beagleIcon</title><g id="Layer_2" data-name="Layer 2"><g id="Icon"><path class="cls-1" d="M77.44,132.93c33,0,41.12-25.81,40.35-34.93s8.39-23.42,7.77-37.66S113.16,29.4,105,24.13,84.67,17.9,79.36,17.44H75.69c-5.31.46-17.46,1.42-25.63,6.69s-20,22-20.57,36.21S38,88.88,37.26,98,44.46,132.93,77.44,132.93Z"/><path class="cls-2" d="M86.14,70.4c5.31,5.61,14.18,13.38,16.08,16.22,7.45,9.64,5.41,10.48,9.45,15.28,5,5.95,11,32.86-34.23,30.91C32.2,134.76,38,106.54,44.17,101.9c3.29-2.46,1-5.64,8.48-15.28,1.9-2.84,11.24-10.3,16.66-15.81C75.59,64.42,80.81,64.78,86.14,70.4Z"/><path class="cls-3" d="M77,97.8l-.38,13.25c1.51,1.83,11.46,7,15.9,8.49"/><path class="cls-3" d="M77,97.8l-.38,13.25c-1.61,1.74-11.82,6.29-16.34,7.57"/><path class="cls-4" d="M86.65,93.37c0,4.67-4.42,11-9.77,10.92s-9.62-6.41-9.58-11.08S71.67,86.94,77,87,86.68,88.71,86.65,93.37Z"/><path class="cls-5" d="M55,21.48C39,24,11.35,50.05,2.65,73.88A32.09,32.09,0,0,0,.5,83.45C2.62,107.93,7,128.7,17.15,131.77s24.11-11.11,26.45-24S36,64,39.52,54.26c3.45-9.45,3.59-9.14,5.58-15.39C47.37,33.07,50.66,23.66,55,21.48Z"/><path class="cls-5" d="M104.43,23.69c15.82,3.4,42.08,30.87,49.51,55.13a32.42,32.42,0,0,1,1.63,9.67c-3.42,24.34-8.92,44.84-19.18,47.36s-23.5-12.38-25.15-25.38,10-43.32,6.92-53.22c-3-9.63-3.11-9.32-4.76-15.66C111.44,35.67,108.66,26.09,104.43,23.69Z"/><path class="cls-4" d="M106.59,70.75c-2.34-5.66-12.74-9.12-15.1,1.32C96.9,78.85,104.76,76.93,106.59,70.75Z"/><ellipse class="cls-2" cx="101.86" cy="68.32" rx="1.2" ry="1.21"/><path class="cls-4" d="M49.42,71.36c1.82-5.85,11.88-10.22,15.15,0C59.78,78.56,51.78,77.34,49.42,71.36Z"/><ellipse class="cls-2" cx="59.75" cy="68.23" rx="1.2" ry="1.21"/><rect class="cls-2" x="68.35" y="37.66" width="18.88" height="48.04" rx="9.44" ry="9.44"/><path class="cls-2" d="M29.35,151.39a2,2,0,0,1,.23-1,2.12,2.12,0,0,1,.64-.69,2.77,2.77,0,0,1,.93-.39,5.05,5.05,0,0,1,1.12-.13h3.92l1.76,0a14.7,14.7,0,0,1,1.78.18,9.27,9.27,0,0,1,1.65.43,4.17,4.17,0,0,1,1.35.8,3.79,3.79,0,0,1,.92,1.28,4.66,4.66,0,0,1,.34,1.89,4.26,4.26,0,0,1-.25,1.43,4.2,4.2,0,0,1-.72,1.25,4.4,4.4,0,0,1-1.11.94,4.29,4.29,0,0,1-1.43.52V158a5.43,5.43,0,0,1,1.71.53,4.18,4.18,0,0,1,1.29,1,4,4,0,0,1,.82,1.34,4.37,4.37,0,0,1,.3,1.63,4.88,4.88,0,0,1-.38,1.87,4.7,4.7,0,0,1-1.16,1.63,6.08,6.08,0,0,1-2,1.14,8.48,8.48,0,0,1-2.86.43H32.27a5.91,5.91,0,0,1-1.26-.11,1.88,1.88,0,0,1-.91-.46,2.16,2.16,0,0,1-.57-1,6.32,6.32,0,0,1-.18-1.68Zm4.45.61v5h1.81a10.52,10.52,0,0,0,1.54-.11,3.56,3.56,0,0,0,1.23-.41,2.07,2.07,0,0,0,.8-.78,2.57,2.57,0,0,0,.29-1.27,2.51,2.51,0,0,0-.28-1.25,2,2,0,0,0-.78-.73,3.31,3.31,0,0,0-1.15-.36,8.83,8.83,0,0,0-1.39-.1Zm0,12.68h2.1a13.36,13.36,0,0,0,1.78-.11,3.27,3.27,0,0,0,1.28-.4,1.94,1.94,0,0,0,.79-.84,3.25,3.25,0,0,0,.26-1.39,2.5,2.5,0,0,0-.3-1.3,2.17,2.17,0,0,0-.86-.81,4.4,4.4,0,0,0-1.34-.41,13.07,13.07,0,0,0-1.74-.11h-2Z"/><path class="cls-2" d="M50.12,167.5a2.09,2.09,0,0,1-1.07-.26,2.13,2.13,0,0,1-.71-.69,2.94,2.94,0,0,1-.37-1,4.85,4.85,0,0,1-.12-1.06v-12a9.31,9.31,0,0,1,.09-1.34,2.5,2.5,0,0,1,.39-1,1.9,1.9,0,0,1,.89-.69,3.89,3.89,0,0,1,1.56-.26h8.11a1.72,1.72,0,0,1,.68.14,1.65,1.65,0,0,1,.57.35,1.59,1.59,0,0,1,.37.52,1.44,1.44,0,0,1,.14.65,1.35,1.35,0,0,1-.14.63,1.59,1.59,0,0,1-.37.52,1.82,1.82,0,0,1-.57.35,1.91,1.91,0,0,1-.68.13H52.38v4.09h5.94a2,2,0,0,1,.69.12,1.74,1.74,0,0,1,.56.36,1.79,1.79,0,0,1,.38.52,1.53,1.53,0,0,1,.13.64,1.48,1.48,0,0,1-.13.63,1.79,1.79,0,0,1-.38.52,1.89,1.89,0,0,1-.56.35,2,2,0,0,1-.69.13H52.38v4.41H59.2a1.7,1.7,0,0,1,.64.13,1.54,1.54,0,0,1,.52.35,1.77,1.77,0,0,1,.36.53,1.64,1.64,0,0,1,.12.63,1.69,1.69,0,0,1-.12.64,1.73,1.73,0,0,1-.36.52,1.58,1.58,0,0,1-1.16.47Z"/><path class="cls-2" d="M79.55,163.68c.06.15.12.31.19.47s.13.33.19.5.11.33.15.49a2.18,2.18,0,0,1,0,.42,1.84,1.84,0,0,1-.17.83,1.72,1.72,0,0,1-.46.6,2,2,0,0,1-.67.38,2.47,2.47,0,0,1-.82.13,2.11,2.11,0,0,1-.84-.14,1.71,1.71,0,0,1-.64-.44,3.37,3.37,0,0,1-.51-.79c-.15-.32-.32-.72-.5-1.19l-.6-1.6H67.77l-.51,1.6a10.28,10.28,0,0,1-.47,1.21,2.84,2.84,0,0,1-.51.79,1.72,1.72,0,0,1-.65.43,2.51,2.51,0,0,1-.86.13,2.47,2.47,0,0,1-.82-.13,2,2,0,0,1-.67-.38,1.72,1.72,0,0,1-.46-.6,1.84,1.84,0,0,1-.17-.83,2.18,2.18,0,0,1,.05-.42c0-.16.09-.32.15-.49s.12-.33.19-.5.13-.32.19-.47l3.39-9.18c.32-.86.63-1.62.92-2.28a7.9,7.9,0,0,1,1-1.67,3.52,3.52,0,0,1,1.2-1,3.67,3.67,0,0,1,1.66-.35,4,4,0,0,1,1.55.27,3.07,3.07,0,0,1,1.16.9,7.33,7.33,0,0,1,1,1.65c.31.68.65,1.52,1,2.51Zm-8.23-11.06-2.78,8.12h5.61l-2.77-8.12Z"/><path class="cls-2" d="M96.66,157.63a2.23,2.23,0,0,1,.8.13,1,1,0,0,1,.47.41,1.61,1.61,0,0,1,.22.67,6.46,6.46,0,0,1,.06.94v3.76a8.66,8.66,0,0,1-.13,1.66,2.6,2.6,0,0,1-.5,1.13,2.57,2.57,0,0,1-1,.72,7.36,7.36,0,0,1-1.72.44l-1,.16-1,.14c-.36.05-.71.08-1.06.11s-.68,0-1,0a13.16,13.16,0,0,1-4-.58,8.08,8.08,0,0,1-3-1.75,7.74,7.74,0,0,1-1.93-3,12.18,12.18,0,0,1-.68-4.27,11.7,11.7,0,0,1,.58-3.73,8.1,8.1,0,0,1,4.75-5.12,11.24,11.24,0,0,1,4.3-.76,18.16,18.16,0,0,1,3.14.31,12.1,12.1,0,0,1,1.41.34,11.36,11.36,0,0,1,1.25.44,1.83,1.83,0,0,1,.84.65,1.52,1.52,0,0,1,.28.89,1.47,1.47,0,0,1-.48,1.19A1.76,1.76,0,0,1,96,153a4,4,0,0,1-.94-.15c-.39-.09-.8-.2-1.24-.32s-.89-.23-1.35-.33a6,6,0,0,0-1.26-.15,5.74,5.74,0,0,0-2.38.45,4.05,4.05,0,0,0-1.62,1.3,5.51,5.51,0,0,0-.92,2.05,11.43,11.43,0,0,0-.29,2.73,12.94,12.94,0,0,0,.26,2.85,4.68,4.68,0,0,0,.82,1.9,3.31,3.31,0,0,0,1.46,1.06,6.17,6.17,0,0,0,2.14.33c.51,0,1,0,1.52-.05a8.11,8.11,0,0,0,1.49-.22v-4.13H92a3.26,3.26,0,0,1-.72-.07,1.69,1.69,0,0,1-.57-.22,1.31,1.31,0,0,1-.39-.42,1.38,1.38,0,0,1-.13-.64,1.24,1.24,0,0,1,.38-1,1.68,1.68,0,0,1,1.18-.36h4.94Z"/><path class="cls-2" d="M112.8,164.15a1.57,1.57,0,0,1,.65.13,1.7,1.7,0,0,1,.54.36,1.77,1.77,0,0,1,.36.53,1.64,1.64,0,0,1,.13.65,1.57,1.57,0,0,1-.13.65,1.65,1.65,0,0,1-.9.9,1.57,1.57,0,0,1-.65.13h-8.64a2.1,2.1,0,0,1-1.14-.29,2.22,2.22,0,0,1-.73-.79,3.4,3.4,0,0,1-.37-1.1,6.56,6.56,0,0,1-.11-1.26V151.62a2.52,2.52,0,0,1,.18-1,2.59,2.59,0,0,1,.5-.79,2.42,2.42,0,0,1,.74-.52,2.3,2.3,0,0,1,1.83,0,2.41,2.41,0,0,1,1.25,1.31,2.52,2.52,0,0,1,.18,1v12.53Z"/><path class="cls-2" d="M119.22,167.5a2,2,0,0,1-1.78-.95,2.75,2.75,0,0,1-.38-1,4.85,4.85,0,0,1-.12-1.06v-12a9.31,9.31,0,0,1,.09-1.34,2.5,2.5,0,0,1,.39-1,2,2,0,0,1,.89-.69,3.92,3.92,0,0,1,1.56-.26H128a1.81,1.81,0,0,1,.69.14,1.71,1.71,0,0,1,.56.35,1.79,1.79,0,0,1,.38.52,1.58,1.58,0,0,1,.14.65,1.49,1.49,0,0,1-.14.63,1.79,1.79,0,0,1-.38.52,1.89,1.89,0,0,1-.56.35,2,2,0,0,1-.69.13h-6.5v4.09h5.93a2,2,0,0,1,.69.12,1.74,1.74,0,0,1,.56.36,1.62,1.62,0,0,1,.38.52,1.53,1.53,0,0,1,.14.64,1.49,1.49,0,0,1-.14.63,1.62,1.62,0,0,1-.38.52,1.89,1.89,0,0,1-.56.35,2,2,0,0,1-.69.13h-5.93v4.41h6.81a1.7,1.7,0,0,1,.64.13,1.54,1.54,0,0,1,.52.35,1.61,1.61,0,0,1,.36.53,1.64,1.64,0,0,1,.12.63,1.69,1.69,0,0,1-.12.64,1.57,1.57,0,0,1-.36.52,1.58,1.58,0,0,1-1.16.47Z"/><rect class="cls-6" width="156.07" height="168.39"/></g></g></svg>