<svg xmlns="http://www.w3.org/2000/svg" viewBox="0 0 27.25 32.9"><defs><style>.cls-1{fill:#7d995f;}.cls-2{fill:none;}</style></defs><title>dogpad</title><g id="Layer_2" data-name="Layer 2"><g id="Icon"><path class="cls-1" d="M20.12,25.28a4.83,4.83,0,0,1-1.8-2.5c-.8-2.56-2.36-3.84-4.7-3.84a4.91,4.91,0,0,0-4.73,3.65,6.13,6.13,0,0,1-2,2.85A4.16,4.16,0,0,0,5.34,28.7,4.23,4.23,0,0,0,9.6,32.9a4.43,4.43,0,0,0,.9-.09,14.91,14.91,0,0,1,6.24,0,4.53,4.53,0,0,0,.91.09,4.22,4.22,0,0,0,4.25-4.2A4.17,4.17,0,0,0,20.12,25.28Z"/><ellipse class="cls-1" cx="9.3" cy="13.31" rx="2.73" ry="4.04" transform="translate(-3.92 3.88) rotate(-19.55)"/><ellipse class="cls-1" cx="3.52" cy="19.07" rx="2.73" ry="4.04" transform="translate(-13.02 8.94) rotate(-48.07)"/><ellipse class="cls-1" cx="23.73" cy="19.07" rx="4.04" ry="2.73" transform="translate(-6.67 20.74) rotate(-41.93)"/><ellipse class="cls-1" cx="17.94" cy="13.31" rx="4.04" ry="2.73" transform="translate(-0.6 25.76) rotate(-70.45)"/><rect class="cls-2" x="3.52" width="18.39" height="6.67"/></g></g></svg>