<svg xmlns="http://www.w3.org/2000/svg" viewBox="0 0 57.71 51.94"><defs><style>.cls-1,.cls-2{fill:#7d995f;}.cls-1{stroke:#7d995f;stroke-miterlimit:10;stroke-width:2px;}</style></defs><title>house</title><g id="Layer_2" data-name="Layer 2"><g id="Icon"><path class="cls-1" d="M56.25,27.92,43.58,15.19V6.52A1.6,1.6,0,0,0,42,4.92a1.56,1.56,0,0,0-1.55,1.6V12L30,1.5A1.51,1.51,0,0,0,28.87,1a1.58,1.58,0,0,0-1.14.5L1.49,27.74a1.51,1.51,0,0,0,0,2.22,1.51,1.51,0,0,0,2.22,0L28.87,4.85,54,30.2a1.55,1.55,0,0,0,1.14.41,1.76,1.76,0,0,0,1.13-.41A1.65,1.65,0,0,0,56.25,27.92Z"/><path class="cls-2" d="M47.73,28.43,46.25,27l-16-15.44a2,2,0,0,0-2.81,0L11.33,27.73,10,29.1v0h0s0,0,0,0V50.49a1.45,1.45,0,0,0,1.45,1.45H22.18V39.28a6.68,6.68,0,0,1,13.35,0V51.94H46.3a1.46,1.46,0,0,0,1.45-1.45v-22s0,0,0,0h0ZM33,26.32a1.37,1.37,0,0,1-1-.78,1.25,1.25,0,0,1-.09-.25.89.89,0,0,0-.84-.68l-1.75,0H26.69a.87.87,0,0,0-.83.68,2.44,2.44,0,0,1-.1.24,1.35,1.35,0,0,1-1,.78A1.36,1.36,0,0,1,23.21,25a1.4,1.4,0,0,1,.51-1.09h0a.29.29,0,0,0,0-.44,1.42,1.42,0,0,1-.51-1.1,1.37,1.37,0,0,1,1.51-1.4,1.4,1.4,0,0,1,1,.78,1.17,1.17,0,0,1,.09.24.88.88,0,0,0,.83.68h2.59l1.75,0a.89.89,0,0,0,.83-.68,2.44,2.44,0,0,1,.1-.24,1.35,1.35,0,0,1,1-.79,1.38,1.38,0,0,1,1.52,1.39A1.42,1.42,0,0,1,34,23.38a.3.3,0,0,0,0,.44h0a1.42,1.42,0,0,1,.51,1.1A1.37,1.37,0,0,1,33,26.32Z"/></g></g></svg>