<svg xmlns="http://www.w3.org/2000/svg" viewBox="0 0 157.16 57.19"><defs><style>.cls-1{fill:#88b337;}.cls-2{fill:#6b962a;}.cls-3{fill:#fff;}.cls-4{fill:#fdb62f;}.cls-5{fill:#fec9a3;}.cls-6{fill:#f7bb8f;}.cls-7{fill:#4398d1;}.cls-8{fill:#3e8cc7;}.cls-9{fill:#d9d9d9;}.cls-10{font-size:26px;fill:#e27d7d;font-family:OpenSans-Bold, Open Sans;font-weight:700;}</style></defs><title>mediumDog</title><g id="Layer_2" data-name="Layer 2"><g id="text"><path class="cls-1" d="M47.33,37.14A2.3,2.3,0,0,0,47,35.92l-2.2-3.54a4,4,0,0,1-.41-1.76V19.72A12.82,12.82,0,0,0,31.55,6.9H25.63A12.82,12.82,0,0,0,12.82,19.72v10.9a3.87,3.87,0,0,1-.42,1.76l-2.2,3.54a2.39,2.39,0,0,0-.34,1.22h0a2.31,2.31,0,0,0,2.3,2.3H45A2.31,2.31,0,0,0,47.33,37.14Z"/><polygon class="cls-1" points="31.55 6.9 36.48 0 20.7 0 25.64 6.9 25.64 8.87 31.55 8.87 31.55 6.9"/><path class="cls-2" d="M47,35.92l-2.2-3.54a4,4,0,0,1-.41-1.76V19.72a12.81,12.81,0,0,0-2.69-7.89C39,26.34,29.78,34.7,21.07,39.44H45a2.3,2.3,0,0,0,2-3.52Z"/><path class="cls-3" d="M33.52,21.69v-.63a3.31,3.31,0,0,0-3.31-3.31h-.63v-2h-2v2H27a3.31,3.31,0,0,0-1.17,6.42l1.8.67v3.75H27a1.35,1.35,0,0,1-1.35-1.34h0v-.63h-2v.63A3.32,3.32,0,0,0,27,30.56h3.23a3.31,3.31,0,0,0,1.16-6.41l-1.79-.67V19.72h.63a1.34,1.34,0,0,1,1.34,1.34h0v.63ZM30.68,26a1.35,1.35,0,0,1,.87,1.26,1.34,1.34,0,0,1-1.34,1.34h-.63v-3Zm-3.07-3.25-1.11-.42a1.35,1.35,0,0,1,.48-2.6h.63Z"/><path class="cls-4" d="M48.31,9.86h0a4.78,4.78,0,0,0-3.94-3.94h0A4.79,4.79,0,0,0,48.31,2h0a4.8,4.8,0,0,0,3.95,4h0A4.79,4.79,0,0,0,48.31,9.86Z"/><path class="cls-4" d="M3.94,29.58h0A4.78,4.78,0,0,0,0,25.64H0a4.8,4.8,0,0,0,3.94-3.95h0a4.81,4.81,0,0,0,4,3.95h0A4.79,4.79,0,0,0,3.94,29.58Z"/><path class="cls-5" d="M56.76,34.4a3,3,0,0,0-3.94-1.09l-14,6a1.91,1.91,0,0,1-.78.16H20.71a2,2,0,1,1,0-3.95h7.88a5.91,5.91,0,0,0,5.92-5.91H18.1a9,9,0,0,0-7,3.36L4.93,40.42l7,12.76,26.79-6.44A13.58,13.58,0,0,0,42,45.52l13.81-7.07A3,3,0,0,0,56.76,34.4Z"/><path class="cls-6" d="M9.67,49.12l2.22,4.06,26.79-6.44A13.58,13.58,0,0,0,42,45.52l7.47-3.83C37.07,45.48,20.61,47.85,9.67,49.12Z"/><polygon class="cls-7" points="0 39.44 0 57.19 12.82 57.19 15.78 54.23 3.94 36.48 0 39.44"/><path class="cls-8" d="M0,57.19H12.82l3-3L13.61,51A70.31,70.31,0,0,1,0,55Z"/><circle class="cls-9" cx="8.87" cy="52.26" r="1.97"/><text class="cls-10" transform="translate(68.66 32.58)">$1,214 </text></g></g></svg>