<svg xmlns="http://www.w3.org/2000/svg" viewBox="0 0 219.58 157.72"><defs><style>.cls-1{isolation:isolate;}.cls-2{fill:#d1bba1;}.cls-3{fill:#f6e7cf;}.cls-4{mix-blend-mode:multiply;}.cls-5{fill:#231f20;}.cls-6{fill:#0f1110;}.cls-7{fill:#fff;}</style></defs><title>pug-jump</title><g class="cls-1"><g id="Layer_2" data-name="Layer 2"><g id="pig2"><path class="cls-2" d="M177.1,113.88l15,11.9s-6,25-5,30.37H163.77s-1.33-7.8,5-9.85,9.11-18.06,9.11-18.06l-14.23-7.8,8.79-9.85Z"/><path class="cls-2" d="M42.59,115.47S9.75,125,3.7,125.84s-9.08,19.44,27.22,8.21c0,0,22-4.75,30.25,1.73s30.24-9.22,30.24-9.22S71.11,99.91,42.59,115.47Z"/><path class="cls-3" d="M92.28,64.86s48.83-20.31,62.22-28.52,41.05,2.16,41.05,2.16S229.26,61,211.11,96c0,0-6.05,19.88,3.45,28.52,0,0-9.07,32-11.23,32.84s-25.93,0-25.93,0-3-9.94,8.65-10.37c0,0,12.09-12.53,9.93-18.58s-19.44-6.48-23.33-14.26c0,0-24.63,41.48-53.15,37.16,0,0-14.26,11.24-41.91,3.46,0,0-16.86-5.62-29.39.86s-38-3.45-20.74-10.8,18.15-1.73,24.2-5.18S75,137.89,65.49,124.06,38.39,88.88,92.28,64.86Z"/><path class="cls-3" d="M51.47,25.41c1.11,0,17.38.38,26.78,2.16a.24.24,0,0,1,.12,0c1,.41,14,6.22,19.13,25.32a55.72,55.72,0,0,1,1.91,16.63A38,38,0,0,1,88.94,94.2c-1.48,1.55-3.1,3.16-4.74,4.64a.63.63,0,0,1-.42.16h0a.62.62,0,0,1-.62-.65c.65-10.64-11-26.08-16.09-30.39-4.87-4.09-6.95-7.38-7.8-9.16a.62.62,0,0,0-1.11,0c-.86,1.78-2.93,5.07-7.81,9.16-5.12,4.31-16.74,19.75-16.09,30.39a.62.62,0,0,1-.62.65h0a.67.67,0,0,1-.42-.16c-1.72-1.55-3.41-3.25-4.95-4.87A37.21,37.21,0,0,1,18.08,70.76a55.45,55.45,0,0,1,1.85-17.84C25.05,33.86,38,28,39.05,27.61l.13,0,12.17-2.15Z"/><g class="cls-4"><path class="cls-3" d="M58.71,65.37a.73.73,0,0,1-.72-.73V43a.72.72,0,0,1,.72-.72.73.73,0,0,1,.73.72V64.64A.73.73,0,0,1,58.71,65.37Z"/></g><path class="cls-5" d="M42.64,59.13a10.42,10.42,0,0,0,1.11,2.64,6.37,6.37,0,0,1-.82,7.53,60.27,60.27,0,0,0-4.83,6,6.34,6.34,0,0,1-11-1c-.87-1.92-1.76-3.79-2.57-5.35a6.36,6.36,0,0,1,.85-7.1,30.75,30.75,0,0,1,8-6.69A6.35,6.35,0,0,1,42.64,59.13Z"/><path class="cls-6" d="M57.61,89.26c-2.25,1.22-7.23,4.9-10.59,14.68a2.61,2.61,0,0,0,3.57,3.26l.22-.12a2.51,2.51,0,0,1,2.58,0,8.16,8.16,0,0,0,5,1.24,2.42,2.42,0,0,1,.76,0,8.13,8.13,0,0,0,5-1.24,2.53,2.53,0,0,1,2.59,0l.21.12a2.61,2.61,0,0,0,3.57-3.26C67.22,94.16,62.25,90.48,60,89.26A2.51,2.51,0,0,0,57.61,89.26Z"/><path class="cls-5" d="M67.07,68c-7.43-6.24-8.36-10.6-8.36-10.6s-.93,4.36-8.36,10.6c-6.66,5.6-24.29,30-11.7,38.23,0,0,3.09,2.26,8.89,0,0,0,3-13.56,11.17-16.46,8.15,2.9,11.17,16.46,11.17,16.46,5.8,2.26,8.89,0,8.89,0C91.36,98,73.73,73.56,67.07,68Z"/><g class="cls-4"><path class="cls-3" d="M37.29,105.86a.71.71,0,0,1-.53-.24c-6.57-7.28-7.09-16.1-1.55-26.21,3-5.54,7.82-11.28,14.23-17.09a7.09,7.09,0,0,0,2.37-7.2,10.92,10.92,0,0,0-1.62-3.7.73.73,0,1,1,1.16-.87c0,.08,5.26,7.24-.94,12.85-10.23,9.26-25.47,26.94-12.58,41.25a.72.72,0,0,1,0,1A.7.7,0,0,1,37.29,105.86Z"/></g><path class="cls-7" d="M40.3,66a6.07,6.07,0,1,0-6.07,6.06A6.06,6.06,0,0,0,40.3,66Z"/><path class="cls-6" d="M39.11,66a4.88,4.88,0,1,0-4.88,4.88A4.87,4.87,0,0,0,39.11,66Z"/><path class="cls-6" d="M53.17,75.07a1.46,1.46,0,0,0,2.89.42,6,6,0,0,0,.07-.77s.22-3.54-1.93-2.66C53,72.57,53.26,73.9,53.17,75.07Z"/><g class="cls-4"><path class="cls-3" d="M80.13,105.86a.68.68,0,0,1-.48-.19.72.72,0,0,1-.06-1c12.9-14.31-2.34-32-12.58-41.25-6.19-5.61-1-12.77-.94-12.85a.73.73,0,1,1,1.17.87c-.2.26-4.46,6.19.75,10.9,6.41,5.81,11.19,11.55,14.23,17.09,5.54,10.11,5,18.93-1.55,26.21A.71.71,0,0,1,80.13,105.86Z"/></g><path class="cls-5" d="M74.22,59a9.74,9.74,0,0,1-1.11,2.64,6.39,6.39,0,0,0,.83,7.53,59.36,59.36,0,0,1,4.83,6.06,6.34,6.34,0,0,0,11-1c.87-1.92,1.76-3.79,2.57-5.35a6.36,6.36,0,0,0-.85-7.1,30.92,30.92,0,0,0-8-6.69A6.36,6.36,0,0,0,74.22,59Z"/><path class="cls-7" d="M77.13,66a6.06,6.06,0,1,1,6.06,6.06A6.06,6.06,0,0,1,77.13,66Z"/><circle class="cls-6" cx="83.19" cy="66" r="4.88"/><path class="cls-6" d="M64.25,75.07a1.46,1.46,0,0,1-2.88.42,4.59,4.59,0,0,1-.07-.77s-.22-3.54,1.93-2.66C64.46,72.57,64.17,73.9,64.25,75.07Z"/><path class="cls-5" d="M96.73,52.92c-4.56-17-15.38-23.47-18.39-25l0-.37S78,22.25,90.43,31.45a54.65,54.65,0,0,0,10.5,4.36s12.59,2.07,12.26,11.77c0,0-2.07,11.57-5.82,19.79,0,0-1.28,5.43-4.51,4.69s-4.34-8.77-4.34-8.77l-.14-1.57A57.86,57.86,0,0,0,96.73,52.92Z"/><path class="cls-5" d="M21.88,52.92c4.56-17,15.38-23.47,18.39-25l0-.37s.31-5.33-12.12,3.87a54.65,54.65,0,0,1-10.5,4.36S5.09,37.88,5.42,47.58c0,0,2.07,11.57,5.82,19.79,0,0,1.28,5.43,4.51,4.69s4.34-8.77,4.34-8.77l.14-1.57A57.86,57.86,0,0,1,21.88,52.92Z"/><path class="cls-7" d="M34.87,64.64a1.36,1.36,0,1,1-1.35-1.35A1.36,1.36,0,0,1,34.87,64.64Z"/><path class="cls-7" d="M82.55,64.64a1.36,1.36,0,1,0,1.36-1.35A1.36,1.36,0,0,0,82.55,64.64Z"/><g class="cls-4"><path class="cls-3" d="M30.47,53a.72.72,0,0,1-.58-.28.74.74,0,0,1,.13-1c12.3-9.53,16.38-6.52,16.8-6.15a.74.74,0,0,1,.07,1,.72.72,0,0,1-1,.07c-.1-.07-3.72-2.51-15,6.2A.73.73,0,0,1,30.47,53Z"/></g><g class="cls-4"><path class="cls-3" d="M87,53a.76.76,0,0,1-.45-.15c-11.34-8.79-14.93-6.22-15-6.19a.73.73,0,0,1-1-.07.75.75,0,0,1,.07-1c.43-.37,4.5-3.38,16.8,6.15a.72.72,0,0,1,.13,1A.69.69,0,0,1,87,53Z"/></g><path class="cls-3" d="M212.47,0s27.32,49-25.13,52.09C187.34,52.09,208.83,27.11,212.47,0Z"/></g></g></g></svg>