<svg xmlns="http://www.w3.org/2000/svg" viewBox="0 0 164.89 157.72"><defs><style>.cls-1{fill:#d1bba1;}.cls-2{fill:#f6e7cf;}</style></defs><title>pug-body2</title><g id="Layer_2" data-name="Layer 2"><g id="pig2"><path class="cls-1" d="M122.41,113.88l15,11.9s-6,25-5,30.37H109.07s-1.33-7.8,5-9.85,9.11-18.06,9.11-18.06L109,120.44l8.78-9.85Z"/><path class="cls-2" d="M64.81,151.28C93.37,155.33,118,114.12,118,114.12c3.89,7.78,21.18,8.21,23.34,14.26S131.35,147,131.35,147c-11.67.43-8.64,10.37-8.64,10.37s23.76.87,25.92,0,11.24-32.84,11.24-32.84c-9.51-8.64-3.46-28.52-3.46-28.52,18.15-35-15.55-57.47-15.55-57.47S113.2,28.13,99.81,36.34,37.58,64.86,37.58,64.86c-53.88,24-37,45.89-26.79,59.2C19.63,135.58,38,147.48,64.81,151.28Z"/><path class="cls-2" d="M157.78,0s27.31,49-25.14,52.09C132.64,52.09,154.13,27.11,157.78,0Z"/></g></g></svg>