<svg xmlns="http://www.w3.org/2000/svg" viewBox="0 0 119.94 105.74"><defs><style>.cls-1{isolation:isolate;}.cls-2{fill:#f6e7cf;}.cls-3{mix-blend-mode:multiply;}.cls-4{fill:#231f20;}.cls-5{fill:#0f1110;}.cls-6{fill:#fff;}</style></defs><title>pug-face</title><g class="cls-1"><g id="Layer_2" data-name="Layer 2"><g id="pug3"><path class="cls-2" d="M57.22,4.82c1.24.42,19.42,6.69,29.36,12.08l.12.08c1,.81,13.51,12,12.39,35.38a65.58,65.58,0,0,1-3.84,19.39,44.82,44.82,0,0,1-20.67,24c-2.22,1.21-4.61,2.44-7,3.51a.8.8,0,0,1-.53,0h0a.73.73,0,0,1-.46-1c4.56-11.73-2.94-33.29-7.16-40C55.44,52,54.28,47.5,54,45.2a.73.73,0,0,0-1.26-.4c-1.6,1.69-5.12,4.64-12.07,7.49-7.32,3-25.95,16.18-29.06,28.38a.72.72,0,0,1-.93.51h0a.75.75,0,0,1-.41-.33C8.86,78.49,7.56,76,6.42,73.59a44,44,0,0,1-3.1-29.78,65.4,65.4,0,0,1,8.51-19.4C24.45,4.8,41.15,2.94,42.46,2.82h.16l14.47,2Z"/><g class="cls-3"><path class="cls-2" d="M51,52.38a.86.86,0,0,1-.55-1.08l7.81-24.37a.86.86,0,1,1,1.63.52L52.05,51.83A.85.85,0,0,1,51,52.38Z"/></g><path class="cls-4" d="M35.14,39.58a12.11,12.11,0,0,0,.3,3.37,7.52,7.52,0,0,1-3.64,8.16,71.73,71.73,0,0,0-7.61,5.08,7.5,7.5,0,0,1-12-5.1c-.29-2.47-.61-4.89-1-6.94a7.53,7.53,0,0,1,3.51-7.69,36.56,36.56,0,0,1,11.4-4.63A7.49,7.49,0,0,1,35.14,39.58Z"/><path class="cls-5" d="M41.13,78.87c-3,.56-9.9,2.9-17.21,12.7a3.08,3.08,0,0,0,2.84,5l.29-.06a3,3,0,0,1,2.91.93,9.59,9.59,0,0,0,5.21,3.21,3.12,3.12,0,0,1,.85.27,9.61,9.61,0,0,0,6.11.42,3,3,0,0,1,2.91.93l.2.22a3.08,3.08,0,0,0,5.18-2.38c-.24-12.23-4.52-18.15-6.62-20.33A2.93,2.93,0,0,0,41.13,78.87Z"/><path class="cls-4" d="M59.44,58.31c-6.11-9.7-5.58-14.94-5.58-14.94s-2.62,4.57-13.22,8.92c-9.51,3.89-38.14,25-26.94,38.79,0,0,2.66,3.66,10,3.2,0,0,8.28-14.16,18.5-14.49,8.12,6.2,6.63,22.54,6.63,22.54,5.71,4.64,10,3.21,10,3.21C76,100.81,64.92,67,59.44,58.31Z"/><g class="cls-3"><path class="cls-2" d="M12.29,90.22a.83.83,0,0,1-.52-.47C7,79.19,9.6,69.08,19.48,59.7c5.4-5.13,12.86-9.87,22.16-14.08a8.41,8.41,0,0,0,5.26-7.26,12.63,12.63,0,0,0-.49-4.74A.86.86,0,0,1,48,33.06c0,.1,3.31,10-5.68,14.12C27.49,53.91,4,68.31,13.33,89.05a.85.85,0,0,1-.43,1.13A.86.86,0,0,1,12.29,90.22Z"/></g><path class="cls-6" d="M30,46.45a7.16,7.16,0,1,0-9,4.64A7.16,7.16,0,0,0,30,46.45Z"/><path class="cls-5" d="M28.7,46a5.77,5.77,0,1,0-7.25,3.73A5.77,5.77,0,0,0,28.7,46Z"/><path class="cls-5" d="M41.24,61.3a1.73,1.73,0,0,0,3.1,1.51A6.62,6.62,0,0,0,44.7,62s1.52-3.9-1.21-3.69C41.91,58.41,41.76,60,41.24,61.3Z"/><g class="cls-3"><path class="cls-2" d="M60.48,105.65a.82.82,0,0,1-.48-.38.85.85,0,0,1,.31-1.17C80,92.65,69.2,67.27,61,53.16c-5-8.55,3.49-14.73,3.57-14.79a.85.85,0,0,1,1.2.2.84.84,0,0,1-.2,1.19c-.31.23-7.24,5.36-3.08,12.54,5.11,8.84,8.43,17,9.85,24.34C75,90,71.18,99.75,61.17,105.58A.84.84,0,0,1,60.48,105.65Z"/></g><path class="cls-4" d="M70.72,50.81a12.09,12.09,0,0,1-2.2,2.57,7.54,7.54,0,0,0-1.79,8.76A70.26,70.26,0,0,1,70,70.7a7.5,7.5,0,0,0,12.71,2.81c1.68-1.85,3.34-3.63,4.82-5.1a7.51,7.51,0,0,0,1.61-8.29,36.52,36.52,0,0,0-6.59-10.4A7.49,7.49,0,0,0,70.72,50.81Z"/><path class="cls-6" d="M71.47,59.73a7.16,7.16,0,1,1,4.63,9A7.16,7.16,0,0,1,71.47,59.73Z"/><circle class="cls-5" cx="78.29" cy="61.91" r="5.76"/><path class="cls-5" d="M53.71,65.3a1.72,1.72,0,0,1-3.39-.58,7.17,7.17,0,0,1,.19-.89s1-4.06,3.13-2.29C54.85,62.55,54,64,53.71,65.3Z"/><path class="cls-4" d="M99.46,50.16C97.51,29.45,86.19,19.78,83,17.43L83,17s.69-6.26,13.34,6.92a65.58,65.58,0,0,0,11.36,7.15s14.25,4.9,12,16.13c0,0-4.71,13.06-10.71,21.9,0,0-2.55,6.06-6.17,4.57s-3.32-11.08-3.32-11.08l.14-1.85A67.45,67.45,0,0,0,99.46,50.16Z"/><path class="cls-4" d="M19,30.5C25.63,10.78,38.85,3.93,42.51,2.38l.06-.44S43.32-4.31,28,5.64A65.16,65.16,0,0,1,15.31,10S.32,11.55,0,23C0,23,1.62,36.8,5.45,46.77c0,0,1.11,6.48,5,5.85s5.75-10,5.75-10l.28-1.84A68.06,68.06,0,0,1,19,30.5Z"/><path class="cls-6" d="M24.41,43a1.6,1.6,0,1,1-1-2A1.59,1.59,0,0,1,24.41,43Z"/><path class="cls-6" d="M78.06,60.16a1.6,1.6,0,1,0,2-1A1.6,1.6,0,0,0,78.06,60.16Z"/><g class="cls-3"><path class="cls-2" d="M23.65,28.29a.82.82,0,0,1-.54-.52.86.86,0,0,1,.51-1.1c17.27-6.29,20.78-1.44,21.12-.86a.86.86,0,0,1-1.46.89c-.09-.11-3.28-4.17-19.07,1.58A.83.83,0,0,1,23.65,28.29Z"/></g><g class="cls-3"><path class="cls-2" d="M87.21,48.65a.87.87,0,0,1-.45-.33C77.17,34.33,72.2,35.94,72.15,36A.84.84,0,0,1,71,35.51a.87.87,0,0,1,.45-1.13c.61-.27,6.28-2.19,16.69,13A.86.86,0,0,1,88,48.54.82.82,0,0,1,87.21,48.65Z"/></g></g></g></g></svg>