<svg xmlns="http://www.w3.org/2000/svg" viewBox="0 0 130.74 141.45"><defs><style>.cls-1{isolation:isolate;}.cls-2{fill:#f1dec4;}.cls-3{mix-blend-mode:multiply;}.cls-4{fill:#f6e7cf;}.cls-5{fill:#231f20;}.cls-6{fill:#0f1110;}.cls-7{fill:#322f30;}.cls-8{fill:#dc5f5f;}.cls-9{fill:#fcc062;}</style></defs><title>pug-completed</title><g class="cls-1"><g id="Layer_2" data-name="Layer 2"><g id="pig2"><path class="cls-2" d="M88.36,43.44l.14,0c1.18.5,17,7.54,23.19,30.71A67.39,67.39,0,0,1,114,94.36a46,46,0,0,1-12.7,29.9c-1.79,1.88-3.75,3.84-5.74,5.62a.74.74,0,0,1-.51.2h0a.75.75,0,0,1-.75-.79C95.1,116.38,81,97.65,74.79,92.43c-5.91-5-8.43-9-9.46-11.1a.75.75,0,0,0-1.35,0c-1,2.15-3.55,6.14-9.47,11.1C48.3,97.65,34.21,116.38,35,129.29c0,.43-.76.79-.76.79a.74.74,0,0,1-.5-.2c-2.09-1.87-4.15-3.93-6-5.9A45.15,45.15,0,0,1,15.37,95.83a67.27,67.27,0,0,1,2.24-21.64C23.82,51.07,32.74,46.92,41,43.44S73.59,37.84,88.36,43.44Z"/><g class="cls-3"><path class="cls-4" d="M64.65,89.29a.89.89,0,0,1-.88-.88V62.13a.88.88,0,0,1,1.76,0V88.41A.88.88,0,0,1,64.65,89.29Z"/></g><path class="cls-5" d="M45.16,81.73a12.46,12.46,0,0,0,1.35,3.2,7.72,7.72,0,0,1-1,9.12,76.07,76.07,0,0,0-5.86,7.35,7.69,7.69,0,0,1-13.31-1.23c-1.06-2.33-2.13-4.59-3.11-6.49a7.7,7.7,0,0,1,1-8.61A37.17,37.17,0,0,1,34,77,7.69,7.69,0,0,1,45.16,81.73Z"/><path class="cls-6" d="M63.32,118.27c-2.74,1.48-8.77,5.93-12.84,17.81A3.16,3.16,0,0,0,54.8,140l.27-.15a3.08,3.08,0,0,1,3.13,0,9.82,9.82,0,0,0,6.1,1.5,3.54,3.54,0,0,1,.92,0,9.87,9.87,0,0,0,6.11-1.5,3.08,3.08,0,0,1,3.13,0l.26.15a3.16,3.16,0,0,0,4.33-3.95C75,124.2,68.94,119.75,66.21,118.27A3.08,3.08,0,0,0,63.32,118.27Z"/><path class="cls-7" d="M74.79,92.43c-9-7.57-10.14-12.86-10.14-12.86s-1.12,5.29-10.14,12.86c-8.07,6.79-29.46,36.39-14.19,46.37,0,0,3.75,2.74,10.79,0,0,0,3.66-16.44,13.54-20,9.89,3.53,13.55,20,13.55,20,7,2.74,10.78,0,10.78,0C104.25,128.82,82.87,99.22,74.79,92.43Z"/><g class="cls-3"><path class="cls-4" d="M38.67,138.4a.87.87,0,0,1-.65-.29c-8-8.84-8.6-19.53-1.87-31.8C39.82,99.6,45.63,92.63,53.4,85.6a8.64,8.64,0,0,0,2.88-8.75,13,13,0,0,0-2-4.48.88.88,0,0,1,1.41-1.05c.07.09,6.38,8.77-1.14,15.58-12.41,11.24-30.89,32.68-15.25,50a.9.9,0,0,1-.07,1.25A.88.88,0,0,1,38.67,138.4Z"/></g><path class="cls-6" d="M57.93,101.06a1.77,1.77,0,0,0,3.5.5,6.38,6.38,0,0,0,.09-.94s.26-4.28-2.34-3.22C57.68,98,58,99.64,57.93,101.06Z"/><g class="cls-3"><path class="cls-4" d="M90.63,138.4a.87.87,0,0,1-.65-1.47c15.64-17.35-2.85-38.79-15.26-50-7.52-6.81-1.2-15.49-1.14-15.58A.88.88,0,0,1,75,72.37c-.24.32-5.41,7.51.9,13.23,7.78,7,13.58,14,17.26,20.71,6.72,12.27,6.09,23-1.87,31.8A.91.91,0,0,1,90.63,138.4Z"/></g><path class="cls-5" d="M83.47,81.57a12.46,12.46,0,0,1-1.35,3.2,7.72,7.72,0,0,0,1,9.12A76.07,76.07,0,0,1,89,101.24,7.69,7.69,0,0,0,102.29,100c1-2.33,2.13-4.59,3.11-6.49a7.7,7.7,0,0,0-1-8.61,37.33,37.33,0,0,0-9.69-8.11A7.7,7.7,0,0,0,83.47,81.57Z"/><path class="cls-6" d="M71.37,101.06a1.77,1.77,0,0,1-3.5.5,8.26,8.26,0,0,1-.08-.94s-.27-4.28,2.34-3.22C71.63,98,71.27,99.64,71.37,101.06Z"/><path class="cls-5" d="M110.77,74.19C105.23,53.57,92.11,45.73,88.46,43.9l0-.45s-.38-6.46,14.7,4.7a66.41,66.41,0,0,0,12.73,5.29s15.27,2.5,14.88,14.27c0,0-2.53,14-7.07,24,0,0-1.55,6.58-5.47,5.68s-5.26-10.64-5.26-10.64l-.18-1.9A70.67,70.67,0,0,0,110.77,74.19Z"/><path class="cls-5" d="M20,74.19C25.51,53.57,38.63,45.73,42.29,43.9l0-.45s.38-6.46-14.7,4.7a66.48,66.48,0,0,1-12.72,5.29S-.38,55.94,0,67.71c0,0,2.52,14,7.07,24,0,0,1.54,6.58,5.46,5.68s5.27-10.64,5.27-10.64l.17-1.9A69.52,69.52,0,0,1,20,74.19Z"/><g class="cls-3"><path class="cls-4" d="M30.39,74.29A.88.88,0,0,1,29.7,74a.89.89,0,0,1,.15-1.24c14.92-11.56,19.87-7.91,20.38-7.46a.89.89,0,0,1,.08,1.25.9.9,0,0,1-1.23.09c-.11-.09-4.51-3.06-18.15,7.52A.9.9,0,0,1,30.39,74.29Z"/></g><g class="cls-3"><path class="cls-4" d="M98.91,74.29a.89.89,0,0,1-.53-.18c-13.77-10.67-18.12-7.55-18.16-7.52A.87.87,0,0,1,79,66.51a.91.91,0,0,1,.08-1.26c.52-.45,5.46-4.1,20.38,7.46a.88.88,0,0,1-.54,1.58Z"/></g><path class="cls-8" d="M37.32,84a3.82,3.82,0,0,0-2.93,4.52A3.8,3.8,0,1,0,27,90.1c1.38,6.5,9.36,7.47,9.36,7.47s6.91-4.09,5.51-10.64A3.82,3.82,0,0,0,37.32,84Z"/><path class="cls-8" d="M98.15,85.1A3.79,3.79,0,0,0,94,88.47a3.8,3.8,0,1,0-7.56-.81c-.71,6.6,6.57,10,6.57,10s7.83-1.73,8.55-8.38A3.81,3.81,0,0,0,98.15,85.1Z"/><polygon class="cls-9" points="64.65 0 69.12 9.06 79.12 10.51 71.89 17.56 73.59 27.51 64.65 22.81 55.72 27.51 57.42 17.56 50.19 10.51 60.18 9.06 64.65 0"/></g></g></g></svg>