<svg xmlns="http://www.w3.org/2000/svg" viewBox="0 0 416.45 299.64"><defs><style>.cls-1{fill:#fff;}.cls-2{fill:#eee4d7;}.cls-3{fill:#e8b951;}.cls-4{fill:#f9e0c4;}.cls-5{fill:#e7b950;}.cls-6{fill:#0f1110;}.cls-7{fill:#f9ede4;}.cls-8{fill:#342c2b;}.cls-9{fill:#cb6853;}.cls-10{fill:none;stroke:#342c2b;stroke-linecap:round;stroke-linejoin:round;stroke-width:3.29px;}.cls-11{fill:#b98d1c;}</style></defs><title>shiba_jump</title><g id="Layer_2" data-name="Layer 2"><g id="Icon"><path class="cls-1" d="M379.58,190.87c0-5.09,4.92-7.94,14.16-4.64s24.33,11.41,22.57,17.08c-1.35,4.35-5.4,9-24.44,1.35S379.58,190.87,379.58,190.87Z"/><path class="cls-2" d="M268.61,252.69c10.85,6.08,27.64,6.17,51.62-5.27l-34.18-12.63Z"/><path class="cls-3" d="M212.84,9.92c8.52,30.27.91,50.13.91,50.13l-46-38.1S189.3,6,202.41.8C209.38-2,210.84,2.81,212.84,9.92Z"/><path class="cls-4" d="M203.62,14.53c2.74,14.42.66,33.05.66,33.05L175.3,25S191,12.91,198.56,9.92C202.56,8.33,202.82,10.37,203.62,14.53Z"/><path class="cls-3" d="M85.43,9.92c-8.52,30.27-.91,50.13-.91,50.13l46-38.1S109,6,95.86.8C88.89-2,87.43,2.81,85.43,9.92Z"/><path class="cls-4" d="M94.65,14.53C91.9,29,94,47.58,94,47.58L123,25S107.24,12.91,99.71,9.92C95.71,8.33,95.45,10.37,94.65,14.53Z"/><path class="cls-5" d="M221.15,87.23c-1.66-33.18-32.24-70.43-72-70.43S78.36,52.43,75.24,87.31c-1.18,13.18-.82,25,2.88,34.77,7.1,18.83,26.52,30.33,71,30.33,42.4,0,61.3-11.76,68.48-31.6C221,111.33,221.8,100,221.15,87.23Z"/><path class="cls-1" d="M159.12,57.42c.56,3.23,4.66,2.81,9.4,2s8.13-4,7.58-7.25-4.86-5.23-9.59-4.45S158.57,54.19,159.12,57.42Z"/><path class="cls-1" d="M136.88,57.42c-.56,3.23-4.66,2.81-9.4,2s-8.13-4-7.57-7.25,4.85-5.23,9.59-4.45S137.44,54.19,136.88,57.42Z"/><path class="cls-6" d="M163.59,72.92c1.14-7.66,9.26-15.67,20.81-6.85C182.32,78.44,170.46,79.35,163.59,72.92Z"/><ellipse class="cls-1" cx="171.86" cy="66.72" rx="1.79" ry="1.75"/><path class="cls-6" d="M132.41,72.92c-1.14-7.66-9.26-15.67-20.81-6.85C113.68,78.44,125.55,79.35,132.41,72.92Z"/><ellipse class="cls-1" cx="124.14" cy="66.72" rx="1.79" ry="1.75"/><path class="cls-5" d="M388.12,191c-12.26-5.95-20.68-4.09-28.92-2.68,10.41-34.64.1-68.68-45.15-78-8.12-2.41-39.12-17.41-94.55-7.07-4.38.82-60.95,47-70.34,48.5s-48.07-30.44-48.07-30.44L80,114.82c0,10.83,4,29.16-3.2,36.94s-13,41.51-18,60.85-18,24.73-25.18,29.67,3.86,32.83,23.74,25.18,42-20.23,50.72-35.52c3.5,18,43.8,40.92,55.49,43.17s68.35,16.19,122.31-37.32c18.89,12.14,39.57,28.78,55.76,17.53,12.58-8.73,39.35-33.95,50.36-45.86C395.54,205.65,395.28,194.47,388.12,191Z"/><path class="cls-7" d="M221.36,103.26s-.16-9.22-1.11-13c-2-7.86-17.38-13.84-34.74-7.67-20,7.12-15-9.18-37.49-9.18s-17.49,16.3-37.48,9.18c-17.36-6.17-27.22,3.16-31.63,10.64-8,13.48.18,34.7,2.48,39.52-13.85,23.33-7.11,89.56,47.24,123.66,15.8-13.31,27.15-20,39-20.31-11.36-7.42-14.42-12.79-15.26-17.09C159,218.45,234,155.53,221.36,103.26Z"/><path class="cls-8" d="M134.66,87.93c0-7,5.82-8.11,13-8.11s13,1.11,13,8.11-8.06,11.87-13,11.87C142.49,99.8,134.66,94.93,134.66,87.93Z"/><path class="cls-9" d="M147.66,130.1c-7,0-12.1-5.23-11.89-10.38a75.14,75.14,0,0,1,1.54-10.15c4.27-1.17,10.35-7.25,10.35-7.25s4.78,5.59,10.36,7.42a43.45,43.45,0,0,1,1.54,10C159.56,125.09,154.43,130.1,147.66,130.1Z"/><path class="cls-10" d="M147.66,91.68c0,6.78,0,13.47-8,17.56-6.65,3.38-19.12,1.82-20.15-7.72"/><path class="cls-10" d="M147.66,91.68c0,6.78-.28,14,8,17.56,12.76,5.47,19.29-1.95,20.15-7.72"/><path class="cls-1" d="M28.7,243.48c4.38.3,14.71-7.4,16.56-9,12.87,0,37.27,14.43,31.19,24.3-4.37,7.09-14.35,15.56-31.89,19.15C28.65,281.45-12.67,263.57,3.82,246,6.59,243.08,18.79,242.81,28.7,243.48Z"/><path class="cls-1" d="M139.64,247.76c-1.9,1.17-28.26,22.35-40.55,31-10.79,14.39,15.93,29,41.43,15.51,21.89-11.54,30.21-25.1,30.21-25.1C172.76,266.28,177.71,244.46,139.64,247.76Z"/><path class="cls-11" d="M359.2,188.32A87.42,87.42,0,0,1,350.65,203c6-7,16-14.26,22.87-16C371.2,186.64,361.31,187,359.2,188.32Z"/></g></g></svg>