<svg xmlns="http://www.w3.org/2000/svg" viewBox="0 0 118.93 137.61"><defs><style>.cls-1{fill:#e8b951;}.cls-2{fill:#f9e0c4;}.cls-3{fill:#e7b950;}.cls-4,.cls-6,.cls-9{fill:none;}.cls-5{fill:#fff;}.cls-6{stroke:#020201;stroke-width:2px;}.cls-6,.cls-9{stroke-linecap:round;stroke-linejoin:round;}.cls-7{fill:#342c2b;}.cls-8{fill:#cb6853;}.cls-9{stroke:#342c2b;stroke-width:1.95px;}.cls-10{fill:#dc5f5f;}</style></defs><title>shiba-completed</title><g id="Layer_2" data-name="Layer 2"><g id="pig2"><path class="cls-1" d="M2.77,40c-.7-1.95.48-2.38,1.43-2.24,8.57,1.34,17.81,5,23.36,7.38A50.74,50.74,0,0,1,43.79,37.5C31.51,36,9.67,33.55,4.14,33.57c-4.16,0-5,3.15-3.33,7,3.53,8.06,9.91,13,15.24,16,.39-.52.78-1,1.18-1.53C12.27,51.9,5.07,46.52,2.77,40Z"/><path class="cls-2" d="M27.56,45.18C22,42.75,12.77,39.14,4.2,37.8c-1-.14-2.13.29-1.43,2.24C5.07,46.52,12.27,51.9,17.23,55A51.34,51.34,0,0,1,27.56,45.18Z"/><path class="cls-1" d="M114.72,37.8c1-.14,2.13.29,1.44,2.24-2.9,8.16-13.56,14.58-17.75,16.84.33.45.66.9,1,1.36,5.7-2.51,14.39-7.78,18.74-17.71,1.68-3.81.82-6.94-3.33-7-6.08,0-31.84,3-43,4.33a50.58,50.58,0,0,1,16.61,8.62C93,44.35,104.37,39.41,114.72,37.8Z"/><path class="cls-2" d="M98.41,56.88c4.19-2.26,14.85-8.68,17.75-16.84.69-1.95-.49-2.38-1.44-2.24C104.37,39.41,93,44.35,88.43,46.52A50.79,50.79,0,0,1,98.41,56.88Z"/><path class="cls-3" d="M59.46,35.73c-.37,0-.73,0-1.09,0a50.71,50.71,0,0,1,11.51,1.59A35,35,0,0,0,59.46,35.73Z"/><path class="cls-4" d="M58.37,35.76c-.42,0-.84,0-1.27,0A50.77,50.77,0,0,0,43.79,37.5l2.79.33A40.21,40.21,0,0,1,58.37,35.76Z"/><path class="cls-4" d="M71.82,37.9c-.64-.2-1.29-.39-1.94-.55.59.18,1.17.36,1.75.57Z"/><path class="cls-1" d="M31.21,46.85a45,45,0,0,1,15.37-9l-2.79-.33a50.74,50.74,0,0,0-16.23,7.68C29.09,45.86,30.34,46.44,31.21,46.85Z"/><path class="cls-1" d="M21.78,57.54c-.76-.38-2.45-1.27-4.55-2.56-.4.5-.79,1-1.18,1.53a45.34,45.34,0,0,0,4.86,2.31Z"/><path class="cls-2" d="M31.21,46.85c-.87-.41-2.12-1-3.65-1.67A51.34,51.34,0,0,0,17.23,55c2.1,1.29,3.79,2.18,4.55,2.56A59.94,59.94,0,0,1,31.21,46.85Z"/><path class="cls-1" d="M86.75,47.32l1.68-.8A50.58,50.58,0,0,0,71.82,37.9l-.19,0A45.13,45.13,0,0,1,86.75,47.32Z"/><path class="cls-1" d="M96.7,57.76,92.81,54a59.84,59.84,0,0,1,3.77,5.41c.8-.29,1.75-.66,2.8-1.12-.31-.46-.64-.91-1-1.36C97.35,57.45,96.7,57.76,96.7,57.76Z"/><path class="cls-2" d="M92.81,54l3.89,3.81s.65-.31,1.71-.88a50.79,50.79,0,0,0-10-10.36l-1.68.8A55.66,55.66,0,0,1,92.81,54Z"/><path class="cls-3" d="M24,125.39c-.35-8.82.46-17.49,1.74-22.59a7.52,7.52,0,0,0-1.16-1.53c-5.42-5.49-9.47-15.06-9-21.08.43-5,6.8-14.35,18.34-10.14,13.3,4.86,10-6.26,24.93-6.26s11.62,11.12,24.92,6.26c11.54-4.21,16.37,4.79,17.68,10.14s-1.51,16.75-9,22.94A28.21,28.21,0,0,0,88,107.84a72.49,72.49,0,0,1-.25,19.52c8.84-6.67,15.37-14.06,17.91-27.11,2.36-12.12-2-29.46-9.08-40.89a28.3,28.3,0,0,1-2.7.85L66.65,38.52l5-.6c-.58-.21-1.16-.39-1.75-.57a50.71,50.71,0,0,0-11.51-1.59,40.21,40.21,0,0,0-11.79,2.07l5.7.69L25.05,60.21a34.4,34.4,0,0,1-4.14-1.39,76.13,76.13,0,0,0-10.57,25,58.26,58.26,0,0,0-.46,18.34C10.86,110.11,16.84,119.25,24,125.39Z"/><path class="cls-3" d="M32.63,47.55,22.23,57.76l-.45-.22-.87,1.28a34.4,34.4,0,0,0,4.14,1.39L52.28,38.52l-5.7-.69a45,45,0,0,0-15.37,9Z"/><path class="cls-3" d="M32.63,47.55l-1.42-.7a59.94,59.94,0,0,0-9.43,10.69l.45.22Z"/><path class="cls-3" d="M86.29,47.55l.46-.23a45.13,45.13,0,0,0-15.12-9.4l-5,.6L93.88,60.21a28.3,28.3,0,0,0,2.7-.85A59.84,59.84,0,0,0,92.81,54Z"/><path class="cls-3" d="M92.81,54a55.66,55.66,0,0,0-6.06-6.63l-.46.23Z"/><path class="cls-5" d="M87.51,104.5c.19,1.13.35,2.24.49,3.34a28.21,28.21,0,0,1,4.56-4.71c7.44-6.19,10.26-17.6,9-22.94S95.37,65.84,83.83,70.05c-13.3,4.86-10-6.26-24.92-6.26S47.28,74.91,34,70.05c-11.54-4.21-17.91,5.17-18.34,10.14-.51,6,3.54,15.59,9,21.08a7.52,7.52,0,0,1,1.16,1.53,10.44,10.44,0,0,1,1.77-4.26C48.15,123.05,86.15,96.62,87.51,104.5Z"/><path class="cls-5" d="M88,107.84a21.06,21.06,0,0,0-2.1,3.39c-3,6.11-5.26,6-26.24,6-26.4,0-28.51-3.73-33.66-14a4,4,0,0,0-.24-.38c-1.28,5.1-2.09,13.77-1.74,22.59a50.92,50.92,0,0,0,63.73,2A72.49,72.49,0,0,0,88,107.84Z"/><path class="cls-5" d="M59.66,117.22c21,0,23.22.12,26.24-6a21.06,21.06,0,0,1,2.1-3.39c-.14-1.1-.3-2.21-.49-3.34-1.36-7.88-39.36,18.55-60-6a10.44,10.44,0,0,0-1.77,4.26,4,4,0,0,1,.24.38C31.15,113.49,33.26,117.22,59.66,117.22Z"/><path class="cls-5" d="M51.32,54.48c-.37,2.21-3.1,1.92-6.25,1.39s-5.41-2.75-5-4.95,3.23-3.57,6.38-3S51.69,52.28,51.32,54.48Z"/><path class="cls-6" d="M37.44,58.89c4.31-.88,9.93,1,11.72,3.25"/><path class="cls-6" d="M79.14,60c-4.15-1.47-9.71.22-11.78,2.16"/><path class="cls-7" d="M50.24,69.91c0-4.78,3.87-5.54,8.65-5.54s8.64.76,8.64,5.54S62.17,78,58.89,78C55.45,78,50.24,74.68,50.24,69.91Z"/><path class="cls-8" d="M59.18,106.9c-5.15,0-8.94-3.62-8.78-8.66a94,94,0,0,1,1.14-9.93c3.15-1.15,7.25-6.2,7.25-6.2s5,3.64,8,6.37A55.52,55.52,0,0,1,68,98.24C68,103.49,64.18,106.9,59.18,106.9Z"/><path class="cls-9" d="M58.89,78c0,2.11,0,3.85-1.12,5.09-1.32,1.47-4.24,3.69-9.59,6.57"/><path class="cls-9" d="M58.79,76.71c0,1.92-.06,5.05,1.26,6.62.71.85,6.91,4.64,10.65,6.2"/><path class="cls-5" d="M66.1,54.48c.37,2.21,3.1,1.92,6.25,1.39s5.41-2.75,5-4.95-3.23-3.57-6.38-3S65.73,52.28,66.1,54.48Z"/><path class="cls-10" d="M65.88,0a7.56,7.56,0,0,0-7.51,7.62,7.57,7.57,0,0,0-15.14.11C43.32,21,58.5,26.05,58.5,26.05s15.1-5.21,15-18.53A7.57,7.57,0,0,0,65.88,0Z"/></g></g></svg>