<svg xmlns="http://www.w3.org/2000/svg" viewBox="0 0 124.29 124.29"><defs><style>.cls-1{fill:#9ebf43;}.cls-2{fill:#e6e7e8;}.cls-3{opacity:0.22;}.cls-4{fill:#0c0c0b;}</style></defs><title>toys-colored</title><g id="Layer_2" data-name="Layer 2"><g id="SHAMPOO"><path class="cls-1" d="M4.65,85.68A54.27,54.27,0,0,0,38.9,54.13a54.3,54.3,0,0,0-3.69-48A62.13,62.13,0,0,0,4.65,85.68Z"/><path class="cls-1" d="M79.82,70.61a59.25,59.25,0,0,1,38.58-34.8A62.08,62.08,0,0,0,39.83,4.17,59.2,59.2,0,0,1,43.53,56,59.2,59.2,0,0,1,6.75,90.25,62.09,62.09,0,0,0,82.61,120.8,59.21,59.21,0,0,1,79.82,70.61Z"/><path class="cls-1" d="M84.46,72.47A54.24,54.24,0,0,0,87.29,119a62.11,62.11,0,0,0,33.07-78.51A54.29,54.29,0,0,0,84.46,72.47Z"/><path class="cls-2" d="M87.29,119a54.24,54.24,0,0,1,33.07-78.51c-.58-1.57-1.24-3.11-2-4.63a59.22,59.22,0,0,0-35.79,85C84.19,120.24,85.75,119.63,87.29,119Z"/><path class="cls-2" d="M43.53,56a59.2,59.2,0,0,0-3.7-51.82c-1.56.6-3.11,1.26-4.62,2a54.3,54.3,0,0,1,3.69,48A54.27,54.27,0,0,1,4.65,85.68q1,2.32,2.1,4.57A59.2,59.2,0,0,0,43.53,56Z"/><g class="cls-3"><path class="cls-4" d="M72.07,105.45a65,65,0,0,1-64.58-73A62.14,62.14,0,1,0,120.18,84.2,64.9,64.9,0,0,1,72.07,105.45Z"/></g></g></g></svg>