<svg xmlns="http://www.w3.org/2000/svg" viewBox="0 0 48.92 48.91"><defs><style>.cls-1{fill:#fff;}.cls-2{fill:#91bed4;}</style></defs><title>toys-colored</title><g id="Layer_2" data-name="Layer 2"><g id="background"><path class="cls-1" d="M4.61,10.21A24.43,24.43,0,0,1,20.19,25.85a24.39,24.39,0,0,1-3.41,21.8A24.33,24.33,0,0,0,44.32,38.7,24.39,24.39,0,0,1,32.14,1.26a24.31,24.31,0,0,0-27.53,9Z"/><path class="cls-2" d="M17.92,26.58A21.89,21.89,0,0,0,3.85,12.48l-.57-.19A24.35,24.35,0,0,0,14.49,46.75l.35-.49A21.89,21.89,0,0,0,17.92,26.58Z"/><path class="cls-2" d="M31,22.33a21.89,21.89,0,0,0,14.07,14.1l.57.19A24.35,24.35,0,0,0,34.43,2.16l-.35.49A21.9,21.9,0,0,0,31,22.33Z"/></g></g></svg>